<svg id="inactive_drafts" data-name="inactive/drafts" xmlns="http://www.w3.org/2000/svg" width="23.819" height="24" viewBox="0 0 23.819 24">
  <path id="Combined_Shape" data-name="Combined Shape" d="M12.357,18.353l11.462-.028v5.648L12.357,24ZM0,19.658l9.818-.022v4.343L0,24ZM0,15.3l9.818-.025V18.52L0,18.545Zm12.357-1.886,11.462-.028v3.53l-11.462.028ZM0,10.935l9.818-.026v3.247L0,14.182ZM12.357,8.471l11.462-.028v3.53L12.357,12ZM0,9.818V8.788A4.692,4.692,0,0,1,4.91,4.363,4.691,4.691,0,0,1,9.818,8.788v1.03ZM12.357,7.059V5.727a5.727,5.727,0,1,1,11.453,0V7.059Z" transform="translate(0 0)" fill="#fff"/>
</svg>
