<svg xmlns="http://www.w3.org/2000/svg" width="23.943" height="20.925" viewBox="0 0 23.943 20.925">
  <g id="Processes" transform="translate(0 -0.051)">
    <g id="web-programming_1_" data-name="web-programming (1)" transform="translate(0 0.051)">
      <path id="Shape" d="M0,13a2,2,0,0,0,2,2H21.948a2,2,0,0,0,2-2V0H0Z" transform="translate(0 5.931)" fill="#fff"/>
      <path id="Shape-2" data-name="Shape" d="M23.943,5.085H0V2A2,2,0,0,1,2,0H21.948a2,2,0,0,1,2,2V5.084ZM10.5,1.239h0a1.339,1.339,0,0,0,0,2.678h0a1.339,1.339,0,0,0,0-2.678ZM6.384,1.227a1.339,1.339,0,0,0,0,2.678h0a1.339,1.339,0,0,0,0-2.678ZM2.267,1.21A1.341,1.341,0,1,0,3.609,2.55,1.342,1.342,0,0,0,2.267,1.21Z" transform="translate(0 0)" fill="#fff"/>
    </g>
  </g>
</svg>
