<svg width="551" height="242" viewBox="0 0 551 242" fill="none" xmlns="http://www.w3.org/2000/svg">
<path d="M109 6.9282C116.426 2.64102 125.574 2.64102 133 6.9282L213.789 53.5718C221.215 57.859 225.789 65.782 225.789 74.3564V167.644C225.789 176.218 221.215 184.141 213.789 188.428L133 235.072C125.574 239.359 116.426 239.359 109 235.072L28.2109 188.428C20.7853 184.141 16.2109 176.218 16.2109 167.644V74.3564C16.2109 65.782 20.7853 57.859 28.2109 53.5718L109 6.9282Z" fill="url(#paint0_linear_97_122)"/>
<mask id="mask0_97_122" style="mask-type:alpha" maskUnits="userSpaceOnUse" x="1" y="53" width="244" height="137">
<path opacity="0.7" fill-rule="evenodd" clip-rule="evenodd" d="M104 53C100.686 53 98 55.6863 98 59V138C98 141.314 100.686 144 104 144H179C199.967 147.226 217.347 157.995 226.054 172.432V144H239C242.314 144 245 141.314 245 138V59C245 55.6863 242.314 53 239 53H104Z" fill="#4843FE"/>
<path opacity="0.7" fill-rule="evenodd" clip-rule="evenodd" d="M142 190C145.314 190 148 187.314 148 184L148 105C148 101.686 145.314 99 142 99L63 99C42.0333 95.7736 24.6534 85.0046 15.9457 70.5684L15.9457 99L6.99998 99C3.68628 99 0.999982 101.686 0.999982 105L0.999989 184C0.999989 187.314 3.68628 190 6.99999 190L142 190Z" fill="#4843FE"/>
</mask>
<g mask="url(#mask0_97_122)">
<path d="M109 6.9282C116.426 2.64102 125.574 2.64102 133 6.9282L213.789 53.5718C221.215 57.859 225.789 65.782 225.789 74.3564V167.644C225.789 176.218 221.215 184.141 213.789 188.428L133 235.072C125.574 239.359 116.426 239.359 109 235.072L28.2109 188.428C20.7853 184.141 16.2109 176.218 16.2109 167.644V74.3564C16.2109 65.782 20.7853 57.859 28.2109 53.5718L109 6.9282Z" fill="url(#paint1_linear_97_122)"/>
</g>
<path d="M369.152 166.201V180H301.389V166.201H369.152ZM304.816 52.0312V180H287.854V52.0312H304.816ZM360.188 107.051V120.85H301.389V107.051H360.188ZM368.273 52.0312V65.918H301.389V52.0312H368.273ZM485.027 166.201V180H398.367V166.201H485.027ZM482.215 64.3359L402.41 180H391.951V167.344L471.668 52.0312H482.215V64.3359ZM475.008 52.0312V65.918H393.094V52.0312H475.008ZM534.281 52.0312V180H517.318V52.0312H534.281Z" fill="#001C47"/>
<defs>
<linearGradient id="paint0_linear_97_122" x1="176.5" y1="305" x2="67.5" y2="4.49999" gradientUnits="userSpaceOnUse">
<stop offset="0.0222372" stop-color="#001C47"/>
<stop offset="0.149964" stop-color="#133262"/>
<stop offset="0.624176" stop-color="#00A0E3"/>
<stop offset="0.984375" stop-color="#17BBFF"/>
</linearGradient>
<linearGradient id="paint1_linear_97_122" x1="121" y1="93" x2="146" y2="191" gradientUnits="userSpaceOnUse">
<stop stop-color="white"/>
<stop offset="1" stop-color="white" stop-opacity="0"/>
</linearGradient>
</defs>
</svg>
