<?xml version="1.0" encoding="utf-8"?>
<!-- Generator: Adobe Illustrator 25.4.1, SVG Export Plug-In . SVG Version: 6.00 Build 0)  -->
<svg version="1.1" id="Layer_1" xmlns="http://www.w3.org/2000/svg" xmlns:xlink="http://www.w3.org/1999/xlink" x="0px" y="0px"
	 viewBox="0 0 24 24" style="enable-background:new 0 0 24 24;" xml:space="preserve">
<style type="text/css">
	.st0{fill:none;stroke:#768399;stroke-width:2;stroke-linecap:round;stroke-linejoin:round;}
</style>
<g id="calendar" transform="translate(-3.5 -2)">
	<path id="Path_742" class="st0" d="M8.1,5.9h14.8C24.1,5.9,25,6.9,25,8c0,0,0,0,0,0v14.7c0,1.2-1,2.1-2.1,2.1c0,0,0,0,0,0H8.1
		c-1.2,0-2.1-0.9-2.1-2.1c0,0,0,0,0,0V8C6,6.9,6.9,5.9,8.1,5.9C8.1,5.9,8.1,5.9,8.1,5.9z"/>
	<path id="Path_743" class="st0" d="M19.7,3.1v5.6"/>
	<path id="Path_744" class="st0" d="M11.3,3.1v5.6"/>
	<path id="Path_745" class="st0" d="M6,11.8h19"/>
</g>
</svg>
