<svg xmlns="http://www.w3.org/2000/svg" width="17.999" height="17.999" viewBox="0 0 17.999 17.999">
  <path id="Chat_Icon" data-name="Chat Icon" d="M-1233.279,2.626a8.939,8.939,0,0,1-1.47.124,8.2,8.2,0,0,1-4.281-1.148c.115,0,.227.023.343.023,4.68,0,8.577-2.984,9.4-6.906A4.261,4.261,0,0,1-1228-2.313,4.206,4.206,0,0,1-1229.138.5h.013V5Zm-11.6-6.152A5.482,5.482,0,0,1-1246-6.812c0-3.418,3.273-6.187,7.312-6.187s7.312,2.769,7.312,6.187-3.274,6.187-7.312,6.187a8.386,8.386,0,0,1-3.151-.61L-1244.875.5Z" transform="translate(1246 13)" fill="#bcbccb"/>
</svg>
