<svg xmlns="http://www.w3.org/2000/svg" width="27" height="27.387" viewBox="0 0 27 27.387">
  <g id="Deploy" transform="translate(-1451.2 -276.345)">
    <g id="Rectangle_443" data-name="Rectangle 443" transform="translate(1451.2 284.732)" fill="#fff" stroke="#000" stroke-width="1">
      <rect width="27" height="19" rx="3" stroke="none"/>
      <rect x="0.5" y="0.5" width="26" height="18" rx="2.5" fill="none"/>
    </g>
    <line id="Line_295" data-name="Line 295" x2="24.942" transform="translate(1452.229 289.536)" fill="none" stroke="#000" stroke-width="1"/>
    <rect id="Rectangle_444" data-name="Rectangle 444" width="18" height="7" transform="translate(1456.2 283.732)" fill="#fff"/>
    <g id="spaceship" transform="translate(1456.594 276.345)">
      <g id="Group_745" data-name="Group 745" transform="translate(0 0)">
        <path id="Path_764" data-name="Path 764" d="M33.518,12.749,29.1,9.74l.279-1.869a6.752,6.752,0,0,0-1.416-5.22L25.934.137a.311.311,0,0,0-.469,0L23.44,2.651a6.753,6.753,0,0,0-1.416,5.22L22.3,9.74l-4.422,3.008A.3.3,0,0,0,17.75,13v2.548a.3.3,0,0,0,.3.3h5.124v1.332a.3.3,0,0,0,.3.3h.516v.3a6.546,6.546,0,0,0,1.475,4.133.3.3,0,0,0,.466,0,6.545,6.545,0,0,0,1.475-4.133v-.3h.517a.3.3,0,0,0,.3-.3V15.847h5.124a.3.3,0,0,0,.3-.3V13a.3.3,0,0,0-.132-.249Zm-2.039,2.5H28.274l.467-3.122,2.739,1.863ZM23.909,3.029,25.7.805l1.791,2.223A6.148,6.148,0,0,1,28.78,7.782l-1.115,7.463H23.734l-.808-5.407h0l-.307-2.056a6.148,6.148,0,0,1,1.29-4.753Zm-.783,12.217H19.921V13.987l2.739-1.863Zm-4.774-2.088L22.4,10.4l.159,1.062-3.11,2.116c-.082.056-.132.249-.132,1.666h-.967Zm8.455,4.627A5.944,5.944,0,0,1,25.7,21.231a5.943,5.943,0,0,1-1.107-3.448v-.3H25.4v1.282a.3.3,0,0,0,.6,0V17.479h.806Zm.818-.905H23.776V15.847h3.848Zm5.424-1.633h-.967V13.828a.3.3,0,0,0-.132-.249l-3.11-2.117L29,10.4l4.051,2.756Z" transform="translate(-17.75 -0.03)"/>
        <path id="Path_765" data-name="Path 765" d="M55.77,26.6c.942,0,1.708-1.031,1.708-2.3S56.712,22,55.77,22s-1.708,1.031-1.708,2.3S54.828,26.6,55.77,26.6Zm0-4c.6,0,1.106.777,1.106,1.7S56.37,26,55.77,26s-1.107-.777-1.107-1.7S55.171,22.6,55.77,22.6Z" transform="translate(-47.82 -18.224)"/>
      </g>
    </g>
  </g>
</svg>
