<?xml version="1.0" encoding="utf-8"?>
<!-- Generator: Adobe Illustrator 25.4.0, SVG Export Plug-In . SVG Version: 6.00 Build 0)  -->
<svg version="1.1" id="Layer_1" xmlns="http://www.w3.org/2000/svg" xmlns:xlink="http://www.w3.org/1999/xlink" x="0px" y="0px"
	 viewBox="0 0 1134.9 277" style="enable-background:new 0 0 1134.9 277;" xml:space="preserve">
<style type="text/css">
	.st0{enable-background:new    ;}
	.st1{fill:#001C47;}
	.st2{fill:#F99D1C;}
	.st3{fill:#00A0E4;}
</style>
<g id="Group_2426" transform="translate(-7024 -5369)">
	<g id="Group_2424" transform="translate(0 5)">
		<g class="st0">
			<path class="st1" d="M7476,5504.6h-76.5v66.7h87.9v11.7h-101.7v-163.5h101.2v11.7h-87.4v61.8h76.5V5504.6z"/>
			<path class="st1" d="M7522.7,5571.3h101v11.7H7506v-10.4l97-141.4h-94.1v-11.7h111.2v9.8L7522.7,5571.3z"/>
		</g>
		<g class="st0">
			<path class="st1" d="M7746.4,5516.2h-64.7v66.8H7648v-163.5h106.5v27.3h-72.8v42.2h64.7V5516.2z"/>
			<path class="st1" d="M7806.2,5583h-32.6v-172.5h32.6V5583z"/>
			<path class="st1" d="M7827.8,5521.1c0-12.1,2.3-22.8,7-32.2c4.6-9.4,11.3-16.7,20-21.9c8.7-5.2,18.8-7.7,30.4-7.7
				c16.4,0,29.8,5,40.1,15c10.4,10,16.2,23.7,17.4,40.9l0.2,8.3c0,18.6-5.2,33.6-15.6,44.9c-10.4,11.3-24.4,16.9-41.9,16.9
				s-31.5-5.6-41.9-16.8s-15.7-26.5-15.7-45.8V5521.1z M7860.3,5523.4c0,11.5,2.2,20.4,6.5,26.5c4.3,6.1,10.6,9.2,18.6,9.2
				c7.9,0,14-3,18.4-9.1c4.4-6,6.6-15.7,6.6-29c0-11.3-2.2-20.1-6.6-26.3c-4.4-6.2-10.6-9.3-18.6-9.3c-7.9,0-14.1,3.1-18.4,9.3
				C7862.5,5500.9,7860.3,5510.5,7860.3,5523.4z"/>
			<path class="st1" d="M8068.6,5538.9l15.9-77.4h31.3l-31,121.5h-27.2l-23-76.5l-23,76.5h-27.1l-31-121.5h31.3l15.8,77.3l22.2-77.3
				h23.5L8068.6,5538.9z"/>
		</g>
	</g>
	<g id="Group_2425">
		<path id="Path_850" class="st1" d="M8140.5,5416c10.2,0,18.5,8.3,18.5,18.5c0,10.2-8.3,18.5-18.5,18.5s-18.5-8.3-18.5-18.5
			C8122,5424.3,8130.3,5416,8140.5,5416L8140.5,5416z M8125.7,5434.5c0,8.1,6.6,14.7,14.7,14.7s14.7-6.6,14.7-14.7
			c0-8.1-6.6-14.7-14.7-14.7C8132.3,5419.7,8125.7,5426.3,8125.7,5434.5L8125.7,5434.5z"/>
		<path id="Path_851" class="st1" d="M8134,5442.1V5427h6.3c1,0,2,0.1,2.9,0.4c0.7,0.2,1.4,0.6,1.9,1.2c0.3,0.5,0.5,1,0.6,1.6
			c0.1,0.8,0.1,1.5-0.1,2.3c-0.3,1-1.1,1.8-2,2.2c-0.2,0.1-0.4,0.2-0.6,0.3c0.1,0,0.2,0.1,0.3,0.1c0.6,0.2,1.1,0.6,1.5,1.1
			c0.3,0.5,0.6,1,0.9,1.5c0.7,1.4,1.4,2.7,2,4.1c0,0.1,0,0.1,0.1,0.2h-4c-0.1,0-0.2,0-0.2-0.1c-0.6-1.2-1.2-2.6-1.9-3.8
			c-0.2-0.3-0.3-0.6-0.5-0.9c-0.3-0.5-0.9-0.8-1.5-0.9c-0.5-0.1-1.1,0-1.6-0.1v5.7L8134,5442.1z M8137.9,5429.8v3.9h1.9
			c0.3,0,0.5-0.1,0.7-0.1c0.6-0.1,1-0.6,1.1-1.1c0.1-0.3,0.1-0.7,0.1-1.1c0-0.3-0.1-0.6-0.3-0.8c-0.3-0.4-0.7-0.6-1.1-0.7
			C8139.5,5429.8,8138.7,5429.8,8137.9,5429.8L8137.9,5429.8z"/>
	</g>
	<g id="Group_2423" transform="translate(0 -8.247)">
		<path id="Path_852" class="st2" d="M7165.2,5560.3c-3.5-2.2-6.8-4.7-9.9-7.4c-9.2-7.3-18.3-14.7-27.6-21.9
			c-7.9-6.2-16.3-11.7-25.2-16.3c-11.8-6.1-24.6-9.9-37.8-11.4c-10.1-1.1-20.3-1-30.4,0.4c-2.4,0.3-4.8,0.6-7.1,1
			c-3.1,0.4-3.2,0.3-3.2-2.7c0.1-3.9,0.4-7.8,1.1-11.6c1.3-9.4,3.6-18.6,6.7-27.6c0.9-2.5,2-3.7,4.8-3.8c9.1-0.5,18.2-0.4,27.3,0.1
			c18.8,1.5,37.2,6.8,54,15.4c12.4,6.3,23.9,14.2,34.9,22.7c3.7,2.9,7.3,5.8,11,8.7c0.7,0.6,1.3,1.3,2,2c0.8,1.8,1.2,3.8,1.1,5.8
			v40.9C7166.6,5556.5,7166.9,5558.6,7165.2,5560.3z"/>
		<path id="Path_853" class="st3" d="M7165.6,5419.3c3,2.3,6,4.5,9,6.8c8.8,6.9,18.1,12.9,28,18c13.2,6.5,27.6,10.4,42.3,11.2
			c15.1,0.9,30.3-0.7,44.9-4.6c0.5-0.1,1-0.3,1.5-0.4c0.8-0.3,1.7,0.1,2,0.9c0,0,0,0,0,0c0.4,0.9,0.8,1.7,1.2,2.5
			c5,11.5,8.5,23.7,10.3,36.1c0.3,1.8,0.1,2.2-1.5,2.7c-4.7,1.4-9.5,2.6-14.4,3.6c-15.8,3.1-31.9,4.2-47.9,3
			c-16-1.1-31.8-5-46.5-11.4c-9.3-4.1-18.2-9-26.7-14.7c-0.9-0.6-1.7-1.3-2.5-2c-0.9-1.7-1.3-3.5-1.2-5.4v-41.1
			C7164.1,5422.5,7163.8,5420.6,7165.6,5419.3z"/>
		<path id="Path_854" class="st3" d="M7165.2,5560.3c0.1-1.5,0.2-2.9,0.2-4.4v-43.6c0-1.5,0.1-2.9,0.1-4.4c2.5,2,5.1,3.9,7.6,5.9
			c7.4,5.9,14.9,11.8,22.8,17c10.4,7.1,21.9,12.5,34,16c11,2.9,22.3,4.3,33.7,3.9c11.9-0.1,23.7-1.8,35.2-5c0.7-0.2,1.5-0.3,2.2-0.5
			c0.8,0.7,0.3,1.4,0.1,2c-4.3,16-11.5,31.2-21.1,44.7c-0.8,1.4-2.3,2.3-3.9,2.4c-1.2,0-2.4,0.2-3.6,0.2c-4.9,0.1-9.9,0.2-14.8,0.2
			c-21.5-0.3-42.6-5.4-61.8-15c-10.2-5.1-19.9-11.1-29-17.9C7166.3,5561.3,7165.8,5560.7,7165.2,5560.3z"/>
		<path id="Path_855" class="st2" d="M7165.2,5649.3c-2.8-1.6-5.1-3.8-7.6-5.8c-8.7-6.9-17.2-14-26.2-20.5
			c-9.8-7.1-20-13.3-31.4-17.6c-9.7-3.8-20-6.1-30.4-6.8c-4.4-0.3-8.8-0.6-13.2-0.5c-1.2,0.1-2.4-0.4-3.2-1.3
			c-9.3-11.9-16.5-25.3-21.5-39.6c0-0.2,0-0.4-0.1-0.6c1.2-0.7,2.6-1,4-1c6.5-0.5,13-1.2,19.6-1.4c7.4-0.2,14.7,0.2,22,1.1
			c14,1.6,27.6,5.3,40.5,10.9c11.2,5,21.9,11.1,31.9,18.3c4.6,3.3,9,6.7,13.5,10.1c0.8,0.6,1.6,1.4,2.4,2.1c0.8,1.6,1.1,3.3,1.1,5
			v42.9C7166.6,5646.1,7166.7,5647.9,7165.2,5649.3z"/>
		<path id="Path_856" class="st2" d="M7165.6,5419.3c-0.1,1.5-0.1,2.9-0.1,4.4v42.8c0,1.5-0.1,2.9-0.1,4.4c-4.4-2.7-8.7-5.7-12.7-9
			c-9.2-7.3-18.4-14.7-27.6-22c-7.3-5.9-14.9-11.3-22.9-16.2c-10.5-6.5-22-11.1-34-13.8c-0.3-0.1-0.5-0.1-0.8-0.2
			c-0.4-0.2-0.6-0.7-0.4-1.1c0-0.1,0.1-0.2,0.1-0.2c1.4-1.4,2.9-2.8,4.4-4.1c10.8-9.6,23.1-17.5,36.3-23.4c1.8-0.9,3.9-0.9,5.6,0.2
			c9.9,5.5,19.4,11.8,28.4,18.8c7.7,6,15.3,12.1,22.9,18.2C7164.9,5418.3,7165.2,5418.8,7165.6,5419.3z"/>
		<path id="Path_857" class="st3" d="M7165.2,5649.3c0.1-1.5,0.2-2.9,0.2-4.4v-44c0-1.5,0.1-2.9,0.2-4.4c4.6,3.6,9.2,7.3,13.8,10.9
			c6.9,5.5,13.8,11,21,16.1c7,5,14.4,9.3,22.1,12.9c0.7,0.3,1.4,0.7,2.1,1.1c-0.5,1.3-1.6,1.4-2.6,1.9c-8.9,3.9-18.2,7-27.7,9
			c-8,1.6-16.1,2.6-24.2,3C7168,5651.4,7166.4,5651,7165.2,5649.3z"/>
	</g>
</g>
</svg>
