<svg id="EZFlow-Logo" xmlns="http://www.w3.org/2000/svg" width="1172.859" height="271.104" viewBox="0 0 1172.859 271.104">
  <g id="Group_2424" data-name="Group 2424">
    <g id="EZ">
      <g id="Group_2795" data-name="Group 2795">
        <path id="Path_1194" data-name="Path 1194" d="M452,140.61H375.51v66.71h87.93V219H361.69V55.48H462.88V67.16H375.51v61.77H452Z" transform="translate(0 -3)" fill="#001c47"/>
        <path id="Path_1195" data-name="Path 1195" d="M498.71,207.32h101V219H482V208.56l97-141.4H484.89V55.48H596.07v9.79Z" transform="translate(0 -3)" fill="#001c47"/>
      </g>
    </g>
    <g id="Flow">
      <g id="Group_2796" data-name="Group 2796">
        <path id="Path_1196" data-name="Path 1196" d="M722.41,152.18H657.72V219H624V55.48H730.49V82.77H657.72V125h64.69Z" transform="translate(0 -3)" fill="#001c47"/>
        <path id="Path_1197" data-name="Path 1197" d="M782.15,219H749.59V46.5h32.56Z" transform="translate(0 -3)" fill="#001c47"/>
        <path id="Path_1198" data-name="Path 1198" d="M803.83,157.12q0-18.08,7-32.23A51,51,0,0,1,830.84,103q13.08-7.76,30.38-7.75,24.59,0,40.15,15.05t17.35,40.88l.22,8.31q0,28-15.61,44.86t-41.89,16.91q-26.28,0-41.94-16.85t-15.67-45.82Zm32.46,2.3q0,17.33,6.51,26.49t18.64,9.17q11.79,0,18.42-9.06t6.63-29q0-17-6.63-26.32t-18.64-9.33q-11.91,0-18.42,9.28t-6.51,28.77Z" transform="translate(0 -3)" fill="#001c47"/>
        <path id="Path_1199" data-name="Path 1199" d="M1044.61,174.86l16-77.37h31.33l-31,121.51h-27.17l-23-76.48-23,76.48H960.61l-31-121.51h31.33l15.84,77.26L999,97.49h23.47Z" transform="translate(0 -3)" fill="#001c47"/>
      </g>
    </g>
  </g>
  <g id="Group_2425" data-name="Group 2425" transform="translate(-6.06 -44)">
    <path id="Path_850" data-name="Path 850" d="M1138.438,47A40.46,40.46,0,1,1,1098,87.445,40.46,40.46,0,0,1,1138.438,47Zm-32.306,40.438a32.306,32.306,0,1,0,32.306-32.307A32.307,32.307,0,0,0,1106.131,87.438Z" transform="translate(0 -3)" fill="#001c47"/>
    <path id="Path_851" data-name="Path 851" d="M1110,91.054V58h13.72a19.09,19.09,0,0,1,6.378.964,8.393,8.393,0,0,1,4.055,2.718,7.931,7.931,0,0,1,1.359,3.463,14.987,14.987,0,0,1-.2,5.041,8,8,0,0,1-4.383,4.822c-.395.175-.964.373-1.359.57.2,0,.395.2.592.2a7.276,7.276,0,0,1,3.287,2.5,19.849,19.849,0,0,1,1.929,3.288c1.534,3.09,3.09,6.005,4.384,9.1a.459.459,0,0,0,.175.373h-8.767c-.2,0-.395,0-.395-.175-1.337-2.718-2.7-5.611-4.055-8.307a14.736,14.736,0,0,0-1.162-1.951,4.384,4.384,0,0,0-3.288-1.929c-1.162-.175-2.3,0-3.463-.175V91.032Zm8.5-26.871v8.5h4.252c.57,0,1.162-.2,1.534-.2a3.332,3.332,0,0,0,2.521-2.5,10.406,10.406,0,0,0,.2-2.323,3.043,3.043,0,0,0-.592-1.731,3.571,3.571,0,0,0-2.52-1.556,26.065,26.065,0,0,0-5.392-.175Z" transform="translate(14.301 10.107)" fill="#001c47"/>
  </g>
  <g id="Group_2423" data-name="Group 2423">
    <path id="Path_852" data-name="Path 852" d="M141.2,183a78.472,78.472,0,0,1-9.9-7.4c-9.2-7.3-18.3-14.7-27.6-21.9a160,160,0,0,0-25.2-16.3A109,109,0,0,0,40.7,126a124.2,124.2,0,0,0-30.4.4c-2.4.3-4.8.6-7.1,1-3.1.4-3.2.3-3.2-2.7a76.551,76.551,0,0,1,1.1-11.6A146.4,146.4,0,0,1,7.8,85.5c.9-2.5,2-3.7,4.8-3.8a251.13,251.13,0,0,1,27.3.1,143.9,143.9,0,0,1,54,15.4c12.4,6.3,23.9,14.2,34.9,22.7,3.7,2.9,7.3,5.8,11,8.7.7.6,1.3,1.3,2,2a13,13,0,0,1,1.1,5.8v40.9C142.6,179.25,142.9,181.35,141.2,183Z" transform="translate(0 -3)" fill="#f99d1c"/>
    <path id="Path_853" data-name="Path 853" d="M141.6,42c3,2.3,6,4.5,9,6.8a177.693,177.693,0,0,0,28,18A109.17,109.17,0,0,0,220.9,78a141.33,141.33,0,0,0,44.9-4.6c.5-.1,1-.3,1.5-.4a1.55,1.55,0,0,1,2,.9h0c.4.9.8,1.7,1.2,2.5a141.941,141.941,0,0,1,10.3,36.1c.3,1.8.1,2.2-1.5,2.7q-7.05,2.1-14.4,3.6a178.609,178.609,0,0,1-47.9,3,141.59,141.59,0,0,1-46.5-11.4,172.478,172.478,0,0,1-26.7-14.7,24.073,24.073,0,0,1-2.5-2,10.13,10.13,0,0,1-1.2-5.4V47.15C140.1,45.25,139.8,43.35,141.6,42Z" transform="translate(0 -3)" fill="#00a0e4"/>
    <path id="Path_854" data-name="Path 854" d="M141.2,183c.1-1.5.2-2.9.2-4.4V135c0-1.5.1-2.9.1-4.4,2.5,2,5.1,3.9,7.6,5.9,7.4,5.9,14.9,11.8,22.8,17a121.8,121.8,0,0,0,34,16,116.11,116.11,0,0,0,33.7,3.9,134.31,134.31,0,0,0,35.2-5c.7-.2,1.5-.3,2.2-.5.8.7.3,1.4.1,2A140,140,0,0,1,256,214.6a4.87,4.87,0,0,1-3.9,2.4c-1.2,0-2.4.2-3.6.2-4.9.1-9.9.2-14.8.2a142.79,142.79,0,0,1-61.8-15,195.469,195.469,0,0,1-29-17.9C142.3,184.05,141.8,183.45,141.2,183Z" transform="translate(0 -3)" fill="#00a0e4"/>
    <path id="Path_855" data-name="Path 855" d="M141.2,272c-2.8-1.6-5.1-3.8-7.6-5.8-8.7-6.9-17.2-14-26.2-20.5-9.8-7.1-20-13.3-31.4-17.6a102.76,102.76,0,0,0-30.4-6.8c-4.4-.3-8.8-.6-13.2-.5a3.6,3.6,0,0,1-3.2-1.3A139.8,139.8,0,0,1,7.7,179.9a1.8,1.8,0,0,0-.1-.6,7.68,7.68,0,0,1,4-1c6.5-.5,13-1.2,19.6-1.4a148.433,148.433,0,0,1,22,1.1,142.391,142.391,0,0,1,40.5,10.9,177.351,177.351,0,0,1,31.9,18.3c4.6,3.3,9,6.7,13.5,10.1.8.6,1.6,1.4,2.4,2.1a11.09,11.09,0,0,1,1.1,5v42.9C142.6,268.85,142.7,270.65,141.2,272Z" transform="translate(0 -3)" fill="#f99d1c"/>
    <path id="Path_856" data-name="Path 856" d="M141.6,42c-.1,1.5-.1,2.9-.1,4.4V89.2c0,1.5-.1,2.9-.1,4.4a111.65,111.65,0,0,1-12.7-9c-9.2-7.3-18.4-14.7-27.6-22A230.213,230.213,0,0,0,78.2,46.4a109.89,109.89,0,0,0-34-13.8c-.3-.1-.5-.1-.8-.2a.81.81,0,0,1-.4-1.07.79.79,0,0,1,.14-.23c1.4-1.4,2.9-2.8,4.4-4.1A141.54,141.54,0,0,1,83.8,3.65a5.63,5.63,0,0,1,5.6.2,214.819,214.819,0,0,1,28.4,18.8c7.7,6,15.3,12.1,22.9,18.2C140.9,41.05,141.2,41.55,141.6,42Z" transform="translate(0 -3)" fill="#f99d1c"/>
    <path id="Path_857" data-name="Path 857" d="M141.2,272c.1-1.5.2-2.9.2-4.4v-44c0-1.5.1-2.9.2-4.4,4.6,3.6,9.2,7.3,13.8,10.9,6.9,5.5,13.8,11,21,16.1a143.12,143.12,0,0,0,22.1,12.9,23.274,23.274,0,0,1,2.1,1.1c-.5,1.3-1.6,1.4-2.6,1.9a141.857,141.857,0,0,1-27.7,9,164.131,164.131,0,0,1-24.2,3C144,274.15,142.4,273.75,141.2,272Z" transform="translate(0 -3)" fill="#00a0e4"/>
  </g>
</svg>
