<svg xmlns="http://www.w3.org/2000/svg" width="1134.906" height="277" viewBox="0 0 1134.906 277">
  <g id="Group_2426" data-name="Group 2426" transform="translate(-7024 -5369)">
    <g id="Group_2424" data-name="Group 2424" transform="translate(0 5)">
      <text id="EZ" transform="translate(7365.03 5583)" fill="#001c47" font-size="230" font-family="Roboto-Light, Roboto" font-weight="300"><tspan x="0" y="0">EZ</tspan></text>
      <text id="Flow" transform="translate(7633.43 5583)" fill="#001c47" font-size="230" font-family="Roboto-Bold, Roboto" font-weight="700"><tspan x="0" y="0">Flow</tspan></text>
    </g>
    <g id="Group_2425" data-name="Group 2425">
      <path id="Path_850" data-name="Path 850" d="M1118.753,38.29A18.453,18.453,0,1,1,1100.3,56.743,18.453,18.453,0,0,1,1118.753,38.29Zm-14.74,18.453A14.74,14.74,0,1,0,1118.753,42a14.74,14.74,0,0,0-14.74,14.74Z" transform="translate(7021.7 5377.71)" fill="#001c47"/>
      <path id="Path_851" data-name="Path 851" d="M1109.5,60.863V45.79h6.258a8.339,8.339,0,0,1,2.909.441,3.834,3.834,0,0,1,1.851,1.234,3.526,3.526,0,0,1,.617,1.587,6.682,6.682,0,0,1-.088,2.292,3.587,3.587,0,0,1-2.027,2.2c-.176.088-.441.176-.617.264.088,0,.176.088.265.088a3.272,3.272,0,0,1,1.5,1.146,8.381,8.381,0,0,1,.881,1.5c.705,1.41,1.41,2.733,2.027,4.143a.273.273,0,0,0,.088.176H1119.2c-.088,0-.176,0-.176-.088-.617-1.234-1.234-2.556-1.851-3.79a7.743,7.743,0,0,0-.529-.881,2.054,2.054,0,0,0-1.5-.881c-.529-.088-1.058,0-1.587-.088v5.729Zm3.878-12.252v3.878h1.939c.264,0,.529-.088.705-.088a1.525,1.525,0,0,0,1.146-1.146,4.286,4.286,0,0,0,.088-1.058,1.419,1.419,0,0,0-.265-.793,1.614,1.614,0,0,0-1.146-.705,11.362,11.362,0,0,0-2.468-.079Z" transform="translate(7024.5 5381.213)" fill="#001c47"/>
    </g>
    <g id="Group_2423" data-name="Group 2423" transform="translate(0 -8.247)">
      <path id="Path_852" data-name="Path 852" d="M141.2,180a79.689,79.689,0,0,1-9.9-7.4c-9.2-7.3-18.3-14.7-27.6-21.9a159.5,159.5,0,0,0-25.2-16.3A109,109,0,0,0,40.7,123a123.719,123.719,0,0,0-30.4.4c-2.4.3-4.8.6-7.1,1-3.1.4-3.2.3-3.2-2.7a75.881,75.881,0,0,1,1.1-11.6A146.2,146.2,0,0,1,7.8,82.5c.9-2.5,2-3.7,4.8-3.8a248.617,248.617,0,0,1,27.3.1,143.87,143.87,0,0,1,54,15.4c12.4,6.3,23.9,14.2,34.9,22.7,3.7,2.9,7.3,5.8,11,8.7.7.6,1.3,1.3,2,2a13,13,0,0,1,1.1,5.8v40.9C142.6,176.25,142.9,178.35,141.2,180Z" transform="translate(7024 5380.25)" fill="#f99d1c"/>
      <path id="Path_853" data-name="Path 853" d="M141.6,39c3,2.3,6,4.5,9,6.8a178,178,0,0,0,28,18A109.39,109.39,0,0,0,220.9,75a141.61,141.61,0,0,0,44.9-4.6c.5-.1,1-.3,1.5-.4a1.55,1.55,0,0,1,2,.9c.4.9.8,1.7,1.2,2.5a141.941,141.941,0,0,1,10.3,36.1c.3,1.8.1,2.2-1.5,2.7q-7.05,2.1-14.4,3.6a178.941,178.941,0,0,1-47.9,3,141.65,141.65,0,0,1-46.5-11.4,173.577,173.577,0,0,1-26.7-14.7,24.331,24.331,0,0,1-2.5-2,10.2,10.2,0,0,1-1.2-5.4V44.15C140.1,42.25,139.8,40.35,141.6,39Z" transform="translate(7024 5380.25)" fill="#00a0e4"/>
      <path id="Path_854" data-name="Path 854" d="M141.2,180c.1-1.5.2-2.9.2-4.4V132c0-1.5.1-2.9.1-4.4,2.5,2,5.1,3.9,7.6,5.9,7.4,5.9,14.9,11.8,22.8,17a121.7,121.7,0,0,0,34,16,116.43,116.43,0,0,0,33.7,3.9,134.8,134.8,0,0,0,35.2-5c.7-.2,1.5-.3,2.2-.5.8.7.3,1.4.1,2A140.08,140.08,0,0,1,256,211.6a4.87,4.87,0,0,1-3.9,2.4c-1.2,0-2.4.2-3.6.2-4.9.1-9.9.2-14.8.2a142.86,142.86,0,0,1-61.8-15,196.7,196.7,0,0,1-29-17.9C142.3,181.05,141.8,180.45,141.2,180Z" transform="translate(7024 5380.25)" fill="#00a0e4"/>
      <path id="Path_855" data-name="Path 855" d="M141.2,269c-2.8-1.6-5.1-3.8-7.6-5.8-8.7-6.9-17.2-14-26.2-20.5-9.8-7.1-20-13.3-31.4-17.6a102.381,102.381,0,0,0-30.4-6.8c-4.4-.3-8.8-.6-13.2-.5a3.62,3.62,0,0,1-3.2-1.3A139.709,139.709,0,0,1,7.7,176.9a1.76,1.76,0,0,0-.1-.6,7.67,7.67,0,0,1,4-1c6.5-.5,13-1.2,19.6-1.4a146.761,146.761,0,0,1,22,1.1,142.12,142.12,0,0,1,40.5,10.9,176.92,176.92,0,0,1,31.9,18.3c4.6,3.3,9,6.7,13.5,10.1.8.6,1.6,1.4,2.4,2.1a11,11,0,0,1,1.1,5v42.9C142.6,265.85,142.7,267.65,141.2,269Z" transform="translate(7024 5380.25)" fill="#f99d1c"/>
      <path id="Path_856" data-name="Path 856" d="M141.6,39c-.1,1.5-.1,2.9-.1,4.4V86.2c0,1.5-.1,2.9-.1,4.4a112.18,112.18,0,0,1-12.7-9c-9.2-7.3-18.4-14.7-27.6-22A230.484,230.484,0,0,0,78.2,43.4a109.64,109.64,0,0,0-34-13.8c-.3-.1-.5-.1-.8-.2a.82.82,0,0,1-.3-1.3c1.4-1.4,2.9-2.8,4.4-4.1A141.46,141.46,0,0,1,83.8.65a5.61,5.61,0,0,1,5.6.2,214.82,214.82,0,0,1,28.4,18.8c7.7,6,15.3,12.1,22.9,18.2C140.9,38.05,141.2,38.55,141.6,39Z" transform="translate(7024 5380.25)" fill="#f99d1c"/>
      <path id="Path_857" data-name="Path 857" d="M141.2,269c.1-1.5.2-2.9.2-4.4v-44c0-1.5.1-2.9.2-4.4,4.6,3.6,9.2,7.3,13.8,10.9,6.9,5.5,13.8,11,21,16.1a143.321,143.321,0,0,0,22.1,12.9,21.164,21.164,0,0,1,2.1,1.1c-.5,1.3-1.6,1.4-2.6,1.9a142.288,142.288,0,0,1-27.7,9,165,165,0,0,1-24.2,3C144,271.15,142.4,270.75,141.2,269Z" transform="translate(7024 5380.25)" fill="#00a0e4"/>
    </g>
  </g>
</svg>
