<?xml version="1.0" encoding="utf-8"?>
<!-- Generator: Adobe Illustrator 25.4.1, SVG Export Plug-In . SVG Version: 6.00 Build 0)  -->
<svg version="1.1" id="Layer_1" xmlns="http://www.w3.org/2000/svg" xmlns:xlink="http://www.w3.org/1999/xlink" x="0px" y="0px"
	 viewBox="0 0 24 24" style="enable-background:new 0 0 24 24;" xml:space="preserve">
<style type="text/css">
	.st0{fill:#768399;}
</style>
<path class="st0" d="M8.5,0.4L8.5,0.4l12.8,0c0.6,0,1.2,0.5,1.2,1.2v21c0,0.6-0.5,1.2-1.2,1.2H2.7c-0.6,0-1.2-0.5-1.2-1.2
	c0,0,0,0,0,0V7.3C1.5,7.3,8.5,0.4,8.5,0.4z M4.8,7.3h3.7V3.6L4.8,7.3z M10.8,2.7v5.8c0,0.6-0.5,1.2-1.2,1.2H3.8v11.6h16.3V2.7H10.8z
	"/>
</svg>
