<svg xmlns="http://www.w3.org/2000/svg" width="35.649" height="35.6" viewBox="0 0 35.649 35.6"><path fill="#0062cf" d="M37.131,31.961,23.173,4.146a3.807,3.807,0,0,0-6.9,0L2.413,31.961a3.807,3.807,0,0,0,3.4,5.583H33.73a3.807,3.807,0,0,0,3.451-5.583ZM34.8,34.385a1.269,1.269,0,0,1-1.066.622H5.814A1.257,1.257,0,0,1,4.7,33.116L18.655,5.288h0a1.269,1.269,0,0,1,2.36,0L34.974,33.116A1.269,1.269,0,0,1,34.8,34.385Z" data-name="Path 256" transform="translate(-1.973 -1.946)"/><path fill="#0062cf" d="M0 0H1.728V7.774H0z" data-name="Rectangle 123" transform="translate(16.934 13.222)"/><circle cx="1.728" cy="1.728" r="1.728" fill="#0062cf" data-name="Ellipse 41" transform="translate(16.07 28.689)"/></svg>