<svg xmlns="http://www.w3.org/2000/svg" width="19.852" height="19.926" viewBox="0 0 19.852 19.926"><g fill="#0062cf" transform="translate(-4 -3.926)"><path d="M20.242,4h-1.8V9.414a.9.9,0,0,1-.9.9H9.414a.9.9,0,0,1-.9-.9V4H5.8A1.8,1.8,0,0,0,4,5.8V22.047a1.8,1.8,0,0,0,1.8,1.8H22.047a1.8,1.8,0,0,0,1.8-1.8V7.609Zm0,18.047H7.609V16.633a1.8,1.8,0,0,1,1.8-1.8h9.023a1.8,1.8,0,0,1,1.8,1.8Z" data-name="Path 235"/><path d="M0 0H2V5H0z" data-name="Rectangle 102" transform="translate(14.926 3.926)"/></g></svg>