<svg width="42" height="50" viewBox="0 0 42 50" fill="none" xmlns="http://www.w3.org/2000/svg">
<path d="M20.982 25.335C15.6847 25.335 11.3906 25.9956 11.3906 26.8105C11.3906 27.6255 15.6849 28.4874 20.982 28.4874C26.2792 28.4874 30.5733 27.6255 30.5733 26.8105C30.5734 25.9956 26.2792 25.335 20.982 25.335Z" fill="#DDDDDD"/>
<path d="M15.9181 25.556C9.36235 26.1845 10.3181 27.6267 16.3856 28.2587C13.6138 27.4896 13.0427 26.3531 15.9181 25.556ZM4.42946 7.59277H1.20732C0.543258 7.59277 0 8.13603 0 8.80009V13.5623C0 14.2263 0.543258 14.7696 1.20732 14.7696H4.32468C3.5769 12.4298 3.61369 9.90976 4.42946 7.59277Z" fill="#BFC0C1"/>
<path d="M2.07391 13.5623V8.80009C2.07391 8.13603 2.61717 7.59277 3.28123 7.59277H1.20732C0.543258 7.59277 0 8.13603 0 8.80009V13.5623C0 14.2263 0.543258 14.7696 1.20732 14.7696H3.28113C2.61717 14.7696 2.07391 14.2263 2.07391 13.5623Z" fill="#989DA0"/>
<path d="M40.7573 7.59277H37.5352C38.3509 9.90977 38.3877 12.4298 37.6399 14.7696H40.7573C41.4214 14.7696 41.9646 14.2263 41.9646 13.5623V8.80009C41.9646 8.13613 41.4213 7.59277 40.7573 7.59277Z" fill="#BFC0C1"/>
<path d="M39.9511 7.59277H37.5352C38.3509 9.90977 38.3877 12.4298 37.6399 14.7696H40.0558C40.8036 12.4298 40.7668 9.90976 39.9511 7.59277Z" fill="#989DA0"/>
<path d="M38.3768 11.3384C38.3768 5.10231 33.2745 0 27.0384 0H14.9272C8.69538 0 3.58887 5.09802 3.58887 11.3384C3.58887 17.5745 8.69118 22.6768 14.9273 22.6768H27.0386C33.2702 22.6767 38.3768 17.5787 38.3768 11.3384Z" fill="#DDDDDD"/>
<path d="M5.66268 11.3384C5.66268 5.10231 10.7649 0 17.001 0H14.9272C8.70143 0 3.58887 5.09196 3.58887 11.3384C3.58887 17.5745 8.69118 22.6768 14.9273 22.6768H17.0011C10.7649 22.6767 5.66268 17.5744 5.66268 11.3384Z" fill="#BFC0C1"/>
<path d="M26.5359 3.3916H15.4298C11.0582 3.3916 7.48145 6.96843 7.48145 11.34C7.48145 15.7116 11.0583 19.2884 15.4298 19.2884H26.5359C30.9076 19.2884 34.4843 15.7116 34.4843 11.34C34.4843 6.96843 30.9076 3.3916 26.5359 3.3916Z" fill="#585A60"/>
<path d="M9.58485 11.34C9.58485 6.96834 13.1617 3.3916 17.5332 3.3916H15.3996C11.0279 3.3916 7.45117 6.96834 7.45117 11.34C7.45117 15.7116 11.0279 19.2884 15.3996 19.2884H17.5332C13.1616 19.2884 9.58485 15.7115 9.58485 11.34Z" fill="#414356"/>
<path d="M15.5435 14.0011C17.0993 14.0011 18.3605 12.7399 18.3605 11.1842C18.3605 9.62839 17.0993 8.36719 15.5435 8.36719C13.9878 8.36719 12.7266 9.62839 12.7266 11.1842C12.7266 12.7399 13.9878 14.0011 15.5435 14.0011Z" fill="#6EDCF9"/>
<path d="M26.4215 14.0011C27.9772 14.0011 29.2384 12.7399 29.2384 11.1842C29.2384 9.62839 27.9772 8.36719 26.4215 8.36719C24.8657 8.36719 23.6045 9.62839 23.6045 11.1842C23.6045 12.7399 24.8657 14.0011 26.4215 14.0011Z" fill="#6EDCF9"/>
<path d="M14.7993 11.1843C14.7993 9.99472 15.5369 8.97822 16.5795 8.56514C16.2495 8.43421 15.8976 8.36707 15.5426 8.36729C13.9867 8.36729 12.7256 9.62851 12.7256 11.1843C12.7256 12.74 13.9868 14.0013 15.5426 14.0013C15.9089 14.0013 16.2585 13.9306 16.5795 13.8035C15.5369 13.3904 14.7993 12.3738 14.7993 11.1843ZM27.458 8.56504C27.128 8.43411 26.7761 8.36697 26.4211 8.36719C24.8653 8.36719 23.6041 9.62841 23.6041 11.1842C23.6041 13.1704 25.6105 14.5354 27.4581 13.8033C25.0893 12.8648 25.0902 9.50331 27.458 8.56504Z" fill="#52C7E2"/>
<path d="M30.4895 26.6163C30.5445 26.6802 30.5733 26.7454 30.5733 26.8116C30.5733 27.6266 26.279 28.2872 20.9819 28.2872C15.1992 28.2872 10.7103 27.5044 11.4744 26.6162C8.93456 29.0911 7.35645 32.5485 7.35645 36.3749C7.35645 43.9001 13.4567 50.0004 20.9818 50.0004C28.507 50.0004 34.6074 43.9001 34.6074 36.3749C34.6074 32.5486 33.0293 29.0912 30.4895 26.6163Z" fill="#DDDDDD"/>
<path d="M12.676 27.5499C12.1047 27.398 11.0896 27.0636 11.4744 26.6162C8.93456 29.0911 7.35645 32.5485 7.35645 36.3749C7.35645 43.9001 13.4568 50.0004 20.9819 50.0004C21.3308 50.0004 21.6766 49.9872 22.0189 49.9615C10.9193 49.1262 5.4922 35.9901 12.676 27.5499Z" fill="#BFC0C1"/>
<path d="M16.7471 31.5645C16.799 32.1083 16.8156 32.0054 20.129 35.5385C20.5985 36.008 21.3669 36.008 21.8364 35.5385C25.1506 32.0045 25.1664 32.1086 25.2184 31.5645C22.4852 31.8087 19.5502 31.8149 16.7471 31.5645Z" fill="#F7AC16"/>
<path d="M19.0865 31.7127C18.3056 31.6829 17.5255 31.6335 16.7471 31.5645C16.799 32.1083 16.8156 32.0054 20.129 35.5385C20.5985 36.008 21.3669 36.008 21.8364 35.5385L22.1402 35.2145C19.1357 32.0108 19.1819 32.1421 19.0865 31.7127Z" fill="#EF9614"/>
<path d="M33.1065 30.1532C32.4311 28.8408 31.5477 27.6464 30.4905 26.6163C30.5455 26.6802 30.5743 26.7454 30.5743 26.8116C30.5743 27.6266 26.28 28.2872 20.9829 28.2872C15.2002 28.2872 10.7113 27.5044 11.4754 26.6162C10.4182 27.6463 9.53473 28.8407 8.85938 30.1532C15.403 32.5389 26.5597 32.5401 33.1065 30.1532Z" fill="#989DA0"/>
<path d="M8.8584 30.1531C9.41562 30.3562 10.0173 30.5453 10.6577 30.7186C11.1812 29.5744 11.8604 28.508 12.6761 27.5499C12.1064 27.3986 11.0908 27.0622 11.4744 26.6162C10.4177 27.6467 9.53437 28.841 8.8584 30.1531Z" fill="#838384"/>
</svg>
