<svg xmlns="http://www.w3.org/2000/svg" width="22.51" height="24.025" viewBox="0 0 22.51 24.025"><g transform="translate(-3 -2)"><g transform="translate(3 2)"><path fill="#0062cf" fill-rule="evenodd" d="M22.422,11.238,13.072,20.6h0L10.913,18.44l9.355-9.356,2.154,2.154Zm.585-.586L24.44,9.217a.83.83,0,0,0,0-1.173l-.977-.975a.829.829,0,0,0-1.174,0L20.854,8.5l2.153,2.153ZM10.376,19.075l-.53,2.579,2.6-.511-2.067-2.067Zm8.364-9.619V6.974a1.656,1.656,0,0,0-1.655-1.66h-.831s0,0,0,0v.82A1.658,1.658,0,0,1,14.6,7.8H7.145A1.658,1.658,0,0,1,5.485,6.138v-.82s0,0,0,0H4.655A1.654,1.654,0,0,0,3,6.974V24.366a1.656,1.656,0,0,0,1.655,1.66H17.086a1.654,1.654,0,0,0,1.655-1.66V16.084l6.28-6.28a1.66,1.66,0,0,0,.008-2.345l-.977-.977a1.652,1.652,0,0,0-2.345.008L18.741,9.456ZM8.8,4.485v-.83A1.66,1.66,0,0,1,10.46,2h.82a1.656,1.656,0,0,1,1.661,1.655v.83H14.6a.826.826,0,0,1,.825.828v.83a.824.824,0,0,1-.825.828H7.139a.826.826,0,0,1-.825-.828v-.83a.824.824,0,0,1,.825-.828Zm2.071,0a.414.414,0,1,0-.414-.414.414.414,0,0,0,.414.414Z" transform="translate(-3 -2)"/></g></g></svg>