<svg width="19" height="19" viewBox="0 0 19 19" fill="none" xmlns="http://www.w3.org/2000/svg">
<path d="M15.219 8.11C15.219 9.51627 14.802 10.891 14.0207 12.0602C13.2394 13.2295 12.1289 14.1408 10.8297 14.6789C9.53043 15.217 8.1008 15.3577 6.72157 15.0833C5.34233 14.8089 4.07546 14.1316 3.08114 13.1372C2.08683 12.1427 1.40975 10.8757 1.13552 9.49648C0.861293 8.11721 1.00224 6.68759 1.54053 5.38843C2.07882 4.08926 2.99028 2.9789 4.15965 2.19776C5.32901 1.41663 6.70376 0.999802 8.11003 1C9.99554 1.00027 11.8037 1.74947 13.1369 3.08282C14.4701 4.41618 15.219 6.22448 15.219 8.11Z" stroke="#6C757D" stroke-width="1.5" stroke-linecap="round" stroke-linejoin="round"/>
<path d="M17.0001 17L13.1271 13.127" stroke="#6C757D" stroke-width="1.5" stroke-linecap="round" stroke-linejoin="round"/>
</svg>
