<svg xmlns="http://www.w3.org/2000/svg" xmlns:xlink="http://www.w3.org/1999/xlink" width="24" height="24" viewBox="0 0 24 24">
  <defs>
    <clipPath id="clip-bpmn-white">
      <rect width="24" height="24"/>
    </clipPath>
  </defs>
  <g id="bpmn-white" clip-path="url(#clip-bpmn-white)">
    <g id="noun_Graph_2311015" transform="translate(-2.499 -3.989)">
      <path id="Path_926" data-name="Path 926" d="M7.317,17.434H4.438A1.439,1.439,0,0,0,3,18.873v8.636a.48.48,0,0,0,.48.48h4.8a.48.48,0,0,0,.48-.48V18.873A1.439,1.439,0,0,0,7.317,17.434Zm.48,9.6H3.958V18.873a.48.48,0,0,1,.48-.48H7.317a.48.48,0,0,1,.48.48Zm8.156-11.515H13.074a1.439,1.439,0,0,0-1.439,1.439V27.509a.48.48,0,0,0,.48.48h4.8a.48.48,0,0,0,.48-.48V16.954A1.439,1.439,0,0,0,15.953,15.514Zm.48,11.515H12.594V16.954a.48.48,0,0,1,.48-.48h2.879a.48.48,0,0,1,.48.48Zm8.156-15.353H21.71a1.439,1.439,0,0,0-1.439,1.439V27.509a.48.48,0,0,0,.48.48h4.8a.48.48,0,0,0,.48-.48V13.115A1.439,1.439,0,0,0,24.589,11.676Zm.48,15.353H21.231V13.115a.48.48,0,0,1,.48-.48h2.879a.48.48,0,0,1,.48.48Zm.96-22.55V8.318a.48.48,0,0,1-.96,0V6.034C18.678,14.555,4.179,16.4,3.536,16.474H3.479a.481.481,0,0,1-.058-.96c.154,0,14.931-1.862,21.043-10.267l-2.639.672a.493.493,0,1,1-.23-.96L25.433,4h0a.48.48,0,0,1,.2,0H25.8a.47.47,0,0,1,.077.1v.067a.47.47,0,0,1,0,.125.461.461,0,0,1,.154.192Z" transform="translate(0 0)" fill="#fff"/>
    </g>
  </g>
</svg>
