<svg xmlns="http://www.w3.org/2000/svg" xmlns:xlink="http://www.w3.org/1999/xlink" width="24" height="24" viewBox="0 0 24 24">
  <defs>
    <clipPath id="clip-bpmn">
      <rect width="24" height="24"/>
    </clipPath>
  </defs>
  <g id="bpmn" clip-path="url(#clip-bpmn)">
    <g id="noun_Graph_2311015" transform="translate(-2.008 -3.477)">
      <path id="Path_926" data-name="Path 926" d="M7.132,16.861H4.376A1.378,1.378,0,0,0,3,18.239v8.268a.459.459,0,0,0,.459.459H8.05a.459.459,0,0,0,.459-.459V18.239A1.378,1.378,0,0,0,7.132,16.861Zm.459,9.187H3.916V18.239a.459.459,0,0,1,.459-.459H7.132a.459.459,0,0,1,.459.459ZM15.4,15.023H12.644A1.378,1.378,0,0,0,11.266,16.4V26.507a.459.459,0,0,0,.459.459h4.593a.459.459,0,0,0,.459-.459V16.4A1.378,1.378,0,0,0,15.4,15.023Zm.459,11.024H12.184V16.4a.459.459,0,0,1,.459-.459H15.4a.459.459,0,0,1,.459.459Zm7.809-14.7H20.912a1.378,1.378,0,0,0-1.378,1.378v13.78a.459.459,0,0,0,.459.459h4.593a.459.459,0,0,0,.459-.459V12.727A1.378,1.378,0,0,0,23.668,11.349Zm.459,14.7H20.452V12.727a.459.459,0,0,1,.459-.459h2.756a.459.459,0,0,1,.459.459Zm.919-21.589V8.133a.459.459,0,1,1-.919,0V5.947c-6.118,8.158-20,9.922-20.615,10H3.457a.46.46,0,0,1-.055-.919c.147,0,14.295-1.782,20.147-9.83l-2.526.643a.472.472,0,1,1-.22-.919L24.476,4h0a.459.459,0,0,1,.193,0h.156a.45.45,0,0,1,.073.092v.064a.45.45,0,0,1,0,.119.441.441,0,0,1,.147.184Z" transform="translate(0 0)" fill="#607088" stroke="#607088" stroke-width="1"/>
    </g>
  </g>
</svg>
