<svg xmlns="http://www.w3.org/2000/svg" xmlns:xlink="http://www.w3.org/1999/xlink" width="24" height="24" viewBox="0 0 24 24">
  <defs>
    <clipPath id="clip-businessinsight">
      <rect width="24" height="24"/>
    </clipPath>
  </defs>
  <g id="businessinsight" clip-path="url(#clip-businessinsight)">
    <g id="noun_insight_2500454" transform="translate(-2.224 -9.945)">
      <path id="Path_923" data-name="Path 923" d="M22.936,12.7a3.03,3.03,0,0,0-3.011,3.024,2.966,2.966,0,0,0,.864,2.107l-2.863,4.784a2.786,2.786,0,0,0-2.024.149l-2.147-2.652a2.995,2.995,0,1,0-4.615.372L6.3,25.266a2.771,2.771,0,0,0-.79-.124,3.024,3.024,0,1,0,3.011,3.024,2.947,2.947,0,0,0-.839-2.082l2.838-4.808a2.786,2.786,0,0,0,2.024-.149l2.147,2.652a3.014,3.014,0,1,0,5.455,1.735,2.966,2.966,0,0,0-.864-2.107l2.838-4.784a2.807,2.807,0,0,0,.814.124,3.024,3.024,0,0,0,0-6.048ZM5.511,29.6a1.438,1.438,0,1,1,1.432-1.438A1.436,1.436,0,0,1,5.511,29.6ZM9.88,18.376a1.432,1.432,0,1,1,1.432,1.438A1.436,1.436,0,0,1,9.88,18.376Zm7.256,8.576a1.438,1.438,0,1,1,1.432-1.438A1.436,1.436,0,0,1,17.136,26.952Zm5.8-9.79a1.438,1.438,0,1,1,1.432-1.438A1.436,1.436,0,0,1,22.936,17.161Z" fill="#607088" stroke="#607088" stroke-width="0.5"/>
    </g>
  </g>
</svg>
