<svg xmlns="http://www.w3.org/2000/svg" width="77.778" height="70" viewBox="0 0 77.778 70">
  <g id="CSV" transform="translate(-8240.359 -5272.563)">
    <g id="XMLID_168_" transform="translate(8240.359 5283.079)">
      <g id="XMLID_83_">
        <path id="XMLID_87_" d="M116.785,6H87.9V65.483h42.983V19.9Z" transform="translate(-84.914 -6)" fill="#ffdbd4"/>
        <path id="XMLID_86_" d="M330.7,6l14.1,13.9H330.7Z" transform="translate(-298.829 -6)" fill="#bf6149"/>
        <rect id="XMLID_85_" width="39.14" height="18.57" transform="translate(0 34.834)" fill="#bf6149"/>
        <path id="XMLID_84_" d="M62.8,454.9l2.986,2.52V454.9Z" transform="translate(-62.8 -401.496)" fill="#a84835"/>
      </g>
      <g id="XMLID_3113_" transform="translate(6.17 40.028)">
        <path id="XMLID_3004_" d="M118.779,349.438a1.037,1.037,0,0,0,.821-.3,1.254,1.254,0,0,0,.274-.857h2.451l.012.048a2.8,2.8,0,0,1-.976,2.3,3.739,3.739,0,0,1-2.582.881,3.79,3.79,0,0,1-3.024-1.213,4.634,4.634,0,0,1-1.057-3.153v-.179a4.633,4.633,0,0,1,1.057-3.153,3.781,3.781,0,0,1,3.008-1.214,3.687,3.687,0,0,1,2.617.9,3.131,3.131,0,0,1,.952,2.487l-.012.048h-2.451a1.738,1.738,0,0,0-.274-1,.945.945,0,0,0-.821-.38,1.091,1.091,0,0,0-1.083.619,3.873,3.873,0,0,0-.309,1.677v.178a3.821,3.821,0,0,0,.309,1.689,1.057,1.057,0,0,0,1.088.619Z" transform="translate(-114.695 -342.581)" fill="#fff"/>
        <path id="XMLID_3006_" d="M198.993,348.84a.7.7,0,0,0-.357-.569,3.822,3.822,0,0,0-1.32-.452,5.14,5.14,0,0,1-2.26-.9,2.046,2.046,0,0,1-.762-1.7,2.421,2.421,0,0,1,.952-1.927,3.934,3.934,0,0,1,2.582-.785,4.445,4.445,0,0,1,2.736.762,2.25,2.25,0,0,1,.963,1.987l-.012.048h-2.6a1.1,1.1,0,0,0-.25-.773,1.11,1.11,0,0,0-.832-.262,1.058,1.058,0,0,0-.7.226.716.716,0,0,0-.285.583.705.705,0,0,0,.333.583,3.879,3.879,0,0,0,1.333.428,5.164,5.164,0,0,1,2.332.928,2.135,2.135,0,0,1,.75,1.749,2.3,2.3,0,0,1-1.024,1.915,4.533,4.533,0,0,1-2.724.75,4.065,4.065,0,0,1-2.772-.894,2.494,2.494,0,0,1-.976-1.987l.012-.048h2.427a1.074,1.074,0,0,0,.369.88,1.635,1.635,0,0,0,1,.274,1.349,1.349,0,0,0,.821-.214.714.714,0,0,0,.268-.6Z" transform="translate(-184.642 -342.494)" fill="#fff"/>
        <path id="XMLID_3008_" d="M274.774,348.94l.155.916.048.012.178-.916,1.138-5.056h2.819l-2.8,8.6h-2.724l-2.792-8.6h2.832Z" transform="translate(-252.225 -343.728)" fill="#fff"/>
      </g>
    </g>
    <g id="iconfinder_eps_extension_file_name-13_1572493" transform="translate(8275.992 5272.563)">
      <path id="Path_330" data-name="Path 330" d="M5.57,56.6h31a5.57,5.57,0,0,0,5.57-5.57V19.6L22.519,0H5.57A5.57,5.57,0,0,0,0,5.57V51.031A5.57,5.57,0,0,0,5.57,56.6Z" transform="translate(0)" fill="#fdf2ce"/>
      <g id="Group_157" data-name="Group 157" transform="translate(8.095 38.684)">
        <path id="Path_331" data-name="Path 331" d="M16.38,88.958a.8.8,0,0,1,.127-.38l2.735-4.46L16.6,79.676a.869.869,0,0,1-.142-.443.813.813,0,0,1,.419-.68,1.562,1.562,0,0,1,.894-.285.741.741,0,0,1,.68.443L20.6,82.586l2.151-3.875a.774.774,0,0,1,.7-.443,1.564,1.564,0,0,1,.894.285.813.813,0,0,1,.419.68.869.869,0,0,1-.142.443L21.981,84.12l2.736,4.46a.813.813,0,0,1,.111.38.877.877,0,0,1-.443.719,1.563,1.563,0,0,1-.9.308.582.582,0,0,1-.554-.332L20.6,85.59,18.3,89.655a.615.615,0,0,1-.569.332,1.577,1.577,0,0,1-.894-.308.875.875,0,0,1-.453-.722Z" transform="translate(-16.38 -78.268)" fill="#7fd077"/>
        <path id="Path_332" data-name="Path 332" d="M37.436,89.338V79.054a.508.508,0,0,1,.3-.475,1.753,1.753,0,0,1,1.455,0,.508.508,0,0,1,.3.475v9.13h3.859a.509.509,0,0,1,.45.269,1.288,1.288,0,0,1,0,1.265.508.508,0,0,1-.45.269H38.338a1.138,1.138,0,0,1-.632-.174A.537.537,0,0,1,37.436,89.338Z" transform="translate(-27.029 -78.348)" fill="#7fd077"/>
        <path id="Path_333" data-name="Path 333" d="M53.372,88.088a1.234,1.234,0,0,1,.276-.732.781.781,0,0,1,.624-.372.813.813,0,0,1,.467.2,5.432,5.432,0,0,1,.506.436,2.317,2.317,0,0,0,.7.436,2.536,2.536,0,0,0,1.012.2,2.183,2.183,0,0,0,1.265-.348,1.167,1.167,0,0,0,.506-1.028,1.382,1.382,0,0,0-.276-.846,2.208,2.208,0,0,0-.728-.617q-.45-.244-.989-.475t-1.084-.514a6.324,6.324,0,0,1-1-.641,2.563,2.563,0,0,1-.728-.949,3.158,3.158,0,0,1-.276-1.352,3.192,3.192,0,0,1,.34-1.5,2.583,2.583,0,0,1,.91-1.011,4.271,4.271,0,0,1,1.219-.53,5.46,5.46,0,0,1,1.376-.168,7.059,7.059,0,0,1,.87.057,8.058,8.058,0,0,1,.976.187,2.055,2.055,0,0,1,.838.406.831.831,0,0,1,.325.65,1.441,1.441,0,0,1-.221.732.673.673,0,0,1-.6.376,2.989,2.989,0,0,1-.775-.3,3.243,3.243,0,0,0-1.407-.3,2.3,2.3,0,0,0-1.32.325,1.029,1.029,0,0,0-.467.894,1.041,1.041,0,0,0,.38.8,2.975,2.975,0,0,0,.941.554q.562.214,1.219.537a10.42,10.42,0,0,1,1.219.7,2.952,2.952,0,0,1,.941,1.1,3.561,3.561,0,0,1,.372,1.677,3.106,3.106,0,0,1-1.036,2.5,4.065,4.065,0,0,1-2.728.881,5.1,5.1,0,0,1-2.581-.62Q53.373,88.816,53.372,88.088Z" transform="translate(-35.089 -78.269)" fill="#7fd077"/>
      </g>
      <path id="Path_335" data-name="Path 335" d="M52.365,18.476C55.536,18.639,65.19,19.6,65.19,19.6L45.568,0s.873,9.636,1.138,12.825A5.96,5.96,0,0,0,52.365,18.476Z" transform="translate(-23.047)" fill="#7fd077"/>
      <line id="Line_117" data-name="Line 117" x1="19.623" y1="19.6" transform="translate(22.521)" fill="#fdffee"/>
    </g>
  </g>
</svg>
