<svg id="DB" xmlns="http://www.w3.org/2000/svg" width="49.999" height="50" viewBox="0 0 49.999 50">
  <path id="Path_565" data-name="Path 565" d="M263.651,109.854l-27.667-1.726V133.62l27.667-1.726Zm0,0" transform="translate(-217.265 -95.875)" fill="#03232e"/>
  <g id="Group_348" data-name="Group 348" transform="translate(3.615)">
    <path id="Path_566" data-name="Path 566" d="M31.895,109.854v22.041l25.4,1.726V108.129Zm0,0" transform="translate(-31.895 -95.875)" fill="#07485e"/>
    <path id="Path_567" data-name="Path 567" d="M267.265,0H238.253l-2.269,7.261,2.269,7.261h29.012Zm0,0" transform="translate(-220.879)" fill="#07485e"/>
    <path id="Path_568" data-name="Path 568" d="M267.265,206.452V191.93H238.253l-2.269,7.261,2.269,7.261Zm0,0" transform="translate(-220.879 -174.191)" fill="#07485e"/>
    <path id="Path_569" data-name="Path 569" d="M267.265,398.378V383.856H238.253l-2.269,7.261,2.269,7.261Zm0,0" transform="translate(-220.879 -348.378)" fill="#07485e"/>
  </g>
  <path id="Path_570" data-name="Path 570" d="M0,0H29.013V14.522H0ZM0,0" fill="#0b799d"/>
  <path id="Path_571" data-name="Path 571" d="M0,191.93H29.013v14.522H0Zm0,0" transform="translate(0 -174.191)" fill="#0b799d"/>
  <path id="Path_572" data-name="Path 572" d="M0,383.855H29.013v14.522H0Zm0,0" transform="translate(0 -348.378)" fill="#0b799d"/>
  <path id="Path_573" data-name="Path 573" d="M326.07,49.07h15.65v3.4H326.07Zm0,0" transform="translate(-297.141 -43.509)" fill="#b4d2d7"/>
  <path id="Path_574" data-name="Path 574" d="M326.07,241h15.65v3.4H326.07Zm0,0" transform="translate(-297.141 -217.7)" fill="#b4d2d7"/>
  <path id="Path_575" data-name="Path 575" d="M326.07,432.93h15.65v3.4H326.07Zm0,0" transform="translate(-297.141 -391.89)" fill="#b4d2d7"/>
  <path id="Path_576" data-name="Path 576" d="M47.84,49.07h3.614v3.4H47.84Zm0,0" transform="translate(-42.418 -43.509)" fill="#00ff94"/>
  <path id="Path_577" data-name="Path 577" d="M111.625,49.07h3.612v3.4h-3.615Zm0,0" transform="translate(-100.84 -43.509)" fill="#ffd422"/>
  <path id="Path_578" data-name="Path 578" d="M47.84,241h3.614v3.4H47.84Zm0,0" transform="translate(-42.418 -217.7)" fill="#00ff94"/>
  <path id="Path_579" data-name="Path 579" d="M111.625,241h3.612v3.4h-3.615Zm0,0" transform="translate(-100.84 -217.7)" fill="#ffd422"/>
  <path id="Path_580" data-name="Path 580" d="M47.84,432.93h3.614v3.4H47.84Zm0,0" transform="translate(-42.418 -391.89)" fill="#00ff94"/>
  <path id="Path_581" data-name="Path 581" d="M111.625,432.93h3.612v3.4h-3.615Zm0,0" transform="translate(-100.84 -391.89)" fill="#ffd422"/>
</svg>
