<svg xmlns="http://www.w3.org/2000/svg" width="24.001" height="21.837" viewBox="0 0 24.001 21.837">
  <g id="generate-processgraph" transform="translate(0.001)">
    <path id="Path" d="M9.939,32.836h18.29a1.12,1.12,0,1,0,0-2.24H9.939a.56.56,0,0,1-.56-.56V12.12a1.12,1.12,0,0,0-2.24,0V30.037a2.8,2.8,0,0,0,2.8,2.8Z" transform="translate(-7.14 -11)" fill="#2c4469"/>
    <path id="Path-2" data-name="Path" d="M39.082,21.86a1.12,1.12,0,0,0-1.12-1.12h-4.81a1.12,1.12,0,0,0,0,2.24h2.36L33.491,25.4l-4.157-.56a1.12,1.12,0,0,0-1.193.7l-1.789,4.591-4.18-.756a1.12,1.12,0,0,0-1.162.532l-2.685,4.527a1.12,1.12,0,1,0,1.926,1.142l2.287-3.861,4.322.781A1.12,1.12,0,0,0,28.1,31.8l1.806-4.628L33.8,27.7a1.12,1.12,0,0,0,1.008-.392l2.027-2.424V26.67a1.12,1.12,0,1,0,2.24,0Z" transform="translate(-15.082 -18.013)" fill="#2c4469"/>
  </g>
</svg>
