<svg xmlns="http://www.w3.org/2000/svg" width="18" height="17" viewBox="0 0 18 17">
  <g id="iconfinder_export_216190" transform="translate(-4 -4)">
    <path id="Path_254" data-name="Path 254" d="M8,16.5V17c1.691-2.578,3.6-3.953,6-4v3a1.079,1.079,0,0,0,1.143,1,1.176,1.176,0,0,0,.883-.391C17.959,14.58,22,10.5,22,10.5s-4.041-4.082-5.975-6.137A1.262,1.262,0,0,0,15.143,4,1.078,1.078,0,0,0,14,5V8C9.34,8,8,12.871,8,16.5Z" fill="#fff"/>
    <path id="Path_255" data-name="Path 255" d="M5,21H19a1,1,0,0,0,1-1V13.954c-.664.676-1.364,1.393-2,2.047v3H6V7h7V5H5A1,1,0,0,0,4,6V20A1,1,0,0,0,5,21Z" transform="translate(0 0)" fill="#fff"/>
  </g>
</svg>
