<svg xmlns="http://www.w3.org/2000/svg" width="32.305" height="26.044" viewBox="0 0 32.305 26.044">
  <g id="iconfinder_download_save_internet_downloading_4831030" transform="translate(0.5 0.5)" style="isolation: isolate">
    <path id="Path_174" data-name="Path 174" d="M33.922,47.513H11.383A4.383,4.383,0,0,1,7,43.13v-2.5a.626.626,0,0,1,1.252,0v2.5a3.13,3.13,0,0,0,3.13,3.13H33.922a3.13,3.13,0,0,0,3.13-3.13v-2.5a.626.626,0,0,1,1.252,0v2.5a4.383,4.383,0,0,1-4.383,4.383Z" transform="translate(-7 -22.469)" fill="#342785" stroke="#0062cf" stroke-width="1"/>
    <path id="Path_175" data-name="Path 175" d="M31.626,30.157A.626.626,0,0,1,31,29.531v-16.9a.626.626,0,0,1,1.252,0v16.9A.626.626,0,0,1,31.626,30.157Z" transform="translate(-15.974 -12)" fill="#342785" stroke="#0062cf" stroke-width="1"/>
    <path id="Path_176" data-name="Path 176" d="M27.886,37.512a.626.626,0,0,1-.445-.182L21.18,31.069a.629.629,0,0,1,.889-.889L27.886,36,33.7,30.18a.629.629,0,1,1,.889.889L28.33,37.33A.626.626,0,0,1,27.886,37.512Z" transform="translate(-12.233 -18.729)" fill="#342785" stroke="#0062cf" stroke-width="1"/>
  </g>
</svg>
