<svg xmlns="http://www.w3.org/2000/svg" xmlns:xlink="http://www.w3.org/1999/xlink" width="24" height="24" viewBox="0 0 24 24">
  <defs>
    <clipPath id="clip-insight">
      <rect width="24" height="24"/>
    </clipPath>
  </defs>
  <g id="insight" clip-path="url(#clip-insight)">
    <g id="noun_insights_315004" transform="translate(57.689 -41.498)">
      <g id="Group_2499" data-name="Group 2499" transform="translate(-53.14 41.813)">
        <g id="Group_2494" data-name="Group 2494" transform="translate(6.657 1.169)">
          <path id="Path_914" data-name="Path 914" d="M48.341,13.816,53.886,7.7,47.77,13.219a.832.832,0,0,0-.746.2.791.791,0,1,0,1.119,1.119A.725.725,0,0,0,48.341,13.816Z" transform="translate(-46.8 -7.7)" fill="#607088" stroke="#607088" stroke-width="0.5"/>
        </g>
        <g id="Group_2495" data-name="Group 2495" transform="translate(0 0)">
          <path id="Path_915" data-name="Path 915" d="M43,93.525a.86.86,0,0,0,.87.845h1.715a.876.876,0,0,0,.87-.845V93.5H43Z" transform="translate(-37.288 -71)" fill="#607088" stroke="#607088" stroke-width="0.5"/>
          <path id="Path_916" data-name="Path 916" d="M33.395,5.859l-.771.87a6.033,6.033,0,0,1-.671,7.906,8.259,8.259,0,0,0-2.436,4.823H25.464a8.259,8.259,0,0,0-2.436-4.823,6.065,6.065,0,0,1,0-8.7,6.3,6.3,0,0,1,4.45-1.815,6.486,6.486,0,0,1,3.7,1.169l.87-.746a7.563,7.563,0,0,0-9.845.6,7.161,7.161,0,0,0,0,10.293,7.028,7.028,0,0,1,2.113,4.251,1.081,1.081,0,0,0,.945.9H29.64a1.054,1.054,0,0,0,.945-.9A7.234,7.234,0,0,1,32.7,15.431,7.1,7.1,0,0,0,33.395,5.859Z" transform="translate(-20.025 -3)" fill="#607088" stroke="#607088" stroke-width="0.5"/>
        </g>
        <g id="Group_2496" data-name="Group 2496" transform="translate(4.307 18.448)">
          <path id="Path_917" data-name="Path 917" d="M37.984,78.518h5a.659.659,0,0,0,0-1.318h-5a.659.659,0,0,0,0,1.318Z" transform="translate(-37.35 -77.2)" fill="#607088" stroke="#607088" stroke-width="0.5"/>
        </g>
        <g id="Group_2497" data-name="Group 2497" transform="translate(4.307 20.462)">
          <path id="Path_918" data-name="Path 918" d="M37.984,86.618h5a.659.659,0,0,0,0-1.318h-5a.659.659,0,0,0,0,1.318Z" transform="translate(-37.35 -85.3)" fill="#607088" stroke="#607088" stroke-width="0.5"/>
        </g>
        <g id="Group_2498" data-name="Group 2498" transform="translate(2.162 1.964)">
          <path id="Path_919" data-name="Path 919" d="M29.561,28.417a2.275,2.275,0,0,1-.025-.423,4.308,4.308,0,0,1,.075-.8l-.771-.3a5.033,5.033,0,0,0-.1,1.492h.82Z" transform="translate(-28.722 -22.922)" fill="#607088" stroke="#607088" stroke-width="0.5"/>
          <path id="Path_920" data-name="Path 920" d="M31.2,17.888a4.245,4.245,0,0,1,.92-1.293l.124-.124-.448-.671a2.476,2.476,0,0,0-.273.249A5.076,5.076,0,0,0,30.4,17.69Z" transform="translate(-29.983 -14.582)" fill="#607088" stroke="#607088" stroke-width="0.5"/>
          <path id="Path_921" data-name="Path 921" d="M39.1,11.6l.5.622a4.221,4.221,0,0,1,1.666-.522l.05-.8A5.024,5.024,0,0,0,39.1,11.6Z" transform="translate(-36.52 -10.9)" fill="#607088" stroke="#607088" stroke-width="0.5"/>
          <path id="Path_922" data-name="Path 922" d="M53.913,11.6a5.485,5.485,0,0,0-2.213-.7l.05.8a4.829,4.829,0,0,1,1.666.522Z" transform="translate(-45.987 -10.9)" fill="#607088" stroke="#607088" stroke-width="0.5"/>
        </g>
      </g>
    </g>
  </g>
</svg>
