<svg xmlns="http://www.w3.org/2000/svg" width="49.351" height="49.351" viewBox="0 0 49.351 49.351">
  <g id="Group_425" data-name="Group 425" transform="translate(-171.325 -320.324)">
    <g id="Group_370" data-name="Group 370" transform="translate(171.325 320.324)">
      <g id="Rectangle_283" data-name="Rectangle 283" transform="translate(24.676 0) rotate(45)" fill="#fff" stroke="#0062cf" stroke-width="1">
        <rect width="34.897" height="34.897" rx="6" stroke="none"/>
        <rect x="0.5" y="0.5" width="33.897" height="33.897" rx="5.5" fill="none"/>
      </g>
    </g>
    <g id="_03WGlQ.tif" data-name="03WGlQ.tif" transform="translate(188.969 333.88)">
      <g id="Group_355" data-name="Group 355" transform="translate(0)">
        <path id="Path_584" data-name="Path 584" d="M465.775,167.614a2.687,2.687,0,0,1-.291-.35c-.487-.834-.966-1.673-1.446-2.511-.2-.346-.08-.553.315-.554.281,0,.563-.007.844,0,.152,0,.2-.051.21-.2a9.429,9.429,0,0,1,2.175-5.553,9.311,9.311,0,0,1,3.2-2.537.542.542,0,0,0,.353-.537,8.781,8.781,0,0,0-3.821-7.846c-.057-.039-.117-.073-.2-.123-.176.306-.345.6-.516.895-.2.335-.438.336-.632,0q-.756-1.3-1.508-2.611c-.2-.341-.07-.567.319-.566q1.488,0,2.977.011c.418,0,.538.209.336.567-.165.291-.333.58-.494.862.419.331.844.635,1.232.98a9.468,9.468,0,0,1,3.022,5.176,8.027,8.027,0,0,1,.193,2.69.527.527,0,0,0,.283.569,8.873,8.873,0,0,0,3.928,1.433,8.645,8.645,0,0,0,4.851-.846c.042-.02.081-.045.144-.079-.177-.308-.352-.608-.524-.91-.181-.318-.071-.52.289-.52q1.547,0,3.094,0c.338,0,.466.215.3.507q-.77,1.336-1.549,2.668a.311.311,0,0,1-.585.008c-.186-.3-.362-.615-.531-.9-.565.216-1.1.44-1.651.626a9.005,9.005,0,0,1-3.667.4,9.465,9.465,0,0,1-4.649-1.653.4.4,0,0,0-.463-.038,8.645,8.645,0,0,0-4.849,6.292c-.08.393-.114.8-.175,1.233.4,0,.736,0,1.076,0,.38,0,.5.2.314.521q-.757,1.317-1.524,2.629a1.737,1.737,0,0,1-.244.269Z" transform="translate(-463.944 -145.123)" fill="#0062cf" stroke="#0062cf" stroke-width="1"/>
      </g>
    </g>
  </g>
</svg>
