<svg xmlns="http://www.w3.org/2000/svg" xmlns:xlink="http://www.w3.org/1999/xlink" width="24" height="24" viewBox="0 0 24 24">
  <defs>
    <clipPath id="clip-options_icon">
      <rect width="24" height="24"/>
    </clipPath>
  </defs>
  <g id="options_icon" clip-path="url(#clip-options_icon)">
    <g id="Group_425" data-name="Group 425" transform="translate(-187.463 -333.374)">
      <g id="_03WGlQ.tif" data-name="03WGlQ.tif" transform="translate(188.968 333.878)">
        <g id="Group_355" data-name="Group 355" transform="translate(0 0)">
          <path id="Path_584" data-name="Path 584" d="M465.815,168.11a2.744,2.744,0,0,1-.3-.358c-.5-.852-.987-1.71-1.478-2.566-.2-.354-.082-.565.322-.566.287,0,.575-.007.863,0,.155,0,.2-.052.215-.2a9.637,9.637,0,0,1,2.223-5.675,9.517,9.517,0,0,1,3.271-2.593.554.554,0,0,0,.361-.549,8.975,8.975,0,0,0-3.905-8.019c-.058-.04-.12-.075-.2-.126-.18.313-.353.613-.527.915-.2.342-.448.343-.646,0q-.773-1.329-1.541-2.669c-.2-.349-.072-.579.326-.578q1.521,0,3.043.011c.427,0,.55.214.343.58-.169.3-.34.593-.5.881.428.338.863.649,1.259,1a9.677,9.677,0,0,1,3.089,5.29,8.2,8.2,0,0,1,.2,2.749.539.539,0,0,0,.289.582,9.069,9.069,0,0,0,4.015,1.465,8.836,8.836,0,0,0,4.958-.865c.043-.02.083-.046.147-.081-.181-.315-.36-.621-.536-.93-.185-.325-.073-.531.3-.531h3.162c.345,0,.476.22.307.518q-.787,1.365-1.583,2.727a.318.318,0,0,1-.6.008c-.19-.307-.37-.629-.543-.92-.577.221-1.124.45-1.687.64a9.2,9.2,0,0,1-3.748.409,9.674,9.674,0,0,1-4.752-1.689.409.409,0,0,0-.473-.039,8.836,8.836,0,0,0-4.956,6.431c-.082.4-.117.818-.179,1.26h1.1c.388,0,.511.2.321.533q-.774,1.346-1.558,2.687a1.776,1.776,0,0,1-.249.275Z" transform="translate(-463.943 -145.121)" fill="#fff" stroke="#fff" stroke-width="1"/>
        </g>
      </g>
    </g>
  </g>
</svg>
