<svg xmlns="http://www.w3.org/2000/svg" width="43" height="42" viewBox="0 0 43 42"><g data-name="Group 304" transform="translate(-241 -936)"><g fill="#fff" stroke="#c4c4c4" stroke-width="1" data-name="Rectangle 45" transform="translate(241 936)"><path stroke="none" d="M0 0H43V42H0z"/><path fill="none" d="M0.5 0.5H42.5V41.5H0.5z"/></g><path fill="#0062cf" d="M110.489,71.914,97.443,64.15a.984.984,0,0,0-.511-.15.935.935,0,0,0-.928.937h0V81.056h0a.935.935,0,0,0,.928.937,1.072,1.072,0,0,0,.525-.159l13.031-7.755a1.411,1.411,0,0,0,0-2.165Z" transform="translate(159.949 882.759)"/></g></svg>