<svg width="27" height="26" viewBox="0 0 27 26" fill="none" xmlns="http://www.w3.org/2000/svg">
<path d="M8.55691 1L3.51691 1.00588C2.12636 1.00751 1 2.08164 1 3.40608V8.19863C1 9.42953 1.97282 10.444 3.22611 10.5827L3.52309 10.5988L8.56309 10.5929C9.95364 10.5913 11.08 9.51719 11.08 8.19274V3.4002C11.08 2.16929 10.1072 1.15479 8.85388 1.01615L8.55691 1ZM23.6769 1L18.6369 1.00588C17.2464 1.00751 16.12 2.08164 16.12 3.40608V8.19863C16.12 9.42953 17.0928 10.444 18.3461 10.5827L18.6431 10.5988L23.6831 10.5929C25.0736 10.5913 26.2 9.51719 26.2 8.19274V3.4002C26.2 2.16929 25.2272 1.15479 23.9739 1.01615L23.6769 1ZM8.55691 15.4012L3.51691 15.4071C2.12636 15.4087 1 16.4828 1 17.8073V22.5998C1 23.8307 1.97282 24.8452 3.22611 24.9839L3.52309 25L8.56309 24.9941C9.95364 24.9925 11.08 23.9184 11.08 22.5939V17.8014C11.08 16.5705 10.1072 15.556 8.85388 15.4173L8.55691 15.4012ZM23.6769 15.4012L18.6369 15.4071C17.2464 15.4087 16.12 16.4828 16.12 17.8073V22.5998C16.12 23.8307 17.0928 24.8452 18.3461 24.9839L18.6431 25L23.6831 24.9941C25.0736 24.9925 26.2 23.9184 26.2 22.5939V17.8014C26.2 16.5705 25.2272 15.556 23.9739 15.4173L23.6769 15.4012Z" stroke="#222222" stroke-width="1.5" stroke-linecap="round" stroke-linejoin="round"/>
</svg>
