<svg width="29" height="22" viewBox="0 0 29 22" fill="none" xmlns="http://www.w3.org/2000/svg">
<path d="M13.6978 1.95325H3.53956C2.137 1.95325 1 2.34086 1 2.81901V20.1342C1 20.6124 2.137 21 3.53956 21H13.6978C15.1004 21 16.2374 20.6124 16.2374 20.1342V2.81901C16.2374 2.34086 15.1004 1.95325 13.6978 1.95325Z" stroke="#222222" stroke-width="1.5"/>
<path d="M22.1496 1.27362L18.0649 2.36811C17.5009 2.51922 17.1662 3.09892 17.3174 3.6629L20.8552 19.9778C21.0063 20.5418 21.586 20.8765 22.15 20.7254L26.2347 19.6309C26.7987 19.4798 27.1333 18.9001 26.9822 18.3361L23.4444 2.02117C23.2933 1.45719 22.7136 1.1225 22.1496 1.27362Z" stroke="#222222" stroke-width="1.5"/>
<path d="M7.34891 1.95325H2.26978C1.5685 1.95325 1 2.34086 1 2.81901V20.1342C1 20.6124 1.5685 21 2.26978 21H7.34891C8.05019 21 8.61869 20.6124 8.61869 20.1342V2.81901C8.61869 2.34086 8.05019 1.95325 7.34891 1.95325Z" stroke="#222222" stroke-width="1.5"/>
<path d="M18.9141 7.54218L24.0526 6.14075" stroke="#222222" stroke-width="1.5" stroke-linecap="round" stroke-linejoin="round"/>
</svg>
