<svg width="26" height="26" viewBox="0 0 26 26" fill="none" xmlns="http://www.w3.org/2000/svg">
<path d="M13 25C19.6274 25 25 19.6274 25 13C25 6.37258 19.6274 1 13 1C6.37258 1 1 6.37258 1 13C1 19.6274 6.37258 25 13 25Z" stroke="#222222" stroke-width="1.5" stroke-linecap="round" stroke-linejoin="round"/>
<path fill-rule="evenodd" clip-rule="evenodd" d="M12.9993 14.5C13.7493 14.5 14.4993 13.75 14.4993 13C14.4993 12.25 13.7493 11.5 12.9993 11.5C12.2493 11.5 11.501 12.25 11.501 13C11.501 13.75 12.2493 14.5 12.9993 14.5ZM6.99928 14.5C7.74928 14.5 8.49928 13.75 8.49928 13C8.49928 12.25 7.74928 11.5 6.99928 11.5C6.24928 11.5 5.50102 12.25 5.50102 13C5.50102 13.75 6.24928 14.5 6.99928 14.5ZM18.9993 14.5C19.7493 14.5 20.4993 13.75 20.4993 13C20.4993 12.25 19.7493 11.5 18.9993 11.5C18.2493 11.5 17.501 12.25 17.501 13C17.501 13.75 18.2493 14.5 18.9993 14.5Z" fill="#222222"/>
</svg>
