<svg id="Layer_1" data-name="Layer 1" xmlns="http://www.w3.org/2000/svg" viewBox="0 0 150 150"><defs><style>.cls-1{fill:#a7abae;}</style></defs><path class="cls-1" d="M37.57,146.5a2.64,2.64,0,0,0-.47-.25,8.59,8.59,0,0,1-6.78-8.87q0-19.06,0-38.11V75.53c0-5.91,3.56-9.46,9.49-9.47h95.9c6.43,0,8.47,1.37,10.8,7.26v65.92a38.53,38.53,0,0,1-2.25,4.33c-1.17,1.71-3.15,2.27-5,2.93ZM39.4,75.13v62.25h98V75.13Z"/><path class="cls-1" d="M116.34,3.5c2.54,1.09,3.4,3,3.39,5.76-.08,15.83,0,31.65,0,47.48,0,3.51-3,5.74-6.1,4.54a4.53,4.53,0,0,1-2.83-4.55V18.78L108.54,21c-1.15,1.15-2.29,2.32-3.46,3.45a4.41,4.41,0,0,1-6.58-.06c-3.31-3.26-6.6-6.56-9.9-9.84a1.73,1.73,0,0,0-.23-.12c-.3.28-.64.57-1,.89-3,3-6,6-9,9-2.18,2.15-4.69,2.13-6.88-.05-3-2.95-5.93-5.92-8.89-8.88-.32-.32-.66-.63-1.1-1L54,21.85c-.85.85-1.69,1.72-2.57,2.56a4.41,4.41,0,0,1-6.58,0c-3.34-3.3-6.64-6.64-10-10-.38.35-.73.64-1,1-3,3-5.92,5.93-8.9,8.88-2.3,2.29-4.76,2.28-7.07,0-1.71-1.7-3.39-3.43-5.29-5.36V131a10.22,10.22,0,0,0,.82-.66c1.62-1.61,3.21-3.25,4.85-4.83a4.45,4.45,0,1,1,6.27,6.32q-6.61,6.7-13.34,13.32a12.2,12.2,0,0,1-2.05,1.37H6.85a6.05,6.05,0,0,1-3.35-3.35V6.85A6.05,6.05,0,0,1,6.85,3.5H9.09A38.13,38.13,0,0,1,12.33,6c3,2.94,6,6,9,9,3.09-3.09,6-6.1,9.07-9A38,38,0,0,1,33.66,3.5H35.9A38.13,38.13,0,0,1,39.14,6c3,2.94,6,6,9,9,3.08-3.08,6-6.09,9.06-9A36.61,36.61,0,0,1,60.48,3.5h2.23A36.61,36.61,0,0,1,66,6c3,2.94,6,6,9,9,3.08-3.09,6-6.1,9.06-9A36.71,36.71,0,0,1,87.29,3.5h2.23A36.61,36.61,0,0,1,92.76,6c3,3,6,6,9,9,3.08-3.09,6-6.1,9.06-9A38.13,38.13,0,0,1,114.1,3.5Z"/><path class="cls-1" d="M39.4,75.13v62.25h98V75.13Zm36.93,45.73a39.12,39.12,0,0,1-9.44,8.19,1.64,1.64,0,0,1-1.45.12c-7.62-4.95-13.55-11.32-16.26-20.19-1.91-6.24-1.61-12.32,2.33-17.83A18,18,0,0,1,70.16,84.3,17.43,17.43,0,0,1,83.75,98.84c.17,1.1.24,2.21.3,2.8C83.87,109.39,80.87,115.45,76.33,120.86Zm42.91-5.57H97.63a4.55,4.55,0,1,1,0-9.08h21.61c3,0,5,1.87,5,4.62S122.18,115.28,119.24,115.29Zm4.7-13.41H110.69c-4.32,0-8.65,0-13,0-2.91,0-4.91-1.86-4.91-4.53s2-4.54,4.89-4.54q13.11,0,26.22,0a4.54,4.54,0,1,1,0,9.07Z"/><path class="cls-1" d="M66.08,118.47c-4.48-4.16-8-8.68-8.84-14.78-.48-3.54.31-6.73,3.28-9a8.91,8.91,0,0,1,9.38-1c3.75,1.61,5.65,5.58,5,10.09C74,109.83,70.49,114.31,66.08,118.47Z"/></svg>