<svg id="Layer_1" data-name="Layer 1" xmlns="http://www.w3.org/2000/svg" viewBox="0 0 150 150"><defs><style>.cls-1{fill:#a7abae;}</style></defs><path class="cls-1" d="M65.56,35.34c-1.3,3.34-3.8,6.59-3,8.25,2.93,6.1.33,11.51-.08,17.35-.55,7.68,7.66,14.81,15.13,15.57,1,.1,2.61.74,2.73,1.37,1.41,7.2,6.85,7.22,12.36,7.24.31,0,.61.35,1.13.67-4.32,9.16-10.68,18-12.42,27.64s1.1,20.31,2,30.81H41.55l-.81-8.75c-4.53,0-9,.07-13.56,0-6.87-.13-7.88-2.24-7.56-8.89s-1-13.33-1.65-20a2.28,2.28,0,0,0-1.18-1.68c-7.45-1.74-3.54-5.43-1.55-8.76,2.67-4.47,5.68-8.27,4.06-14.59-1-3.8,2.48-8.61,3.45-13.07.34-1.52-.25-4.14-1.36-4.93-9.61-6.86-5.75-19.86,3.26-23.29C37.51,35.38,50.84,33.16,65.56,35.34Z"/><path class="cls-1" d="M113.7,65.94c-1.6-.45-2.88-.78-4.14-1.17a1.62,1.62,0,0,0-2.07.59,16.07,16.07,0,0,1-2.79,2.8,1.6,1.6,0,0,0-.59,2.07,2.13,2.13,0,0,1,.11.33c.22,1.5,1.14,3.68.49,4.35-1.25,1.3-3.35,1.85-5.18,2.48a2,2,0,0,1-1.7-1c-1.15-3.18-3.16-4.33-6.61-3.91-1.6.19-2.5.39-3.28,1.85-2.18,4.1-1.76,3.59-5.68,2-.48-.19-.94-.43-1.44-.59-1.23-.39-1.75-1.28-1.22-2.39,1.44-3,.83-5.13-1.79-7.3-1.4-1.17-2.34-1.52-4-1-4.27,1.38-3.7.88-5.09-2.43s-2.05-3.2,1.87-5.18c1.61-.82,1.93-1.81,2.14-3.64.38-3.39-.87-5.19-3.83-6.3A1.62,1.62,0,0,1,68,45c.57-1.2,1-2.43,1.51-3.67.4-1.06,1.26-1.55,2.18-1.07,3.25,1.66,5.53.63,7.71-2A3,3,0,0,0,80.28,35c-1.33-4.73-1.53-3.91,2.83-5.77C86,28,86.1,28,87.44,30.76c1,2.05,2.21,2.58,4.55,2.72,3,.17,4.52-.87,5.49-3.43.63-1.64,1.74-2,3.29-1.12a17.48,17.48,0,0,0,2.86,1.2,1.77,1.77,0,0,1,1.27,2.67c-1.27,2.79-.81,4.79,1.68,6.9,1.55,1.31,2.59,1.68,4.42,1.1,3.36-1.06,3.41-1,4.73,2.28,1.47,3.61,2,3.44-1.9,5.44-1.61.82-1.84,1.81-2,3.55-.36,3.32.74,5.24,3.8,6.33,1.26.45,1.49,1.43.89,2.66s-1,2.47-1.56,3.65A5.32,5.32,0,0,1,113.7,65.94Zm-21.45-26A13.06,13.06,0,1,0,105.35,53,13.16,13.16,0,0,0,92.25,39.91Z"/><path class="cls-1" d="M130.49,39.45a25.75,25.75,0,0,1-2.18-1.63,1.65,1.65,0,0,0-2.42-.21,1.55,1.55,0,0,1-.63.27,2.75,2.75,0,0,0-2.51,3.19c0,1.49-.66,2.1-2.13,1.91a5.31,5.31,0,0,0-1.38,0c-1.4.18-2-.45-2.08-1.82-.06-.84,0-2-.55-2.43A8.59,8.59,0,0,0,113,37.2c-.57-.1-1.4.64-2,1.16-1.16,1.08-2.17,1.17-3.15-.18a2.94,2.94,0,0,0-.61-.61c-1.35-1-1.49-2-.26-3.26.54-.54,1.25-1.4,1.14-2a9,9,0,0,0-1.53-3.61c-.34-.48-1.47-.52-2.25-.52-1.57,0-2.21-.7-2-2.24a4.9,4.9,0,0,0,0-1.21c-.16-1.45.45-2.12,1.93-2.18.83,0,2-.08,2.39-.59a11.11,11.11,0,0,0,1.53-3.62c.1-.38-.47-1-.81-1.42-1.65-2.19-1.66-2.18.32-4.15a1.36,1.36,0,0,0,.12-.12c1-1.42,2-1.3,3.27-.19.63.55,1.22,1.72,2.46.94,1.46-.91,3.91-.72,3.6-3.52-.17-1.59.66-2.35,2.31-2.11a5.31,5.31,0,0,0,1.38,0c1.23-.11,1.79.41,1.87,1.66.06.9,0,2.16.57,2.6a9.77,9.77,0,0,0,3.6,1.55c.43.12,1.1-.46,1.58-.82,2.13-1.6,2.12-1.61,4,.3a7,7,0,0,0,.61.61c.91.76.82,1.51.11,2.37-.58.7-1.55,1.54-1.48,2.23a8.88,8.88,0,0,0,1.44,3.63c.26.43,1.21.51,1.87.6,2.47.35,2.47.32,2.47,2.85a5.3,5.3,0,0,0,0,.69c.2,1.46-.41,2.1-1.91,2.13-.82,0-2,.1-2.38.62a11.62,11.62,0,0,0-1.54,3.61c-.1.34.42.89.73,1.3,1.74,2.32,1.75,2.32-.35,4.4C131.62,38.59,131.07,39,130.49,39.45ZM129,25.5a9,9,0,0,0-8.87-9.1,9,9,0,1,0-.21,18A8.92,8.92,0,0,0,129,25.5Z"/><path class="cls-1" d="M90.86,8.27C90.09,7,90.74,6.18,92.14,6a2,2,0,0,1,1.58.59c1.19,1.6,3,1.67,4-.09.61-1,1.23-.72,2-.41s1.38.6,1.09,1.73c-.51,1.93.78,3.17,2.82,2.73,1.15-.26,1.37.46,1.7,1.21s.49,1.3-.41,1.87c-1.79,1.14-1.78,2.87,0,4,1.1.69.49,1.32.25,2s-.54,1.27-1.6,1a2.13,2.13,0,0,0-2.8,2.75c.29,1.14-.34,1.38-1.13,1.72s-1.41.5-2-.48a2.16,2.16,0,0,0-3.88,0c-.59,1-1.18.8-2,.45s-1.4-.59-1.1-1.72c.5-1.93-.85-3.26-2.83-2.74-1.08.27-1.32-.26-1.6-1s-.79-1.36.28-2c1.83-1.16,1.83-2.84,0-4-1-.67-.52-1.29-.29-2.05.31-1,.86-1.21,1.82-1A2.31,2.31,0,0,0,90.86,8.27Zm-.38,7.28a5.25,5.25,0,1,0,5.28-5.26A5.3,5.3,0,0,0,90.48,15.55Z"/></svg>