<svg xmlns="http://www.w3.org/2000/svg" width="20" height="26.568" viewBox="0 0 20 26.568">
  <g id="Administration" transform="translate(-94 -1671.236)">
    <path id="Path_764" data-name="Path 764" d="M100.765,1683.9a.9.9,0,0,0,.5.616,3.949,3.949,0,0,0,1.412.465,7.469,7.469,0,0,0,3.389-.179,3.978,3.978,0,0,0,.75-.339.778.778,0,0,0,.42-.562.8.8,0,0,1,.074.045,7.874,7.874,0,0,0,3.451,1.468c.391.073.78.158,1.166.252a2.234,2.234,0,0,1,1.668,1.572,7.714,7.714,0,0,1,.346,1.938c.032.482.034.966.059,1.448a1.4,1.4,0,0,1-.464,1.124,4.337,4.337,0,0,1-1.456.863,14.659,14.659,0,0,1-2.966.773c-.025,0-.051.005-.1.01a1.4,1.4,0,0,0-.777-1.332,5.944,5.944,0,0,0,.036-.641,1.242,1.242,0,0,0-.38-.82c-.234-.239-.468-.479-.711-.708a1.373,1.373,0,0,0-1.438-.311l-.065-.106a1.33,1.33,0,0,0-1.147-.69c-.345-.012-.691-.009-1.036,0a1.336,1.336,0,0,0-1.2.717c-.015.027-.032.053-.05.083a1.444,1.444,0,0,0-1.609.475c-.153.169-.321.325-.483.486a1.36,1.36,0,0,0-.387,1.44c0,.019.008.04.013.064a1.406,1.406,0,0,0-.8,1.355c-.278-.052-.542-.1-.805-.151a12.249,12.249,0,0,1-2.554-.766,4.016,4.016,0,0,1-1.141-.716,1.455,1.455,0,0,1-.488-1.162,14.62,14.62,0,0,1,.248-2.787,5.737,5.737,0,0,1,.228-.761,2.1,2.1,0,0,1,1.492-1.36c.548-.144,1.106-.252,1.66-.37a7.555,7.555,0,0,0,3.05-1.377C100.7,1683.936,100.73,1683.922,100.765,1683.9Z" fill="#fff"/>
    <path id="Path_765" data-name="Path 765" d="M103.935,1671.236a4.7,4.7,0,0,1,3,.914.2.2,0,0,0,.039.026,2.833,2.833,0,0,1,1.582,2.126c.108.473.154.962.219,1.445.035.268.049.539.076.808a.144.144,0,0,0,.04.1.822.822,0,0,1,.293.631,3.315,3.315,0,0,1-.323,1.856,1.044,1.044,0,0,1-.408.477.322.322,0,0,0-.1.154,7.935,7.935,0,0,1-1.818,2.831,3.987,3.987,0,0,1-1.843,1.086,3.007,3.007,0,0,1-2.414-.464,6.017,6.017,0,0,1-1.95-2.129c-.242-.421-.428-.875-.646-1.311a.871.871,0,0,0-.156-.179,2.034,2.034,0,0,1-.32-.345,3.143,3.143,0,0,1-.368-2.135.629.629,0,0,1,.295-.488c.035-.019.045-.1.05-.152.055-.591.085-1.186.164-1.774a3.887,3.887,0,0,1,.564-1.577,2.517,2.517,0,0,1,.946-.878,4.828,4.828,0,0,0,.421-.253,4.5,4.5,0,0,1,2.176-.737C103.644,1671.248,103.83,1671.242,103.935,1671.236Z" fill="#fff"/>
    <path id="Path_766" data-name="Path 766" d="M104,1697.8c-.149,0-.3,0-.446,0a.383.383,0,0,1-.413-.357.433.433,0,0,1-.012-.079.6.6,0,0,0-.54-.677.249.249,0,0,0-.169.018c-.14.086-.269.189-.4.283a.369.369,0,0,1-.518-.035q-.336-.328-.665-.665a.365.365,0,0,1-.037-.505c.087-.127.178-.252.267-.377a.459.459,0,0,0,.054-.079.9.9,0,0,0-.3-.6c-.157-.028-.315-.051-.472-.077a.376.376,0,0,1-.349-.4c0-.308,0-.616,0-.924a.372.372,0,0,1,.338-.394.438.438,0,0,1,.11-.02c.4.035.583-.2.67-.549a.218.218,0,0,0-.025-.154c-.088-.138-.19-.268-.284-.4a.374.374,0,0,1,.045-.531q.312-.318.631-.631a.386.386,0,0,1,.557-.042c.122.085.242.172.363.259a.678.678,0,0,0,.065.045.974.974,0,0,0,.6-.289c.031-.167.056-.335.084-.5a.37.37,0,0,1,.382-.334c.319,0,.638-.005.956,0a.372.372,0,0,1,.381.336.554.554,0,0,1,.01.079.612.612,0,0,0,.542.695.265.265,0,0,0,.168-.017c.143-.09.277-.2.417-.292a.371.371,0,0,1,.506.041q.337.328.665.665a.37.37,0,0,1,.041.506c-.086.127-.179.251-.268.376a.576.576,0,0,0-.054.079.885.885,0,0,0,.3.6c.162.03.324.056.486.084a.37.37,0,0,1,.337.38q.007.477,0,.956a.371.371,0,0,1-.32.379.427.427,0,0,1-.079.01.621.621,0,0,0-.711.544.266.266,0,0,0,.016.169c.09.144.2.277.293.417a.366.366,0,0,1-.041.505q-.322.331-.654.654a.377.377,0,0,1-.531.042c-.131-.091-.255-.192-.392-.273a.33.33,0,0,0-.2-.016c-.056.007-.1.055-.161.065a.375.375,0,0,0-.332.419,1.9,1.9,0,0,1-.042.267.378.378,0,0,1-.4.352C104.306,1697.807,104.152,1697.8,104,1697.8Zm-.005-5.614a1.6,1.6,0,1,0,1.607,1.59A1.6,1.6,0,0,0,103.993,1692.189Z" fill="#fff"/>
  </g>
</svg>
