<svg xmlns="http://www.w3.org/2000/svg" width="20" height="19.616" viewBox="0 0 20 19.616">
  <g id="Orchestration" transform="translate(-94 -1593.828)">
    <path id="Path_761" data-name="Path 761" d="M110.074,1602.538a2.061,2.061,0,0,0-2.358-.361,1.332,1.332,0,0,0-.813,1.1.235.235,0,0,1-.378.175c-.261-.143-.535-.262-.81-.394a3.9,3.9,0,1,0-1.931,2.243c.121.208.245.413.362.622a.35.35,0,0,1-.245.436,1.563,1.563,0,0,0-1.377,1.616,1.922,1.922,0,0,0,.725,1.561,1.166,1.166,0,0,1-.8.438,3.167,3.167,0,0,1-.748,0,1.377,1.377,0,0,1-1.15-1.3c-.009-.256.071-.573-.051-.749s-.449-.169-.678-.263c-.3-.123-.6-.258-.887-.4-.107-.053-.172-.055-.252.039-.117.138-.244.269-.372.4a1.243,1.243,0,0,1-1.758.025c-.111-.1-.219-.209-.326-.317a1.221,1.221,0,0,1,.025-1.8c.109-.1.217-.213.335-.307s.093-.152.039-.268q-.325-.7-.615-1.411c-.052-.13-.111-.179-.244-.168-.112.01-.227,0-.34,0a1.359,1.359,0,0,1-1.411-1.28,3.325,3.325,0,0,1,0-.726,1.212,1.212,0,0,1,1.195-1.066c.2-.008.395.009.59-.01a.268.268,0,0,0,.187-.135q.336-.78.646-1.57a.245.245,0,0,0-.036-.208c-.13-.156-.284-.293-.42-.445a1.242,1.242,0,0,1,.018-1.727c.109-.115.221-.229.336-.339a1.24,1.24,0,0,1,1.758.005c.169.162.336.326.476.462.57-.214,1.128-.422,1.682-.639a.2.2,0,0,0,.093-.151c.013-.158.005-.318.005-.477a1.179,1.179,0,0,1,1.122-1.291,3.552,3.552,0,0,1,.971.029,1.141,1.141,0,0,1,.981,1.18c0,.234-.072.52.036.687s.4.17.607.261c.352.155.7.32,1.07.492.155-.162.32-.337.488-.51a1.246,1.246,0,0,1,1.84-.013c.1.1.2.2.3.307a1.253,1.253,0,0,1,.01,1.745q-.24.257-.494.5a.19.19,0,0,0-.05.253c.2.471.4.946.575,1.428a.214.214,0,0,0,.244.165,6.052,6.052,0,0,1,.905.033,1.128,1.128,0,0,1,.985.987A2.358,2.358,0,0,1,110.074,1602.538Z" fill="#fff"/>
    <path id="Path_762" data-name="Path 762" d="M105.069,1610.245c-.154-.369-.3-.7-.427-1.039-.052-.142-.145-.133-.25-.127a.946.946,0,0,1-.876-.321,1.2,1.2,0,0,1-.166-1.2.767.767,0,0,1,.772-.458c.463-.02.46-.018.621-.458a2.571,2.571,0,0,1,.232-.54c.125-.194.072-.311-.068-.464a1.391,1.391,0,0,1-.344-.519c-.132-.473.087-.8.612-1.149a.79.79,0,0,1,1.04.214c.084.086.164.176.225.242.387-.149.74-.28,1.089-.423a.221.221,0,0,0,.107-.141,1.368,1.368,0,0,0,0-.272.741.741,0,0,1,.688-.832,2.235,2.235,0,0,1,.633-.006.712.712,0,0,1,.662.78c0,.452.006.448.435.617.2.08.4.189.6.268a.253.253,0,0,0,.21-.027c.12-.09.218-.21.332-.31a.818.818,0,0,1,1.114.014c.315.285.6.6.433,1.058a2.184,2.184,0,0,1-.447.613.266.266,0,0,0-.053.351,6.1,6.1,0,0,1,.319.822.2.2,0,0,0,.223.163,4.064,4.064,0,0,1,.654.042.6.6,0,0,1,.487.429,1.392,1.392,0,0,1-.086,1.08.816.816,0,0,1-.812.432c-.4-.014-.394,0-.536.356-.1.238-.208.469-.325.731l.32.286a.816.816,0,0,1,.049,1.226,1.114,1.114,0,0,1-.736.446.886.886,0,0,1-.767-.368.365.365,0,0,0-.565-.1,3.251,3.251,0,0,1-.691.282.2.2,0,0,0-.162.226,2.411,2.411,0,0,1-.032.564c-.115.532-.483.758-1.115.708a.892.892,0,0,1-.817-.882c.032-.442-.122-.641-.539-.714a1.481,1.481,0,0,1-.474-.212.2.2,0,0,0-.305.06.963.963,0,0,1-.779.439,1.238,1.238,0,0,1-.971-.721.834.834,0,0,1,.281-.974Zm1.5-2.262a2.038,2.038,0,1,0,2.061-2.034A2.046,2.046,0,0,0,106.569,1607.983Z" fill="#fff"/>
    <path id="Path_763" data-name="Path 763" d="M102.093,1599.322a2.441,2.441,0,1,1-2.449,2.449A2.439,2.439,0,0,1,102.093,1599.322Z" fill="#fff"/>
  </g>
</svg>
