<svg xmlns="http://www.w3.org/2000/svg" width="20" height="19.977" viewBox="0 0 20 19.977">
  <path id="Processes" d="M114,1559.617v4.8a.15.15,0,0,0-.01.017.772.772,0,0,1-.849.653H109.47a1.3,1.3,0,0,1-.243-.017.767.767,0,0,1-.614-.774c0-.465,0-.93,0-1.4v-.111h-4.6v5.364h4.6v-.69a.778.778,0,0,1,.839-.84H113.1a.787.787,0,0,1,.89.655l.007.007v4.058c0,.005-.011.009-.012.014a.776.776,0,0,1-.847.646H109.45a.778.778,0,0,1-.837-.832c0-.455,0-.91,0-1.366v-.106h-.144q-2.573,0-5.145,0a1.164,1.164,0,0,1-.271-.025.767.767,0,0,1-.592-.79q0-2.985,0-5.97v-.126H99.387v.121q0,1.068,0,2.136a.773.773,0,0,1-.817.812H94.821a.771.771,0,0,1-.806-.636c0-.008-.01-.015-.015-.023v-6.361a.079.079,0,0,0,.012-.015.773.773,0,0,1,.834-.649h3.7a1.142,1.142,0,0,1,.176.007.77.77,0,0,1,.666.79c0,.718,0,1.437,0,2.155v.116h3.073v-.132q0-2.965,0-5.93a1.11,1.11,0,0,1,.028-.27.766.766,0,0,1,.781-.579h5.343v-.119c0-.465,0-.93,0-1.4a.77.77,0,0,1,.559-.759l.1-.031h4.082l.081.029a.764.764,0,0,1,.515.479c.019.051.033.1.049.155v4.039c0,.009-.009.017-.012.026a.774.774,0,0,1-.852.651h-1.787c-.645,0-1.289,0-1.934,0a.765.765,0,0,1-.8-.7,2.757,2.757,0,0,1-.006-.3c0-.174,0-.349,0-.527h-4.606v5.365h4.606v-.115c0-.455,0-.911,0-1.366a1.03,1.03,0,0,1,.027-.241.769.769,0,0,1,.784-.577c1.224,0,2.448.009,3.672-.005a.82.82,0,0,1,.9.663Z" transform="translate(-94 -1552.027)" fill="#fff"/>
</svg>
