<svg xmlns="http://www.w3.org/2000/svg" width="27.374" height="23.923" viewBox="0 0 27.374 23.923">
  <g id="Processes-white" transform="translate(0 -0.051)">
    <g id="web-programming_1_" data-name="web-programming (1)">
      <path id="Shape" d="M0,14.861a2.284,2.284,0,0,0,2.281,2.281H25.092a2.284,2.284,0,0,0,2.281-2.281V0H0Z" transform="translate(0 6.831)" fill="#fff"/>
      <path id="Shape-2" data-name="Shape" d="M27.373,5.813H0V2.282A2.286,2.286,0,0,1,2.281,0h22.81a2.288,2.288,0,0,1,2.281,2.281V5.812Zm-15.368-4.4h0A1.531,1.531,0,0,0,12,4.479h.005a1.531,1.531,0,0,0,0-3.062ZM7.3,1.4a1.531,1.531,0,0,0,0,3.062H7.3A1.531,1.531,0,0,0,7.3,1.4Zm-4.707-.02A1.534,1.534,0,1,0,4.126,2.915,1.534,1.534,0,0,0,2.592,1.383Z" transform="translate(0 0.051)" fill="#fff"/>
    </g>
  </g>
</svg>
