<svg xmlns="http://www.w3.org/2000/svg" width="19.999" height="20.549" viewBox="0 0 19.999 20.549">
  <g id="Projects" transform="translate(-93.989 -1511.889)">
    <g id="Group_2397" data-name="Group 2397">
      <g id="Group_2392" data-name="Group 2392">
        <circle id="Ellipse_424" data-name="Ellipse 424" cx="1.569" cy="1.569" r="1.569" transform="translate(93.989 1518.51)" fill="#fff"/>
      </g>
      <g id="Group_2393" data-name="Group 2393">
        <circle id="Ellipse_425" data-name="Ellipse 425" cx="1.569" cy="1.569" r="1.569" transform="translate(99.397 1513.979)" fill="#fff"/>
      </g>
      <g id="Group_2394" data-name="Group 2394">
        <circle id="Ellipse_426" data-name="Ellipse 426" cx="1.569" cy="1.569" r="1.569" transform="translate(104.63 1516.941)" fill="#fff"/>
      </g>
      <g id="Group_2395" data-name="Group 2395">
        <circle id="Ellipse_427" data-name="Ellipse 427" cx="1.569" cy="1.569" r="1.569" transform="translate(109.863 1511.889)" fill="#fff"/>
      </g>
      <g id="Group_2396" data-name="Group 2396">
        <path id="Path_771" data-name="Path 771" d="M95.839,1520.412l-.56-.667,5.645-4.73,5.207,3.121,4.992-4.986.617.616-5.474,5.468-5.258-3.151Z" fill="#fff"/>
      </g>
    </g>
    <g id="Group_2398" data-name="Group 2398">
      <path id="Path_772" data-name="Path 772" d="M113.988,1532.436h-3.6V1518.95h3.6Z" fill="#fff"/>
    </g>
    <g id="Group_2399" data-name="Group 2399">
      <path id="Path_773" data-name="Path 773" d="M99.747,1532.4v-11.314h3.619V1532.4Z" fill="#fff"/>
    </g>
    <g id="Group_2400" data-name="Group 2400">
      <path id="Path_774" data-name="Path 774" d="M108.681,1532.438h-3.619v-8.229h3.619Z" fill="#fff"/>
    </g>
    <g id="Group_2401" data-name="Group 2401">
      <path id="Path_775" data-name="Path 775" d="M98.058,1532.437H94.44v-7.019h3.618Z" fill="#fff"/>
    </g>
  </g>
</svg>
