<svg xmlns="http://www.w3.org/2000/svg" xmlns:xlink="http://www.w3.org/1999/xlink" width="30" height="30" viewBox="0 0 30 30">
  <defs>
    <filter id="Combined_Shape" x="0" y="0" width="30" height="30" filterUnits="userSpaceOnUse">
      <feOffset dy="1" input="SourceAlpha"/>
      <feGaussianBlur stdDeviation="1" result="blur"/>
      <feFlood flood-opacity="0.302"/>
      <feComposite operator="in" in2="blur"/>
      <feComposite in="SourceGraphic"/>
    </filter>
  </defs>
  <g id="inactive_process" data-name="inactive/process" transform="translate(3 2)">
    <g id="Group_11" data-name="Group 11">
      <g id="flowchart">
        <g transform="matrix(1, 0, 0, 1, -3, -2)" filter="url(#Combined_Shape)">
          <path id="Combined_Shape-2" data-name="Combined Shape" d="M20.139,24a1.358,1.358,0,0,1-1.356-1.357v-2.5a1.358,1.358,0,0,1,1.356-1.356h2.5A1.358,1.358,0,0,1,24,20.139v2.5A1.358,1.358,0,0,1,22.643,24Zm-9.392,0a1.358,1.358,0,0,1-1.356-1.357v-2.5a1.358,1.358,0,0,1,1.356-1.356h2.5a1.358,1.358,0,0,1,1.356,1.356v2.5A1.358,1.358,0,0,1,13.253,24ZM1.356,24A1.358,1.358,0,0,1,0,22.643v-2.5a1.358,1.358,0,0,1,1.356-1.356h2.5a1.358,1.358,0,0,1,1.356,1.356v2.5A1.358,1.358,0,0,1,3.861,24Zm19.513-6.783a2.611,2.611,0,0,0-2.608-2.608H12.522v2.608a.522.522,0,1,1-1.043,0V14.609H5.739A2.612,2.612,0,0,0,3.13,17.217a.522.522,0,1,1-1.043,0,3.656,3.656,0,0,1,3.652-3.652h5.739V10.957a.522.522,0,1,1,1.043,0v2.608h5.739a3.656,3.656,0,0,1,3.652,3.652.522.522,0,0,1-1.044,0ZM9.913,9.392A2.612,2.612,0,0,1,7.3,6.782V2.609A2.612,2.612,0,0,1,9.913,0h4.173A2.612,2.612,0,0,1,16.7,2.609V6.782a2.612,2.612,0,0,1-2.609,2.609Z" transform="translate(3 2)" fill="#fff"/>
        </g>
      </g>
    </g>
  </g>
</svg>
