<svg id="workspace" xmlns="http://www.w3.org/2000/svg" width="23.96" height="24.143" viewBox="0 0 23.96 24.143">
  <path id="Combined_Shape" data-name="Combined Shape" d="M12.43,18.462l11.53-.028v5.681l-11.53.028ZM0,19.775l9.876-.022v4.368L0,24.143Zm0-4.386,9.876-.025V18.63L0,18.656Zm12.43-1.9,11.53-.028v3.551l-11.53.028ZM0,11l9.876-.026V14.24L0,14.267ZM12.43,8.521l11.53-.028v3.551l-11.53.027ZM0,9.876V8.841A4.72,4.72,0,0,1,4.939,4.389,4.719,4.719,0,0,1,9.876,8.841V9.876ZM12.43,7.1V5.761a5.761,5.761,0,1,1,11.521,0V7.1Z" transform="translate(0 0)" fill="#fff"/>
</svg>
