<svg xmlns="http://www.w3.org/2000/svg" xmlns:xlink="http://www.w3.org/1999/xlink" width="24" height="24" viewBox="0 0 24 24">
  <defs>
    <clipPath id="clip-edit_dis">
      <rect width="24" height="24"/>
    </clipPath>
  </defs>
  <g id="edit_dis" data-name="edit dis" clip-path="url(#clip-edit_dis)">
    <g id="edit-black" transform="translate(1 1)">
      <path id="Path_836" data-name="Path 836" d="M0,0H21.984V21.984H0Z" transform="translate(0 0)" fill="none"/>
      <g id="edit" transform="translate(0 0)">
        <path id="Path_849" data-name="Path 849" d="M11.826,4H4.184A2.184,2.184,0,0,0,2,6.184V21.468a2.184,2.184,0,0,0,2.184,2.184H19.468a2.184,2.184,0,0,0,2.184-2.184V13.826" transform="translate(-2 -1.668)" fill="none" stroke="#a8a8a8" stroke-linecap="round" stroke-linejoin="round" stroke-width="2"/>
        <path id="Path_850" data-name="Path 850" d="M19.541,2.562a2.332,2.332,0,0,1,3.3,3.3L12.4,16.3,8,17.4,9.1,13Z" transform="translate(-1.538 -1.879)" fill="none" stroke="#a8a8a8" stroke-linecap="round" stroke-linejoin="round" stroke-width="2"/>
      </g>
    </g>
  </g>
</svg>
