<?xml version="1.0" encoding="UTF-8"?><svg id="Layer_2" xmlns="http://www.w3.org/2000/svg" viewBox="0 0 14 14"><defs><style>.cls-1{fill:#001c47;}</style></defs><g id="Layer_1-2"><g><path class="cls-1" d="M11.62,4.25c.26,.26,.5,.49,.75,.73,.29,.29,.42,.62,.26,1.01-.16,.4-.49,.56-.91,.56-1.17,0-2.34,0-3.5,0-.5,0-.75-.24-.76-.74,0-1.19,0-2.38,0-3.57,0-.42,.2-.71,.58-.87,.37-.15,.68-.02,.95,.24,.26,.25,.51,.52,.77,.78,.67-.67,1.33-1.32,1.98-1.97,.56-.56,1-.56,1.56,0,.12,.12,.24,.24,.36,.36,.45,.46,.46,.95,0,1.41-.62,.62-1.24,1.24-1.86,1.86-.06,.06-.11,.12-.19,.2Z"/><path class="cls-1" d="M2.38,9.76c-.27-.27-.52-.51-.76-.76-.41-.43-.41-1.06,.03-1.36,.16-.11,.39-.18,.59-.18,1.19-.02,2.38-.01,3.58,0,.48,0,.73,.26,.73,.75,0,1.17,0,2.35,0,3.52,0,.41-.15,.74-.54,.9-.39,.16-.74,.03-1.04-.26-.24-.24-.48-.48-.74-.74-.07,.06-.14,.12-.2,.18-.62,.62-1.24,1.24-1.86,1.86-.46,.45-.95,.45-1.41,0-.16-.16-.32-.32-.48-.48-.4-.42-.4-.92,0-1.34,.62-.63,1.25-1.25,1.87-1.88,.06-.06,.12-.13,.2-.21Z"/></g></g></svg>