<?xml version="1.0" encoding="UTF-8"?><svg id="Layer_2" xmlns="http://www.w3.org/2000/svg" viewBox="0 0 14 14"><defs><style>.cls-1{fill:#001c47;}</style></defs><g id="Layer_1-2"><g><path class="cls-1" d="M11.66,4.17c-.07,.07-.14,.12-.2,.19-.61,.61-1.23,1.23-1.84,1.84-.48,.48-.96,.47-1.44,0-.13-.13-.26-.26-.39-.4-.49-.5-.5-.97,0-1.46,.62-.61,1.23-1.22,1.85-1.83,.06-.06,.15-.09,.2-.12-.29-.31-.52-.57-.76-.8-.3-.29-.43-.62-.27-1.03C8.96,.19,9.26,0,9.72,0c1.17,0,2.34,0,3.51,0,.54,0,.77,.24,.78,.77,0,1.16,0,2.32,0,3.48,0,.63-.41,1.05-.97,.98-.21-.03-.42-.16-.59-.3-.27-.23-.51-.5-.78-.76Z"/><path class="cls-1" d="M2.32,9.82c.63-.63,1.28-1.24,1.88-1.89,.62-.68,1.19-.63,1.74,0,.1,.11,.21,.21,.31,.31,.41,.43,.41,.93,0,1.35-.64,.65-1.28,1.29-1.92,1.93-.04,.04-.08,.08-.14,.16,.26,.26,.53,.5,.78,.76,.35,.36,.39,.84,.12,1.19-.19,.25-.46,.35-.77,.35-1.19,0-2.39,0-3.58,0-.45,0-.71-.24-.71-.69-.01-1.22,0-2.45,0-3.67,0-.39,.2-.67,.55-.82,.36-.15,.69-.05,.96,.21,.27,.26,.53,.52,.8,.79Z"/></g></g></svg>