<?xml version="1.0" encoding="utf-8"?>
<!-- Generator: Adobe Illustrator 25.4.1, SVG Export Plug-In . SVG Version: 6.00 Build 0)  -->
<svg version="1.1" id="Layer_1" xmlns="http://www.w3.org/2000/svg" xmlns:xlink="http://www.w3.org/1999/xlink" x="0px" y="0px"
	 viewBox="0 0 140 140" style="enable-background:new 0 0 140 140;" xml:space="preserve">
<style type="text/css">
	.st0{fill:none;}
	.st1{fill:#CE2427;}
</style>
<path class="st0" d="M-8.3-10.4h156.5v156.5H-8.3V-10.4z"/>
<path class="st0" d="M-12.5-12.5h164.9v164.9H-12.5V-12.5z"/>
<path class="st1" d="M70,138.7C32,138.7,1.3,108,1.3,70S32,1.3,70,1.3S138.7,32,138.7,70S108,138.7,70,138.7z M70,125
	c30.4,0,55-24.6,55-55s-24.6-55-55-55S15,39.6,15,70S39.6,125,70,125z M70,60.3l19.4-19.4l9.7,9.7L79.7,70l19.4,19.4l-9.7,9.7
	L70,79.7L50.6,99.2l-9.7-9.7L60.3,70L40.8,50.6l9.7-9.7L70,60.3z"/>
</svg>
