<svg xmlns="http://www.w3.org/2000/svg" viewBox="0 0 23.98 23.88"><defs><style>.cls-1{fill:#fff;}</style></defs><g id="Layer_2" data-name="Layer 2"><g id="Layer_1-2" data-name="Layer 1"><path class="cls-1" d="M24,20.74a3.4,3.4,0,0,1-.62,1.45,4.44,4.44,0,0,1-2.78,1.59,6.83,6.83,0,0,1-1.11.09h-15a5.09,5.09,0,0,1-3.27-1.06A3.14,3.14,0,0,1,0,20.24c0-3.33,0-6.65,0-10A3.42,3.42,0,0,1,2.07,7a5.23,5.23,0,0,1,2.4-.53H8.28l.15,0V8.8h-4A3.06,3.06,0,0,0,3,9.16a1.09,1.09,0,0,0-.63,1.05q0,4.95,0,9.9a1.08,1.08,0,0,0,.6,1,3.38,3.38,0,0,0,1.71.38H17.28c.87,0,1.74,0,2.6,0a2.5,2.5,0,0,0,1.29-.44,1,1,0,0,0,.46-.87q0-5,0-10a1,1,0,0,0-.49-.89,2.77,2.77,0,0,0-1.53-.45h-4V6.46l.1,0c1.47,0,2.94,0,4.4.05A4.36,4.36,0,0,1,23.17,7.9a2.92,2.92,0,0,1,.77,1.57.59.59,0,0,0,0,.08Z"/><path class="cls-1" d="M10.89,13.2V1.39A2.09,2.09,0,0,1,11,.83,1.17,1.17,0,0,1,12.22,0a1.18,1.18,0,0,1,1,1.1,2.53,2.53,0,0,1,0,.28V13.18c.09-.09.14-.13.19-.19l1.25-1.24a1.18,1.18,0,1,1,1.68,1.66q-1.72,1.74-3.48,3.47a1.18,1.18,0,0,1-1.75,0L7.71,13.43a1.18,1.18,0,1,1,1.67-1.67l1.45,1.46Z"/></g></g></svg>