<svg xmlns="http://www.w3.org/2000/svg" width="78" height="39.088" viewBox="0 0 78 39.088">
    <path id="Path_624" data-name="Path 624" d="M642.1,393.618c-1.273.439-2.522.971-3.736-.014a3.825,3.825,0,0,1-1.388-3.488,3.021,3.021,0,0,1-2.969-.9,3.574,3.574,0,0,1-.875-3.065l-3.415,1.052c-.85.262-1.711.5-2.549.792a3.132,3.132,0,0,1-4.1-2.74,2.98,2.98,0,0,1,2.269-3.432,12.488,12.488,0,0,0,1.19-.388l-1.046-.821c-1.676-1.318-3.346-2.645-5.03-3.954q-3.934-3.057-7.883-6.094c-.088-.068-.18-.131-.264-.2a.775.775,0,0,1-.136-1.137.739.739,0,0,1,1.1-.066c.737.556,1.463,1.126,2.189,1.7,1.7,1.337,3.39,2.687,5.1,4.014,2.488,1.933,4.99,3.847,7.478,5.78a.656.656,0,0,0,.683.126c4.2-1.31,8.4-2.6,12.6-3.919a1.187,1.187,0,0,0,.571-.441q.974-1.415,1.891-2.869a1.086,1.086,0,0,1,.929-.559c1.508-.088,3.014-.206,4.523-.26a.883.883,0,0,1,.665.426q1.448,3.084,2.818,6.2a1.218,1.218,0,0,0,1.5.821,1.14,1.14,0,0,0,.672-1.517c-.792-2.547-1.6-5.091-2.376-7.642a1.1,1.1,0,0,0-.664-.731c-.963-.447-1.9-.942-2.863-1.4a1.11,1.11,0,0,0-.587-.119q-5.107.681-10.21,1.389a15.022,15.022,0,0,1-1.56.193,1.727,1.727,0,0,1-.938-.206q-7.751-4.975-15.482-9.983c-.338-.218-.607-.485-.476-.886a.974.974,0,0,1,.531-.58,1.093,1.093,0,0,1,.779.182c2.509,1.6,5,3.219,7.505,4.832q3.83,2.471,7.667,4.931a.987.987,0,0,0,.611.124c2.712-.349,5.421-.715,8.131-1.077,1.213-.162,2.425-.336,3.64-.478a1.391,1.391,0,0,1,.729.123c1.316.638,2.631,1.282,3.919,1.975a1.444,1.444,0,0,1,.572.757c.321.91.58,1.841.874,2.8,1.723-.5,3.411-1,5.1-1.491q5.574-1.637,11.148-3.276c.62-.182.949,0,1.172.617q.194.538.387,1.076c0,.014.019.024.065.08l5.254-1.626c-.05-.184-.088-.334-.133-.482-.237-.788-.091-1.072.689-1.314q2.934-.91,5.87-1.815c.349-.108.7-.22,1.048-.322.638-.187.973-.024,1.168.6q1.535,4.934,3.057,9.871c.136.44.284.878.412,1.32a.754.754,0,0,1-.546,1.04q-3.636,1.138-7.278,2.258a.748.748,0,0,1-.976-.526c-.142-.4-.259-.815-.41-1.3l-5.019,1.55c.156.475.279.917.446,1.342a.958.958,0,0,1-.281,1.154q-3.067,2.943-6.114,5.906c-.124.12-.237.252-.358.382a2.846,2.846,0,0,1-.259,3.4,2.811,2.811,0,0,1-3.184.853,2.616,2.616,0,0,1-1.141,1.629,2.422,2.422,0,0,1-1.96.275,2.5,2.5,0,0,1-3.814,1.583,7.055,7.055,0,0,1-.778,1.16,2.37,2.37,0,0,1-3.213.169c-.538-.423-1.056-.872-1.564-1.331a.727.727,0,0,0-.808-.181c-2.3.732-4.615,1.417-6.913,2.157a2.241,2.241,0,0,1-2.437-.613A4.47,4.47,0,0,1,642.1,393.618Zm28.736-23.872-15.679,4.6c.417,1.343.807,2.634,1.221,3.918a2.646,2.646,0,0,1-.121,2,2.6,2.6,0,0,1-2.638,1.506,2.788,2.788,0,0,1-2.346-1.834c-.539-1.32-1.145-2.612-1.733-3.94l-2.417.717,5.305,15.932a2.478,2.478,0,0,1,1.616-1.489,2.5,2.5,0,0,1,2.122.351c.509-1.487,1.349-1.977,3.125-1.859a2.464,2.464,0,0,1,1.84-1.9,3.528,3.528,0,0,1,.2-2.182,2.861,2.861,0,0,1,4.311-.992c.9.7,1.753,1.464,2.648,2.217.183-.17.348-.317.506-.47,1.829-1.773,3.65-3.555,5.494-5.313a.59.59,0,0,0,.171-.734c-.875-2.518-1.737-5.04-2.6-7.56C671.517,371.736,671.182,370.764,670.832,369.746Zm17.411,6.14-3.076-9.927-5.866,1.822,3.076,9.925Zm-7.983.207-1.979-6.375-5.275,1.636,2.185,6.36Zm-41.87,8.423,1,3.206,8.858-2.745-1.066-3.182Zm8.311-4.186-1.075-3.2-8.684,2.707,1,3.2Zm-4,11.5,7.089-2.2-1.055-3.191-7.03,2.184Zm-11.916-6.574,5.679-1.756-1-3.205-5.666,1.76Zm37.51,3.994a2.944,2.944,0,0,0-.507-.819c-.977-.887-1.994-1.731-3.011-2.575a1.313,1.313,0,0,0-1.878.118,1.272,1.272,0,0,0,.091,1.841c1.041.936,2.111,1.84,3.192,2.729a1.175,1.175,0,0,0,1.389.087A1.464,1.464,0,0,0,668.295,389.247Zm-39.98-6.74c-.964.3-1.86.563-2.747.857a1.519,1.519,0,0,0-.952,1.885A1.575,1.575,0,0,0,626.3,386.6c1.01-.225,1.991-.577,3.008-.881Zm23.029,11.773-1.068-3.187-3.638,1.132.993,3.2Zm-13.43-6.1-1-3.205c-.509.159-.984.283-1.439.457a1.715,1.715,0,0,0,1.019,3.185C636.951,388.5,637.4,388.338,637.913,388.178Zm16.746,4.3a3.18,3.18,0,0,0-.753.682.8.8,0,0,0,.231,1.033c.6.518,1.2,1.046,1.817,1.548a.87.87,0,0,0,1.28-.067.89.89,0,0,0-.13-1.346c-.573-.5-1.153-1-1.746-1.485A4.414,4.414,0,0,0,654.659,392.476Zm9.867-.7c-.125-.275-.163-.51-.3-.635-.67-.605-1.349-1.2-2.06-1.758a.84.84,0,0,0-1.185.19.872.872,0,0,0,.039,1.171,24.036,24.036,0,0,0,2.036,1.71,1.007,1.007,0,0,0,.873.035C664.185,392.367,664.335,392.024,664.526,391.781Zm-6.028-.77a3.377,3.377,0,0,0-.756.692.82.82,0,0,0,.26,1.068c.579.5,1.159,1,1.748,1.483a.91.91,0,0,0,1.356-.074.923.923,0,0,0-.17-1.315c-.574-.5-1.155-1-1.747-1.483A4.657,4.657,0,0,0,658.5,391.011Zm-18.273-1.938c-.687.257-1.484.239-1.668,1.121a2.114,2.114,0,0,0,.737,2.174c.666.568,1.269.036,1.932-.074Zm4.949,3.656c-1.392.293-1.452.341-1.52,1.353a2.1,2.1,0,0,0,.2.97c.629,1.378,1.046,1.366,2.276.771ZM644,376.035c1.62-.483,3.115-.927,4.608-1.381.081-.025.137-.135.2-.205-.1-.055-.2-.162-.292-.157-1.109.057-2.218.129-3.326.205a.354.354,0,0,0-.241.118C644.651,375.049,644.362,375.493,644,376.035Z" transform="translate(-611.976 -358.677)" fill="#939393"/>
  </svg>
  