<svg xmlns="http://www.w3.org/2000/svg" width="46" height="46" viewBox="0 0 46 46">
    <g id="Group_445" data-name="Group 445" transform="translate(0.176 0.228)">
      <g id="Group_444" data-name="Group 444">
        <g id="Ellipse_99" data-name="Ellipse 99" transform="translate(-0.176 -0.228)" fill="none" stroke="#272727" stroke-width="1">
          <circle cx="23" cy="23" r="23" stroke="none"/>
          <circle cx="23" cy="23" r="22.5" fill="none"/>
        </g>
      </g>
      <g id="layer1" transform="translate(12.68 9.673)">
        <path id="path4560" d="M8.023,3A2.03,2.03,0,0,0,6,5.023V27.278A2.03,2.03,0,0,0,8.023,29.3H24.209a2.03,2.03,0,0,0,2.023-2.023V8.564s0-.005,0-.008,0-.005,0-.008,0-.024,0-.036a.506.506,0,0,0-.2-.36L21.089,3.213A.506.506,0,0,0,20.668,3Zm0,1.012H20.162V7.046A2.03,2.03,0,0,0,22.186,9.07H25.22V27.278a1,1,0,0,1-1.012,1.012H8.023a1,1,0,0,1-1.012-1.012V5.023A1,1,0,0,1,8.023,4.012Zm13.151.715,3.331,3.331h-2.32a1,1,0,0,1-1.012-1.012Zm-7.587,6.366a3.541,3.541,0,1,0,3.541,3.541A3.548,3.548,0,0,0,13.587,11.093Zm0,1.012a2.529,2.529,0,1,1-2.529,2.529A2.521,2.521,0,0,1,13.587,12.1Zm4.955,3.035a.506.506,0,0,0-.5.405A4.549,4.549,0,0,1,14.5,19.091a.506.506,0,0,0-.405.494v3.141a.506.506,0,0,0,.506.506H21.68a.506.506,0,0,0,.506-.506V15.645a.506.506,0,0,0-.506-.506Zm.279,1.012h2.353v6.07H15.1V19.863A5.444,5.444,0,0,0,18.821,16.151Z" transform="translate(-6 -3)" fill="#272727"/>
      </g>
    </g>
  </svg>
  