<svg xmlns="http://www.w3.org/2000/svg" width="1" height="23.776859921010555" fill="black" style=""><rect id="backgroundrect" width="100%" height="100%" x="0" y="0" fill="none" stroke="none"/>
  
<g class="currentLayer" style=""><title>Layer 1</title><g id="Environments_icon" class="" transform="rotate(0.1793508529663086 -1.3768463134805642,76.40298461914064) " stroke="#242424" stroke-opacity="1">
    <g id="computer_2_" data-name="computer (2)" stroke="#242424" stroke-opacity="1">
      <path id="Path_766" data-name="Path 766" d="M53.35608221335045,14.876031408741067 H-56.09309882131305 A9.400577261764278,9.723103344048015 0 0 0 -65.4881169007846,24.59338483951412 V110.07734546397516 a9.400577261764278,9.723103344048015 0 0 0 9.395018079468734,9.717353430775367 H-16.011394470448344 L-18.26842248243372,127.97682548173046 a8.683442745639145,8.9813645318764 0 0 1 -7.782855213761078,6.066158502643792 H-40.19383745606515 a1.8790036158937484,1.9434706861550757 0 0 0 0,3.8869413723101514 H37.45126166579577 a1.8790036158937484,1.9434706861550757 0 1 0 0,-3.8869413723101514 H23.297583541340142 a8.683442745639145,8.9813645318764 0 0 1 -7.782855213761078,-6.066158502643792 l-2.2625871942862594,-8.182126586978308 h40.0872635331651 a9.400577261764278,9.723103344048015 0 0 0 9.395018079468734,-9.717353430775367 V24.59338483951412 A9.400577261764278,9.723103344048015 0 0 0 53.35608221335045,14.876031408741067 zM-56.09309882131305,18.762972781053428 H53.35608221335045 a5.642570029976782,5.836161971737865 0 0 1 5.63701084768124,5.830412058465218 V92.5918592018512 H-61.73010966900004 V24.59338483951412 A5.642570029976782,5.836161971737865 0 0 1 -56.09309882131305,18.762972781053428 zm68.01103620368075,110.2833365693914 a11.457474711115417,11.850571254927823 0 0 0 2.8852156113871414,4.996674633931241 H-17.540169601720816 a11.463033893410959,11.85632116820047 0 0 0 2.8852156113871414,-4.996674633931241 l2.55722385595007,-9.251610455690862 h21.458443660798405 zm41.4381448309822,-13.138551828001008 H-56.09309882131305 A5.642570029976782,5.836161971737865 0 0 1 -61.73010966900004,110.07734546397516 V96.47880057416356 H58.993093061027345 v13.59854488981286 A5.642570029976782,5.836161971737865 0 0 1 53.35608221335045,115.9077575224411 z" stroke="#242424" stroke-opacity="1"/>
      <path id="Path_767" data-name="Path 767" d="M-56.09310280815765,88.71067458627712 H53.35607822650584 a1.8790036158937484,1.9434706861550757 0 0 0 1.8790036158937484,-1.9434706861550757 V24.593391682978602 a1.8790036158937484,1.9434706861550757 0 0 0 -1.8790036158937484,-1.9434706861550757 H-56.09310280815765 a1.8790036158937484,1.9434706861550757 0 0 0 -1.8790036158937484,1.9434706861550757 v27.202839692898365 a1.8790036158937484,1.9434706861550757 0 1 0 3.7580072317874955,0 V26.536862369137392 H51.47707461061358 V84.82373321396999 H-54.21409919226538 V59.56436420722652 a1.8790036158937484,1.9434706861550757 0 1 0 -3.7580072317874955,0 v27.202839692898365 A1.8790036158937484,1.9434706861550757 0 0 0 -56.09310280815765,88.71067458627712 z" stroke="#242424" stroke-opacity="1"/>
      <path id="Path_768" data-name="Path 768" d="M-1.368484552599579,100.36580792448241 a5.63701084768124,5.830412058465218 0 1 0 5.63701084768124,5.830412058465218 A5.642570029976782,5.836161971737865 0 0 0 -1.368484552599579,100.36580792448241 zm0,7.773882744620289 a1.8790036158937484,1.9434706861550757 0 1 1 1.8790036158937484,-1.9434706861550757 A1.8790036158937484,1.9434706861550757 0 0 1 -1.368484552599579,108.1396906691019 z" stroke="#242424" stroke-opacity="1"/>
    </g>
    <g id="settings" stroke="#242424" stroke-opacity="1">
      <g id="Group_748" data-name="Group 748" stroke="#242424" stroke-opacity="1">
        <g id="Group_747" data-name="Group 747" stroke="#242424" stroke-opacity="1">
          <path id="Path_769" data-name="Path 769" d="M23.11660609895757,49.6568525042143 h-3.8358357839251083 A21.013709077154914,21.734672170609986 0 0 0 16.684632183007714,43.19969989902754 l2.71288096022529,-2.805957677052296 a0.8171997974449148,0.8452372510792783 0 0 0 0,-1.195981960710815 L13.638200285056099,33.22935028425872 a0.8171997974449148,0.8452372510792783 0 0 0 -1.1563099174730755,0 L9.769009407358205,36.023808134765005 A20.991472347972735,21.71167251751939 0 0 0 3.5260476894649724,33.36159828953042 V29.394158131400275 A0.8171997974449148,0.8452372510792783 0 0 0 2.708847892015376,28.54892088032137 H-5.4520317178468645 a0.8171997974449148,0.8452372510792783 0 0 0 -0.8171997974449148,0.8452372510792783 v3.9674401581272245 A20.985913165677193,21.70592260424674 0 0 0 -12.512193233179605,36.023808134765005 L-15.225074193411515,33.22935028425872 a0.8171997974449148,0.8452372510792783 0 0 0 -1.1563099174730755,0 L-22.151815333654355,39.197760261264946 a0.8171997974449148,0.8452372510792783 0 0 0 0,1.195981960710815 l2.71288096022529,2.805957677052296 A21.013709077154914,21.734672170609986 0 0 0 -22.023954140861136,49.6568525042143 H-25.85978992477895 A0.8171997974449148,0.8452372510792783 0 0 0 -26.676989722228562,50.5020897552932 V58.94296243953979 a0.8171997974449148,0.8452372510792783 0 0 0 0.8171997974449148,0.8452372510792783 h3.8358357839251083 A21.013709077154914,21.734672170609986 0 0 0 -19.450052738025903,66.24535229580022 l-2.7184401425208344,2.805957677052296 a0.8171997974449148,0.8452372510792783 0 0 0 0,1.195981960710815 L-16.381384110877462,76.21570191057427 a0.8394365266270888,0.8682369041698705 0 0 0 1.1563099174730755,0 L-12.512193233179605,73.39824440697794 a21.013709077154914,21.734672170609986 0 0 0 6.2429617178954935,2.673709671781387 v3.9674401581272245 a0.8171997974449148,0.8452372510792783 0 0 0 0.8171997974449148,0.8452372510792783 H2.708847892015376 a0.8171997974449148,0.8452372510792783 0 0 0 0.8171997974449148,-0.8452372510792783 v-3.9674401581272245 A21.013709077154914,21.734672170609986 0 0 0 9.769009407358205,73.39824440697794 l2.71288096022529,2.805957677052296 a0.8171997974449148,0.8452372510792783 0 0 0 1.1563099174730755,0 L19.40863150783299,70.24154202029422 a0.8171997974449148,0.8452372510792783 0 0 0 0,-1.195981960710815 L16.684632183007714,66.23960238253161 a21.00814989485937,21.728922257337334 0 0 0 2.585019767427787,-6.451402691911218 h3.8358357839251083 A0.8171997974449148,0.8452372510792783 0 0 0 23.91156916722047,58.94296243953979 V50.5020897552932 A0.8171997974449148,0.8452372510792783 0 0 0 23.11660609895757,49.6568525042143 zM22.299406301507936,58.09772518846089 H18.630345986449974 a0.8171997974449148,0.8452372510792783 0 0 0 -0.8005222505582826,0.6727398528998336 a19.395987029151716,20.061447408269373 0 0 1 -2.857419699909425,7.118392631538401 a0.8171997974449148,0.8452372510792783 0 0 0 0.10562446361532905,1.0637339554399077 l2.6016973143144186,2.690959411599331 l-4.619680487596759,4.778177929570611 L10.458348012004494,71.73076955791018 a0.8171997974449148,0.8452372510792783 0 0 0 -1.0284487246755718,-0.10924835218031487 a19.395987029151716,20.061447408269373 0 0 1 -6.882267681883011,2.955455422141146 a0.8171997974449148,0.8452372510792783 0 0 0 -0.6504243285786053,0.8279875112613329 V79.20565681235382 H-4.634831920397268 V75.41071405240166 a0.8171997974449148,0.8452372510792783 0 0 0 -0.6504243285786053,-0.8279875112613329 a19.395987029151716,20.061447408269373 0 0 1 -6.882267681883011,-2.955455422141146 a0.8171997974449148,0.8452372510792783 0 0 0 -1.0284487246755718,0.10924835218031487 l-2.6016973143144186,2.690959411599331 l-4.619680487596759,-4.778177929570611 l2.6016973143144186,-2.690959411599331 a0.8171997974449148,0.8452372510792783 0 0 0 0.10562446361532905,-1.0637339554399077 A19.395987029151716,20.061447408269373 0 0 1 -20.561889197128565,58.776214954630404 a0.8171997974449148,0.8452372510792783 0 0 0 -0.8005222505582826,-0.6784897661724817 H-25.042590127339466 V51.347327006372105 H-21.373529812281483 A0.8171997974449148,0.8452372510792783 0 0 0 -20.561889197128565,50.66883724019735 a19.395987029151716,20.061447408269373 0 0 1 2.857419699909425,-7.118392631538401 a0.8171997974449148,0.8452372510792783 0 0 0 -0.10562446361532905,-1.0637339554399077 l-2.6016973143144186,-2.690959411599331 l4.619680487596759,-4.778177929570611 l2.6016973143144186,2.690959411599331 a0.8171997974449148,0.8452372510792783 0 0 0 1.0284487246755718,0.10924835218031487 A19.401546211447265,20.06719732154202 0 0 1 -5.290815431273604,34.87382548023641 A0.8171997974449148,0.8452372510792783 0 0 0 -4.634831920397268,34.0343381424261 V30.239395382479174 H1.8916480945657774 V34.0343381424261 a0.8171997974449148,0.8452372510792783 0 0 0 0.6504243285786053,0.8279875112613329 a19.401546211447265,20.06719732154202 0 0 1 6.882267681883011,2.955455422141146 a0.8171997974449148,0.8452372510792783 0 0 0 1.0284487246755718,-0.10924835218031487 l2.6016973143144186,-2.690959411599331 l4.619680487596759,4.778177929570611 l-2.6016973143144186,2.690959411599331 a0.8171997974449148,0.8452372510792783 0 0 0 -0.10562446361532905,1.0637339554399077 a19.395987029151716,20.061447408269373 0 0 1 2.857419699909425,7.118392631538401 a0.8171997974449148,0.8452372510792783 0 0 0 0.8005222505582826,0.6727398528998336 H22.299406301507936 z" stroke="#242424" stroke-opacity="1"/>
        </g>
      </g>
      <g id="Group_750" data-name="Group 750" stroke="#242424" stroke-opacity="1">
        <g id="Group_749" data-name="Group 749" stroke="#242424" stroke-opacity="1">
          <path id="Path_770" data-name="Path 770" d="M-1.3715917114525187,45.43641637046366 a8.97807940730296,9.286109935326753 0 1 0 8.97807940730296,9.286109935326753 A8.97807940730296,9.286109935326753 0 0 0 -1.3715917114525187,45.43641637046366 zm0,16.8874952817676 a7.349238994708677,7.601385346440845 0 1 1 7.349238994708677,-7.601385346440845 A7.349238994708677,7.601385346440845 0 0 1 -1.3715917114525187,62.32391165223068 z" stroke="#242424" stroke-opacity="1"/>
        </g>
      </g>
    </g>
  </g><path fill="#242424" fill-opacity="1" stroke="#04b804" stroke-opacity="1" stroke-width="2" stroke-dasharray="none" stroke-linejoin="round" stroke-linecap="butt" stroke-dashoffset="" fill-rule="nonzero" opacity="1" marker-start="" marker-mid="" marker-end="" d="M9.020642713416123,8.433872934329685L9.847088968352978,8.433872934329685" id="svg_1" class=""/></g></svg>