<svg xmlns="http://www.w3.org/2000/svg" width="22.666" height="27.199" viewBox="0 0 22.666 27.199">
  <g id="stop" transform="translate(-42.667)">
    <g id="Group_527" data-name="Group 527" transform="translate(42.667)">
      <g id="Group_526" data-name="Group 526" transform="translate(0)">
        <path id="Path_711" data-name="Path 711" d="M58.176,99.752a.567.567,0,1,0-.418,1.054,10.2,10.2,0,1,1-7.515,0,.567.567,0,0,0-.418-1.054,11.333,11.333,0,1,0,8.351,0Z" transform="translate(-42.667 -94.415)"/>
        <path id="Path_712" data-name="Path 712" d="M245.9,14.166a.566.566,0,0,0,.567-.567V.567a.567.567,0,1,0-1.133,0V13.6A.566.566,0,0,0,245.9,14.166Z" transform="translate(-234.567)"/>
      </g>
    </g>
  </g>
</svg>
