<svg xmlns="http://www.w3.org/2000/svg" width="37.517" height="42.06" viewBox="0 0 37.517 42.06">
  <path id="view-log-b9ba697e11a674730ce8a880f0191508" d="M98.174,13.144H85.03V2.629h2.629v7.886H98.174ZM93.861,30.971l7.656,7.656L99.844,40.3l-7.656-7.656ZM89.573,34.7a6.309,6.309,0,1,1,6.309-6.309A6.581,6.581,0,0,1,89.573,34.7Zm0-9.989a3.68,3.68,0,1,0,3.68,3.68A3.76,3.76,0,0,0,89.573,24.71ZM87.659,42.06H69.068C65.914,42.06,64,39.168,64,35.751V5.307C64,2.245,65.914,0,69.068,0H87.207l13.6,10.252V26.288H98.174V11.3L86.418,2.629H69.068c-1.84,0-2.439,1.385-2.439,2.852V36.014c0,1.84.6,3.417,2.439,3.417H87.659ZM69.258,7.886H79.773v2.629H69.258Zm0,5.258H82.4v2.629H69.258Zm0,5.258H85.03V21.03H69.258Z" transform="translate(-64)"/>
</svg>
