<svg xmlns="http://www.w3.org/2000/svg" width="25.986" height="25.998" viewBox="0 0 25.986 25.998">
  <g id="Approve" transform="translate(2235.167 -254.832)">
    <path id="Path_691" data-name="Path 691" d="M-2159.176,302.886c0,.74.01,1.428,0,2.116-.006.292-.1.57-.48.506s-.355-.365-.316-.643a8.873,8.873,0,0,0-.226-3.383,1.173,1.173,0,0,0-1.414-.968c0,.7,0,1.4,0,2.108,0,.6.017,1.21.022,1.814,0,.281-.057.548-.407.539s-.4-.273-.4-.554c-.019-1.4-.022-2.794-.064-4.191a.906.906,0,0,0-1.361-.844.676.676,0,0,0-.39.7c-.033,1.569-.074,3.138-.113,4.707,0,.1.028.229-.022.3a3.368,3.368,0,0,1-.4.391c-.13-.144-.336-.271-.373-.436a3.716,3.716,0,0,1,.009-.816q.053-4.428.1-8.857a5.012,5.012,0,0,0-.091-1.116c-.04-.181-.231-.444-.378-.461a.463.463,0,0,0-.579.466q-.254,3.467-.549,6.931c-.172,1.978-.375,3.954-.568,5.93-.014.141-.025.327-.114.4-.11.1-.355.182-.443.123a.587.587,0,0,1-.254-.465,1.437,1.437,0,0,0-.366-1.417,2.129,2.129,0,0,1-.321-.655,3.8,3.8,0,0,0-2.143-2.076,1.223,1.223,0,0,0-.587-.1.554.554,0,0,0-.466.847,2.974,2.974,0,0,0,.4.612,9.019,9.019,0,0,1,1.7,3.36,22.066,22.066,0,0,0,.972,2.436c.288.658.677,1.276.926,1.947a4.511,4.511,0,0,0,1.854,2.2c.108.072.217.141.324.214.229.156.359.352.179.616-.169.247-.393.2-.607.058a5.677,5.677,0,0,1-2.412-2.618c-.474-1.171-1.09-2.282-1.606-3.437a10.779,10.779,0,0,1-.494-1.516,6.993,6.993,0,0,0-1.32-2.6,6.851,6.851,0,0,1-.524-.739,1.313,1.313,0,0,1-.036-1.609,1.444,1.444,0,0,1,1.657-.539,4.384,4.384,0,0,1,2.834,2.413,1.225,1.225,0,0,0,.306.452c.079-.762.176-1.523.232-2.286.2-2.685.38-5.37.571-8.056.014-.2.05-.4.076-.6a1.319,1.319,0,0,1,1.781-1.061,1.077,1.077,0,0,1,.74,1.02c.061,1.308.089,2.618.128,3.927.006.2,0,.4,0,.629,1.115-.23,2.046-.125,2.491,1.049,1.65.169,1.992.5,2.445,2.343.214.053.44.094.655.166a2.112,2.112,0,0,1,1.434,2.1q.177,2.909.276,5.823a12.379,12.379,0,0,1-1.142,4.927c-.09.23-.263.41-.536.3s-.3-.344-.213-.612c.321-1,.685-1.986.936-3a14.326,14.326,0,0,0,.073-4.088q-.063-1.488-.171-2.975a4.45,4.45,0,0,0-.173-1.016A1.112,1.112,0,0,0-2159.176,302.886Z" transform="translate(-56.86 -34.695)" stroke="#000" stroke-width="0.3"/>
    <path id="Path_692" data-name="Path 692" d="M-2222.185,254.982h10.548a2.058,2.058,0,0,1,2.305,2.322q0,3.545,0,7.089a2.015,2.015,0,0,1-2.188,2.22c-1.08.014-2.161,0-3.242,0-.289,0-.6-.021-.593-.395,0-.347.279-.419.586-.418q1.643.009,3.285,0a1.2,1.2,0,0,0,1.353-1.364q.008-3.631,0-7.262a1.243,1.243,0,0,0-1.419-1.4q-10.634,0-21.268,0a1.241,1.241,0,0,0-1.4,1.417q-.007,3.61,0,7.219c0,.956.444,1.389,1.414,1.39q3.393,0,6.787,0c.129,0,.292-.042.381.02a.767.767,0,0,1,.341.42c.014.1-.2.263-.345.351-.085.053-.225.019-.34.019q-3.35,0-6.7,0a2.052,2.052,0,0,1-2.336-2.333q0-3.545,0-7.089a2.024,2.024,0,0,1,2.2-2.21Q-2227.5,254.978-2222.185,254.982Z" stroke="#000" stroke-width="0.3"/>
  </g>
</svg>
