<svg xmlns="http://www.w3.org/2000/svg" width="46" height="46" viewBox="0 0 46 46">
  <g id="Group_191" data-name="Group 191" transform="translate(-139 -156)">
    <circle id="Ellipse_22" data-name="Ellipse 22" cx="23" cy="23" r="23" transform="translate(139 156)" fill="#0062cf"/>
    <path id="iconfinder_hierarchy_4177615" d="M25.3,19.921h-.9V17.233a1.792,1.792,0,0,0-1.792-1.792H15.441V12.753h2.688a1.792,1.792,0,0,0,1.792-1.792V3.792A1.792,1.792,0,0,0,18.129,2H10.961A1.792,1.792,0,0,0,9.169,3.792v7.169a1.792,1.792,0,0,0,1.792,1.792h2.688v2.688H6.48a1.792,1.792,0,0,0-1.792,1.792v2.688h-.9A1.792,1.792,0,0,0,2,21.713V25.3A1.792,1.792,0,0,0,3.792,27.09H7.376A1.792,1.792,0,0,0,9.169,25.3V21.713a1.792,1.792,0,0,0-1.792-1.792h-.9V17.233h7.169v2.688h-.9a1.792,1.792,0,0,0-1.792,1.792V25.3a1.792,1.792,0,0,0,1.792,1.792h3.584A1.792,1.792,0,0,0,18.129,25.3V21.713a1.792,1.792,0,0,0-1.792-1.792h-.9V17.233h7.169v2.688h-.9a1.792,1.792,0,0,0-1.792,1.792V25.3a1.792,1.792,0,0,0,1.792,1.792H25.3A1.792,1.792,0,0,0,27.09,25.3V21.713A1.792,1.792,0,0,0,25.3,19.921ZM10.961,3.792h7.169v7.169H10.961ZM7.376,25.3H3.792V21.713H7.376Zm8.961,0H12.753V21.713h3.584Zm8.961,0H21.713V21.713H25.3Z" transform="translate(147.688 163.089)" fill="#fff"/>
  </g>
</svg>
