<svg xmlns="http://www.w3.org/2000/svg" width="18.971" height="18.97" viewBox="0 0 18.971 18.97">
  <g id="Edit-normal" transform="translate(-1435.41 -115.279)">
    <path id="Path_516" data-name="Path 516" d="M120.412.971a3.3,3.3,0,0,0-4.669,0L104.385,12.328a.872.872,0,0,0-.208.337l-1.725,5.174a.862.862,0,0,0,.817,1.135.876.876,0,0,0,.272-.044l5.174-1.725a.863.863,0,0,0,.337-.209L120.412,5.639A3.3,3.3,0,0,0,120.412.971Zm-1.22,3.45-11.21,11.21-3.349,1.118,1.115-3.345,11.214-11.21a1.576,1.576,0,1,1,2.23,2.226Z" transform="translate(1333.002 115.275)"/>
  </g>
</svg>
