<svg id="Layer_1" data-name="Layer 1" xmlns="http://www.w3.org/2000/svg" viewBox="0 0 32 32"><defs><style>.cls-1{fill:#bababa;stroke:#bababa;stroke-width:0.6px;}</style></defs><path class="cls-1" d="M10.6,26.39a.66.66,0,0,1,.25,0c.22.07.43.16.64.25a5.89,5.89,0,0,0,.58.24.75.75,0,0,1,.6.83c0,.52,0,1.05,0,1.57v.08A1.22,1.22,0,0,0,14,30.7h3.85a1.22,1.22,0,0,0,1.31-1.29c0-.28,0-.55,0-.83v-.37c0-1,.07-1.08,1-1.44l.27-.12a3.46,3.46,0,0,1,.56-.23,1,1,0,0,1,.78.16c.26.22.49.46.73.7s.36.37.55.54a1.27,1.27,0,0,0,1.82,0c1-1,1.95-1.93,2.78-2.79a1.24,1.24,0,0,0,0-1.78l-.15-.15a7.13,7.13,0,0,0-.83-.82,1,1,0,0,1-.26-1.54,2.73,2.73,0,0,0,.3-.75.76.76,0,0,1,.88-.63c.66,0,1.17,0,1.65,0a1.21,1.21,0,0,0,1.28-1.24c0-1.35,0-2.69,0-4a1.2,1.2,0,0,0-1.32-1.22H26.94l-.28-.67c-.15-.36-.29-.72-.46-1.07a.73.73,0,0,1,.18-1c.42-.39.83-.79,1.21-1.2a1.22,1.22,0,0,0,.06-1.74c-.91-1-1.89-1.94-2.89-2.9A1.26,1.26,0,0,0,23,4.45l-.21.21c-.26.25-.53.51-.76.78a1,1,0,0,1-1.42.25,3.68,3.68,0,0,0-.9-.36.74.74,0,0,1-.57-.81q0-.9,0-1.65a1.23,1.23,0,0,0-1.34-1.32c-1.28,0-2.56,0-3.85,0a1.22,1.22,0,0,0-1.27,1.27c0,.57,0,1.14,0,1.71a.74.74,0,0,1-.57.8,6.34,6.34,0,0,0-1.16.48.72.72,0,0,1-1-.17c-.28-.3-.57-.59-.87-.88l-.23-.23a1.29,1.29,0,0,0-2,0C6,5.37,5.14,6.22,4.3,7.07a1.31,1.31,0,0,0,0,2.07l.94.91.56.53-.13.33-.07.15c-.07.16-.13.34-.2.52a2.14,2.14,0,0,1-.74,1.21,2.26,2.26,0,0,1-1.42.15,5.3,5.3,0,0,0-.57,0,1.24,1.24,0,0,0-1.38,1.36q0,1.85,0,3.69a1.27,1.27,0,0,0,1.36,1.41H4.28a.74.74,0,0,1,.81.55,7.85,7.85,0,0,0,.49,1.17.75.75,0,0,1-.19,1c-.39.36-.77.75-1.14,1.13a1.26,1.26,0,0,0,0,1.92l2.65,2.65a1.29,1.29,0,0,0,2,0l.43-.43c.26-.26.51-.51.77-.75A.91.91,0,0,1,10.6,26.39Zm7.54,3.32H13.65V27.06c0-.67,0-.67-.68-.9s-1.38-.54-2.17-.91c-.53-.26-.62-.24-1,.14L8.66,26.52,8,27.25,4.76,24.07l.71-.7,1.18-1.16c.35-.36.37-.48.14-1a22.82,22.82,0,0,1-1-2.32c-.14-.42-.3-.54-.69-.54-.57,0-1.14,0-1.73,0H2.33V13.9H4.87c.76,0,.76,0,1-.75A19.93,19.93,0,0,1,6.81,11a.65.65,0,0,0-.11-.89L5.47,8.86l-.71-.71L7.93,5l.73.73L9.81,6.87c.37.37.46.38,1,.13.7-.33,1.46-.64,2.27-.93.5-.19.56-.26.57-.74s0-.9,0-1.34V2.93l.14-.3L14,2.57h4.12V5.26c0,.6,0,.6.64.83s1.4.55,2.26,1a.65.65,0,0,0,.88-.12l1.22-1.24L23.85,5,27,8.16l-.73.72-1.17,1.18c-.35.35-.36.44-.12,1,.34.73.66,1.49.93,2.26.19.53.25.59.78.6h2.75v4.49H26.72c-.55,0-.58,0-.79.62s-.56,1.43-.95,2.26c-.22.48-.21.58.14.92s.82.82,1.23,1.21l.67.66-3.21,3.22-.63-.65c-.35-.36-.71-.75-1.09-1.13s-.51-.52-1.24-.17a18.45,18.45,0,0,1-2.09.85c-.59.2-.62.22-.62.84Z"/><path class="cls-1" d="M19.3,23l.66.75.66-.58c.77-.67,1.53-1.33,2.28-2a.46.46,0,0,0,.16-.34.41.41,0,0,0-.14-.31c-.74-.67-1.5-1.34-2.27-2L20,17.9l-.66.75,1.9,1.68H15.87A4.08,4.08,0,0,1,13,19.14a4.3,4.3,0,0,1-1.28-2.68h-1a5.11,5.11,0,0,0,4.39,4.78,25.58,25.58,0,0,0,2.63.09h1.13c.31,0,.63,0,1,0h1.34Z"/><path class="cls-1" d="M20.09,15.83h1a5.18,5.18,0,0,0-5-4.87H10.58l1.9-1.7-.66-.74-.7.61c-.74.65-1.47,1.28-2.18,1.93a.51.51,0,0,0-.21.38.65.65,0,0,0,.24.44l1,.91,1.83,1.59.65-.75-1.87-1.67h2.26c1.18,0,2.3,0,3.43,0a3.64,3.64,0,0,1,2.29,1A4.28,4.28,0,0,1,20.09,15.83Z"/></svg>