<svg id="Layer_1" data-name="Layer 1" xmlns="http://www.w3.org/2000/svg" viewBox="0 0 32 32"><defs><style>.cls-1{fill:#ccc;stroke-width:0.4px;}.cls-1,.cls-2{stroke:#ccc;}.cls-2{fill:none;stroke-width:0.7px;}</style></defs><path class="cls-1" d="M20.81,24.09h0a.75.75,0,0,1,.53.3l.08.09.36.37A1.6,1.6,0,0,0,24,25a11.94,11.94,0,0,0,1.42-1.36,1.64,1.64,0,0,0,.26-2.05,4.79,4.79,0,0,0-.71-.81l-.21-.21a.6.6,0,0,1-.14-.75c.12-.28.24-.57.35-.86s.29-.71.44-1.06A.86.86,0,0,1,26,17.5c.21,0,.42-.06.63-.08s.44,0,.65-.08a1.72,1.72,0,0,0,1.43-1.67c0-.57,0-1.13,0-1.65a1.85,1.85,0,0,0-.64-1.31,1.49,1.49,0,0,0-1.11-.41,3,3,0,0,1-.42,0h-.39a.73.73,0,0,1-.79-.54l-.24-.59c-.16-.39-.32-.78-.47-1.17l0-.07a.64.64,0,0,1,.1-.81l.23-.21.22-.21a1.92,1.92,0,0,0,.73-1.36A1.91,1.91,0,0,0,25.28,6c-.29-.3-.57-.6-.86-.89A1.78,1.78,0,0,0,22,4.69a4.84,4.84,0,0,0-.81.78.73.73,0,0,1-1,.16l-.06,0A12.74,12.74,0,0,0,18.84,5C18.16,4.81,18,4.65,18,3.9V3.58c0-.17,0-.33,0-.5a1.51,1.51,0,0,0-.52-1,1.49,1.49,0,0,0-1-.47c-.23,0-.45,0-.68,0h-.54a5.19,5.19,0,0,1-.56,0A1.51,1.51,0,0,0,13.44,2a1.85,1.85,0,0,0-.59,1.35,4.43,4.43,0,0,1,0,.89.73.73,0,0,1-.34.53c-.75.35-1.42.64-2,.89a.77.77,0,0,1-.69-.14,4,4,0,0,1-.42-.4Q9.19,5,9,4.83a1.69,1.69,0,0,0-2.3,0A10.36,10.36,0,0,0,5.52,6l0,0a1.69,1.69,0,0,0-.11,2.33A14.27,14.27,0,0,0,6.66,9.66,1,1,0,0,0,7,9.87a.52.52,0,0,0,.32-.27.59.59,0,0,0-.11-.46,7.63,7.63,0,0,0-.69-.71c-.14-.14-.29-.27-.42-.41A.89.89,0,0,1,6,6.68,12.68,12.68,0,0,1,7.25,5.39a1,1,0,0,1,1.3.11l.26.27c.26.28.54.57.83.83s.39.27.63.12a9.26,9.26,0,0,1,2.94-1.21c.34-.07.44-.16.44-.63V4.22c0-.27,0-.54,0-.82a.87.87,0,0,1,.86-1,13.66,13.66,0,0,1,1.81,0c.56,0,.84.38.85,1v.31c0,.36,0,.71,0,1.06s0,.62.66.78a8.23,8.23,0,0,1,2.43,1c.6.38.65.33.92.06s.71-.69,1.06-1A1.1,1.1,0,0,1,23,5.2h0a1.09,1.09,0,0,1,.75.35l.31.28a6.45,6.45,0,0,1,.59.58c.47.57.73,1,0,1.71-.26.25-.5.51-.75.77l-.18.19c-.27.29-.28.37-.07.73a9.14,9.14,0,0,1,1.16,2.85.52.52,0,0,0,.57.47h1.6a.86.86,0,0,1,.93.91c0,.52,0,1.05,0,1.57a.88.88,0,0,1-1,1H25.4a.57.57,0,0,0-.65.56,2.19,2.19,0,0,1-.16.58c-.34.78-.69,1.55-1.05,2.32-.12.25-.08.36,0,.47s.33.35.5.52l.48.49.08.08c.4.42.75.78.19,1.49a8.92,8.92,0,0,1-1.15,1.16,1,1,0,0,1-1.51-.17c-.32-.34-.65-.66-1-1L21.09,23a.59.59,0,0,0-.55,0l-.77.81-.05.05a.48.48,0,0,0-.09.65.57.57,0,0,0,.64-.15A.82.82,0,0,1,20.81,24.09Z"/><path class="cls-1" d="M4.85,18.55a.66.66,0,0,1,.48.17.75.75,0,0,1,.19.56c0,1.15,0,2.15,0,3.06a2.6,2.6,0,0,0,.18.92,2.35,2.35,0,0,0,2,1.44,20.27,20.27,0,0,0,2.7,0l.41,0a.36.36,0,0,0,.41-.32c0-.3-.07-.39-.25-.44l-.13,0a1.56,1.56,0,0,0-.32-.07H7.91a1.49,1.49,0,0,1-1.63-1.64c0-.45,0-.9,0-1.35v-.55h0V18.34A1.39,1.39,0,0,0,6.22,18a.88.88,0,0,0-1.06-.29,1.32,1.32,0,0,1-.48,0H4.25l0-.26v-.15a.89.89,0,0,1,.06-.45c.2-.43.41-.85.62-1.28l.6-1.22c.34-.68.68-1.36,1-2,0-.11.14-.29-.27-.53a.21.21,0,0,0-.14,0,.47.47,0,0,0-.26.21c-.35.64-.67,1.3-1,2-.25.49-.46.93-.68,1.37-.39.81-.79,1.61-1.2,2.41-.14.27-.17.49-.08.63s.27.2.56.21h.26c.35,0,.7,0,1,0Z"/><path class="cls-1" d="M17.09,27.92h1.67a.45.45,0,0,0,.33-.13.48.48,0,0,0,.12-.33c0-.17-.05-.34-.45-.34H13.17a.49.49,0,0,0-.35.11.49.49,0,0,0-.06.37c0,.21.23.33.53.33h3.8Z"/><path class="cls-1" d="M15.93,30.4h1.9c.43,0,.43-.25.43-.35a.41.41,0,0,0-.45-.42H14.07a.37.37,0,0,0-.26.12.41.41,0,0,0-.12.32c0,.27.21.33.38.33h1.86Z"/><path class="cls-1" d="M8.63,14.69a.39.39,0,0,0-.45.42.47.47,0,0,0,.12.34.41.41,0,0,0,.32.13h0A.52.52,0,0,0,9,15.45a.44.44,0,0,0,.13-.32.42.42,0,0,0-.46-.44Z"/><path class="cls-1" d="M20.86,15.58a.37.37,0,1,0,0,.74H22.1a.37.37,0,1,0,0-.74Z"/><path class="cls-1" d="M20.29,11.1h0a.39.39,0,0,0-.27.11l-.87.88a.37.37,0,0,0,.52.52l.88-.87a.39.39,0,0,0,0-.53A.36.36,0,0,0,20.29,11.1Z"/><path class="cls-1" d="M12.45,18.94a.4.4,0,0,0-.27.11l-.88.88a.35.35,0,0,0-.1.26.39.39,0,0,0,.1.27.39.39,0,0,0,.53,0l.88-.88a.39.39,0,0,0,0-.53A.38.38,0,0,0,12.45,18.94Z"/><path class="cls-1" d="M11.56,11.1a.36.36,0,0,0-.26.11.36.36,0,0,0,0,.52l.88.88a.37.37,0,0,0,.52,0,.36.36,0,0,0,.11-.26.4.4,0,0,0-.11-.27l-.88-.87A.36.36,0,0,0,11.56,11.1Z"/><path class="cls-1" d="M19.4,18.94a.34.34,0,0,0-.26.11.36.36,0,0,0,0,.52l.88.88a.37.37,0,0,0,.52,0,.36.36,0,0,0,0-.52l-.88-.88A.33.33,0,0,0,19.4,18.94Z"/><path class="cls-1" d="M15.92,9.29a.38.38,0,0,0-.37.37v1.25a.37.37,0,0,0,.74,0V9.66A.38.38,0,0,0,15.92,9.29Z"/><path class="cls-1" d="M15.92,20.38a.38.38,0,0,0-.37.37V22a.37.37,0,1,0,.74,0V20.75A.38.38,0,0,0,15.92,20.38Z"/><circle class="cls-2" cx="15.83" cy="15.83" r="2"/></svg>