<svg xmlns="http://www.w3.org/2000/svg" width="52.91" height="41.535" viewBox="0 0 52.91 41.535">
  <g id="ab" transform="translate(0 0)">
    <g id="Group_690" data-name="Group 690" transform="translate(0 0)">
      <path id="Path_817" data-name="Path 817" d="M24.284,31.065c2.21,0,4-2.563,4-4.773a4,4,0,0,0-8.007,0C20.279,28.5,22.072,31.065,24.284,31.065Z" transform="translate(-15.105 -22.289)"/>
      <path id="Path_818" data-name="Path 818" d="M17.017,60.461a1.635,1.635,0,0,0-.1-.325,1.507,1.507,0,0,0-.176-.243,1.69,1.69,0,0,0-.194-.229,1.58,1.58,0,0,0-.3-.183,1.749,1.749,0,0,0-.19-.113,25.1,25.1,0,0,0-6.258-1.344l-.4.8H9.383l1.064,8.3L9.181,69.344,7.916,67.129l1.064-8.3H8.969l-.4-.794a25.1,25.1,0,0,0-6.146,1.292l-.076.027c-.015.006-.035.012-.04.016-.032.012-.053.036-.083.05a1.544,1.544,0,0,0-.42.254,1.812,1.812,0,0,0-.144.174,1.592,1.592,0,0,0-.214.294,1.527,1.527,0,0,0-.1.314,1.19,1.19,0,0,0-.072.228L.011,72.079a1.583,1.583,0,0,0,1.4,1.746,1.141,1.141,0,0,0,.177.011,1.584,1.584,0,0,0,1.572-1.409L4.31,62.048c.135-.04.283-.086.439-.129V72.724L3.489,88.391A1.9,1.9,0,0,0,5.23,90.434c.051,0,.1.006.154.006a1.9,1.9,0,0,0,1.89-1.746l1.14-14.16a1.849,1.849,0,0,0,1.532,0l1.139,14.16a1.9,1.9,0,0,0,1.89,1.746c.051,0,.1,0,.155-.006a1.9,1.9,0,0,0,1.74-2.043L13.61,72.724V61.919c.158.043.306.09.441.129L15.2,72.427a1.581,1.581,0,0,0,1.572,1.409,1.757,1.757,0,0,0,.176-.011,1.581,1.581,0,0,0,1.4-1.746l-1.266-11.4A1.268,1.268,0,0,0,17.017,60.461Z" transform="translate(-0.001 -48.905)"/>
      <path id="Path_819" data-name="Path 819" d="M102.3,82.59H83.432a1.355,1.355,0,0,0,0,2.71H102.3a1.355,1.355,0,1,0,0-2.71Z" transform="translate(-61.134 -67.203)"/>
      <path id="Path_820" data-name="Path 820" d="M102.3,106.076H83.432a1.353,1.353,0,1,0,0,2.707H102.3a1.353,1.353,0,1,0,0-2.707Z" transform="translate(-61.134 -84.696)"/>
      <path id="Path_821" data-name="Path 821" d="M102.3,129.543H83.432a1.355,1.355,0,0,0,0,2.71H102.3a1.355,1.355,0,1,0,0-2.71Z" transform="translate(-61.134 -102.174)"/>
      <path id="Path_822" data-name="Path 822" d="M182.9,66.582l-1.326-.883-3.445,5.179-2.652-1.993-.954,1.271,4,3.007Z" transform="translate(-129.988 -54.622)"/>
      <path id="Path_823" data-name="Path 823" d="M184.375,104.593a1.731,1.731,0,1,1-1.731,1.73A1.73,1.73,0,0,1,184.375,104.593Z" transform="translate(-136.038 -83.591)"/>
      <path id="Path_824" data-name="Path 824" d="M184.375,128.064a1.731,1.731,0,1,1-1.731,1.731A1.73,1.73,0,0,1,184.375,128.064Z" transform="translate(-136.038 -101.073)"/>
    </g>
  </g>
</svg>
