<svg xmlns="http://www.w3.org/2000/svg" width="49.251" height="44.188" viewBox="0 0 49.251 44.188">
  <g id="alert" transform="translate(0 0)">
    <g id="Group_812" data-name="Group 812" transform="translate(0 0)">
      <g id="Group_811" data-name="Group 811" transform="translate(0 0)">
        <path id="Path_842" data-name="Path 842" d="M48.465,61.816,29.64,29.211a5.791,5.791,0,0,0-10.031,0L.785,61.816A5.791,5.791,0,0,0,5.8,70.5H43.45a5.791,5.791,0,0,0,5.015-8.687Zm-2.5,4.349a2.876,2.876,0,0,1-2.517,1.453H5.8a2.906,2.906,0,0,1-2.517-4.359L22.109,30.653a2.906,2.906,0,0,1,5.033,0L45.967,63.259A2.877,2.877,0,0,1,45.966,66.165Z" transform="translate(0 -26.315)"/>
      </g>
    </g>
    <g id="Group_814" data-name="Group 814" transform="translate(23.183 14.4)">
      <g id="Group_813" data-name="Group 813">
        <rect id="Rectangle_1057" data-name="Rectangle 1057" width="2.885" height="14.427"/>
      </g>
    </g>
    <g id="Group_816" data-name="Group 816" transform="translate(22.702 31.712)">
      <g id="Group_815" data-name="Group 815">
        <path id="Path_843" data-name="Path 843" d="M237.926,355.99a1.924,1.924,0,1,0,1.924,1.924A1.926,1.926,0,0,0,237.926,355.99Z" transform="translate(-236.002 -355.99)"/>
      </g>
    </g>
  </g>
</svg>
