<svg id="Group_38" data-name="Group 38" xmlns="http://www.w3.org/2000/svg" xmlns:xlink="http://www.w3.org/1999/xlink" width="30.163" height="30.17" viewBox="0 0 40.163 40.17">
  <defs>
    <clipPath id="clip">
      <use xlink:href="#fill"/>
    </clipPath>
  </defs>
  
  <g id="Path_167" data-name="Path 167" transform="translate(-2.975)" fill="#0062cf" stroke-linejoin="round">
    <path d="M 16.36328506469727 15.56534099578857 L 9.669384956359863 15.56534099578857 C 9.577574729919434 15.56534099578857 9.500004768371582 15.48777103424072 9.500004768371582 15.39595127105713 L 9.500004768371582 8.032670974731445 L 9.500004768371582 0.6693909764289856 C 9.500004768371582 0.5775709748268127 9.577574729919434 0.5000009536743164 9.669384956359863 0.5000009536743164 L 16.36328506469727 0.5000009536743164 C 16.4550952911377 0.5000009536743164 16.53266525268555 0.5775709748268127 16.53266525268555 0.6693909764289856 L 16.53266525268555 15.39595127105713 C 16.53266525268555 15.48777103424072 16.4550952911377 15.56534099578857 16.36328506469727 15.56534099578857 Z M 9.838774681091309 0.8387809991836548 L 9.838774681091309 1.338780999183655 L 9.838774681091309 14.72656059265137 L 9.838774681091309 15.22656059265137 L 10.33877468109131 15.22656059265137 L 15.6938943862915 15.22656059265137 L 16.19389533996582 15.22656059265137 L 16.19389533996582 14.72656059265137 L 16.19389533996582 1.338780999183655 L 16.19389533996582 0.8387809991836548 L 15.6938943862915 0.8387809991836548 L 10.33877468109131 0.8387809991836548 L 9.838774681091309 0.8387809991836548 Z" stroke="none"/>
    <path d="M 16.36328506469727 16.06534004211426 L 9.669384956359863 16.06534004211426 C 9.301224708557129 16.06534004211426 9.000004768371582 15.76411056518555 9.000004768371582 15.39595127105713 L 9.000004768371582 8.032670974731445 L 9.000004768371582 0.6693909764289856 C 9.000004768371582 0.3012209832668304 9.301224708557129 9.747313924890477e-07 9.669384956359863 9.747313924890477e-07 L 16.36328506469727 9.747313924890477e-07 C 16.7314453125 9.747313924890477e-07 17.03266525268555 0.3012209832668304 17.03266525268555 0.6693909764289856 L 17.03266525268555 15.39595127105713 C 17.03266525268555 15.76411056518555 16.7314453125 16.06534004211426 16.36328506469727 16.06534004211426 Z M 10.33877468109131 1.338780999183655 L 10.33877468109131 14.72656059265137 L 15.6938943862915 14.72656059265137 L 15.6938943862915 1.338780999183655 L 10.33877468109131 1.338780999183655 Z" stroke="none" fill="#0062cf"/>
  </g>
  <g id="Rectangle_15" data-name="Rectangle 15" transform="translate(3.082 31.188)" fill="#0062cf" stroke="#0062cf" stroke-linejoin="round" stroke-width="1">
    <rect id="fill" width="4" stroke="none"/>
    <path d="M0,-0.49998999999479565h4M3.5,0v0.000010000005204346962M4,0.5h-4M0.5,0.000010000005204346962v-0.000010000005204346962" fill="none" clip-path="url(#clip)"/>
  </g>
  <g id="Rectangle_16" data-name="Rectangle 16" transform="translate(3.082 34.188)" fill="#0062cf" stroke="#0062cf" stroke-linejoin="round" stroke-width="1">
    <rect width="4" height="1" stroke="none"/>
    <rect x="0.5" y="0.5" width="3" fill="none"/>
  </g>
  <g id="Rectangle_17" data-name="Rectangle 17" transform="translate(3.082 36.188)" fill="#0062cf" stroke="#0062cf" stroke-linejoin="round" stroke-width="1">
    <rect width="4" height="2" stroke="none"/>
    <rect x="0.5" y="0.5" width="3" height="1" fill="none"/>
  </g>
  <g id="Path_168" data-name="Path 168" transform="translate(0 -2.741)" fill="#0062cf" stroke-linejoin="round">
    <path d="M 8.702064514160156 42.40411758422852 L 0.6693942546844482 42.40411758422852 C 0.5775742530822754 42.40411758422852 0.5000042319297791 42.3265495300293 0.5000042319297791 42.2347297668457 L 0.5000042319297791 31.52449989318848 C 0.5000042319297791 31.43268013000488 0.5775742530822754 31.35511016845703 0.6693942546844482 31.35511016845703 L 4.016334056854248 31.35511016845703 L 4.516334056854248 31.35511016845703 L 4.516334056854248 30.85511016845703 L 4.516334056854248 23.49182891845703 L 4.516334056854248 22.99182891845703 L 4.016334056854248 22.99182891845703 L 0.6693942546844482 22.99182891845703 C 0.5775742530822754 22.99182891845703 0.5000042319297791 22.91425895690918 0.5000042319297791 22.82243919372559 L 0.5000042319297791 10.77343940734863 C 0.5000042319297791 10.68161964416504 0.5775742530822754 10.60404968261719 0.6693942546844482 10.60404968261719 L 3.741884231567383 10.60404968261719 L 4.955594062805176 10.60404968261719 L 4.094074249267578 9.749138832092285 L 3.580151796340942 9.239161491394043 L 3.822214365005493 8.997098922729492 L 5.470978260040283 10.64586353302002 C 5.506500720977783 10.68455123901367 5.5245041847229 10.72745132446289 5.5245041847229 10.77343940734863 C 5.5245041847229 10.80415916442871 5.516234397888184 10.84904956817627 5.476814270019531 10.88846969604492 L 3.822217464447021 12.54306602478027 L 3.585484027862549 12.30633544921875 L 4.095444202423096 11.7963695526123 L 4.948984146118164 10.94281959533691 L 3.741884231567383 10.94281959533691 L 1.33877420425415 10.94281959533691 L 0.8387742638587952 10.94281959533691 L 0.8387742638587952 11.44281959533691 L 0.8387742638587952 22.15304946899414 L 0.8387742638587952 22.65304946899414 L 1.33877420425415 22.65304946899414 L 4.685724258422852 22.65304946899414 C 4.777544021606445 22.65304946899414 4.855114459991455 22.73061943054199 4.855114459991455 22.82243919372559 L 4.855114459991455 30.85511016845703 L 4.855114459991455 31.35511016845703 L 5.355114459991455 31.35511016845703 L 8.702064514160156 31.35511016845703 C 8.79387378692627 31.35511016845703 8.871444702148438 31.43268013000488 8.871444702148438 31.52449989318848 L 8.871444702148438 42.2347297668457 C 8.871444702148438 42.3265495300293 8.79387378692627 42.40411758422852 8.702064514160156 42.40411758422852 Z M 0.8387742638587952 31.69388961791992 L 0.8387742638587952 32.19388961791992 L 0.8387742638587952 41.56533813476563 L 0.8387742638587952 42.06533813476563 L 1.33877420425415 42.06533813476563 L 8.032673835754395 42.06533813476563 L 8.532673835754395 42.06533813476563 L 8.532673835754395 41.56533813476563 L 8.532673835754395 32.19388961791992 L 8.532673835754395 31.69388961791992 L 8.032673835754395 31.69388961791992 L 1.33877420425415 31.69388961791992 L 0.8387742638587952 31.69388961791992 Z" stroke="none"/>
    <path d="M 8.702064514160156 42.90411758422852 L 0.6693942546844482 42.90411758422852 C 0.3012242615222931 42.90411758422852 4.258422904968029e-06 42.60289001464844 4.258422904968029e-06 42.2347297668457 L 4.258422904968029e-06 31.52449989318848 C 4.258422904968029e-06 31.15633010864258 0.3012242615222931 30.85511016845703 0.6693942546844482 30.85511016845703 L 4.016334056854248 30.85511016845703 L 4.016334056854248 23.49182891845703 L 0.6693942546844482 23.49182891845703 C 0.3012242615222931 23.49182891845703 4.258422904968029e-06 23.19060897827148 4.258422904968029e-06 22.82243919372559 L 4.258422904968029e-06 10.77343940734863 C 4.258422904968029e-06 10.40526962280273 0.3012242615222931 10.10404968261719 0.6693942546844482 10.10404968261719 L 3.741884231567383 10.10404968261719 L 2.871684312820435 9.24052906036377 L 3.822214365005493 8.289999008178711 L 5.830384254455566 10.29816913604736 C 5.957564353942871 10.43204879760742 6.0245041847229 10.59938907623291 6.0245041847229 10.77343940734863 C 6.0245041847229 10.94747924804688 5.957564353942871 11.11481952667236 5.830384254455566 11.24200916290283 L 3.822214365005493 13.250168800354 L 2.878374338150024 12.30633926391602 L 3.741884231567383 11.44281959533691 L 1.33877420425415 11.44281959533691 L 1.33877420425415 22.15304946899414 L 4.685724258422852 22.15304946899414 C 5.053884029388428 22.15304946899414 5.355114459991455 22.45426940917969 5.355114459991455 22.82243919372559 L 5.355114459991455 30.85511016845703 L 8.702064514160156 30.85511016845703 C 9.070223808288574 30.85511016845703 9.371444702148438 31.15633010864258 9.371444702148438 31.52449989318848 L 9.371444702148438 42.2347297668457 C 9.371444702148438 42.60289001464844 9.070223808288574 42.90411758422852 8.702064514160156 42.90411758422852 Z M 1.33877420425415 32.19388961791992 L 1.33877420425415 41.56533813476563 L 8.032673835754395 41.56533813476563 L 8.032673835754395 32.19388961791992 L 1.33877420425415 32.19388961791992 Z" stroke="none" fill="#0062cf"/>
  </g>
  <g id="Path_169" data-name="Path 169" transform="translate(-15.869 -14.216)" fill="#0062cf" stroke-linejoin="round">
    <path d="M 55.36328125 53.87962341308594 L 48.66939163208008 53.87962341308594 C 48.57757186889648 53.87962341308594 48.50000381469727 53.80204010009766 48.50000381469727 53.71022033691406 L 48.50000381469727 43.66939163208008 C 48.50000381469727 43.57757186889648 48.57757186889648 43.5 48.66939163208008 43.5 L 52.01633071899414 43.5 L 55.36328125 43.5 C 55.45510101318359 43.5 55.53267288208008 43.57757186889648 55.53267288208008 43.66939163208008 L 55.53267288208008 53.71022033691406 C 55.53267288208008 53.80204010009766 55.45510101318359 53.87962341308594 55.36328125 53.87962341308594 Z M 48.83878326416016 50.53267288208008 L 48.83878326416016 51.03267288208008 L 48.83878326416016 53.04083251953125 L 48.83878326416016 53.54083251953125 L 49.33878326416016 53.54083251953125 L 54.69389343261719 53.54083251953125 L 55.19389343261719 53.54083251953125 L 55.19389343261719 53.04083251953125 L 55.19389343261719 51.03267288208008 L 55.19389343261719 50.53267288208008 L 54.69389343261719 50.53267288208008 L 49.33878326416016 50.53267288208008 L 48.83878326416016 50.53267288208008 Z M 48.83878326416016 47.18572235107422 L 48.83878326416016 47.68572235107422 L 48.83878326416016 49.69389343261719 L 48.83878326416016 50.19389343261719 L 49.33878326416016 50.19389343261719 L 54.69389343261719 50.19389343261719 L 55.19389343261719 50.19389343261719 L 55.19389343261719 49.69389343261719 L 55.19389343261719 47.68572235107422 L 55.19389343261719 47.18572235107422 L 54.69389343261719 47.18572235107422 L 49.33878326416016 47.18572235107422 L 48.83878326416016 47.18572235107422 Z M 48.83878326416016 43.83878326416016 L 48.83878326416016 44.33878326416016 L 48.83878326416016 46.34695053100586 L 48.83878326416016 46.84695053100586 L 49.33878326416016 46.84695053100586 L 54.69389343261719 46.84695053100586 L 55.19389343261719 46.84695053100586 L 55.19389343261719 46.34695053100586 L 55.19389343261719 44.33878326416016 L 55.19389343261719 43.83878326416016 L 54.69389343261719 43.83878326416016 L 49.33878326416016 43.83878326416016 L 48.83878326416016 43.83878326416016 Z" stroke="none"/>
    <path d="M 48.66939163208008 43 L 52.01633071899414 43 L 55.36328125 43 C 55.73144149780273 43 56.03267288208008 43.30121994018555 56.03267288208008 43.66939163208008 L 56.03267288208008 53.71022033691406 C 56.03267288208008 54.07839202880859 55.73144149780273 54.37962341308594 55.36328125 54.37962341308594 L 48.66939163208008 54.37962341308594 C 48.30123138427734 54.37962341308594 48.00000381469727 54.07839202880859 48.00000381469727 53.71022033691406 L 48.00000381469727 43.66939163208008 C 48.00000381469727 43.30121994018555 48.30123138427734 43 48.66939163208008 43 Z M 54.69389343261719 46.34694290161133 L 54.69389343261719 44.33878326416016 L 49.33878326416016 44.33878326416016 L 49.33878326416016 46.34694290161133 L 54.69389343261719 46.34694290161133 Z M 54.69389343261719 49.69389343261719 L 54.69389343261719 47.68572235107422 L 49.33878326416016 47.68572235107422 L 49.33878326416016 49.69389343261719 L 54.69389343261719 49.69389343261719 Z M 54.69389343261719 53.04083251953125 L 54.69389343261719 51.03267288208008 L 49.33878326416016 51.03267288208008 L 49.33878326416016 53.04083251953125 L 54.69389343261719 53.04083251953125 Z" stroke="none" fill="#0062cf"/>
  </g>
  <g id="Rectangle_18" data-name="Rectangle 18" transform="translate(9.082 12.188)" fill="#0062cf" stroke="#0062cf" stroke-linejoin="round" stroke-width="1">
    <rect width="2" height="1" stroke="none"/>
    <rect x="0.5" y="0.5" width="1" fill="none"/>
  </g>
  <g id="Rectangle_19" data-name="Rectangle 19" transform="translate(9.082 3.188)" fill="#0062cf" stroke="#0062cf" stroke-linejoin="round" stroke-width="1">
    <rect width="2" height="1" stroke="none"/>
    <rect x="0.5" y="0.5" width="1" fill="none"/>
  </g>
  <g id="Rectangle_20" data-name="Rectangle 20" transform="translate(9.082 4.188)" fill="#0062cf" stroke="#0062cf" stroke-linejoin="round" stroke-width="1">
    <rect width="2" height="3" stroke="none"/>
    <rect x="0.5" y="0.5" width="1" height="2" fill="none"/>
  </g>
  <g id="Path_170" data-name="Path 170" transform="translate(-9.918 -1.322)" fill="#0062cf" stroke-linejoin="round">
    <path d="M 39.37145233154297 11.53267478942871 L 34.01633453369141 11.53267478942871 C 33.92451477050781 11.53267478942871 33.84694290161133 11.45510482788086 33.84694290161133 11.36328411102295 L 33.84694290161133 9.355114936828613 L 33.84694290161133 8.855114936828613 L 33.34694290161133 8.855114936828613 L 30.66939353942871 8.855114936828613 C 30.57757377624512 8.855114936828613 30.50000381469727 8.777544975280762 30.50000381469727 8.685724258422852 L 30.50000381469727 4.669384479522705 C 30.50000381469727 4.577574729919434 30.57757377624512 4.500004768371582 30.66939353942871 4.500004768371582 L 36.02450561523438 4.500004768371582 C 36.11632537841797 4.500004768371582 36.19389343261719 4.577574729919434 36.19389343261719 4.669384479522705 L 36.19389343261719 6.677554607391357 L 36.19389343261719 7.177554607391357 L 36.69389343261719 7.177554607391357 L 39.37145233154297 7.177554607391357 C 39.46327209472656 7.177554607391357 39.54084396362305 7.255124568939209 39.54084396362305 7.346944332122803 L 39.54084396362305 11.36328411102295 C 39.54084396362305 11.45510482788086 39.46327209472656 11.53267478942871 39.37145233154297 11.53267478942871 Z M 34.18572235107422 7.516334533691406 L 34.18572235107422 8.016334533691406 L 34.18572235107422 10.6938943862915 L 34.18572235107422 11.1938943862915 L 34.68572235107422 11.1938943862915 L 38.70206451416016 11.1938943862915 L 39.20206451416016 11.1938943862915 L 39.20206451416016 10.6938943862915 L 39.20206451416016 8.016334533691406 L 39.20206451416016 7.516334533691406 L 38.70206451416016 7.516334533691406 L 34.68572235107422 7.516334533691406 L 34.18572235107422 7.516334533691406 Z M 30.83878326416016 4.838774681091309 L 30.83878326416016 5.338774681091309 L 30.83878326416016 8.016334533691406 L 30.83878326416016 8.516334533691406 L 31.33878326416016 8.516334533691406 L 33.34694290161133 8.516334533691406 L 33.84694290161133 8.516334533691406 L 33.84694290161133 8.016334533691406 L 33.84694290161133 7.346944332122803 C 33.84694290161133 7.255124568939209 33.92451477050781 7.177554607391357 34.01633453369141 7.177554607391357 L 35.3551139831543 7.177554607391357 L 35.8551139831543 7.177554607391357 L 35.8551139831543 6.677554607391357 L 35.8551139831543 5.338774681091309 L 35.8551139831543 4.838774681091309 L 35.3551139831543 4.838774681091309 L 31.33878326416016 4.838774681091309 L 30.83878326416016 4.838774681091309 Z" stroke="none"/>
    <path d="M 39.37145233154297 12.03267478942871 L 34.01633453369141 12.03267478942871 C 33.64817428588867 12.03267478942871 33.34694290161133 11.73144435882568 33.34694290161133 11.36328411102295 L 33.34694290161133 9.355114936828613 L 30.66939353942871 9.355114936828613 C 30.30122375488281 9.355114936828613 30.00000381469727 9.053884506225586 30.00000381469727 8.685724258422852 L 30.00000381469727 4.669384479522705 C 30.00000381469727 4.301224708557129 30.30122375488281 4.000004768371582 30.66939353942871 4.000004768371582 L 36.02450561523438 4.000004768371582 C 36.39267349243164 4.000004768371582 36.69389343261719 4.301224708557129 36.69389343261719 4.669384479522705 L 36.69389343261719 6.677554607391357 L 39.37145233154297 6.677554607391357 C 39.7396125793457 6.677554607391357 40.04084396362305 6.978784561157227 40.04084396362305 7.346944332122803 L 40.04084396362305 11.36328411102295 C 40.04084396362305 11.73144435882568 39.7396125793457 12.03267478942871 39.37145233154297 12.03267478942871 Z M 34.68572235107422 8.016334533691406 L 34.68572235107422 10.6938943862915 L 38.70206451416016 10.6938943862915 L 38.70206451416016 8.016334533691406 L 34.68572235107422 8.016334533691406 Z M 31.33878326416016 5.338774681091309 L 31.33878326416016 8.016334533691406 L 33.34694290161133 8.016334533691406 L 33.34694290161133 7.346944332122803 C 33.34694290161133 6.978784561157227 33.64817428588867 6.677554607391357 34.01633453369141 6.677554607391357 L 35.3551139831543 6.677554607391357 L 35.3551139831543 5.338774681091309 L 31.33878326416016 5.338774681091309 Z" stroke="none" fill="#0062cf"/>
  </g>
  <g id="Path_171" data-name="Path 171" transform="translate(-7.604)" fill="#0062cf" stroke-linejoin="round">
    <path d="M 43.75107574462891 28.28373908996582 C 43.72034454345703 28.28373908996582 43.67545700073242 28.27546882629395 43.63604354858398 28.23606872558594 L 41.9814338684082 26.58145523071289 L 42.21817779541016 26.34471130371094 L 42.72813415527344 26.85466766357422 L 43.58168411254883 27.70822906494141 L 43.58168411254883 26.50111770629883 L 43.58168411254883 20.08167839050293 C 43.58168411254883 20.03531837463379 43.59951400756836 19.98980903625488 43.62937545776367 19.9599494934082 C 43.65920639038086 19.93010902404785 43.70471572875977 19.91228866577148 43.75107574462891 19.91228866577148 L 46.42861557006836 19.91228866577148 L 46.92861557006836 19.91228866577148 L 46.92861557006836 19.41228866577148 L 46.92861557006836 8.702058792114258 L 46.92861557006836 8.202058792114258 L 46.42861557006836 8.202058792114258 L 41.74290466308594 8.202058792114258 L 41.24290466308594 8.202058792114258 L 41.24290466308594 8.702058792114258 L 41.24290466308594 12.71839904785156 C 41.24290466308594 12.81021881103516 41.16533660888672 12.88778877258301 41.07351684570313 12.88778877258301 L 34.37961578369141 12.88778877258301 L 33.87961578369141 12.88778877258301 L 33.87961578369141 13.38778877258301 L 33.87961578369141 14.72655868530273 L 33.87961578369141 15.22655868530273 L 34.37961578369141 15.22655868530273 L 36.55717468261719 15.22655868530273 L 36.55717468261719 15.56533813476563 L 33.71022415161133 15.56533813476563 L 31.03267478942871 15.56533813476563 L 28.18573570251465 15.56533813476563 L 28.18573570251465 15.22655868530273 L 30.36328506469727 15.22655868530273 L 30.86328506469727 15.22655868530273 L 30.86328506469727 14.72655868530273 L 30.86328506469727 13.38778877258301 L 30.86328506469727 12.88778877258301 L 30.36328506469727 12.88778877258301 L 23.66939544677734 12.88778877258301 C 23.57757568359375 12.88778877258301 23.5000057220459 12.81021881103516 23.5000057220459 12.71839904785156 L 23.5000057220459 0.6693885922431946 C 23.5000057220459 0.5775685906410217 23.57757568359375 0.4999985992908478 23.66939544677734 0.4999985992908478 L 41.07351684570313 0.4999985992908478 C 41.16533660888672 0.4999985992908478 41.24290466308594 0.5775685906410217 41.24290466308594 0.6693885922431946 L 41.24290466308594 7.363278388977051 L 41.24290466308594 7.863278388977051 L 41.74290466308594 7.863278388977051 L 47.09801483154297 7.863278388977051 C 47.18983459472656 7.863278388977051 47.26740646362305 7.940848827362061 47.26740646362305 8.032669067382813 L 47.26740646362305 20.08167839050293 C 47.26740646362305 20.13149833679199 47.25180435180664 20.17131805419922 47.21970367431641 20.20341873168945 C 47.18988418579102 20.23323822021484 47.14437484741211 20.25106811523438 47.09801483154297 20.25106811523438 L 44.42045593261719 20.25106811523438 L 43.92045593261719 20.25106811523438 L 43.92045593261719 20.75106811523438 L 43.92045593261719 26.50111770629883 L 43.92045593261719 27.70165824890137 L 44.77263641357422 26.85603904724121 L 45.28929901123047 26.34335517883301 L 45.52739334106445 26.58145332336426 L 43.87851715087891 28.2303352355957 C 43.83986663818359 28.26577377319336 43.7970085144043 28.28373908996582 43.75107574462891 28.28373908996582 Z M 31.20206451416016 12.88778877258301 L 31.20206451416016 13.38778877258301 L 31.20206451416016 14.72655868530273 L 31.20206451416016 15.22655868530273 L 31.70206451416016 15.22655868530273 L 33.04084396362305 15.22655868530273 L 33.54084396362305 15.22655868530273 L 33.54084396362305 14.72655868530273 L 33.54084396362305 13.38778877258301 L 33.54084396362305 12.88778877258301 L 33.04084396362305 12.88778877258301 L 31.70206451416016 12.88778877258301 L 31.20206451416016 12.88778877258301 Z M 23.83877563476563 0.8387786149978638 L 23.83877563476563 1.338778614997864 L 23.83877563476563 12.0490083694458 L 23.83877563476563 12.5490083694458 L 24.33877563476563 12.5490083694458 L 31.03267478942871 12.5490083694458 L 33.71022415161133 12.5490083694458 L 40.40412521362305 12.5490083694458 L 40.90412521362305 12.5490083694458 L 40.90412521362305 12.0490083694458 L 40.90412521362305 1.338778614997864 L 40.90412521362305 0.8387786149978638 L 40.40412521362305 0.8387786149978638 L 24.33877563476563 0.8387786149978638 L 23.83877563476563 0.8387786149978638 Z" stroke="none"/>
    <path d="M 43.75107192993164 27.24408912658691 C 43.68029403686523 27.3078784942627 43.59978485107422 27.36207389831543 43.51125717163086 27.40416145324707 L 43.75441360473633 27.64731788635254 L 43.99542236328125 27.40630531311035 C 43.90509033203125 27.36391448974609 43.82306289672852 27.30897521972656 43.75107192993164 27.24408912658691 M 23.66938400268555 -1.9073486328125e-06 L 41.07351684570313 -1.9073486328125e-06 C 41.44167327880859 -1.9073486328125e-06 41.74290466308594 0.3012294769287109 41.74290466308594 0.6693878173828125 L 41.74290466308594 7.363279342651367 L 47.09801483154297 7.363279342651367 C 47.4661750793457 7.363279342651367 47.76740264892578 7.664508819580078 47.76740264892578 8.032669067382813 L 47.76740264892578 20.08167839050293 C 47.76740264892578 20.26240921020508 47.70045471191406 20.42975997924805 47.57327270507813 20.55694961547852 C 47.44609451293945 20.68412780761719 47.27205657958984 20.75106811523438 47.09801483154297 20.75106811523438 L 44.42045593261719 20.75106811523438 L 44.42045593261719 26.50111770629883 L 45.29066467285156 25.63760757446289 L 46.2344970703125 26.58144760131836 L 44.22633361816406 28.58961868286133 C 44.09246444702148 28.71679878234863 43.92510604858398 28.78373908996582 43.75107574462891 28.78373908996582 C 43.5770263671875 28.78373908996582 43.40967559814453 28.71679878234863 43.28249359130859 28.58961868286133 L 41.27432250976563 26.58144760131836 L 42.21816253662109 25.63760757446289 L 43.08168792724609 26.50111770629883 L 43.08168792724609 20.08167839050293 C 43.08168792724609 19.90763854980469 43.14862442016602 19.73359870910645 43.27580261230469 19.60640716552734 C 43.40298461914063 19.47922897338867 43.5770263671875 19.41228866577148 43.75107574462891 19.41228866577148 L 46.42861557006836 19.41228866577148 L 46.42861557006836 8.702058792114258 L 41.74290466308594 8.702058792114258 L 41.74290466308594 12.71839904785156 C 41.74290466308594 13.08655834197998 41.44167327880859 13.38778877258301 41.07351684570313 13.38778877258301 L 34.37961578369141 13.38778877258301 L 34.37961578369141 14.72655868530273 L 37.05717468261719 14.72655868530273 L 37.05717468261719 16.06533813476563 L 33.71022415161133 16.06533813476563 L 31.03267669677734 16.06533813476563 L 27.68572616577148 16.06533813476563 L 27.68572616577148 14.72655868530273 L 30.36328506469727 14.72655868530273 L 30.36328506469727 13.38778877258301 L 23.66938400268555 13.38778877258301 C 23.30122375488281 13.38778877258301 22.99999618530273 13.08655834197998 22.99999618530273 12.71839904785156 L 22.99999618530273 0.6693878173828125 C 22.99999618530273 0.3012294769287109 23.30122375488281 -1.9073486328125e-06 23.66938400268555 -1.9073486328125e-06 Z M 40.40412521362305 12.04900932312012 L 40.40412521362305 1.338779449462891 L 24.33877563476563 1.338779449462891 L 24.33877563476563 12.04900932312012 L 31.03267669677734 12.04900932312012 L 33.71022415161133 12.04900932312012 L 40.40412521362305 12.04900932312012 Z M 33.04083633422852 14.72655868530273 L 33.04083633422852 13.38778877258301 L 31.70206451416016 13.38778877258301 L 31.70206451416016 14.72655868530273 L 33.04083633422852 14.72655868530273 Z" stroke="none" fill="#0062cf"/>
  </g>
  <g id="Path_172" data-name="Path 172" transform="translate(-5.292 -9.59)" fill="#0062cf" stroke-linejoin="round">
    <path d="M 32.73673248291016 49.26023864746094 L 32.72819900512695 49.26023864746094 C 32.68133544921875 49.25714874267578 32.64108276367188 49.23846817016602 32.61432266235352 49.20724868774414 L 32.61199188232422 49.20453643798828 L 32.60962295532227 49.20185852050781 L 23.98119163513184 39.42207717895508 L 23.62906265258789 39.02295684814453 L 23.25271224975586 39.39931869506836 L 18.13761520385742 44.5144157409668 C 18.09896469116211 44.54985427856445 18.05610656738281 44.56781768798828 18.01017189025879 44.56781768798828 C 17.96768188476563 44.56781768798828 17.93298149108887 44.55303955078125 17.90409088134766 44.52262878417969 L 17.89968109130859 44.51799011230469 L 17.89515113830566 44.51345825195313 L 16.55636215209961 43.17467880249023 C 16.4991512298584 43.11745834350586 16.48980140686035 43.03246688842773 16.53310203552246 42.96318817138672 L 21.21665191650391 35.60334014892578 L 21.22249984741211 35.59414672851563 C 21.22674751281738 35.58986282348633 21.23110961914063 35.58563995361328 21.23540115356445 35.58134841918945 L 27.25990104675293 29.55684852600098 C 27.30069160461426 29.51606750488281 27.34678268432617 29.50750732421875 27.37827110290527 29.50750732421875 C 27.40976142883301 29.50750732421875 27.45585250854492 29.51606750488281 27.49664115905762 29.55684852600098 L 30.17420196533203 32.23440933227539 C 30.23946189880371 32.29967880249023 30.23946189880371 32.40586853027344 30.17420196533203 32.47113800048828 L 25.7227611541748 36.92258834838867 L 25.34654235839844 37.29879760742188 L 25.74537086486816 37.65094757080078 L 35.52514266967773 46.28605651855469 L 35.52790069580078 46.28848648071289 L 35.53070068359375 46.29088973999023 C 35.56330108642578 46.31882858276367 35.58223342895508 46.36150741577148 35.58400344848633 46.41106796264648 C 35.58561325073242 46.45627975463867 35.56722259521484 46.50378799438477 35.5360107421875 46.53500747680664 L 32.85845184326172 49.21256637573242 C 32.8286018371582 49.24241638183594 32.7830924987793 49.26023864746094 32.73673248291016 49.26023864746094 Z M 25.10445213317871 37.54089736938477 L 24.77223205566406 37.87310791015625 L 24.19655227661133 38.44878005981445 L 23.86433219909668 38.78099822998047 L 24.17525100708008 39.13322830200195 L 32.3886604309082 48.43773651123047 L 32.74080276489258 48.8366584777832 L 33.11706161499023 48.46039962768555 L 34.78383255004883 46.79361724853516 L 35.16009140014648 46.4173583984375 L 34.76117324829102 46.06521987915039 L 25.45667266845703 37.8518180847168 L 25.10445213317871 37.54089736938477 Z M 27.38161087036133 29.90859794616699 L 27.02806091308594 30.26215744018555 L 21.52569198608398 35.7645378112793 L 21.48688125610352 35.80334854125977 L 21.45741271972656 35.84964752197266 L 17.09968185424805 42.6974983215332 L 16.88435173034668 43.0358772277832 L 17.16796112060547 43.31948852539063 L 17.6566219329834 43.80814743041992 L 18.01017189025879 44.16170883178711 L 18.36372184753418 43.80814743041992 L 23.51801109313965 38.65384674072266 L 24.98398208618164 37.18788909912109 L 29.46889114379883 32.70298004150391 L 29.82245254516602 32.34943008422852 L 29.46889114379883 31.99587821960449 L 27.73516273498535 30.26215744018555 L 27.38161087036133 29.90859794616699 Z" stroke="none"/>
    <path d="M 27.37827110290527 29.00750350952148 C 27.5489673614502 29.00750350952148 27.71966171264648 29.07276916503906 27.85019111633301 29.20329666137695 L 30.52775192260742 31.880859375 C 30.7888011932373 32.14191818237305 30.7888011932373 32.56362915039063 30.52775192260742 32.82468795776367 L 26.0763111114502 37.27613830566406 L 35.8560791015625 45.91124725341797 C 35.99666213989258 46.03173828125 36.07698059082031 46.20578002929688 36.08368301391602 46.39320755004883 C 36.09036254882813 46.58063888549805 36.01674270629883 46.76137542724609 35.88954925537109 46.88855743408203 L 33.21200180053711 49.56611633300781 C 33.08481216430664 49.69330596923828 32.91077423095703 49.76023864746094 32.73673248291016 49.76023864746094 C 32.73004150390625 49.76023864746094 32.72334289550781 49.76023864746094 32.71665191650391 49.76023864746094 C 32.52921295166016 49.75354766845703 32.35518264770508 49.6732177734375 32.23469161987305 49.53264617919922 L 23.60626220703125 39.75286865234375 L 18.48543167114258 44.87369918823242 C 18.3515625 45.00087738037109 18.18421173095703 45.06781768798828 18.01016998291016 45.06781768798828 C 17.83613204956055 45.06781768798828 17.66878128051758 45.00087738037109 17.54160308837891 44.86700820922852 L 16.20281219482422 43.52822875976563 C 15.9819221496582 43.30732727050781 15.9417610168457 42.96593856811523 16.10910034179688 42.69818878173828 L 20.79482269287109 35.33489990234375 C 20.81491088867188 35.29473876953125 20.84838104248047 35.26126861572266 20.88185119628906 35.22779846191406 L 26.90635108947754 29.20329666137695 C 27.0368824005127 29.07276916503906 27.20757675170898 29.00750350952148 27.37827110290527 29.00750350952148 Z M 18.01016998291016 43.45459747314453 L 23.16446113586426 38.30029678344727 L 24.63043212890625 36.8343391418457 L 29.11534118652344 32.34943008422852 L 27.38161087036133 30.61570739746094 L 21.87924194335938 36.11808776855469 L 17.52151107788086 42.96593856811523 L 18.01016998291016 43.45459747314453 Z M 32.76351165771484 48.10684967041016 L 34.43028259277344 46.44006729125977 L 25.12578201293945 38.22666931152344 L 24.55010223388672 38.80233764648438 L 32.76351165771484 48.10684967041016 Z" stroke="none" fill="#0062cf"/>
  </g>
  <g id="Rectangle_21" data-name="Rectangle 21" transform="translate(12.247 22.565) rotate(-45)" fill="#0062cf" stroke="#0062cf" stroke-linejoin="round" stroke-width="1">
    <rect width="1.339" height="1.894" stroke="none"/>
    <rect x="0.5" y="0.5" width="0.339" height="0.894" fill="none"/>
  </g>
  <g id="Rectangle_22" data-name="Rectangle 22" transform="translate(16.082 20.188)" fill="#0062cf" stroke="#0062cf" stroke-linejoin="round" stroke-width="1">
    <rect width="1" height="1" stroke="none"/>
    <rect x="0.5" y="0.5" fill="none"/>
  </g>
  <g id="Rectangle_23" data-name="Rectangle 23" transform="translate(11.082 25.188)" fill="#0062cf" stroke="#0062cf" stroke-linejoin="round" stroke-width="1">
    <rect width="1" height="1" stroke="none"/>
    <rect x="0.5" y="0.5" fill="none"/>
  </g>
</svg>
