<svg xmlns="http://www.w3.org/2000/svg" width="38.582" height="38.582" viewBox="0 0 38.582 38.582">
  <g id="ax" transform="translate(0 0)">
    <path id="Path_795" data-name="Path 795" d="M24,6H34.288V7.286H24Z" transform="translate(-9.853 -3.428)" fill="#fff"/>
    <path id="Path_796" data-name="Path 796" d="M24,10H34.288v1.286H24Z" transform="translate(-9.853 -4.856)" fill="#fff"/>
    <path id="Path_797" data-name="Path 797" d="M24,14H34.288v1.286H24Z" transform="translate(-9.853 -6.284)" fill="#fff"/>
    <path id="Path_798" data-name="Path 798" d="M27,27h9v1.286H27Z" transform="translate(-10.924 -10.924)" fill="#fff"/>
    <path id="Path_799" data-name="Path 799" d="M25,31h9v1.286H25Z" transform="translate(-10.21 -12.352)" fill="#fff"/>
    <path id="Path_800" data-name="Path 800" d="M23,35h9v1.286H23Z" transform="translate(-9.496 -13.78)" fill="#fff"/>
    <path id="Path_801" data-name="Path 801" d="M24,48H34.288v1.286H24Z" transform="translate(-9.853 -18.421)" fill="#fff"/>
    <path id="Path_802" data-name="Path 802" d="M24,52H34.288v1.286H24Z" transform="translate(-9.853 -19.849)" fill="#fff"/>
    <path id="Path_803" data-name="Path 803" d="M24,56H34.288v1.286H24Z" transform="translate(-9.853 -21.277)" fill="#fff"/>
    <path id="Path_804" data-name="Path 804" d="M9.395,35.437h4.18v4.5a.643.643,0,0,0,.643.643H28.364a.643.643,0,0,0,.643-.643v-4.5h1.331a5.144,5.144,0,1,0,0-1.286H29.007v-4.5a.643.643,0,0,0-.643-.643H14.218a.643.643,0,0,0-.643.643v4.5H9.395a6.109,6.109,0,1,1,0-12.218H13.29l-1.6,4.275a.643.643,0,0,0,.6.869H26.435a.643.643,0,0,0,.6-.417l1.773-4.727h4.377a7.395,7.395,0,0,0,0-14.79h-4.18v-4.5A.643.643,0,0,0,28.364,2H14.218a.643.643,0,0,0-.643.643V12.931a.643.643,0,0,0,.643.643H28.364a.643.643,0,0,0,.643-.643V8.43h4.18a6.109,6.109,0,0,1,0,12.218H29.292l1.6-4.275a.643.643,0,0,0-.6-.869H16.147a.643.643,0,0,0-.6.417l-1.773,4.727H9.395a7.395,7.395,0,0,0,0,14.79Zm26.043-4.5a3.858,3.858,0,1,1-3.858,3.858A3.862,3.862,0,0,1,35.437,30.936Zm-20.577-.643H27.721v9H14.861Zm12.861-18H14.861v-9H27.721Zm-11.129,4.5H29.365l-3.376,9H13.217Z" transform="translate(-2 -2)" fill="#fff"/>
    <path id="Path_805" data-name="Path 805" d="M52.034,53.963a.641.641,0,0,0,.455-.188L55.06,51.2l-.909-.909L52.034,52.41l-.831-.831-.909.909,1.286,1.286A.641.641,0,0,0,52.034,53.963Z" transform="translate(-19.239 -19.239)" fill="#fff"/>
  </g>
</svg>
