<svg width="22" height="20" viewBox="0 0 22 20" fill="none" xmlns="http://www.w3.org/2000/svg">
<path d="M11 13C11.7956 13 12.5587 12.6839 13.1213 12.1213C13.6839 11.5587 14 10.7956 14 10C14 9.20435 13.6839 8.44129 13.1213 7.87868C12.5587 7.31607 11.7956 7 11 7C10.2044 7 9.44129 7.31607 8.87868 7.87868C8.31607 8.44129 8 9.20435 8 10C8 10.7956 8.31607 11.5587 8.87868 12.1213C9.44129 12.6839 10.2044 13 11 13Z" stroke="#098DE6" stroke-width="1.5" stroke-miterlimit="10" stroke-linecap="round" stroke-linejoin="round"/>
<path d="M1 10.8391V9.16092C1 8.16928 1.84958 7.34927 2.89905 7.34927C4.70815 7.34927 5.44778 6.12879 4.53823 4.63179C4.01849 3.77364 4.32834 2.65804 5.23788 2.16222L6.96702 1.21826C7.75662 0.770112 8.77611 1.03709 9.24588 1.79036L9.35582 1.97152C10.2554 3.46852 11.7346 3.46852 12.6442 1.97152L12.7541 1.79036C13.2239 1.03709 14.2434 0.770112 15.033 1.21826L16.7621 2.16222C17.6717 2.65804 17.9815 3.77364 17.4618 4.63179C16.5522 6.12879 17.2919 7.34927 19.1009 7.34927C20.1404 7.34927 21 8.15974 21 9.16092V10.8391C21 11.8307 20.1504 12.6507 19.1009 12.6507C17.2919 12.6507 16.5522 13.8712 17.4618 15.3682C17.9815 16.2359 17.6717 17.342 16.7621 17.8378L15.033 18.7817C14.2434 19.2299 13.2239 18.9629 12.7541 18.2096L12.6442 18.0285C11.7446 16.5315 10.2654 16.5315 9.35582 18.0285L9.24588 18.2096C8.77611 18.9629 7.75662 19.2299 6.96702 18.7817L5.23788 17.8378C4.8022 17.5985 4.48384 17.204 4.35267 16.741C4.2215 16.278 4.28823 15.7843 4.53823 15.3682C5.44778 13.8712 4.70815 12.6507 2.89905 12.6507C1.84958 12.6507 1 11.8307 1 10.8391Z" stroke="#098DE6" stroke-width="1.5" stroke-miterlimit="10" stroke-linecap="round" stroke-linejoin="round"/>
</svg>
