<svg width="64" height="20" viewBox="0 0 64 20" fill="none" xmlns="http://www.w3.org/2000/svg">
<path d="M30.746 14.168C29.9807 14.168 29.29 13.9813 28.674 13.608C28.0673 13.2253 27.5913 12.6793 27.246 11.97C26.9007 11.2607 26.728 10.4067 26.728 9.408C26.728 8.67067 26.826 8.008 27.022 7.42C27.2273 6.832 27.5167 6.33267 27.89 5.922C28.2633 5.502 28.6927 5.18467 29.178 4.97C29.6727 4.75533 30.214 4.648 30.802 4.648C31.3527 4.648 31.8427 4.76 32.272 4.984C32.7107 5.208 33.0607 5.474 33.322 5.782L32.692 6.496C32.4493 6.23467 32.1693 6.034 31.852 5.894C31.544 5.74467 31.1987 5.67 30.816 5.67C30.2467 5.67 29.7427 5.824 29.304 6.132C28.8747 6.43067 28.5387 6.86 28.296 7.42C28.0533 7.97067 27.932 8.624 27.932 9.38C27.932 10.1547 28.0487 10.822 28.282 11.382C28.5153 11.942 28.8513 12.376 29.29 12.684C29.7287 12.9827 30.242 13.132 30.83 13.132C31.2593 13.132 31.642 13.0527 31.978 12.894C32.3233 12.726 32.636 12.4833 32.916 12.166L33.532 12.852C33.168 13.272 32.762 13.5987 32.314 13.832C31.866 14.056 31.3433 14.168 30.746 14.168ZM35.146 14V7.196H36.098L36.196 8.428H36.238C36.462 7.99867 36.742 7.658 37.078 7.406C37.414 7.154 37.778 7.028 38.17 7.028C38.3194 7.028 38.45 7.03733 38.562 7.056C38.674 7.07467 38.786 7.112 38.898 7.168L38.646 8.148C38.5434 8.12 38.4454 8.10133 38.352 8.092C38.268 8.07333 38.156 8.064 38.016 8.064C37.7267 8.064 37.4234 8.18067 37.106 8.414C36.798 8.64733 36.5274 9.05333 36.294 9.632V14H35.146ZM42.6208 14.168C42.0142 14.168 41.4588 14.028 40.9548 13.748C40.4602 13.4587 40.0682 13.0527 39.7788 12.53C39.4895 11.998 39.3448 11.354 39.3448 10.598C39.3448 9.86067 39.4942 9.226 39.7928 8.694C40.0915 8.162 40.4742 7.75133 40.9408 7.462C41.4075 7.17267 41.9022 7.028 42.4248 7.028C43.0035 7.028 43.4935 7.16333 43.8948 7.434C44.3055 7.69533 44.6135 8.064 44.8188 8.54C45.0242 9.016 45.1268 9.576 45.1268 10.22C45.1268 10.3413 45.1222 10.458 45.1128 10.57C45.1128 10.682 45.0988 10.794 45.0708 10.906H40.1708V9.996H44.0908C44.0908 9.34267 43.9462 8.84333 43.6568 8.498C43.3768 8.14333 42.9708 7.966 42.4388 7.966C42.1308 7.966 41.8275 8.05467 41.5288 8.232C41.2302 8.4 40.9828 8.67533 40.7868 9.058C40.6002 9.44067 40.5068 9.94933 40.5068 10.584C40.5068 11.1627 40.6048 11.648 40.8008 12.04C41.0062 12.432 41.2815 12.7307 41.6268 12.936C41.9722 13.132 42.3502 13.23 42.7608 13.23C43.0875 13.23 43.3908 13.1833 43.6708 13.09C43.9602 12.9967 44.2215 12.8707 44.4548 12.712L44.8748 13.468C44.5762 13.6733 44.2402 13.8413 43.8668 13.972C43.5028 14.1027 43.0875 14.168 42.6208 14.168ZM48.1848 14.168C47.8114 14.168 47.4708 14.0933 47.1628 13.944C46.8641 13.7853 46.6261 13.566 46.4488 13.286C46.2714 12.9967 46.1828 12.6467 46.1828 12.236C46.1828 11.4707 46.5188 10.892 47.1908 10.5C47.8628 10.108 48.9268 9.83267 50.3828 9.674C50.3734 9.394 50.3268 9.12333 50.2428 8.862C50.1681 8.60067 50.0281 8.39067 49.8228 8.232C49.6174 8.07333 49.3328 7.994 48.9688 7.994C48.5768 7.994 48.2081 8.06867 47.8628 8.218C47.5174 8.358 47.2094 8.51667 46.9388 8.694L46.4908 7.91C46.6961 7.77 46.9388 7.63467 47.2188 7.504C47.4988 7.364 47.8021 7.252 48.1288 7.168C48.4554 7.07467 48.8008 7.028 49.1647 7.028C49.7154 7.028 50.1634 7.14467 50.5088 7.378C50.8634 7.602 51.1201 7.924 51.2788 8.344C51.4468 8.764 51.5308 9.25867 51.5308 9.828V14H50.5788L50.4808 13.188H50.4388C50.1121 13.4587 49.7621 13.692 49.3888 13.888C49.0154 14.0747 48.6141 14.168 48.1848 14.168ZM48.5068 13.216C48.8428 13.216 49.1554 13.1413 49.4448 12.992C49.7434 12.8427 50.0561 12.6233 50.3828 12.334V10.5C49.6174 10.5933 49.0108 10.7147 48.5628 10.864C48.1241 11.004 47.8068 11.1813 47.6108 11.396C47.4148 11.6107 47.3167 11.8673 47.3167 12.166C47.3167 12.5393 47.4334 12.81 47.6668 12.978C47.9001 13.1367 48.1801 13.216 48.5068 13.216ZM55.622 14.126C54.9034 14.126 54.3994 13.916 54.11 13.496C53.8207 13.076 53.676 12.53 53.676 11.858V8.134H52.668V7.266L53.732 7.196L53.872 5.012H54.838V7.196H56.686V8.134H54.838V11.872C54.838 12.2827 54.9127 12.6047 55.062 12.838C55.2207 13.0713 55.496 13.188 55.888 13.188C56.0094 13.188 56.1354 13.1787 56.266 13.16C56.3967 13.132 56.5274 13.0853 56.658 13.02L56.91 13.832C56.7327 13.916 56.532 13.986 56.308 14.042C56.084 14.098 55.8554 14.126 55.622 14.126ZM60.7771 14.168C60.1704 14.168 59.6151 14.028 59.1111 13.748C58.6164 13.4587 58.2244 13.0527 57.9351 12.53C57.6458 11.998 57.5011 11.354 57.5011 10.598C57.5011 9.86067 57.6504 9.226 57.9491 8.694C58.2478 8.162 58.6304 7.75133 59.0971 7.462C59.5638 7.17267 60.0584 7.028 60.5811 7.028C61.1598 7.028 61.6498 7.16333 62.0511 7.434C62.4618 7.69533 62.7698 8.064 62.9751 8.54C63.1804 9.016 63.2831 9.576 63.2831 10.22C63.2831 10.3413 63.2784 10.458 63.2691 10.57C63.2691 10.682 63.2551 10.794 63.2271 10.906H58.3271V9.996H62.2471C62.2471 9.34267 62.1024 8.84333 61.8131 8.498C61.5331 8.14333 61.1271 7.966 60.5951 7.966C60.2871 7.966 59.9838 8.05467 59.6851 8.232C59.3864 8.4 59.1391 8.67533 58.9431 9.058C58.7564 9.44067 58.6631 9.94933 58.6631 10.584C58.6631 11.1627 58.7611 11.648 58.9571 12.04C59.1624 12.432 59.4378 12.7307 59.7831 12.936C60.1284 13.132 60.5064 13.23 60.9171 13.23C61.2438 13.23 61.5471 13.1833 61.8271 13.09C62.1164 12.9967 62.3778 12.8707 62.6111 12.712L63.0311 13.468C62.7324 13.6733 62.3964 13.8413 62.0231 13.972C61.6591 14.1027 61.2438 14.168 60.7771 14.168Z" fill="#232832"/>
<rect x="1" y="1" width="18" height="18" rx="2" stroke="#2E323A" stroke-width="1.5" stroke-linecap="round" stroke-linejoin="round"/>
<path d="M9.99902 6V14" stroke="#2E323A" stroke-width="1.5" stroke-linecap="round" stroke-linejoin="round"/>
<path d="M6.00098 10H14.001" stroke="#2E323A" stroke-width="1.5" stroke-linecap="round" stroke-linejoin="round"/>
</svg>