<svg width="20" height="20" viewBox="0 0 20 20" fill="none" xmlns="http://www.w3.org/2000/svg">
<g clip-path="url(#clip0_1273_2363)">
<path d="M9.99099 13.9537C8.0672 13.9537 6.50586 12.3923 6.50586 10.4685C6.50586 8.54474 8.0672 6.9834 9.99099 6.9834C11.9148 6.9834 13.4761 8.54474 13.4761 10.4685C13.4761 12.3923 11.9148 13.9537 9.99099 13.9537ZM9.99099 8.37745C8.83857 8.37745 7.89991 9.31611 7.89991 10.4685C7.89991 11.6209 8.83857 12.5596 9.99099 12.5596C11.1434 12.5596 12.0821 11.6209 12.0821 10.4685C12.0821 9.31611 11.1434 8.37745 9.99099 8.37745Z" fill="#098DE6"/>
<path d="M12.974 19.9385C12.7788 19.9385 12.5836 19.9106 12.3885 19.8641C11.8123 19.7061 11.329 19.3437 11.0223 18.8325L10.9108 18.6466C10.3625 17.6987 9.60967 17.6987 9.06134 18.6466L8.95911 18.8232C8.65242 19.3437 8.16914 19.7154 7.59294 19.8641C7.00743 20.0221 6.40335 19.9385 5.89219 19.6318L4.29368 18.7117C4.0128 18.5508 3.76641 18.336 3.56859 18.0798C3.37078 17.8235 3.22541 17.5308 3.14082 17.2184C3.05623 16.9059 3.03407 16.5798 3.07561 16.2588C3.11715 15.9377 3.22157 15.628 3.3829 15.3474C3.65242 14.8734 3.72677 14.4459 3.56877 14.1764C3.41078 13.9069 3.01115 13.7489 2.46283 13.7489C1.10595 13.7489 0 12.6429 0 11.286V9.65036C0 8.29348 1.10595 7.18753 2.46283 7.18753C3.01115 7.18753 3.41078 7.02954 3.56877 6.76002C3.72677 6.49051 3.66171 6.063 3.3829 5.58902C3.05762 5.02211 2.97398 4.35296 3.14126 3.72099C3.30855 3.07973 3.71747 2.54999 4.29368 2.22471L5.90149 1.30463C6.95167 0.681958 8.33643 1.04441 8.9684 2.11318L9.07993 2.29906C9.62825 3.24701 10.381 3.24701 10.9294 2.29906L11.0316 2.12248C11.6636 1.04441 13.0483 0.681958 14.1078 1.31393L15.7063 2.234C15.9872 2.39494 16.2336 2.60967 16.4314 2.86591C16.6292 3.12215 16.7746 3.41487 16.8592 3.72734C16.9438 4.03981 16.9659 4.36589 16.9244 4.68693C16.8829 5.00796 16.7784 5.31767 16.6171 5.59831C16.3476 6.07229 16.2732 6.4998 16.4312 6.76932C16.5892 7.03884 16.9888 7.19683 17.5372 7.19683C18.8941 7.19683 20 8.30278 20 9.65965V11.2953C20 12.6522 18.8941 13.7582 17.5372 13.7582C16.9888 13.7582 16.5892 13.9162 16.4312 14.1857C16.2732 14.4552 16.3383 14.8827 16.6171 15.3567C16.9424 15.9236 17.0353 16.5927 16.8587 17.2247C16.7779 17.5391 16.6341 17.8339 16.4361 18.0911C16.238 18.3483 15.9897 18.5626 15.7063 18.721L14.0985 19.6411C13.7454 19.8362 13.3643 19.9385 12.974 19.9385ZM9.99071 16.4998C10.8178 16.4998 11.5892 17.0202 12.119 17.9403L12.2212 18.1169C12.3327 18.3121 12.5186 18.4515 12.7416 18.5072C12.9647 18.563 13.1877 18.5351 13.3736 18.4236L14.9814 17.4942C15.2268 17.3527 15.4064 17.12 15.4812 16.8468C15.5561 16.5736 15.52 16.2819 15.381 16.0351C14.8513 15.1243 14.7862 14.1857 15.1952 13.4701C15.6041 12.7544 16.4498 12.3455 17.5093 12.3455C18.1041 12.3455 18.5781 11.8715 18.5781 11.2768V9.64106C18.5781 9.05556 18.1041 8.57229 17.5093 8.57229C16.4498 8.57229 15.6041 8.16337 15.1952 7.44776C14.7862 6.73214 14.8513 5.79348 15.381 4.8827C15.5204 4.64107 15.5576 4.35296 15.4833 4.07415C15.4089 3.79534 15.2323 3.57229 14.9907 3.42359L13.3829 2.50352C13.2859 2.44664 13.1786 2.40946 13.0673 2.39409C12.9559 2.37873 12.8426 2.38548 12.7338 2.41397C12.625 2.44245 12.5229 2.49212 12.4334 2.56011C12.3438 2.6281 12.2686 2.71309 12.2119 2.81021L12.1097 2.98679C11.5799 3.90686 10.8085 4.42731 9.98141 4.42731C9.15427 4.42731 8.3829 3.90686 7.85316 2.98679L7.75093 2.80092C7.63544 2.61099 7.45038 2.47363 7.23514 2.41808C7.01991 2.36254 6.79149 2.39319 6.59851 2.50352L4.99071 3.43289C4.74533 3.57442 4.56572 3.80707 4.49089 4.08028C4.41607 4.35348 4.45207 4.64518 4.59108 4.89199C5.12082 5.80278 5.18587 6.74144 4.77695 7.45705C4.36803 8.17266 3.5223 8.58159 2.46283 8.58159C1.86803 8.58159 1.39405 9.05556 1.39405 9.65036V11.286C1.39405 11.8715 1.86803 12.3548 2.46283 12.3548C3.5223 12.3548 4.36803 12.7637 4.77695 13.4794C5.18587 14.195 5.12082 15.1336 4.59108 16.0444C4.45167 16.286 4.4145 16.5742 4.48885 16.853C4.5632 17.1318 4.73978 17.3548 4.98141 17.5035L6.58922 18.4236C6.78439 18.5444 7.01673 18.5723 7.23048 18.5165C7.45353 18.4608 7.63941 18.3121 7.76022 18.1169L7.86245 17.9403C8.39219 17.0295 9.16357 16.4998 9.99071 16.4998Z" fill="#098DE6" stroke="#098DE6" stroke-width="0.2"/>
</g>
<defs>
<clipPath id="clip0_1273_2363">
<rect width="20" height="20" fill="white"/>
</clipPath>
</defs>
</svg>
