<svg width="59" height="60" viewBox="0 0 59 60" fill="none" xmlns="http://www.w3.org/2000/svg">
<path d="M20.3499 9.70517C20.3499 8.42221 20.8595 7.1918 21.7667 6.28461C22.6739 5.37742 23.9043 4.86777 25.1873 4.86777C26.4702 4.86777 27.7006 5.37742 28.6078 6.28461C29.515 7.1918 30.0247 8.42221 30.0247 9.70517V24.2174" stroke="#979797" stroke-width="1.5" stroke-linecap="round" stroke-linejoin="round"/>
<path d="M10.6746 13.5772V5.8374C10.6746 4.55444 11.1842 3.32403 12.0914 2.41684C12.9986 1.50965 14.229 1 15.512 1C16.7949 1 18.0253 1.50965 18.9325 2.41684C19.8397 3.32403 20.3494 4.55444 20.3494 5.8374V22.2846" stroke="#979797" stroke-width="1.5" stroke-linecap="round" stroke-linejoin="round"/>
<path d="M20.3496 38.7323C20.3496 36.1664 21.3689 33.7056 23.1833 31.8912C24.9977 30.0768 27.4585 29.0575 30.0244 29.0575V24.2201C30.0244 22.9371 30.5341 21.7067 31.4413 20.7995C32.3485 19.8924 33.5789 19.3827 34.8618 19.3827C36.1448 19.3827 37.3752 19.8924 38.2824 20.7995C39.1896 21.7067 39.6992 22.9371 39.6992 24.2201V33.8949C39.6992 39.0268 37.6606 43.9484 34.0319 47.5772C30.4031 51.2059 25.4814 53.2445 20.3496 53.2445C15.2178 53.2445 10.2961 51.2059 6.66737 47.5772C3.03861 43.9484 1 39.0268 1 33.8949V13.5778C1 12.2949 1.50965 11.0644 2.41684 10.1573C3.32403 9.25007 4.55444 8.74042 5.8374 8.74042C7.12036 8.74042 8.35077 9.25007 9.25796 10.1573C10.1652 11.0644 10.6748 12.2949 10.6748 13.5778V24.2201" stroke="#979797" stroke-width="1.5" stroke-linecap="round" stroke-linejoin="round"/>
<g filter="url(#filter0_d_294_2646)">
<rect x="29.6096" y="30.8537" width="8.70733" height="23.6342" rx="1" fill="#098DE6"/>
</g>
<g filter="url(#filter1_d_294_2646)">
<rect x="43.2927" y="30.8537" width="8.70733" height="23.6342" rx="1" fill="#098DE6"/>
</g>
<defs>
<filter id="filter0_d_294_2646" x="19.6096" y="24.8537" width="28.7073" height="43.6342" filterUnits="userSpaceOnUse" color-interpolation-filters="sRGB">
<feFlood flood-opacity="0" result="BackgroundImageFix"/>
<feColorMatrix in="SourceAlpha" type="matrix" values="0 0 0 0 0 0 0 0 0 0 0 0 0 0 0 0 0 0 127 0" result="hardAlpha"/>
<feOffset dy="4"/>
<feGaussianBlur stdDeviation="5"/>
<feComposite in2="hardAlpha" operator="out"/>
<feColorMatrix type="matrix" values="0 0 0 0 0.0352941 0 0 0 0 0.552941 0 0 0 0 0.901961 0 0 0 0.2 0"/>
<feBlend mode="normal" in2="BackgroundImageFix" result="effect1_dropShadow_294_2646"/>
<feBlend mode="normal" in="SourceGraphic" in2="effect1_dropShadow_294_2646" result="shape"/>
</filter>
<filter id="filter1_d_294_2646" x="33.2927" y="24.8537" width="28.7073" height="43.6342" filterUnits="userSpaceOnUse" color-interpolation-filters="sRGB">
<feFlood flood-opacity="0" result="BackgroundImageFix"/>
<feColorMatrix in="SourceAlpha" type="matrix" values="0 0 0 0 0 0 0 0 0 0 0 0 0 0 0 0 0 0 127 0" result="hardAlpha"/>
<feOffset dy="4"/>
<feGaussianBlur stdDeviation="5"/>
<feComposite in2="hardAlpha" operator="out"/>
<feColorMatrix type="matrix" values="0 0 0 0 0.0352941 0 0 0 0 0.552941 0 0 0 0 0.901961 0 0 0 0.2 0"/>
<feBlend mode="normal" in2="BackgroundImageFix" result="effect1_dropShadow_294_2646"/>
<feBlend mode="normal" in="SourceGraphic" in2="effect1_dropShadow_294_2646" result="shape"/>
</filter>
</defs>
</svg>
