<svg width="60" height="59" viewBox="0 0 60 59" fill="none" xmlns="http://www.w3.org/2000/svg">
<circle cx="24.6089" cy="25.6089" r="24.6089" stroke="#979797" stroke-width="1.5" stroke-linejoin="round"/>
<path d="M24.6089 5.70464V1" stroke="#979797" stroke-width="1.5" stroke-linecap="round" stroke-linejoin="round"/>
<circle cx="24.6087" cy="26.8708" r="1.89299" transform="rotate(180 24.6087 26.8708)" stroke="#979797" stroke-width="1.5" stroke-linejoin="round"/>
<path d="M24.6086 24.1088V14.6995" stroke="#979797" stroke-width="1.5" stroke-linecap="round" stroke-linejoin="round"/>
<path d="M15.1438 40.7528L23.9778 28.7638" stroke="#979797" stroke-width="1.5" stroke-linecap="round" stroke-linejoin="round"/>
<g filter="url(#filter0_d_294_2618)">
<path d="M39.8874 24.9687L53.6644 48.7654C53.8839 49.1456 53.9996 49.5767 54 50.0157C54.0004 50.4546 53.8854 50.886 53.6666 51.2665C53.4478 51.647 53.1328 51.9634 52.7533 52.1839C52.3737 52.4044 51.9429 52.5212 51.5039 52.5228H23.9499C23.5109 52.5212 23.0801 52.4044 22.7005 52.1839C22.3209 51.9634 22.006 51.647 21.7872 51.2665C21.5683 50.886 21.4534 50.4546 21.4538 50.0157C21.4542 49.5767 21.5699 49.1456 21.7894 48.7654L35.5664 24.9687C35.7842 24.5881 36.0988 24.2718 36.4781 24.0518C36.8575 23.8317 37.2883 23.7159 37.7269 23.7159C38.1654 23.7159 38.5962 23.8317 38.9756 24.0518C39.355 24.2718 39.6695 24.5881 39.8874 24.9687Z" fill="#098DE6"/>
</g>
<path fill-rule="evenodd" clip-rule="evenodd" d="M37.7274 31.8055C37.0084 31.8055 36.4256 32.3884 36.4256 33.1074V41.2484C36.4256 41.9674 37.0084 42.5503 37.7274 42.5503C38.4464 42.5503 39.0293 41.9674 39.0293 41.2484V33.1074C39.0293 32.3884 38.4464 31.8055 37.7274 31.8055Z" fill="white"/>
<path d="M37.7336 48.7667C36.6961 48.7667 35.8549 47.9256 35.8549 46.888C35.8549 45.8504 36.6961 45.0093 37.7336 45.0093C38.7712 45.0093 39.6123 45.8504 39.6123 46.888C39.6123 47.9256 38.7712 48.7667 37.7336 48.7667Z" fill="white"/>
<defs>
<filter id="filter0_d_294_2618" x="11.4539" y="17.7159" width="52.5461" height="48.8069" filterUnits="userSpaceOnUse" color-interpolation-filters="sRGB">
<feFlood flood-opacity="0" result="BackgroundImageFix"/>
<feColorMatrix in="SourceAlpha" type="matrix" values="0 0 0 0 0 0 0 0 0 0 0 0 0 0 0 0 0 0 127 0" result="hardAlpha"/>
<feOffset dy="4"/>
<feGaussianBlur stdDeviation="5"/>
<feComposite in2="hardAlpha" operator="out"/>
<feColorMatrix type="matrix" values="0 0 0 0 0.0352941 0 0 0 0 0.552941 0 0 0 0 0.901961 0 0 0 0.2 0"/>
<feBlend mode="normal" in2="BackgroundImageFix" result="effect1_dropShadow_294_2618"/>
<feBlend mode="normal" in="SourceGraphic" in2="effect1_dropShadow_294_2618" result="shape"/>
</filter>
</defs>
</svg>
