<svg width="18" height="18" viewBox="0 0 18 18" fill="none" xmlns="http://www.w3.org/2000/svg">
<path d="M9.00012 5.8125V9.75M15.8101 6.435V11.565C15.8101 12.405 15.3601 13.185 14.6326 13.6125L10.1776 16.185C9.45012 16.605 8.55012 16.605 7.81512 16.185L3.36012 13.6125C3.00145 13.4045 2.70382 13.1059 2.49713 12.7465C2.29044 12.3871 2.18197 11.9796 2.18262 11.565V6.435C2.18262 5.595 2.63262 4.815 3.36012 4.3875L7.81512 1.815C8.54262 1.395 9.44262 1.395 10.1776 1.815L14.6326 4.3875C15.3601 4.815 15.8101 5.5875 15.8101 6.435Z" stroke="#4AB0F5" stroke-linecap="round" stroke-linejoin="round"/>
<path d="M9 12.15V12.225" stroke="#4AB0F5" stroke-width="1.5" stroke-linecap="round" stroke-linejoin="round"/>
</svg>
