<svg xmlns="http://www.w3.org/2000/svg" width="20.726" height="20.726" viewBox="0 0 20.726 20.726"><path fill="#60c95c" d="M138.363,128a10.138,10.138,0,0,1,5.2,1.39,10.317,10.317,0,0,1,3.771,3.771,10.43,10.43,0,0,1,0,10.4,10.317,10.317,0,0,1-3.771,3.771,10.43,10.43,0,0,1-10.4,0,10.317,10.317,0,0,1-3.771-3.771,10.429,10.429,0,0,1,0-10.4,10.317,10.317,0,0,1,3.771-3.771A10.138,10.138,0,0,1,138.363,128Zm5.182,11.105a.854.854,0,0,0,0-1.484L136.2,133.3a.809.809,0,0,0-.864-.013.826.826,0,0,0-.432.756v8.636a.826.826,0,0,0,.432.756.958.958,0,0,0,.432.108.825.825,0,0,0,.432-.121Z" transform="translate(-128 -128)"/></svg>