<svg xmlns="http://www.w3.org/2000/svg" width="28.054" height="27.95" viewBox="0 0 28.054 27.95">
  <g id="iconfinder_Share_853347" transform="translate(0.5 0.5)">
    <g id="Group_45" data-name="Group 45" transform="translate(9.143 5.854)">
      <g id="Group_44" data-name="Group 44" transform="translate(0 0)">
        <rect id="Rectangle_50" data-name="Rectangle 50" width="0.899" height="9.018" transform="matrix(0.534, 0.846, -0.846, 0.534, 7.628, 0)" fill="#0062cf" stroke="#0062cf" stroke-width="1"/>
      </g>
    </g>
    <g id="Group_54" data-name="Group 54" transform="translate(0 0)">
      <g id="Group_47" data-name="Group 47" transform="translate(0 8.19)">
        <g id="Group_46" data-name="Group 46">
          <path id="Path_178" data-name="Path 178" d="M5.26,17.872a5.284,5.284,0,1,1,5.286-5.284A5.29,5.29,0,0,1,5.26,17.872Zm0-9.67a4.384,4.384,0,1,0,4.385,4.385A4.39,4.39,0,0,0,5.26,8.2Z" transform="translate(0.024 -7.303)" fill="#0062cf" stroke="#0062cf" stroke-width="1"/>
        </g>
      </g>
      <g id="Group_49" data-name="Group 49" transform="translate(16.486)">
        <g id="Group_48" data-name="Group 48">
          <path id="Path_179" data-name="Path 179" d="M19.913,10.593A5.285,5.285,0,1,1,25.2,5.307,5.291,5.291,0,0,1,19.913,10.593Zm0-9.67A4.385,4.385,0,1,0,24.3,5.307,4.391,4.391,0,0,0,19.913.923Z" transform="translate(-14.629 -0.023)" fill="#0062cf" stroke="#0062cf" stroke-width="1"/>
        </g>
      </g>
      <g id="Group_51" data-name="Group 51" transform="translate(16.486 16.381)">
        <g id="Group_50" data-name="Group 50">
          <path id="Path_180" data-name="Path 180" d="M19.913,25.152A5.284,5.284,0,1,1,25.2,19.867,5.29,5.29,0,0,1,19.913,25.152Zm0-9.671A4.385,4.385,0,1,0,24.3,19.866,4.392,4.392,0,0,0,19.913,15.481Z" transform="translate(-14.629 -14.583)" fill="#0062cf" stroke="#0062cf" stroke-width="1"/>
        </g>
      </g>
      <g id="Group_53" data-name="Group 53" transform="translate(8.737 16.04)">
        <g id="Group_52" data-name="Group 52" transform="translate(0 0)">
          <rect id="Rectangle_51" data-name="Rectangle 51" width="8.94" height="0.901" transform="translate(0.427 0) rotate(28.287)" fill="#0062cf" stroke="#0062cf" stroke-width="1"/>
        </g>
      </g>
    </g>
  </g>
</svg>
