<svg xmlns="http://www.w3.org/2000/svg" width="25.129" height="24.937" viewBox="0 0 25.129 24.937"><g fill="#909090" transform="translate(-6.711 -6.822)"><path d="M28.371,26.228a1.968,1.968,0,0,0,3.722.9l.005,0,3.6-6.5-6.325,3.879.006.006A1.967,1.967,0,0,0,28.371,26.228Z" data-name="Path 301" transform="translate(-10.881 -6.936)"/><path d="M40.622,9.887A12.543,12.543,0,0,0,33,6.822v3A8.5,8.5,0,0,1,38.426,12Z" data-name="Path 302" transform="translate(-13.206)"/><path d="M48.818,22.48h3a12.067,12.067,0,0,0-3.183-7.45l-2.12,2.107A9.573,9.573,0,0,1,48.818,22.48Z" data-name="Path 303" transform="translate(-19.994 -4.123)"/><path d="M28.838,19.85a9.521,9.521,0,0,1-9.476,8.924A9.643,9.643,0,0,1,9.7,19.279a9.7,9.7,0,0,1,8.6-9.457v-3A12.427,12.427,0,0,0,6.711,19.292,12.553,12.553,0,0,0,19.283,31.76,12.7,12.7,0,0,0,31.84,19.85Z" data-name="Path 304" transform="translate(0 -0.001)"/></g></svg>