<svg height="20px"
              viewBox="0 -112 512.00021 512"
              width="20px"
              xmlns="http://www.w3.org/2000/svg">
              <path d="m351.996094 143.996094c0 53.019531-42.980469 96-96 96-53.015625 0-95.996094-42.980469-95.996094-96 0-53.019532 42.980469-95.996094 95.996094-95.996094 53.019531 0 96 42.976562 96 95.996094zm0 0"
              fill="#3d9ae2"/>
              <g fill="#3d9ae2">
                <path d="m508.25 133.710938c-4.59375-5.457032-113.839844-133.710938-252.253906-133.710938-138.414063 0-247.65625 128.253906-252.25 133.710938-4.996094 5.949218-4.996094 14.625 0 20.574218 4.59375 5.457032 113.835937 133.710938 252.25 133.710938 138.414062 0 247.660156-128.253906 252.253906-133.710938 5-5.949218 5.003906-14.628906 0-20.574218zm-252.253906 122.285156c-101.835938 0-190.058594-82.527344-218.316406-112 28.257812-29.46875 116.480468-111.996094 218.316406-111.996094 101.839844 0 190.0625 82.527344 218.316406 111.996094-28.253906 29.472656-116.476562 112-218.316406 112zm0 0"/>
                <path d="m367.996094 143.996094c0-61.855469-50.144532-111.996094-112-111.996094-61.851563 0-111.996094 50.140625-111.996094 111.996094 0 61.855468 50.144531 112 111.996094 112 61.828125-.070313 111.929687-50.171875 112-112zm-112 80c-44.179688 0-79.996094-35.816406-79.996094-80 0-44.179688 35.816406-79.996094 79.996094-79.996094 44.183594 0 80 35.816406 80 79.996094-.050782 44.160156-35.839844 79.945312-80 80zm0 0"/>
              </g>
            </svg>