<svg width="24" height="24" viewBox="0 0 24 24" fill="none" xmlns="http://www.w3.org/2000/svg">
<path d="M14.5 12C15.8261 12 17.0979 11.4732 18.0356 10.5355C18.9733 9.59785 19.5 8.32608 19.5 7C19.5 5.67392 18.9733 4.40215 18.0356 3.46447C17.0979 2.52678 15.8261 2 14.5 2C13.174 2 11.9022 2.52678 10.9645 3.46447C10.0268 4.40215 11.5 6.17392 11.5 7.5C11.5 8.82608 12.0623 8.06232 13 9C13.9377 9.93768 13.174 12 14.5 12ZM14.5 14.5C12.0619 14.5 9.8441 15.2957 8.20954 16.5898C6.48525 17.955 5.41003 19.8747 5.41003 22C5.41003 22.28 5.63003 22.5 5.91003 22.5H23.09C23.37 22.5 23.59 22.28 23.59 22C23.59 17.86 19.51 14.5 14.5 14.5Z" fill="white"/>
<path d="M7.35659 12.157C7.86235 12.157 8.34741 11.9561 8.70504 11.5984C9.06267 11.2408 9.26359 10.7558 9.26359 10.25C9.26359 9.74422 9.06267 9.25917 8.70504 8.90153C8.34741 8.5439 7.86235 8.34299 7.35659 8.34299C6.85082 8.34299 6.36576 8.5439 6.00813 8.90153C5.6505 9.25917 5.44958 9.74422 5.44958 10.25C5.44958 10.7558 5.6505 11.2408 6.00813 11.5984C6.36576 11.9561 6.85082 12.157 7.35659 12.157Z" stroke="white" stroke-width="1.5" stroke-miterlimit="10" stroke-linecap="round" stroke-linejoin="round"/>
<path d="M1 10.8094V9.69061C1 9.02952 1.54032 8.48285 2.20777 8.48285C3.35833 8.48285 3.82872 7.66919 3.25026 6.67119C2.91972 6.09909 3.11677 5.35536 3.69523 5.02482L4.79493 4.39551C5.29711 4.09674 5.94549 4.27473 6.24425 4.77691L6.31418 4.89768C6.88628 5.89568 7.82707 5.89568 8.40552 4.89768L8.47545 4.77691C8.77421 4.27473 9.42259 4.09674 9.92477 4.39551L11.0245 5.02482C11.6029 5.35536 11.8 6.09909 11.4694 6.67119C10.891 7.66919 11.3614 8.48285 12.5119 8.48285C13.173 8.48285 13.7197 9.02316 13.7197 9.69061V10.8094C13.7197 11.4705 13.1794 12.0172 12.5119 12.0172C11.3614 12.0172 10.891 12.8308 11.4694 13.8288C11.8 14.4073 11.6029 15.1446 11.0245 15.4752L9.92477 16.1045C9.42259 16.4033 8.77421 16.2253 8.47545 15.7231L8.40552 15.6023C7.83342 14.6043 6.89264 14.6043 6.31418 15.6023L6.24425 15.7231C5.94549 16.2253 5.29711 16.4033 4.79493 16.1045L3.69523 15.4752C3.41814 15.3156 3.21567 15.0527 3.13225 14.744C3.04883 14.4354 3.09127 14.1062 3.25026 13.8288C3.82872 12.8308 3.35833 12.0172 2.20777 12.0172C1.54032 12.0172 1 11.4705 1 10.8094Z" stroke="white" stroke-width="1.5" stroke-miterlimit="10" stroke-linecap="round" stroke-linejoin="round"/>
</svg>
