<svg width="24" height="24" viewBox="0 0 24 24" fill="none" xmlns="http://www.w3.org/2000/svg">
<path d="M8.92444 17.1226L8.72837 17.2207L7.74805 17.8088L8.72837 17.2452L8.92444 17.1226Z" fill="#098DE6"/>
<path d="M12.0122 12.2206C12.7228 12.2206 13.3845 12.6128 13.7522 13.2255C14.2914 14.1814 13.9727 15.4069 13.017 15.9461C12.723 16.1178 12.3799 16.2157 12.0122 16.2157C11.3016 16.2157 10.6399 15.8235 10.2722 15.2108C9.73307 14.2549 10.0517 13.0294 11.0074 12.4902C11.3261 12.3187 11.6691 12.2206 12.0122 12.2206ZM12.0122 11.7304C11.5956 11.7304 11.1544 11.8284 10.7624 12.0735C9.58621 12.7598 9.16965 14.2793 9.85577 15.4559C10.3214 16.2648 11.1546 16.7059 12.0123 16.7059C12.4289 16.7059 12.8701 16.6079 13.2621 16.3628C14.4383 15.6765 14.8549 14.157 14.1688 12.9804C13.7031 12.1717 12.87 11.7304 12.0122 11.7304Z" fill="#098DE6" stroke="#098DE6" stroke-width="0.3"/>
<path d="M13.9728 10.2108V11.3384C14.8795 11.9511 15.4186 12.9314 15.4921 13.9854L16.4723 14.5491C16.5948 12.9069 15.7861 11.2648 14.2422 10.3825C14.1442 10.2843 14.0463 10.2353 13.9728 10.2108Z" fill="#098DE6"/>
<path d="M10.052 10.2108C9.26774 10.5784 8.6062 11.1911 8.14055 12C7.67489 12.8089 7.50343 13.6912 7.55236 14.5489L8.53251 13.9853C8.58157 13.4705 8.72858 12.9558 8.99817 12.4901C9.26774 12.0244 9.63528 11.6322 10.0765 11.3382L10.0766 10.2108H10.052Z" fill="#098DE6"/>
<path d="M12.0124 2.49018C12.5024 2.49018 13.0172 2.61276 13.4337 2.88238C14.806 3.66678 15.2717 5.43132 14.4874 6.80405C14.2669 7.17163 13.9973 7.46586 13.6542 7.71087C13.4091 7.88252 13.1151 8.02955 12.8211 8.12752L12.5024 8.22565V10.2598C12.3308 10.2354 12.1838 10.2354 12.0124 10.2354C11.8407 10.2354 11.6937 10.2354 11.5223 10.2598V8.20123L11.1792 8.10326C10.9587 8.02975 10.7626 7.95623 10.591 7.83365C10.4931 7.78458 10.4194 7.73568 10.3459 7.68661C9.14505 6.82868 8.7775 5.21116 9.53719 3.91218C10.0274 3.02947 10.9832 2.49018 12.0124 2.49018ZM12.0124 2.0001C10.8606 2.0001 9.70878 2.61285 9.09613 3.69133C8.21391 5.2109 8.65511 7.12262 10.0519 8.10311C10.1498 8.17662 10.2235 8.22569 10.3214 8.27476C10.5419 8.39734 10.7871 8.49531 11.032 8.56882V10.8482C11.3506 10.7502 11.6691 10.7011 12.0122 10.7011C12.3308 10.7011 12.6739 10.7502 12.9923 10.8482V9.13251L12.9925 8.56882C13.3356 8.47086 13.6787 8.29921 13.9726 8.10309C14.3648 7.83348 14.6832 7.46588 14.9284 7.04926C15.8597 5.43156 15.2959 3.37277 13.7031 2.46591C13.1641 2.14705 12.576 2.0001 12.0124 2.0001Z" fill="#098DE6" stroke="#098DE6" stroke-width="0.8"/>
<path d="M4.34192 15.7745C4.832 15.7745 5.34671 15.8971 5.76327 16.1667C5.95934 16.2647 6.13079 16.4119 6.27799 16.5589L6.54756 16.8041L6.86619 16.6324L6.98876 16.5589L7.96891 15.9952L8.06686 15.9217L8.16481 15.8726L8.31182 15.7747C8.43438 16.0687 8.60584 16.363 8.80189 16.608L8.65488 16.7059L8.45881 16.8285L7.47866 17.3922L7.3561 17.4657L7.06208 17.6374L7.13558 17.9805C7.30721 18.6912 7.18464 19.4265 6.81695 20.0639C6.30224 20.9463 5.3465 21.51 4.3173 21.51C3.82722 21.51 3.31251 21.3874 2.89595 21.1178C2.23424 20.7256 1.76859 20.1128 1.54808 19.3775C1.35201 18.6421 1.45013 17.8579 1.84209 17.1961C2.38158 16.3138 3.33731 15.7745 4.34192 15.7745ZM8.63047 15.0394L7.94431 15.4314L7.74824 15.554L6.76808 16.1177L6.64552 16.1912C6.47389 16.0195 6.25338 15.8725 6.03287 15.7254C5.49374 15.4314 4.93014 15.2844 4.36655 15.2844C3.21477 15.2844 2.06294 15.8971 1.45029 16.9756C0.519021 18.5933 1.08277 20.6521 2.67559 21.5589C3.21472 21.853 3.77832 22 4.34191 22C5.49369 22 6.64552 21.3873 7.25817 20.3088C7.69919 19.549 7.7973 18.6666 7.62569 17.8578L7.74825 17.7843L8.7284 17.2206L8.92447 17.098L9.58618 16.7058C9.1207 16.2649 8.77751 15.6765 8.63047 15.0394Z" fill="#098DE6" stroke="#098DE6" stroke-width="0.8"/>
<path d="M19.6828 15.7745C20.1728 15.7745 20.6876 15.8971 21.1041 16.1667C22.4764 16.9511 22.9421 18.7157 22.1578 20.0884C21.6431 20.9708 20.6873 21.5344 19.6581 21.5344C19.1681 21.5344 18.6533 21.4119 18.2368 21.1422C17.1585 20.505 16.5949 19.2305 16.8645 18.005L16.938 17.6618L16.6194 17.4902L16.2272 17.2696L15.5166 16.853L15.2226 16.6813L15.1736 16.6569C15.2715 16.5343 15.3696 16.3873 15.4431 16.2402C15.5166 16.0932 15.5902 15.9462 15.6637 15.7992L15.7127 15.8236L16.0067 15.9953L16.7173 16.4119L17.1095 16.6325L17.4281 16.8041L17.6977 16.5589C18.2368 16.0441 18.9475 15.7745 19.6828 15.7745ZM15.3942 15.0394C15.3207 15.358 15.1982 15.6521 15.0267 15.9462C14.8551 16.2403 14.6592 16.5099 14.4141 16.7306L14.9777 17.0493L15.2717 17.2209L15.9823 17.6376L16.3744 17.8581C16.0558 19.2553 16.644 20.7748 17.9672 21.5346C18.5063 21.8287 19.0699 21.9757 19.6335 21.9757C20.7853 21.9757 21.9371 21.3629 22.5498 20.2845C23.481 18.6668 22.9173 16.608 21.3245 15.7011C20.7853 15.4071 20.2217 15.26 19.6582 15.26C18.8004 15.26 17.9918 15.5787 17.3545 16.1669L16.9624 15.9463L16.2518 15.5297L15.9578 15.358L15.3942 15.0394Z" fill="#098DE6" stroke="#098DE6" stroke-width="0.8"/>
<path d="M10.493 17.3429L9.51282 17.9066C9.61077 17.9557 9.68444 18.0292 9.78239 18.0782C10.493 18.4949 11.2528 18.6665 12.0125 18.6665C12.8947 18.6665 13.7769 18.3969 14.5121 17.9068L13.532 17.3431C13.0663 17.5636 12.5272 17.6862 12.0127 17.6862C11.4976 17.6862 10.9831 17.5881 10.493 17.3429Z" fill="#098DE6"/>
</svg>
