<svg width="24" height="24" viewBox="0 0 24 24" fill="none" xmlns="http://www.w3.org/2000/svg">
<path d="M8.9138 17.1118L8.718 17.2344L7.73901 17.7983L8.718 17.2099L8.9138 17.1118Z" fill="black"/>
<path d="M14.469 14.1943C14.469 15.5619 13.3625 16.6706 11.9973 16.6706C10.6321 16.6706 9.52563 15.5619 9.52563 14.1943C9.52563 12.8268 10.6321 11.718 11.9973 11.718C13.3625 11.718 14.469 12.8268 14.469 14.1943Z" fill="white"/>
<path d="M14.2243 10.3451C14.1265 10.296 14.0529 10.2471 13.9551 10.198V11.3259C14.8605 11.9388 15.3989 12.9194 15.4723 13.9738L16.4511 14.5376C16.5491 12.8704 15.7415 11.2277 14.2243 10.3451Z" fill="white"/>
<path d="M8.52223 13.949C8.57122 13.4341 8.71803 12.9193 8.98725 12.4535C9.25647 11.9876 9.62349 11.5953 10.0641 11.3011V10.1732C9.28087 10.5409 8.62025 11.1539 8.15523 11.963C7.69021 12.7721 7.51899 13.6547 7.56785 14.5127L8.52223 13.949Z" fill="white"/>
<path d="M10.0394 8.08943C10.1372 8.16297 10.2108 8.21205 10.3086 8.26113C10.5288 8.38375 10.7737 8.48175 11.0182 8.55529V10.8353C11.6545 10.6636 12.3153 10.6392 12.9761 10.8353V8.55529C13.3187 8.45729 13.6613 8.28559 13.9549 8.08941C14.3465 7.81971 14.6645 7.452 14.9093 7.03525C15.8393 5.41706 15.2763 3.35764 13.6857 2.4505C12.0705 1.5188 10.0148 2.08281 9.10935 3.67637C8.22852 5.17176 8.64451 7.08411 10.0393 8.0895L10.0394 8.08943Z" fill="white"/>
<path d="M8.71801 17.2099L8.91381 17.0873L9.57461 16.6949C9.0852 16.2291 8.76702 15.6408 8.5958 15.0032L7.93483 15.42L7.73903 15.5426L6.76022 16.1065L6.63782 16.18C6.46643 16.0083 6.24622 15.8612 6.02601 15.7141C4.41079 14.7824 2.35515 15.3464 1.44967 16.94C0.51968 18.5582 1.08266 20.6176 2.67329 21.5247C4.28852 22.4564 6.34415 21.8924 7.24963 20.2989C7.69005 19.5389 7.78802 18.6562 7.61665 17.8471L7.73904 17.7736L8.71801 17.2099Z" fill="white"/>
<path d="M21.3214 15.7143C19.9999 14.9543 18.3847 15.1749 17.3569 16.1802L16.9653 15.9595L16.2557 15.5428L15.9621 15.3711L15.3992 15.0523C15.3258 15.3711 15.2034 15.6652 15.0322 15.9594C14.8608 16.2535 14.6652 16.5232 14.4204 16.744L14.9832 17.0628L15.2768 17.2345L15.9865 17.6513L16.3781 17.8719C16.0599 19.2695 16.6473 20.7895 17.9687 21.5495C19.5839 22.4812 21.6395 21.9172 22.545 20.3236C23.475 18.7054 22.9366 16.6459 21.3214 15.7144L21.3214 15.7143Z" fill="white"/>
<path d="M10.48 17.3324L9.50122 17.8963C9.59904 17.9453 9.67261 18.0189 9.77043 18.068C11.2877 18.9506 13.1231 18.828 14.4936 17.8963L13.5148 17.3324C12.5848 17.7983 11.459 17.8229 10.4802 17.3324H10.48Z" fill="white"/>
</svg>
