<svg xmlns="http://www.w3.org/2000/svg" width="24.023" height="20.995" viewBox="0 0 24.023 20.995">
  <g id="Processes" transform="translate(0 -0.051)">
    <g id="web-programming_1_" data-name="web-programming (1)" transform="translate(0 0.051)">
      <path id="Shape" d="M0,13.042a2,2,0,0,0,2,2H22.021a2,2,0,0,0,2-2V0H0Z" transform="translate(0 5.951)" fill="#00a0e3"/>
      <path id="Shape-2" data-name="Shape" d="M24.023,5.1H0V2A2.007,2.007,0,0,1,2,0H22.021a2.008,2.008,0,0,1,2,2V5.1ZM10.536,1.243h0a1.344,1.344,0,0,0,0,2.687h0a1.344,1.344,0,0,0,0-2.687Zm-4.13-.012a1.344,1.344,0,0,0,0,2.687h0a1.344,1.344,0,0,0,0-2.687ZM2.275,1.214A1.346,1.346,0,1,0,3.621,2.558,1.346,1.346,0,0,0,2.275,1.214Z" transform="translate(0 0)" fill="#00a0e3"/>
    </g>
  </g>
</svg>
