<svg xmlns="http://www.w3.org/2000/svg" width="20" height="20.206" viewBox="0 0 20 20.206">
  <path id="Workspace" d="M104.376,1646.261l9.624-.024v4.74l-9.624.023ZM94,1647.356l8.244-.019v3.645L94,1651Zm0-3.658,8.244-.021v2.724l-8.244.021Zm10.376-1.583,9.624-.023v2.962l-9.624.024ZM94,1640.035l8.244-.022v2.725L94,1642.76Zm10.376-2.068,9.624-.024v2.963l-9.624.023ZM94,1639.1v-.864a4.144,4.144,0,0,1,8.244,0v.864Zm10.376-2.315v-1.118a4.809,4.809,0,0,1,9.616-.127c0,.042,0,.084,0,.127v1.118Z" transform="translate(-94 -1630.794)" fill="#00a0e3"/>
</svg>
