<svg xmlns="http://www.w3.org/2000/svg" width="20.001" height="20.001" viewBox="0 0 20.001 20.001">
  <g id="brush1" transform="translate(1087.469 -257.854)">
    <path id="Path_1081" data-name="Path 1081" d="M-1080.387,451.349c.55.552,1.093,1.1,1.637,1.644q1.8,1.8,3.606,3.6a.273.273,0,0,1,.08.323,21.107,21.107,0,0,1-2.869,5.695c-.209.3-.427.594-.648.885a.7.7,0,0,1-.8.254,7.622,7.622,0,0,1-2.9-1.49,15.046,15.046,0,0,1-4.681-6.245,11.344,11.344,0,0,1-.475-1.731c-.1-.433.065-.6.513-.624a18.958,18.958,0,0,0,2.048-.147,9.646,9.646,0,0,0,4.286-2C-1080.529,451.463-1080.464,451.41-1080.387,451.349Z" transform="translate(0 -185.93)" fill="#272727"/>
    <path id="Path_1082" data-name="Path 1082" d="M-876.774,269.9l-5.273-5.326c.287-.292.589-.638.931-.939a1.218,1.218,0,0,1,1.629.045c.162.149.3.323.467.5.338-.341.639-.647.943-.951q2.383-2.384,4.77-4.765a2.11,2.11,0,0,1,.557-.423,1.941,1.941,0,0,1,2.347.525,1.9,1.9,0,0,1-.1,2.4c-.175.193-.365.374-.549.559q-2.563,2.564-5.128,5.127a2.522,2.522,0,0,1-.209.161c.171.147.316.257.445.385a1.25,1.25,0,0,1,.005,1.862C-876.214,269.337-876.491,269.612-876.774,269.9Z" transform="translate(-197.445)" fill="#272727"/>
  </g>
</svg>
