<svg xmlns="http://www.w3.org/2000/svg" width="20.199" height="18.895" viewBox="0 0 20.199 18.895">
  <path id="chat" d="M27.024,24.542a7.923,7.923,0,0,0,2.465-5.664c0-4.765-4.531-8.637-10.1-8.637s-10.1,3.872-10.1,8.637,4.531,8.644,10.1,8.644a11.514,11.514,0,0,0,4.058-.728L27.2,29.018a.886.886,0,0,0,.446.117.865.865,0,0,0,.8-1.208Zm-1.847.11.639,1.517-1.847-1.1a.92.92,0,0,0-.446-.117.8.8,0,0,0-.336.069,9.708,9.708,0,0,1-3.8.755c-4.607,0-8.356-3.1-8.356-6.866s3.749-6.866,8.356-6.866,8.356,3.09,8.356,6.866a6.289,6.289,0,0,1-2.334,4.806A.865.865,0,0,0,25.178,24.651ZM14.3,18.96a1.167,1.167,0,1,0,1.16-1.16,1.167,1.167,0,0,0-1.16,1.16Zm3.776,0a1.167,1.167,0,1,0,1.167-1.16,1.167,1.167,0,0,0-1.167,1.16Zm3.783,0a1.167,1.167,0,1,0,1.16-1.16,1.167,1.167,0,0,0-1.16,1.16Z" transform="translate(-9.29 -10.24)" fill="#fff"/>
</svg>
