<svg id="copy" xmlns="http://www.w3.org/2000/svg" width="18.48" height="21.12" viewBox="0 0 18.48 21.12">
  <path id="Path_560" data-name="Path 560" d="M109.923,5.44a.453.453,0,0,0-.1-.274q-2.195-2.529-4.4-5.051a.346.346,0,0,0-.295-.134c-2.549,0-5.1,0-7.649,0a2.68,2.68,0,0,0-2.435,1.495,2.593,2.593,0,0,0-.3,1.144c-.011.2-.017.421-.016.648s.008.445.021.652v.2c.006.074.013.148.021.222-.009-.073-.016-.147-.021-.222V15.671a2.744,2.744,0,0,0,2.089,2.715,2.7,2.7,0,0,0,.669.074q3.781.008,7.562,0h2.141a2.743,2.743,0,0,0,2.718-2.726Q109.929,10.588,109.923,5.44Zm-4.618-3.873V1.382l.037-.014,3.264,3.9h-.232c-.513,0-1.026-.018-1.538.006a1.043,1.043,0,0,1-.935-.452,2.7,2.7,0,0,1-.6-1.677C105.307,2.615,105.305,2.091,105.305,1.567Zm3.3,5.217V15.7a1.388,1.388,0,0,1-1.448,1.448H97.523a1.38,1.38,0,0,1-1.452-1.458V2.76A1.382,1.382,0,0,1,97.525,1.3h6.461v.211c0,.79,0,1.58,0,2.37a2.719,2.719,0,0,0,2.682,2.7c.577.006,1.154,0,1.731,0h.211Z" transform="translate(-91.448 0.019)"/>
  <path id="Path_561" data-name="Path 561" d="M.007,154.57q0,6.539,0,13.078a2.734,2.734,0,0,0,2.7,2.689q4.859,0,9.717,0h.007l-.021-1.32q-4.827,0-9.654,0a1.384,1.384,0,0,1-1.43-1.43V154.6Z" transform="translate(-0.005 -149.219)"/>
  <path id="Path_562" data-name="Path 562" d="M213.47,268.585c-.975,0-1.95,0-2.925,0a.654.654,0,0,1-.7-.655.645.645,0,0,1,.527-.639,1.268,1.268,0,0,1,.24-.021l5.729,0a1.008,1.008,0,0,1,.37.065.65.65,0,0,1-.233,1.244c-.467.009-.935,0-1.4,0Z" transform="translate(-202.586 -258.017)"/>
  <path id="Path_563" data-name="Path 563" d="M213.458,363.738c-.969,0-1.938,0-2.908,0a.654.654,0,0,1-.705-.647.646.646,0,0,1,.517-.647,1.257,1.257,0,0,1,.258-.023l5.712,0a.739.739,0,0,1,.6.223.627.627,0,0,1,.125.677.619.619,0,0,1-.548.413,2.2,2.2,0,0,1-.225.007Z" transform="translate(-202.582 -349.874)"/>
</svg>
