<svg id="Layer_1" data-name="Layer 1" xmlns="http://www.w3.org/2000/svg" viewBox="0 0 32 32"><defs><style>.cls-1{stroke:#000;stroke-miterlimit:10;stroke-width:0.6px;}</style></defs><path id="Path_560" data-name="Path 560" class="cls-1" d="M29.11,8.76A.62.62,0,0,0,29,8.37L22.72,1.2A.48.48,0,0,0,22.3,1H11.44A3.82,3.82,0,0,0,8,3.13a3.68,3.68,0,0,0-.42,1.62c0,.29,0,.6,0,.93s0,.63,0,.92v.28a1.73,1.73,0,0,0,0,.32,1.66,1.66,0,0,1,0-.32V23.29a3.87,3.87,0,0,0,3,3.85,3.8,3.8,0,0,0,1,.11H25.26a3.9,3.9,0,0,0,3.86-3.87Q29.12,16.06,29.11,8.76Zm-6.56-5.5V3l.06,0,4.63,5.53h-.33c-.73,0-1.46,0-2.18,0a1.46,1.46,0,0,1-1.33-.64,3.81,3.81,0,0,1-.85-2.38C22.56,4.75,22.55,4,22.55,3.26Zm4.69,7.41V23.33a2,2,0,0,1-1.88,2.05.54.54,0,0,1-.18,0H11.5a2,2,0,0,1-2.06-1.85V5a2,2,0,0,1,1.85-2.07h9.39V6.55a3.87,3.87,0,0,0,3.81,3.83h2.76Z"/><path id="Path_561" data-name="Path 561" class="cls-1" d="M2.88,8.61V27.17A3.88,3.88,0,0,0,6.72,31h13.8l0-1.87H6.78a2,2,0,0,1-2-1.9V8.65Z"/><path id="Path_562" data-name="Path 562" class="cls-1" d="M18.33,16H14.18a.92.92,0,0,1-1-.86v-.07a.9.9,0,0,1,.74-.9l.34,0h8.14a1.14,1.14,0,0,1,.52.09A.92.92,0,0,1,22.6,16c-.66,0-1.32,0-2,0Z"/><path id="Path_563" data-name="Path 563" class="cls-1" d="M18.32,20.69H14.19a.93.93,0,0,1-1-.85v-.07a.9.9,0,0,1,.74-.91,1.47,1.47,0,0,1,.36,0H22.4a1,1,0,0,1,.85.32.93.93,0,0,1-.6,1.55H18.32Z"/></svg>