<svg id="Deploy" xmlns="http://www.w3.org/2000/svg" width="24" height="24" viewBox="0 0 24 24">
  <path id="Path_836" data-name="Path 836" d="M0,0H24V24H0Z" fill="none"/>
  <g id="deployment-unit_1" transform="translate(2.039 -21.7)">
    <path id="Path_860" data-name="Path 860" d="M18.671,37.878a2.575,2.575,0,0,0-2.992.3l-1.226-.708v-3.5a1.017,1.017,0,0,0-.508-.88L10.8,31.281V29.732a2.593,2.593,0,1,0-1.672,0v1.549L5.978,33.087a1.009,1.009,0,0,0-.508.88v3.495l-1.226.708a2.587,2.587,0,1,0,.828,1.44L6.2,38.956l3.253,1.868a1.014,1.014,0,0,0,1.015,0l3.253-1.864,1.129.654a2.581,2.581,0,1,0,3.82-1.736ZM3.1,41.073a1.1,1.1,0,0,1-1.5-.4l0-.008A1.1,1.1,0,0,1,3.5,39.555l0,.008A1.106,1.106,0,0,1,3.1,41.073ZM8.852,27.288a1.111,1.111,0,1,1,1.09,1.086A1.11,1.11,0,0,1,8.852,27.288Zm3.933,10.29L9.962,39.2,7.138,37.578V34.34l2.824-1.623,2.824,1.623Zm5.554,3.09a1.105,1.105,0,1,1-.406-1.51A1.1,1.1,0,0,1,18.339,40.668Z" transform="translate(0 0)" fill="#607088"/>
  </g>
</svg>
