<svg xmlns="http://www.w3.org/2000/svg" xmlns:xlink="http://www.w3.org/1999/xlink" width="24" height="24" viewBox="0 0 24 24">
  <defs>
    <clipPath id="clip-difference">
      <rect width="24" height="24"/>
    </clipPath>
  </defs>
  <g id="difference" clip-path="url(#clip-difference)">
    <g id="Group_2527" data-name="Group 2527" transform="translate(-1455.923 -86)">
      <path id="Path_969" data-name="Path 969" d="M1496.986,156.306a2.642,2.642,0,0,1-1.578-1.326c-.049-.1-.294-.151-.448-.152-1.279-.012-2.56,0-3.839-.007-.792,0-.982-.188-.99-.952,0-.476.16-1.071-.063-1.405-.207-.312-.826-.35-1.264-.509a7.32,7.32,0,0,1,1.136-14.071c.792-.152,1.1.094,1.1.9,0,.977-.014,1.955.007,2.931a.861.861,0,0,1-.61.933,2.549,2.549,0,0,0-1.689,2.718,2.588,2.588,0,0,0,5.013.595.874.874,0,0,1,.929-.624c.995.012,1.991,0,2.986,0,.726,0,.98.331.845,1.054a7.286,7.286,0,0,1-6.657,5.98c-.087.006-.173.018-.3.031v1.017c1.208,0,2.428.006,3.647-.012.094,0,.213-.157.275-.267a2.222,2.222,0,0,1,2.1-1.2H1501a2.226,2.226,0,0,1,2.38,1.847,2.191,2.191,0,0,1-1.712,2.459.446.446,0,0,0-.09.056Zm-.011-9.585c-.534,0-1.032.023-1.527-.008a.676.676,0,0,0-.714.4A3.945,3.945,0,0,1,1490.6,149a4,4,0,0,1-1.292-7.4c.134-.084.317-.228.324-.357.035-.6.016-1.19.016-1.8-2.248.313-4.321,3.1-4.284,5.679a6,6,0,0,0,5.152,5.824,5.915,5.915,0,0,0,6.455-4.236Zm2.367,8.193c.587,0,1.173.008,1.76,0a.807.807,0,0,0,.9-.776.8.8,0,0,0-.874-.8q-1.785-.017-3.57,0a.8.8,0,0,0-.895.778c-.006.483.343.791.926.8s1.173,0,1.756,0Z" transform="translate(-24.319 -46.306)" fill="#607088"/>
      <path id="Path_970" data-name="Path 970" d="M1463.174,86a2.625,2.625,0,0,1,1.578,1.326c.047.1.294.151.448.152,1.6.011,3.2.006,4.8.007.89,0,1.071.189,1.071,1.1,0,.533.02,1.071-.007,1.6a.534.534,0,0,0,.357.565,8.252,8.252,0,0,1,4.411,6c.13.684-.136,1-.854,1h-6.08c-.639,0-.859-.221-.862-.869q-.008-2.985,0-5.97c0-.854.279-1.088,1.11-.944.155.027.309.063.5.1V88.883c-1.333,0-2.644.014-3.954-.007-.528-.008-.938.01-1.246.589a1.883,1.883,0,0,1-1.77.895q-1.814.008-3.626,0a2.205,2.205,0,0,1-2.267-1.846,2.171,2.171,0,0,1,1.666-2.44.822.822,0,0,0,.141-.074Zm11.085,10.335a6.52,6.52,0,0,0-4.816-4.779v4.779Zm-13.393-7.36c.569,0,1.139.007,1.708,0s.931-.322.921-.806a.8.8,0,0,0-.9-.772q-1.76-.013-3.521,0c-.58,0-.932.322-.922.8s.369.77.952.776S1460.282,88.975,1460.865,88.975Z" transform="translate(0)" fill="#607088"/>
    </g>
  </g>
</svg>
