<svg xmlns="http://www.w3.org/2000/svg" width="25.024" height="23.45" viewBox="0 0 25.024 23.45">
  <g id="Discussions" transform="translate(0.403 0.4)">
    <path id="Path_539" data-name="Path 539" d="M23.427,34.851a8.189,8.189,0,0,0,.792-3.538A8.309,8.309,0,0,0,16.3,23.046,8.305,8.305,0,0,0,0,25.259,8.189,8.189,0,0,0,.793,28.8L.014,32.688a.71.71,0,0,0,.833.835l3.939-.779a8.16,8.16,0,0,0,3.13.782A8.291,8.291,0,0,0,19.432,38.8c4.314.853,3.978.792,4.077.792a.71.71,0,0,0,.7-.849ZM5.208,31.369a.71.71,0,0,0-.461-.064l-3.133.619.617-3.086a.709.709,0,0,0-.064-.462,6.785,6.785,0,0,1-.748-3.118A6.887,6.887,0,0,1,14.838,23.1a8.288,8.288,0,0,0-7.186,8.982,6.756,6.756,0,0,1-2.444-.715Zm16.78,3.523.617,3.086-3.133-.619a.71.71,0,0,0-.461.064,6.785,6.785,0,0,1-3.118.748A6.859,6.859,0,1,1,22.8,31.313a6.785,6.785,0,0,1-.748,3.118A.709.709,0,0,0,21.988,34.893Z" transform="translate(0 -16.981)" fill="#fff" stroke="#fff" stroke-width="0.8"/>
  </g>
</svg>
