<svg xmlns="http://www.w3.org/2000/svg" width="21.003" height="19.705" viewBox="0 0 21.003 19.705">
  <g id="Discussions" transform="translate(0.404 0.425)">
    <path id="Path_539" data-name="Path 539" d="M19.539,31.879a6.828,6.828,0,0,0,.66-2.948,6.929,6.929,0,0,0-6.6-6.894A6.925,6.925,0,0,0,0,23.881a6.829,6.829,0,0,0,.66,2.948L.012,30.073a.59.59,0,0,0,.695.7l3.285-.649a6.8,6.8,0,0,0,2.611.652,6.914,6.914,0,0,0,9.6,4.4c3.6.711,3.317.66,3.4.66a.59.59,0,0,0,.58-.707Zm-15.2-2.9a.59.59,0,0,0-.384-.054l-2.611.516.515-2.574a.59.59,0,0,0-.053-.386,5.658,5.658,0,0,1-.623-2.6,5.743,5.743,0,0,1,11.189-1.8,6.911,6.911,0,0,0-5.992,7.49,5.634,5.634,0,0,1-2.038-.6Zm13.992,2.938.515,2.574-2.611-.516a.59.59,0,0,0-.384.054,5.658,5.658,0,0,1-2.6.623,5.719,5.719,0,1,1,5.759-5.719,5.658,5.658,0,0,1-.623,2.6.59.59,0,0,0-.055.386Z" transform="translate(0 -16.981)" fill="#fff" stroke="#fff" stroke-width="0.8"/>
  </g>
</svg>
