<svg id="Layer_1" data-name="Layer 1" xmlns="http://www.w3.org/2000/svg" viewBox="0 0 32 32"><g id="downlaod"><path id="Path_689" data-name="Path 689" d="M4.11,31a3.92,3.92,0,0,1-1.73-.73A3.29,3.29,0,0,1,1,27.64c0-2.73,0-5.46,0-8.2a.38.38,0,0,1,0-.1H3.35v7.92c0,.95.44,1.39,1.4,1.39H27.26a1.22,1.22,0,0,0,1.39-1.4V19.33H31v8.56l-.06.19a3.45,3.45,0,0,1-2.43,2.75c-.2.07-.41.11-.61.16Z"/><path id="Path_690" data-name="Path 690" d="M17.16,19.26l4.41-4.41,1.61,1.61L16,23.63,8.82,16.44l1.59-1.59,4.41,4.41V1h2.34Z"/></g></svg>