<svg xmlns="http://www.w3.org/2000/svg" width="20" height="20" viewBox="0 0 20 20">
  <g id="Edit" transform="translate(-1435.41 -115.279)">
    <path id="Path_516" data-name="Path 516" d="M121.388,1.024a3.479,3.479,0,0,0-4.922,0L104.492,13a.919.919,0,0,0-.219.355l-1.819,5.455a.909.909,0,0,0,.861,1.2.924.924,0,0,0,.287-.046l5.454-1.819a.91.91,0,0,0,.355-.22L121.388,5.945a3.479,3.479,0,0,0,0-4.921ZM120.1,4.661,108.284,16.479l-3.531,1.179,1.175-3.527L117.751,2.313A1.661,1.661,0,1,1,120.1,4.66Z" transform="translate(1333.002 115.275)" fill="#a8a8a8"/>
  </g>
</svg>
