<svg xmlns="http://www.w3.org/2000/svg" width="18" height="18" viewBox="0 0 18 18">
  <path id="Path_516" data-name="Path 516" d="M119.491.921a3.132,3.132,0,0,0-4.43,0L104.284,11.7a.827.827,0,0,0-.2.32l-1.636,4.909A.818.818,0,0,0,103.226,18a.831.831,0,0,0,.259-.042l4.909-1.636a.816.816,0,0,0,.32-.2L119.491,5.351A3.132,3.132,0,0,0,119.491.921Zm-1.157,3.273L107.7,14.831l-3.178,1.061,1.058-3.174L116.218,2.082a1.495,1.495,0,1,1,2.116,2.113Z" transform="translate(-102.409 -0.004)" fill="#fff"/>
</svg>
