<svg xmlns="http://www.w3.org/2000/svg" width="23.832" height="22.864" viewBox="0 0 23.832 22.864">
  <path id="Favourites" d="M5.148,22.532a1.224,1.224,0,0,1-1.191-1.495l1.48-6.517-5.018-4.4A1.223,1.223,0,0,1,1.112,7.98l6.639-.6,2.625-6.142a1.222,1.222,0,0,1,2.248,0l2.625,6.144,6.638.6a1.224,1.224,0,0,1,.695,2.139l-5.018,4.4,1.48,6.517a1.222,1.222,0,0,1-1.819,1.321L11.5,18.935,5.775,22.358a1.225,1.225,0,0,1-.627.174Zm6.351-5.07a1.225,1.225,0,0,1,.627.173l5.4,3.231-1.4-6.151a1.222,1.222,0,0,1,.387-1.191l4.738-4.155L14.989,8.8a1.221,1.221,0,0,1-1.016-.741L11.5,2.262,9.022,8.06A1.218,1.218,0,0,1,8.009,8.8L1.74,9.367l4.738,4.155a1.22,1.22,0,0,1,.387,1.192l-1.4,6.151,5.4-3.23a1.225,1.225,0,0,1,.627-.173ZM7.7,7.5a0,0,0,0,1,0,0Zm7.6,0v0S15.3,7.494,15.3,7.494Zm0,0" transform="translate(0.416 -0.092)" fill="#fff" stroke="#fff" stroke-width="0.8"/>
</svg>
