<svg id="Fit_to_screen" data-name="Fit to screen" xmlns="http://www.w3.org/2000/svg" width="24" height="24" viewBox="0 0 24 24">
  <path id="Path_836" data-name="Path 836" d="M0,0H24V24H0Z" fill="none"/>
  <g id="noun_expand_arrows_4080819" data-name="noun_expand arrows_4080819" transform="translate(3 3)">
    <path id="Path_861" data-name="Path 861" d="M21.52,0H16.407a.852.852,0,0,0,0,1.7h3.059l-6.22,6.211a.856.856,0,1,0,1.21,1.21l6.211-6.22V5.964a.852.852,0,0,0,1.7,0V.852A.852.852,0,0,0,21.52,0Z" transform="translate(-4.372)" fill="#607088"/>
    <path id="Path_862" data-name="Path 862" d="M21.52,15.556a.852.852,0,0,0-.852.852v3.059l-6.211-6.22a.856.856,0,0,0-1.21,1.21l6.22,6.211H16.408a.852.852,0,1,0,0,1.7H21.52a.852.852,0,0,0,.852-.852V16.408A.852.852,0,0,0,21.52,15.556Z" transform="translate(-4.372 -4.372)" fill="#607088"/>
    <path id="Path_863" data-name="Path 863" d="M.852,6.816A.852.852,0,0,0,1.7,5.964V2.905l6.211,6.22a.856.856,0,1,0,1.21-1.21L2.905,1.7H5.964a.852.852,0,0,0,0-1.7H.852A.852.852,0,0,0,0,.852V5.964A.852.852,0,0,0,.852,6.816Z" fill="#607088"/>
    <path id="Path_864" data-name="Path 864" d="M.852,22.372H5.964a.852.852,0,0,0,0-1.7H2.905l6.22-6.211a.856.856,0,1,0-1.21-1.21L1.7,19.466V16.408a.852.852,0,1,0-1.7,0V21.52A.852.852,0,0,0,.852,22.372Z" transform="translate(0 -4.372)" fill="#607088"/>
  </g>
</svg>
