<svg id="Forward" xmlns="http://www.w3.org/2000/svg" width="16.524" height="20.392" viewBox="0 0 16.524 20.392">
  <path id="Path_559" data-name="Path 559" d="M.406,20.388A.934.934,0,0,1,0,19.508Q.014,10.193.007.879C.007.189.188.006.874.006c3.237,0,6.479,0,9.713-.006a1.062,1.062,0,0,1,.9.4c1.173,1.388,2.366,2.759,3.535,4.15a1.107,1.107,0,0,1,.265.631c.02,1.817.011,3.635.01,5.452,0,.052-.011.1-.019.179H14.029V5.739H10.952c-.529,0-.751-.221-.752-.748V1.308H1.315V19.1H9.562v1.288ZM13.238,4.442c-.325-.382-.6-.7-.871-1.022L11.5,2.4v2.04Z" transform="translate(0)"/>
  <path id="Path_506" data-name="Path 506" d="M114.664,161.89a.5.5,0,0,0,.091.006h5.22l-.114.054a1.048,1.048,0,0,0-.3.212l-1.464,1.464a.549.549,0,0,0-.08.7.529.529,0,0,0,.742.113.421.421,0,0,0,.054-.046l2.647-2.647a.531.531,0,0,0,0-.749h0l-2.647-2.647a.528.528,0,0,0-.748,0,.4.4,0,0,0-.046.052.548.548,0,0,0,.08.7l1.46,1.466a1.047,1.047,0,0,0,.265.193l.16.072h-5.2a.548.548,0,0,0-.56.444A.529.529,0,0,0,114.664,161.89Z" transform="translate(-105.092 -145.553)"/>
</svg>
