<svg id="Layer_1" data-name="Layer 1" xmlns="http://www.w3.org/2000/svg" viewBox="0 0 32 32"><defs><style>.cls-1{stroke:#000;stroke-miterlimit:10;stroke-width:0.6px;}</style></defs><path id="Path_559" data-name="Path 559" class="cls-1" d="M4.45,31a1.37,1.37,0,0,1-.6-1.29q0-13.71,0-27.41c0-1,.27-1.29,1.28-1.29H19.43a1.57,1.57,0,0,1,1.32.59c1.73,2,3.48,4.06,5.2,6.11a1.59,1.59,0,0,1,.39.93c0,2.67,0,5.34,0,8,0,.07,0,.14,0,.26H24.49V9.45H20c-.78,0-1.1-.33-1.1-1.1V2.93H5.78V29.1H17.92V31ZM23.33,7.54c-.48-.56-.89-1-1.28-1.5L20.77,4.53v3Z"/><path id="Path_506" data-name="Path 506" class="cls-1" d="M17.93,25h7.82l-.17.08a1.52,1.52,0,0,0-.44.31L23,27.59a.81.81,0,0,0-.11,1,.76.76,0,0,0,1.08.17h0l.08-.07,3.89-3.89a.78.78,0,0,0,0-1.1h0L24,19.83a.78.78,0,0,0-1.1,0h0a.27.27,0,0,0-.07.08.8.8,0,0,0,.12,1l2.14,2.15a1.52,1.52,0,0,0,.39.29l.24.1H18.11a.81.81,0,0,0-.82.66.78.78,0,0,0,.63.9Z"/></svg>