<svg id="map-marked-blue" xmlns="http://www.w3.org/2000/svg" width="24" height="24" viewBox="0 0 24 24">
  <path id="Path_866" data-name="Path 866" d="M0,0H24V24H0Z" fill="none"/>
  <path id="Path_867" data-name="Path 867" d="M14.935,7.2l-6-3L4,6.319V18.967L9.065,16.8l6,3L20,17.68V5.033L14.935,7.2ZM2,5,9,2l6,3,6.3-2.7a.5.5,0,0,1,.7.46V19l-7,3L9,19,2.7,21.7a.5.5,0,0,1-.7-.46Zm4,6H8v2H6Zm4,0h2v2H10Zm6-.063L17.236,9.7l1.06,1.06L17.059,12,18.3,13.236l-1.06,1.06L16,13.059,14.761,14.3,13.7,13.236,14.937,12,13.7,10.761,14.76,9.7Z" fill="#00a0e3"/>
</svg>
