<svg xmlns="http://www.w3.org/2000/svg" xmlns:xlink="http://www.w3.org/1999/xlink" width="24" height="24" viewBox="0 0 24 24">
  <defs>
    <clipPath id="clip-orchestration">
      <rect width="24" height="24"/>
    </clipPath>
  </defs>
  <g id="orchestration" clip-path="url(#clip-orchestration)">
    <g id="Group_2521" data-name="Group 2521" transform="translate(-1805.563 -13.584)">
      <path id="Path_949" data-name="Path 949" d="M1834.707,88.451c-.235-.029-.471-.064-.708-.09a11.114,11.114,0,0,1-4.473-1.441,11.294,11.294,0,0,1-2.153-1.592l-.268-.248v1.187c0,.336-.172.551-.436.544s-.42-.22-.424-.538q-.014-1.055-.032-2.109c-.005-.373.143-.552.52-.56.76-.016,1.517-.014,2.282-.015a.41.41,0,0,1,.393.341.42.42,0,0,1-.268.471,1.157,1.157,0,0,1-.331.048c-.35.005-.7,0-1.1,0a10.036,10.036,0,0,0,2.245,1.722,10.571,10.571,0,0,0,4.1,1.332,10.436,10.436,0,0,0,6.261-1.2,10.657,10.657,0,0,0,4.82-5.314,10.28,10.28,0,0,0,.728-2.592,9.583,9.583,0,0,0-.069-3.425c-.124-.578-.284-1.15-.437-1.722-.083-.308,0-.538.263-.628.229-.08.457.064.559.359a11.639,11.639,0,0,1-8.174,15.123c-.673.163-1.375.208-2.064.308l-.283.042Z" transform="translate(-17.682 -51.282)" fill="#31476a" stroke="#31476a" stroke-width="0.8"/>
      <path id="Path_950" data-name="Path 950" d="M1817.958,14c.3.03.593.058.892.09a11.142,11.142,0,0,1,3.549.986,11.917,11.917,0,0,1,3.294,2.3v-1.3a.4.4,0,0,1,.357-.418.409.409,0,0,1,.456.282.614.614,0,0,1,.04.2c.009.734.017,1.467.019,2.2a.451.451,0,0,1-.116.38.445.445,0,0,1-.371.138q-1.117.02-2.231.028a.447.447,0,0,1-.46-.409.407.407,0,0,1,.386-.443c.275-.032.554-.029.832-.037h.422l.036-.062c-.4-.331-.794-.677-1.211-.986a10.328,10.328,0,0,0-4.933-1.983,10.679,10.679,0,0,0-3.428.117,10.389,10.389,0,0,0-4.479,2.029,10.74,10.74,0,0,0-3.446,4.611,10.6,10.6,0,0,0-.714,4.563,11.441,11.441,0,0,0,.578,2.891.631.631,0,0,1-.006.448.547.547,0,0,1-.378.22.371.371,0,0,1-.39-.31c-.178-.706-.411-1.4-.526-2.121a11.376,11.376,0,0,1,.813-6.409,11.5,11.5,0,0,1,3.076-4.184,11.157,11.157,0,0,1,5.177-2.559c.557-.112,1.129-.151,1.7-.223.072-.009.144-.025.215-.038Z" transform="translate(0 0)" fill="#31476a" stroke="#31476a" stroke-width="0.8"/>
      <path id="Path_951" data-name="Path 951" d="M1845.117,62.45c.041-.223.083-.528.158-.823a.29.29,0,0,0-.109-.331c-.185-.165-.356-.342-.55-.5a.324.324,0,0,0-.241-.045c-.277.059-.548.151-.826.2a.916.916,0,0,1-1.087-.576c-.157-.339-.31-.679-.464-1.019a.923.923,0,0,1,.337-1.22c.222-.154.454-.293.669-.456a.341.341,0,0,0,.116-.237,4.63,4.63,0,0,0-.034-.718.413.413,0,0,0-.157-.257c-.209-.144-.437-.26-.656-.389a.935.935,0,0,1-.445-1.19c.131-.373.267-.745.413-1.112a.979.979,0,0,1,1.237-.572,6.611,6.611,0,0,0,.661.124.346.346,0,0,0,.247-.089c.161-.156.3-.339.454-.5a.328.328,0,0,0,.089-.356c-.084-.293-.164-.588-.222-.891a.762.762,0,0,1,.372-.851,11.045,11.045,0,0,1,1.49-.663.765.765,0,0,1,.876.3,7.786,7.786,0,0,1,.5.721.32.32,0,0,0,.336.163,5.149,5.149,0,0,1,.675-.007.3.3,0,0,0,.307-.178c.141-.254.282-.511.445-.751a.891.891,0,0,1,1.047-.347c.4.134.791.267,1.177.43a.962.962,0,0,1,.577,1.292.855.855,0,0,0-.028.089c-.032.229-.159.511-.069.675a2.811,2.811,0,0,0,.662.661c.041.036.143.02.212,0,.289-.072.575-.16.865-.228a.834.834,0,0,1,.911.384,13.72,13.72,0,0,1,.648,1.4.869.869,0,0,1-.4,1.043c-.222.152-.451.3-.663.46a.34.34,0,0,0-.12.231,4.754,4.754,0,0,0,.034.718.415.415,0,0,0,.152.261,6.772,6.772,0,0,0,.623.362.939.939,0,0,1,.462,1.22c-.119.33-.256.654-.367.987a1,1,0,0,1-1.286.707,2.618,2.618,0,0,1-.438-.089.45.45,0,0,0-.619.218.618.618,0,0,1-.178.2c-.284.178-.267.411-.178.7a3.376,3.376,0,0,1,.159.916.767.767,0,0,1-.5.691c-.377.178-.755.356-1.141.518a.912.912,0,0,1-1.179-.356c-.15-.216-.3-.429-.438-.653a.261.261,0,0,0-.293-.142,1.164,1.164,0,0,1-.356.026.586.586,0,0,0-.713.445,2.635,2.635,0,0,1-.261.445.919.919,0,0,1-1.117.386q-.593-.208-1.176-.44A.934.934,0,0,1,1845.117,62.45Zm.458-11.084.241.943a.917.917,0,0,1-.21.9c-.216.239-.422.488-.651.713a.98.98,0,0,1-.985.285c-.231-.06-.468-.089-.7-.14a.191.191,0,0,0-.254.146c-.107.31-.227.616-.348.921a.178.178,0,0,0,.089.257q.356.2.7.4a.98.98,0,0,1,.5.915,4.025,4.025,0,0,0,.017.629,1.028,1.028,0,0,1-.458,1.069c-.215.151-.437.291-.65.446-.043.03-.089.115-.078.149.163.388.338.772.51,1.158.242-.07.451-.124.656-.192a1.22,1.22,0,0,1,1.483.408,2.069,2.069,0,0,0,.3.267,1.057,1.057,0,0,1,.4,1.116c-.067.287-.1.58-.154.875.386.145.75.277,1.11.419a.158.158,0,0,0,.234-.089c.112-.211.236-.416.356-.624a1.024,1.024,0,0,1,.98-.583,6.064,6.064,0,0,0,.65-.03.979.979,0,0,1,.928.387c.178.241.339.494.516.735.034.045.125.1.161.089.383-.161.76-.336,1.142-.51-.089-.315-.178-.6-.24-.891a.953.953,0,0,1,.192-.925c.24-.257.467-.526.712-.772a.843.843,0,0,1,.735-.248c.317.046.634.089.947.157.116.023.159,0,.2-.11.114-.331.23-.663.362-.987.052-.127.007-.173-.089-.226-.209-.116-.415-.239-.623-.356a1.031,1.031,0,0,1-.568-.973c0-.261-.032-.523-.026-.784a.937.937,0,0,1,.337-.795c.3-.221.6-.434.916-.656l-.561-1.213-.739.221a1.119,1.119,0,0,1-1.29-.356,4.252,4.252,0,0,0-.445-.415,1.019,1.019,0,0,1-.35-.967c.04-.258.089-.518.151-.771.038-.147.009-.215-.14-.267-.325-.108-.642-.239-.967-.348a.2.2,0,0,0-.183.061c-.14.212-.262.435-.39.655a1.047,1.047,0,0,1-1,.561,4.583,4.583,0,0,0-.652.007,1.039,1.039,0,0,1-1.08-.515c-.129-.2-.262-.4-.408-.592a.219.219,0,0,0-.193-.068c-.357.165-.713.339-1.087.511Z" transform="translate(-31.264 -31.314)" fill="#31476a" stroke="#31476a" stroke-width="0.8"/>
      <path id="Path_952" data-name="Path 952" d="M1876.03,86.759a2.772,2.772,0,1,1,2.743,2.8,2.771,2.771,0,0,1-2.743-2.8Zm2.766,1.9a1.893,1.893,0,0,0,1.908-1.93,1.922,1.922,0,0,0-1.855-1.854,1.892,1.892,0,1,0-.054,3.784Z" transform="translate(-61.248 -61.203)" fill="#31476a" stroke="#31476a" stroke-width="0.8"/>
    </g>
  </g>
</svg>
