<svg xmlns="http://www.w3.org/2000/svg" width="24.82" height="22.8" viewBox="0 0 24.82 22.8">
  <g id="orchestration" transform="translate(-0.59 -1.6)">
    <path id="Path_298" data-name="Path 298" d="M9.031,17.122l-.214.107-1.069.642,1.069-.615Z" transform="translate(0.613 1.517)" fill="#31476a"/>
    <path id="Path_299" data-name="Path 299" d="M12.238,12.265a2.235,2.235,0,0,1,1.9,1.1,2.182,2.182,0,0,1-1.9,3.262,2.235,2.235,0,0,1-1.9-1.1,2.179,2.179,0,0,1,.8-2.968A2.323,2.323,0,0,1,12.238,12.265Zm0-.535a2.563,2.563,0,0,0-1.363.374,2.711,2.711,0,0,0,1.364,5.054,2.563,2.563,0,0,0,1.363-.374,2.711,2.711,0,0,0-1.364-5.054Z" transform="translate(0.775 1.002)" fill="#31476a" stroke="#31476a" stroke-width="0.3"/>
    <path id="Path_300" data-name="Path 300" d="M13.973,10.211v1.23a3.787,3.787,0,0,1,1.657,2.888l1.069.615A4.816,4.816,0,0,0,14.267,10.4.753.753,0,0,0,13.973,10.211Z" transform="translate(1.179 0.842)" fill="#31476a"/>
    <path id="Path_301" data-name="Path 301" d="M10.28,10.211a4.726,4.726,0,0,0-2.085,1.952,4.959,4.959,0,0,0-.642,2.781l1.069-.615A4.007,4.007,0,0,1,9.13,12.7a3.781,3.781,0,0,1,1.176-1.257v-1.23Z" transform="translate(0.595 0.842)" fill="#31476a"/>
    <path id="Path_302" data-name="Path 302" d="M12.319,2.535a2.886,2.886,0,0,1,1.551.428,3.14,3.14,0,0,1,1.149,4.278,3.219,3.219,0,0,1-.909.989,3.612,3.612,0,0,1-.909.455l-.348.107v2.219a3.6,3.6,0,0,0-.535-.027,3.6,3.6,0,0,0-.535.027V8.765l-.374-.107a2.354,2.354,0,0,1-.642-.294A2.362,2.362,0,0,1,10.5,8.2a3.126,3.126,0,0,1,1.818-5.669Zm0-.535A3.674,3.674,0,0,0,10.18,8.658a1.8,1.8,0,0,0,.294.187,3.945,3.945,0,0,0,.775.321v2.487a3.573,3.573,0,0,1,1.069-.16,3.7,3.7,0,0,1,1.069.16V9.166a3.923,3.923,0,0,0,1.069-.508A3.587,3.587,0,0,0,15.5,7.508,3.686,3.686,0,0,0,12.319,2Z" transform="translate(0.695 0)" fill="#31476a" stroke="#31476a" stroke-width="0.8"/>
    <path id="Path_303" data-name="Path 303" d="M4.646,15.841a2.886,2.886,0,0,1,1.551.428,2.234,2.234,0,0,1,.562.428l.294.267.348-.187.134-.08L8.6,16.082,8.709,16l.107-.054.16-.107a3.871,3.871,0,0,0,.535.909l-.16.107-.214.134-1.069.615-.134.08-.321.187.08.374a3.079,3.079,0,0,1-.348,2.273A3.178,3.178,0,0,1,4.619,22.1a2.885,2.885,0,0,1-1.551-.428,3.267,3.267,0,0,1-1.47-1.9,3.094,3.094,0,0,1,.321-2.38A3.22,3.22,0,0,1,4.646,15.841Zm4.678-.8-.749.428-.214.134-1.069.615-.134.08a4.4,4.4,0,0,0-.668-.508,3.777,3.777,0,0,0-1.818-.481,3.672,3.672,0,0,0-1.845,6.845,3.776,3.776,0,0,0,1.818.481,3.68,3.68,0,0,0,3.181-1.845,3.768,3.768,0,0,0,.4-2.674l.134-.08,1.069-.615.214-.134.722-.428A3.666,3.666,0,0,1,9.324,15.039Z" transform="translate(0 1.367)" fill="#31476a" stroke="#31476a" stroke-width="0.8"/>
    <path id="Path_304" data-name="Path 304" d="M20.162,15.841a2.886,2.886,0,0,1,1.551.428,3.14,3.14,0,0,1,1.149,4.278,3.178,3.178,0,0,1-2.727,1.577,2.886,2.886,0,0,1-1.551-.428,3.2,3.2,0,0,1-1.5-3.423l.08-.374-.348-.187-.428-.241-.775-.454-.321-.187-.053-.027a2.661,2.661,0,0,0,.294-.455l.241-.481.053.027.321.187.775.455.428.241.348.187L18,16.7A3.12,3.12,0,0,1,20.162,15.841Zm-4.678-.8a3.885,3.885,0,0,1-1.069,1.845l.615.348.321.187.775.454.428.241a3.677,3.677,0,0,0,1.738,4.011,3.777,3.777,0,0,0,1.818.481,3.672,3.672,0,0,0,1.845-6.845,3.776,3.776,0,0,0-1.818-.481,3.678,3.678,0,0,0-2.513.989l-.428-.241-.775-.455-.321-.187Z" transform="translate(1.219 1.367)" fill="#31476a" stroke="#31476a" stroke-width="0.8"/>
    <path id="Path_305" data-name="Path 305" d="M10.582,17.343l-1.069.615c.107.054.187.134.294.187a4.74,4.74,0,0,0,2.433.642,4.955,4.955,0,0,0,2.727-.829L13.9,17.343a3.951,3.951,0,0,1-1.657.374A3.657,3.657,0,0,1,10.582,17.343Z" transform="translate(0.774 1.544)" fill="#31476a"/>
  </g>
</svg>
