<svg xmlns="http://www.w3.org/2000/svg" width="20.15" height="20.15" viewBox="0 0 20.15 20.15">
  <g id="Orchestrate" transform="translate(11.178 -6.533)">
    <g id="Group_2420" data-name="Group 2420" transform="translate(-11.178 6.533)">
      <g id="Group_2419" data-name="Group 2419">
        <path id="Path_818" data-name="Path 818" d="M32.027,18.814l-1.411,1.646-.2.233L31,20.455H29.422l.579.239-1.37-1.677c-.063-.08-.129-.157-.192-.237a.792.792,0,0,0-.8-.21l-2.08.823-.3.116a.92.92,0,0,0-.426.292.8.8,0,0,0-.176.494V22.88l.24-.578c-.42.392-.84.786-1.261,1.179l.579-.239c-.688-.051-1.378-.1-2.066-.151l-.295-.022c-.072.01-.145.02-.217.029a.6.6,0,0,0-.278.147.9.9,0,0,0-.293.425q-.415,1.011-.827,2.022l-.117.286a.782.782,0,0,0,.211.795L22,28.105c.078.063.156.125.231.188l-.24-.578v1.808l.24-.578q-.811.72-1.624,1.438l-.229.2a.793.793,0,0,0-.211.795l.77,1.859c.037.086.072.174.109.259.027.065.055.131.082.2a.6.6,0,0,0,.211.229.805.805,0,0,0,.5.176H24.5l-.579-.239.985,1.209-.24-.578L24.456,36.5c-.01.1-.02.19-.029.286.01.071.02.145.029.217a.6.6,0,0,0,.147.278.929.929,0,0,0,.426.292l2.287.944.328.135c.072.01.145.02.217.029a.621.621,0,0,0,.315-.069.886.886,0,0,0,.391-.335q.6-.815,1.2-1.632l.17-.233-.706.4H31.2l-.579-.239q.62.791,1.239,1.583l.174.223a.786.786,0,0,0,.8.21l2.154-.885.307-.127.2-.082a.6.6,0,0,0,.229-.21.744.744,0,0,0,.176-.494c-.086-.69-.17-1.379-.256-2.069l-.037-.3-.24.578c.381-.384.764-.768,1.145-1.15l-.579.239H38.5a.805.805,0,0,0,.5-.176.927.927,0,0,0,.293-.425q.384-.928.77-1.859c.037-.086.072-.174.109-.259a.789.789,0,0,0-.211-.795l-1.714-1.471L38,28.9l.24.578V27.633l-.405.7,1.747-1.262c.084-.059.166-.121.25-.18a.913.913,0,0,0,.336-.39.746.746,0,0,0,.041-.531q-.455-1.079-.907-2.157l-.129-.306a.879.879,0,0,0-.377-.488l-.2-.082a.831.831,0,0,0-.436,0l-2.078.288c-.1.014-.2.029-.3.041l.8.21L35.356,22.3l.24.578V20.257a.8.8,0,0,0-.176-.494.9.9,0,0,0-.426-.292q-.952-.38-1.9-.758l-.27-.108a.83.83,0,0,0-.631.082A.816.816,0,0,0,31.9,19.8l.129.165a.813.813,0,0,0,.362.21q.949.38,1.9.758l.27.108-.6-.789V22.5a1.2,1.2,0,0,0,.24.954c.346.351.713.686,1.067,1.028.051.049.1.1.156.149a.836.836,0,0,0,.582.241,2.139,2.139,0,0,0,.223-.031l.057-.008.69-.1c.541-.076,1.083-.151,1.624-.225l-1.007-.57q.455,1.079.907,2.157l.129.306c.125-.308.252-.615.377-.923l-1.163.84-.682.492-.145.1c-.031.022-.055.043-.088.067a.835.835,0,0,0-.324.643V29.37a.918.918,0,0,0,.24.686c.033.033.072.061.106.092.2.172.4.341.6.513.41.351.815.711,1.231,1.056l.025.02c-.07-.266-.141-.529-.211-.795q-.384.928-.77,1.859c-.037.086-.072.174-.109.259l.79-.6H36.288a1.2,1.2,0,0,0-.948.239c-.35.335-.684.688-1.026,1.032-.039.039-.08.08-.119.121a.808.808,0,0,0-.229.662l.086.7c.066.527.129,1.054.195,1.579l.6-.789-2.154.885-.307.127.8.21c-.283-.362-.567-.723-.85-1.087l-.479-.613c-.029-.035-.053-.071-.084-.106a.856.856,0,0,0-.682-.239H29.426c-.066,0-.131,0-.2,0h-.008a.839.839,0,0,0-.579.239c-.26.259-.086.108-.129.165a.394.394,0,0,1-.027.035l-.387.527c-.317.433-.635.868-.954,1.3l.926-.376-2.287-.944L25.456,36l.6.789c.047-.451.092-.9.139-1.352.027-.264.055-.527.082-.793.006-.051.012-.1.016-.153a.954.954,0,0,0-.3-.652c-.307-.378-.6-.772-.926-1.136a1.077,1.077,0,0,0-.9-.241H21.819l.79.6L21.84,31.2c-.037-.086-.072-.174-.109-.259-.07.266-.141.529-.211.795l1.034-.915c.211-.186.422-.372.631-.56a.959.959,0,0,0,.428-.774c.006-.533,0-1.066,0-1.6,0-.059,0-.121,0-.18a.825.825,0,0,0-.305-.631l-.565-.456c-.42-.337-.837-.674-1.257-1.013.07.266.141.529.211.795q.415-1.011.827-2.022l.117-.286-.79.6,1.384.1c.272.02.543.041.815.059.053,0,.106.01.16.012a.9.9,0,0,0,.645-.3l1.161-1.087a.861.861,0,0,0,.276-.625c0-.065,0-.129,0-.194V20.289l-.6.789,2.08-.823.3-.116-.8-.21c.278.339.555.68.833,1.019.182.223.364.445.545.668a.921.921,0,0,0,.772.466c.5.01.991,0,1.485,0a.866.866,0,0,0,.663-.241c.035-.037.068-.078.1-.116.164-.192.328-.384.491-.574.338-.394.676-.791,1.016-1.185a.871.871,0,0,0,.24-.578.838.838,0,0,0-.24-.578.821.821,0,0,0-.579-.239A.832.832,0,0,0,32.027,18.814Z" transform="translate(-20.091 -18.533)" fill="#a8a8a8"/>
        <path id="Path_819" data-name="Path 819" d="M280.188,275.2a5.052,5.052,0,0,0-2.9.911,6.133,6.133,0,0,0-.649.531,5.5,5.5,0,0,0-.546.636,5.014,5.014,0,0,0-.7,1.318,5.1,5.1,0,0,0,1.5,5.569,5.66,5.66,0,0,0,.692.5,5.462,5.462,0,0,0,.776.372,4.914,4.914,0,0,0,1.5.331,5.074,5.074,0,0,0,4.935-2.912,4.757,4.757,0,0,0,.456-1.659,5.033,5.033,0,0,0-.082-1.565,5.091,5.091,0,0,0-4.1-3.952,5.711,5.711,0,0,0-.879-.079.86.86,0,1,0,0,1.719,4.2,4.2,0,0,1,.567.039c-.075-.011-.153-.022-.228-.03a4.342,4.342,0,0,1,1.088.3l-.206-.086a4.394,4.394,0,0,1,.926.542l-.174-.135a4.391,4.391,0,0,1,.774.774l-.135-.174a4.3,4.3,0,0,1,.542.926c-.028-.069-.058-.138-.086-.206a4.226,4.226,0,0,1,.3,1.087c-.011-.075-.021-.153-.03-.228a4.346,4.346,0,0,1,0,1.133c.011-.075.021-.153.03-.228a4.341,4.341,0,0,1-.3,1.088c.028-.069.058-.138.086-.206a4.393,4.393,0,0,1-.542.926l.135-.174a4.393,4.393,0,0,1-.774.774l.174-.135a4.3,4.3,0,0,1-.926.542l.206-.086a4.229,4.229,0,0,1-1.088.3c.075-.011.153-.022.228-.03a4.343,4.343,0,0,1-1.133,0c.075.011.153.022.228.03a4.34,4.34,0,0,1-1.088-.3l.206.086a4.393,4.393,0,0,1-.926-.542l.174.135a4.4,4.4,0,0,1-.774-.774l.135.174a4.3,4.3,0,0,1-.542-.926c.028.069.058.137.086.206a4.228,4.228,0,0,1-.3-1.088c.011.075.021.153.03.228a4.346,4.346,0,0,1,0-1.133c-.011.075-.021.153-.03.228a4.338,4.338,0,0,1,.3-1.087c-.028.069-.058.137-.086.206a4.393,4.393,0,0,1,.542-.926l-.135.174a4.394,4.394,0,0,1,.774-.774l-.174.135a4.3,4.3,0,0,1,.926-.542l-.206.086a4.23,4.23,0,0,1,1.088-.3c-.075.011-.153.021-.228.03a5.007,5.007,0,0,1,.567-.039.86.86,0,1,0,0-1.719Z" transform="translate(-270.115 -270.209)" fill="#a8a8a8"/>
      </g>
    </g>
  </g>
</svg>
