<svg id="Properties" xmlns="http://www.w3.org/2000/svg" width="20" height="15.055" viewBox="0 0 20 15.055">
  <path id="Path_517" data-name="Path 517" d="M21.706,47.889H14.461c-.3,0-.541-.447-.541-1s.242-1,.541-1h7.245c.3,0,.541.447.541,1S22,47.889,21.706,47.889Z" transform="translate(-2.247 -33.1)" fill="#fff"/>
  <path id="Path_518" data-name="Path 518" d="M25.215,29.058H14.7a1.027,1.027,0,0,1,0-2h10.51a1.027,1.027,0,0,1,0,2Z" transform="translate(-5.999 -20.533)" fill="#fff"/>
  <path id="Path_519" data-name="Path 519" d="M28.292,10.227H14.918a1,1,0,0,1,0-2H28.292a1,1,0,0,1,0,2Z" transform="translate(-9.289 -7.966)" fill="#fff"/>
  <circle id="Ellipse_4" data-name="Ellipse 4" cx="1.34" cy="1.34" r="1.34" transform="translate(0)" fill="#fff"/>
  <circle id="Ellipse_5" data-name="Ellipse 5" cx="1.34" cy="1.34" r="1.34" transform="translate(3.98 6.187)" fill="#fff"/>
  <circle id="Ellipse_6" data-name="Ellipse 6" cx="1.34" cy="1.34" r="1.34" transform="translate(7.959 12.374)" fill="#fff"/>
</svg>
