<svg id="Properties" xmlns="http://www.w3.org/2000/svg" width="20.199" height="15.204" viewBox="0 0 20.199 15.204">
  <path id="Path_517" data-name="Path 517" d="M21.784,47.909H14.466c-.3,0-.546-.451-.546-1.008s.244-1.008.546-1.008h7.318c.3,0,.546.451.546,1.008S22.085,47.909,21.784,47.909Z" transform="translate(-2.13 -32.972)" fill="#fff"/>
  <path id="Path_518" data-name="Path 518" d="M25.327,29.078H14.712a1.037,1.037,0,0,1,0-2.016H25.327a1.037,1.037,0,0,1,0,2.016Z" transform="translate(-5.92 -20.468)" fill="#fff"/>
  <path id="Path_519" data-name="Path 519" d="M28.435,10.247H14.928a1.008,1.008,0,0,1,0-2.016H28.435a1.008,1.008,0,0,1,0,2.016Z" transform="translate(-9.243 -7.963)" fill="#fff"/>
  <circle id="Ellipse_4" data-name="Ellipse 4" cx="1.354" cy="1.354" r="1.354" transform="translate(0)" fill="#fff"/>
  <circle id="Ellipse_5" data-name="Ellipse 5" cx="1.354" cy="1.354" r="1.354" transform="translate(4.019 6.249)" fill="#fff"/>
  <circle id="Ellipse_6" data-name="Ellipse 6" cx="1.354" cy="1.354" r="1.354" transform="translate(8.039 12.497)" fill="#fff"/>
</svg>
