<svg xmlns="http://www.w3.org/2000/svg" width="20.152" height="21.2" viewBox="0 0 20.152 21.2">
  <g id="Save" transform="translate(-15 -16)">
    <path id="Path_807" data-name="Path 807" d="M18.419,4a2.458,2.458,0,0,1,1.781.776h0l3.215,3.382a2.722,2.722,0,0,1,.738,1.874h0V22.55a2.587,2.587,0,0,1-2.519,2.65H6.519A2.587,2.587,0,0,1,4,22.55H4V6.65A2.587,2.587,0,0,1,6.519,4h11.9Zm0,1.767H16.6v2.65a2.587,2.587,0,0,1-2.519,2.65H10.717A2.587,2.587,0,0,1,8.2,8.417V5.767H6.519a.856.856,0,0,0-.834.78l-.006.1v15.9a.862.862,0,0,0,.84.883H8.2V19.017a2.6,2.6,0,0,1,2.371-2.645l.148,0h6.717a2.587,2.587,0,0,1,2.519,2.65h0v4.417h1.679a.856.856,0,0,0,.834-.78l.006-.1V10.032a.907.907,0,0,0-.246-.625h0L19.012,6.025a.819.819,0,0,0-.594-.259Zm-.984,12.367H10.717a.862.862,0,0,0-.84.883h0v4.417h8.4V19.017a.869.869,0,0,0-.742-.877h0ZM14.916,5.767H9.878v2.65a.862.862,0,0,0,.84.883h3.359l.1-.006a.869.869,0,0,0,.742-.877Z" transform="translate(11 12)" fill="#a8a8a8"/>
  </g>
</svg>
