<svg xmlns="http://www.w3.org/2000/svg" width="20.892" height="20.892" viewBox="0 0 20.892 20.892">
  <g id="save" transform="translate(0.25 0.25)">
    <g id="Group_2079" data-name="Group 2079">
      <path id="Path_556" data-name="Path 556" d="M20.256,3.843,16.548.136A.463.463,0,0,0,16.221,0H1.854A1.856,1.856,0,0,0,0,1.854V18.538a1.856,1.856,0,0,0,1.854,1.854H18.538a1.856,1.856,0,0,0,1.854-1.854V4.171A.463.463,0,0,0,20.256,3.843ZM4.634.927h10.2V6.488a.928.928,0,0,1-.927.927H5.561a.928.928,0,0,1-.927-.927Zm12.05,18.538H3.708V11.123H16.684Zm2.781-.927a.928.928,0,0,1-.927.927h-.927V10.659a.463.463,0,0,0-.463-.463H3.244a.463.463,0,0,0-.463.463v8.805H1.854a.928.928,0,0,1-.927-.927V1.854A.928.928,0,0,1,1.854.927H3.708V6.488A1.856,1.856,0,0,0,5.561,8.342H13.9a1.856,1.856,0,0,0,1.854-1.854V.927h.272l3.436,3.436Z" fill="#ccc" stroke="#ccc" stroke-width="0.5"/>
    </g>
  </g>
</svg>
