<svg id="Layer_1" data-name="Layer 1" xmlns="http://www.w3.org/2000/svg" viewBox="0 0 32 32"><defs><style>.cls-1{fill:#bababa;stroke:#bababa;stroke-width:0.3px;}</style></defs><g id="save"><g id="Group_2079" data-name="Group 2079"><path id="Path_556" data-name="Path 556" class="cls-1" d="M30.8,6.65,25.34,1.2a.66.66,0,0,0-.48-.2H3.73A2.73,2.73,0,0,0,1,3.73V28.27A2.73,2.73,0,0,0,3.73,31H28.27A2.73,2.73,0,0,0,31,28.27V7.14A.7.7,0,0,0,30.8,6.65Zm-23-4.29h15v8.18a1.36,1.36,0,0,1-1.36,1.37H9.18a1.36,1.36,0,0,1-1.36-1.37ZM25.54,29.64H6.46V17.36H25.54Zm4.1-1.37a1.37,1.37,0,0,1-1.37,1.37H26.91v-13a.68.68,0,0,0-.68-.68H5.77a.68.68,0,0,0-.68.68h0v13H3.73a1.36,1.36,0,0,1-1.37-1.36V3.73A1.37,1.37,0,0,1,3.73,2.36H6.46v8.18a2.72,2.72,0,0,0,2.72,2.73H21.45a2.73,2.73,0,0,0,2.73-2.73V2.36h.4l5.05,5.06Z"/></g></g></svg>