<svg id="Layer_1" data-name="Layer 1" xmlns="http://www.w3.org/2000/svg" viewBox="0 0 32 32"><defs><style>.cls-1{stroke:#000;stroke-miterlimit:10;stroke-width:0.6px;}</style></defs><g id="share"><g id="Layer_1-2" data-name="Layer 1"><path id="Path_523" data-name="Path 523" class="cls-1" d="M9.06,16.44l8,.07A12,12,0,0,1,24.84,29.2a1,1,0,0,1-.88,1,.93.93,0,0,1-1-.86,1.1,1.1,0,0,1,0-.25,10.27,10.27,0,0,0,.07-2,9.87,9.87,0,0,0-3.29-6.82,9.86,9.86,0,0,0-7.06-2.64A10.15,10.15,0,0,0,3.1,25.53,10,10,0,0,0,3,29.1a.92.92,0,0,1-.71,1.1h0a.87.87,0,0,1-1.06-.65.59.59,0,0,1,0-.13,10.6,10.6,0,0,1,0-3.64,12.05,12.05,0,0,1,7.89-9.33Z"/><path id="Path_524" data-name="Path 524" class="cls-1" d="M24.69,16.13c.42.21.83.4,1.23.63a9.91,9.91,0,0,1,5,7.42,9.46,9.46,0,0,1,0,2.71.93.93,0,0,1-1,.81.91.91,0,0,1-.84-1h0a9.84,9.84,0,0,0,0-2.17A8.1,8.1,0,0,0,24.37,18a7.64,7.64,0,0,0-2.93-.74.93.93,0,0,1-.88-.78,1,1,0,0,1,.63-1,12.29,12.29,0,0,1,1.19-.32,4.85,4.85,0,0,0-.28-9.42A.93.93,0,0,1,21.31,5a.91.91,0,0,1,.37-1A1.07,1.07,0,0,1,22.55,4,6.7,6.7,0,0,1,25,15.9Z"/><path id="Path_525" data-name="Path 525" class="cls-1" d="M13.12,3.6a6,6,0,1,1-6,6h0a6,6,0,0,1,6-6m0-1.83A7.85,7.85,0,1,0,21,9.62a7.85,7.85,0,0,0-7.85-7.85Z"/></g></g></svg>