<svg xmlns="http://www.w3.org/2000/svg" width="21.661" height="20.533" viewBox="0 0 21.661 20.533">
  <g id="share" transform="translate(-0.046 0)">
    <g id="Layer_1" data-name="Layer 1" transform="translate(0.046 0)">
      <path id="Path_523" data-name="Path 523" d="M5.871,209.2l5.765.047a8.687,8.687,0,0,1,5.593,6.875,8.871,8.871,0,0,1,.034,2.293c-.046.44-.276.7-.637.726a.667.667,0,0,1-.7-.8,7.339,7.339,0,0,0,.051-1.449,7.122,7.122,0,0,0-2.374-4.922,7.135,7.135,0,0,0-5.1-1.906,7.324,7.324,0,0,0-6.935,5.7,7.147,7.147,0,0,0-.109,2.572.669.669,0,0,1-.528.8.637.637,0,0,1-.781-.564,7.672,7.672,0,0,1,.03-2.628,8.705,8.705,0,0,1,5.7-6.737Z" transform="translate(-0.046 -198.611)"/>
      <path id="Path_524" data-name="Path 524" d="M281.954,39.22c.3.152.6.288.884.456a7.162,7.162,0,0,1,3.6,5.359,6.743,6.743,0,0,1-.005,1.954.669.669,0,0,1-.709.583.647.647,0,0,1-.6-.691,7.665,7.665,0,0,0,.013-1.569,5.863,5.863,0,0,0-3.415-4.718,5.535,5.535,0,0,0-2.116-.534.674.674,0,0,1-.636-.562.688.688,0,0,1,.452-.742,7.082,7.082,0,0,1,.861-.232,3.5,3.5,0,0,0-.2-6.8.681.681,0,0,1-.575-.516.658.658,0,0,1,.273-.7.742.742,0,0,1,.626-.079,4.843,4.843,0,0,1,1.768,8.629Z" transform="translate(-264.844 -28.857)"/>
      <path id="Path_525" data-name="Path 525" d="M66.783,1.316a4.35,4.35,0,1,1-4.35,4.35,4.35,4.35,0,0,1,4.35-4.35m0-1.316a5.666,5.666,0,1,0,5.669,5.667A5.666,5.666,0,0,0,66.783,0Z" transform="translate(-58.029 0)"/>
    </g>
  </g>
</svg>
