<svg xmlns="http://www.w3.org/2000/svg" width="22" height="12.317" viewBox="0 0 22 12.317">
  <path id="Shortcuts" d="M32.606,36.065V34.99a.343.343,0,0,1,.344-.343h1.076a.343.343,0,0,1,.344.343v1.076a.343.343,0,0,1-.344.343H32.95A.343.343,0,0,1,32.606,36.065Zm1.5,1.764v1.076a.343.343,0,0,0,.344.343h1.086a.343.343,0,0,0,.344-.343V37.83a.343.343,0,0,0-.344-.343H34.445A.343.343,0,0,0,34.1,37.83Zm-2.994,0v1.076a.343.343,0,0,0,.344.343H32.53a.343.343,0,0,0,.344-.343V37.83a.343.343,0,0,0-.344-.343H31.451A.343.343,0,0,0,31.107,37.83Zm4.833-1.422H37.02a.343.343,0,0,0,.344-.343V34.99a.343.343,0,0,0-.344-.343H35.94a.343.343,0,0,0-.344.343v1.076A.343.343,0,0,0,35.94,36.408Zm-.065,3.9H34.813a.343.343,0,0,0-.344.343v1.072a.343.343,0,0,0,.344.343h1.062a.343.343,0,0,0,.344-.343V40.653A.343.343,0,0,0,35.875,40.31Zm-5.919-3.9h1.079a.343.343,0,0,0,.344-.343V34.99a.343.343,0,0,0-.344-.343H29.956a.343.343,0,0,0-.344.343v1.076A.343.343,0,0,0,29.956,36.408Zm3.094,3.9H24.992a.343.343,0,0,0-.344.343v1.072a.343.343,0,0,0,.344.343h8.061a.343.343,0,0,0,.344-.343V40.653a.343.343,0,0,0-.344-.343Zm-9.866,0H22.125a.343.343,0,0,0-.344.343v1.072a.343.343,0,0,0,.344.343H23.2a.343.343,0,0,0,.344-.343V40.653a.343.343,0,0,0-.358-.343Zm-1.059-2.48v1.076a.343.343,0,0,0,.344.343h1.079a.343.343,0,0,0,.344-.343V37.83a.343.343,0,0,0-.344-.343H22.469A.343.343,0,0,0,22.125,37.83Zm-1.152-1.422h1.079a.343.343,0,0,0,.344-.343V34.99a.343.343,0,0,0-.344-.343H20.98a.343.343,0,0,0-.344.343v1.076a.343.343,0,0,0,.344.343ZM28.11,37.83v1.076a.343.343,0,0,0,.344.343h1.079a.343.343,0,0,0,.344-.343V37.83a.343.343,0,0,0-.344-.343H28.46a.343.343,0,0,0-.344.343ZM40,32.735V43.682a.686.686,0,0,1-.687.685H18.688A.686.686,0,0,1,18,43.682V32.735a.686.686,0,0,1,.688-.685H39.313A.686.686,0,0,1,40,32.735Zm-1.375.685H19.375V43h19.25ZM23.974,36.408H25.05a.343.343,0,0,0,.344-.343V34.99a.343.343,0,0,0-.344-.343H23.974a.343.343,0,0,0-.344.343v1.076A.343.343,0,0,0,23.974,36.408Zm2.991,0h1.079a.343.343,0,0,0,.344-.343V34.99a.343.343,0,0,0-.344-.343H26.965a.343.343,0,0,0-.344.343v1.076A.343.343,0,0,0,26.965,36.408ZM25.126,37.83v1.076a.343.343,0,0,0,.344.343h1.079a.343.343,0,0,0,.344-.343V37.83a.343.343,0,0,0-.344-.343H25.47a.343.343,0,0,0-.344.343Z" transform="translate(-18 -32.05)" fill="#fff"/>
</svg>
