<svg xmlns="http://www.w3.org/2000/svg" xmlns:xlink="http://www.w3.org/1999/xlink" width="24" height="24" viewBox="0 0 24 24">
  <defs>
    <clipPath id="clip-show-differences">
      <rect width="24" height="24"/>
    </clipPath>
  </defs>
  <g id="show-differences" clip-path="url(#clip-show-differences)">
    <g id="Group_2524" data-name="Group 2524" transform="translate(-1533.617 -139.725)">
      <path id="Path_956" data-name="Path 956" d="M1869.84,275.693c-.232-.252-.359-.4-.5-.544-.882-.886-1.774-1.764-2.648-2.659a.911.911,0,0,1-.1-1.292.883.883,0,0,1,1.289-.055q2.459,2.405,4.872,4.856a.834.834,0,0,1-.043,1.24q-2.374,2.4-4.773,4.777a.859.859,0,0,1-1.279.038.9.9,0,0,1,.025-1.335c.872-.9,1.764-1.773,2.648-2.659.142-.143.274-.294.521-.56h-17c-.208,0-.417.007-.624-.01a.831.831,0,0,1-.844-.9.814.814,0,0,1,.839-.894c.186-.016.375-.007.563-.007h17.054Z" transform="translate(-315.394 -130.891)" fill="#607088"/>
      <path id="Path_957" data-name="Path 957" d="M1854.3,362.057h16.866a3.638,3.638,0,0,1,.747.034.848.848,0,0,1,.715.953.8.8,0,0,1-.794.814,5.621,5.621,0,0,1-.624.01h-16.983a5.105,5.105,0,0,0,.331.424c.881.888,1.769,1.768,2.651,2.656.521.525.572,1.072.152,1.472s-.915.341-1.424-.167q-2.261-2.251-4.512-4.511a.93.93,0,0,1,0-1.555q2.249-2.262,4.51-4.512c.513-.51,1.014-.556,1.421-.151s.349.93-.151,1.423c-.982.989-1.976,1.969-2.961,2.954Z" transform="translate(-317.389 -205.233)" fill="#607088"/>
    </g>
  </g>
</svg>
