<svg xmlns="http://www.w3.org/2000/svg" width="20.152" height="21.2" viewBox="0 0 20.152 21.2">
  <g id="submit-for-approval" transform="translate(-4.8 -2.5)">
    <g id="Group_2418" data-name="Group 2418" transform="translate(4.8 2.5)">
      <path id="Path_801" data-name="Path 801" d="M20.956,54.2a.152.152,0,0,0-.156.156v1.449a.152.152,0,0,0,.156.156h5.372a6.336,6.336,0,0,1,1.2-1.761Z" transform="translate(-17.233 -42.675)" fill="#a8a8a8"/>
      <path id="Path_802" data-name="Path 802" d="M9.125,17.926a1.114,1.114,0,0,0-.78.312L6.271,20.111V3.971H19.2v8.047a3.956,3.956,0,0,1,.736-.045c.245,0,.49.022.736.045V3.659A1.151,1.151,0,0,0,19.513,2.5H5.959A1.151,1.151,0,0,0,4.8,3.659v17.1a1.187,1.187,0,0,0,.691,1.07,1.164,1.164,0,0,0,.468.089,1.1,1.1,0,0,0,.78-.29l2.474-2.252h4.057a3.956,3.956,0,0,1-.045-.736c0-.245.022-.49.045-.736H9.125Z" transform="translate(-4.8 -2.5)" fill="#a8a8a8"/>
      <path id="Path_803" data-name="Path 803" d="M29.449,18.956a.152.152,0,0,0-.156-.156H20.956a.152.152,0,0,0-.156.156v1.449a.152.152,0,0,0,.156.156h8.337a.152.152,0,0,0,.156-.156V18.956Z" transform="translate(-17.233 -15.166)" fill="#a8a8a8"/>
      <path id="Path_804" data-name="Path 804" d="M29.293,36.5H20.956a.152.152,0,0,0-.156.156v1.449a.152.152,0,0,0,.156.156h8.337a.152.152,0,0,0,.156-.156V36.656A.152.152,0,0,0,29.293,36.5Z" transform="translate(-17.233 -28.921)" fill="#a8a8a8"/>
      <path id="Path_805" data-name="Path 805" d="M55.038,52.4a5.038,5.038,0,1,0,5.038,5.038A5.047,5.047,0,0,0,55.038,52.4Zm0,8.582A3.567,3.567,0,1,1,58.6,57.416,3.577,3.577,0,0,1,55.038,60.982Z" transform="translate(-39.924 -41.276)" fill="#a8a8a8"/>
      <path id="Path_806" data-name="Path 806" d="M65.4,67.36l-1.4,1.583-.624-.624a.725.725,0,0,0-1.025,1.025l1.181,1.181a.726.726,0,0,0,.513.223h.022a.712.712,0,0,0,.535-.245l1.917-2.162a.715.715,0,0,0-.067-1.025A.74.74,0,0,0,65.4,67.36Z" transform="translate(-49.346 -52.714)" fill="#a8a8a8"/>
    </g>
  </g>
</svg>
