<svg id="submit-for-approval" xmlns="http://www.w3.org/2000/svg" width="24" height="24" viewBox="0 0 24 24">
  <path id="Path_827" data-name="Path 827" d="M0,0H24V24H0Z" fill="none"/>
  <g id="noun_Approve_2418289" transform="translate(-1.281 -20.181)">
    <g id="Group_2425" data-name="Group 2425" transform="translate(4.281 22.181)">
      <g id="Group_2424" data-name="Group 2424">
        <path id="Path_847" data-name="Path 847" d="M92.478,34.995c-.185.174-.371.345-.556.519l-1.331,1.241-1.6,1.494q-.684.637-1.368,1.276c-.216.2-.427.4-.645.6-.031.029-.064.057-.1.084l.209-.159a1.274,1.274,0,0,1-.257.145l.247-.1a1.351,1.351,0,0,1-.28.076l.276-.037a1.374,1.374,0,0,1-.317,0l.276.037a1.206,1.206,0,0,1-.28-.076l.247.1a1.381,1.381,0,0,1-.257-.145l.209.159c-.234-.182-.444-.4-.659-.6l-1.4-1.307L83.21,36.736l-1.366-1.274c-.255-.237-.52-.47-.757-.723q-.156-.168-.3-.349l.162.206a5.39,5.39,0,0,1-.692-1.17c.035.082.07.163.1.243a5.356,5.356,0,0,1-.369-1.339l.037.272a9.8,9.8,0,0,1-.046-1.282V24.991c0-.331,0-.661,0-.99a.766.766,0,0,1,.008-.12l-.037.272a.927.927,0,0,1,.05-.184c-.035.082-.07.163-.1.243a.9.9,0,0,1,.106-.184l-.162.206a.841.841,0,0,1,.149-.147l-.209.159a.952.952,0,0,1,.182-.1l-.247.1a.914.914,0,0,1,.207-.055l-.276.037a1.036,1.036,0,0,1,.195,0l-.276-.037c.228.031.454.1.676.147.473.106.947.212,1.42.321l2.544.572a12.741,12.741,0,0,0,2.326.31,11.8,11.8,0,0,0,2.992-.292l2.243-.5c.788-.178,1.574-.357,2.361-.531.039-.008.079-.016.118-.022l-.276.037a1.036,1.036,0,0,1,.195,0l-.276-.037a.886.886,0,0,1,.207.055l-.247-.1a.935.935,0,0,1,.182.1l-.209-.159a.841.841,0,0,1,.149.147l-.162-.206a.816.816,0,0,1,.106.184c-.035-.082-.07-.163-.1-.243a.926.926,0,0,1,.05.184l-.037-.272a2.653,2.653,0,0,1,.008.314v6.952c0,.323.008.647,0,.968-.006.163-.021.327-.041.488l.037-.272a5.27,5.27,0,0,1-.369,1.339c.035-.082.07-.163.1-.243a5.26,5.26,0,0,1-.692,1.17l.162-.206a5.739,5.739,0,0,1-.558.6,1.014,1.014,0,0,0,0,1.445,1.052,1.052,0,0,0,.734.3,1.116,1.116,0,0,0,.734-.3,6.145,6.145,0,0,0,1.883-3.565,7.52,7.52,0,0,0,.083-1.035V24.135a2.071,2.071,0,0,0-.077-.657,1.965,1.965,0,0,0-.425-.725,2.032,2.032,0,0,0-.326-.267.882.882,0,0,0-.16-.094,1.946,1.946,0,0,0-.838-.21,2.086,2.086,0,0,0-.477.057c-.419.088-.838.188-1.254.282q-1.092.245-2.183.492l-1.2.272c-.309.069-.622.125-.937.167l.276-.037a10.836,10.836,0,0,1-2.793,0l.276.037c-.574-.078-1.138-.212-1.7-.339l-2.135-.48q-.818-.184-1.638-.37l-.106-.024a1.925,1.925,0,0,0-1.393.2,1.843,1.843,0,0,0-.9,1.592v7.15c0,.274,0,.547,0,.823a5.981,5.981,0,0,0,.377,2.033,6.761,6.761,0,0,0,.483,1.029,6.672,6.672,0,0,0,.672.923,10.526,10.526,0,0,0,.86.853q.662.616,1.323,1.233.837.781,1.675,1.56l1.439,1.341c.214.2.427.4.643.6a2.337,2.337,0,0,0,.429.321,2.007,2.007,0,0,0,.6.233,2.107,2.107,0,0,0,.649.045,2.742,2.742,0,0,0,.446-.073,2.848,2.848,0,0,0,.413-.165,2.451,2.451,0,0,0,.605-.451l.983-.917,1.59-1.482q.805-.75,1.613-1.5c.359-.333.715-.668,1.074-1l.151-.141a1.014,1.014,0,0,0,0-1.445,1.052,1.052,0,0,0-.734-.3A1.122,1.122,0,0,0,92.478,34.995Z" transform="translate(-77.911 -22.181)" fill="#a8a8a8"/>
      </g>
    </g>
    <g id="Group_2427" data-name="Group 2427" transform="translate(8.95 27.678)">
      <g id="Group_2426" data-name="Group 2426">
        <path id="Path_848" data-name="Path 848" d="M301.767,296.026l2.057,2.057.288.288a1.044,1.044,0,0,0,1.454,0l1.44-1.44,2.291-2.291.52-.52a1.033,1.033,0,0,0,0-1.456,1.036,1.036,0,0,0-.728-.3,1.08,1.08,0,0,0-.728.3l-1.44,1.44-2.291,2.291-.52.52h1.454l-2.057-2.057-.288-.288a1.033,1.033,0,0,0-1.456,0,1.036,1.036,0,0,0-.3.728,1.08,1.08,0,0,0,.3.728Z" transform="translate(-301.462 -292.362)" fill="#a8a8a8"/>
      </g>
    </g>
  </g>
</svg>
