<svg xmlns="http://www.w3.org/2000/svg" width="164.904" height="81.203" viewBox="0 0 164.904 81.203">
  <g id="Group_189" data-name="Group 189" transform="translate(-861.596 -443.991)">
    <g id="Page-1" transform="translate(861.596 462.244)">
      <g id="icon-72-documents" transform="translate(0 0)">
        <path id="documents" d="M9.056,9.126v0A4.066,4.066,0,0,0,5,13.2V59.874A4.062,4.062,0,0,0,9.056,63.95h30.47a4.073,4.073,0,0,0,4.061-4.061,4.073,4.073,0,0,0,4.061-4.061A4.058,4.058,0,0,0,51.7,51.785V15.214L39.521,1H17.189a4.079,4.079,0,0,0-4.072,4.061A4.066,4.066,0,0,0,9.061,9.123h0l-.005,0Zm.005,2.027a2.039,2.039,0,0,0-2.031,2.021V59.9a2.035,2.035,0,0,0,2.031,2.021h30.46A2.039,2.039,0,0,0,41.551,59.9l-28.434-.009a4.062,4.062,0,0,1-4.056-4.076V11.153h0Zm4.061-4.061a2.039,2.039,0,0,0-2.031,2.021V55.836a2.035,2.035,0,0,0,2.031,2.021h30.46a2.039,2.039,0,0,0,2.031-2.021v-.009H17.179a4.062,4.062,0,0,1-4.056-4.076V7.092ZM37.49,3.031H17.175a2.034,2.034,0,0,0-2.022,2.021V51.775A2.035,2.035,0,0,0,17.184,53.8h30.46a2.024,2.024,0,0,0,2.031-2.017V17.245H41.547a4.05,4.05,0,0,1-4.057-4.073V3.031Zm2.031,1.015v9.12a2.042,2.042,0,0,0,2.024,2.048h7.52L39.521,4.046Z" transform="translate(-5 -1)" fill="#0062cf" fill-rule="evenodd"/>
      </g>
    </g>
    <g id="Expanded" transform="translate(963.587 443.991)">
      <g id="Group_145" data-name="Group 145" transform="translate(0 0)">
        <g id="Group_140" data-name="Group 140">
          <path id="Path_309" data-name="Path 309" d="M56.359,55.728H6.553A6.556,6.556,0,0,1,0,49.185V12.543A6.556,6.556,0,0,1,6.553,6H56.359a6.556,6.556,0,0,1,6.553,6.543V49.185A6.556,6.556,0,0,1,56.359,55.728ZM6.553,8.617a3.934,3.934,0,0,0-3.932,3.926V49.185a3.934,3.934,0,0,0,3.932,3.926H56.359a3.934,3.934,0,0,0,3.932-3.926V12.543a3.934,3.934,0,0,0-3.932-3.926Z" transform="translate(0 -6)" fill="#0062cf"/>
        </g>
        <g id="Group_141" data-name="Group 141" transform="translate(0 13.086)">
          <path id="Path_310" data-name="Path 310" d="M61.6,18.617H1.311a1.309,1.309,0,1,1,0-2.617H61.6a1.309,1.309,0,1,1,0,2.617Z" transform="translate(0 -16)" fill="#0062cf"/>
        </g>
        <g id="Group_142" data-name="Group 142" transform="translate(8.049 5.031)">
          <ellipse id="Ellipse_57" data-name="Ellipse 57" cx="2" cy="2.5" rx="2" ry="2.5" transform="translate(0.364 -0.022)" fill="#0062cf"/>
        </g>
        <g id="Group_143" data-name="Group 143" transform="translate(16.463 5.031)">
          <circle id="Ellipse_58" data-name="Ellipse 58" cx="2.5" cy="2.5" r="2.5" transform="translate(-0.05 -0.022)" fill="#0062cf"/>
        </g>
        <g id="Group_144" data-name="Group 144" transform="translate(23.675 5.031)">
          <circle id="Ellipse_59" data-name="Ellipse 59" cx="2.5" cy="2.5" r="2.5" transform="translate(-0.262 -0.022)" fill="#0062cf"/>
        </g>
      </g>
    </g>
    <g id="Layer_2" transform="translate(919.671 462.263)">
      <g id="Layer_3" transform="translate(0 0)">
        <path id="Path_311" data-name="Path 311" d="M60.381,25.352l-2.054-1.716,6.909-7.123H37.412C21.166,16.513,8,28.613,8,43.545H5.2c0-16.391,14.472-29.606,32.306-29.692H65.236l-7-7.037L60.288,5.1l9.9,10.212Z" transform="translate(-5.2 -5.1)" fill="#0062cf"/>
      </g>
    </g>
  </g>
</svg>
