<svg id="upload" xmlns="http://www.w3.org/2000/svg" width="23.72" height="20.392" viewBox="0 0 23.72 20.392">
  <g id="Group_2058" data-name="Group 2058" transform="translate(6.876 7.663)">
    <g id="Group_2057" data-name="Group 2057">
      <path id="Path_503" data-name="Path 503" d="M153.433,201.322l-5.007,5.007,1.308,1.308,2.774-2.774v9.188h1.85v-9.188l2.774,2.774,1.308-1.308Z" transform="translate(-148.426 -201.322)" fill="#fff"/>
    </g>
  </g>
  <g id="Group_2060" data-name="Group 2060">
    <g id="Group_2059" data-name="Group 2059">
      <path id="Path_504" data-name="Path 504" d="M19.278,43.215A7.491,7.491,0,0,0,4.449,41.929,5.642,5.642,0,0,0,5.641,53.085h.971v-1.85H5.636a3.792,3.792,0,0,1-.3-7.571L6.1,43.6l.079-.766a5.641,5.641,0,0,1,11.252.584v1.618h1.341a3.1,3.1,0,0,1,0,6.2H17.154v1.85h1.618a4.948,4.948,0,0,0,.506-9.87Z" transform="translate(0 -35.93)" fill="#fff"/>
    </g>
  </g>
</svg>
