<svg xmlns="http://www.w3.org/2000/svg" width="24" height="24" viewBox="0 0 24 24">
  <g id="Workflow" transform="translate(-0.861 -2)">
    <g id="Layer_2" data-name="Layer 2" transform="translate(0.861 2)">
      <path id="Path_893" data-name="Path 893" d="M25.987,22.571a3.421,3.421,0,0,1-6.734.857H8.852a5.143,5.143,0,0,1,0-10.285h1.833a3.412,3.412,0,0,1,6.614,0h1.833a3.428,3.428,0,0,0,0-6.857H8.732a3.428,3.428,0,1,1,0-1.714h10.4a5.143,5.143,0,0,1,0,10.285H17.3a3.412,3.412,0,0,1-6.614,0H8.852a3.428,3.428,0,0,0,0,6.857h10.4a3.421,3.421,0,0,1,6.734.857Z" transform="translate(-1.987 -2)" fill="#00a0e3"/>
    </g>
  </g>
</svg>
