<svg xmlns="http://www.w3.org/2000/svg" width="21.131" height="21.131" viewBox="0 0 21.131 21.131">
  <g id="zoom-out" transform="translate(-4.5 -4.5)">
    <g id="Path_702" data-name="Path 702" fill="none" stroke-linecap="round" stroke-linejoin="round">
      <path d="M22.278,13.389A8.889,8.889,0,1,1,13.389,4.5,8.889,8.889,0,0,1,22.278,13.389Z" stroke="none"/>
      <path d="M 13.38888835906982 6.099998474121094 C 9.369777679443359 6.099998474121094 6.099998474121094 9.369777679443359 6.099998474121094 13.38888835906982 C 6.099998474121094 17.40799713134766 9.369777679443359 20.67777824401855 13.38888835906982 20.67777824401855 C 17.40799713134766 20.67777824401855 20.67777824401855 17.40799713134766 20.67777824401855 13.38888835906982 C 20.67777824401855 9.369777679443359 17.40799713134766 6.099998474121094 13.38888835906982 6.099998474121094 M 13.38888835906982 4.499998092651367 C 18.29808807373047 4.499998092651367 22.27777862548828 8.47968864440918 22.27777862548828 13.38888835906982 C 22.27777862548828 18.29808807373047 18.29808807373047 22.27777862548828 13.38888835906982 22.27777862548828 C 8.47968864440918 22.27777862548828 4.499998092651367 18.29808807373047 4.499998092651367 13.38888835906982 C 4.499998092651367 8.47968864440918 8.47968864440918 4.499998092651367 13.38888835906982 4.499998092651367 Z" stroke="none" fill="#000"/>
    </g>
    <path id="Path_703" data-name="Path 703" d="M29.808,29.808l-4.833-4.833" transform="translate(-5.308 -5.308)" fill="none" stroke="#000" stroke-linecap="round" stroke-linejoin="round" stroke-width="1.6"/>
    <path id="Path_704" data-name="Path 704" d="M12,16.5h6.667" transform="translate(-1.944 -3.111)" fill="none" stroke="#000" stroke-linecap="round" stroke-linejoin="round" stroke-width="1.6"/>
  </g>
</svg>
