<svg id="Layer_1" data-name="Layer 1" xmlns="http://www.w3.org/2000/svg" viewBox="0 0 32 32"><defs><style>.cls-1{stroke:#000;stroke-miterlimit:10;}</style></defs><g id="Path_698" data-name="Path 698"><path class="cls-1" d="M14.16,1.75A12.42,12.42,0,1,0,26.58,14.16,12.43,12.43,0,0,0,14.16,1.75Zm0,23.32A10.91,10.91,0,1,1,25.07,14.16,10.91,10.91,0,0,1,14.16,25.07Z"/></g><g id="Path_699" data-name="Path 699"><path class="cls-1" d="M30.25,31.05a.83.83,0,0,1-.57-.23l-7.12-7.13a.8.8,0,0,1,1.13-1.13l7.13,7.13a.8.8,0,0,1,0,1.13A.83.83,0,0,1,30.25,31.05Z"/></g><g id="Path_700" data-name="Path 700"><path class="cls-1" d="M14.2,19.93a.8.8,0,0,1-.8-.8V9.3a.8.8,0,1,1,1.6,0v9.83A.8.8,0,0,1,14.2,19.93Z"/></g><g id="Path_701" data-name="Path 701"><path class="cls-1" d="M19.13,15H9.3a.8.8,0,0,1,0-1.6h9.83a.8.8,0,1,1,0,1.6Z"/></g></svg>