<svg xmlns="http://www.w3.org/2000/svg" width="21.131" height="21.131" viewBox="0 0 21.131 21.131">
  <g id="zoom-in" transform="translate(-4.5 -4.5)">
    <g id="Path_698" data-name="Path 698" transform="translate(0 0)" fill="none" stroke-linecap="round" stroke-linejoin="round">
      <path d="M22.234,13.367A8.867,8.867,0,1,1,13.367,4.5,8.867,8.867,0,0,1,22.234,13.367Z" stroke="none"/>
      <path d="M 13.36713314056396 6.100002288818359 C 9.360023498535156 6.100002288818359 6.100002288818359 9.360023498535156 6.100002288818359 13.36713314056396 C 6.100002288818359 17.37424278259277 9.360023498535156 20.63426208496094 13.36713314056396 20.63426208496094 C 17.37424278259277 20.63426208496094 20.63426208496094 17.37424278259277 20.63426208496094 13.36713314056396 C 20.63426208496094 9.360023498535156 17.37424278259277 6.100002288818359 13.36713314056396 6.100002288818359 M 13.36713314056396 4.500003814697266 C 18.26431274414063 4.500003814697266 22.23426246643066 8.469953536987305 22.23426246643066 13.36713314056396 C 22.23426246643066 18.26431274414063 18.26431274414063 22.23426246643066 13.36713314056396 22.23426246643066 C 8.469953536987305 22.23426246643066 4.500003814697266 18.26431274414063 4.500003814697266 13.36713314056396 C 4.500003814697266 8.469953536987305 8.469953536987305 4.500003814697266 13.36713314056396 4.500003814697266 Z" stroke="none" fill="#000"/>
    </g>
    <path id="Path_699" data-name="Path 699" d="M29.9,29.9l-4.928-4.928" transform="translate(-5.403 -5.403)" fill="none" stroke="#000" stroke-linecap="round" stroke-linejoin="round" stroke-width="1.6"/>
    <path id="Path_700" data-name="Path 700" d="M16.5,12v6.8" transform="translate(-3.111 -1.999)" fill="none" stroke="#000" stroke-linecap="round" stroke-linejoin="round" stroke-width="1.6"/>
    <path id="Path_701" data-name="Path 701" d="M12,16.5h6.8" transform="translate(-1.999 -3.111)" fill="none" stroke="#000" stroke-linecap="round" stroke-linejoin="round" stroke-width="1.6"/>
  </g>
</svg>
