<svg id="Deploy" xmlns="http://www.w3.org/2000/svg" width="24" height="24" viewBox="0 0 24 24">
  <path id="Path_836" data-name="Path 836" d="M0,0H24V24H0Z" fill="none"/>
  <g id="deployment-unit_1" transform="translate(1.039 -22.7)">
    <path id="Path_860" data-name="Path 860" d="M20.542,39.342a2.81,2.81,0,0,0-3.291.329L15.9,38.884V35a1.133,1.133,0,0,0-.559-.977l-3.463-2.006V30.291a2.853,2.853,0,1,0-1.839,0v1.721L6.579,34.019A1.124,1.124,0,0,0,6.021,35v3.883l-1.349.787a2.81,2.81,0,0,0-3.291-.329A2.894,2.894,0,0,0,.341,43.26a2.822,2.822,0,0,0,3.875,1.051,2.879,2.879,0,0,0,1.366-3.044l1.242-.726L10.4,42.616a1.106,1.106,0,0,0,1.117,0L15.1,40.544l1.242.726a2.879,2.879,0,0,0,1.366,3.044,2.818,2.818,0,0,0,3.875-1.051A2.892,2.892,0,0,0,20.542,39.342ZM3.409,42.892a1.2,1.2,0,0,1-1.654-.445l0-.009A1.233,1.233,0,0,1,2.2,40.761a1.2,1.2,0,0,1,1.654.445l0,.009A1.235,1.235,0,0,1,3.409,42.892ZM9.741,27.576a1.222,1.222,0,1,1,1.2,1.206A1.227,1.227,0,0,1,9.741,27.576Zm4.326,11.433-3.106,1.8-3.106-1.8v-3.6l3.106-1.8,3.106,1.8Zm6.109,3.434a1.2,1.2,0,0,1-1.658.45,1.237,1.237,0,0,1-.447-1.678,1.2,1.2,0,0,1,1.658-.45A1.233,1.233,0,0,1,20.177,42.443Z" transform="translate(0 0)" fill="#607088"/>
  </g>
</svg>
