<svg xmlns="http://www.w3.org/2000/svg" width="24" height="21.775" viewBox="0 0 24 21.775">
  <g id="deployment-unit_1" transform="translate(0.037 -24.737)">
    <path id="Path_860" data-name="Path 860" d="M22.413,40.67a3.065,3.065,0,0,0-3.59.359l-1.474-.859V35.933a1.236,1.236,0,0,0-.61-1.066l-3.778-2.188V30.8a3.112,3.112,0,1,0-2.006,0v1.877L7.181,34.863a1.226,1.226,0,0,0-.609,1.07v4.236L5.1,41.028a3.065,3.065,0,0,0-3.59-.359A3.157,3.157,0,0,0,.375,44.944,3.079,3.079,0,0,0,4.6,46.091a3.141,3.141,0,0,0,1.49-3.321l1.355-.792,3.9,2.264a1.207,1.207,0,0,0,1.219,0l3.909-2.26,1.355.792a3.141,3.141,0,0,0,1.49,3.321,3.074,3.074,0,0,0,4.227-1.147A3.155,3.155,0,0,0,22.413,40.67ZM3.722,44.543a1.309,1.309,0,0,1-1.8-.485v-.01A1.345,1.345,0,0,1,2.4,42.218a1.309,1.309,0,0,1,1.8.485v.01a1.347,1.347,0,0,1-.485,1.829ZM10.63,27.834a1.333,1.333,0,1,1,1.309,1.316,1.333,1.333,0,0,1-1.309-1.316Zm4.719,12.472L11.961,42.27,8.573,40.307V36.379l3.388-1.964,3.388,1.964Zm6.664,3.746a1.309,1.309,0,0,1-1.809.491,1.349,1.349,0,0,1-.488-1.831,1.309,1.309,0,0,1,1.809-.491,1.345,1.345,0,0,1,.489,1.831Z" transform="translate(0 0)" fill="#00a0e3"/>
  </g>
</svg>
