<svg id="Layer_1" data-name="Layer 1" xmlns="http://www.w3.org/2000/svg" viewBox="0 0 24 24"><defs><style>.cls-1{fill:#00a0e3;}</style></defs><path class="cls-1" d="M15.11,18.42v1.77H17.5a.69.69,0,1,1,0,1.37h-10a.69.69,0,1,1,0-1.37H9.75l.08,0V18.42H2.11c-.78,0-1.11-.34-1.11-1.13V3.64a2.55,2.55,0,0,1,0-.39.87.87,0,0,1,1-.81H22a.9.9,0,0,1,1,.86,2.71,2.71,0,0,1,0,.29V17.28c0,.1,0,.2,0,.3a.9.9,0,0,1-1,.84H15.11ZM12,3.25H2.83a.91.91,0,0,0-.77.33,1.2,1.2,0,0,0-.21.76q0,5.43,0,10.87c0,.78.32,1.11,1.1,1.11H21.23a.7.7,0,0,0,.61-.31,1.72,1.72,0,0,0,.23-.75c0-.95,0-1.91,0-2.87V4.32A.94.94,0,0,0,21,3.25Zm2.49,15.1H10.4v.29h4.06Zm-2.1-.59a.56.56,0,0,0,.56-.56.58.58,0,0,0-.56-.56.56.56,0,0,0-.56.57A.54.54,0,0,0,12.36,17.76Z"/><path class="cls-1" d="M14.46,18.35v.29H10.4v-.29Z"/><path class="cls-1" d="M12.36,17.76a.54.54,0,0,1-.56-.55.56.56,0,0,1,.56-.57.58.58,0,0,1,.56.56A.56.56,0,0,1,12.36,17.76Z"/></svg>