<svg id="Layer_1" data-name="Layer 1" xmlns="http://www.w3.org/2000/svg" viewBox="0 0 2751 1867"><defs><style>.cls-1{fill:#262626;}.cls-2{opacity:0.3;}.cls-3{fill:#2f71f4;}.cls-4{fill:#fff;}</style></defs><polygon class="cls-1" points="1413.8 1265.09 860.79 1265.09 860.79 374.09 1766.69 374.09 1766.69 984.86 1755.23 984.86 1755.23 385.56 872.26 385.56 872.26 1253.62 1413.8 1253.62 1413.8 1265.09"/><polygon class="cls-1" points="1801.1 955.33 1789.63 955.33 1789.63 355.75 1032.23 355.75 1032.23 344.28 1801.1 344.28 1801.1 955.33"/><g class="cls-2"><path class="cls-3" d="M1642.85,554.13V1086.2H971.16S948.23,892.41,1307,819.59C1307,819.59,1389.43,589.68,1642.85,554.13Z"/></g><circle class="cls-3" cx="1385.99" cy="645.86" r="135.31"/><rect class="cls-1" x="1046.56" y="56.73" width="11.47" height="211.86"/><rect class="cls-1" x="886.59" y="96.88" width="11.47" height="195.5" transform="translate(0.01 389.29) rotate(-24.61)"/><rect class="cls-1" x="715.11" y="154.58" width="11.47" height="248.68" transform="translate(79.85 710.81) rotate(-55.12)"/><rect class="cls-1" x="687.64" y="359.14" width="11.47" height="180.14" transform="matrix(0.2, -0.98, 0.98, 0.2, 116.17, 1040.29)"/><rect class="cls-1" x="460.92" y="590.67" width="321.57" height="11.47" transform="translate(-56.94 65.69) rotate(-5.78)"/><g class="cls-2"><path class="cls-3" d="M2459.14,1200.88l-469-133.86,1.57-5.52L2124,598l469,133.86-1.57,5.52Zm-454.82-141.74,446.94,127.56,127.57-446.93L2131.89,612.2Z"/></g><polyline class="cls-3" points="2113.62 980.47 2334.32 769.71 2388.74 1062.35"/><g class="cls-2"><polygon class="cls-3" points="343.98 1503.66 241.71 941.93 797.81 840.69 799.86 851.97 255.05 951.16 353.2 1490.33 898.02 1391.14 900.07 1402.43 343.98 1503.66"/></g><rect class="cls-3" x="462.88" y="1060.97" width="222.46" height="222.46" transform="translate(-192.45 115.78) rotate(-9.87)"/><path class="cls-1" d="M1841.24,1815.51a5.72,5.72,0,0,1-4.7-2.44c-1.46-2.09-147.5-210.13-270.89-359a335.58,335.58,0,0,1-77.17-192.59c-3.37-49.92,12.79-117,39.31-163.26a5.74,5.74,0,0,1,10,5.71c-25.5,44.43-41,108.9-37.82,156.78a324.17,324.17,0,0,0,74.56,186c123.69,149.2,270,357.62,271.45,359.71a5.74,5.74,0,0,1-4.69,9Z"/><path class="cls-4" d="M1625.65,1351.09S1455.6,898,1414.55,767.62A224.93,224.93,0,0,1,1404,694.7c.82-33.77,9.47-67.47,48.82-15.54a204.23,204.23,0,0,1,22.93,38.61c39.65,86.82,230.84,504.63,246.25,522.09"/><path class="cls-1" d="M1625.65,1356.83a5.75,5.75,0,0,1-5.37-3.72c-1.7-4.54-170.57-454.78-211.2-583.77a230.12,230.12,0,0,1-10.84-74.78c.68-28.2,6.37-43.64,17.4-47.2s24.36,5.42,41.72,28.34a211.2,211.2,0,0,1,23.58,39.68c106,232,233.79,507.6,245.33,520.69a5.73,5.73,0,1,1-8.6,7.58c-15.55-17.63-193.12-405.15-247.17-523.5a198.79,198.79,0,0,0-22.28-37.52c-19.06-25.16-27.06-25-29.06-24.36-4.18,1.35-8.86,11.66-9.46,36.57a218.85,218.85,0,0,0,10.31,71c40.55,128.7,209.31,578.66,211,583.19a5.73,5.73,0,0,1-3.36,7.38A5.67,5.67,0,0,1,1625.65,1356.83Z"/><path class="cls-1" d="M1809.12,1214.63a5.74,5.74,0,0,1-5.39-3.77c-47-129.4-94.56-187.36-126.18-213.19-33.71-27.53-56.65-25.07-56.88-25a5.77,5.77,0,0,1-6.41-4.93,5.71,5.71,0,0,1,4.84-6.43c1.09-.16,27-3.45,64.17,26.28,48.2,38.52,92.36,112.34,131.24,219.39a5.73,5.73,0,0,1-3.43,7.35A5.86,5.86,0,0,1,1809.12,1214.63Z"/><path class="cls-1" d="M1877.92,1196.29a5.74,5.74,0,0,1-5.59-4.5c-16.45-74.49-48.93-128.45-93.93-156-33.84-20.75-63.28-19.47-63.57-19.46a5.73,5.73,0,0,1-.64-11.45c1.32-.07,32.74-1.58,69.52,20.71,21.44,13,40.29,31.43,56,54.81,19.49,28.94,34.22,65.6,43.79,108.94a5.72,5.72,0,0,1-4.36,6.83A5.82,5.82,0,0,1,1877.92,1196.29Z"/><path class="cls-1" d="M2235.69,1696.25a5.69,5.69,0,0,1-3.23-1c-50.67-34.73-111.42-104.87-162.51-187.63-54.3-88-90.13-178.22-98.28-247.6-8.83-75.09-34.48-119.3-54.44-143.17-21.54-25.74-41.26-34-41.45-34.06a5.73,5.73,0,0,1,4.28-10.64c.89.36,22.07,9,45.39,36.66,21.19,25.09,48.38,71.45,57.61,149.88,17.33,147.44,155.19,358.08,255.88,427.1a5.73,5.73,0,0,1-3.25,10.46Z"/></svg>