<svg id="Layer_1" data-name="Layer 1" xmlns="http://www.w3.org/2000/svg" viewBox="0 0 24 24"><defs><style>.cls-1{fill:#607088;stroke:#607088;stroke-miterlimit:10;stroke-width:0.4px;}</style></defs><path class="cls-1" d="M12.13.84l7.4,4L22,6.11A.68.68,0,0,1,22,7.4l-9.58,5.12a.83.83,0,0,1-.86,0L2,7.4A.68.68,0,0,1,2,6.11L11.58,1l.29-.15Zm8.29,5.92-.18-.11L12.17,2.33a.32.32,0,0,0-.35,0l-8,4.3-.19.12.17.1,8.09,4.32a.32.32,0,0,0,.35,0l8-4.29Z"/><path class="cls-1" d="M3.58,12l.2.13,8.06,4.31a.31.31,0,0,0,.32,0l8.08-4.33.17-.1-.22-.13-1.48-.79a.66.66,0,1,1,.61-1.16l2.75,1.47a.67.67,0,0,1,0,1.22l-9.7,5.19a.77.77,0,0,1-.75,0L2,12.63a.67.67,0,0,1,0-1.24L4.68,9.93a.66.66,0,1,1,.62,1.15Z"/><path class="cls-1" d="M3.57,17.27,5,18l6.79,3.64a.4.4,0,0,0,.42,0c2.67-1.44,5.34-2.86,8-4.29l.21-.12-1.61-.86a.69.69,0,0,1-.41-.51.65.65,0,0,1,.91-.7l.14.07L22,16.63a.69.69,0,0,1,.44.63.71.71,0,0,1-.44.64L12.41,23a.8.8,0,0,1-.83,0Q6.8,20.46,2,17.9a.68.68,0,0,1,0-1.27c.86-.45,1.71-.91,2.56-1.37a.72.72,0,0,1,.62-.08.65.65,0,0,1,.08,1.19l-1.38.74Z"/></svg>