<svg xmlns="http://www.w3.org/2000/svg" xmlns:xlink="http://www.w3.org/1999/xlink" width="24" height="24" viewBox="0 0 24 24">
  <defs>
    <clipPath id="clip-load">
      <rect width="24" height="24"/>
    </clipPath>
  </defs>
  <g id="load" clip-path="url(#clip-load)">
    <g id="menu-line" transform="translate(-5 10)">
      <path id="Path_846" data-name="Path 846" d="M0,0H24V24H0Z" fill="none"/>
    </g>
    <g id="Layer_2" data-name="Layer 2" transform="translate(-0.001 0.582)">
      <g id="Layer_1-2" data-name="Layer 1-2">
        <path id="Path_1064" data-name="Path 1064" d="M23.7,9.253a.967.967,0,0,0-1.357.023L21.07,10.589A10.566,10.566,0,0,0,3.013,4.071h0A10.951,10.951,0,0,0,1.693,5.7a.949.949,0,0,0,.242,1.324A.962.962,0,0,0,2.5,7.2a.951.951,0,0,0,.8-.433A9.148,9.148,0,0,1,4.381,5.4h0a8.655,8.655,0,0,1,12.2-.167,8.563,8.563,0,0,1,2.57,5.33l-1.2-1.19a.964.964,0,0,0-1.357-.02.953.953,0,0,0-.02,1.351l.02.019,2.9,2.884a.963.963,0,0,0,.679.28h0a.959.959,0,0,0,.682-.3l2.869-2.969a.956.956,0,0,0-.013-1.356Z" fill="#fff"/>
        <path id="Path_1065" data-name="Path 1065" d="M5.817,18.614a8.6,8.6,0,0,1-2.4-2.343A.962.962,0,0,0,2.113,15.9a.952.952,0,0,0-.375,1.3.932.932,0,0,0,.094.138,10.456,10.456,0,0,0,2.932,2.861.932.932,0,0,0,.525.157A.954.954,0,0,0,5.817,18.6Z" fill="#fff"/>
        <path id="Path_1066" data-name="Path 1066" d="M2.1,13.2a8.516,8.516,0,0,1-.184-1.772,8.684,8.684,0,0,1,.143-1.552A.959.959,0,0,0,.223,9.309a.935.935,0,0,0-.041.217A10.554,10.554,0,0,0,.219,13.6a.958.958,0,0,0,.938.746.892.892,0,0,0,.2-.022A.955.955,0,0,0,2.1,13.2Z" fill="#fff"/>
        <path id="Path_1067" data-name="Path 1067" d="M12.292,19.845a8.785,8.785,0,0,1-3.374.022.955.955,0,0,0-.375,1.865,10.658,10.658,0,0,0,4.124-.026.955.955,0,0,0-.375-1.865Z" fill="#fff"/>
        <path id="Path_1068" data-name="Path 1068" d="M16.72,17.442A8.63,8.63,0,0,1,15.4,18.561a.954.954,0,0,0,.54,1.746.986.986,0,0,0,.555-.182,10.659,10.659,0,0,0,1.619-1.347.952.952,0,0,0-.028-1.351.964.964,0,0,0-1.344.015Z" fill="#fff"/>
      </g>
    </g>
  </g>
</svg>
