<svg id="Layer_1" data-name="Layer 1" xmlns="http://www.w3.org/2000/svg" viewBox="0 0 24 24"><defs><style>.cls-1{fill:#00a0e3;stroke:#00a0e3;stroke-miterlimit:10;stroke-width:0.2px;}</style></defs><path class="cls-1" d="M22.07,9l-4.47-.3c.56-.5,1-.92,1.45-1.28s.39-.51.08-.9a8.66,8.66,0,0,0-8.8-2.82,8.53,8.53,0,0,0-6.41,7.82c0,.1,0,.2-.06.36H2.39C2,8.49,4.63,4.51,8.42,2.7c4-1.92,8.4-.79,12.32,3.22l1.61-1.36Z"/><path class="cls-1" d="M4.28,18.12,2.65,19.5l.29-4.44,4.46.29L6.2,16.42c-.74.66-.74.67-.09,1.38a8.6,8.6,0,0,0,14.41-2.69,26.32,26.32,0,0,0,.73-2.94h1.34c.49,3.06-2.18,7.28-5.49,9A10.38,10.38,0,0,1,4.28,18.12Z"/></svg>