<svg xmlns="http://www.w3.org/2000/svg" width="22.782" height="24.5" viewBox="0 0 22.782 24.5">
  <g id="schedule" transform="translate(-77.75 -71.75)">
    <g id="Group_2754" data-name="Group 2754" transform="translate(78 72)">
      <path id="Path_1154" data-name="Path 1154" d="M7.039,1.774h8.148V.554A.57.57,0,0,1,15.8,0H17.9a.6.6,0,0,1,.554.554V1.774H19.9A2.39,2.39,0,0,1,22.282,4.1v17.57A2.39,2.39,0,0,1,19.9,24H2.383A2.354,2.354,0,0,1,0,21.672V4.1A2.354,2.354,0,0,1,2.383,1.774H3.824V.554A.555.555,0,0,1,4.379,0H6.485a.555.555,0,0,1,.554.554Zm8.148,1.109H7.039V4.046a.524.524,0,0,1-.554.554H4.379a.524.524,0,0,1-.554-.554V2.882H2.383A1.243,1.243,0,0,0,1.109,4.1V5.709H21.173V4.1A1.279,1.279,0,0,0,19.9,2.882H18.457V4.046a.57.57,0,0,1-.61.554H15.741a.555.555,0,0,1-.554-.554Zm2.162-1.774H16.3V3.492h1.053Zm-11.418,0h-1V3.492h1ZM21.173,6.818H1.109V21.672a1.243,1.243,0,0,0,1.275,1.219H19.9a1.279,1.279,0,0,0,1.275-1.219Z" fill="#607088" stroke="#607088" stroke-width="0.5"/>
      <path id="Path_1155" data-name="Path 1155" d="M100.875,163a5.848,5.848,0,0,1,0,11.7,5.848,5.848,0,1,1,0-11.7Zm0,1.109a4.739,4.739,0,1,0,4.711,4.711A4.707,4.707,0,0,0,100.875,164.109Z" transform="translate(-89.734 -153.965)" fill="#607088" stroke="#607088" stroke-width="0.5"/>
      <path id="Path_1156" data-name="Path 1156" d="M191,208.554a.555.555,0,0,1,.554-.554.6.6,0,0,1,.554.554v2.217h1.607a.555.555,0,0,1,.554.554.524.524,0,0,1-.554.554h-2.162a.524.524,0,0,1-.554-.554Z" transform="translate(-180.413 -196.471)" fill="#607088" stroke="#607088" stroke-width="0.5"/>
    </g>
  </g>
</svg>
