<svg xmlns="http://www.w3.org/2000/svg" width="24.042" height="24.042" viewBox="0 0 24.042 24.042">
  <path id="Scheduler" d="M20.032,3.4H24.84a1.2,1.2,0,0,1,1.2,1.2V23.84a1.2,1.2,0,0,1-1.2,1.2H3.2A1.2,1.2,0,0,1,2,23.84V4.606A1.2,1.2,0,0,1,3.2,3.4H8.011V1h2.4V3.4h7.213V1h2.4Zm3.606,9.617H4.4v9.617H23.638ZM17.628,5.808H10.415v2.4h-2.4v-2.4H4.4v4.808H23.638V5.808H20.032v2.4h-2.4ZM6.808,15.425h2.4v2.4h-2.4Zm6.011,0h2.4v2.4h-2.4Zm6.011,0h2.4v2.4h-2.4Z" transform="translate(-2 -1)" fill="#607088"/>
</svg>
