<svg xmlns="http://www.w3.org/2000/svg" width="24" height="26.79" viewBox="0 0 24 26.79">
  <g id="View_Logs" data-name="View Logs" transform="translate(-4 -1)">
    <g id="_18b" data-name="18b" transform="translate(4 1)">
      <path id="Path_1157" data-name="Path 1157" d="M28,7.466v19.4a.964.964,0,0,1-1,.924H5a.964.964,0,0,1-1-.924V3.771a.964.964,0,0,1,1-.924H9V1.924a1,1,0,0,1,2,0v.924h4V1.924a1,1,0,0,1,2,0v.924h4V1.924a1,1,0,0,1,2,0v.924h4a.964.964,0,0,1,1,.924A.964.964,0,0,1,27,4.7H23V5.878a1.792,1.792,0,0,1,.932,2.078,2.047,2.047,0,0,1-3.864,0A1.792,1.792,0,0,1,21,5.878V4.7H17V5.878a1.792,1.792,0,0,1,.932,2.078,2.047,2.047,0,0,1-3.864,0A1.792,1.792,0,0,1,15,5.878V4.7H11V5.878a1.792,1.792,0,0,1,.932,2.078,2.047,2.047,0,0,1-3.864,0A1.792,1.792,0,0,1,9,5.878V4.7H6V25.942H26V7.466a1,1,0,0,1,2,0Zm-5,4.619H9a.927.927,0,1,0,0,1.848H23a.927.927,0,1,0,0-1.848ZM23,16.7H9a.927.927,0,1,0,0,1.848H23A.927.927,0,1,0,23,16.7ZM9,21.323a.927.927,0,1,0,0,1.848H23a.927.927,0,1,0,0-1.848Z" transform="translate(-4 -1)" fill="#607088"/>
    </g>
  </g>
</svg>
