<svg xmlns="http://www.w3.org/2000/svg" viewBox="0 0 2438 1134"><defs><style>.cls-1{isolation:isolate;}.cls-2{fill:#009fe2;}.cls-3{fill:#001c47;}.cls-4{fill:#1e9ed8;}.cls-5{fill:#111f46;}.cls-6{fill:#fff;}.cls-7{mix-blend-mode:soft-light;opacity:0.5;}.cls-8{fill:#fbfcff;}.cls-10,.cls-11,.cls-9{fill:none;stroke:#000;stroke-linecap:round;stroke-linejoin:round;stroke-width:5px;}.cls-10{stroke-dasharray:2 14.97;}.cls-11{stroke-dasharray:2 15;}.cls-12{fill:#2f2f2f;}</style></defs><g class="cls-1"><g id="Layer_1" data-name="Layer 1"><rect class="cls-2" x="904.19" y="54" width="205.81" height="139" rx="20.5"/><path class="cls-3" d="M851.41,856.78a80.06,80.06,0,0,1,19.34-35.7l13.45,12.53a62.16,62.16,0,0,0,78.36,95.12l9.74,15.59a80.61,80.61,0,0,1-120.89-87.54Z"/><path class="cls-3" d="M1347.58,498.53a4.78,4.78,0,0,1-1.77-.33,4.85,4.85,0,0,1-2.75-6.27c.67-1.72,16.92-42.07,64.89-48.39a4.85,4.85,0,0,1,1.26,9.62c-42.14,5.55-56.53,40.8-57.12,42.3A4.84,4.84,0,0,1,1347.58,498.53Z"/><path class="cls-4" d="M1357.11,536.44c9.18-13,3.22-33-13.3-44.64s-37.35-10.61-46.52,2.38Z"/><path class="cls-3" d="M1357.11,541.29a4.84,4.84,0,0,1-2.79-.89l-59.83-42.26a4.85,4.85,0,0,1-1.16-6.76c5.31-7.52,13.91-12,24.22-12.48a46.92,46.92,0,0,1,29.06,8.93c18.67,13.2,25.16,36.26,14.47,51.41a4.87,4.87,0,0,1-3.14,2A5.81,5.81,0,0,1,1357.11,541.29Zm-52.52-47.9,50.83,35.91c3.84-10.61-1.9-24.71-14.41-33.54a37.27,37.27,0,0,0-23-7.18A22.77,22.77,0,0,0,1304.59,493.39Z"/><rect class="cls-2" x="941.92" y="864.06" width="114.42" height="128.13" rx="18.78" transform="translate(2184.28 1602.75) rotate(166.76)"/><path class="cls-3" d="M992,1004.09a55.33,55.33,0,0,1-53.76-42.59l-8.49-36.09A55.23,55.23,0,0,1,970.86,859l22.75-5.35A55.23,55.23,0,0,1,1060,894.76l8.49,36.09a55.29,55.29,0,0,1-41.11,66.41l-22.75,5.35A54.94,54.94,0,0,1,992,1004.09Zm14.32-132.52a35.9,35.9,0,0,0-8.27,1l-22.75,5.35A35.88,35.88,0,0,0,948.63,921l8.5,36.09a35.86,35.86,0,0,0,43.08,26.67l22.75-5.35a35.88,35.88,0,0,0,26.67-43.09l-8.5-36.09a35.83,35.83,0,0,0-34.81-27.63Z"/><path class="cls-3" d="M1484.51,950.23a84.48,84.48,0,0,1-41.43-10.9l9.48-16.92a65.59,65.59,0,0,0,77.92-104.12L1544,804.41a85.07,85.07,0,0,1-59.52,145.82Z"/><path class="cls-3" d="M1520.72,821.89a31.18,31.18,0,0,1-19.72-7,9.7,9.7,0,1,1,12.23-15.06,12,12,0,0,0,16.85-1.76,12,12,0,0,0,.42-14.58,9.7,9.7,0,0,1,15.71-11.38A31.4,31.4,0,0,1,1524,821.72C1522.92,821.83,1521.82,821.89,1520.72,821.89Z"/><path class="cls-3" d="M856.09,816.19a31.22,31.22,0,0,1,1.77-20.86,9.7,9.7,0,0,1,17.68,8,12,12,0,0,0,6,15.85,12,12,0,0,0,14.2-3.31,9.7,9.7,0,0,1,15,12.3,31.4,31.4,0,0,1-53.64-8.82A32.92,32.92,0,0,1,856.09,816.19Z"/><rect class="cls-2" x="1350.05" y="860.81" width="114.42" height="128.13" rx="18.78" transform="translate(249.24 -297.73) rotate(13.24)"/><path class="cls-3" d="M1414.39,1000.84a54.94,54.94,0,0,1-12.65-1.48L1379,994a55.3,55.3,0,0,1-41.11-66.41l8.49-36.09a55.29,55.29,0,0,1,66.41-41.11l22.75,5.35a55.29,55.29,0,0,1,41.11,66.41l-8.5,36.09A55.32,55.32,0,0,1,1414.39,1000.84Zm-14.26-132.52A35.9,35.9,0,0,0,1365.25,896L1356.76,932a35.88,35.88,0,0,0,26.67,43.09l22.75,5.35a35.84,35.84,0,0,0,43.08-26.67l8.49-36.09a35.83,35.83,0,0,0-26.67-43.09l-22.74-5.35A35.65,35.65,0,0,0,1400.13,868.32Z"/><rect class="cls-2" x="1063.56" y="1109.32" width="133.42" height="128.13" rx="21.03" transform="translate(1827.94 2645.67) rotate(-161.43)"/><path class="cls-3" d="M1141,1251.49a60.28,60.28,0,0,1-19.28-3.17l-29.82-10a60.76,60.76,0,0,1-38.2-76.85l8.34-24.81a60.76,60.76,0,0,1,76.85-38.19l29.82,10a60.69,60.69,0,0,1,38.19,76.86l-8.33,24.8A60.81,60.81,0,0,1,1141,1251.49Zm-21.4-136.8a41.36,41.36,0,0,0-39.17,28.14l-8.34,24.8a41.34,41.34,0,0,0,26,52.29h0l29.82,10a41.29,41.29,0,0,0,52.28-26l8.33-24.8a41.28,41.28,0,0,0-26-52.29l-29.82-10A40.84,40.84,0,0,0,1119.57,1114.69Z"/><rect class="cls-2" x="1224.15" y="1103.23" width="133.42" height="128.13" rx="21.03" transform="translate(-304.57 471.95) rotate(-18.57)"/><path class="cls-3" d="M1280.17,1245.4A60.79,60.79,0,0,1,1222.6,1204l-8.33-24.81a60.69,60.69,0,0,1,38.19-76.85l29.82-10a60.76,60.76,0,0,1,76.85,38.2l8.33,24.8a60.75,60.75,0,0,1-38.19,76.85l-29.82,10A60.33,60.33,0,0,1,1280.17,1245.4Zm21.4-136.8a41.05,41.05,0,0,0-13.11,2.15l-29.82,10a41.28,41.28,0,0,0-26,52.28l8.33,24.81a41.32,41.32,0,0,0,52.28,26l29.82-10a41.33,41.33,0,0,0,26-52.28l-8.34-24.8A41.36,41.36,0,0,0,1301.57,1108.6Z"/><circle class="cls-2" cx="1202.88" cy="964.29" r="218.3"/><path class="cls-3" d="M1202.88,1192.3c-125.72,0-228-102.29-228-228s102.28-228,228-228,228,102.29,228,228S1328.6,1192.3,1202.88,1192.3Zm0-436.61c-115,0-208.6,93.58-208.6,208.6s93.58,208.61,208.6,208.61,208.61-93.58,208.61-208.61S1317.91,755.69,1202.88,755.69Z"/><circle class="cls-2" cx="1202.88" cy="697.58" r="218.3"/><path class="cls-3" d="M1202.88,925.58c-125.72,0-228-102.28-228-228s102.28-228,228-228,228,102.28,228,228S1328.6,925.58,1202.88,925.58Zm0-436.61c-115,0-208.6,93.58-208.6,208.6s93.58,208.61,208.6,208.61,208.61-93.58,208.61-208.61S1317.91,489,1202.88,489Z"/><path class="cls-5" d="M1228.56,976.42c0-13.64-11.5-24.7-25.68-24.7s-25.67,11.06-25.67,24.7,11.49,24.71,25.67,24.71S1228.56,990.07,1228.56,976.42Z"/><path class="cls-6" d="M1224.44,976.42c0-11.45-9.65-20.74-21.56-20.74s-21.55,9.29-21.55,20.74,9.65,20.75,21.55,20.75S1224.44,987.88,1224.44,976.42Z"/><path class="cls-5" d="M1221.86,976.42c0-10.08-8.5-18.25-19-18.25s-19,8.17-19,18.25,8.49,18.26,19,18.26S1221.86,986.51,1221.86,976.42Z"/><g class="cls-7"><path class="cls-6" d="M1198.33,980.37a18.78,18.78,0,0,0,18.57-14.66,18.12,18.12,0,0,0-14-6.52c-9.42,0-17.13,7-17.84,15.9A19.25,19.25,0,0,0,1198.33,980.37Z"/></g><circle class="cls-4" cx="1415.07" cy="444.39" r="17.54"/><path class="cls-3" d="M1415.07,466.79a22.4,22.4,0,1,1,22.39-22.4A22.42,22.42,0,0,1,1415.07,466.79Zm0-35.09a12.7,12.7,0,1,0,12.69,12.69A12.71,12.71,0,0,0,1415.07,431.7Z"/><rect class="cls-6" x="1061.14" y="609.86" width="285.69" height="176.12" rx="36.52"/><path class="cls-3" d="M1302.85,795.68H1105.13A53.74,53.74,0,0,1,1051.45,742V653.85a53.75,53.75,0,0,1,53.68-53.69h197.72a53.75,53.75,0,0,1,53.68,53.69V742A53.74,53.74,0,0,1,1302.85,795.68ZM1105.13,619.56a34.33,34.33,0,0,0-34.29,34.29V742a34.33,34.33,0,0,0,34.29,34.28h197.72A34.32,34.32,0,0,0,1337.14,742V653.85a34.33,34.33,0,0,0-34.29-34.29Z"/><circle class="cls-3" cx="1143.35" cy="680.17" r="22.41"/><circle class="cls-3" cx="1264.63" cy="680.17" r="22.41"/><path class="cls-8" d="M1219.39,764.27l22.7-39.33a.62.62,0,0,0-.54-.93h-75.12a.62.62,0,0,0-.54.93l22.7,39.33A17.79,17.79,0,0,0,1219.39,764.27Z"/><path class="cls-3" d="M1204,752.68h0a47.46,47.46,0,0,1-41.53-24,6.35,6.35,0,0,1,5.5-9.54H1240a6.36,6.36,0,0,1,5.51,9.53h0A47.5,47.5,0,0,1,1204,752.68Zm-29.7-23.82a38.31,38.31,0,0,0,59.41,0Zm67-2.59h0Z"/><path class="cls-9" d="M1636.33,719.16l.75-.66"/><path class="cls-10" d="M1648.69,709.06c51.92-40.15,260.81-179.31,501.17-33.36"/><path class="cls-9" d="M2156.24,679.64l.85.53"/><path class="cls-11" d="M1466.81,567S1571.5,230.5,1935.5,230.5"/><path class="cls-11" d="M1287,461.94s9.62-105.3,91-180.37"/><path class="cls-11" d="M1174.29,457.09s-25.1-141.45-103.45-175.52"/><path class="cls-11" d="M984.58,541.29S841.79,237.5,523.14,230.5"/><path class="cls-11" d="M818,719.16s-242.79-216.32-521.14-39"/><path class="cls-12" d="M165,845c-48.73,0-88.64-40-88.73-88.82s39.77-88.83,88.59-88.94c49-.12,89.19,39.89,89.16,88.81A89.16,89.16,0,0,1,165,845Zm.25-10.56a78,78,0,0,0,78.21-78.28c-.06-43-35.43-78.36-78.42-78.36-43.18,0-78.44,35.18-78.43,78.24A78.35,78.35,0,0,0,165.23,834.45Z"/><path class="cls-6" d="M170.3,724.29c0-6.45,0-12.9,0-19.35,0-4.69-1.89-7.07-5.38-7s-5.16,2.42-5.17,7.2c0,12.61.09,25.22-.1,37.83a9.79,9.79,0,0,1-2.17,5.64c-3.85,4.6-4,10.57,0,14.73s10.31,4.19,15,.15a9.12,9.12,0,0,1,5.24-2.09c7-.23,14.08,0,21.11-.11,4.31,0,6.66-2,6.62-5.33s-2.39-5.17-6.75-5.2c-6.89,0-13.78,0-20.67,0-5.36,0-7.77-2.48-7.77-8Q170.28,733.53,170.3,724.29Z"/><path class="cls-2" d="M170.3,724.29q0,9.24,0,18.48c0,5.48,2.41,8,7.77,8,6.89,0,13.78,0,20.67,0,4.36,0,6.71,1.9,6.75,5.2s-2.31,5.29-6.62,5.33c-7,.06-14.08-.12-21.11.11a9.12,9.12,0,0,0-5.24,2.09c-4.71,4-10.88,4.12-15-.15s-3.88-10.13,0-14.73a9.79,9.79,0,0,0,2.17-5.64c.19-12.61.08-25.22.1-37.83,0-4.78,1.74-7.14,5.17-7.2s5.35,2.32,5.38,7C170.32,711.39,170.3,717.84,170.3,724.29Z"/><path class="cls-12" d="M386.58,142c-2.33-.81-4.81-.9-5.76-2.15-2.56-3.38-6.67-7.68-6.06-10.82.72-3.67,5.5-6.86,9.07-9.5,1.44-1.07,4.38-.28,6.61-.05q51.56,5.12,103.09,10.4c3,.31,6.92.6,8.68,2.5,2.59,2.81,5.3,7.22,5,10.67-.7,7.41-6.95,9.39-14.47,9.33-.65,6.46-1,12.67-1.94,18.79-3.15,20.43-14.51,34.34-33.56,42.41-3.47,1.47-8.42,5.08-8.43,7.72,0,3.38,3.6,7.74,6.83,10,17.74,12.53,26,29.28,24.21,50.92-.42,5.07-1,10.12-1.56,15.63a32.15,32.15,0,0,0,3,1.27c6.62,1.9,10.57,6.18,9,13.09s-7,9.2-13.67,8.54q-30.42-3-60.84-6.11c-14.37-1.44-28.72-3-43.1-4.26-7.54-.67-14.94-2.15-15.31-11.22-.37-8.86,6.5-11.44,14.72-11.7.61-6.1,1-11.73,1.77-17.32,2.9-21.2,14.48-35.56,34.15-43.91,3.41-1.44,7.44-4.84,8.17-8,.55-2.38-3.14-6.76-6-8.72-18.71-12.88-27.29-30.31-25.11-53C385.58,151.77,386.08,147,386.58,142Zm-6,146.42,88.84,8.93c5.62-25.74,1.78-47.07-22.22-61.78-4-2.46-6.46-9.61-7.06-14.89-.76-6.74,4.27-11.05,10.6-13.66,24.94-10.31,35.82-28.88,32.69-55.5l-88.23-8.86c-.31,1.74-.49,2.84-.7,3.94-4.77,24.61,1.07,44.42,23.85,58.19,11.57,7,8.83,23.08-4.23,28.12-10.35,4-19,9.7-25.28,19C381.57,262.9,381.1,275.29,380.62,288.43Z"/><path class="cls-2" d="M419.77,193.37l31.94,3.21a2.22,2.22,0,0,1-.67.86c-21.82,14-23.26,39.7-3,56.51,7.22,6,13.16,12.45,13,22.59-.16,8.8-3.21,11.65-12.08,10.81q-23.22-2.22-46.44-4.68c-8.16-.88-10.83-4.56-9.34-12.6,1.83-9.83,8.55-15.42,17-19.79,14-7.28,23.92-24.66,20.2-37.62C428.25,205.45,423,199.14,419.77,193.37Z"/><rect class="cls-12" x="374.15" y="124.52" width="133.7" height="22.74" rx="10.58" transform="translate(15.8 -43.41) rotate(5.74)"/><path class="cls-12" d="M2132,160.38q-32.86,6.36-65.74,12.72c-21.64,4.19-43.31,8.29-64.93,12.62-3,.61-4.66-.19-6.42-2.54-7.21-9.59-14.6-19.06-22-28.55-2-2.54-3.9-5-2.21-8.51s4.73-3.64,8-3.64q73.38,0,146.74-.06c13.73,0,27.47,0,41.19-.08,3.21,0,6,.56,7.56,3.71s.1,5.4-1.86,7.78q-31.39,38-62.68,76.17-17.16,20.87-34.32,41.73c-4,4.94-7.92,5-11.87,0-9-11.48-18-23-26.74-34.6-1.72-2.29-3.12-2.62-5.67-1.62-10.12,4-20.36,7.68-30.48,11.66-3.43,1.35-6.54,1.55-9-1.41s-1.28-5.78.46-8.71c5-8.37,9.65-16.92,14.75-25.21a12.18,12.18,0,0,1,5.57-4.69q58.71-22.62,117.53-44.93c.77-.3,1.51-.66,2.26-1Z"/><path class="cls-12" d="M994.6,90.81c28.79-3.94,57.57-8,86.37-11.81,14.19-1.9,19,1.69,20.93,15.54q8.11,58.44,16,116.91c1.87,13.86-1.81,18.65-16,20.61q-87.4,12.08-174.84,24c-13.45,1.83-18.25-1.84-20.08-15.12q-8.17-59-16.17-118c-1.8-13.28,1.83-18.09,15.28-20C935.6,98.81,965.1,94.84,994.6,90.81Zm-91.79,20.55c33.8,25.47,65.24,49.06,96.54,72.81,7.3,5.54,12,2.8,16.74-3.6,17.17-23,34.56-45.84,52-68.67,6.11-8,12.48-15.82,20.53-26Zm76.15,67-53.37,69.43,177.16-24.28-69.34-53.42C1010.35,198.72,1013.84,204.1,979,178.33ZM914.78,242.6l54-70-71-54Zm195.63-26.31-17-124.3-53.69,70.4Z"/><path class="cls-6" d="M902.81,111.36,1088.58,85.9c-8,10.18-14.42,18-20.53,26-17.4,22.83-34.79,45.67-52,68.67-4.77,6.4-9.44,9.14-16.74,3.6C968.05,160.42,936.61,136.83,902.81,111.36Z"/><path class="cls-6" d="M979,178.33c34.88,25.77,31.39,20.39,54.45-8.27l69.34,53.42L925.59,247.76Z"/><path class="cls-6" d="M914.78,242.6l-17-124.07,71,54Z"/><path class="cls-6" d="M1110.41,216.29l-70.73-53.9L1093.37,92Z"/><path class="cls-12" d="M1399.37,32.42l1.36-13.54,27.45,2.76-1.33,13.22,82.57,8.3L1510.74,30l27.63,2.78L1537,46.24c6.71.67,13,1.33,19.24,1.93,13.27,1.26,21.29,10.95,20,24.23q-7.43,74.26-14.9,148.52c-1.37,13.68-10.92,21.55-24.5,20.19q-87.36-8.76-174.72-17.56c-15.29-1.54-22.64-10.48-21.11-25.7q7.39-73.83,14.87-147.66c1.33-13.16,10.88-21,24-19.73C1386.16,31.07,1392.45,31.73,1399.37,32.42Zm-45.32,176.07,192.3,19.32,13.79-137.25L1367.85,71.24Z"/><rect class="cls-2" x="1443.58" y="135.86" width="27.15" height="27.36" rx="13.58" transform="translate(1162.68 1584.44) rotate(-84.26)"/><rect class="cls-2" x="1378.73" y="87.78" width="27.36" height="27.13" rx="13.56" transform="translate(1152.36 1476.65) rotate(-84.26)"/><rect class="cls-2" x="1413.24" y="91.24" width="27.21" height="27.2" rx="13.6" transform="translate(1179.86 1514.06) rotate(-84.26)"/><rect class="cls-2" x="1439.37" y="177.35" width="27.21" height="27.23" rx="13.6" transform="translate(1117.7 1617.56) rotate(-84.26)"/><rect class="cls-2" x="1404.9" y="173.81" width="27.26" height="27.2" rx="13.6" transform="translate(1090.23 1580.09) rotate(-84.26)"/><rect class="cls-2" x="1370.62" y="170.43" width="27.22" height="27.2" rx="13.6" transform="translate(1062.71 1542.92) rotate(-84.26)"/><rect class="cls-2" x="1512.39" y="142.95" width="27.21" height="27.23" rx="13.61" transform="translate(1217.64 1659.26) rotate(-84.26)"/><rect class="cls-2" x="1477.98" y="139.44" width="27.17" height="27.26" rx="13.59" transform="translate(1190.13 1621.85) rotate(-84.26)"/><rect class="cls-2" x="1409.16" y="132.41" width="27.24" height="27.33" rx="13.62" transform="translate(1135.18 1547.13) rotate(-84.26)"/><rect class="cls-2" x="1374.74" y="128.97" width="27.21" height="27.21" rx="13.6" transform="translate(1107.68 1509.71) rotate(-84.26)"/><rect class="cls-2" x="1447.76" y="94.56" width="27.21" height="27.24" rx="13.6" transform="translate(1207.61 1551.41) rotate(-84.26)"/><rect class="cls-2" x="1516.63" y="101.48" width="27.21" height="27.2" rx="13.6" transform="translate(1262.73 1626.15) rotate(-84.26)"/><rect class="cls-2" x="1482.14" y="98.13" width="27.3" height="27.21" rx="13.6" transform="translate(1235.06 1588.86) rotate(-84.26)"/><path class="cls-12" d="M2267.3,682.85c1.67-3.78,4.52-5.37,8.66-5.08,3.12.21,6.27,0,9.3,0l6.19-13.46c-2-1.9-4.24-4-6.45-6.25-3.85-3.84-3.85-7.42-.06-11.24,2.95-3,5.9-6,8.88-8.9,3.43-3.38,7-3.37,10.46,0,2.25,2.2,4.5,4.39,6.7,6.64a1.77,1.77,0,0,0,2.32.49c3.52-1.49,7.1-2.88,10.72-4.11a1.8,1.8,0,0,0,1.45-2.09c0-2.79,0-5.59,0-8.38.07-4.45,2.8-7.19,7.2-7.22s9.08,0,13.62,0c4.34,0,7,2.68,7.11,7.06.07,3.21,0,6.43.07,9.64a2.51,2.51,0,0,0,1.1,1.84c2,1,4.14,1.67,6.16,2.61s3.83,2,5.94,3.1c2.27-2.31,4.54-4.67,6.87-7,3.32-3.31,7.15-3.31,10.49,0q4.71,4.62,9.35,9.33c3.25,3.29,3.23,7-.07,10.31-2.57,2.56-5.23,5-7.6,7.3l5.29,13.91c3,0,6.11,0,9.25,0q7.66.08,7.72,7.79c0,4.26.05,8.53,0,12.79-.06,4.77-2.67,7.34-7.44,7.39-3.14,0-6.29,0-9.43.06a2.29,2.29,0,0,0-1.7,1c-1.84,4-3.55,8-5.34,12.12,2,2,4.17,4.31,6.38,6.53,3.67,3.7,3.67,7.64-.05,11.34-3.07,3-6.14,6.11-9.24,9.13s-6.78,3-9.86,0c-2.35-2.29-4.61-4.68-7-6.94a2.21,2.21,0,0,0-1.87-.52c-4.1,1.56-8.15,3.24-12.55,5,0,2.77,0,6,0,9.16,0,5-2.68,7.63-7.64,7.66-4.33,0-8.66,0-13,0-4.75,0-7.38-2.71-7.41-7.44,0-3.07,0-6.15,0-9.22a1.9,1.9,0,0,0-1.46-2.11c-3.52-1.49-6.94-3.23-10.46-4.75a2.31,2.31,0,0,0-2,.26c-2.1,1.94-4,4.05-6.08,6.07-3.23,3.21-7.34,3.24-10.58,0s-6.33-6.31-9.43-9.53-3.07-6.94.12-10.16c2.27-2.28,4.6-4.5,6.79-6.85a2.45,2.45,0,0,0,.36-2.08c-1.3-3.68-2.82-7.28-4.07-11a1.64,1.64,0,0,0-1.93-1.34c-2.38,0-4.76-.11-7.13,0-4.23.26-7.14-1.4-8.63-5.42Zm70.23,38.75a28,28,0,1,0-27.89-28.21A27.89,27.89,0,0,0,2337.53,721.6Z"/><path class="cls-2" d="M2280,782.86a6.37,6.37,0,0,1-5.3,3.38,16.28,16.28,0,0,0-4.24.77,3.74,3.74,0,0,0-2,2c-.81,2.39-1.31,4.89-2,7.65,1.52,1.06,3.25,2.25,4.95,3.47,2.86,2.08,3.33,4.56,1.35,7.44-1.63,2.38-3.29,4.73-5,7s-4.36,3.1-6.6,1c-4-3.66-7.51-4.31-11.91-.64-1.62,1.34-2.49,2-2,4.31,1.63,7.73.91,8.61-7,9.91-1.76.28-3.49.7-5.26.92-2.91.37-4.72-.91-5.38-3.77-.55-2.38-.27-5.47-1.7-7s-4.57-1.3-6.82-2.2c-1.7-.67-2.61-.37-3.46,1.16a31.1,31.1,0,0,1-2.59,3.77,4.58,4.58,0,0,1-6.51,1.24c-2.69-1.77-5.32-3.65-7.87-5.61-2.24-1.74-2.82-4.19-.87-6.22,4-4.13,4.25-7.89.54-12.36-1.16-1.39-1.74-2.39-3.71-1.78a20.49,20.49,0,0,1-4.75.77,4.37,4.37,0,0,1-4.84-3.58c-.63-3.07-1.18-6.16-1.59-9.26-.44-3.29.79-5.36,4.05-5.52,5.3-.28,8-2.43,8.77-7.89.31-2.32.12-3.37-1.75-4.65-6.58-4.49-6.64-5.22-2-11.8,1-1.46,2-3,3.08-4.36,1.9-2.49,4.29-3.13,6.59-1.09,4,3.53,7.67,4.64,11.86.56a10.07,10.07,0,0,1,2.48-1.33c-.37-2.27-.8-4.43-1.05-6.61-.37-3.15,1.05-5,4.16-5.57,2.66-.5,5.33-1,8-1.43,3.77-.62,5.93.64,6.22,4.41.36,4.78,1.9,7.93,7.24,8.06a13.26,13.26,0,0,1,3.33,1c1.26-1.75,2.5-3.55,3.81-5.3,2-2.68,4.26-3.06,7-1.18,2.38,1.62,4.75,3.27,7.06,5,2.58,1.9,3.24,4.42,1.11,6.77-3.55,3.91-4.18,7.36-.65,11.73,1.41,1.74,2.14,2.54,4.49,2.09,7.85-1.5,8.55-.87,9.85,7.15.24,1.5.65,3,1,4.44Zm-64.18-.13a16.8,16.8,0,1,0,16.87-16.68A16.74,16.74,0,0,0,2215.85,782.73Z"/><polygon class="cls-2" points="2006 191 2101.51 173 2006.81 211.8 2006 191"/></g></g></svg>