<svg xmlns="http://www.w3.org/2000/svg" width="24.001" height="26" viewBox="0 0 24.001 26">
  <g id="export" transform="translate(0.001 2.004)">
    <g id="Layer_1" data-name="Layer 1" transform="translate(-0.001 -0.004)">
      <path id="Path_1142" data-name="Path 1142" d="M24,20.841a3.437,3.437,0,0,1-.62,1.46,4.433,4.433,0,0,1-2.78,1.6,6.783,6.783,0,0,1-1.11.091h-15a5.066,5.066,0,0,1-3.27-1.068A3.171,3.171,0,0,1,0,20.338c0-3.354,0-6.7,0-10.071A3.446,3.446,0,0,1,2.07,7a5.2,5.2,0,0,1,2.4-.534H8.43V8.817h-4A3.043,3.043,0,0,0,3,9.179a1.1,1.1,0,0,0-.63,1.057v9.97a1.089,1.089,0,0,0,.6,1.007,3.36,3.36,0,0,0,1.71.383h15.2a2.488,2.488,0,0,0,1.29-.443,1.009,1.009,0,0,0,.46-.876q0-5.035,0-10.071a1.009,1.009,0,0,0-.49-.9,2.756,2.756,0,0,0-1.53-.453h-4V6.46h.1c1.47,0,2.94,0,4.4.05a4.347,4.347,0,0,1,3.06,1.4,2.949,2.949,0,0,1,.77,1.581.6.6,0,0,0,0,.081Z" transform="translate(0.001 0.004)" fill="#607088"/>
      <path id="Path_1143" data-name="Path 1143" d="M10.89,13.2V1.39A2.09,2.09,0,0,1,11,.83a1.129,1.129,0,0,1,2.22.27,2.53,2.53,0,0,1,0,.28v11.8c.09-.09.14-.13.19-.19l1.25-1.24a1.181,1.181,0,1,1,1.68,1.66q-1.72,1.74-3.48,3.47a1.18,1.18,0,0,1-1.75,0l-3.4-3.45a1.181,1.181,0,1,1,1.67-1.67l1.45,1.46Z" transform="translate(24.046 15.268) rotate(180)" fill="#607088"/>
    </g>
  </g>
</svg>
