<svg xmlns="http://www.w3.org/2000/svg" xmlns:xlink="http://www.w3.org/1999/xlink" width="24" height="24" viewBox="0 0 24 24">
  <defs>
    <clipPath id="clip-layer">
      <rect width="24" height="24"/>
    </clipPath>
  </defs>
  <g id="layer" clip-path="url(#clip-layer)">
    <g id="layer-2" data-name="layer" transform="translate(-0.634 -0.652)">
      <path id="Path_1050" data-name="Path 1050" d="M12.771.84l7.848,4.242,2.62,1.347a.721.721,0,0,1,0,1.368l-10.16,5.43a.88.88,0,0,1-.912,0L2.028,7.8a.721.721,0,0,1,0-1.368L12.188,1.01,12.5.851Zm8.792,6.278L21.372,7,12.814,2.42a.339.339,0,0,0-.371,0L3.958,6.981l-.2.127.18.106,8.58,4.582a.339.339,0,0,0,.371,0l8.484-4.55Z" transform="translate(0 0)" fill="#607088" stroke="#607088" stroke-miterlimit="10" stroke-width="0.4"/>
      <path id="Path_1051" data-name="Path 1051" d="M3.7,12.133l.212.138,8.548,4.571a.329.329,0,0,0,.339,0l8.569-4.592.18-.106-.233-.138-1.57-.838a.7.7,0,1,1,.647-1.23L23.31,11.5a.711.711,0,0,1,0,1.294l-10.287,5.5a.817.817,0,0,1-.8,0L2.025,12.8a.711.711,0,0,1,0-1.315L4.867,9.938a.7.7,0,1,1,.658,1.22Z" transform="translate(0.003 0.542)" fill="#607088" stroke="#607088" stroke-miterlimit="10" stroke-width="0.4"/>
      <path id="Path_1052" data-name="Path 1052" d="M3.691,17.4l1.517.774,7.2,3.86a.424.424,0,0,0,.445,0c2.832-1.527,5.663-3.033,8.484-4.55l.223-.127-1.707-.912a.732.732,0,0,1-.435-.541.689.689,0,0,1,.965-.742l.148.074,2.7,1.485a.732.732,0,0,1,.467.668.753.753,0,0,1-.467.679L13.067,23.478a.848.848,0,0,1-.88,0q-5.069-2.694-10.16-5.409a.721.721,0,0,1,0-1.347c.912-.477,1.814-.965,2.715-1.453a.764.764,0,0,1,.658-.085.689.689,0,0,1,.085,1.262l-1.464.785Z" transform="translate(0.002 0.863)" fill="#607088" stroke="#607088" stroke-miterlimit="10" stroke-width="0.4"/>
    </g>
  </g>
</svg>
