<svg xmlns="http://www.w3.org/2000/svg" width="140" height="140" viewBox="0 0 140 140">
  <g id="robo" transform="translate(-1463 -546)">
    <g id="Robot" transform="translate(310 11)">
      <g id="Robot-2" data-name="Robot" transform="translate(3.5 -17.5)">
        <g id="Group_26" data-name="Group 26" transform="translate(1149.5 552.5)">
          <g id="Group_19" data-name="Group 19" transform="translate(0 0)">
            <g id="Ellipse_8" data-name="Ellipse 8" fill="#fff" stroke="#0062cf" stroke-width="2.5">
              <circle cx="70" cy="70" r="70" stroke="none"/>
              <circle cx="70" cy="70" r="68.75" fill="none"/>
            </g>
          </g>
        </g>
        <g id="robot_fc" transform="translate(1190.698 581.114)">
          <path id="Path_471" data-name="Path 471" d="M69.13,53.565a5.368,5.368,0,0,0,5.357-5.357v-.266h4.25a1.211,1.211,0,0,0,1.211-1.211V30.437a1.211,1.211,0,0,0-1.211-1.211H74.492v-.265A5.368,5.368,0,0,0,69.135,23.6H54.484V18.846a7.438,7.438,0,1,0-6.574,0V23.6H33.263a5.368,5.368,0,0,0-5.357,5.357v.265H23.652a1.211,1.211,0,0,0-1.211,1.211V46.726a1.211,1.211,0,0,0,1.211,1.211H27.9V48.2a5.368,5.368,0,0,0,5.357,5.357h8.423v3.678H27.8A5.368,5.368,0,0,0,22.447,62.6V85.53a1.211,1.211,0,0,0,1.211,1.211H78.741a1.211,1.211,0,0,0,1.211-1.211V62.607A5.368,5.368,0,0,0,74.6,57.25H60.711V53.565Zm8.4-21.917V45.514H74.492V31.648ZM46.181,12.184A5.017,5.017,0,1,1,51.2,17.2,5.017,5.017,0,0,1,46.181,12.184Zm4.152,7.384a6.87,6.87,0,0,0,1.73,0V23.6h-1.73ZM24.862,45.515V31.648H27.9V45.514ZM30.323,48.2V28.961a2.945,2.945,0,0,1,2.941-2.941H69.13a2.945,2.945,0,0,1,2.941,2.941V48.2a2.945,2.945,0,0,1-2.941,2.941H59.5a.108.108,0,0,0-.034,0H42.9a.108.108,0,0,0-.034,0h-9.6A2.945,2.945,0,0,1,30.323,48.2ZM65.555,84.319H36.839V74.326H65.555ZM77.537,62.61v21.71H67.975v-11.2a1.211,1.211,0,0,0-1.211-1.211H35.628a1.211,1.211,0,0,0-1.211,1.211v11.2H24.863V62.61A2.945,2.945,0,0,1,27.8,59.665H74.59a2.945,2.945,0,0,1,2.941,2.942ZM58.3,57.253H44.1V53.565H58.289Z" transform="translate(-22.441 -4.736)" fill="#0062cf"/>
          <path id="Path_473" data-name="Path 473" d="M78.111,52.622a5.357,5.357,0,1,0-5.357-5.357A5.357,5.357,0,0,0,78.111,52.622Zm0-8.3a2.941,2.941,0,1,1-2.941,2.935,2.941,2.941,0,0,1,2.941-2.935Z" transform="translate(-37.938 -16.182)" fill="#0062cf"/>
          <path id="Path_473-2" data-name="Path 473" d="M78.111,52.622a5.357,5.357,0,1,0-5.357-5.357A5.357,5.357,0,0,0,78.111,52.622Zm0-8.3a2.941,2.941,0,1,1-2.941,2.935,2.941,2.941,0,0,1,2.941-2.935Z" transform="translate(-57.938 -16.182)" fill="#0062cf"/>
          <path id="Path_474" data-name="Path 474" d="M51.875,64.336a1.211,1.211,0,0,0,1.211,1.211H67.444a1.211,1.211,0,0,0,0-2.422H53.086a1.211,1.211,0,0,0-1.211,1.211Z" transform="translate(-31.509 -22.724)" fill="#0062cf"/>
          <path id="Path_475" data-name="Path 475" d="M93.344,93.194a3.286,3.286,0,1,0-3.286-3.286,3.286,3.286,0,0,0,3.286,3.286Zm0-4.152a.866.866,0,1,1-.866.866.866.866,0,0,1,.866-.866Z" transform="translate(-43.272 -29.961)" fill="#0062cf"/>
          <path id="Path_476" data-name="Path 476" d="M28.442,89.907a3.286,3.286,0,1,0,3.286-3.286A3.286,3.286,0,0,0,28.442,89.907Zm3.286-.866a.866.866,0,1,1-.866.866.866.866,0,0,1,.866-.866Z" transform="translate(-24.29 -29.961)" fill="#0062cf"/>
        </g>
      </g>
    </g>
  </g>
</svg>
