<svg xmlns="http://www.w3.org/2000/svg" width="25.089" height="25.956" viewBox="0 0 25.089 25.956">
  <g id="Page-1" transform="translate(0 0)">
    <g id="_047---Delete" data-name="047---Delete" transform="translate(0 0)">
      <path id="Shape" d="M3.224,24.749a1.414,1.414,0,0,0,1.468,1.205H20.4a1.414,1.414,0,0,0,1.468-1.206l1.464-18.3a2.161,2.161,0,0,0-.4-4.285h-4.55l-.3-.377A4.735,4.735,0,0,0,14.359,0H10.731A4.734,4.734,0,0,0,7.015,1.786l-.3.377H2.163a2.161,2.161,0,0,0-.4,4.285ZM21,24.679c-.018.226-.289.41-.6.41H4.692c-.316,0-.587-.184-.6-.41L2.631,6.489H22.458ZM10.731.865h3.628a3.869,3.869,0,0,1,2.894,1.3H7.837A3.867,3.867,0,0,1,10.731.865ZM.865,4.326a1.3,1.3,0,0,1,1.3-1.3H22.926a1.3,1.3,0,1,1,0,2.6H2.163A1.3,1.3,0,0,1,.865,4.326Z" transform="translate(0 0)"/>
      <line id="Line_278" data-name="Line 278" x2="1.298" y2="16.005" transform="translate(6.407 8.003)" fill="none" stroke="#000" stroke-width="1"/>
      <line id="Line_279" data-name="Line 279" x1="1.298" y2="16.005" transform="translate(17.384 8.003)" fill="none" stroke="#000" stroke-width="1"/>
      <line id="Line_280" data-name="Line 280" y2="16.005" transform="translate(12.761 8.003)" fill="none" stroke="#000" stroke-width="1"/>
    </g>
  </g>
</svg>
