<svg xmlns="http://www.w3.org/2000/svg" width="32.172" height="33.312" viewBox="0 0 32.172 33.312">
  <g id="deploye" transform="translate(-23.236 -19.536)">
    <path id="Path_696" data-name="Path 696" d="M125.884,141.669a.384.384,0,0,1-.384-.384v-7.033a.384.384,0,0,1,.768,0v7.033A.384.384,0,0,1,125.884,141.669Z" transform="translate(-86.562 -96.777)"/>
    <g id="Group_524" data-name="Group 524" transform="translate(23.236 26.567)">
      <path id="Path_697" data-name="Path 697" d="M53.462,65.326H47.88a.384.384,0,0,0,0,.768h5.582a1.179,1.179,0,0,1,1.178,1.178V83.557a1.179,1.179,0,0,1-1.178,1.178H25.182A1.179,1.179,0,0,1,24,83.557V67.272a1.179,1.179,0,0,1,1.178-1.178h5.582a.384.384,0,1,0,0-.768H25.182a1.948,1.948,0,0,0-1.946,1.946V83.557A1.948,1.948,0,0,0,25.182,85.5h28.28a1.948,1.948,0,0,0,1.946-1.946V67.272A1.948,1.948,0,0,0,53.462,65.326Z" transform="translate(-23.236 -65.326)"/>
      <path id="Path_698" data-name="Path 698" d="M92.471,204.571H88.7v-2.453a.384.384,0,1,0-.768,0v2.453h-3.6v-2.453a.384.384,0,1,0-.768,0v2.453H79.78a1.25,1.25,0,0,0,0,2.5H92.471a1.25,1.25,0,0,0,0-2.5Zm0,1.733H79.78a.483.483,0,0,1,0-.965H92.471a.483.483,0,0,1,0,.965Z" transform="translate(-70.04 -180.789)"/>
    </g>
    <g id="Group_525" data-name="Group 525" transform="translate(31.915 19.536)">
      <path id="Path_699" data-name="Path 699" d="M98.588,91.63,92.5,88.114a.384.384,0,0,0-.384,0L86.022,91.63a.384.384,0,0,0-.192.332V99a.384.384,0,0,0,.192.332l6.091,3.517a.384.384,0,0,0,.384,0l6.091-3.517A.384.384,0,0,0,98.78,99V91.963A.384.384,0,0,0,98.588,91.63ZM92.3,88.889l5.323,3.073L92.3,95.036l-5.323-3.073Zm0,13.18-5.707-3.3V92.628l5.515,3.184a.384.384,0,0,0,.384,0l5.515-3.184v6.147Z" transform="translate(-84.898 -77.541)"/>
      <path id="Path_700" data-name="Path 700" d="M107.7,29.019a.384.384,0,0,1-.384-.384V23.483a.384.384,0,0,1,.384-.384h1.084l-2.641-2.641L103.5,23.1h1.084a.384.384,0,0,1,.384.384v5.152a.384.384,0,0,1-.768,0V23.867h-1.627a.384.384,0,0,1-.271-.655l3.567-3.567a.4.4,0,0,1,.543,0l3.567,3.567a.384.384,0,0,1-.271.655h-1.627v4.768A.383.383,0,0,1,107.7,29.019Z" transform="translate(-98.744 -19.536)"/>
      <path id="Path_701" data-name="Path 701" d="M146.238,57.21a.384.384,0,0,1-.384-.384V53.663a.384.384,0,0,1,.384-.384h.308l-1.264-1.264-1.263,1.264h.308a.384.384,0,0,1,.384.384v3.163a.384.384,0,0,1-.768,0v-2.78h-.851a.384.384,0,0,1-.271-.655l2.19-2.19a.4.4,0,0,1,.543,0l2.19,2.19a.384.384,0,0,1-.271.655h-.851v2.78A.384.384,0,0,1,146.238,57.21Z" transform="translate(-133.043 -46.248)"/>
      <path id="Path_702" data-name="Path 702" d="M83.291,57.185a.384.384,0,0,1-.384-.384V53.638a.384.384,0,0,1,.384-.384H83.6l-1.264-1.264-1.264,1.264h.308a.384.384,0,0,1,.384.384V56.8a.384.384,0,1,1-.768,0v-2.78h-.851a.384.384,0,0,1-.271-.655l2.19-2.19a.384.384,0,0,1,.543,0l2.19,2.19a.384.384,0,0,1-.271.655h-.851V56.8A.384.384,0,0,1,83.291,57.185Z" transform="translate(-79.762 -46.223)"/>
    </g>
  </g>
</svg>
