<svg xmlns="http://www.w3.org/2000/svg" width="46" height="46" viewBox="0 0 46 46">
  <g id="Group_445" data-name="Group 445" transform="translate(0.176 0.228)">
    <g id="Group_444" data-name="Group 444">
      <g id="Ellipse_99" data-name="Ellipse 99" transform="translate(-0.176 -0.228)" fill="none" stroke="#272727" stroke-width="1">
        <circle cx="23" cy="23" r="23" stroke="none"/>
        <circle cx="23" cy="23" r="22.5" fill="none"/>
      </g>
    </g>
    <g id="Database-cloud-laptop-computer-smartphone" transform="translate(8.612 8.56)">
      <path id="Path_713" data-name="Path 713" d="M29.734,21H22.407a.407.407,0,0,0-.407.407v9.77a.407.407,0,0,0,.407.407h7.327a.407.407,0,0,0,.407-.407v-9.77A.407.407,0,0,0,29.734,21Zm-.407,9.77H22.814V28.327h6.513Zm0-3.257H22.814V25.071h6.513Zm0-3.257H22.814V21.814h6.513Z" transform="translate(-11.859 -11.266)"/>
      <path id="Path_714" data-name="Path 714" d="M48.92,2h-5.7A1.225,1.225,0,0,0,42,3.221V6.478A1.225,1.225,0,0,0,43.221,7.7h1.628v.814h-.814v.814h4.071V8.513h-.814V7.7H48.92a1.225,1.225,0,0,0,1.221-1.221V3.221A1.225,1.225,0,0,0,48.92,2ZM46.478,8.513h-.814V7.7h.814Zm2.849-2.035a.407.407,0,0,1-.407.407h-5.7a.407.407,0,0,1-.407-.407V6.071h6.513Zm0-1.221H42.814V3.221a.407.407,0,0,1,.407-.407h5.7a.407.407,0,0,1,.407.407Z" transform="translate(-23.717 0)"/>
      <path id="Path_715" data-name="Path 715" d="M49.734,50.071V47.221A1.225,1.225,0,0,0,48.513,46H43.628a1.225,1.225,0,0,0-1.221,1.221v2.849a.407.407,0,0,0-.407.407v.814a1.225,1.225,0,0,0,1.221,1.221h5.7a1.225,1.225,0,0,0,1.221-1.221v-.814A.407.407,0,0,0,49.734,50.071Zm-6.513-2.849a.407.407,0,0,1,.407-.407h4.885a.407.407,0,0,1,.407.407v2.849h-5.7Zm6.106,4.071a.407.407,0,0,1-.407.407h-5.7a.407.407,0,0,1-.407-.407v-.407h6.513Z" transform="translate(-23.717 -26.089)"/>
      <path id="Path_716" data-name="Path 716" d="M8.106,45.628H7.7v-.407A1.225,1.225,0,0,0,6.478,44H3.221A1.225,1.225,0,0,0,2,45.221v4.885a1.225,1.225,0,0,0,1.221,1.221H8.106a1.225,1.225,0,0,0,1.221-1.221V46.849A1.225,1.225,0,0,0,8.106,45.628ZM5.33,50.513H3.221a.407.407,0,0,1-.407-.407V45.221a.407.407,0,0,1,.407-.407H6.478a.407.407,0,0,1,.407.407v.407H6.478a1.225,1.225,0,0,0-1.221,1.221v3.257a1.221,1.221,0,0,0,.073.407Zm3.183-.407a.407.407,0,0,1-.407.407H6.478a.407.407,0,0,1-.407-.407V46.849a.407.407,0,0,1,.407-.407H8.106a.407.407,0,0,1,.407.407Z" transform="translate(0 -24.903)"/>
      <path id="Path_717" data-name="Path 717" d="M10.935,4.475A2.029,2.029,0,0,0,8.371,2.9,2.408,2.408,0,0,0,6.49,2,2.452,2.452,0,0,0,4.182,3.645a2.442,2.442,0,0,0,.273,4.868h6.106a2.035,2.035,0,0,0,.374-4.038ZM10.561,7.7H4.455a1.631,1.631,0,1,1-.037-3.261.316.316,0,0,0,.065.008.411.411,0,0,0,.411-.326A1.624,1.624,0,0,1,7.878,3.6a.4.4,0,0,0,.525.155,1.212,1.212,0,0,1,1.75,1.1.407.407,0,0,0,.407.407,1.221,1.221,0,0,1,0,2.442Z" transform="translate(-0.013)"/>
      <path id="Path_718" data-name="Path 718" d="M26,25h.814v.814H26Z" transform="translate(-14.23 -13.638)"/>
      <path id="Path_719" data-name="Path 719" d="M31,25h.814v.814H31Z" transform="translate(-17.195 -13.638)"/>
      <path id="Path_720" data-name="Path 720" d="M36,25h.814v.814H36Z" transform="translate(-20.16 -13.638)"/>
      <path id="Path_721" data-name="Path 721" d="M26,33h.814v.814H26Z" transform="translate(-14.23 -18.381)"/>
      <path id="Path_722" data-name="Path 722" d="M31,33h.814v.814H31Z" transform="translate(-17.195 -18.381)"/>
      <path id="Path_723" data-name="Path 723" d="M36,33h.814v.814H36Z" transform="translate(-20.16 -18.381)"/>
      <path id="Path_724" data-name="Path 724" d="M26,41h.814v.814H26Z" transform="translate(-14.23 -23.125)"/>
      <path id="Path_725" data-name="Path 725" d="M31,41h.814v.814H31Z" transform="translate(-17.195 -23.125)"/>
      <path id="Path_726" data-name="Path 726" d="M36,41h.814v.814H36Z" transform="translate(-20.16 -23.125)"/>
      <path id="Path_727" data-name="Path 727" d="M47.664,24.849V22h-.814v2.442H44v.814h3.257A.407.407,0,0,0,47.664,24.849Z" transform="translate(-24.903 -11.859)"/>
      <path id="Path_728" data-name="Path 728" d="M44,34.814h2.849v3.257h.814V34.407A.407.407,0,0,0,47.257,34H44Z" transform="translate(-24.903 -18.974)"/>
      <path id="Path_729" data-name="Path 729" d="M11.814,20H11v3.664a.407.407,0,0,0,.407.407h3.257v-.814H11.814Z" transform="translate(-5.336 -10.673)"/>
      <path id="Path_730" data-name="Path 730" d="M11,34.407v2.849h.814V34.814h2.849V34H11.407A.407.407,0,0,0,11,34.407Z" transform="translate(-5.336 -18.974)"/>
    </g>
  </g>
</svg>
