<svg xmlns="http://www.w3.org/2000/svg" width="140" height="140" viewBox="0 0 140 140">
  <g id="Environments" transform="translate(-754 -430)">
    <g id="Ellipse_19" data-name="Ellipse 19" transform="translate(754 430)" fill="#fff" stroke="#0062cf" stroke-width="2">
      <circle cx="70" cy="70" r="70" stroke="none"/>
      <circle cx="70" cy="70" r="69" fill="none"/>
    </g>
    <g id="Database-cloud-laptop-computer-smartphone" transform="translate(791 467)">
      <path id="Path_713" data-name="Path 713" d="M41.633,21h-18.6A1.033,1.033,0,0,0,22,22.033v24.8a1.033,1.033,0,0,0,1.033,1.033h18.6a1.033,1.033,0,0,0,1.033-1.033v-24.8A1.033,1.033,0,0,0,41.633,21ZM40.6,45.8H24.067V39.6H40.6Zm0-8.267H24.067v-6.2H40.6Zm0-8.267H24.067v-6.2H40.6Z" transform="translate(0.667 0.633)" fill="#0062cf"/>
      <path id="Path_714" data-name="Path 714" d="M59.567,2H45.1A3.109,3.109,0,0,0,42,5.1v8.267a3.109,3.109,0,0,0,3.1,3.1h4.133v2.067H47.167V20.6H57.5V18.533H55.433V16.467h4.133a3.109,3.109,0,0,0,3.1-3.1V5.1A3.109,3.109,0,0,0,59.567,2Zm-6.2,16.533H51.3V16.467h2.067ZM60.6,13.367A1.033,1.033,0,0,1,59.567,14.4H45.1a1.033,1.033,0,0,1-1.033-1.033V12.333H60.6Zm0-3.1H44.067V5.1A1.033,1.033,0,0,1,45.1,4.067H59.567A1.033,1.033,0,0,1,60.6,5.1Z" transform="translate(1.333 0)" fill="#0062cf"/>
      <path id="Path_715" data-name="Path 715" d="M61.633,56.333V49.1a3.109,3.109,0,0,0-3.1-3.1h-12.4a3.109,3.109,0,0,0-3.1,3.1v7.233A1.033,1.033,0,0,0,42,57.367v2.067a3.109,3.109,0,0,0,3.1,3.1H59.567a3.109,3.109,0,0,0,3.1-3.1V57.367A1.033,1.033,0,0,0,61.633,56.333ZM45.1,49.1a1.033,1.033,0,0,1,1.033-1.033h12.4A1.033,1.033,0,0,1,59.567,49.1v7.233H45.1ZM60.6,59.433a1.033,1.033,0,0,1-1.033,1.033H45.1a1.033,1.033,0,0,1-1.033-1.033V58.4H60.6Z" transform="translate(1.333 1.467)" fill="#0062cf"/>
      <path id="Path_716" data-name="Path 716" d="M17.5,48.133H16.467V47.1a3.109,3.109,0,0,0-3.1-3.1H5.1A3.109,3.109,0,0,0,2,47.1V59.5a3.109,3.109,0,0,0,3.1,3.1H17.5a3.109,3.109,0,0,0,3.1-3.1V51.233A3.109,3.109,0,0,0,17.5,48.133Zm-7.047,12.4H5.1A1.033,1.033,0,0,1,4.067,59.5V47.1A1.033,1.033,0,0,1,5.1,46.067h8.267A1.033,1.033,0,0,1,14.4,47.1v1.033H13.367a3.109,3.109,0,0,0-3.1,3.1V59.5a3.1,3.1,0,0,0,.186,1.033ZM18.533,59.5A1.033,1.033,0,0,1,17.5,60.533H13.367A1.033,1.033,0,0,1,12.333,59.5V51.233A1.033,1.033,0,0,1,13.367,50.2H17.5a1.033,1.033,0,0,1,1.033,1.033Z" transform="translate(0 1.4)" fill="#0062cf"/>
      <path id="Path_717" data-name="Path 717" d="M24.65,8.283a5.151,5.151,0,0,0-6.51-4.009A6.113,6.113,0,0,0,13.366,2,6.225,6.225,0,0,0,7.507,6.175,6.2,6.2,0,0,0,8.2,18.533H23.7A5.167,5.167,0,0,0,24.65,8.283ZM23.7,16.467H8.2a4.139,4.139,0,1,1-.093-8.278.8.8,0,0,0,.165.021,1.043,1.043,0,0,0,1.044-.827A4.123,4.123,0,0,1,16.89,6.061a1.014,1.014,0,0,0,1.333.393,3.076,3.076,0,0,1,4.443,2.78A1.033,1.033,0,0,0,23.7,10.267a3.1,3.1,0,1,1,0,6.2Z" transform="translate(0.001 0)" fill="#0062cf"/>
      <path id="Path_718" data-name="Path 718" d="M26,25h2.067v2.067H26Z" transform="translate(0.8 0.767)" fill="#0062cf"/>
      <path id="Path_719" data-name="Path 719" d="M31,25h2.067v2.067H31Z" transform="translate(0.967 0.767)" fill="#0062cf"/>
      <path id="Path_720" data-name="Path 720" d="M36,25h2.067v2.067H36Z" transform="translate(1.133 0.767)" fill="#0062cf"/>
      <path id="Path_721" data-name="Path 721" d="M26,33h2.067v2.067H26Z" transform="translate(0.8 1.033)" fill="#0062cf"/>
      <path id="Path_722" data-name="Path 722" d="M31,33h2.067v2.067H31Z" transform="translate(0.967 1.033)" fill="#0062cf"/>
      <path id="Path_723" data-name="Path 723" d="M36,33h2.067v2.067H36Z" transform="translate(1.133 1.033)" fill="#0062cf"/>
      <path id="Path_724" data-name="Path 724" d="M26,41h2.067v2.067H26Z" transform="translate(0.8 1.3)" fill="#0062cf"/>
      <path id="Path_725" data-name="Path 725" d="M31,41h2.067v2.067H31Z" transform="translate(0.967 1.3)" fill="#0062cf"/>
      <path id="Path_726" data-name="Path 726" d="M36,41h2.067v2.067H36Z" transform="translate(1.133 1.3)" fill="#0062cf"/>
      <path id="Path_727" data-name="Path 727" d="M53.3,29.233V22H51.233v6.2H44v2.067h8.267A1.033,1.033,0,0,0,53.3,29.233Z" transform="translate(1.4 0.667)" fill="#0062cf"/>
      <path id="Path_728" data-name="Path 728" d="M44,36.067h7.233v8.267H53.3v-9.3A1.033,1.033,0,0,0,52.267,34H44Z" transform="translate(1.4 1.067)" fill="#0062cf"/>
      <path id="Path_729" data-name="Path 729" d="M13.067,20H11v9.3a1.033,1.033,0,0,0,1.033,1.033H20.3V28.267H13.067Z" transform="translate(0.3 0.6)" fill="#0062cf"/>
      <path id="Path_730" data-name="Path 730" d="M11,35.033v7.233h2.067v-6.2H20.3V34H12.033A1.033,1.033,0,0,0,11,35.033Z" transform="translate(0.3 1.067)" fill="#0062cf"/>
    </g>
  </g>
</svg>
