<svg xmlns="http://www.w3.org/2000/svg" width="23.067" height="21.4" viewBox="0 0 23.067 21.4">
  <g id="Environments_icon" transform="translate(-9980.583 -4247.4)">
    <g id="computer_2_" data-name="computer (2)" transform="translate(9980.583 4247.4)">
      <path id="Path_766" data-name="Path 766" d="M21.378,18.5H1.69A1.691,1.691,0,0,0,0,20.19V35.057a1.691,1.691,0,0,0,1.69,1.69H8.9L8.494,38.17a1.562,1.562,0,0,1-1.4,1.055H4.55a.338.338,0,0,0,0,.676H18.517a.338.338,0,1,0,0-.676H15.971a1.562,1.562,0,0,1-1.4-1.055l-.407-1.423h7.211a1.691,1.691,0,0,0,1.69-1.69V20.19A1.691,1.691,0,0,0,21.378,18.5ZM1.69,19.176H21.378a1.015,1.015,0,0,1,1.014,1.014V32.016H.676V20.19A1.015,1.015,0,0,1,1.69,19.176Zm12.234,19.18a2.061,2.061,0,0,0,.519.869H8.625a2.062,2.062,0,0,0,.519-.869l.46-1.609h3.86Zm7.454-2.285H1.69A1.015,1.015,0,0,1,.676,35.057V32.692H22.392v2.365A1.015,1.015,0,0,1,21.378,36.071Z" transform="translate(0 -18.5)"/>
      <path id="Path_767" data-name="Path 767" d="M30.338,59.989H50.026a.338.338,0,0,0,.338-.338V48.838a.338.338,0,0,0-.338-.338H30.338a.338.338,0,0,0-.338.338v4.731a.338.338,0,1,0,.676,0V49.176H49.688V59.313H30.676V54.92a.338.338,0,1,0-.676,0v4.731A.338.338,0,0,0,30.338,59.989Z" transform="translate(-28.648 -47.148)"/>
      <path id="Path_768" data-name="Path 768" d="M234.514,348.5a1.014,1.014,0,1,0,1.014,1.014A1.015,1.015,0,0,0,234.514,348.5Zm0,1.352a.338.338,0,1,1,.338-.338A.338.338,0,0,1,234.514,349.852Z" transform="translate(-222.98 -333.632)"/>
    </g>
    <g id="settings" transform="translate(9987.564 4249.778)">
      <g id="Group_748" data-name="Group 748">
        <g id="Group_747" data-name="Group 747">
          <path id="Path_769" data-name="Path 769" d="M8.957,3.671h-.69A3.78,3.78,0,0,0,7.8,2.548l.488-.488a.147.147,0,0,0,0-.208L7.252.814a.147.147,0,0,0-.208,0L6.556,1.3A3.776,3.776,0,0,0,5.433.837V.147A.147.147,0,0,0,5.286,0H3.818a.147.147,0,0,0-.147.147v.69A3.775,3.775,0,0,0,2.548,1.3L2.06.814a.147.147,0,0,0-.208,0L.814,1.852a.147.147,0,0,0,0,.208l.488.488A3.78,3.78,0,0,0,.837,3.671H.147A.147.147,0,0,0,0,3.818V5.286a.147.147,0,0,0,.147.147h.69A3.78,3.78,0,0,0,1.3,6.556l-.489.488a.147.147,0,0,0,0,.208L1.852,8.29a.151.151,0,0,0,.208,0L2.548,7.8a3.78,3.78,0,0,0,1.123.465v.69a.147.147,0,0,0,.147.147H5.286a.147.147,0,0,0,.147-.147v-.69A3.78,3.78,0,0,0,6.556,7.8l.488.488a.147.147,0,0,0,.208,0L8.29,7.251a.147.147,0,0,0,0-.208L7.8,6.555a3.779,3.779,0,0,0,.465-1.122h.69A.147.147,0,0,0,9.1,5.286V3.818A.147.147,0,0,0,8.957,3.671ZM8.81,5.139H8.15a.147.147,0,0,0-.144.117,3.489,3.489,0,0,1-.514,1.238.147.147,0,0,0,.019.185l.468.468-.831.831L6.68,7.51a.147.147,0,0,0-.185-.019,3.489,3.489,0,0,1-1.238.514.147.147,0,0,0-.117.144V8.81H3.965V8.15a.147.147,0,0,0-.117-.144,3.489,3.489,0,0,1-1.238-.514.147.147,0,0,0-.185.019l-.468.468-.831-.831.468-.468a.147.147,0,0,0,.019-.185A3.489,3.489,0,0,1,1.1,5.257a.147.147,0,0,0-.144-.118H.294V3.965H.954A.147.147,0,0,0,1.1,3.847a3.489,3.489,0,0,1,.514-1.238.147.147,0,0,0-.019-.185l-.468-.468.831-.831.468.468a.147.147,0,0,0,.185.019A3.49,3.49,0,0,1,3.847,1.1.147.147,0,0,0,3.965.954V.294H5.139V.954a.147.147,0,0,0,.117.144,3.49,3.49,0,0,1,1.238.514.147.147,0,0,0,.185-.019l.468-.468.831.831-.468.468a.147.147,0,0,0-.019.185,3.489,3.489,0,0,1,.514,1.238.147.147,0,0,0,.144.117H8.81Z"/>
        </g>
      </g>
      <g id="Group_750" data-name="Group 750" transform="translate(2.937 2.937)">
        <g id="Group_749" data-name="Group 749">
          <path id="Path_770" data-name="Path 770" d="M161.615,160a1.615,1.615,0,1,0,1.615,1.615A1.615,1.615,0,0,0,161.615,160Zm0,2.937a1.322,1.322,0,1,1,1.322-1.322A1.322,1.322,0,0,1,161.615,162.937Z" transform="translate(-160 -160)"/>
        </g>
      </g>
    </g>
  </g>
</svg>
