<svg xmlns="http://www.w3.org/2000/svg" width="32.145" height="32.902" viewBox="0 0 32.145 32.902">
  <g id="load_file" transform="translate(-0.343 0)">
    <path id="Path_703" data-name="Path 703" d="M2.695,16.862h12.9a2.354,2.354,0,0,0,2.351-2.351V6.722a2.354,2.354,0,0,0-2.278-2.35,2.354,2.354,0,0,0-2.348-2.234H9.847L8.593.765A2.356,2.356,0,0,0,6.858,0H2.694A2.354,2.354,0,0,0,.343,2.351V14.511a2.354,2.354,0,0,0,2.351,2.351Zm12.9-11.5a1.362,1.362,0,0,1,1.36,1.36v7.789a1.362,1.362,0,0,1-1.36,1.36H4.807a2.339,2.339,0,0,0,.434-1.36V6.722A1.362,1.362,0,0,1,6.6,5.362ZM1.335,2.351A1.361,1.361,0,0,1,2.695.991H6.858a1.364,1.364,0,0,1,1,.443L9.125,2.816a.962.962,0,0,0,.708.312h3.483a1.362,1.362,0,0,1,1.355,1.242H6.6A2.354,2.354,0,0,0,4.25,6.722v7.789a1.362,1.362,0,0,1-1.36,1.36h-.2a1.361,1.361,0,0,1-1.36-1.36Zm0,0"/>
    <path id="Path_704" data-name="Path 704" d="M139.94,263.859a2.268,2.268,0,1,0-2.762,2.134v5.189a2.268,2.268,0,1,0,.991,0v-5.189A2.21,2.21,0,0,0,139.94,263.859Zm-3.543,0a1.278,1.278,0,1,1,1.276,1.2,1.239,1.239,0,0,1-1.276-1.2Zm2.551,9.457a1.278,1.278,0,1,1-1.276-1.2A1.239,1.239,0,0,1,138.949,273.317Zm0,0" transform="translate(-125.5 -243.145)"/>
    <path id="Path_705" data-name="Path 705" d="M278.031,385.078h8.883a.5.5,0,0,0,.5-.5v-5.075a.5.5,0,0,0-.5-.5h-8.883a.5.5,0,0,0-.5.5v5.075A.5.5,0,0,0,278.031,385.078Zm.5-5.075h7.892v4.083h-7.892Zm0,0" transform="translate(-257.565 -352.176)"/>
    <path id="Path_706" data-name="Path 706" d="M289.558,261.672H278.031a.5.5,0,0,0-.5.5v5.075a.5.5,0,0,0,.5.5h11.528a.5.5,0,0,0,.5-.5v-5.075A.5.5,0,0,0,289.558,261.672Zm-.5,5.075H278.526v-4.083h10.536Zm0,0" transform="translate(-257.565 -243.144)"/>
    <path id="Path_707" data-name="Path 707" d="M300.437,287.8H303.5a.5.5,0,1,0,0-.991h-3.067a.5.5,0,1,0,0,.991Zm0,0" transform="translate(-278.385 -266.501)"/>
    <path id="Path_708" data-name="Path 708" d="M300.437,309.194h5.711a.5.5,0,0,0,0-.991h-5.711a.5.5,0,1,0,0,.991Zm0,0" transform="translate(-278.385 -286.381)"/>
    <path id="Path_709" data-name="Path 709" d="M300.437,405.143H303.5a.5.5,0,1,0,0-.991h-3.067a.5.5,0,1,0,0,.991Zm0,0" transform="translate(-278.385 -375.536)"/>
    <path id="Path_710" data-name="Path 710" d="M306.148,425.547h-5.711a.5.5,0,0,0,0,.991h5.711a.5.5,0,1,0,0-.991Zm0,0" transform="translate(-278.386 -395.416)"/>
  </g>
</svg>
