<svg xmlns="http://www.w3.org/2000/svg" width="140" height="140" viewBox="0 0 140 140">
  <g id="Load" transform="translate(-745 -430)">
    <g id="Ellipse_20" data-name="Ellipse 20" transform="translate(745 430)" fill="#fff" stroke="#0062cf" stroke-width="2">
      <circle cx="70" cy="70" r="70" stroke="none"/>
      <circle cx="70" cy="70" r="69" fill="none"/>
    </g>
    <g id="load_file" transform="translate(784.657 469)">
      <path id="Path_703" data-name="Path 703" d="M4.725,31.424H28.76a4.386,4.386,0,0,0,4.382-4.382V12.527A4.388,4.388,0,0,0,28.9,8.147a4.388,4.388,0,0,0-4.377-4.164H18.055L15.718,1.425A4.391,4.391,0,0,0,12.483,0H4.725A4.386,4.386,0,0,0,.343,4.382V27.042a4.386,4.386,0,0,0,4.382,4.382ZM28.76,9.992a2.538,2.538,0,0,1,2.535,2.534V27.042a2.538,2.538,0,0,1-2.535,2.534H8.662a4.358,4.358,0,0,0,.809-2.534V12.527a2.537,2.537,0,0,1,2.534-2.534ZM2.191,4.382A2.537,2.537,0,0,1,4.725,1.847h7.759a2.541,2.541,0,0,1,1.871.825l2.354,2.576a1.792,1.792,0,0,0,1.32.582h6.49a2.539,2.539,0,0,1,2.525,2.315H12.006a4.386,4.386,0,0,0-4.382,4.382V27.042a2.538,2.538,0,0,1-2.535,2.534H4.725a2.537,2.537,0,0,1-2.534-2.534Zm0,0" transform="translate(0)" fill="#0062cf"/>
      <path id="Path_704" data-name="Path 704" d="M143.855,265.748a4.227,4.227,0,1,0-5.148,3.977V279.4a4.227,4.227,0,1,0,1.847,0v-9.671A4.118,4.118,0,0,0,143.855,265.748Zm-6.6,0a2.382,2.382,0,1,1,2.378,2.229,2.309,2.309,0,0,1-2.378-2.229Zm4.755,17.625a2.382,2.382,0,1,1-2.377-2.229A2.309,2.309,0,0,1,142.008,283.373Zm0,0" transform="translate(-117.241 -227.144)" fill="#0062cf"/>
      <path id="Path_705" data-name="Path 705" d="M278.459,390.317h16.555a.923.923,0,0,0,.924-.924v-9.457a.924.924,0,0,0-.924-.924H278.459a.924.924,0,0,0-.924.924v9.457A.924.924,0,0,0,278.459,390.317Zm.924-9.457H294.09v7.61H279.382Zm0,0" transform="translate(-240.616 -329)" fill="#0062cf"/>
      <path id="Path_706" data-name="Path 706" d="M299.942,261.672H278.459a.924.924,0,0,0-.924.924v9.457a.924.924,0,0,0,.924.924h21.483a.924.924,0,0,0,.924-.924V262.6A.924.924,0,0,0,299.942,261.672Zm-.924,9.457H279.382v-7.61h19.636Zm0,0" transform="translate(-240.616 -227.143)" fill="#0062cf"/>
      <path id="Path_707" data-name="Path 707" d="M300.865,288.656h5.716a.924.924,0,0,0,0-1.847h-5.716a.924.924,0,1,0,0,1.847Zm0,0" transform="translate(-260.065 -248.963)" fill="#0062cf"/>
      <path id="Path_708" data-name="Path 708" d="M300.865,310.05h10.643a.924.924,0,1,0,0-1.847H300.865a.924.924,0,1,0,0,1.847Zm0,0" transform="translate(-260.065 -267.535)" fill="#0062cf"/>
      <path id="Path_709" data-name="Path 709" d="M300.865,406h5.716a.924.924,0,1,0,0-1.847h-5.716a.924.924,0,1,0,0,1.847Zm0,0" transform="translate(-260.065 -350.823)" fill="#0062cf"/>
      <path id="Path_710" data-name="Path 710" d="M311.508,425.547H300.865a.924.924,0,1,0,0,1.847h10.643a.924.924,0,1,0,0-1.847Zm0,0" transform="translate(-260.066 -369.395)" fill="#0062cf"/>
    </g>
  </g>
</svg>
