<svg xmlns="http://www.w3.org/2000/svg" width="29.152" height="34.982" viewBox="0 0 29.152 34.982">
  <g id="pause" transform="translate(-42.668)">
    <g id="Group_583" data-name="Group 583" transform="translate(42.667)">
      <g id="Group_582" data-name="Group 582">
        <path id="Path_689" data-name="Path 689" d="M52.141,0H44.853a2.189,2.189,0,0,0-2.186,2.186V32.8a2.189,2.189,0,0,0,2.186,2.186h7.288A2.189,2.189,0,0,0,54.328,32.8V2.186A2.189,2.189,0,0,0,52.141,0Zm.729,32.8a.73.73,0,0,1-.729.729H44.853a.73.73,0,0,1-.729-.729V2.186a.73.73,0,0,1,.729-.729h7.288a.73.73,0,0,1,.729.729V32.8Z" transform="translate(-42.667)"/>
      </g>
    </g>
    <g id="Group_585" data-name="Group 585" transform="translate(60.158)">
      <g id="Group_584" data-name="Group 584">
        <path id="Path_690" data-name="Path 690" d="M308.141,0h-7.288a2.189,2.189,0,0,0-2.186,2.186V32.8a2.189,2.189,0,0,0,2.186,2.186h7.288a2.189,2.189,0,0,0,2.186-2.186V2.186A2.189,2.189,0,0,0,308.141,0Zm.729,32.8a.73.73,0,0,1-.729.729h-7.288a.73.73,0,0,1-.729-.729V2.186a.73.73,0,0,1,.729-.729h7.288a.73.73,0,0,1,.729.729V32.8Z" transform="translate(-298.667)"/>
      </g>
    </g>
  </g>
</svg>
