<svg xmlns="http://www.w3.org/2000/svg" width="28.579" height="26.79" viewBox="0 0 28.579 26.79">
  <g id="RPA-Audit-1" transform="translate(-10 -40.7)">
    <path id="Path_1200" data-name="Path 1200" d="M444.28,412.016l-3.543-3.543a7.7,7.7,0,0,0,1.356-4.176,7,7,0,0,0-13.993,0c0,3.864,3.15,7.373,7,7a7.723,7.723,0,0,0,4.176-1.356l3.543,3.546a1.051,1.051,0,0,0,1.464-1.467Zm-14.133-7.72a4.949,4.949,0,1,1,4.949,4.949,4.95,4.95,0,0,1-4.949-4.949Z" transform="translate(-405.907 -346.2)" fill="#607088"/>
    <path id="Path_1201" data-name="Path 1201" d="M31.756,43.056A2.357,2.357,0,0,0,29.4,40.7H12.356A2.357,2.357,0,0,0,10,43.056V65.133a2.357,2.357,0,0,0,2.356,2.356h1.718l.015-.018a1.028,1.028,0,0,0,.192.018h8.466a1.029,1.029,0,1,0,0-2.059h-9.51a1.179,1.179,0,0,1-1.178-1.178V43.94a1.179,1.179,0,0,1,1.178-1.178H28.519A1.179,1.179,0,0,1,29.7,43.94v4.167h0v0a1.029,1.029,0,0,0,2.059,0v0h0V43.056Z" fill="#607088"/>
    <path id="Path_1202" data-name="Path 1202" d="M146.3,225.229a1.029,1.029,0,0,0,1.029,1.029h11.782a1.029,1.029,0,0,0,1.029-1.029h0a1.029,1.029,0,0,0-1.029-1.029H147.329a1.029,1.029,0,0,0-1.029,1.029Z" transform="translate(-132.325 -178.148)" fill="#607088"/>
    <path id="Path_1203" data-name="Path 1203" d="M146.3,439.729a1.029,1.029,0,0,0,1.029,1.029h5.748a1.029,1.029,0,0,0,1.029-1.029h0a1.029,1.029,0,0,0-1.029-1.029h-5.745a1.032,1.032,0,0,0-1.032,1.029Z" transform="translate(-132.325 -386.393)" fill="#607088"/>
    <path id="Path_1204" data-name="Path 1204" d="M146.3,648.13a1.029,1.029,0,0,0,1.029,1.029h3.736a1.029,1.029,0,0,0,1.029-1.029h0a1.029,1.029,0,0,0-1.029-1.029h-3.733a1.032,1.032,0,0,0-1.032,1.029Z" transform="translate(-132.325 -588.715)" fill="#607088"/>
  </g>
</svg>
