
        <svg id="trash" xmlns="http://www.w3.org/2000/svg" width="10" height="10" viewBox="0 0 40.313 49.358" fill="black">
            <path id="Path_766" data-name="Path 766" d="M40.188,11.032,39.1,7.765a3.039,3.039,0,0,0-2.886-2.08H27.052V2.7A2.706,2.706,0,0,0,24.35,0H15.962a2.706,2.706,0,0,0-2.7,2.7V5.685H4.1a3.039,3.039,0,0,0-2.887,2.08L.125,11.032a2.446,2.446,0,0,0,2.32,3.219H3.583l2.507,31a4.485,4.485,0,0,0,4.445,4.1h19.75a4.485,4.485,0,0,0,4.445-4.1l2.507-31h.631a2.445,2.445,0,0,0,2.32-3.219ZM16.152,2.892H24.16V5.685H16.152Zm15.695,42.13a1.577,1.577,0,0,1-1.562,1.444H10.536a1.577,1.577,0,0,1-1.562-1.444L6.485,14.252H34.336ZM3.065,11.359,3.958,8.68a.15.15,0,0,1,.143-.1h32.11a.151.151,0,0,1,.143.1l.894,2.679Zm0,0" transform="translate(0 0)" fill="black"/>
            <path id="Path_767" data-name="Path 767" d="M269.667,194.534l.076,0a1.446,1.446,0,0,0,1.443-1.371l1.358-26.067a1.446,1.446,0,0,0-2.888-.151L268.3,193.015A1.446,1.446,0,0,0,269.667,194.534Zm0,0" transform="translate(-242.432 -149.615)" fill="black"/>
            <path id="Path_768" data-name="Path 768" d="M107.218,193.171a1.446,1.446,0,0,0,1.443,1.367l.08,0a1.446,1.446,0,0,0,1.365-1.522l-1.422-26.067a1.446,1.446,0,1,0-2.888.157Zm0,0" transform="translate(-95.595 -149.617)" fill="black"/>
            <path id="Path_769" data-name="Path 769" d="M195.7,194.538a1.446,1.446,0,0,0,1.446-1.446V167.025a1.446,1.446,0,0,0-2.892,0v26.067A1.446,1.446,0,0,0,195.7,194.538Zm0,0" transform="translate(-175.528 -149.617)" fill="black"/>
          </svg>