<svg width="100" height="100" xmlns="http://www.w3.org/2000/svg">
 <!-- Created with Method Draw - http://github.com/duopixel/Method-Draw/ -->

 <g>
  <title>Layer 1</title>
  <ellipse stroke="#000" ry="185.99999" rx="192.5" id="svg_1" cy="246.453135" cx="320.999994" fill-opacity="null" stroke-opacity="null" stroke-width="5" fill="#fff"/>
  <g stroke="null" id="svg_41">
   <g stroke="null" id="svg_8">
    <g stroke="null" id="svg_9">
     <path stroke="null" id="svg_10" d="m433.146387,214.237064l-21.293334,0c-3.155652,0 -5.712431,2.165251 -5.712431,4.83638l0,10.07435l-9.711949,0l0,-10.07435c0,-2.671129 -2.556779,-4.83638 -5.712431,-4.83638l-23.64391,0l0,-9.997143l23.64391,0c3.155652,0 5.712431,-2.165251 5.712431,-4.83638l0,-77.306019c0,-11.687629 -11.230228,-21.195604 -25.034928,-21.195604l-47.180975,0l0,-12.065021c0,-2.671129 -2.556779,-4.83638 -5.712431,-4.83638c-3.155652,0 -5.712431,2.165251 -5.712431,4.83638l0,12.064445l-47.181655,0c-13.8047,0 -25.034928,9.50855 -25.034928,21.195604l0,77.306595c0,2.671129 2.556779,4.83638 5.712431,4.83638l23.64459,0l0,9.997143l-23.64459,0c-3.155652,0 -5.712431,2.165251 -5.712431,4.83638l0,10.07435l-9.711949,0l0,-10.07435c0,-2.671129 -2.556779,-4.83638 -5.712431,-4.83638l-21.294014,0c-3.155652,0 -5.712431,2.165251 -5.712431,4.83638l0,97.428216c0,2.671129 2.556779,4.83638 5.712431,4.83638l21.293334,0c3.155652,0 5.712431,-2.165251 5.712431,-4.83638l0,-57.797444l9.711949,0l0,39.296593c0,2.671129 2.556779,4.83638 5.712431,4.83638l10.140007,0l0,43.623637l-7.204169,0c-3.155652,0 -5.712431,2.165251 -5.712431,4.83638l0,22.865923c0,2.671129 2.556779,4.83638 5.712431,4.83638l48.143935,0c3.155652,0 5.712431,-2.165251 5.712431,-4.83638l0,-22.865923c0,-2.671129 -2.556779,-4.83638 -5.712431,-4.83638l-7.203488,0l0,-43.623637l56.681276,0l0,43.623637l-7.204169,0c-3.155652,0 -5.712431,2.165251 -5.712431,4.83638l0,22.865923c0,2.671129 2.556779,4.83638 5.712431,4.83638l48.143935,0c3.155652,0 5.712431,-2.165251 5.712431,-4.83638l0,-22.865923c0,-2.671129 -2.556779,-4.83638 -5.712431,-4.83638l-7.203488,0l0,-43.623637l10.140007,0c3.155652,0 5.712431,-2.165251 5.712431,-4.83638l0,-39.296593l9.711949,0l0,57.796868c0,2.671129 2.556779,4.83638 5.712431,4.83638l21.293334,0c3.155652,0 5.712431,-2.165251 5.712431,-4.83638l0,-97.428216c-0.001361,-2.670553 -2.55814,-4.835803 -5.713111,-4.835803zm-213.71187,97.428216l-9.868472,0l0,-87.755457l9.868472,0l0,87.755457zm21.13681,-62.633248l-9.711949,0l0,-10.211479l9.711949,0l0,10.211479zm11.424181,-54.464295l0,-72.470216c0,-6.354014 6.105781,-11.523421 13.610747,-11.523421l105.787491,0c7.504966,0 13.610747,5.169406 13.610747,11.523421l0,72.470216l-133.008986,0zm103.652646,9.671607l0,9.997143l-74.295625,0l0,-9.997143l74.295625,0zm-63.997053,151.894815l0,13.193164l-36.719754,0l0,-13.193164l36.719754,0zm-23.802475,-9.672759l0,-43.623637l10.887237,0l0,43.623637l-10.887237,0zm114.22003,9.672759l0,13.193164l-36.719754,0l0,-13.193164l36.719754,0zm-23.802475,-9.672759l0,-43.623637l10.887237,0l0,43.623637l0,0l-10.887237,0zm26.738313,-53.296972l-133.008986,0l0,-69.254605l133.008305,0l0,69.254605l0.000681,0zm21.136129,-44.132396l-9.711949,0l0,-10.211479l9.711949,0l0,10.211479zm21.293334,62.633248l-9.868472,0l0,-87.755457l9.868472,0l0,87.755457z"/>
    </g>
   </g>
   <g stroke="null" id="svg_11">
    <g stroke="null" id="svg_12">
     <path stroke="null" id="svg_13" d="m283.273005,132.827555c-14.157219,0 -25.674633,9.751118 -25.674633,21.736628c0,11.98551 11.517414,21.736628 25.674633,21.736628c14.156538,0.000576 25.673953,-9.750542 25.673953,-21.736628c0.000681,-11.98551 -11.516734,-21.736628 -25.673953,-21.736628zm0,33.801073c-7.856804,0 -14.250452,-5.411398 -14.250452,-12.064445c0,-6.651895 6.392968,-12.064445 14.250452,-12.064445c7.856804,0 14.249772,5.411974 14.249772,12.064445c0,6.652471 -6.392287,12.064445 -14.249772,12.064445z"/>
    </g>
   </g>
   <g stroke="null" id="svg_14">
    <g stroke="null" id="svg_15">
     <path stroke="null" id="svg_16" d="m353.728358,132.827555c-14.157219,0 -25.674633,9.751118 -25.674633,21.736628c0,11.98551 11.517414,21.737204 25.674633,21.737204c14.156538,0 25.673953,-9.751118 25.673953,-21.736628s-11.517414,-21.737204 -25.673953,-21.737204zm0,33.801073c-7.856804,0 -14.250452,-5.411974 -14.250452,-12.064445c0,-6.651895 6.392287,-12.064445 14.250452,-12.064445c7.856804,0 14.249772,5.411974 14.249772,12.064445c-0.000681,6.652471 -6.392968,12.064445 -14.249772,12.064445z"/>
    </g>
   </g>
   <g stroke="null" id="svg_17">
    <g stroke="null" id="svg_18">
     <path stroke="null" id="svg_19" d="m318.501022,240.085249c-20.631851,0 -37.417305,14.210682 -37.417305,31.679035c0,2.671129 2.556779,4.83638 5.712431,4.83638l63.409749,0c3.155652,0 5.712431,-2.165251 5.712431,-4.83638c-0.000681,-17.467777 -16.785454,-31.679035 -37.417305,-31.679035zm-25.360905,26.842656c2.609861,-9.81565 12.990778,-17.169897 25.360225,-17.169897c12.370128,0 22.750364,7.354247 25.360225,17.169897l-50.72045,0z"/>
    </g>
   </g>
   <g stroke="null" id="svg_20">
    <g stroke="null" id="svg_21">
     <circle stroke="null" id="svg_22" r="4.836376" cy="237.962058" cx="366.644276"/>
    </g>
   </g>
   <g stroke="null" id="svg_23">
    <g stroke="null" id="svg_24">
     <circle stroke="null" id="svg_25" r="4.836376" cy="237.962058" cx="270.357087"/>
    </g>
   </g>
   <g stroke="null" id="svg_26"/>
   <g stroke="null" id="svg_27"/>
   <g stroke="null" id="svg_28"/>
   <g stroke="null" id="svg_29"/>
   <g stroke="null" id="svg_30"/>
   <g stroke="null" id="svg_31"/>
   <g stroke="null" id="svg_32"/>
   <g stroke="null" id="svg_33"/>
   <g stroke="null" id="svg_34"/>
   <g stroke="null" id="svg_35"/>
   <g stroke="null" id="svg_36"/>
   <g stroke="null" id="svg_37"/>
   <g stroke="null" id="svg_38"/>
   <g stroke="null" id="svg_39"/>
   <g stroke="null" id="svg_40"/>
  </g>
 </g>
</svg>