<svg xmlns="http://www.w3.org/2000/svg" width="140" height="140" viewBox="0 0 140 140"><g data-name="Group 299" transform="translate(-201 -430)"><g fill="#fff" stroke="#0062cf" stroke-width="2" data-name="Ellipse 19" transform="translate(201 430)"><circle cx="70" cy="70" r="70" stroke="none"/><circle cx="70" cy="70" r="69" fill="none"/></g><g transform="translate(221.231 464.831)"><g transform="translate(0 0)"><path fill="#ffdbd4" d="M123.431,6H87.9V79.169h52.872V23.092Z" transform="translate(-84.227 -6)"/><path fill="#bf6149" d="M330.7,6l17.341,17.092H330.7Z" transform="translate(-291.496 -6)"/><path fill="#bf6149" d="M0 0H48.145V22.843H0z" transform="translate(0 42.848)"/><path fill="#a84835" d="M62.8,454.9l3.673,3.1v-3.1Z" transform="translate(-62.8 -389.209)"/></g><g fill="#fff" transform="translate(7.595 49.243)"><path d="M119.719,351.014a1.275,1.275,0,0,0,1.01-.366,1.543,1.543,0,0,0,.337-1.054h3.015l.015.059a3.447,3.447,0,0,1-1.2,2.824,4.6,4.6,0,0,1-3.176,1.083A4.662,4.662,0,0,1,116,352.068a5.7,5.7,0,0,1-1.3-3.878v-.22a5.7,5.7,0,0,1,1.3-3.878,4.65,4.65,0,0,1,3.7-1.493,4.535,4.535,0,0,1,3.219,1.112,3.851,3.851,0,0,1,1.171,3.059l-.015.059h-3.015a2.138,2.138,0,0,0-.337-1.229,1.162,1.162,0,0,0-1.01-.468,1.342,1.342,0,0,0-1.332.761,4.764,4.764,0,0,0-.38,2.063v.219a4.7,4.7,0,0,0,.38,2.078A1.3,1.3,0,0,0,119.719,351.014Z" transform="translate(-114.7 -342.585)"/><path d="M200.12,350.3a.865.865,0,0,0-.439-.7,4.7,4.7,0,0,0-1.624-.556,6.324,6.324,0,0,1-2.78-1.112,2.517,2.517,0,0,1-.937-2.093,2.978,2.978,0,0,1,1.171-2.371,4.84,4.84,0,0,1,3.176-.966,5.468,5.468,0,0,1,3.366.937,2.767,2.767,0,0,1,1.185,2.444l-.015.059h-3.2a1.352,1.352,0,0,0-.307-.951,1.366,1.366,0,0,0-1.024-.322,1.3,1.3,0,0,0-.863.278.88.88,0,0,0-.351.717.868.868,0,0,0,.41.717,4.775,4.775,0,0,0,1.639.527,6.352,6.352,0,0,1,2.868,1.141,2.626,2.626,0,0,1,.922,2.151,2.825,2.825,0,0,1-1.259,2.356,5.576,5.576,0,0,1-3.351.922,5,5,0,0,1-3.41-1.1,3.068,3.068,0,0,1-1.2-2.444l.015-.059h2.985a1.321,1.321,0,0,0,.454,1.083,2.012,2.012,0,0,0,1.229.337,1.66,1.66,0,0,0,1.01-.263A.878.878,0,0,0,200.12,350.3Z" transform="translate(-182.472 -342.5)"/><path d="M275.688,350.1l.19,1.127.059.015.219-1.127,1.4-6.219h3.468l-3.439,10.58h-3.351L270.8,343.9h3.483Z" transform="translate(-247.957 -343.695)"/></g></g><g transform="translate(265.518 450.563)"><path fill="#fdf2ce" d="M6.852,69.624H44.989a6.852,6.852,0,0,0,6.852-6.852V24.109L27.7,0H6.852A6.852,6.852,0,0,0,0,6.852V62.772A6.852,6.852,0,0,0,6.852,69.624Z" data-name="Path 330"/><g fill="#7fd077" data-name="Group 157" transform="translate(9.958 47.582)"><path d="M16.38,91.417a.984.984,0,0,1,.156-.467L19.9,85.464,16.652,80a1.069,1.069,0,0,1-.175-.545,1,1,0,0,1,.516-.837,1.921,1.921,0,0,1,1.1-.35.912.912,0,0,1,.837.545l2.646,4.766,2.646-4.766a.952.952,0,0,1,.856-.545,1.923,1.923,0,0,1,1.1.35,1,1,0,0,1,.516.837,1.069,1.069,0,0,1-.175.545l-3.249,5.467,3.366,5.486a1,1,0,0,1,.136.467,1.079,1.079,0,0,1-.545.885,1.923,1.923,0,0,1-1.109.379.716.716,0,0,1-.681-.409l-2.86-5-2.84,5a.757.757,0,0,1-.7.409,1.94,1.94,0,0,1-1.1-.379A1.076,1.076,0,0,1,16.38,91.417Z" data-name="Path 331" transform="translate(-16.38 -78.266)"/><path d="M37.436,91.85V79.2a.625.625,0,0,1,.37-.584,2.156,2.156,0,0,1,1.79,0,.625.625,0,0,1,.37.584V90.43h4.747a.626.626,0,0,1,.554.331,1.584,1.584,0,0,1,0,1.556.625.625,0,0,1-.554.331H38.545a1.4,1.4,0,0,1-.778-.214A.661.661,0,0,1,37.436,91.85Z" data-name="Path 332" transform="translate(-24.635 -78.329)"/><path d="M53.372,90.347a1.518,1.518,0,0,1,.34-.9.961.961,0,0,1,.768-.457,1,1,0,0,1,.574.243,6.682,6.682,0,0,1,.623.536,2.85,2.85,0,0,0,.866.536,3.12,3.12,0,0,0,1.245.243,2.686,2.686,0,0,0,1.556-.428,1.435,1.435,0,0,0,.623-1.265,1.7,1.7,0,0,0-.34-1.041,2.716,2.716,0,0,0-.895-.759q-.554-.3-1.216-.584t-1.333-.632a7.777,7.777,0,0,1-1.226-.788,3.152,3.152,0,0,1-.895-1.167,3.884,3.884,0,0,1-.34-1.663,3.926,3.926,0,0,1,.418-1.846,3.178,3.178,0,0,1,1.119-1.244,5.254,5.254,0,0,1,1.5-.652,6.717,6.717,0,0,1,1.693-.207,8.687,8.687,0,0,1,1.07.07,9.913,9.913,0,0,1,1.2.23,2.528,2.528,0,0,1,1.031.5,1.022,1.022,0,0,1,.4.8,1.772,1.772,0,0,1-.272.9.828.828,0,0,1-.739.463,3.676,3.676,0,0,1-.953-.37,3.989,3.989,0,0,0-1.731-.37,2.824,2.824,0,0,0-1.624.4,1.266,1.266,0,0,0-.574,1.1,1.281,1.281,0,0,0,.467.982,3.659,3.659,0,0,0,1.158.681q.691.263,1.5.661a12.821,12.821,0,0,1,1.5.866,3.631,3.631,0,0,1,1.158,1.352A4.38,4.38,0,0,1,62.5,88.6a3.821,3.821,0,0,1-1.274,3.079,5,5,0,0,1-3.356,1.084A6.271,6.271,0,0,1,54.695,92Q53.373,91.242,53.372,90.347Z" data-name="Path 333" transform="translate(-30.882 -78.266)"/></g><path fill="#b8b097" d="M52.547,24.109H69.706L45.568,0l.02,17.158A6.959,6.959,0,0,0,52.547,24.109Z" data-name="Path 334" transform="translate(-17.865)"/><path fill="#7fd077" d="M53.929,22.727c3.9.2,15.776,1.382,15.776,1.382L45.568,0s1.074,11.853,1.4,15.776A7.331,7.331,0,0,0,53.929,22.727Z" data-name="Path 335" transform="translate(-17.865)"/><path fill="#fdffee" d="M24.138 24.109L0 0" data-name="Line 117" transform="translate(27.703)"/></g></g></svg>