<svg xmlns="http://www.w3.org/2000/svg" width="20.001" height="15.055" viewBox="0 0 20.001 15.055">
  <g id="Properties-icon" transform="translate(-1523.41 -244)">
    <path id="Path_517" data-name="Path 517" d="M21.706,47.889H14.461c-.3,0-.541-.447-.541-1s.242-1,.541-1h7.245c.3,0,.541.447.541,1S22,47.889,21.706,47.889Z" transform="translate(1521.164 210.901)" fill="#fff"/>
    <path id="Path_518" data-name="Path 518" d="M25.215,29.058H14.7a1.027,1.027,0,0,1,0-2h10.51a1.027,1.027,0,0,1,0,2Z" transform="translate(1517.412 223.468)" fill="#fff"/>
    <path id="Path_519" data-name="Path 519" d="M28.292,10.227H14.918a1,1,0,0,1,0-2H28.292a1,1,0,0,1,0,2Z" transform="translate(1514.121 236.035)" fill="#fff"/>
    <circle id="Ellipse_4" data-name="Ellipse 4" cx="1.34" cy="1.34" r="1.34" transform="translate(1523.41 244)" fill="#fff"/>
    <circle id="Ellipse_5" data-name="Ellipse 5" cx="1.34" cy="1.34" r="1.34" transform="translate(1527.391 250.188)" fill="#fff"/>
    <circle id="Ellipse_6" data-name="Ellipse 6" cx="1.34" cy="1.34" r="1.34" transform="translate(1531.37 256.375)" fill="#fff"/>
  </g>
</svg>
