<svg xmlns="http://www.w3.org/2000/svg" width="43.021" height="43.019" viewBox="0 0 43.021 43.019"><path fill="none" fill-rule="evenodd" stroke="#0062cf" stroke-linecap="round" stroke-linejoin="round" stroke-miterlimit="2.613" stroke-width="2" d="M41.715,160.358a18.262,18.262,0,0,0-1.836.492l-.472-.817a1.726,1.726,0,0,0-2.35-.63l-3.6,2.079a1.726,1.726,0,0,0-.632,2.35l.473.821A18.29,18.29,0,0,0,31.958,166l-.822-.474a1.727,1.727,0,0,0-2.35.63l-2.077,3.6a1.725,1.725,0,0,0,.63,2.351l.818.472a18.447,18.447,0,0,0-.49,1.834h-.945a1.726,1.726,0,0,0-1.72,1.72v4.156a1.726,1.726,0,0,0,1.72,1.72h.945a18.386,18.386,0,0,0,.491,1.837l-.816.472a1.724,1.724,0,0,0-.63,2.351l2.075,3.594a1.726,1.726,0,0,0,2.351.63l.82-.472a18.284,18.284,0,0,0,1.343,1.343l-.473.821a1.725,1.725,0,0,0,.632,2.35l3.6,2.077a1.725,1.725,0,0,0,2.35-.63l.472-.816a17.686,17.686,0,0,0,1.836.49v.943a1.726,1.726,0,0,0,1.721,1.72h4.156a1.725,1.725,0,0,0,1.72-1.72v-.943a18.107,18.107,0,0,0,1.836-.492l.47.817a1.726,1.726,0,0,0,2.351.63l3.6-2.077a1.725,1.725,0,0,0,.631-2.35l-.474-.821a18.508,18.508,0,0,0,1.342-1.342l.821.474a1.725,1.725,0,0,0,2.35-.631l2.076-3.6a1.725,1.725,0,0,0-.63-2.351l-.816-.472A18.458,18.458,0,0,0,63.358,182H64.3a1.727,1.727,0,0,0,1.72-1.72v-4.156a1.727,1.727,0,0,0-1.72-1.72h-.944a18.535,18.535,0,0,0-.491-1.837l.818-.472a1.727,1.727,0,0,0,.63-2.351l-2.077-3.6a1.726,1.726,0,0,0-2.35-.63l-.821.474a18.267,18.267,0,0,0-1.343-1.343l.474-.821a1.725,1.725,0,0,0-.631-2.35l-3.6-2.079a1.728,1.728,0,0,0-2.351.63l-.472.817a18.063,18.063,0,0,0-1.837-.491v-.943a1.726,1.726,0,0,0-1.721-1.72H43.436a1.726,1.726,0,0,0-1.721,1.72v.943Zm3.8,30.212a12.366,12.366,0,1,1,12.365-12.365A12.363,12.363,0,0,1,45.512,190.57Z" data-name="Path 166" transform="translate(-24.002 -156.695)"/></svg>