<svg width="47" height="47" viewBox="0 0 47 47" fill="none" xmlns="http://www.w3.org/2000/svg">
<g filter="url(#filter0_d_212_94)">
<path fill-rule="evenodd" clip-rule="evenodd" d="M36 29.1111C36 30.7066 34.7245 32 33.1512 32H13.8488C12.2755 32 11 30.7066 11 29.1111V9.88889C11 8.2934 12.2755 7 13.8488 7H19.2267L22.0756 11.3333H33.1512C34.7245 11.3333 36 12.6267 36 14.2222V29.1111Z" fill="#098DE6"/>
<path fill-rule="evenodd" clip-rule="evenodd" d="M36 29.1111C36 30.7066 34.7245 32 33.1512 32H13.8488C12.2755 32 11 30.7066 11 29.1111V9.88889C11 8.2934 12.2755 7 13.8488 7H19.2267L22.0756 11.3333H33.1512C34.7245 11.3333 36 12.6267 36 14.2222V29.1111Z" stroke="#098DE6" stroke-linecap="round" stroke-linejoin="round"/>
</g>
<path d="M31 26H21" stroke="white" stroke-width="1.5" stroke-linecap="round" stroke-linejoin="round"/>
<defs>
<filter id="filter0_d_212_94" x="0.5" y="0.5" width="46" height="46" filterUnits="userSpaceOnUse" color-interpolation-filters="sRGB">
<feFlood flood-opacity="0" result="BackgroundImageFix"/>
<feColorMatrix in="SourceAlpha" type="matrix" values="0 0 0 0 0 0 0 0 0 0 0 0 0 0 0 0 0 0 127 0" result="hardAlpha"/>
<feOffset dy="4"/>
<feGaussianBlur stdDeviation="5"/>
<feComposite in2="hardAlpha" operator="out"/>
<feColorMatrix type="matrix" values="0 0 0 0 0.0352941 0 0 0 0 0.552941 0 0 0 0 0.901961 0 0 0 0.3 0"/>
<feBlend mode="normal" in2="BackgroundImageFix" result="effect1_dropShadow_212_94"/>
<feBlend mode="normal" in="SourceGraphic" in2="effect1_dropShadow_212_94" result="shape"/>
</filter>
</defs>
</svg>
