<svg width="28" height="26" viewBox="0 0 28 26" fill="none" xmlns="http://www.w3.org/2000/svg">
<path d="M3.11111 19.6667L24.2222 19.6667C25.3882 19.6667 26.3333 18.7381 26.3333 17.5926L26.3333 3.07406C26.3333 1.92858 25.3882 0.999987 24.2222 0.999987L3.11111 0.999987C1.94517 0.999987 0.999996 1.92858 0.999996 3.07406L0.999996 17.5926C0.999996 18.7381 1.94517 19.6667 3.11111 19.6667Z" stroke="#222222" stroke-width="1.5"/>
<path d="M10.333 19.6667L7.66631 25" stroke="#222222" stroke-width="1.5"/>
<path d="M16.9986 19.6667L19.6653 25" stroke="#222222" stroke-width="1.5"/>
<path d="M6.33224 24.9996H20.9989" stroke="#222222" stroke-width="1.5" stroke-linecap="round"/>
<path d="M12.2483 14.1284L9.50659 14.9996C9.3722 14.9996 9.24332 14.944 9.1483 14.8451C9.05328 14.7461 8.99989 14.6119 8.99989 14.4719C9.32876 13.6792 9.98769 12.0725 9.98769 12.0725L17.5881 4.15706C17.6353 4.1072 17.6915 4.06761 17.7534 4.04058C17.8154 4.01355 17.8819 3.99963 17.9491 3.99963C18.0163 3.99963 18.0829 4.01355 18.1448 4.04058C18.2068 4.06761 18.263 4.1072 18.3102 4.15706L19.8487 5.46096C19.8966 5.51007 19.9346 5.56859 19.9606 5.63314C19.9865 5.69769 19.9999 5.76697 19.9999 5.83695C19.9999 5.90693 19.9865 5.9762 19.9606 6.04075C19.9346 6.1053 19.8966 6.16383 19.8487 6.21293L12.2483 14.1284Z" stroke="#222222" stroke-width="1.5"/>
</svg>
