<svg xmlns="http://www.w3.org/2000/svg" width="34.734" height="24.314" viewBox="0 0 34.734 24.314">
  <path id="cloud" d="M29.177,12.811a5.216,5.216,0,0,0-4.863-7.088,5.184,5.184,0,0,0-2.893.879A8.684,8.684,0,0,0,5.21,10.934c0,.147.005.293.011.44A7.817,7.817,0,0,0,7.815,26.564H27.788a6.946,6.946,0,0,0,1.389-13.753Zm-7.826,3.332H17.8v6.079a.871.871,0,0,1-.868.868H14.328a.871.871,0,0,1-.868-.868V16.144H9.91A.867.867,0,0,1,9.3,14.662l5.72-5.72a.871.871,0,0,1,1.227,0l5.72,5.72a.868.868,0,0,1-.613,1.482Z" transform="translate(0 -2.25)" fill="#00a0e3"/>
</svg>
