<svg xmlns="http://www.w3.org/2000/svg" xmlns:xlink="http://www.w3.org/1999/xlink" width="24" height="24" viewBox="0 0 24 24">
  <defs>
    <clipPath id="clip-csv">
      <rect width="24" height="24"/>
    </clipPath>
  </defs>
  <g id="csv" clip-path="url(#clip-csv)">
    <g id="csv-file-variant-with-graphs-svgrepo-com_1_" data-name="csv-file-variant-with-graphs-svgrepo-com (1)" transform="translate(-10.718)">
      <path id="Path_1193" data-name="Path 1193" d="M25.358,21.928c.032,0,.063,0,.1,0h7.266a1.543,1.543,0,0,0,1.541-1.541V3.547a1.543,1.543,0,0,0-1.541-1.541H25.453c-.032,0-.064,0-.1,0V0L11.176,1.893V22.058L25.358,24Zm0-7.132h2.351v.881H25.358Zm0-.11v-.9h2.351v.9Zm0-1.007V12.649h2.351v1.029Zm0-1.139V11.387h2.351v1.152Zm0-1.246v-1.1h2.351v1.1Zm0-1.192V9h2.352v1.1Zm.1-7.214h7.266a.661.661,0,0,1,.66.661V20.391a.661.661,0,0,1-.66.661H25.453a.6.6,0,0,1-.1-.01V15.771h7.8V8.8h0V7.717H25.358V2.9A.627.627,0,0,1,25.453,2.887ZM33.046,9V15.66H32.018V9.324h-.706V15.66h-.588V9.975h-.706V15.66H29.5V10.618h-.706V15.66H27.8V9h5.242Zm-2.592-.094v-1.1h2.6V8.8h-.011v.11Zm-.094,0h-2.6v-1.1h2.6v1.1Zm-15.6,4.261a2.285,2.285,0,0,0,.812-.136l.148.816a2.589,2.589,0,0,1-1.1.169,2.1,2.1,0,0,1-2.172-2.279,2.248,2.248,0,0,1,2.266-2.418,2.377,2.377,0,0,1,1.062.177l-.2.831a1.975,1.975,0,0,0-.818-.157,1.333,1.333,0,0,0-1.34,1.508A1.324,1.324,0,0,0,14.76,13.171Zm2.708.925A2.87,2.87,0,0,1,16.2,13.78l.2-.864a2.53,2.53,0,0,0,1.123.309c.473.008.726-.192.726-.5s-.218-.466-.766-.672c-.747-.273-1.227-.7-1.227-1.374,0-.791.633-1.414,1.7-1.442a2.738,2.738,0,0,1,1.184.21l-.236.877a2.136,2.136,0,0,0-.968-.21c-.446.007-.661.22-.661.463,0,.3.254.429.844.657.819.308,1.209.748,1.209,1.425C19.333,13.462,18.727,14.129,17.467,14.1Zm5.05.061L21.2,14.123,19.656,9.27l1.192-.031.6,2.059c.169.583.323,1.145.441,1.76h.022c.125-.591.282-1.177.453-1.742l.646-2.132,1.24-.031Z" transform="translate(0)" fill="#31476a"/>
    </g>
  </g>
</svg>
