<svg width="24" height="25" viewBox="0 0 24 25" fill="none" xmlns="http://www.w3.org/2000/svg">
<path d="M13.1201 3.29724L12.2796 1.94951L11.4276 3.29011L8.34957 8.13386L7.37327 9.6702H9.19358H15.2927H17.095L16.1412 8.14099L13.1201 3.29724ZM12.1468 1.61959L12.1538 1.60867L12.1604 1.59757C12.1797 1.56537 12.2049 1.54102 12.232 1.52474C12.253 1.51206 12.2752 1.50424 12.2972 1.50085C12.3045 1.50217 12.3122 1.50493 12.32 1.50964C12.3322 1.517 12.3454 1.5296 12.3553 1.54858L12.3733 1.58271L12.3938 1.61537L17.5239 9.78555L17.5285 9.79297L17.5333 9.80031C17.5392 9.80927 17.5437 9.82222 17.5437 9.83737C17.5437 9.85251 17.5392 9.86546 17.5333 9.87442L17.5228 9.89051L17.513 9.90698C17.4937 9.93918 17.4685 9.96353 17.4414 9.97981C17.4184 9.99369 17.3941 10.0017 17.3699 10.0045H7.08453H7.07737L7.07021 10.0046C7.05985 10.0048 7.04817 10.0021 7.03617 9.99491C7.02727 9.98955 7.01787 9.98141 7.00957 9.97004C6.99362 9.92852 6.98511 9.88347 6.98511 9.83737C6.98511 9.79681 6.99169 9.75707 7.00414 9.71983L12.1468 1.61959Z" stroke="#098DE6" stroke-width="2"/>
<path d="M9.53439 22.0035V23.0035H8.53439H2.43843H1.43843V22.0035V15.7624V14.7624H2.43843H8.53439H9.53439V15.7624V22.0035ZM1.21923 23.4999H9.75358C9.80403 23.4999 9.85729 23.4796 9.90031 23.4356C9.94411 23.3907 9.97278 23.325 9.97278 23.2517V14.5141C9.97278 14.4408 9.94411 14.3751 9.90031 14.3303C9.85729 14.2862 9.80402 14.2659 9.75358 14.2659H1.21923C1.16879 14.2659 1.11552 14.2862 1.07251 14.3303C1.02871 14.3751 1.00004 14.4408 1.00004 14.5141V23.2517C1.00004 23.325 1.02871 23.3907 1.07251 23.4356C1.11552 23.4796 1.16879 23.4999 1.21923 23.4999Z" stroke="#098DE6" stroke-width="2"/>
<path d="M16.1202 15.2553C16.8265 14.7721 17.6595 14.5127 18.5136 14.5127C19.6596 14.5127 20.7537 14.979 21.5567 15.8011C22.3589 16.6224 22.8054 17.7314 22.8054 18.8829C22.8054 19.7421 22.5567 20.5838 22.0881 21.3018C21.6194 22.0201 20.9506 22.5835 20.1638 22.9172C19.3766 23.251 18.5091 23.3387 17.6719 23.1682C16.8348 22.9978 16.0692 22.5776 15.4706 21.9647C14.8722 21.3521 14.4672 20.5744 14.3034 19.7311C14.1396 18.888 14.2235 18.0138 14.5454 17.2181C14.8674 16.4223 15.4141 15.7383 16.1202 15.2553ZM20.9971 15.0379C20.2598 14.5336 19.3956 14.2659 18.5136 14.2659C17.9278 14.2659 17.3471 14.384 16.8045 14.6141C16.2619 14.8442 15.7673 15.1822 15.3496 15.6098C14.9318 16.0375 14.5992 16.5466 14.3719 17.1084C14.1446 17.6703 14.0273 18.2734 14.0273 18.8829C14.0273 19.8012 14.2934 20.6971 14.7893 21.457C15.2851 22.2167 15.9874 22.8052 16.8045 23.1517C17.6214 23.4981 18.5188 23.5884 19.3844 23.4121C20.2502 23.2358 21.0487 22.8 21.6777 22.156C22.307 21.5117 22.7381 20.6881 22.9129 19.788C23.0878 18.8878 22.9979 17.955 22.6554 17.1084C22.3129 16.2621 21.7346 15.5424 20.9971 15.0379Z" stroke="#098DE6" stroke-width="2"/>
</svg>
