<svg xmlns="http://www.w3.org/2000/svg" xmlns:xlink="http://www.w3.org/1999/xlink" width="24" height="24" viewBox="0 0 24 24">
  <defs>
    <clipPath id="clip-image">
      <rect width="24" height="24"/>
    </clipPath>
  </defs>
  <g id="image" clip-path="url(#clip-image)">
    <g id="image-svgrepo-com" transform="translate(0 -69.234)">
      <g id="Group_2794" data-name="Group 2794" transform="translate(0 72.087)">
        <g id="Group_2791" data-name="Group 2791" transform="translate(0 0)">
          <path id="Path_1179" data-name="Path 1179" d="M22.159,75.427H21.62v-.539a2.3,2.3,0,0,0-2.3-2.3H2.8a2.3,2.3,0,0,0-2.3,2.3V85.7A2.3,2.3,0,0,0,2.8,88H3.34v.539a2.3,2.3,0,0,0,2.3,2.3H22.159a2.3,2.3,0,0,0,2.3-2.3V77.728A2.3,2.3,0,0,0,22.159,75.427Zm.605,13.113a.606.606,0,0,1-.606.606H5.641a.606.606,0,0,1-.606-.606V77.728a.606.606,0,0,1,.606-.606H22.159a.606.606,0,0,1,.606.606V88.54ZM2.2,85.7V74.888a.606.606,0,0,1,.606-.606H19.319a.606.606,0,0,1,.606.606v.539H5.641a2.3,2.3,0,0,0-2.3,2.3v8.577H2.8A.606.606,0,0,1,2.2,85.7Z" transform="translate(-0.48 -72.567)" fill="#31476a"/>
          <path id="Path_1180" data-name="Path 1180" d="M21.679,90.381H5.161A2.324,2.324,0,0,1,2.84,88.06V87.54H2.321A2.324,2.324,0,0,1,0,85.219V74.408a2.324,2.324,0,0,1,2.321-2.321H18.839a2.324,2.324,0,0,1,2.321,2.321v.519h.519A2.324,2.324,0,0,1,24,77.248V88.06A2.324,2.324,0,0,1,21.679,90.381ZM2.321,72.127A2.284,2.284,0,0,0,.04,74.408V85.219A2.284,2.284,0,0,0,2.321,87.5H2.88v.559a2.284,2.284,0,0,0,2.281,2.281H21.679A2.284,2.284,0,0,0,23.96,88.06V77.248a2.284,2.284,0,0,0-2.281-2.281H21.12v-.559a2.284,2.284,0,0,0-2.281-2.281H2.321ZM21.679,88.685H5.161a.626.626,0,0,1-.625-.625V77.248a.626.626,0,0,1,.625-.625H21.679a.626.626,0,0,1,.625.625V88.06A.626.626,0,0,1,21.679,88.685ZM5.161,76.662a.586.586,0,0,0-.586.586V88.06a.586.586,0,0,0,.586.586H21.679a.586.586,0,0,0,.586-.586V77.248a.586.586,0,0,0-.586-.586ZM2.88,85.845H2.321a.626.626,0,0,1-.625-.625V74.408a.626.626,0,0,1,.625-.625H18.839a.626.626,0,0,1,.625.625v.559H5.161A2.284,2.284,0,0,0,2.88,77.248v8.6ZM2.321,73.822a.586.586,0,0,0-.586.586V85.219a.587.587,0,0,0,.586.586H2.84V77.248a2.324,2.324,0,0,1,2.321-2.321H19.425v-.519a.586.586,0,0,0-.586-.586H2.321Z" transform="translate(0 -72.087)" fill="#31476a"/>
        </g>
        <g id="Group_2792" data-name="Group 2792" transform="translate(5.707 9.278)">
          <path id="Path_1181" data-name="Path 1181" d="M158.824,311.769l-.558-.558-2.7-2.7a.606.606,0,0,0-.856,0l-1.535,1.535-2.868-2.868a.605.605,0,0,0-.856,0l-4.263,4.263-.329.329a.606.606,0,0,0,0,.856l.343.343a.6.6,0,0,0,.319.167.609.609,0,0,0,.219,0,.6.6,0,0,0,.319-.167l.68-.68.848-.848,1.865-1.865a.605.605,0,0,1,.856,0l1.865,1.865.848.848.681.68a.606.606,0,0,0,.856,0l.343-.343a.606.606,0,0,0,0-.856l-.329-.329-.2-.2.764-.764.96.96.848.848.68.68a.606.606,0,0,0,.856,0l.343-.343a.606.606,0,0,0,.041-.812Q158.846,311.791,158.824,311.769Z" transform="translate(-144.66 -306.98)" fill="#31476a"/>
          <path id="Path_1182" data-name="Path 1182" d="M153.648,312.687a.631.631,0,0,1-.113-.01.622.622,0,0,1-.329-.173l-3.393-3.393a.586.586,0,0,0-.828,0l-3.393,3.393a.622.622,0,0,1-.329.173.634.634,0,0,1-.226,0,.622.622,0,0,1-.329-.173l-.343-.343a.62.62,0,0,1-.176-.349.628.628,0,0,1,.176-.535l4.592-4.592a.625.625,0,0,1,.884,0l2.854,2.854,1.521-1.521a.625.625,0,0,1,.884,0l3.259,3.259c.014.014.029.03.042.046a.623.623,0,0,1-.042.838l-.343.343a.625.625,0,0,1-.442.183h0a.625.625,0,0,1-.442-.183l-2.475-2.475-.736.736.511.511a.628.628,0,0,1,.176.535.621.621,0,0,1-.176.349l-.343.343a.622.622,0,0,1-.329.173A.636.636,0,0,1,153.648,312.687ZM149.4,308.9a.621.621,0,0,1,.442.183l3.393,3.393a.582.582,0,0,0,.308.162.59.59,0,0,0,.212,0,.582.582,0,0,0,.308-.162l.343-.343a.582.582,0,0,0,.165-.327.589.589,0,0,0-.165-.5l-.539-.539.792-.792,2.5,2.5a.583.583,0,0,0,.29.158.585.585,0,0,0,.539-.158l.343-.343a.584.584,0,0,0,.039-.785c-.013-.015-.026-.03-.039-.043l-3.259-3.259a.586.586,0,0,0-.828,0l-1.549,1.549-2.882-2.882a.586.586,0,0,0-.828,0l-4.592,4.592a.589.589,0,0,0-.165.5.581.581,0,0,0,.165.327l.343.343a.582.582,0,0,0,.308.162.59.59,0,0,0,.212,0,.582.582,0,0,0,.308-.162l3.393-3.393A.621.621,0,0,1,149.4,308.9Z" transform="translate(-144.182 -306.502)" fill="#31476a"/>
        </g>
        <g id="Group_2793" data-name="Group 2793" transform="translate(16.236 5.435)">
          <path id="Path_1183" data-name="Path 1183" d="M413.9,210.065a2.343,2.343,0,1,0,.848.574A2.324,2.324,0,0,0,413.9,210.065Zm-.852,2.817a.641.641,0,1,1,.641-.641A.641.641,0,0,1,413.048,212.881Z" transform="translate(-410.692 -209.884)" fill="#31476a"/>
          <path id="Path_1184" data-name="Path 1184" d="M412.567,214.116a2.349,2.349,0,1,1,.859-.162A2.359,2.359,0,0,1,412.567,214.116Zm0-4.673a2.31,2.31,0,1,0,.845.159A2.319,2.319,0,0,0,412.567,209.443Zm0,2.977a.661.661,0,1,1,.661-.661A.661.661,0,0,1,412.567,212.42Zm0-1.282a.621.621,0,1,0,.621.621A.622.622,0,0,0,412.567,211.138Z" transform="translate(-410.211 -209.403)" fill="#31476a"/>
        </g>
      </g>
    </g>
  </g>
</svg>
