<svg xmlns="http://www.w3.org/2000/svg" xmlns:xlink="http://www.w3.org/1999/xlink" width="24" height="24" viewBox="0 0 24 24">
  <defs>
    <clipPath id="clip-xlsx">
      <rect width="24" height="24"/>
    </clipPath>
  </defs>
  <g id="xlsx" clip-path="url(#clip-xlsx)">
    <g id="xlsx-file-format-symbol-svgrepo-com" transform="translate(-10.77)">
      <path id="Path_1178" data-name="Path 1178" d="M25.41,21.928c.032,0,.063,0,.1,0h7.266a1.543,1.543,0,0,0,1.541-1.541V3.547a1.543,1.543,0,0,0-1.541-1.541H25.505c-.032,0-.064,0-.1.005V0L11.228,1.893V22.058L25.41,24Zm.1-19.041h7.266a.661.661,0,0,1,.661.661V20.391a.661.661,0,0,1-.661.661H25.505a.606.606,0,0,1-.1-.009V16.2h7.328V9.372H25.41V2.9A.626.626,0,0,1,25.505,2.887Zm3.362,11.659v1.431H25.435V14.546Zm-3.431-1.872V11.244h3.431v1.431Zm7.082-1.431v1.431H29.087V11.244Zm-3.431-.22V9.592h3.431v1.431Zm3.431,3.523v1.431H29.087V14.546Zm-18.58-.717-.292-.659c-.118-.252-.194-.439-.284-.646h-.009c-.066.2-.146.387-.243.631l-.26.629-.79-.033L12.947,12l-.856-1.718.8-.022.274.639c.094.214.164.387.24.587h.009c.076-.227.137-.387.218-.594l.273-.66.85-.024-.927,1.776.977,1.877Zm3.49.147-2.218-.093V10.2L16,10.178v3.028l1.433.042Zm1.436.119a2.528,2.528,0,0,1-1.083-.282l.173-.718a2.232,2.232,0,0,0,.962.271c.408.012.626-.152.626-.413s-.189-.393-.661-.57c-.641-.234-1.05-.592-1.05-1.155,0-.66.54-1.18,1.458-1.207a2.442,2.442,0,0,1,1.027.174l-.206.74a1.894,1.894,0,0,0-.839-.178c-.384.006-.569.184-.569.388,0,.25.219.361.728.554.71.263,1.051.638,1.051,1.209C20.481,13.588,19.954,14.142,18.864,14.1Zm4.559.134-.409-.783c-.166-.3-.272-.52-.4-.766H22.6c-.092.241-.2.456-.34.744l-.361.74-1.1-.046,1.231-2.053-1.188-2.022,1.1-.031.382.753c.131.253.229.457.334.693h.013c.105-.269.191-.457.3-.7l.381-.782,1.2-.033-1.3,2.108,1.373,2.232Z" transform="translate(0)" fill="#31476a"/>
    </g>
  </g>
</svg>
