<svg xmlns="http://www.w3.org/2000/svg" xmlns:xlink="http://www.w3.org/1999/xlink" width="24.913" height="25" viewBox="0 0 24.913 25">
  <defs>
    <filter id="Path" x="9.522" y="0" width="15.391" height="15.391" filterUnits="userSpaceOnUse">
      <feOffset dy="2" input="SourceAlpha"/>
      <feGaussianBlur stdDeviation="1" result="blur"/>
      <feFlood flood-opacity="0.078"/>
      <feComposite operator="in" in2="blur"/>
      <feComposite in="SourceGraphic"/>
    </filter>
  </defs>
  <g id="inactive_notification" data-name="inactive/notification" transform="translate(-0.811 1)">
    <g id="notification" transform="translate(0)">
      <path id="Combined_Shape" data-name="Combined Shape" d="M7.3,18.783h7.3a3.784,3.784,0,0,1-3.652,3.13A3.784,3.784,0,0,1,7.3,18.783ZM1.747,17.739A1.731,1.731,0,0,1,.059,16.475a1.776,1.776,0,0,1,.517-1.769A6.748,6.748,0,0,0,2.818,9.646V6.9A6.742,6.742,0,0,1,9.392,0c.212,0,.421.013.628.033a7.112,7.112,0,0,0-.628,2.923,6.75,6.75,0,0,0,6.574,6.9h.011a6.689,6.689,0,0,0,2.21,4.831,1.775,1.775,0,0,1,.561,1.687,1.736,1.736,0,0,1-1.716,1.367Z" transform="translate(0.812 2.087)" fill="#a0a0a0"/>
      <g transform="matrix(1, 0, 0, 1, 0.81, -1)" filter="url(#Path)">
        <path id="Path-2" data-name="Path" d="M9.391,4.7A4.7,4.7,0,1,1,4.7,0,4.7,4.7,0,0,1,9.391,4.7Z" transform="translate(12.52 1)" fill="#27ad74"/>
      </g>
    </g>
  </g>
</svg>
