<svg xmlns="http://www.w3.org/2000/svg" width="24" height="20.975" viewBox="0 0 24 20.975">
  <g id="Processes" transform="translate(0 -0.051)">
    <g id="web-programming_1_" data-name="web-programming (1)" transform="translate(0 0.051)">
      <path id="Shape" d="M0,13.03a2,2,0,0,0,2,2H22a2,2,0,0,0,2-2V0H0Z" transform="translate(0 5.945)" fill="#a0a0a0"/>
      <path id="Shape-2" data-name="Shape" d="M24,5.1H0V2A2,2,0,0,1,2,0H22a2.006,2.006,0,0,1,2,2V5.1ZM10.526,1.242h0a1.342,1.342,0,0,0,0,2.684h0a1.342,1.342,0,0,0,0-2.684ZM6.4,1.23a1.342,1.342,0,0,0,0,2.684h0a1.342,1.342,0,0,0,0-2.684ZM2.273,1.213A1.345,1.345,0,1,0,3.618,2.556,1.345,1.345,0,0,0,2.273,1.213Z" transform="translate(0 0)" fill="#a0a0a0"/>
    </g>
  </g>
</svg>
