<svg xmlns="http://www.w3.org/2000/svg" width="23.96" height="23.96" viewBox="0 0 23.96 23.96">
  <g id="Projects" transform="translate(-937.142 -437)">
    <path id="Path" d="M6.771,0H2.6A2.607,2.607,0,0,0,0,2.6V6.771a2.607,2.607,0,0,0,2.6,2.6H6.771a2.607,2.607,0,0,0,2.6-2.6V2.6A2.607,2.607,0,0,0,6.771,0Z" transform="translate(944.434 437)" fill="#a0a0a0"/>
    <path id="Path-2" data-name="Path" d="M3.854,0h-2.5A1.356,1.356,0,0,0,0,1.354v2.5A1.356,1.356,0,0,0,1.354,5.209h2.5A1.356,1.356,0,0,0,5.209,3.854v-2.5A1.356,1.356,0,0,0,3.854,0Z" transform="translate(946.517 455.751)" fill="#a0a0a0"/>
    <path id="Path-3" data-name="Path" d="M3.854,0h-2.5A1.356,1.356,0,0,0,0,1.354v2.5A1.356,1.356,0,0,0,1.354,5.209h2.5A1.356,1.356,0,0,0,5.209,3.854v-2.5A1.356,1.356,0,0,0,3.854,0Z" transform="translate(955.893 455.751)" fill="#a0a0a0"/>
    <path id="Path-4" data-name="Path" d="M3.854,0h-2.5A1.356,1.356,0,0,0,0,1.354v2.5A1.356,1.356,0,0,0,1.354,5.209h2.5A1.356,1.356,0,0,0,5.209,3.854v-2.5A1.356,1.356,0,0,0,3.854,0Z" transform="translate(937.142 455.751)" fill="#a0a0a0"/>
    <path id="Path-5" data-name="Path" d="M16.147,3.125h-5.73V.521a.521.521,0,0,0-1.042,0v2.6H3.646A3.65,3.65,0,0,0,0,6.771a.521.521,0,0,0,1.042,0,2.607,2.607,0,0,1,2.6-2.6h5.73v2.6a.521.521,0,0,0,1.042,0v-2.6h5.73a2.607,2.607,0,0,1,2.6,2.6.521.521,0,0,0,1.042,0A3.65,3.65,0,0,0,16.147,3.125Z" transform="translate(939.225 447.417)" fill="#a0a0a0"/>
  </g>
</svg>
