<svg width="24" height="24" viewBox="0 0 24 24" fill="none" xmlns="http://www.w3.org/2000/svg">
<path d="M22.59 22.2539C22.59 18.3839 18.74 15.2539 14 15.2539C9.26003 15.2539 5.41003 18.3839 5.41003 22.2539" stroke="#222222" stroke-width="1.5" stroke-linecap="round" stroke-linejoin="round"/>
<path d="M11.9862 12.1449C13.0389 12.5423 14.1922 12.5428 15.1922 12.1465" stroke="#222222" stroke-width="1.5" stroke-linecap="round" stroke-linejoin="round"/>
<path d="M14.3101 12.2896C15.6336 12.2077 16.8704 11.6034 17.7484 10.6097C18.6265 9.61587 19.0737 8.31401 18.9919 6.99046C18.91 5.6669 18.3057 4.43008 17.3119 3.55207C16.3181 2.67406 15.0163 2.22679 13.6927 2.30866C12.3692 2.39052 11.1324 2.99481 10.2543 3.98859" stroke="#222222" stroke-width="1.5" stroke-linecap="round" stroke-linejoin="round"/>
<path d="M7.35659 12.1609C7.86235 12.1609 8.34741 11.96 8.70504 11.6024C9.06267 11.2447 9.26359 10.7597 9.26359 10.2539C9.26359 9.74816 9.06267 9.2631 8.70504 8.90547C8.34741 8.54784 7.86235 8.34692 7.35659 8.34692C6.85082 8.34692 6.36576 8.54784 6.00813 8.90547C5.6505 9.2631 5.44958 9.74816 5.44958 10.2539C5.44958 10.7597 5.6505 11.2447 6.00813 11.6024C6.36576 11.96 6.85082 12.1609 7.35659 12.1609Z" stroke="#222222" stroke-width="1.5" stroke-miterlimit="10" stroke-linecap="round" stroke-linejoin="round"/>
<path d="M1 10.8133V9.69455C1 9.03346 1.54032 8.48678 2.20777 8.48678C3.35833 8.48678 3.82872 7.67313 3.25026 6.67513C2.91972 6.10303 3.11677 5.3593 3.69523 5.02875L4.79493 4.39944C5.29711 4.10068 5.94549 4.27867 6.24425 4.78084L6.31418 4.90162C6.88628 5.89962 7.82707 5.89962 8.40552 4.90162L8.47545 4.78084C8.77421 4.27867 9.42259 4.10068 9.92477 4.39944L11.0245 5.02875C11.6029 5.3593 11.8 6.10303 11.4694 6.67513C10.891 7.67313 11.3614 8.48678 12.5119 8.48678C13.173 8.48678 13.7197 9.0271 13.7197 9.69455V10.8133C13.7197 11.4744 13.1794 12.0211 12.5119 12.0211C11.3614 12.0211 10.891 12.8347 11.4694 13.8327C11.8 14.4112 11.6029 15.1486 11.0245 15.4791L9.92477 16.1084C9.42259 16.4072 8.77421 16.2292 8.47545 15.727L8.40552 15.6063C7.83342 14.6083 6.89264 14.6083 6.31418 15.6063L6.24425 15.727C5.94549 16.2292 5.29711 16.4072 4.79493 16.1084L3.69523 15.4791C3.41814 15.3196 3.21567 15.0566 3.13225 14.748C3.04883 14.4393 3.09127 14.1101 3.25026 13.8327C3.82872 12.8347 3.35833 12.0211 2.20777 12.0211C1.54032 12.0211 1 11.4744 1 10.8133Z" stroke="#222222" stroke-width="1.5" stroke-miterlimit="10" stroke-linecap="round" stroke-linejoin="round"/>
</svg>
