<svg width="24" height="24" viewBox="0 0 24 24" fill="none" xmlns="http://www.w3.org/2000/svg">
<path d="M11.2389 11.4761C12.6563 11.4782 14.0188 10.928 15.0376 9.94213C15.5356 9.46241 15.9318 8.88712 16.2024 8.25068C16.473 7.61424 16.6125 6.92974 16.6125 6.23813C16.6125 5.54651 16.473 4.86201 16.2024 4.22557C15.9318 3.58913 15.5356 3.01384 15.0376 2.53413C14.0163 1.5499 12.6535 1 11.2354 1C9.81725 1 8.45437 1.5499 7.43312 2.53413C6.93496 3.01377 6.53868 3.58903 6.26799 4.22548C5.99731 4.86193 5.85779 5.54647 5.85779 6.23813C5.85779 6.92978 5.99731 7.61432 6.26799 8.25077C6.53868 8.88722 6.93496 9.46248 7.43312 9.94213C8.45363 10.9297 9.81899 11.48 11.2389 11.4761Z" fill="white" stroke="white" stroke-width="1.5" stroke-linecap="round" stroke-linejoin="round"/>
<path d="M12.3966 20.9001C12.3972 20.9693 12.3841 21.038 12.3579 21.1021C12.3317 21.1663 12.293 21.2245 12.244 21.2735C12.1951 21.3225 12.1368 21.3612 12.0727 21.3874C12.0086 21.4136 11.94 21.4267 11.8707 21.4261H2.52484C2.45509 21.4266 2.38594 21.4132 2.32149 21.3865C2.25703 21.3598 2.1986 21.3204 2.14965 21.2707C2.1007 21.221 2.06223 21.1619 2.03653 21.0971C2.01082 21.0322 1.99841 20.9628 2.00002 20.8931C2.00002 16.5361 6.29259 13.0001 11.5628 13.0001C12.6111 12.9964 13.6545 13.1419 14.6618 13.4321C14.046 14.1681 11.9187 19.1561 12.3966 20.9001Z" fill="white"/>
<path fill-rule="evenodd" clip-rule="evenodd" d="M17.6948 14.6191C17.9075 14.6189 18.12 14.6339 18.3306 14.6641L18.6424 15.5851C18.9127 15.6604 19.1729 15.7682 19.4172 15.9061L20.3169 15.4851C20.6336 15.7219 20.9159 16.0016 21.1556 16.3161L20.7078 17.1821C20.8442 17.4213 20.95 17.6766 21.0227 17.9421L21.9633 18.2621C22.0151 18.6493 22.0118 19.0419 21.9533 19.4281L21.0077 19.7281C20.9301 19.9926 20.8196 20.2463 20.6788 20.4831L21.1116 21.3571C20.8662 21.6677 20.5789 21.9427 20.2579 22.1741L19.3682 21.7371C19.1216 21.8706 18.8598 21.9737 18.5885 22.0441L18.2606 22.9601C17.8621 23.0107 17.4586 23.0073 17.061 22.9501L16.7491 22.0291C16.4788 21.9539 16.2187 21.8461 15.9743 21.7081L15.0746 22.1291C14.758 21.8923 14.4757 21.6126 14.2359 21.2981L14.6838 20.4321C14.547 20.1931 14.4408 19.9377 14.3679 19.6721L13.4282 19.3531C13.3764 18.966 13.3798 18.5734 13.4382 18.1871L14.3839 17.8871C14.4614 17.6227 14.5719 17.369 14.7128 17.1321L14.2799 16.2581C14.5253 15.9476 14.8126 15.6726 15.1336 15.4411L16.0233 15.8781C16.2702 15.7446 16.5324 15.6416 16.8041 15.5711L17.1319 14.6551C17.318 14.6317 17.5053 14.62 17.6928 14.6201L17.6948 14.6191Z" stroke="white" stroke-linecap="round" stroke-linejoin="round"/>
<path d="M17.6947 20.6051C18.0486 20.5964 18.3921 20.4835 18.6821 20.2806C18.9722 20.0776 19.196 19.7935 19.3254 19.464C19.4549 19.1344 19.4843 18.7739 19.41 18.4277C19.3357 18.0815 19.1609 17.7649 18.9076 17.5175C18.6543 17.2702 18.3337 17.1031 17.9859 17.0371C17.6381 16.9712 17.2786 17.0093 16.9523 17.1467C16.6261 17.2842 16.3476 17.5148 16.1518 17.8098C15.9559 18.1048 15.8514 18.451 15.8513 18.8051C15.8541 19.0444 15.9039 19.2808 15.9981 19.5008C16.0922 19.7209 16.2288 19.9201 16.4 20.0873C16.5712 20.2545 16.7737 20.3863 16.9958 20.4751C17.218 20.564 17.4555 20.6081 17.6947 20.6051Z" fill="white" stroke="white" stroke-linecap="round" stroke-linejoin="round"/>
</svg>
