<svg width="24" height="24" viewBox="0 0 24 24" fill="none" xmlns="http://www.w3.org/2000/svg">
<path d="M11.2416 11.4762C12.6682 11.4762 14.0364 10.9243 15.0453 9.94199C16.0541 8.95965 16.6208 7.62732 16.6208 6.2381C16.6208 4.84887 16.0541 3.51654 15.0453 2.5342C14.0364 1.55187 12.6682 1 11.2416 1C9.81489 1 8.44665 1.55187 7.43785 2.5342C6.42905 3.51654 5.8623 4.84887 5.8623 6.2381C5.8623 7.62732 6.42905 8.95965 7.43785 9.94199C8.44665 10.9243 9.81489 11.4762 11.2416 11.4762Z" stroke="#222222" stroke-width="1.5" stroke-linecap="round" stroke-linejoin="round"/>
<path d="M2 20.9047C2 16.8505 6.14202 13.5714 11.2415 13.5714C12.2744 13.5714 13.2749 13.7076 14.2109 13.959" stroke="#222222" stroke-width="1.5" stroke-linecap="round" stroke-linejoin="round"/>
<path d="M2.0968 20.9048H11.7794" stroke="#222222" stroke-width="1.5" stroke-linecap="round"/>
<path fill-rule="evenodd" clip-rule="evenodd" d="M17.6966 14.619C17.9126 14.619 18.1248 14.6345 18.3323 14.6645L18.6445 15.5858C18.9183 15.662 19.1782 15.7704 19.4196 15.9066L20.3172 15.4854C20.6348 15.7231 20.9174 16.0031 21.156 16.3167L20.7077 17.183C20.843 17.4201 20.9497 17.6748 21.0231 17.9428L21.9636 18.2624C21.9876 18.4415 22 18.6241 22 18.8095C22 19.0198 21.9841 19.2265 21.9534 19.4285L21.0072 19.7326C20.9289 19.9992 20.8176 20.2523 20.6778 20.4873L21.1103 21.3613C20.8661 21.6706 20.5786 21.9458 20.2566 22.1782L19.3669 21.7416C19.1234 21.8734 18.8618 21.9773 18.5867 22.0488L18.2585 22.9646C18.0746 22.988 17.887 23 17.6966 23C17.4806 23 17.2683 22.9845 17.0609 22.9546L16.7487 22.0332C16.4748 21.957 16.2149 21.8486 15.9736 21.7125L15.076 22.1337C14.7584 21.8959 14.4758 21.6159 14.2371 21.3024L14.6855 20.436C14.5501 20.1988 14.4433 19.9438 14.3699 19.6756L13.4295 19.3561C13.4055 19.1772 13.3932 18.9948 13.3932 18.8095C13.3932 18.5992 13.4091 18.3925 13.4398 18.1905L14.386 17.8865C14.4643 17.6198 14.5756 17.3667 14.7154 17.1317L14.2828 16.2577C14.527 15.9484 14.8145 15.6733 15.1365 15.4409L16.0262 15.8775C16.2699 15.7456 16.5317 15.6416 16.8071 15.5701L17.1353 14.6544C17.319 14.6311 17.5064 14.619 17.6966 14.619V14.619Z" stroke="#222222" stroke-linecap="round" stroke-linejoin="round"/>
<path d="M17.6966 20.6055C18.7152 20.6055 19.5409 19.8014 19.5409 18.8096C19.5409 17.8177 18.7152 17.0137 17.6966 17.0137C16.678 17.0137 15.8523 17.8177 15.8523 18.8096C15.8523 19.8014 16.678 20.6055 17.6966 20.6055Z" stroke="#222222" stroke-linecap="round" stroke-linejoin="round"/>
</svg>
