<svg width="24" height="24" viewBox="0 0 24 24" fill="none" xmlns="http://www.w3.org/2000/svg">
<g clip-path="url(#clip0_1276_2575)">
<g filter="url(#filter0_d_1276_2575)">
<path fill-rule="evenodd" clip-rule="evenodd" d="M12 2C12.5019 2 12.9952 2.03697 13.4772 2.10835L14.2027 4.30708C14.8391 4.48895 15.443 4.74764 16.0038 5.07248L18.0896 4.06732C18.8276 4.63475 19.4842 5.30286 20.0389 6.05112L18.997 8.11855C19.3115 8.68433 19.5594 9.29225 19.7301 9.9317L21.9155 10.6943C21.9713 11.1216 22 11.5575 22 12C22 12.5019 21.963 12.9952 21.8917 13.4772L19.6929 14.2027C19.5111 14.8391 19.2524 15.443 18.9275 16.0038L19.9327 18.0896C19.3653 18.8276 18.6971 19.4842 17.9489 20.0389L15.8814 18.997C15.3157 19.3115 14.7078 19.5594 14.0683 19.7301L13.3057 21.9155C12.8784 21.9713 12.4425 22 12 22C11.4981 22 11.0048 21.963 10.5228 21.8917L9.79729 19.6929C9.16093 19.5111 8.557 19.2524 7.99616 18.9275L5.91044 19.9327C5.17238 19.3653 4.51576 18.6971 3.96112 17.9489L5.00302 15.8814C4.68826 15.3152 4.44023 14.7068 4.26956 14.0669L2.08429 13.3043C2.02868 12.8774 2 12.442 2 12C2 11.4981 2.03697 11.0048 2.10835 10.5228L4.30708 9.79729C4.48895 9.16093 4.74764 8.557 5.07248 7.99616L4.06732 5.91044C4.63475 5.17238 5.30286 4.51576 6.05112 3.96112L8.11855 5.00302C8.68475 4.68826 9.29315 4.44023 9.93313 4.26956L10.6957 2.08429C11.1226 2.02868 11.558 2 12 2V2Z" stroke="#098DE6" stroke-width="1.5" stroke-linecap="round" stroke-linejoin="round"/>
<path d="M12.0001 16.2858C14.367 16.2858 16.2858 14.3671 16.2858 12.0001C16.2858 9.6332 14.367 7.71442 12.0001 7.71442C9.63313 7.71442 7.71436 9.6332 7.71436 12.0001C7.71436 14.3671 9.63313 16.2858 12.0001 16.2858Z" stroke="#098DE6" stroke-width="1.5" stroke-linecap="round" stroke-linejoin="round"/>
</g>
</g>
<defs>
<filter id="filter0_d_1276_2575" x="-8.75" y="-4.75" width="41.5" height="41.5" filterUnits="userSpaceOnUse" color-interpolation-filters="sRGB">
<feFlood flood-opacity="0" result="BackgroundImageFix"/>
<feColorMatrix in="SourceAlpha" type="matrix" values="0 0 0 0 0 0 0 0 0 0 0 0 0 0 0 0 0 0 127 0" result="hardAlpha"/>
<feOffset dy="4"/>
<feGaussianBlur stdDeviation="5"/>
<feComposite in2="hardAlpha" operator="out"/>
<feColorMatrix type="matrix" values="0 0 0 0 0.0352941 0 0 0 0 0.552941 0 0 0 0 0.901961 0 0 0 0.3 0"/>
<feBlend mode="normal" in2="BackgroundImageFix" result="effect1_dropShadow_1276_2575"/>
<feBlend mode="normal" in="SourceGraphic" in2="effect1_dropShadow_1276_2575" result="shape"/>
</filter>
<clipPath id="clip0_1276_2575">
<rect width="24" height="24" fill="white"/>
</clipPath>
</defs>
</svg>
