<svg width="24" height="24" viewBox="0 0 24 24" fill="none" xmlns="http://www.w3.org/2000/svg">
<path d="M7.99755 2L3.99755 2.0049C2.89394 2.00626 2 2.90136 2 4.00507V7.99885C2 9.02461 2.77208 9.87002 3.76676 9.98556L4.00245 9.99902L8.00245 9.99411C9.10606 9.99276 10 9.09765 10 7.99395V4.00016C10 2.97441 9.22792 2.12899 8.23324 2.01346L7.99755 2ZM19.9975 2L15.9975 2.0049C14.8939 2.00626 14 2.90136 14 4.00507V7.99885C14 9.02461 14.7721 9.87002 15.7668 9.98556L16.0025 9.99902L20.0025 9.99411C21.1061 9.99276 22 9.09765 22 7.99395V4.00016C22 2.97441 21.2279 2.12899 20.2332 2.01346L19.9975 2ZM7.99755 14.001L3.99755 14.0059C2.89394 14.0072 2 14.9023 2 16.006V19.9998C2 21.0256 2.77208 21.871 3.76676 21.9865L4.00245 22L8.00245 21.9951C9.10606 21.9937 10 21.0986 10 19.9949V16.0011C10 14.9754 9.22792 14.13 8.23324 14.0144L7.99755 14.001ZM19.9975 14.001L15.9975 14.0059C14.8939 14.0072 14 14.9023 14 16.006V19.9998C14 21.0256 14.7721 21.871 15.7668 21.9865L16.0025 22L20.0025 21.9951C21.1061 21.9937 22 21.0986 22 19.9949V16.0011C22 14.9754 21.2279 14.13 20.2332 14.0144L19.9975 14.001Z" fill="white" stroke="white" stroke-width="1.5" stroke-linecap="round" stroke-linejoin="round"/>
</svg>
