<svg width="28" height="28" viewBox="0 0 28 28" fill="none" xmlns="http://www.w3.org/2000/svg">
<g clip-path="url(#clip0_764_2365)">
<g filter="url(#filter0_d_764_2365)">
<path d="M8.79681 1L3.59681 1.00637C2.16212 1.00813 1 2.17177 1 3.60659V8.79851C1 10.132 2.0037 11.231 3.29679 11.3812L3.60319 11.3987L8.80319 11.3923C10.2379 11.3906 11.4 10.227 11.4 8.79214V3.60021C11.4 2.26673 10.3963 1.16769 9.10321 1.01749L8.79681 1ZM24.3968 1L19.1968 1.00637C17.7621 1.00813 16.6 2.17177 16.6 3.60659V8.79851C16.6 10.132 17.6037 11.231 18.8968 11.3812L19.2032 11.3987L24.4032 11.3923C25.8379 11.3906 27 10.227 27 8.79214V3.60021C27 2.26673 25.9963 1.16769 24.7032 1.01749L24.3968 1ZM8.79681 16.6013L3.59681 16.6077C2.16212 16.6094 1 17.7731 1 19.2079V24.3998C1 25.7333 2.0037 26.8323 3.29679 26.9825L3.60319 27L8.80319 26.9936C10.2379 26.9919 11.4 25.8282 11.4 24.3934V19.2015C11.4 17.868 10.3963 16.769 9.10321 16.6188L8.79681 16.6013ZM24.3968 16.6013L19.1968 16.6077C17.7621 16.6094 16.6 17.7731 16.6 19.2079V24.3998C16.6 25.7333 17.6037 26.8323 18.8968 26.9825L19.2032 27L24.4032 26.9936C25.8379 26.9919 27 25.8282 27 24.3934V19.2015C27 17.868 25.9963 16.769 24.7032 16.6188L24.3968 16.6013Z" fill="#098DE6"/>
<path d="M8.79681 1L3.59681 1.00637C2.16212 1.00813 1 2.17177 1 3.60659V8.79851C1 10.132 2.0037 11.231 3.29679 11.3812L3.60319 11.3987L8.80319 11.3923C10.2379 11.3906 11.4 10.227 11.4 8.79214V3.60021C11.4 2.26673 10.3963 1.16769 9.10321 1.01749L8.79681 1ZM24.3968 1L19.1968 1.00637C17.7621 1.00813 16.6 2.17177 16.6 3.60659V8.79851C16.6 10.132 17.6037 11.231 18.8968 11.3812L19.2032 11.3987L24.4032 11.3923C25.8379 11.3906 27 10.227 27 8.79214V3.60021C27 2.26673 25.9963 1.16769 24.7032 1.01749L24.3968 1ZM8.79681 16.6013L3.59681 16.6077C2.16212 16.6094 1 17.7731 1 19.2079V24.3998C1 25.7333 2.0037 26.8323 3.29679 26.9825L3.60319 27L8.80319 26.9936C10.2379 26.9919 11.4 25.8282 11.4 24.3934V19.2015C11.4 17.868 10.3963 16.769 9.10321 16.6188L8.79681 16.6013ZM24.3968 16.6013L19.1968 16.6077C17.7621 16.6094 16.6 17.7731 16.6 19.2079V24.3998C16.6 25.7333 17.6037 26.8323 18.8968 26.9825L19.2032 27L24.4032 26.9936C25.8379 26.9919 27 25.8282 27 24.3934V19.2015C27 17.868 25.9963 16.769 24.7032 16.6188L24.3968 16.6013Z" stroke="#098DE6" stroke-linecap="round" stroke-linejoin="round"/>
</g>
</g>
<defs>
<filter id="filter0_d_764_2365" x="-9.5" y="-5.5" width="47" height="47" filterUnits="userSpaceOnUse" color-interpolation-filters="sRGB">
<feFlood flood-opacity="0" result="BackgroundImageFix"/>
<feColorMatrix in="SourceAlpha" type="matrix" values="0 0 0 0 0 0 0 0 0 0 0 0 0 0 0 0 0 0 127 0" result="hardAlpha"/>
<feOffset dy="4"/>
<feGaussianBlur stdDeviation="5"/>
<feComposite in2="hardAlpha" operator="out"/>
<feColorMatrix type="matrix" values="0 0 0 0 0.0352941 0 0 0 0 0.552941 0 0 0 0 0.901961 0 0 0 0.3 0"/>
<feBlend mode="normal" in2="BackgroundImageFix" result="effect1_dropShadow_764_2365"/>
<feBlend mode="normal" in="SourceGraphic" in2="effect1_dropShadow_764_2365" result="shape"/>
</filter>
<clipPath id="clip0_764_2365">
<rect width="28" height="28" fill="white"/>
</clipPath>
</defs>
</svg>
