<svg width="34" height="31" viewBox="0 0 34 31" fill="none" xmlns="http://www.w3.org/2000/svg">
<path d="M12.4065 23.0405L12.1243 23.2194L10.7133 24.0418L12.1243 23.1837L12.4065 23.0405Z" fill="black"/>
<path d="M20.4138 18.7853C20.4138 20.7799 18.819 22.397 16.8513 22.397C14.8836 22.397 13.2887 20.7799 13.2887 18.7853C13.2887 16.7908 14.8836 15.1737 16.8513 15.1737C18.819 15.1737 20.4138 16.7908 20.4138 18.7853Z" fill="white"/>
<path d="M20.061 13.1713C19.92 13.0997 19.814 13.0284 19.673 12.9568V14.6018C20.978 15.4958 21.754 16.926 21.8599 18.4637L23.2707 19.2861C23.4119 16.8544 22.2479 14.4586 20.061 13.1713Z" fill="white"/>
<path d="M11.8423 18.4276C11.9129 17.6765 12.1245 16.9257 12.5125 16.2463C12.9006 15.5669 13.4296 14.9947 14.0646 14.5657V12.9207C12.9357 13.4569 11.9835 14.3509 11.3133 15.531C10.643 16.7111 10.3962 17.9984 10.4667 19.2497L11.8423 18.4276Z" fill="white"/>
<path d="M14.0292 9.88142C14.1702 9.98868 14.2762 10.0603 14.4172 10.1319C14.7346 10.3107 15.0875 10.4536 15.44 10.5609V13.8863C16.3571 13.6359 17.3095 13.6002 18.262 13.8863V10.5609C18.7558 10.418 19.2496 10.1675 19.6728 9.8814C20.2372 9.48805 20.6956 8.95174 21.0485 8.34391C22.3889 5.98378 21.5775 2.98012 19.2848 1.65706C16.9567 0.298166 13.9938 1.12078 12.6886 3.44498C11.419 5.626 12.0186 8.41517 14.0291 9.88153L14.0292 9.88142Z" fill="white"/>
<path d="M12.1244 23.1835L12.4067 23.0047L13.3591 22.4325C12.6537 21.753 12.1951 20.895 11.9483 19.9651L10.9956 20.573L10.7134 20.7518L9.30255 21.5742L9.12614 21.6814C8.8791 21.431 8.5617 21.2165 8.2443 21.002C5.91618 19.6431 2.95326 20.4657 1.64814 22.7899C0.307686 25.15 1.11914 28.1537 3.41182 29.4767C5.73994 30.8356 8.70285 30.013 10.008 27.6888C10.6428 26.5804 10.784 25.293 10.537 24.113L10.7134 24.0057L12.1244 23.1835Z" fill="white"/>
<path d="M30.2904 21.0023C28.3857 19.8938 26.0576 20.2156 24.5761 21.6817L24.0117 21.36L22.9889 20.7521L22.5657 20.5017L21.7545 20.0367C21.6487 20.5017 21.4722 20.9307 21.2255 21.3597C20.9784 21.7888 20.6965 22.1821 20.3436 22.5041L21.1549 22.9691L21.5781 23.2195L22.6009 23.8274L23.1653 24.1492C22.7067 26.1875 23.5533 28.4045 25.458 29.5129C27.7861 30.8718 30.749 30.0492 32.0541 27.725C33.3946 25.3649 32.6185 22.361 30.2904 21.0024L30.2904 21.0023Z" fill="white"/>
<path d="M14.6641 23.3623L13.2533 24.1847C13.3943 24.2563 13.5003 24.3635 13.6413 24.4351C15.8282 25.7224 18.4737 25.5436 20.4491 24.1847L19.0383 23.3623C17.6978 24.0418 16.0751 24.0777 14.6643 23.3623H14.6641Z" fill="white"/>
</svg>
