<svg width="34" height="31" viewBox="0 0 34 31" fill="none" xmlns="http://www.w3.org/2000/svg">
<g clip-path="url(#clip0_768_2413)">
<path d="M12.4237 23.0536L12.1411 23.1967L10.7278 24.0544L12.1411 23.2324L12.4237 23.0536Z" fill="#222222"/>
<path d="M16.8748 15.9049C17.8991 15.9049 18.853 16.4768 19.3831 17.3704C20.1603 18.7644 19.701 20.5516 18.3232 21.3379C17.8994 21.5883 17.4048 21.7311 16.8748 21.7311C15.8504 21.7311 14.8965 21.1592 14.3664 20.2656C13.5892 18.8716 14.0485 17.0844 15.4263 16.2981C15.8856 16.048 16.3802 15.9049 16.8748 15.9049ZM16.8748 15.1901C16.2742 15.1901 15.6382 15.3329 15.0732 15.6905C13.3775 16.6913 12.777 18.9072 13.7661 20.6231C14.4374 21.8026 15.6385 22.446 16.875 22.446C17.4755 22.446 18.1115 22.3031 18.6766 21.9456C20.3722 20.9448 20.9727 18.7288 19.9836 17.0129C19.3123 15.8336 18.1113 15.1901 16.8748 15.1901Z" fill="#222222" stroke="#222222" stroke-width="0.3"/>
<path d="M19.7012 12.974V14.6183C21.0082 15.5119 21.7854 16.9415 21.8914 18.4786L23.3043 19.3006C23.481 16.9058 22.3152 14.5111 20.0895 13.2243C19.9483 13.0812 19.8071 13.0097 19.7012 12.974Z" fill="#222222"/>
<path d="M14.049 12.974C12.9184 13.51 11.9647 14.4036 11.2935 15.5832C10.6222 16.7628 10.375 18.0496 10.4456 19.3004L11.8585 18.4784C11.9292 17.7276 12.1412 16.9771 12.5298 16.298C12.9184 15.6188 13.4482 15.0469 14.0842 14.6181L14.0845 12.974H14.049Z" fill="#222222"/>
<path d="M16.875 1.71484C17.5815 1.71484 18.3235 1.89361 18.924 2.2868C20.9022 3.43071 21.5735 6.00399 20.4429 8.00587C20.125 8.54192 19.7365 8.97101 19.2419 9.32832C18.8885 9.57864 18.4647 9.79306 18.0408 9.93592L17.5815 10.079V13.0456C17.3341 13.0099 17.1222 13.0099 16.875 13.0099C16.6276 13.0099 16.4157 13.0099 16.1685 13.0456V10.0434L15.674 9.90056C15.3561 9.79335 15.0735 9.68613 14.8261 9.50737C14.6849 9.43581 14.5787 9.3645 14.4727 9.29294C12.7416 8.0418 12.2118 5.68292 13.3069 3.78858C14.0136 2.50131 15.3914 1.71495 16.8751 1.71495M16.8751 1.00015C15.2147 1.00015 13.5543 1.89373 12.6711 3.46651C11.3993 5.68254 12.0353 8.47046 14.0488 9.90033C14.19 10.0075 14.2962 10.0791 14.4374 10.1507C14.7553 10.3294 15.1087 10.4723 15.4618 10.5795V13.9035C15.9211 13.7606 16.3802 13.6891 16.8748 13.6891C17.3341 13.6891 17.8286 13.7606 18.2877 13.9035V11.4015L18.288 10.5795C18.7825 10.4366 19.2771 10.1863 19.7009 9.90031C20.2662 9.50712 20.7253 8.97104 21.0787 8.36347C22.4212 6.00434 21.6085 3.00195 19.3123 1.67944C18.5354 1.21445 17.6874 1 16.8749 1L16.8751 1.00015Z" fill="#222222"/>
<path d="M16.875 1.71484C17.5815 1.71484 18.3235 1.89361 18.924 2.2868C20.9022 3.43071 21.5735 6.00399 20.4429 8.00587C20.125 8.54192 19.7365 8.97101 19.2419 9.32832C18.8885 9.57864 18.4647 9.79306 18.0408 9.93592L17.5815 10.079V13.0456C17.3341 13.0099 17.1222 13.0099 16.875 13.0099C16.6276 13.0099 16.4157 13.0099 16.1685 13.0456V10.0434L15.674 9.90056C15.3561 9.79335 15.0735 9.68613 14.8261 9.50737C14.6849 9.43581 14.5787 9.3645 14.4727 9.29294C12.7416 8.0418 12.2118 5.68292 13.3069 3.78858C14.0136 2.50131 15.3914 1.71495 16.8751 1.71495M16.8751 1.00015C15.2147 1.00015 13.5543 1.89373 12.6711 3.46651C11.3993 5.68254 12.0353 8.47046 14.0488 9.90033C14.19 10.0075 14.2962 10.0791 14.4374 10.1507C14.7553 10.3294 15.1087 10.4723 15.4618 10.5795V13.9035C15.9211 13.7606 16.3802 13.6891 16.8748 13.6891C17.3341 13.6891 17.8286 13.7606 18.2877 13.9035V11.4015L18.288 10.5795C18.7825 10.4366 19.2771 10.1863 19.7009 9.90031C20.2662 9.50712 20.7253 8.97104 21.0787 8.36347C22.4212 6.00434 21.6085 3.00195 19.3123 1.67944C18.5354 1.21445 17.6874 1 16.8749 1L16.8751 1.00015Z" stroke="#222222" stroke-width="0.8"/>
<path d="M5.8176 21.0877C6.52408 21.0877 7.26607 21.2665 7.86657 21.6597C8.14922 21.8025 8.39637 22.0172 8.60856 22.2316L8.99717 22.5892L9.4565 22.3388L9.63318 22.2316L11.0461 21.4096L11.1873 21.3024L11.3285 21.2308L11.5405 21.088C11.7171 21.5168 11.9643 21.9459 12.2469 22.3032L12.035 22.446L11.7524 22.6248L10.3394 23.4468L10.1627 23.554L9.73888 23.8044L9.84484 24.3048C10.0923 25.3412 9.91557 26.4136 9.38552 27.3431C8.64352 28.6298 7.26577 29.4519 5.7821 29.4519C5.07562 29.4519 4.33363 29.2731 3.73313 28.8799C2.77924 28.308 2.10797 27.4144 1.79009 26.342C1.50744 25.2697 1.64889 24.126 2.21394 23.1609C2.99163 21.8741 4.36939 21.0877 5.8176 21.0877ZM11.9998 20.0156L11.0107 20.5873L10.728 20.7661L9.31507 21.5881L9.13839 21.6953C8.89098 21.445 8.5731 21.2306 8.25521 21.0162C7.47802 20.5873 6.66556 20.3729 5.8531 20.3729C4.19273 20.3729 2.5323 21.2665 1.64913 22.8393C0.306637 25.1984 1.11932 28.2008 3.41547 29.5233C4.19267 29.9521 5.00513 30.1665 5.81758 30.1665C7.47795 30.1665 9.13839 29.2729 10.0216 27.7002C10.6573 26.5922 10.7988 25.3054 10.5514 24.1258L10.7281 24.0186L12.141 23.1966L12.4237 23.0178L13.3775 22.4459C12.7065 21.8029 12.2118 20.9448 11.9998 20.0156Z" fill="#222222" stroke="#222222" stroke-width="0.8"/>
<path d="M27.9323 21.0877C28.6388 21.0877 29.3808 21.2665 29.9813 21.6597C31.9596 22.8036 32.6308 25.3769 31.5002 27.3788C30.7583 28.6655 29.3805 29.4876 27.8968 29.4876C27.1904 29.4876 26.4484 29.3088 25.8479 28.9156C24.2934 27.9863 23.481 26.1276 23.8696 24.3404L23.9756 23.8401L23.5163 23.5897L22.951 23.2681L21.9266 22.6605L21.5028 22.4102L21.432 22.3745C21.5732 22.1957 21.7147 21.9813 21.8206 21.7669C21.9266 21.5525 22.0326 21.3381 22.1385 21.1236L22.2093 21.1593L22.6331 21.4096L23.6575 22.0172L24.2227 22.3389L24.6821 22.5892L25.0707 22.2317C25.8479 21.4809 26.8725 21.0877 27.9323 21.0877ZM21.7501 20.0156C21.6442 20.4804 21.4675 20.9092 21.2203 21.3381C20.9729 21.7669 20.6905 22.1601 20.3372 22.482L21.1496 22.9467L21.5735 23.1971L22.5978 23.8047L23.1631 24.1263C22.7038 26.1638 23.5517 28.3798 25.4592 29.4878C26.2364 29.9167 27.0489 30.1311 27.8613 30.1311C29.5217 30.1311 31.1821 29.2375 32.0653 27.6647C33.4078 25.3056 32.5951 22.3032 30.299 20.9807C29.5218 20.5518 28.7093 20.3374 27.8969 20.3374C26.6603 20.3374 25.4948 20.8022 24.5761 21.6599L24.0108 21.3382L22.9864 20.7306L22.5626 20.4803L21.7501 20.0156Z" fill="#222222" stroke="#222222" stroke-width="0.8"/>
<path d="M14.6847 23.375L13.2717 24.197C13.4129 24.2686 13.5191 24.3758 13.6603 24.4474C14.6847 25.055 15.7801 25.3053 16.8752 25.3053C18.1469 25.3053 19.4187 24.9121 20.4786 24.1973L19.0656 23.3753C18.3943 23.6969 17.6172 23.8757 16.8754 23.8757C16.1329 23.8757 15.3912 23.7325 14.6847 23.375Z" fill="#222222"/>
</g>
<defs>
<clipPath id="clip0_768_2413">
<rect width="34" height="31" fill="white"/>
</clipPath>
</defs>
</svg>
