<svg width="28" height="28" viewBox="0 0 28 28" fill="none" xmlns="http://www.w3.org/2000/svg">
<g clip-path="url(#clip0_1133_2421)">
<mask id="mask0_1133_2421" style="mask-type:luminance" maskUnits="userSpaceOnUse" x="0" y="0" width="28" height="28">
<path d="M28 0H0V28H28V0Z" fill="white"/>
</mask>
<g mask="url(#mask0_1133_2421)">
<path fill-rule="evenodd" clip-rule="evenodd" d="M27 23.9956C27 25.6549 25.6735 27 24.0372 27H3.96279C2.32649 27 1 25.6549 1 23.9956V4.00444C1 2.34514 2.32649 1 3.96279 1H9.55581L12.5186 5.50667H24.0372C25.6735 5.50667 27 6.8518 27 8.51111V23.9956Z" stroke="#222222" stroke-width="1.5" stroke-linecap="round" stroke-linejoin="round"/>
<path d="M18.6799 20.76H12.4399" stroke="#222222" stroke-width="1.5" stroke-linecap="round" stroke-linejoin="round"/>
<path d="M8.31991 18.6799H6.15991C5.60763 18.6799 5.15991 19.1276 5.15991 19.6799V21.8399C5.15991 22.3922 5.60763 22.8399 6.15991 22.8399H8.31991C8.8722 22.8399 9.31991 22.3922 9.31991 21.8399V19.6799C9.31991 19.1276 8.8722 18.6799 8.31991 18.6799Z" fill="#222222"/>
<path d="M22.3199 12.4399H12.4399" stroke="#222222" stroke-width="1.5" stroke-linecap="round" stroke-linejoin="round"/>
<path d="M8.31991 10.3601H6.15991C5.60763 10.3601 5.15991 10.8078 5.15991 11.3601V13.5201C5.15991 14.0724 5.60763 14.5201 6.15991 14.5201H8.31991C8.8722 14.5201 9.31991 14.0724 9.31991 13.5201V11.3601C9.31991 10.8078 8.8722 10.3601 8.31991 10.3601Z" fill="#222222"/>
</g>
</g>
<defs>
<clipPath id="clip0_1133_2421">
<rect width="28" height="28" fill="white"/>
</clipPath>
</defs>
</svg>
