<svg width="28" height="28" viewBox="0 0 28 28" fill="none" xmlns="http://www.w3.org/2000/svg">
<g clip-path="url(#clip0_769_2464)">
<g filter="url(#filter0_d_769_2464)">
<path d="M3.16667 21.2223L24.8333 21.2223C26.03 21.2223 27 20.2163 27 18.9754L27 3.24698C27 2.00604 26.03 1.00006 24.8333 1.00006L3.16667 1.00006C1.97005 1.00006 1 2.00604 1 3.24698L1 18.9754C1 20.2163 1.97005 21.2223 3.16667 21.2223Z" fill="#098DE6" stroke="#098DE6" stroke-width="1.5"/>
<path d="M10.5786 21.2223L7.8418 27.0001" stroke="#098DE6" stroke-width="1.5"/>
<path d="M17.4198 21.2223L20.1566 27.0001" stroke="#098DE6" stroke-width="1.5"/>
<path d="M6.47253 26.9996H21.5252" stroke="#098DE6" stroke-width="1.5" stroke-linecap="round"/>
<path d="M12.5442 15.9728L9.73036 16.9167C9.59244 16.9167 9.46016 16.8564 9.36264 16.7492C9.26512 16.642 9.21033 16.4966 9.21033 16.345C9.54785 15.4861 10.2241 13.7456 10.2241 13.7456L18.0246 5.17055C18.0729 5.11653 18.1306 5.07364 18.1942 5.04436C18.2578 5.01508 18.3261 5 18.3951 5C18.464 5 18.5323 5.01508 18.5959 5.04436C18.6595 5.07364 18.7172 5.11653 18.7656 5.17055L20.3447 6.58311C20.3938 6.6363 20.4328 6.69971 20.4595 6.76963C20.4861 6.83956 20.4998 6.91461 20.4998 6.99042C20.4998 7.06623 20.4861 7.14129 20.4595 7.21121C20.4328 7.28114 20.3938 7.34455 20.3447 7.39774L12.5442 15.9728Z" stroke="white" stroke-width="1.5"/>
</g>
</g>
<defs>
<filter id="filter0_d_769_2464" x="-9.75" y="-5.74988" width="47.5" height="47.4995" filterUnits="userSpaceOnUse" color-interpolation-filters="sRGB">
<feFlood flood-opacity="0" result="BackgroundImageFix"/>
<feColorMatrix in="SourceAlpha" type="matrix" values="0 0 0 0 0 0 0 0 0 0 0 0 0 0 0 0 0 0 127 0" result="hardAlpha"/>
<feOffset dy="4"/>
<feGaussianBlur stdDeviation="5"/>
<feComposite in2="hardAlpha" operator="out"/>
<feColorMatrix type="matrix" values="0 0 0 0 0.0352941 0 0 0 0 0.552941 0 0 0 0 0.901961 0 0 0 0.29 0"/>
<feBlend mode="normal" in2="BackgroundImageFix" result="effect1_dropShadow_769_2464"/>
<feBlend mode="normal" in="SourceGraphic" in2="effect1_dropShadow_769_2464" result="shape"/>
</filter>
<clipPath id="clip0_769_2464">
<rect width="28" height="28" fill="white"/>
</clipPath>
</defs>
</svg>
