<svg width="28" height="28" viewBox="0 0 28 28" fill="none" xmlns="http://www.w3.org/2000/svg">
<g clip-path="url(#clip0_769_2446)">
<path d="M3.16667 21.2223L24.8333 21.2223C26.03 21.2223 27 20.2163 27 18.9754L27 3.24698C27 2.00604 26.03 1.00006 24.8333 1.00006L3.16667 1.00006C1.97005 1.00006 1 2.00604 1 3.24698L1 18.9754C1 20.2163 1.97005 21.2223 3.16667 21.2223Z" stroke="#222222" stroke-width="1.5"/>
<path d="M10.5786 21.2223L7.84174 27.0001" stroke="#222222" stroke-width="1.5"/>
<path d="M17.4198 21.2223L20.1566 27.0001" stroke="#222222" stroke-width="1.5"/>
<path d="M6.47253 26.9996H21.5252" stroke="#222222" stroke-width="1.5" stroke-linecap="round"/>
<path d="M12.5443 15.9728L9.73042 16.9167C9.5925 16.9167 9.46023 16.8564 9.3627 16.7492C9.26518 16.642 9.21039 16.4966 9.21039 16.345C9.54791 15.4861 10.2242 13.7456 10.2242 13.7456L18.0246 5.17055C18.073 5.11653 18.1307 5.07364 18.1943 5.04436C18.2579 5.01508 18.3262 5 18.3951 5C18.4641 5 18.5324 5.01508 18.596 5.04436C18.6596 5.07364 18.7173 5.11653 18.7657 5.17055L20.3447 6.58311C20.3939 6.6363 20.4329 6.69971 20.4595 6.76963C20.4861 6.83956 20.4999 6.91461 20.4999 6.99042C20.4999 7.06623 20.4861 7.14129 20.4595 7.21121C20.4329 7.28114 20.3939 7.34455 20.3447 7.39774L12.5443 15.9728Z" stroke="#222222" stroke-width="1.5"/>
</g>
<defs>
<clipPath id="clip0_769_2446">
<rect width="28" height="28" fill="white"/>
</clipPath>
</defs>
</svg>
