<svg width="24" height="24" viewBox="0 0 24 24" fill="none" xmlns="http://www.w3.org/2000/svg">
<path d="M3.66667 17.5556L20.3333 17.5556C21.2538 17.5556 22 16.7818 22 15.8272V3.72844C22 2.77387 21.2538 2.00004 20.3333 2.00004L3.66667 2.00004C2.74619 2.00004 2 2.77387 2 3.72844V15.8272C2 16.7818 2.74619 17.5556 3.66667 17.5556Z" stroke="#222222" stroke-width="1.5"/>
<path d="M9.3682 17.5556L7.26294 22" stroke="#222222" stroke-width="1.5"/>
<path d="M14.6306 17.5556L16.7359 22" stroke="#222222" stroke-width="1.5"/>
<path d="M6.20959 21.9997H17.7885" stroke="#222222" stroke-width="1.5" stroke-linecap="round"/>
<path d="M10.8802 13.5176L8.7157 14.2436C8.6096 14.2436 8.50786 14.1973 8.43284 14.1148C8.35782 14.0323 8.31567 13.9205 8.31567 13.8039C8.57531 13.1432 9.09551 11.8043 9.09551 11.8043L15.0959 5.20812C15.1331 5.16657 15.1774 5.13358 15.2264 5.11106C15.2753 5.08853 15.3278 5.07693 15.3809 5.07693C15.4339 5.07693 15.4864 5.08853 15.5354 5.11106C15.5843 5.13358 15.6287 5.16657 15.6659 5.20812L16.8805 6.29471C16.9183 6.33563 16.9484 6.3844 16.9688 6.43819C16.9893 6.49198 16.9999 6.54971 16.9999 6.60803C16.9999 6.66635 16.9893 6.72408 16.9688 6.77787C16.9484 6.83166 16.9183 6.88043 16.8805 6.92135L10.8802 13.5176Z" stroke="#222222" stroke-width="1.5"/>
</svg>
