<svg width="30" height="30" viewBox="0 0 30 30" fill="none" xmlns="http://www.w3.org/2000/svg">
<g clip-path="url(#clip0_846_2363)">
<path d="M19.7827 14.3434C20.023 14.4345 20.2159 14.5022 20.4045 14.5798C20.781 14.7355 21.1631 14.8808 21.5298 15.0587C22.1226 15.3468 22.3562 16.0141 22.09 16.6008C21.8318 17.1702 21.1748 17.4448 20.5795 17.1832C19.5424 16.7282 18.4836 16.3466 17.3664 16.1477C14.5303 15.6436 11.8145 16.0191 9.23608 17.3038C7.0379 18.399 5.29389 20.0051 3.99544 22.0858C3.20293 23.3558 2.66309 24.7323 2.35804 26.1974C2.21569 26.8807 2.66494 27.5129 3.35638 27.6256C3.5012 27.649 3.65033 27.6502 3.79762 27.6502C8.47932 27.6514 13.1604 27.6508 17.8421 27.6514C18.5071 27.6514 18.9569 27.9605 19.1098 28.5164C19.3008 29.2101 18.8176 29.9162 18.1009 29.987C18.0233 29.995 17.945 29.9944 17.8668 29.9944C13.116 29.9944 8.3647 29.9981 3.61397 29.9932C1.48296 29.9913 -0.150124 28.3212 0.0119516 26.214C0.0735773 25.415 0.331789 24.6165 0.593082 23.8495C1.45769 21.3077 2.925 19.1586 4.93893 17.3783C6.40808 16.0794 8.06889 15.1135 9.91581 14.461C9.99654 14.4327 10.0748 14.3976 10.19 14.3508C7.72379 12.2861 6.62685 9.69994 7.16485 6.5216C7.48653 4.62002 8.44419 3.04593 9.93615 1.82581C13.1173 -0.776327 17.6166 -0.58426 20.5869 2.31891C22.3032 3.9958 23.0877 6.08145 22.9318 8.48967C22.7765 10.8942 21.6808 12.8118 19.7833 14.3434H19.7827ZM20.619 7.9855C20.6276 4.89888 18.1083 2.36815 15.011 2.35215C11.9156 2.33614 9.36611 4.87426 9.3655 7.9738C9.36488 11.0087 11.8817 13.5604 14.8563 13.5961C18.0412 13.6349 20.6011 11.1121 20.6196 7.98488L20.619 7.9855Z" fill="#098DE6"/>
<path d="M25.6073 23.261C25.8298 23.261 26.0104 23.261 26.1915 23.261C27.034 23.261 27.8764 23.2586 28.7188 23.2616C29.4786 23.2647 30.0031 23.7486 29.9994 24.4362C29.9957 25.1208 29.4682 25.6015 28.7065 25.604C27.7772 25.6071 26.8478 25.6046 25.9185 25.6046C25.8255 25.6046 25.7324 25.6046 25.6067 25.6046C25.6067 25.7339 25.6067 25.8355 25.6067 25.9364C25.6067 26.8906 25.6141 27.8454 25.603 28.7996C25.5968 29.3142 25.354 29.702 24.8721 29.9021C24.4223 30.0886 24.0007 30.0025 23.6378 29.6787C23.3611 29.4318 23.2594 29.1086 23.26 28.7442C23.2618 27.8072 23.26 26.8703 23.26 25.9333C23.26 25.8392 23.26 25.745 23.26 25.6219C23.1411 25.6157 23.0412 25.6052 22.942 25.6052C21.9868 25.604 21.031 25.6139 20.0758 25.6009C19.2297 25.5892 18.675 24.8456 18.9185 24.0761C19.0775 23.5725 19.5107 23.2653 20.0931 23.2623C21.0483 23.2567 22.0041 23.253 22.9593 23.266C23.1941 23.269 23.2699 23.2099 23.2662 22.9655C23.252 21.9941 23.2501 21.0221 23.2643 20.0507C23.2766 19.2252 24.0266 18.6822 24.7883 18.9248C25.2869 19.0836 25.6005 19.5237 25.6042 20.1012C25.6104 21.0467 25.6061 21.9923 25.6061 22.9385C25.6061 23.0326 25.6061 23.1274 25.6061 23.2616L25.6073 23.261Z" fill="#098DE6"/>
</g>
<defs>
<clipPath id="clip0_846_2363">
<rect width="30" height="30" fill="white"/>
</clipPath>
</defs>
</svg>
