<svg width="20" height="22" viewBox="0 0 20 22" fill="none" xmlns="http://www.w3.org/2000/svg">
<path d="M0.870361 4.96289H2.87036H18.8704" stroke="#098DE6" stroke-width="1.5" stroke-linecap="round" stroke-linejoin="round"/>
<path d="M17.6204 4.96289C17.6204 4.54868 17.2846 4.21289 16.8704 4.21289C16.4561 4.21289 16.1204 4.54868 16.1204 4.96289H17.6204ZM3.62036 4.96289C3.62036 4.54868 3.28457 4.21289 2.87036 4.21289C2.45615 4.21289 2.12036 4.54868 2.12036 4.96289H3.62036ZM5.12036 4.96289C5.12036 5.3771 5.45615 5.71289 5.87036 5.71289C6.28457 5.71289 6.62036 5.3771 6.62036 4.96289H5.12036ZM13.1204 4.96289C13.1204 5.3771 13.4561 5.71289 13.8704 5.71289C14.2846 5.71289 14.6204 5.3771 14.6204 4.96289H13.1204ZM16.1204 4.96289V18.9629H17.6204V4.96289H16.1204ZM16.1204 18.9629C16.1204 19.6532 15.5607 20.2129 14.8704 20.2129V21.7129C16.3891 21.7129 17.6204 20.4817 17.6204 18.9629H16.1204ZM14.8704 20.2129H4.87036V21.7129H14.8704V20.2129ZM4.87036 20.2129C4.18001 20.2129 3.62036 19.6532 3.62036 18.9629H2.12036C2.12036 20.4817 3.35158 21.7129 4.87036 21.7129V20.2129ZM3.62036 18.9629V4.96289H2.12036V18.9629H3.62036ZM6.62036 4.96289V2.96289H5.12036V4.96289H6.62036ZM6.62036 2.96289C6.62036 2.27253 7.18001 1.71289 7.87036 1.71289V0.212891C6.35158 0.212891 5.12036 1.44411 5.12036 2.96289H6.62036ZM7.87036 1.71289H11.8704V0.212891H7.87036V1.71289ZM11.8704 1.71289C12.5607 1.71289 13.1204 2.27253 13.1204 2.96289H14.6204C14.6204 1.44411 13.3891 0.212891 11.8704 0.212891V1.71289ZM13.1204 2.96289V4.96289H14.6204V2.96289H13.1204Z" fill="#098DE6"/>
<path d="M7.87036 9.96289V15.9629" stroke="#098DE6" stroke-width="1.5" stroke-linecap="round" stroke-linejoin="round"/>
<path d="M11.8704 9.96289V15.9629" stroke="#098DE6" stroke-width="1.5" stroke-linecap="round" stroke-linejoin="round"/>
</svg>
