<svg xmlns="http://www.w3.org/2000/svg" xmlns:xlink="http://www.w3.org/1999/xlink" width="15" height="15" viewBox="0 0 15 15">
  <defs>
    <clipPath id="clip-rename">
      <rect width="15" height="15"/>
    </clipPath>
  </defs>
  <g id="rename" clip-path="url(#clip-rename)">
    <path id="Rename_icon-icons.com_55827" d="M8.527,4v.941a3.57,3.57,0,0,1,1.529.294,1.367,1.367,0,0,1,.338.221c.01.01.01.008.015.015v8.35c0,.007,0,0-.015.015a1.367,1.367,0,0,1-.338.22,3.571,3.571,0,0,1-1.529.294v.941a4.446,4.446,0,0,0,1.94-.4,2.412,2.412,0,0,0,.412-.265,2.412,2.412,0,0,0,.412.265,4.446,4.446,0,0,0,1.94.4v-.941a3.571,3.571,0,0,1-1.529-.294,1.366,1.366,0,0,1-.338-.22c-.01-.01-.01-.008-.015-.015V5.47c0-.007,0,0,.015-.015a1.366,1.366,0,0,1,.338-.221,3.57,3.57,0,0,1,1.529-.294V4a4.446,4.446,0,0,0-1.94.4,2.408,2.408,0,0,0-.412.265,2.408,2.408,0,0,0-.412-.265A4.446,4.446,0,0,0,8.527,4ZM1,6.823v5.645H9.468v-.941H1.941V7.763H9.468V6.823H1Zm11.29,0v.941h1.882v3.763H12.29v.941h2.823V6.823H12.29ZM2.882,8.7v1.882H6.645V8.7Z" transform="translate(-0.556 -2)" fill="#232832"/>
  </g>
</svg>
