<svg xmlns="http://www.w3.org/2000/svg" width="140" height="140" viewBox="0 0 140 140">
  <g id="Group_204" data-name="Group 204" transform="translate(-745 -430)">
    <g id="Ellipse_20" data-name="Ellipse 20" transform="translate(745 430)" fill="#fff" stroke="#0062cf" stroke-width="2">
      <circle cx="70" cy="70" r="70" stroke="none"/>
      <circle cx="70" cy="70" r="69" fill="none"/>
    </g>
    <g id="iconfinder_Settings_2290860" transform="translate(774.625 458.403)">
      <path id="Path_166" data-name="Path 166" stroke="#0062cf" d="M58.247,162.993a36.331,36.331,0,0,0-3.652.978l-.938-1.625a3.433,3.433,0,0,0-4.674-1.253l-7.155,4.135A3.433,3.433,0,0,0,40.57,169.9l.941,1.633a36.379,36.379,0,0,0-2.671,2.671l-1.636-.943a3.435,3.435,0,0,0-4.674,1.252L28.4,181.674a3.432,3.432,0,0,0,1.252,4.676l1.628.938a36.693,36.693,0,0,0-.975,3.649H28.424A3.433,3.433,0,0,0,25,194.36v8.268a3.434,3.434,0,0,0,3.422,3.422H30.3a36.572,36.572,0,0,0,.978,3.654l-1.623.938a3.429,3.429,0,0,0-1.252,4.677l4.127,7.15a3.433,3.433,0,0,0,4.677,1.253l1.63-.938a36.374,36.374,0,0,0,2.671,2.671l-.941,1.633a3.432,3.432,0,0,0,1.258,4.674l7.155,4.133a3.431,3.431,0,0,0,4.674-1.252l.938-1.622a35.19,35.19,0,0,0,3.652.975v1.876a3.433,3.433,0,0,0,3.424,3.422H69.94a3.431,3.431,0,0,0,3.422-3.422v-1.876a36,36,0,0,0,3.652-.978l.935,1.625a3.434,3.434,0,0,0,4.677,1.252l7.155-4.133a3.431,3.431,0,0,0,1.255-4.674l-.943-1.633a36.809,36.809,0,0,0,2.669-2.669l1.633.943a3.431,3.431,0,0,0,4.674-1.255l4.13-7.155a3.432,3.432,0,0,0-1.253-4.677l-1.622-.938a36.72,36.72,0,0,0,.978-3.654h1.879a3.436,3.436,0,0,0,3.422-3.422v-8.268a3.434,3.434,0,0,0-3.422-3.422H101.3a36.874,36.874,0,0,0-.978-3.654l1.627-.938a3.436,3.436,0,0,0,1.252-4.677l-4.133-7.153a3.434,3.434,0,0,0-4.674-1.252l-1.633.943a36.327,36.327,0,0,0-2.671-2.671l.943-1.633a3.431,3.431,0,0,0-1.255-4.674l-7.155-4.135a3.437,3.437,0,0,0-4.677,1.253l-.938,1.625a35.945,35.945,0,0,0-3.654-.978v-1.876a3.433,3.433,0,0,0-3.424-3.422h-8.26a3.433,3.433,0,0,0-3.424,3.422v1.876Zm7.554,60.1a24.6,24.6,0,1,1,24.6-24.6A24.593,24.593,0,0,1,65.8,223.092Z" fill="none" transform="translate(-25.002 -157.695)" stroke-linecap="round" stroke-linejoin="round" stroke-miterlimit="2.613" stroke-width="2" fill-rule="evenodd"/>
    </g>
    <g id="Group_92" data-name="Group 92" transform="translate(795.447 477.807)">
      <path id="Path_227" data-name="Path 227" d="M39.862,23.476H38.839V21.43a6.139,6.139,0,0,0-6.14-6.14H24.513V10.63a4.093,4.093,0,1,0-4.093,0v4.66H12.233a6.139,6.139,0,0,0-6.14,6.14v2.047H5.07a3.07,3.07,0,1,0,0,6.14H6.093v2.047a6.139,6.139,0,0,0,6.14,6.14H32.7a6.139,6.139,0,0,0,6.14-6.14V29.616h1.023a3.07,3.07,0,1,0,0-6.14Zm-3.07,8.186A4.1,4.1,0,0,1,32.7,35.756H12.233A4.1,4.1,0,0,1,8.14,31.663V21.43a4.1,4.1,0,0,1,4.093-4.093H32.7a4.1,4.1,0,0,1,4.093,4.093ZM18.373,26.546a3.07,3.07,0,1,1-3.07-3.07h0A3.071,3.071,0,0,1,18.373,26.546Zm14.326,0a3.07,3.07,0,1,1-3.07-3.07h0A3.071,3.071,0,0,1,32.7,26.546Z" transform="translate(-2 -2.99)" fill="#0062cf"/>
    </g>
  </g>
</svg>
