<svg width="18" height="21" viewBox="0 0 18 21" fill="none" xmlns="http://www.w3.org/2000/svg">
<path d="M8.875 1H2.75C2.28587 1 1.84075 1.18437 1.51256 1.51256C1.18437 1.84075 1 2.28587 1 2.75V16.75C1 17.2141 1.18437 17.6592 1.51256 17.9874C1.84075 18.3156 2.28587 18.5 2.75 18.5H13.25C13.7141 18.5 14.1592 18.3156 14.4874 17.9874C14.8156 17.6592 15 17.2141 15 16.75V7.125L8.875 1Z" stroke="#098DE6" stroke-width="1.3" stroke-linecap="round" stroke-linejoin="round"/>
<path d="M8.875 1V7.125H15" stroke="#098DE6" stroke-width="1.3" stroke-linecap="round" stroke-linejoin="round"/>
<rect x="8" y="11" width="9" height="9" fill="#F9F9F9"/>
<path d="M16.5578 15.2538L12.5118 19.2997C11.4797 20.3319 9.80626 20.3319 8.77411 19.2997C7.74196 18.2676 7.74196 16.5941 8.77411 15.562L12.82 11.5161C13.5081 10.828 14.6237 10.828 15.3118 11.5161C15.9999 12.2042 15.9999 13.3198 15.3118 14.0079L11.2615 18.0538C10.9175 18.3979 10.3597 18.3979 10.0156 18.0538C9.67157 17.7098 9.67157 17.1519 10.0156 16.8079L13.7534 13.0746" stroke="#098DE6" stroke-width="1.3" stroke-linecap="round" stroke-linejoin="round"/>
</svg>
