<svg width="25" height="43" viewBox="0 0 25 43" fill="none" xmlns="http://www.w3.org/2000/svg">
<path d="M22.7766 34.3923H21.6754V27.3561C21.6754 25.5671 20.5744 23.4206 19.1064 22.3472L14.8244 19.0079L19.1064 15.6686C20.5744 14.5954 21.6754 12.4486 21.6754 10.6598V3.38514H22.7766C23.5106 3.38514 24 2.90815 24 2.19252C24 1.47699 23.5106 1 22.7766 1H2.22344C1.48941 1 1 1.47699 1 2.19262C1 2.90815 1.48932 3.38524 2.22344 3.38524H3.32447V10.66C3.32447 12.4489 4.4255 14.5954 5.89355 15.6688L10.1755 19.0081L5.89355 22.3474C4.4255 23.4206 3.32447 25.5674 3.32447 27.3562V34.3925H2.22344C1.48941 34.3925 1 34.8695 1 35.5852C1 36.3007 1.48932 36.7778 2.22344 36.7778H22.7766C23.5106 36.7778 24 36.3008 24 35.5852C24 34.8693 23.5106 34.3923 22.7766 34.3923Z" stroke="#222222" stroke-width="1.5"/>
<g filter="url(#filter0_d_210_3049)">
<path d="M5.97046 34.2348V27.1985C5.97046 26.1252 6.70448 24.6942 7.56081 24.0979L12.3322 20.4009C12.5472 20.2611 12.6777 20.0804 12.7493 19.8828C12.8386 20.0336 12.9522 20.1706 13.0661 20.2817L17.8374 24.0979C18.6938 24.6942 19.4278 26.1252 19.4278 27.1985V34.2348H5.97046Z" fill="#098DE6"/>
</g>
<defs>
<filter id="filter0_d_210_3049" x="1.97046" y="19.8828" width="21.4573" height="22.3516" filterUnits="userSpaceOnUse" color-interpolation-filters="sRGB">
<feFlood flood-opacity="0" result="BackgroundImageFix"/>
<feColorMatrix in="SourceAlpha" type="matrix" values="0 0 0 0 0 0 0 0 0 0 0 0 0 0 0 0 0 0 127 0" result="hardAlpha"/>
<feOffset dy="4"/>
<feGaussianBlur stdDeviation="2"/>
<feComposite in2="hardAlpha" operator="out"/>
<feColorMatrix type="matrix" values="0 0 0 0 0.0352941 0 0 0 0 0.552941 0 0 0 0 0.901961 0 0 0 0.2 0"/>
<feBlend mode="normal" in2="BackgroundImageFix" result="effect1_dropShadow_210_3049"/>
<feBlend mode="normal" in="SourceGraphic" in2="effect1_dropShadow_210_3049" result="shape"/>
</filter>
</defs>
</svg>
