<svg width="28" height="28" viewBox="0 0 28 28" fill="none" xmlns="http://www.w3.org/2000/svg">
<g clip-path="url(#clip0_767_2394)">
<g filter="url(#filter0_d_767_2394)">
<path fill-rule="evenodd" clip-rule="evenodd" d="M27 23.9956C27 25.6549 25.6735 27 24.0372 27H3.96279C2.32649 27 1 25.6549 1 23.9956V4.00444C1 2.34514 2.32649 1 3.96279 1H9.55581L12.5186 5.50667H24.0372C25.6735 5.50667 27 6.8518 27 8.51111V23.9956Z" fill="#098DE6"/>
<path fill-rule="evenodd" clip-rule="evenodd" d="M27 23.9956C27 25.6549 25.6735 27 24.0372 27H3.96279C2.32649 27 1 25.6549 1 23.9956V4.00444C1 2.34514 2.32649 1 3.96279 1H9.55581L12.5186 5.50667H24.0372C25.6735 5.50667 27 6.8518 27 8.51111V23.9956Z" stroke="#098DE6" stroke-width="1.5" stroke-linecap="round" stroke-linejoin="round"/>
</g>
<path d="M18.6801 20.76H12.4401" stroke="white" stroke-width="1.5" stroke-linecap="round" stroke-linejoin="round"/>
<rect x="5.16003" y="18.68" width="4.16" height="4.16" rx="1" fill="white"/>
<path d="M22.3201 12.44H12.4401" stroke="white" stroke-width="1.5" stroke-linecap="round" stroke-linejoin="round"/>
<rect x="5.16003" y="10.36" width="4.16" height="4.16" rx="1" fill="white"/>
</g>
<defs>
<filter id="filter0_d_767_2394" x="-9.75" y="-5.75" width="47.5" height="47.5" filterUnits="userSpaceOnUse" color-interpolation-filters="sRGB">
<feFlood flood-opacity="0" result="BackgroundImageFix"/>
<feColorMatrix in="SourceAlpha" type="matrix" values="0 0 0 0 0 0 0 0 0 0 0 0 0 0 0 0 0 0 127 0" result="hardAlpha"/>
<feOffset dy="4"/>
<feGaussianBlur stdDeviation="5"/>
<feComposite in2="hardAlpha" operator="out"/>
<feColorMatrix type="matrix" values="0 0 0 0 0.0352941 0 0 0 0 0.552941 0 0 0 0 0.901961 0 0 0 0.3 0"/>
<feBlend mode="normal" in2="BackgroundImageFix" result="effect1_dropShadow_767_2394"/>
<feBlend mode="normal" in="SourceGraphic" in2="effect1_dropShadow_767_2394" result="shape"/>
</filter>
<clipPath id="clip0_767_2394">
<rect width="28" height="28" fill="white"/>
</clipPath>
</defs>
</svg>
