<svg width="18" height="18" viewBox="0 0 18 18" fill="none" xmlns="http://www.w3.org/2000/svg">
<g id="rejected_status">
<g id="Group 23">
<path id="Path" fill-rule="evenodd" clip-rule="evenodd" d="M9 1C4.58862 1 1 4.58862 1 9C1 13.4114 4.58862 17 9 17C13.4114 17 17 13.4114 17 9C17 4.58862 13.4114 1 9 1Z" stroke="#EA3D3D" stroke-width="1.5" stroke-linecap="round" stroke-linejoin="round"/>
</g>
<g id="Group">
<path id="Path_2" d="M9.09238 4.95581C8.69596 4.95581 8.55762 5.16853 8.55762 5.54563C8.55762 6.69619 8.69296 8.34953 8.69296 9.50012C8.69299 9.79985 8.78302 9.92553 9.09241 9.92553C9.32445 9.92553 9.50017 9.79985 9.50017 9.50012C9.50017 8.34956 9.63551 6.69622 9.63551 5.54563C9.63551 5.16856 9.46948 4.95581 9.09238 4.95581Z" fill="#EA3D3D" stroke="#EA3D3D" stroke-width="0.5"/>
<path id="Path_3" d="M9.07098 11.406C8.65695 11.406 8.4375 11.7596 8.4375 12.0768C8.4375 12.394 8.74123 12.7056 9.07098 12.6995C9.40074 12.6934 9.73099 12.4522 9.73099 12.0528C9.73099 11.6533 9.48502 11.406 9.07098 11.406Z" fill="#EA3D3D" stroke="#EA3D3D" stroke-width="0.5"/>
</g>
</g>
</svg>
