<svg xmlns="http://www.w3.org/2000/svg" xmlns:xlink="http://www.w3.org/1999/xlink" width="118.258" height="144.515" viewBox="0 0 118.258 144.515">
  <defs>
    <linearGradient id="linear-gradient" x1="0.036" y1="-0.083" x2="-0.023" y2="0.904" gradientUnits="objectBoundingBox">
      <stop offset="0.104" stop-color="#e8f6ff"/>
      <stop offset="1" stop-color="#9dd8ff"/>
    </linearGradient>
  </defs>
  <g id="robot" transform="translate(-1015.497 -522.485)">
    <ellipse id="Ellipse_24" data-name="Ellipse 24" cx="45.5" cy="17" rx="45.5" ry="17" transform="translate(1038 633)" fill="#e8e8e8"/>
    <g id="Group_1000004987" data-name="Group 1000004987" transform="translate(1013.054 519.332)">
      <path id="Path_43" data-name="Path 43" d="M34.939,62.755a12.3,12.3,0,0,1,2.507,24.391c-4.29.793-8.607-.97-12.893-1.787L13.068,83.169a12.685,12.685,0,0,1-6.7-2.951c-1.819-1.771-3.58-4.107-3.406-5.337.294-2.067,5.645-10.106,7.732-10.155Z" fill="#e0e0e0" stroke="#535353" stroke-width="1"/>
      <path id="Path_44" data-name="Path 44" d="M98.217,117.267c-9.922,20.69-37.259,20.69-47.182,0L34.863,83.546c-4.435-9.249,1.764-20.3,11.389-20.3H103c9.625,0,15.824,11.047,11.389,20.3Z" fill="#fff" stroke="#535353" stroke-width="1"/>
      <path id="Path_45" data-name="Path 45" d="M118.161,51.194c-1.5,17-22,29.086-45.786,26.991S30.513,60.611,32.009,43.61,55.134,1.7,78.924,3.792,119.657,34.193,118.161,51.194Z" fill="#e0e0e0" stroke="#098de6" stroke-width="1"/>
      <path id="Path_46" data-name="Path 46" d="M116.109,46.246c0,16.118-18.456,29.184-41.224,29.184S33.661,62.364,33.661,46.246,52.118,4.9,74.885,4.9,116.109,30.128,116.109,46.246Z" transform="translate(0.285)" fill="#fff"/>
      <path id="Path_47" data-name="Path 47" d="M101.858,60.665C90.6,65.975,67.521,68.254,48,55.21c-14.739-9.85,7.9-29.837,30-27.6S115.929,54.028,101.858,60.665Z" fill="url(#linear-gradient)"/>
      <path id="Path_48" data-name="Path 48" d="M101.618,59.923c-11.257,5.31-34.338,7.589-53.855-5.455-14.739-9.85,7.9-29.837,30-27.6S115.688,53.286,101.618,59.923Z" fill="#4ab0f5"/>
      <path id="Path_49" data-name="Path 49" d="M98.989,93.03c1.139-4.5,1.325-9.431,3.834-13.338,2.161-3.365,5.678-5.224,9.333-4.41,6.4,1.425,9.871,10.186,6.934,17.5l-5.63,17.838c-.721,1.793-9.845,5.379-11.388,4.88-1-.322-3.333-2.909-4.919-5.316-1.469-2.229-1.258-4.932-.6-7.521Z" fill="#fff" stroke="#535353" stroke-width="1"/>
      <path id="Path_50" data-name="Path 50" d="M92.719,50a6.272,6.272,0,0,0-8.947,2.865" fill="none" stroke="#232832" stroke-linecap="round" stroke-linejoin="round" stroke-width="1.5"/>
      <path id="Path_51" data-name="Path 51" d="M56.93,48.377c2.847-1.609,6.507-2.016,8.947,2.864" fill="none" stroke="#232832" stroke-linecap="round" stroke-linejoin="round" stroke-width="1.5"/>
    </g>
  </g>
</svg>
