<svg id="Layer_1" data-name="Layer 1" xmlns="http://www.w3.org/2000/svg" viewBox="0 0 18 18"><defs><style>.cls-1{fill:#607088;}</style></defs><path class="cls-1" d="M11.43,14v1.38H13.3a.5.5,0,0,1,.54.54.49.49,0,0,1-.53.53H5.52A.5.5,0,0,1,5,15.94a.52.52,0,0,1,.55-.55H7.24l.06,0V14h-6c-.61,0-.87-.26-.87-.88V2.47c0-.1,0-.2,0-.3a.69.69,0,0,1,.75-.63H13.39c1.14,0,2.29,0,3.44,0a.69.69,0,0,1,.75.66,1.77,1.77,0,0,1,0,.23v10.7a1.62,1.62,0,0,1,0,.22.69.69,0,0,1-.74.66H11.43ZM9,2.17H1.84a.72.72,0,0,0-.6.26.86.86,0,0,0-.16.6V11.5c0,.62.25.87.86.87H15.81c.13,0,.27,0,.4,0a.5.5,0,0,0,.47-.24,1.37,1.37,0,0,0,.19-.58c0-.75,0-1.5,0-2.25V3A.74.74,0,0,0,16,2.17ZM10.92,14H7.75v.23h3.17ZM9.28,13.5a.44.44,0,0,0,.44-.44.46.46,0,0,0-.44-.44.45.45,0,0,0-.44.45A.42.42,0,0,0,9.28,13.5Z"/><path class="cls-1" d="M10.92,14v.23H7.75V14Z"/><path class="cls-1" d="M9.28,13.5a.42.42,0,0,1-.44-.43.45.45,0,0,1,.44-.45.46.46,0,0,1,.44.44A.44.44,0,0,1,9.28,13.5Z"/></svg>