<svg id="Layer_1" data-name="Layer 1" xmlns="http://www.w3.org/2000/svg" viewBox="0 0 18 18"><defs><style>.cls-1{fill:#00a0e3;}</style></defs><path class="cls-1" d="M9.1.34,14.84,3.4l1.93,1a.54.54,0,0,1,.35.51.55.55,0,0,1-.35.49l-7.43,4a.69.69,0,0,1-.68,0l-7.43-4a.55.55,0,0,1-.35-.49.54.54,0,0,1,.35-.51l7.44-4L8.9.34Zm6.43,4.59-.14-.08L9.14,1.5a.26.26,0,0,0-.28,0L2.62,4.84l-.15.09L2.6,5,8.87,8.37a.28.28,0,0,0,.28,0L15.36,5Z"/><path class="cls-1" d="M2.46,9l.16.1,6.26,3.35a.23.23,0,0,0,.24,0L15.4,9.09,15.53,9l-.17-.1-1.15-.62A.51.51,0,0,1,14,7.58a.51.51,0,0,1,.73-.18c.71.37,1.42.76,2.13,1.14a.5.5,0,0,1,.31.46.49.49,0,0,1-.31.48l-7.52,4a.57.57,0,0,1-.58,0l-7.51-4a.52.52,0,0,1,0-1L3.32,7.39a.51.51,0,1,1,.48.9Z"/><path class="cls-1" d="M2.46,13.09l1.11.59L8.84,16.5a.29.29,0,0,0,.32,0q3.11-1.66,6.22-3.32l.16-.1-1.25-.67A.5.5,0,0,1,14,12a.5.5,0,0,1,.7-.54l.11,0,2,1.07a.52.52,0,0,1,.33.48.53.53,0,0,1-.34.5l-7.46,4a.64.64,0,0,1-.64,0l-7.45-4a.54.54,0,0,1-.35-.49.53.53,0,0,1,.34-.5l2-1.06a.61.61,0,0,1,.49-.06A.47.47,0,0,1,4,11.9a.48.48,0,0,1-.27.49L2.68,13Z"/></svg>