<svg id="Layer_1" data-name="Layer 1" xmlns="http://www.w3.org/2000/svg" viewBox="0 0 18 18"><defs><style>.cls-1{fill:#00a0e3;}</style></defs><path class="cls-1" d="M17,6.51l-3.73-.25c.47-.42.83-.77,1.21-1.06s.33-.43.07-.76A7.24,7.24,0,0,0,7.19,2.09,7.12,7.12,0,0,0,1.84,8.61c0,.09,0,.17-.05.3H.57c-.32-2.84,1.86-6.15,5-7.66C9-.36,12.61.59,15.87,3.93L17.21,2.8Z"/><path class="cls-1" d="M2.14,14.11.79,15.26,1,11.55l3.72.25-1,.89c-.61.55-.61.56-.07,1.15a7.17,7.17,0,0,0,12-2.25,23.07,23.07,0,0,0,.61-2.45h1.11c.41,2.56-1.81,6.08-4.58,7.48A8.64,8.64,0,0,1,2.14,14.11Z"/></svg>