<svg xmlns="http://www.w3.org/2000/svg" width="23.808" height="25.5" viewBox="0 0 23.808 25.5">
  <g id="inviteuser-hover" transform="translate(-2.66 -1.25)">
    <path id="Path_248" data-name="Path 248" d="M3.41,26c0-4.644,4.619-8.4,10.3-8.4a12.462,12.462,0,0,1,3.311.444M13.715,14a6,6,0,1,0-4.241-1.757A6,6,0,0,0,13.715,14Z" fill="none" stroke="#098de6" stroke-linecap="round" stroke-linejoin="round" stroke-width="1.5"/>
    <path id="Path_249" data-name="Path 249" d="M20.593,18.78H17.014M18.8,17.026v3.591m4.8-1.813a4.316,4.316,0,0,1-.144,1.117,4.485,4.485,0,0,1-.552,1.357,4.768,4.768,0,0,1-4.107,2.33,4.708,4.708,0,0,1-3.195-1.237,4.424,4.424,0,0,1-.913-1.093A4.707,4.707,0,0,1,14,18.8,4.8,4.8,0,0,1,18.8,14a4.737,4.737,0,0,1,3.567,1.6A4.785,4.785,0,0,1,23.608,18.8Z" transform="translate(2.11 2.392)" fill="none" stroke="#098de6" stroke-linecap="round" stroke-linejoin="round" stroke-miterlimit="10" stroke-width="1.5"/>
  </g>
</svg>
