<svg xmlns="http://www.w3.org/2000/svg" width="25.498" height="25.52" viewBox="0 0 25.498 25.52">
  <g id="messages-hover" transform="translate(-1.25 -1.25)">
    <path id="Path_244" data-name="Path 244" d="M21.295,19.795l.468,3.792a1.194,1.194,0,0,1-1.8,1.176l-5.028-2.988a11.977,11.977,0,0,1-1.62-.108,5.832,5.832,0,0,0,1.416-3.792,6.392,6.392,0,0,0-6.6-6.168A6.819,6.819,0,0,0,4.388,12.8a7.606,7.606,0,0,1-.048-.912C4.34,6.428,9.08,2,14.935,2s10.6,4.428,10.6,9.887A9.664,9.664,0,0,1,21.295,19.795Z" transform="translate(0.468)" fill="none" stroke="#098de6" stroke-linecap="round" stroke-linejoin="round" stroke-width="1.5"/>
    <path id="Path_245" data-name="Path 245" d="M15.2,16.258a5.833,5.833,0,0,1-1.416,3.792A6.7,6.7,0,0,1,8.6,22.413l-3.132,1.86a.751.751,0,0,1-1.128-.732l.3-2.364a5.922,5.922,0,0,1,.216-10A6.819,6.819,0,0,1,8.6,10.09,6.392,6.392,0,0,1,15.2,16.258Z" transform="translate(0 1.617)" fill="none" stroke="#098de6" stroke-linecap="round" stroke-linejoin="round" stroke-width="1.5"/>
  </g>
</svg>
