<svg xmlns="http://www.w3.org/2000/svg" width="23.34" height="25.702" viewBox="0 0 23.34 25.702">
  <g id="slaconfig-hover" transform="translate(-2.25 -1.259)">
    <path id="Path_234" data-name="Path 234" d="M3,10.6v7c0,2.572,0,2.572,2.427,4.21L12.1,25.673a4.01,4.01,0,0,0,3.64,0l6.673-3.858c2.427-1.638,2.427-1.638,2.427-4.2V10.6c0-2.56,0-2.56-2.427-4.2L15.74,2.547a4.01,4.01,0,0,0-3.64,0L5.427,6.405C3,8.043,3,8.043,3,10.6Z" transform="translate(0 0)" fill="none" stroke="#098de6" stroke-linecap="round" stroke-linejoin="round" stroke-width="1.5"/>
    <path id="Path_235" data-name="Path 235" d="M12.64,16.28a3.64,3.64,0,1,0-2.574-1.066A3.64,3.64,0,0,0,12.64,16.28Z" transform="translate(1.28 1.47)" fill="none" stroke="#098de6" stroke-linecap="round" stroke-linejoin="round" stroke-width="1.5"/>
  </g>
</svg>
