<svg xmlns="http://www.w3.org/2000/svg" width="24.119" height="15.503" viewBox="0 0 24.119 15.503">
  <path id="Path_1406" data-name="Path 1406" d="M25.845,195.639c-1.742-.758-2.107-1.344-2.107-2.609,0-.76.529-.512.76-1.9.1-.578.564-.01.652-1.327,0-.524-.256-.655-.256-.655s.13-.778.18-1.376a2.549,2.549,0,0,0-2.793-2.67,2.549,2.549,0,0,0-2.793,2.67c.052.6.18,1.376.18,1.376s-.256.13-.256.655c.089,1.317.556.751.655,1.327.231,1.393.76,1.144.76,1.9,0,1.265-.765,1.851-2.508,2.609-.532.231-2.983,1.167-2.983,2.026l-.052,2.939H28.862s-.086-2.149-.086-2.678C28.776,197.14,27.592,196.4,25.845,195.639Zm8.274,4.964a29.279,29.279,0,0,0-.239-4c-.3-.537-1.009-.9-2.321-1.474s-1.565-.98-1.565-1.93c0-.571.4-.384.571-1.427.071-.433.423-.007.49-.994,0-.394-.192-.492-.192-.492s.1-.583.135-1.031a1.912,1.912,0,0,0-2.094-2,1.911,1.911,0,0,0-2.094,2c.037.448.135,1.031.135,1.031s-.192.1-.192.492c.066.987.418.561.49.994.175,1.044.571.856.571,1.427,0,.645-1.309.783-1.843,1.174,2.855,1.489,4.228,2.006,4.228,3.335v2.9Zm-17.4-7.41c0-.571.4-.384.571-1.427.071-.433.423-.007.49-.994,0-.394-.192-.492-.192-.492s.1-.583.135-1.031a1.912,1.912,0,0,0-2.094-2,1.911,1.911,0,0,0-2.094,2c.037.448.135,1.031.135,1.031s-.192.1-.192.492c.066.987.418.561.49.994.175,1.044.571.856.571,1.427,0,.95-.66,1.361-1.966,1.93s-2.035.938-2.338,1.474A29.335,29.335,0,0,0,10,200.6h3.938v-2.9c0-1.329,1.373-1.848,4.228-3.335C17.629,193.975,16.724,193.837,16.724,193.192Z" transform="translate(-10 -185.1)" fill="#fff"/>
</svg>
