<svg xmlns="http://www.w3.org/2000/svg" width="24.915" height="25" viewBox="0 0 24.915 25">
  <g id="BPMN-Blue" transform="translate(-526.888 -695.765)">
    <g id="Ellipse_54" data-name="Ellipse 54" transform="translate(526.888 695.765)" fill="#fff" stroke="#00a0e3" stroke-width="1">
      <circle cx="3" cy="3" r="3" stroke="none"/>
      <circle cx="3" cy="3" r="2.5" fill="none"/>
    </g>
    <g id="Ellipse_60" data-name="Ellipse 60" transform="translate(532.888 704.765)" fill="#fff" stroke="#00a0e3" stroke-width="1">
      <circle cx="3" cy="3" r="3" stroke="none"/>
      <circle cx="3" cy="3" r="2.5" fill="none"/>
    </g>
    <g id="Ellipse_61" data-name="Ellipse 61" transform="translate(532.888 714.765)" fill="#fff" stroke="#00a0e3" stroke-width="1">
      <circle cx="3" cy="3" r="3" stroke="none"/>
      <circle cx="3" cy="3" r="2.5" fill="none"/>
    </g>
    <g id="Ellipse_62" data-name="Ellipse 62" transform="translate(544.888 714.765)" fill="#fff" stroke="#00a0e3" stroke-width="1">
      <circle cx="3" cy="3" r="3" stroke="none"/>
      <circle cx="3" cy="3" r="2.5" fill="none"/>
    </g>
    <path id="Path_247" data-name="Path 247" d="M1356.106,2870.169h-1.595a5.034,5.034,0,0,1-4-5.1,4.745,4.745,0,0,1,4-4.9h1.595" transform="translate(-822.782 -2152.404)" fill="none" stroke="#00a0e3" stroke-width="1"/>
    <g id="Group_502" data-name="Group 502" transform="translate(532.772 697.599)">
      <g id="Group_497" data-name="Group 497" transform="translate(0 1.203)">
        <path id="Path_238" data-name="Path 238" d="M1362,2844.5h5.767" transform="translate(-1362 -2844.5)" fill="none" stroke="#00a0e3" stroke-width="1"/>
      </g>
      <path id="Path_248" data-name="Path 248" d="M1.106,0A11.233,11.233,0,0,0,0,1.18,15.673,15.673,0,0,0,1.106,2.332" transform="translate(5.839 2.332) rotate(180)" fill="none" stroke="#00a0e3" stroke-width="1"/>
    </g>
    <g id="Group_504" data-name="Group 504" transform="translate(538.611 716.599)">
      <g id="Group_501" data-name="Group 501" transform="translate(0 1.202)">
        <path id="Path_238-2" data-name="Path 238" d="M1362,2844.5h5.809" transform="translate(-1362 -2844.5)" fill="none" stroke="#00a0e3" stroke-width="1"/>
      </g>
      <path id="Path_251" data-name="Path 251" d="M1.106,0A11.233,11.233,0,0,0,0,1.18,15.673,15.673,0,0,0,1.106,2.332" transform="translate(5.881 2.332) rotate(180)" fill="none" stroke="#00a0e3" stroke-width="1"/>
    </g>
    <g id="Group_503" data-name="Group 503" transform="translate(539.174 698.765)">
      <path id="Path_250" data-name="Path 250" d="M1375.382,2857.5a11.243,11.243,0,0,0-1.106,1.181,15.683,15.683,0,0,0,1.106,1.152" transform="translate(-1374.276 -2849.482)" fill="none" stroke="#00a0e3" stroke-width="1"/>
      <path id="Path_249" data-name="Path 249" d="M1378.347,2840.5h3.323a4.635,4.635,0,0,1,3.77,4.585,4.7,4.7,0,0,1-3.77,4.627h-8.359" transform="translate(-1373.31 -2840.5)" fill="none" stroke="#00a0e3" stroke-width="1"/>
    </g>
    <g id="Ellipse_63" data-name="Ellipse 63" transform="translate(538.888 695.765)" fill="#fff" stroke="#00a0e3" stroke-width="1">
      <circle cx="3" cy="3" r="3" stroke="none"/>
      <circle cx="3" cy="3" r="2.5" fill="none"/>
    </g>
  </g>
</svg>
