<svg xmlns="http://www.w3.org/2000/svg" width="101.614" height="101.614" viewBox="0 0 101.614 101.614">
  <g id="VCM" transform="translate(-1444 -3188.193)" opacity="0.5">
    <path id="Path" d="M28.717,0H11.045A11.058,11.058,0,0,0,0,11.045V28.717A11.057,11.057,0,0,0,11.045,39.762H28.717A11.058,11.058,0,0,0,39.762,28.717V11.045A11.058,11.058,0,0,0,28.717,0Z" transform="translate(1474.926 3188.193)" fill="#1aa2e0"/>
    <path id="Path-2" data-name="Path" d="M16.347,0H5.743A5.749,5.749,0,0,0,0,5.743v10.6A5.749,5.749,0,0,0,5.743,22.09h10.6a5.749,5.749,0,0,0,5.743-5.743V5.743A5.749,5.749,0,0,0,16.347,0Z" transform="translate(1483.762 3267.717)" fill="#1aa2e0"/>
    <path id="Path-3" data-name="Path" d="M16.347,0H5.743A5.749,5.749,0,0,0,0,5.743v10.6A5.749,5.749,0,0,0,5.743,22.09h10.6a5.749,5.749,0,0,0,5.743-5.743V5.743A5.749,5.749,0,0,0,16.347,0Z" transform="translate(1523.524 3267.717)" fill="#1aa2e0"/>
    <path id="Path-4" data-name="Path" d="M16.347,0H5.743A5.749,5.749,0,0,0,0,5.743v10.6A5.749,5.749,0,0,0,5.743,22.09h10.6a5.749,5.749,0,0,0,5.743-5.743V5.743A5.749,5.749,0,0,0,16.347,0Z" transform="translate(1444 3267.717)" fill="#1aa2e0"/>
    <path id="Path-5" data-name="Path" d="M68.479,13.254H44.18V2.209a2.209,2.209,0,1,0-4.418,0V13.254h-24.3A15.48,15.48,0,0,0,0,28.717a2.209,2.209,0,0,0,4.418,0A11.057,11.057,0,0,1,15.463,17.672h24.3V28.717a2.209,2.209,0,1,0,4.418,0V17.672h24.3A11.058,11.058,0,0,1,79.524,28.717a2.209,2.209,0,0,0,4.418,0A15.48,15.48,0,0,0,68.479,13.254Z" transform="translate(1452.836 3232.373)" fill="#1aa2e0"/>
  </g>
</svg>
