<svg xmlns="http://www.w3.org/2000/svg" viewBox="0 0 33.089 25.942">
  <g id="_2825576" data-name="2825576" transform="translate(0 -55.292)">
    <path id="Path_690" data-name="Path 690" d="M31.838,55.292H7.506a.485.485,0,0,0,0,.969H31.838a.282.282,0,0,1,.282.282V72.626H26.256V71.346a.485.485,0,0,0-.485-.485H24.458a8.093,8.093,0,0,0-1.165-2.81l.929-.929a.485.485,0,0,0,0-.685L22.6,64.815a.485.485,0,0,0-.686,0l-.929.929a8.088,8.088,0,0,0-2.81-1.165V63.266a.485.485,0,0,0-.485-.485H15.4a.485.485,0,0,0-.485.485v1.313a8.092,8.092,0,0,0-2.81,1.165l-.929-.929a.485.485,0,0,0-.685,0L8.867,66.437a.485.485,0,0,0,0,.685l.929.929a8.09,8.09,0,0,0-1.165,2.81H7.318a.485.485,0,0,0-.485.485v1.281H.969V56.543a.282.282,0,0,1,.282-.282H5.568a.485.485,0,0,0,0-.969H1.251A1.253,1.253,0,0,0,0,56.543v20.4a1.253,1.253,0,0,0,1.251,1.251H12.289v2.07h-.93a.485.485,0,0,0,0,.969h10.37a.485.485,0,0,0,0-.969H20.8v-2.07h3.78a.485.485,0,1,0,0-.969H1.251a.282.282,0,0,1-.282-.282V73.6H32.12v3.348a.282.282,0,0,1-.282.282H26.519a.485.485,0,1,0,0,.969h5.319a1.253,1.253,0,0,0,1.251-1.251v-20.4a1.253,1.253,0,0,0-1.251-1.251ZM19.83,80.265H13.259v-2.07H19.83Zm-6.2-7.773a2.914,2.914,0,0,1,5.828,0q0,.067,0,.134H13.634q0-.067,0-.134Zm6.795.134q0-.067,0-.134a3.883,3.883,0,0,0-7.767,0q0,.067,0,.134H7.8v-.8H9.036a.485.485,0,0,0,.479-.412,7.105,7.105,0,0,1,1.3-3.136.485.485,0,0,0-.048-.63L9.9,66.78l.936-.936.873.873a.485.485,0,0,0,.63.048,7.105,7.105,0,0,1,3.136-1.3.485.485,0,0,0,.412-.479V63.751h1.324v1.233a.485.485,0,0,0,.412.479,7.106,7.106,0,0,1,3.136,1.3.485.485,0,0,0,.63-.048l.873-.873.936.936-.873.873a.485.485,0,0,0-.048.63,7.106,7.106,0,0,1,1.3,3.136.485.485,0,0,0,.479.412h1.234v.8Z"/>
    <path id="Path_691" data-name="Path 691" d="M54.192,104.436a.485.485,0,0,0-.485-.485H47.379a.485.485,0,1,0,0,.969h6.329A.485.485,0,0,0,54.192,104.436Z" transform="translate(-43.863 -45.514)"/>
    <path id="Path_692" data-name="Path 692" d="M47.379,137.565a.485.485,0,1,0,0,.969h2.052a.485.485,0,1,0,0-.969Z" transform="translate(-43.863 -76.956)"/>
    <path id="Path_693" data-name="Path 693" d="M428.462,138.534h2.052a.485.485,0,1,0,0-.969h-2.052a.485.485,0,0,0,0,.969Z" transform="translate(-400.318 -76.956)"/>
    <path id="Path_694" data-name="Path 694" d="M428.462,172.148h2.052a.485.485,0,1,0,0-.969h-2.052a.485.485,0,0,0,0,.969Z" transform="translate(-400.318 -108.398)"/>
    <path id="Path_695" data-name="Path 695" d="M428.462,205.761h2.052a.485.485,0,1,0,0-.969h-2.052a.485.485,0,0,0,0,.969Z" transform="translate(-400.318 -139.838)"/>
  </g>
</svg>
