<svg id="Activity-Group1" xmlns="http://www.w3.org/2000/svg" width="27.995" height="27.996" viewBox="0 0 27.995 27.996">
  <path id="Path_2203" data-name="Path 2203" d="M284,218a1,1,0,0,1-.707-.293l-3-3a1,1,0,0,1,0-1.414l3-3a1,1,0,0,1,1.414,0l3,3a1,1,0,0,1,0,1.414l-3,3A1,1,0,0,1,284,218Zm-1.586-4L284,215.583,285.587,214,284,212.412Z" transform="translate(-270.003 -200)" fill="#607088"/>
  <path id="Path_2204" data-name="Path 2204" d="M429,42h-8a1,1,0,0,1-1-1V36a1,1,0,0,1,1-1h8a1,1,0,0,1,1,1v5A1,1,0,0,1,429,42Zm-7-2h6V37h-6Z" transform="translate(-402.003 -35)" fill="#607088"/>
  <path id="Path_2205" data-name="Path 2205" d="M475.5,159.5h-2a1,1,0,0,1,0-2h2a1,1,0,0,1,0,2Z" transform="translate(-451.503 -150.501)" fill="#607088"/>
  <path id="Path_2206" data-name="Path 2206" d="M114,374.5h-8a1,1,0,0,1-1-1v-5a1,1,0,0,1,1-1h8a1,1,0,0,1,1,1v5A1,1,0,0,1,114,374.5Zm-7-2h6v-3h-6Z" transform="translate(-105 -348.503)" fill="#607088"/>
  <path id="Path_2207" data-name="Path 2207" d="M160.5,492h-2a1,1,0,0,1,0-2h2a1,1,0,0,1,0,2Z" transform="translate(-154.5 -464.004)" fill="#607088"/>
  <path id="Path_2208" data-name="Path 2208" d="M176,267.5a1,1,0,0,1-1-1v-3a1,1,0,0,1,1-1h6a1,1,0,0,1,0,2h-5v2A1,1,0,0,1,176,267.5Z" transform="translate(-171.001 -249.502)" fill="#607088"/>
  <path id="Path_2209" data-name="Path 2209" d="M392,215h-6a1,1,0,0,1,0-2h5v-2a1,1,0,1,1,2,0v3A1,1,0,0,1,392,215Z" transform="translate(-369.002 -200.001)" fill="#607088"/>
</svg>
