<svg id="reload_pp" xmlns="http://www.w3.org/2000/svg"  viewBox="0 0 24.781 24.781">
  <path id="Path_531" data-name="Path 531" d="M.516,12.907A.517.517,0,0,1,0,12.391,12.4,12.4,0,0,1,12.391,0c4.93,0,9,2.942,11.765,8.508a.516.516,0,1,1-.924.46c-1.8-3.62-5.14-7.935-10.841-7.935A11.372,11.372,0,0,0,1.032,12.391a.516.516,0,0,1-.516.516Zm0,0"/>
  <path id="Path_532" data-name="Path 532" d="M409.979,91.35h-4.13a.516.516,0,1,1,0-1.032h3.614V86.747a.516.516,0,0,1,1.033,0v4.087A.516.516,0,0,1,409.979,91.35Zm0,0" transform="translate(-385.714 -82.057)"/>
  <path id="Path_533" data-name="Path 533" d="M23.63,258.239c-4.93,0-9-2.942-11.765-8.508a.516.516,0,0,1,.924-.46c1.8,3.62,5.14,7.935,10.841,7.935a11.372,11.372,0,0,0,11.358-11.358.516.516,0,1,1,1.032,0A12.4,12.4,0,0,1,23.63,258.239Zm0,0" transform="translate(-11.239 -233.458)"/>
  <path id="Path_534" data-name="Path 534" d="M.516,325.119A.516.516,0,0,1,0,324.6v-4.087A.516.516,0,0,1,.516,320h4.13a.516.516,0,1,1,0,1.033H1.032V324.6a.516.516,0,0,1-.516.516Zm0,0" transform="translate(0 -304.512)"/>
</svg>
