<svg id="Page-1" xmlns="http://www.w3.org/2000/svg" viewBox="0 0 26.583 29">
  <g id="_029---File-Schedule" data-name="029---File-Schedule">
    <path id="Shape" d="M49.483,38a.483.483,0,0,0-.483.483v.967a.483.483,0,1,0,.967,0v-.967A.483.483,0,0,0,49.483,38Z" transform="translate(-25.317 -19.633)"/>
    <path id="Shape-2" data-name="Shape" d="M26.75,0H7.417A2.42,2.42,0,0,0,5,2.417V11.6a.483.483,0,1,0,.967,0V2.417A1.45,1.45,0,0,1,7.417.967H26.75a1.45,1.45,0,0,1,1.45,1.45v18.85H24.817A2.42,2.42,0,0,0,22.4,23.683v3.383H19.017a.483.483,0,1,0,0,.967h3.867A.478.478,0,0,0,23.069,28a.483.483,0,0,0,.156-.1l5.8-5.8a.488.488,0,0,0,.141-.341V2.417A2.42,2.42,0,0,0,26.75,0ZM24.817,22.233h2.7l-4.15,4.15v-2.7A1.45,1.45,0,0,1,24.817,22.233Z" transform="translate(-2.583)"/>
    <path id="Shape-3" data-name="Shape" d="M12.45,6h-.967a.483.483,0,1,0,0,.967h.967a.483.483,0,1,0,0-.967Z" transform="translate(-5.683 -3.1)"/>
    <path id="Shape-4" data-name="Shape" d="M31.983,6h-14.5a.483.483,0,1,0,0,.967h14.5a.483.483,0,1,0,0-.967Z" transform="translate(-8.783 -3.1)"/>
    <path id="Shape-5" data-name="Shape" d="M12.45,12h-.967a.483.483,0,1,0,0,.967h.967a.483.483,0,1,0,0-.967Z" transform="translate(-5.683 -6.2)"/>
    <path id="Shape-6" data-name="Shape" d="M29.083,12.483A.483.483,0,0,0,28.6,12H17.483a.483.483,0,1,0,0,.967H28.6A.483.483,0,0,0,29.083,12.483Z" transform="translate(-8.783 -6.2)"/>
    <path id="Shape-7" data-name="Shape" d="M12.45,18h-.967a.483.483,0,0,0,0,.967h.967a.483.483,0,0,0,0-.967Z" transform="translate(-5.683 -9.3)"/>
    <path id="Shape-8" data-name="Shape" d="M17.483,18a.483.483,0,0,0,0,.967h2.9a.483.483,0,0,0,0-.967Z" transform="translate(-8.783 -9.3)"/>
    <path id="Shape-9" data-name="Shape" d="M49.967,20.483a.483.483,0,1,0-.967,0V27.25a.483.483,0,1,0,.967,0Z" transform="translate(-25.317 -10.333)"/>
    <path id="Shape-10" data-name="Shape" d="M8.7,41.4A8.7,8.7,0,1,0,0,32.7,8.7,8.7,0,0,0,8.7,41.4Zm0-16.433A7.733,7.733,0,1,1,.967,32.7,7.733,7.733,0,0,1,8.7,24.967Z" transform="translate(0 -12.4)"/>
    <path id="Shape-11" data-name="Shape" d="M20.042,38.008a.483.483,0,0,0,.683-.683l-2.758-2.758V28.483a.483.483,0,0,0-.967,0v6.283a.483.483,0,0,0,.142.342Z" transform="translate(-8.783 -14.467)"/>
  </g>
</svg>
