<svg xmlns="http://www.w3.org/2000/svg"  viewBox="0 0 27.555 26.57">
  <g id="Group_286" data-name="Group 286" transform="translate(0 -9)">
    <path id="Path_513" data-name="Path 513" d="M.4,28.634a.4.4,0,0,0,.4-.4V16.475H24.655v4.437a.4.4,0,0,0,.807,0V12.935a2.457,2.457,0,0,0-2.454-2.454H21.95v-.5A.982.982,0,0,0,20.97,9h-.75a.981.981,0,0,0-.98.981v.5H16.563v-.5A.982.982,0,0,0,15.582,9h-.75a.981.981,0,0,0-.98.981v.5H11.175v-.5A.982.982,0,0,0,10.194,9h-.75a.982.982,0,0,0-.981.981v.5H5.787v-.5A.982.982,0,0,0,4.807,9h-.75a.982.982,0,0,0-.981.981v.5H2.454A2.457,2.457,0,0,0,0,12.935v15.3A.4.4,0,0,0,.4,28.634ZM20.047,9.981a.174.174,0,0,1,.173-.173h.75a.173.173,0,0,1,.173.173v1.961a.173.173,0,0,1-.173.173h-.75a.173.173,0,0,1-.173-.173Zm-5.388,0a.173.173,0,0,1,.173-.173h.75a.174.174,0,0,1,.173.173v1.961a.174.174,0,0,1-.173.173h-.75a.173.173,0,0,1-.173-.173Zm-5.388,0a.174.174,0,0,1,.173-.173h.75a.174.174,0,0,1,.173.173v1.961a.174.174,0,0,1-.173.173h-.75a.173.173,0,0,1-.173-.173Zm-5.388,0a.174.174,0,0,1,.173-.173h.75a.173.173,0,0,1,.173.173v1.961a.173.173,0,0,1-.173.173h-.75a.173.173,0,0,1-.173-.173Zm-1.43,1.307h.622v.654a.982.982,0,0,0,.981.981h.75a.981.981,0,0,0,.98-.981v-.654H8.464v.654a.981.981,0,0,0,.98.981h.75a.982.982,0,0,0,.981-.981v-.654h2.677v.654a.982.982,0,0,0,.98.981h.75a.981.981,0,0,0,.98-.981v-.654H19.24v.654a.982.982,0,0,0,.981.981h.75a.981.981,0,0,0,.98-.981v-.654h1.058a1.649,1.649,0,0,1,1.647,1.647v2.733H.807V12.935A1.649,1.649,0,0,1,2.454,11.288Z"/>
    <path id="Path_514" data-name="Path 514" d="M4.57,395.734H1.05a.243.243,0,0,1-.243-.243v-2.075a.4.4,0,0,0-.807,0v2.075a1.051,1.051,0,0,0,1.05,1.05H4.57a.4.4,0,1,0,0-.807Z" transform="translate(0 -363.345)"/>
    <path id="Path_515" data-name="Path 515" d="M52.9,169.762h-1.4a.4.4,0,0,0,0,.807h1.4a.4.4,0,1,0,0-.807Z" transform="translate(-48.34 -152.11)"/>
    <path id="Path_516" data-name="Path 516" d="M131.611,170.569h1.4a.4.4,0,1,0,0-.807h-1.4a.4.4,0,0,0,0,.807Z" transform="translate(-124.146 -152.11)"/>
    <path id="Path_517" data-name="Path 517" d="M211.728,170.569h1.4a.4.4,0,1,0,0-.807h-1.4a.4.4,0,0,0,0,.807Z" transform="translate(-199.951 -152.11)"/>
    <path id="Path_518" data-name="Path 518" d="M291.841,170.569h1.4a.4.4,0,0,0,0-.807h-1.4a.4.4,0,1,0,0,.807Z" transform="translate(-275.753 -152.11)"/>
    <path id="Path_519" data-name="Path 519" d="M373.361,169.762h-1.4a.4.4,0,0,0,0,.807h1.4a.4.4,0,0,0,0-.807Z" transform="translate(-351.559 -152.11)"/>
    <path id="Path_520" data-name="Path 520" d="M52.9,207.477h-1.4a.4.4,0,1,0,0,.807h1.4a.4.4,0,1,0,0-.807Z" transform="translate(-48.34 -187.795)"/>
    <path id="Path_521" data-name="Path 521" d="M131.611,208.284h1.4a.4.4,0,1,0,0-.807h-1.4a.4.4,0,1,0,0,.807Z" transform="translate(-124.146 -187.795)"/>
    <path id="Path_522" data-name="Path 522" d="M211.728,208.284h1.4a.4.4,0,1,0,0-.807h-1.4a.4.4,0,1,0,0,.807Z" transform="translate(-199.951 -187.795)"/>
    <path id="Path_523" data-name="Path 523" d="M291.841,208.284h1.4a.4.4,0,0,0,0-.807h-1.4a.4.4,0,1,0,0,.807Z" transform="translate(-275.753 -187.795)"/>
    <path id="Path_524" data-name="Path 524" d="M373.361,207.477h-1.4a.4.4,0,0,0,0,.807h1.4a.4.4,0,0,0,0-.807Z" transform="translate(-351.559 -187.795)"/>
    <path id="Path_525" data-name="Path 525" d="M130.718,258.587l2.075,2.075a1.59,1.59,0,0,0,2.248,0l5.683-5.683a1.59,1.59,0,0,0-2.248-2.248l-4.559,4.559-.951-.951a1.589,1.589,0,1,0-2.248,2.248Zm.571-1.677a.783.783,0,0,1,1.106,0l1.237,1.237a.4.4,0,0,0,.571,0l4.845-4.845a.782.782,0,1,1,1.106,1.106l-5.683,5.683a.782.782,0,0,1-1.106,0l-2.075-2.075A.783.783,0,0,1,131.289,256.909Z" transform="translate(-123.244 -230.174)"/>
    <path id="Path_526" data-name="Path 526" d="M131.043,260.636v-3.221a.4.4,0,1,0-.807,0v2.706a5.354,5.354,0,0,0-7.35,6.931h-10.9a.4.4,0,1,0,0,.807h11.344a5.353,5.353,0,1,0,7.71-7.224Zm-3.263,8.791a4.548,4.548,0,1,1,4.548-4.548A4.553,4.553,0,0,1,127.78,269.427Z" transform="translate(-105.581 -234.665)"/>
    <path id="Path_527" data-name="Path 527" d="M342.793,329.527a3.965,3.965,0,1,0,3.964,3.965A3.969,3.969,0,0,0,342.793,329.527Zm.361,7.1a.4.4,0,0,0,.042-.179v-.492a.4.4,0,0,0-.807,0v.492a.4.4,0,0,0,.042.179,3.162,3.162,0,0,1-2.775-2.775.4.4,0,0,0,.179.042h.492a.4.4,0,0,0,0-.807h-.492a.4.4,0,0,0-.179.042,3.162,3.162,0,0,1,2.775-2.775.4.4,0,0,0-.042.179v.492a.4.4,0,0,0,.807,0v-.492a.4.4,0,0,0-.042-.179,3.162,3.162,0,0,1,2.775,2.775.4.4,0,0,0-.179-.042h-.492a.4.4,0,1,0,0,.807h.492a.4.4,0,0,0,.179-.042A3.162,3.162,0,0,1,343.154,336.628Z" transform="translate(-320.593 -303.277)"/>
    <path id="Path_528" data-name="Path 528" d="M406.289,381.322H405.8v-.414a.4.4,0,1,0-.807,0v.818a.4.4,0,0,0,.4.4h.89a.4.4,0,0,0,0-.807Z" transform="translate(-383.2 -351.511)"/>
  </g>
</svg>
