<svg xmlns="http://www.w3.org/2000/svg" width="20" height="20" viewBox="0 0 20 20">
  <g id="Model" transform="translate(55 -147.025)">
    <path id="Path_817" data-name="Path 817" d="M-35.28,157.86l-4.44-2.547v-5.026A.561.561,0,0,0-40,149.8l-4.72-2.7a.56.56,0,0,0-.56,0L-50,149.8a.561.561,0,0,0-.28.484v5.026l-4.44,2.547a.561.561,0,0,0-.28.484v5.414a.561.561,0,0,0,.28.484l4.72,2.707a0,0,0,0,1,0,0c.02.012.04.02.06.032h0a.353.353,0,0,0,.06.02s.012,0,.016,0a.2.2,0,0,0,.052.008.024.024,0,0,1,.016,0,.366.366,0,0,0,.068,0,.388.388,0,0,0,.068,0,.024.024,0,0,0,.016,0c.016,0,.036,0,.052-.008l.016,0a.352.352,0,0,0,.06-.02h0a.434.434,0,0,0,.06-.032,0,0,0,0,0,0,0L-45,164.4l4.44,2.547a0,0,0,0,1,0,0c.02.012.04.02.06.032h0a.352.352,0,0,0,.06.02l.016,0a.2.2,0,0,0,.052.008.024.024,0,0,1,.016,0,.366.366,0,0,0,.068,0,.388.388,0,0,0,.068,0,.024.024,0,0,0,.016,0c.016,0,.036,0,.052-.008l.016,0a.352.352,0,0,0,.06-.02h0a.434.434,0,0,0,.06-.032,0,0,0,0,0,0,0l4.72-2.707a.561.561,0,0,0,.28-.484V158.34A.559.559,0,0,0-35.28,157.86Zm-5,2.671-3.708-2.127,3.708-2.127,3.708,2.127Zm-5.28-7.09v3.935l-3.6-2.063v-3.931Zm4.72,1.871-3.6,2.063v-3.935l3.6-2.059Zm-8.88.964,3.708,2.127-3.708,2.127-3.708-2.127Zm.56,5.222,3.6-2.063v4l-3.6,2.059ZM-45,148.224l3.708,2.127L-45,152.478l-3.708-2.127Zm-8.88,11.212,3.6,2.063v4l-3.6-2.067Zm9.44,0,3.6,2.063v4l-3.6-2.067Zm4.72,6.058V161.5l3.6-2.063v4Z" fill="#098de6"/>
  </g>
</svg>
