<svg xmlns="http://www.w3.org/2000/svg" width="24" height="24" viewBox="0 0 24 24">
  <g id="prjlist-white" transform="translate(-7046 -5301)">
    <path id="Path_827" data-name="Path 827" d="M0,0H24V24H0Z" transform="translate(7046 5301)" fill="none"/>
    <g id="Group_2490" data-name="Group 2490" transform="translate(7049 5301)">
      <path id="Path_895" data-name="Path 895" d="M49.718,23.4H45.58a2.184,2.184,0,0,1-2.18-2.18V17.108a2.04,2.04,0,0,1,.073-.539,1.072,1.072,0,0,1,.759-.784,1.107,1.107,0,0,1,1.053.269l5.437,5.437a1.08,1.08,0,0,1,.269,1.078,1.1,1.1,0,0,1-.808.759A1.538,1.538,0,0,1,49.718,23.4ZM45.58,19.435V21.2h1.763Z" transform="translate(-35.71 -12.137)" fill="#fff"/>
      <path id="Path_896" data-name="Path 896" d="M25.151,35.118H14.18A2.184,2.184,0,0,1,12,32.939V16.58a2.184,2.184,0,0,1,2.18-2.18h6.955a1.074,1.074,0,0,1,.759.318l5.094,5.094a1.12,1.12,0,0,1,.318.759V32.914A2.154,2.154,0,0,1,25.151,35.118ZM14.18,16.58V32.939H25.151v-11.9L20.694,16.58Z" transform="translate(-12 -11.118)" fill="#fff"/>
      <path id="Path_897" data-name="Path 897" d="M38.476,21.718H36.247a1.1,1.1,0,0,1,0-2.2h2.229V7.637L33.994,3.18H27.5v2.18a1.1,1.1,0,1,1-2.2,0V3.18A2.184,2.184,0,0,1,27.48,1h6.955a1.074,1.074,0,0,1,.759.318l5.094,5.094a1.12,1.12,0,0,1,.318.759V19.514A2.119,2.119,0,0,1,38.476,21.718Z" transform="translate(-22.043 -1)" fill="#fff"/>
    </g>
  </g>
</svg>
