<svg xmlns="http://www.w3.org/2000/svg" xmlns:xlink="http://www.w3.org/1999/xlink" width="24" height="24" viewBox="0 0 24 24">
  <defs>
    <clipPath id="clip-project-repo-white">
      <rect width="24" height="24"/>
    </clipPath>
  </defs>
  <g id="project-repo-white" clip-path="url(#clip-project-repo-white)">
    <path id="Path_843" data-name="Path 843" d="M19,5.789h2.666A2.6,2.6,0,0,1,24.33,8.316v10.32a3.772,3.772,0,0,1,2.61,4.215,4.043,4.043,0,0,1-7.886,0,3.772,3.772,0,0,1,2.61-4.215V8.316H19V12.1L13,7.052,19,2ZM5.667,10.627a3.772,3.772,0,0,1-2.61-4.215A3.945,3.945,0,0,1,7,3.262a3.945,3.945,0,0,1,3.943,3.15,3.772,3.772,0,0,1-2.61,4.215v8.008a3.772,3.772,0,0,1,2.61,4.215A3.945,3.945,0,0,1,7,26a3.945,3.945,0,0,1-3.943-3.15,3.772,3.772,0,0,1,2.61-4.215ZM7,8.316A1.3,1.3,0,0,0,8.333,7.052a1.335,1.335,0,0,0-2.666,0A1.3,1.3,0,0,0,7,8.316ZM7,23.473A1.265,1.265,0,1,0,5.667,22.21,1.3,1.3,0,0,0,7,23.473Zm16,0a1.265,1.265,0,1,0-1.333-1.263A1.3,1.3,0,0,0,23,23.473Z" transform="translate(-2.998 -2)" fill="#fff"/>
  </g>
</svg>
