<svg xmlns="http://www.w3.org/2000/svg" width="38" height="38" viewBox="0 0 38 38">
  <g id="Group_1231" data-name="Group 1231" transform="translate(-1845 -15)">
    <circle id="Ellipse_388" data-name="Ellipse 388" cx="19" cy="19" r="19" transform="translate(1845 15)" fill="#a3adb7"/>
    <g id="Group_1230" data-name="Group 1230" transform="translate(-0.163 0.181)">
      <path id="Path_986" data-name="Path 986" d="M-1065.052,767.648a6.474,6.474,0,0,1,1.71.362,7.486,7.486,0,0,1,4.738,4.814.44.44,0,0,1-.062.43,12.923,12.923,0,0,1-8.873,5.841,13.025,13.025,0,0,1-12.97-5.7.744.744,0,0,1-.083-.764,7.467,7.467,0,0,1,6.192-4.969c.062-.01.126-.009.194-.013a2.34,2.34,0,0,0,1.6,1.854,7.34,7.34,0,0,0,5.954,0,3.268,3.268,0,0,0,.492-.271A2.18,2.18,0,0,0-1065.052,767.648Z" transform="translate(2933.824 -733.032)" fill="#fff"/>
      <path id="Path_987" data-name="Path 987" d="M-1031.387,654.11a5.833,5.833,0,0,1,5.284,3.679,6.715,6.715,0,0,1,.414,3.312,12.567,12.567,0,0,1-.648,3.025,7.632,7.632,0,0,1-2.256,3.358,4.253,4.253,0,0,1-3.021,1.052,4.441,4.441,0,0,1-2.763-1.228,7.41,7.41,0,0,1-1.81-2.588,11.248,11.248,0,0,1-.93-4.858,5.918,5.918,0,0,1,4.58-5.6C-1032.161,654.184-1031.771,654.161-1031.387,654.11Z" transform="translate(2895.576 -633.291)" fill="#fff"/>
    </g>
  </g>
</svg>
