<svg xmlns="http://www.w3.org/2000/svg" width="30" height="30" viewBox="0 0 40 40">
  <g id="_17-Report" data-name="17-Report" transform="translate(-0.215 -0.215)">
    <rect id="Rectangle_4" data-name="Rectangle 4" width="11" height="3" transform="translate(26.215 9.215)" fill="none" stroke="#0062cf" stroke-linejoin="round" stroke-width="2"/>
    <line id="Line_3" data-name="Line 3" x2="7" transform="translate(25.215 15.215)" fill="none" stroke="#0062cf" stroke-linejoin="round" stroke-width="2"/>
    <line id="Line_4" data-name="Line 4" x1="2" transform="translate(35.215 15.215)" fill="none" stroke="#0062cf" stroke-linejoin="round" stroke-width="2"/>
    <line id="Line_5" data-name="Line 5" x1="1" transform="translate(33.215 15.215)" fill="none" stroke="#0062cf" stroke-linejoin="round" stroke-width="2"/>
    <path id="Path_163" data-name="Path 163" d="M35.368,15H31.624a.611.611,0,0,0-.624.624v1.248" transform="translate(-11.281 -5.264)" fill="none" stroke="#0062cf" stroke-linejoin="round" stroke-width="2"/>
    <rect id="Rectangle_5" data-name="Rectangle 5" width="38" height="38" rx="2" transform="translate(1.215 1.215)" fill="none" stroke="#0062cf" stroke-linejoin="round" stroke-width="2"/>
    <line id="Line_6" data-name="Line 6" x2="38" transform="translate(1.215 6.215)" fill="none" stroke="#0062cf" stroke-linejoin="round" stroke-width="2"/>
    <line id="Line_7" data-name="Line 7" x2="1" transform="translate(3.215 3.215)" fill="none" stroke="#0062cf" stroke-linejoin="round" stroke-width="2"/>
    <line id="Line_8" data-name="Line 8" x2="2" transform="translate(5.215 3.215)" fill="none" stroke="#0062cf" stroke-linejoin="round" stroke-width="2"/>
    <line id="Line_9" data-name="Line 9" x2="1" transform="translate(37.215 3.215)" fill="none" stroke="#0062cf" stroke-linejoin="round" stroke-width="2"/>
    <path id="Path_164" data-name="Path 164" d="M5,17H7.5a1.222,1.222,0,0,1,1.248,1.248V38.214a1.222,1.222,0,0,0,1.248,1.248H32.454A1.222,1.222,0,0,1,33.7,40.71v1.872" transform="translate(-1.504 -6.016)" fill="none" stroke="#0062cf" stroke-linejoin="round" stroke-width="2"/>
    <rect id="Rectangle_6" data-name="Rectangle 6" width="4" height="10" transform="translate(10.215 23.215)" fill="none" stroke="#0062cf" stroke-linejoin="round" stroke-width="2"/>
    <rect id="Rectangle_7" data-name="Rectangle 7" width="4" height="14" transform="translate(14.215 19.215)" fill="none" stroke="#0062cf" stroke-linejoin="round" stroke-width="2"/>
    <rect id="Rectangle_8" data-name="Rectangle 8" width="4" height="20" transform="translate(18.215 13.215)" fill="none" stroke="#0062cf" stroke-linejoin="round" stroke-width="2"/>
    <rect id="Rectangle_9" data-name="Rectangle 9" width="3" height="7" transform="translate(22.215 26.215)" fill="none" stroke="#0062cf" stroke-linejoin="round" stroke-width="2"/>
    <rect id="Rectangle_10" data-name="Rectangle 10" width="4" height="14" transform="translate(25.215 19.215)" fill="none" stroke="#0062cf" stroke-linejoin="round" stroke-width="2"/>
  </g>
</svg>
