<svg id="Expanded" xmlns="http://www.w3.org/2000/svg" width="25.358" height="25.357" viewBox="0 0 25.358 25.357">
  <g id="Group_285" data-name="Group 285">
    <g id="Group_281" data-name="Group 281" transform="translate(0 2.113)">
      <path id="Path_505" data-name="Path 505" d="M19.546,27.244H0V4H15.32a.528.528,0,0,1,0,1.057H1.057V26.187H18.49V14.565a.528.528,0,1,1,1.057,0Z" transform="translate(0 -4)"/>
    </g>
    <g id="Group_282" data-name="Group 282" transform="translate(11.622 8.981)">
      <path id="Path_506" data-name="Path 506" d="M22,17" transform="translate(-22 -17)"/>
    </g>
    <g id="Group_283" data-name="Group 283" transform="translate(10.901)">
      <path id="Path_507" data-name="Path 507" d="M21.165,14.455a.529.529,0,0,1-.473-.764L22.185,10.7a.518.518,0,0,1,.1-.137L32.371.479A1.542,1.542,0,0,1,33.475,0a1.654,1.654,0,0,1,1.5,1.03,1.513,1.513,0,0,1-.361,1.69L24.527,12.806a.543.543,0,0,1-.137.1L21.4,14.4A.527.527,0,0,1,21.165,14.455Zm1.928-3.2-.747,1.494L23.84,12,33.865,1.973A.466.466,0,0,0,34,1.434a.614.614,0,0,0-.523-.378.505.505,0,0,0-.357.17Z" transform="translate(-20.636 0)"/>
    </g>
    <g id="Group_284" data-name="Group 284" transform="translate(20.987 1.818)">
      <path id="Path_508" data-name="Path 508" d="M41.751,5.993a.529.529,0,0,1-.374-.155L39.883,4.344a.529.529,0,0,1,.748-.748l1.494,1.494a.529.529,0,0,1-.373.9Z" transform="translate(-39.728 -3.442)"/>
    </g>
  </g>
</svg>
