<svg id="Layer_1" data-name="Layer 1" xmlns="http://www.w3.org/2000/svg" viewBox="0 0 1134.91 271.11"><defs><style>.cls-1{isolation:isolate;}.cls-2{fill:#001c47;}.cls-3{fill:#f99d1c;}.cls-4{fill:#00a0e4;}</style></defs><g id="Group_2426" data-name="Group 2426"><g id="Group_2424" data-name="Group 2424"><g id="EZ" class="cls-1"><g class="cls-1"><path class="cls-2" d="M452,140.61H375.51v66.71h87.93V219H361.69V55.48H462.88V67.16H375.51v61.77H452Z" transform="translate(0 -3)"/><path class="cls-2" d="M498.71,207.32h101V219H482V208.56l97-141.4H484.89V55.48H596.07v9.79Z" transform="translate(0 -3)"/></g></g><g id="Flow" class="cls-1"><g class="cls-1"><path class="cls-2" d="M722.41,152.18H657.72V219H624V55.48H730.49V82.77H657.72V125h64.69Z" transform="translate(0 -3)"/><path class="cls-2" d="M782.15,219H749.59V46.5h32.56Z" transform="translate(0 -3)"/><path class="cls-2" d="M803.83,157.12q0-18.08,7-32.23A51,51,0,0,1,830.84,103q13.08-7.76,30.38-7.75,24.59,0,40.15,15.05t17.35,40.88l.22,8.31q0,28-15.61,44.86t-41.89,16.91q-26.28,0-41.94-16.85t-15.67-45.82Zm32.46,2.3q0,17.33,6.51,26.49t18.64,9.17q11.79,0,18.42-9.06t6.63-29q0-17-6.63-26.32t-18.64-9.33q-11.91,0-18.42,9.28T836.29,159.42Z" transform="translate(0 -3)"/><path class="cls-2" d="M1044.61,174.86l16-77.37h31.33l-31,121.51h-27.17l-23-76.48-23,76.48H960.61l-31-121.51h31.33l15.84,77.26L999,97.49h23.47Z" transform="translate(0 -3)"/></g></g></g><g id="Group_2425" data-name="Group 2425"><path id="Path_850" data-name="Path 850" class="cls-2" d="M1116.45,47A18.46,18.46,0,1,1,1098,65.45,18.46,18.46,0,0,1,1116.45,47Zm-14.74,18.45a14.74,14.74,0,1,0,14.74-14.74,14.75,14.75,0,0,0-14.74,14.74Z" transform="translate(0 -3)"/><path id="Path_851" data-name="Path 851" class="cls-2" d="M1110,73.08V58h6.26a8.71,8.71,0,0,1,2.91.44,3.83,3.83,0,0,1,1.85,1.24,3.62,3.62,0,0,1,.62,1.58,6.84,6.84,0,0,1-.09,2.3,3.65,3.65,0,0,1-2,2.2c-.18.08-.44.17-.62.26.09,0,.18.09.27.09a3.32,3.32,0,0,1,1.5,1.14,9.06,9.06,0,0,1,.88,1.5c.7,1.41,1.41,2.74,2,4.15a.21.21,0,0,0,.08.17h-4c-.09,0-.18,0-.18-.08-.61-1.24-1.23-2.56-1.85-3.79a6.73,6.73,0,0,0-.53-.89,2,2,0,0,0-1.5-.88c-.53-.08-1.05,0-1.58-.08v5.72Zm3.88-12.26V64.7h1.94c.26,0,.53-.09.7-.09a1.52,1.52,0,0,0,1.15-1.14,4.75,4.75,0,0,0,.09-1.06,1.39,1.39,0,0,0-.27-.79,1.63,1.63,0,0,0-1.15-.71,11.89,11.89,0,0,0-2.46-.08Z" transform="translate(0 -3)"/></g><g id="Group_2423" data-name="Group 2423"><path id="Path_852" data-name="Path 852" class="cls-3" d="M141.2,183a78.47,78.47,0,0,1-9.9-7.4c-9.2-7.3-18.3-14.7-27.6-21.9a160,160,0,0,0-25.2-16.3A109,109,0,0,0,40.7,126a124.2,124.2,0,0,0-30.4.4c-2.4.3-4.8.6-7.1,1-3.1.4-3.2.3-3.2-2.7a76.55,76.55,0,0,1,1.1-11.6A146.4,146.4,0,0,1,7.8,85.5c.9-2.5,2-3.7,4.8-3.8a251.13,251.13,0,0,1,27.3.1,143.9,143.9,0,0,1,54,15.4c12.4,6.3,23.9,14.2,34.9,22.7,3.7,2.9,7.3,5.8,11,8.7.7.6,1.3,1.3,2,2a13,13,0,0,1,1.1,5.8v40.9C142.6,179.25,142.9,181.35,141.2,183Z" transform="translate(0 -3)"/><path id="Path_853" data-name="Path 853" class="cls-4" d="M141.6,42c3,2.3,6,4.5,9,6.8a177.69,177.69,0,0,0,28,18A109.17,109.17,0,0,0,220.9,78a141.33,141.33,0,0,0,44.9-4.6c.5-.1,1-.3,1.5-.4a1.55,1.55,0,0,1,2,.9h0c.4.9.8,1.7,1.2,2.5a141.94,141.94,0,0,1,10.3,36.1c.3,1.8.1,2.2-1.5,2.7q-7.05,2.1-14.4,3.6a178.61,178.61,0,0,1-47.9,3,141.59,141.59,0,0,1-46.5-11.4,172.48,172.48,0,0,1-26.7-14.7,24.07,24.07,0,0,1-2.5-2,10.13,10.13,0,0,1-1.2-5.4V47.15C140.1,45.25,139.8,43.35,141.6,42Z" transform="translate(0 -3)"/><path id="Path_854" data-name="Path 854" class="cls-4" d="M141.2,183c.1-1.5.2-2.9.2-4.4V135c0-1.5.1-2.9.1-4.4,2.5,2,5.1,3.9,7.6,5.9,7.4,5.9,14.9,11.8,22.8,17a121.8,121.8,0,0,0,34,16,116.11,116.11,0,0,0,33.7,3.9,134.31,134.31,0,0,0,35.2-5c.7-.2,1.5-.3,2.2-.5.8.7.3,1.4.1,2A140,140,0,0,1,256,214.6a4.87,4.87,0,0,1-3.9,2.4c-1.2,0-2.4.2-3.6.2-4.9.1-9.9.2-14.8.2a142.79,142.79,0,0,1-61.8-15,195.47,195.47,0,0,1-29-17.9C142.3,184.05,141.8,183.45,141.2,183Z" transform="translate(0 -3)"/><path id="Path_855" data-name="Path 855" class="cls-3" d="M141.2,272c-2.8-1.6-5.1-3.8-7.6-5.8-8.7-6.9-17.2-14-26.2-20.5-9.8-7.1-20-13.3-31.4-17.6a102.76,102.76,0,0,0-30.4-6.8c-4.4-.3-8.8-.6-13.2-.5a3.6,3.6,0,0,1-3.2-1.3A139.8,139.8,0,0,1,7.7,179.9a1.8,1.8,0,0,0-.1-.6,7.68,7.68,0,0,1,4-1c6.5-.5,13-1.2,19.6-1.4a148.43,148.43,0,0,1,22,1.1,142.39,142.39,0,0,1,40.5,10.9,177.35,177.35,0,0,1,31.9,18.3c4.6,3.3,9,6.7,13.5,10.1.8.6,1.6,1.4,2.4,2.1a11.09,11.09,0,0,1,1.1,5v42.9C142.6,268.85,142.7,270.65,141.2,272Z" transform="translate(0 -3)"/><path id="Path_856" data-name="Path 856" class="cls-3" d="M141.6,42c-.1,1.5-.1,2.9-.1,4.4V89.2c0,1.5-.1,2.9-.1,4.4a111.65,111.65,0,0,1-12.7-9c-9.2-7.3-18.4-14.7-27.6-22A230.21,230.21,0,0,0,78.2,46.4a109.89,109.89,0,0,0-34-13.8c-.3-.1-.5-.1-.8-.2A.81.81,0,0,1,43,31.33a.79.79,0,0,1,.14-.23c1.4-1.4,2.9-2.8,4.4-4.1A141.54,141.54,0,0,1,83.8,3.65a5.63,5.63,0,0,1,5.6.2,214.82,214.82,0,0,1,28.4,18.8c7.7,6,15.3,12.1,22.9,18.2C140.9,41.05,141.2,41.55,141.6,42Z" transform="translate(0 -3)"/><path id="Path_857" data-name="Path 857" class="cls-4" d="M141.2,272c.1-1.5.2-2.9.2-4.4v-44c0-1.5.1-2.9.2-4.4,4.6,3.6,9.2,7.3,13.8,10.9,6.9,5.5,13.8,11,21,16.1a143.12,143.12,0,0,0,22.1,12.9,23.27,23.27,0,0,1,2.1,1.1c-.5,1.3-1.6,1.4-2.6,1.9a141.86,141.86,0,0,1-27.7,9,164.13,164.13,0,0,1-24.2,3C144,274.15,142.4,273.75,141.2,272Z" transform="translate(0 -3)"/></g></g></svg>
