<svg xmlns="http://www.w3.org/2000/svg" width="32" height="32" viewBox="0 0 46 46"><g data-name="Group 208" transform="translate(-140 -156)"><circle cx="23" cy="23" r="23" fill="#0062cf" data-name="Ellipse 39" transform="translate(140 156)"/><g transform="translate(44.555 104.34)"><path fill="#fff" d="M126.3,69.455a1.112,1.112,0,0,0-.169-.294l-4.042-4.423a1.117,1.117,0,0,0-.323-.236.982.982,0,0,0-.458-.1h-7.712a1.126,1.126,0,0,0-1.095,1.153V81.72a1.167,1.167,0,0,0,1.095,1.2H125.32a1.148,1.148,0,0,0,1.071-1.2V69.947A1.192,1.192,0,0,0,126.3,69.455Zm-11.484.453c0-.072.087-.1.164-.1h3.415c.077,0,.135.029.135.1v.521a.147.147,0,0,1-.135.15h-3.415a.18.18,0,0,1-.164-.15Zm0,6.174c0-.072.087-.1.164-.1h5.894c.077,0,.116.029.116.1V76.6c0,.068-.034.15-.116.15h-5.894a.18.18,0,0,1-.164-.15Zm7.717,3.608c0,.068-.034.15-.116.15h-7.437a.18.18,0,0,1-.164-.15v-.521c0-.072.087-.1.164-.1h7.437c.077,0,.116.029.116.1v.521Zm1.543-6.174c0,.068-.034.15-.116.15h-8.981a.18.18,0,0,1-.164-.15v-.521c0-.072.087-.1.164-.1h8.981c.077,0,.116.029.116.1Zm-2.262-3.661a.562.562,0,0,1-.535-.545V66.127l3.434,3.728Z" data-name="Path 234"/></g></g></svg>