<svg xmlns="http://www.w3.org/2000/svg" width="33.756" height="33.756" data-name="iconfinder_server-web-hosting-storage-data_2205217 (1)" viewBox="0 0 33.756 33.756"><path fill="#0062cf" d="M0,9.377H33.756V0H0Zm25.317-7.5h6.329V5.626H25.317Zm-14.768,0h4.219V3.751H10.549Zm0,3.751h4.219V7.5H10.549ZM4.219,1.875H8.439V3.751H4.219Zm0,3.751H8.439V7.5H4.219Z" data-name="Path 208"/><path fill="#0062cf" d="M0,15.377H14.768V21H0v3.751H33.756V21H18.988V15.377H33.756V6H0Zm25.317-7.5h6.329v3.751H25.317Zm-14.768,0h4.219V9.751H10.549Zm0,3.751h4.219V13.5H10.549ZM4.219,7.875H8.439V9.751H4.219Zm0,3.751H8.439V13.5H4.219Z" data-name="Path 209" transform="translate(0 9.003)"/></svg>