<svg id="settings" xmlns="http://www.w3.org/2000/svg" width="25.053" height="25.053" viewBox="0 0 25.053 25.053">
  <path id="Path_363" data-name="Path 363" d="M13.313,25.053H11.74a2.309,2.309,0,0,1-2.306-2.306v-.532a10.114,10.114,0,0,1-1.571-.652l-.377.377a2.306,2.306,0,0,1-3.262,0L3.113,20.828a2.306,2.306,0,0,1,0-3.262l.377-.377a10.115,10.115,0,0,1-.652-1.571H2.306A2.309,2.309,0,0,1,0,13.313V11.74A2.309,2.309,0,0,1,2.306,9.434h.532A10.117,10.117,0,0,1,3.49,7.863l-.377-.377a2.306,2.306,0,0,1,0-3.262L4.225,3.113a2.306,2.306,0,0,1,3.262,0l.377.377a10.124,10.124,0,0,1,1.571-.652V2.306A2.309,2.309,0,0,1,11.74,0h1.572a2.309,2.309,0,0,1,2.306,2.306v.532a10.114,10.114,0,0,1,1.571.652l.377-.377a2.306,2.306,0,0,1,3.262,0L21.94,4.225a2.306,2.306,0,0,1,0,3.262l-.377.377a10.115,10.115,0,0,1,.652,1.571h.532a2.309,2.309,0,0,1,2.306,2.306v1.572a2.309,2.309,0,0,1-2.306,2.306h-.532a10.117,10.117,0,0,1-.652,1.571l.377.377a2.306,2.306,0,0,1,0,3.262L20.828,21.94a2.306,2.306,0,0,1-3.262,0l-.377-.377a10.123,10.123,0,0,1-1.571.652v.532A2.309,2.309,0,0,1,13.313,25.053Zm-5.2-5.032a8.652,8.652,0,0,0,2.243.931.734.734,0,0,1,.551.711v1.084a.839.839,0,0,0,.838.838h1.572a.839.839,0,0,0,.838-.838V21.663a.734.734,0,0,1,.551-.711,8.652,8.652,0,0,0,2.243-.931.734.734,0,0,1,.893.113l.768.768a.838.838,0,0,0,1.185,0L20.9,19.79a.838.838,0,0,0,0-1.185l-.768-.768a.734.734,0,0,1-.113-.893,8.65,8.65,0,0,0,.931-2.243.734.734,0,0,1,.711-.551h1.084a.839.839,0,0,0,.838-.838V11.74a.839.839,0,0,0-.838-.838H21.663a.734.734,0,0,1-.711-.551,8.652,8.652,0,0,0-.931-2.243.734.734,0,0,1,.113-.893l.768-.768a.838.838,0,0,0,0-1.185L19.79,4.151a.838.838,0,0,0-1.185,0l-.768.768a.734.734,0,0,1-.893.113A8.652,8.652,0,0,0,14.7,4.1a.734.734,0,0,1-.551-.711V2.306a.839.839,0,0,0-.838-.838H11.74a.839.839,0,0,0-.838.838V3.39a.734.734,0,0,1-.551.711,8.652,8.652,0,0,0-2.243.931.734.734,0,0,1-.893-.113l-.768-.768a.838.838,0,0,0-1.185,0L4.151,5.263a.838.838,0,0,0,0,1.185l.768.768a.734.734,0,0,1,.113.893A8.65,8.65,0,0,0,4.1,10.351a.734.734,0,0,1-.711.551H2.306a.839.839,0,0,0-.838.838v1.572a.839.839,0,0,0,.838.838H3.39A.734.734,0,0,1,4.1,14.7a8.652,8.652,0,0,0,.931,2.243.734.734,0,0,1-.113.893l-.768.768a.838.838,0,0,0,0,1.185L5.263,20.9a.838.838,0,0,0,1.185,0l.768-.768a.737.737,0,0,1,.893-.113Z" transform="translate(0 0)" fill="#5d5d5d"/>
  <path id="Path_364" data-name="Path 364" d="M150.051,155.5a5.451,5.451,0,1,1,5.451-5.451A5.457,5.457,0,0,1,150.051,155.5Zm0-9.434a3.983,3.983,0,1,0,3.983,3.983A3.987,3.987,0,0,0,150.051,146.068Z" transform="translate(-137.525 -137.525)" fill="#5d5d5d"/>
</svg>
