<svg width="36" height="36" viewBox="0 0 36 36" fill="none" xmlns="http://www.w3.org/2000/svg">
<path d="M10.7904 4.33392H8.90625C6.74889 4.33392 5 6.07501 5 8.22274V30.1112C5 32.2589 6.74889 34 8.90625 34H26.0937C28.2511 34 30 32.2589 30 30.1112V8.22274C30 6.07501 28.2511 4.33392 26.0937 4.33392H24.4393" stroke="#979797" stroke-width="1.5"/>
<path d="M10.4698 4.33329C10.4698 3.04465 11.5192 2 12.8136 2H22.1886C23.483 2 24.5323 3.04465 24.5323 4.33329C24.5323 5.62193 23.483 6.66658 22.1886 6.66658H12.8136C11.5192 6.66658 10.4698 5.62193 10.4698 4.33329Z" stroke="#979797" stroke-width="1.5"/>
<path d="M15.6941 28.8488C15.2478 29.3316 14.4582 28.9177 14.5868 28.2683L15.5194 23.5597C15.5822 23.2426 15.4089 22.9261 15.1106 22.8131L10.5817 21.0982C10.1479 20.9339 10.0188 20.3736 10.3358 20.0308L18.5427 11.1515C18.989 10.6687 19.7786 11.0826 19.65 11.732L18.7174 16.4406C18.6546 16.7577 18.8279 17.0743 19.1262 17.1872L23.6551 18.9022C24.0889 19.0664 24.218 19.6267 23.901 19.9696L15.6941 28.8488Z" fill="#098DE6"/>
</svg>
