<svg width="54" height="48" viewBox="0 0 54 48" fill="none" xmlns="http://www.w3.org/2000/svg">
<path d="M52.5554 41.8889C52.5554 43.2444 52.017 44.5445 51.0584 45.503C50.0999 46.4615 48.7999 47 47.4443 47H6.55545C5.1999 47 3.89986 46.4615 2.94135 45.503C1.98283 44.5445 1.44434 43.2444 1.44434 41.8889V6.11111C1.44434 4.75556 1.98283 3.45553 2.94135 2.49701C3.89986 1.53849 5.1999 1 6.55545 1H19.3332L24.4443 8.66667H47.4443C48.7999 8.66667 50.0999 9.20516 51.0584 10.1637C52.017 11.1222 52.5554 12.4222 52.5554 13.7778V41.8889Z" stroke="#098DE6" stroke-width="2" stroke-linecap="round" stroke-linejoin="round"/>
<path d="M27 21.4443V36.7777" stroke="#098DE6" stroke-width="2" stroke-linecap="round" stroke-linejoin="round"/>
<path d="M19.333 29.1113H34.6663" stroke="#098DE6" stroke-width="2" stroke-linecap="round" stroke-linejoin="round"/>
</svg>
