<svg width="33" height="40" viewBox="0 0 33 40" fill="none" xmlns="http://www.w3.org/2000/svg">
<path d="M6 7.90454C6 5.14311 8.23858 2.90454 11 2.90454H25.9994V20.7133C25.9994 24.027 23.3131 26.7133 19.9994 26.7133H12C8.6863 26.7133 6 24.027 6 20.7133V7.90454Z" fill="white"/>
<path d="M6 6.55658C6 4.63899 7.55452 3.08447 9.47211 3.08447H24.7494C26.667 3.08447 28.2215 4.63899 28.2215 6.55658V26.0996C28.2215 28.0172 26.667 29.5717 24.7494 29.5717H9.47211C7.55452 29.5717 6 28.0172 6 26.0996V6.55658Z" stroke="#979797" stroke-width="1.5"/>
<path d="M10.8624 3.08327C10.8624 1.93271 11.7951 1 12.9456 1H21.2787C22.4292 1 23.362 1.93271 23.362 3.08327C23.362 4.23382 22.4292 5.16653 21.2787 5.16653H12.9456C11.7951 5.16653 10.8624 4.23382 10.8624 3.08327Z" fill="white" stroke="#979797" stroke-width="1.5"/>
<g filter="url(#filter0_d_210_5273)">
<path d="M15.5013 24.9731C15.1046 25.4042 14.4027 25.0346 14.5171 24.4548L15.346 20.2508C15.4018 19.9676 15.2478 19.685 14.9826 19.5841L10.9571 18.0529C10.5715 17.9063 10.4567 17.4061 10.7385 17.0999L18.0333 9.17214C18.43 8.74104 19.1318 9.11062 19.0175 9.69042L18.1885 13.8945C18.1327 14.1776 18.2868 14.4602 18.5519 14.5611L22.5775 16.0923C22.963 16.2389 23.0778 16.7391 22.7961 17.0453L15.5013 24.9731Z" fill="#098DE6"/>
</g>
<defs>
<filter id="filter0_d_210_5273" x="0.582153" y="2.98438" width="32.3702" height="36.1765" filterUnits="userSpaceOnUse" color-interpolation-filters="sRGB">
<feFlood flood-opacity="0" result="BackgroundImageFix"/>
<feColorMatrix in="SourceAlpha" type="matrix" values="0 0 0 0 0 0 0 0 0 0 0 0 0 0 0 0 0 0 127 0" result="hardAlpha"/>
<feOffset dy="4"/>
<feGaussianBlur stdDeviation="5"/>
<feComposite in2="hardAlpha" operator="out"/>
<feColorMatrix type="matrix" values="0 0 0 0 0.0352941 0 0 0 0 0.552941 0 0 0 0 0.901961 0 0 0 0.2 0"/>
<feBlend mode="normal" in2="BackgroundImageFix" result="effect1_dropShadow_210_5273"/>
<feBlend mode="normal" in="SourceGraphic" in2="effect1_dropShadow_210_5273" result="shape"/>
</filter>
</defs>
</svg>
