<svg width="50" height="50" viewBox="0 0 50 50" fill="none" xmlns="http://www.w3.org/2000/svg">
<path d="M32.6949 19.3638C32.9568 19.7389 33.1861 20.1356 33.3804 20.5498L36.1984 22.1166C36.5503 23.6925 36.554 25.3263 36.2093 26.9039L33.3804 28.4707C33.1861 28.8849 32.9568 29.2816 32.6949 29.6567L32.7493 32.8882C31.555 33.9764 30.1415 34.7963 28.6039 35.2927L25.8294 33.628C25.3729 33.6606 24.9149 33.6606 24.4584 33.628L21.6948 35.2818C20.1523 34.7945 18.7341 33.9777 17.5385 32.8882L17.593 29.6675C17.3331 29.2873 17.104 28.8871 16.9075 28.4707L14.0894 26.9039C13.7376 25.3279 13.7338 23.6942 14.0785 22.1166L16.9075 20.5498C17.1017 20.1356 17.331 19.7389 17.593 19.3638L17.5385 16.1323C18.7328 15.0441 20.1463 14.2242 21.6839 13.7278L24.4584 15.3925C24.9149 15.3599 25.3729 15.3599 25.8294 15.3925L28.593 13.7387C30.1355 14.226 31.5537 15.0428 32.7493 16.1323L32.6949 19.3638Z" fill="#098DE6"/>
<path d="M25.0284 28.7265C27.3548 28.7265 29.2408 26.8405 29.2408 24.5141C29.2408 22.1876 27.3548 20.3017 25.0284 20.3017C22.7019 20.3017 20.816 22.1876 20.816 24.5141C20.816 26.8405 22.7019 28.7265 25.0284 28.7265Z" fill="white"/>
<path d="M40.9105 26.3589L44.0664 29.5149L47.2222 26.3589" stroke="#979797" stroke-width="1.5" stroke-linecap="round" stroke-linejoin="round"/>
<path d="M2.77783 23.1968L6.19666 19.778L9.61548 23.1968" stroke="#979797" stroke-width="1.5" stroke-linecap="round" stroke-linejoin="round"/>
<path d="M44.0657 29.245V24.5113C44.0702 20.4202 42.7496 16.4378 40.3015 13.1601C37.8535 9.88231 34.4097 7.48556 30.4858 6.32856C26.5618 5.17157 22.3685 5.31657 18.5338 6.74185C14.6992 8.16713 11.4291 10.796 9.21338 14.235" stroke="#979797" stroke-width="1.5" stroke-linecap="round" stroke-linejoin="round"/>
<path d="M6.19581 19.778V24.5117C6.19135 28.6028 7.51196 32.5852 9.95999 35.8629C12.408 39.1407 15.8518 41.5375 19.7757 42.6944C23.6998 43.8514 27.893 43.7064 31.7277 42.2811C35.5624 40.8559 38.8324 38.2269 41.0482 34.788" stroke="#979797" stroke-width="1.5" stroke-linecap="round" stroke-linejoin="round"/>
</svg>
