<svg width="50" height="48" viewBox="0 0 50 48" fill="none" xmlns="http://www.w3.org/2000/svg">
<g filter="url(#filter0_d_210_3013)">
<path d="M33.354 15.933C33.6372 16.3386 33.8852 16.7677 34.0953 17.2156L37.1428 18.91C37.5234 20.6143 37.5274 22.3812 37.1546 24.0873L34.0953 25.7817C33.8852 26.2296 33.6372 26.6587 33.354 27.0643L33.4128 30.559C32.1212 31.7359 30.5926 32.6226 28.9297 33.1594L25.9292 31.3591C25.4356 31.3944 24.9402 31.3944 24.4466 31.3591L21.4579 33.1476C19.7897 32.6206 18.256 31.7373 16.963 30.559L17.0219 27.076C16.7409 26.6648 16.4931 26.232 16.2806 25.7817L13.233 24.0873C12.8525 22.3829 12.8484 20.6161 13.2212 18.91L16.2806 17.2156C16.4906 16.7677 16.7386 16.3386 17.0219 15.933L16.963 12.4383C18.2546 11.2614 19.7832 10.3747 21.4461 9.83789L24.4466 11.6382C24.9402 11.6029 25.4356 11.6029 25.9292 11.6382L28.9179 9.84966C30.5861 10.3767 32.1198 11.26 33.4128 12.4383L33.354 15.933Z" fill="#098DE6"/>
</g>
<path d="M25.0631 26.0583C27.579 26.0583 29.6186 24.0187 29.6186 21.5028C29.6186 18.9868 27.579 16.9473 25.0631 16.9473C22.5471 16.9473 20.5076 18.9868 20.5076 21.5028C20.5076 24.0187 22.5471 26.0583 25.0631 26.0583Z" fill="white"/>
<path d="M42.239 23.498L45.6519 26.911L49.0648 23.498" stroke="#979797" stroke-width="1.5" stroke-linecap="round" stroke-linejoin="round"/>
<path d="M1 20.0782L4.69731 16.3809L8.39462 20.0782" stroke="#979797" stroke-width="1.5" stroke-linecap="round" stroke-linejoin="round"/>
<path d="M45.6509 26.6191V21.4998C45.6558 17.0755 44.2276 12.7687 41.5801 9.22395C38.9327 5.67921 35.2084 3.08723 30.9648 1.83599C26.7212 0.584753 22.1864 0.74156 18.0393 2.28294C13.8923 3.82432 10.3559 6.66736 7.95967 10.3865" stroke="#979797" stroke-width="1.5" stroke-linecap="round" stroke-linejoin="round"/>
<path d="M4.6963 16.3809V21.5002C4.69147 25.9245 6.11966 30.2313 8.76709 33.776C11.4145 37.3208 15.1388 39.9128 19.3824 41.164C23.6261 42.4152 28.1608 42.2584 32.3079 40.717C36.455 39.1757 39.9913 36.3326 42.3876 32.6135" stroke="#979797" stroke-width="1.5" stroke-linecap="round" stroke-linejoin="round"/>
<defs>
<filter id="filter0_d_210_3013" x="2.94458" y="3.83789" width="44.4867" height="43.3213" filterUnits="userSpaceOnUse" color-interpolation-filters="sRGB">
<feFlood flood-opacity="0" result="BackgroundImageFix"/>
<feColorMatrix in="SourceAlpha" type="matrix" values="0 0 0 0 0 0 0 0 0 0 0 0 0 0 0 0 0 0 127 0" result="hardAlpha"/>
<feOffset dy="4"/>
<feGaussianBlur stdDeviation="5"/>
<feComposite in2="hardAlpha" operator="out"/>
<feColorMatrix type="matrix" values="0 0 0 0 0.0352941 0 0 0 0 0.552941 0 0 0 0 0.901961 0 0 0 0.2 0"/>
<feBlend mode="normal" in2="BackgroundImageFix" result="effect1_dropShadow_210_3013"/>
<feBlend mode="normal" in="SourceGraphic" in2="effect1_dropShadow_210_3013" result="shape"/>
</filter>
</defs>
</svg>
