<svg width="70" height="39" viewBox="0 0 70 39" fill="none" xmlns="http://www.w3.org/2000/svg">
<path d="M32.1632 34.196C31.6039 34.8529 31.775 35.9163 32.6374 35.8945C32.8888 35.8882 33.149 35.8321 33.3991 35.696C33.513 35.6339 33.6233 35.5735 33.7294 35.515C34.4138 35.1377 34.4475 34.1813 33.8016 33.7413C33.3511 33.4344 32.7417 33.5164 32.3884 33.9315L32.1632 34.196Z" fill="#FAB29A"/>
<path d="M32.1632 34.196C31.6039 34.8529 31.775 35.9163 32.6374 35.8945C32.8888 35.8882 33.149 35.8321 33.3991 35.696C33.513 35.6339 33.6233 35.5735 33.7294 35.515C34.4138 35.1377 34.4475 34.1813 33.8016 33.7413C33.3511 33.4344 32.7417 33.5164 32.3884 33.9315L32.1632 34.196Z" fill="white" stroke="#535353"/>
<path d="M48.5989 27.7694C48.0941 28.4708 47.0832 29.1872 45.1595 27.9368C45.1588 27.9363 45.1571 27.9376 45.1575 27.9385V27.9385C45.1988 28.0157 45.7549 29.0487 45.4178 30.2196C45.3817 30.348 45.3336 30.4774 45.2735 30.6078C45.2686 30.617 45.2651 30.6262 45.2602 30.6354C44.6051 32.0127 42.7895 32.0342 42.2967 31.8389C42.2961 31.8387 42.2955 31.8391 42.2955 31.8398V31.8398C42.2955 31.8399 42.2955 31.84 42.2955 31.8401C42.3069 31.8691 42.5957 32.6017 42.0362 33.452C41.9701 33.5524 41.8934 33.6538 41.8015 33.7576C40.9217 34.7475 39.7824 34.4505 39.4396 34.3182V34.3182C39.0901 34.1854 38.6032 34.3302 38.4188 34.6555C38.3691 34.7431 38.3118 34.831 38.2459 34.9153C37.9827 35.2525 37.5815 35.5314 36.9804 35.5075C36.016 35.4696 35.2718 35.149 34.4224 34.6132C34.2304 34.4928 34.0344 34.3612 33.8284 34.2197C33.563 34.0362 33.2819 33.8363 32.979 33.6212C31.5656 32.6181 26.4758 29.6553 25.3964 29.029C25.2598 28.9497 25.1372 28.8575 25.0226 28.7488C24.6598 28.4045 23.7672 27.5595 22.7795 26.6399C21.7405 25.6706 20.5966 24.6167 19.8581 23.9791C19.7612 23.8955 19.6559 23.8224 19.5444 23.7597L18.4763 23.1588L16.608 22.1086C15.6471 21.5684 15.3044 20.3525 15.8419 19.39L19.9918 11.9592C20.5117 11.0283 21.6703 10.6689 22.6257 11.1421L23.0905 11.3724L24.9355 12.3251C25.3344 12.5311 25.791 12.5969 26.2319 12.5119L31.3521 11.5245L31.8804 11.4208C32.4293 11.3131 32.9982 11.4401 33.4492 11.7711L37.1943 14.5204L47.5817 22.1481C47.9901 22.448 48.2695 22.8918 48.3633 23.3897L48.5745 24.5102C48.5789 24.5333 48.5852 24.556 48.5934 24.5781L48.9789 25.6156C48.9791 25.6162 48.9803 25.6183 48.9807 25.6188V25.6188C48.9808 25.6189 48.981 25.6191 48.981 25.6192C49.0248 25.7373 49.0472 25.8653 49.0472 25.9923V25.9923C49.0464 26.009 49.0473 26.0255 49.0469 26.0422C49.0364 26.4463 48.9664 27.2585 48.5989 27.7694Z" stroke="#979797" stroke-width="1.5"/>
<path d="M45.4181 30.2215C45.7553 29.0506 45.1991 28.0176 45.1578 27.9404V27.9404C45.1564 27.9369 45.1535 27.9344 45.1505 27.9322L39.9929 24.1816" stroke="#979797" stroke-width="1.5" stroke-linecap="round"/>
<path d="M42.0367 33.4543C42.2967 33.0591 42.3735 32.6893 42.3801 32.4036C42.3887 32.0296 42.1392 31.7192 41.8434 31.4901L37.8372 28.3867" stroke="#979797" stroke-width="1.5" stroke-linecap="round"/>
<path d="M38.246 34.9192V34.9192C38.691 34.3502 38.3375 33.5843 37.7428 33.1743L34.8726 31.1953" stroke="#979797" stroke-width="1.5" stroke-linecap="round"/>
<path d="M56.3263 19.8372C56.4375 20.2036 56.2255 20.5898 55.8567 20.6925L52.0211 21.9564C51.9399 21.9831 51.8675 22.0315 51.8086 22.0934C51.0395 22.9271 50.1133 23.5997 49.4504 24.0276C49.2688 24.1451 49.1073 24.2443 48.9743 24.3234C48.7537 24.4546 48.4739 24.385 48.3305 24.1721C48.0758 23.7946 47.7557 23.469 47.3889 23.2133L45.814 22.1179L42.8312 20.0431L42.2758 19.6562L41.9191 19.4087L35.5951 15.0102C35.3616 14.8486 35.0799 14.7866 34.8067 14.8317C34.7614 14.8389 34.7159 14.8509 34.6718 14.8645L32.7639 15.4528L32.6545 15.4869C32.618 15.4977 32.5799 15.5115 32.5447 15.5271C32.4224 15.5793 32.311 15.654 32.2151 15.7482C32.1571 15.8035 32.1046 15.8668 32.0595 15.9337C30.5121 18.2388 28.9808 18.9109 27.8532 18.9969C27.7103 19.0089 27.5754 19.0104 27.4469 19.0043C27.1524 18.9919 26.8956 18.9421 26.6858 18.8804C26.2307 18.7474 25.9998 18.2159 26.198 17.7644L28.4581 13.1946C28.658 12.7369 29.0052 12.3661 29.4395 12.1468L35.1166 9.27879C35.488 9.09102 35.9046 9.02455 36.3106 9.08615L45.3415 10.4736C45.6555 10.5219 45.9765 10.4946 46.2779 10.3941L48.8406 9.53958L50.8367 8.87451C51.9034 8.51911 53.0533 9.11253 53.3817 10.1878L55.9358 18.5517L56.3263 19.8372Z" fill="white" stroke="#979797" stroke-width="1.5"/>
<path d="M23.9248 29.7617C23.6645 29.7854 23.3689 29.7322 23.0623 29.564C22.1312 29.0566 21.3129 27.2821 21.8653 26.6272C21.9394 26.5393 22.0362 26.4681 22.1453 26.4319C22.3493 26.3642 22.7675 26.3433 23.4503 26.8182C24.0535 27.2388 24.4407 27.6334 24.6606 28.0186C24.8155 28.2894 24.8899 28.5532 24.8998 28.8186C24.9162 29.2615 24.5071 29.7078 23.9248 29.7617Z" fill="white" stroke="#979797" stroke-width="1.5"/>
<path d="M25.5147 32.3964C24.6127 32.1498 24.095 31.1578 24.3553 30.2185C24.5216 29.6164 24.8149 28.8025 25.3076 28.0796C26.2398 26.7097 28.6762 27.3398 28.5422 29.5558C28.5303 29.7527 28.4665 29.943 28.3809 30.1207L27.9546 31.0056C27.6063 31.7285 26.8972 32.4772 26.0947 32.4724C25.9064 32.4713 25.71 32.4496 25.5147 32.3964Z" fill="white" stroke="#979797" stroke-width="1.5"/>
<path d="M31.7458 31.6077L30.728 33.575C30.5129 33.9907 30.15 34.3203 29.6821 34.3311C29.2329 34.3414 28.6418 34.2475 28.1192 33.8188C28.0543 33.7656 27.9969 33.7127 27.9425 33.6599C27.4109 33.1412 27.3473 32.6332 27.3573 32.3736C27.362 32.2538 27.406 32.1411 27.4581 32.0331L28.4832 29.9052C28.5009 29.8685 28.5192 29.8331 28.5408 29.7986C28.6991 29.5463 29.452 28.468 30.5583 28.8216C30.5834 28.8291 30.61 28.8382 30.6364 28.8489C31.9287 29.3319 32.121 30.6142 31.7458 31.6077Z" fill="white" stroke="#979797" stroke-width="1.5"/>
<path d="M33.946 33.1677C33.8343 33.6329 33.5063 34.5805 33.3037 35.1507C33.1948 35.4571 33.0237 35.7769 32.7069 35.8503C32.4428 35.9116 32.0608 35.8801 31.4702 35.6231C31.2677 35.5351 31.102 35.4269 30.9683 35.3092C30.7589 35.1261 30.6255 34.922 30.5407 34.7405C30.3902 34.4183 30.4801 34.054 30.6436 33.7382L31.312 32.448C31.4373 32.206 31.6032 31.9782 31.8443 31.8511C32.1801 31.674 32.4912 31.6522 32.7667 31.7241C33.5361 31.9253 34.0191 32.8591 33.946 33.1677Z" fill="white" stroke="#979797" stroke-width="1.5"/>
<path d="M44.3066 19.3194C44.3401 19.2943 44.3729 19.2688 44.4052 19.2431C45.0656 18.716 44.3712 18.4111 43.6419 18.8379V18.8379M27.8518 18.9949C28.9809 18.9073 30.5107 18.2367 32.0581 15.9317C32.1033 15.8633 32.1557 15.8015 32.2137 15.7462C32.2357 15.7253 32.2576 15.706 32.281 15.6867C32.2857 15.6822 32.2903 15.6793 32.2965 15.6749C32.3187 15.658 32.341 15.6397 32.3645 15.6241C32.3668 15.6226 32.369 15.6209 32.3714 15.6194V15.6194C32.3733 15.6182 32.3751 15.6167 32.377 15.6154C32.3994 15.6001 32.423 15.5862 32.4466 15.5738C32.4513 15.5709 32.4558 15.5695 32.4604 15.5666C32.4881 15.5523 32.5157 15.5379 32.5448 15.5252C32.5616 15.5181 32.5784 15.5111 32.5967 15.5041C32.615 15.4971 32.6348 15.4902 32.6546 15.4849L32.764 15.4509L34.6719 14.8625C34.6932 14.8557 34.7144 14.8504 34.7356 14.8452C34.7417 14.8439 34.7477 14.8426 34.7538 14.8413C34.769 14.8373 34.7841 14.8349 34.7992 14.8325C35.0756 14.7829 35.3603 14.845 35.5952 15.0082L41.9192 19.4068L42.8313 20.0412L45.8142 22.1159L47.389 23.2113C47.7573 23.4671 48.0759 23.7927 48.3306 24.1701V24.1701C48.4741 24.3831 48.7539 24.453 48.9746 24.3218C49.1077 24.2426 49.2692 24.1434 49.4505 24.0257C50.1382 23.5801 51.111 22.8721 51.8972 21.9938" stroke="#979797" stroke-width="1.5"/>
<g filter="url(#filter0_d_210_3027)">
<path d="M52.8554 6.50759C53.8882 6.21216 54.9699 6.78537 55.3054 7.80587L59.0577 19.2201C59.4106 20.2938 58.8045 21.4464 57.7199 21.7641L52.3536 23.3358L50.9748 19.2052L49.8447 15.8715L49.5583 15.0254L47.5661 9.15157L47.4202 8.72289L47.2166 8.12056L52.8554 6.50759Z" fill="#098DE6"/>
</g>
<g filter="url(#filter1_d_210_3027)">
<path d="M18.6812 7.34744C17.715 6.87805 16.5505 7.2558 16.0438 8.20301L10.3763 18.7976C9.84314 19.7941 10.2411 21.0341 11.2545 21.5344L16.2687 24.0093L18.3402 20.179L20.0292 17.0906L20.4574 16.3067L23.4343 10.8653L23.6521 10.4683L23.9567 9.91017L18.6812 7.34744Z" fill="#098DE6"/>
</g>
<defs>
<filter id="filter0_d_210_3027" x="37.2166" y="0.430176" width="31.9418" height="36.9058" filterUnits="userSpaceOnUse" color-interpolation-filters="sRGB">
<feFlood flood-opacity="0" result="BackgroundImageFix"/>
<feColorMatrix in="SourceAlpha" type="matrix" values="0 0 0 0 0 0 0 0 0 0 0 0 0 0 0 0 0 0 127 0" result="hardAlpha"/>
<feOffset dy="4"/>
<feGaussianBlur stdDeviation="5"/>
<feComposite in2="hardAlpha" operator="out"/>
<feColorMatrix type="matrix" values="0 0 0 0 0.0352941 0 0 0 0 0.552941 0 0 0 0 0.901961 0 0 0 0.2 0"/>
<feBlend mode="normal" in2="BackgroundImageFix" result="effect1_dropShadow_210_3027"/>
<feBlend mode="normal" in="SourceGraphic" in2="effect1_dropShadow_210_3027" result="shape"/>
</filter>
<filter id="filter1_d_210_3027" x="0.139313" y="1.146" width="33.8174" height="36.8633" filterUnits="userSpaceOnUse" color-interpolation-filters="sRGB">
<feFlood flood-opacity="0" result="BackgroundImageFix"/>
<feColorMatrix in="SourceAlpha" type="matrix" values="0 0 0 0 0 0 0 0 0 0 0 0 0 0 0 0 0 0 127 0" result="hardAlpha"/>
<feOffset dy="4"/>
<feGaussianBlur stdDeviation="5"/>
<feComposite in2="hardAlpha" operator="out"/>
<feColorMatrix type="matrix" values="0 0 0 0 0.0352941 0 0 0 0 0.552941 0 0 0 0 0.901961 0 0 0 0.2 0"/>
<feBlend mode="normal" in2="BackgroundImageFix" result="effect1_dropShadow_210_3027"/>
<feBlend mode="normal" in="SourceGraphic" in2="effect1_dropShadow_210_3027" result="shape"/>
</filter>
</defs>
</svg>
