<svg width="36" height="36" viewBox="0 0 36 36" fill="none" xmlns="http://www.w3.org/2000/svg">
<path fill-rule="evenodd" clip-rule="evenodd" d="M18 2C9.17727 2 2 9.17725 2 18C2 26.8227 9.17727 34 18 34C26.8227 34 34 26.8227 34 18C34 9.17725 26.8227 2 18 2Z" stroke="#979797" stroke-width="1.5" stroke-linecap="round" stroke-linejoin="round"/>
<path d="M18.1676 29.5467C24.3871 29.5467 29.429 24.5048 29.429 18.2853C29.429 12.0659 24.3871 7.02399 18.1676 7.02399C11.9481 7.02399 6.90625 12.0659 6.90625 18.2853C6.90625 24.5048 11.9481 29.5467 18.1676 29.5467Z" fill="#098DE6"/>
<path d="M24.6901 13.9868L16.0927 22.2847L11.6506 18.1219" stroke="white" stroke-width="1.5" stroke-linecap="round" stroke-linejoin="round"/>
</svg>
