<svg width="36" height="36" viewBox="0 0 36 36" fill="none" xmlns="http://www.w3.org/2000/svg">
<g clip-path="url(#clip0_182_11502)">
<path d="M16.3774 26.1259C16.0123 26.5547 16.124 27.2489 16.687 27.2347C16.8511 27.2306 17.0209 27.1939 17.1842 27.1051C17.2586 27.0646 17.3306 27.0251 17.3998 26.9869C17.8466 26.7406 17.8686 26.1163 17.447 25.829C17.1529 25.6287 16.7551 25.6822 16.5244 25.9532L16.3774 26.1259Z" fill="#FAB29A"/>
<path d="M16.3774 26.1259C16.0123 26.5547 16.124 27.2489 16.687 27.2347C16.8511 27.2306 17.0209 27.1939 17.1842 27.1051C17.2586 27.0646 17.3306 27.0251 17.3998 26.9869C17.8466 26.7406 17.8686 26.1163 17.447 25.829C17.1529 25.6287 16.7551 25.6822 16.5244 25.9532L16.3774 26.1259Z" fill="white" stroke="#535353"/>
<path d="M22.9919 24.5877C22.9919 24.5872 22.9923 24.587 22.9927 24.5871C23.3144 24.7146 24.4997 24.7006 24.9273 23.8014C24.9305 23.7954 24.9328 23.7894 24.936 23.7834C24.9752 23.6983 25.0066 23.6138 25.0302 23.53C25.2503 22.7656 24.8872 22.0913 24.8603 22.0409C24.86 22.0403 24.8611 22.0394 24.8616 22.0398C26.1174 22.856 26.7773 22.3884 27.1069 21.9305C27.3468 21.597 27.3925 21.0668 27.3993 20.803C27.3996 20.7921 27.399 20.7813 27.3995 20.7704C27.3995 20.6875 27.3847 20.6037 27.3561 20.5266M22.9919 24.5877C22.9919 24.5878 22.9919 24.5876 22.9919 24.5877ZM22.9919 24.5877C22.9994 24.6066 23.1879 25.0851 22.8227 25.6401C22.7795 25.7057 22.7295 25.7719 22.6695 25.8396C22.0951 26.4859 21.3514 26.292 21.1276 26.2056C20.8994 26.1189 20.5816 26.2134 20.4612 26.4258C20.4288 26.483 20.3914 26.5404 20.3483 26.5954C20.1765 26.8155 19.9146 26.9976 19.5222 26.982C18.8926 26.9572 18.4068 26.748 17.8523 26.3982C17.727 26.3196 17.599 26.2337 17.4646 26.1413C17.2913 26.0215 17.1078 25.891 16.9101 25.7506C15.9874 25.0958 12.6647 23.1616 11.9601 22.7528C11.8709 22.701 11.7909 22.6408 11.7161 22.5699C11.4792 22.3451 10.8965 21.7935 10.2517 21.1931C9.57347 20.5604 8.82673 19.8724 8.34463 19.4562C8.28137 19.4016 8.21263 19.3539 8.13984 19.3129L7.44258 18.9207L6.22294 18.2351C5.59565 17.8824 5.37194 17.0887 5.72282 16.4604L8.43191 11.6095C8.77131 11.0018 9.52765 10.7671 10.1513 11.0761L10.4548 11.2264L11.6592 11.8483C11.9196 11.9828 12.2177 12.0258 12.5055 11.9703L15.848 11.3257L16.1929 11.258C16.5512 11.1877 16.9226 11.2706 17.217 11.4867L19.6618 13.2814L26.4428 18.2609C26.7094 18.4566 26.8918 18.7464 26.9531 19.0714L27.0909 19.8029C27.0938 19.8179 27.0979 19.8328 27.1033 19.8472L27.3549 20.5245C27.3551 20.5249 27.3558 20.5262 27.3561 20.5266M27.3561 20.5266C27.3562 20.5266 27.3561 20.5265 27.3561 20.5266Z" stroke="#979797" stroke-width="1.5"/>
<path d="M25.0304 23.5313C25.2505 22.7669 24.8874 22.0926 24.8605 22.0422C24.8595 22.0399 24.8577 22.0382 24.8557 22.0368L21.4888 19.5884" stroke="#979797" stroke-width="1.5" stroke-linecap="round"/>
<path d="M22.8229 25.6417C22.9926 25.3837 23.0428 25.1423 23.0471 24.9558C23.0527 24.7116 22.8898 24.509 22.6967 24.3594L20.0814 22.3335" stroke="#979797" stroke-width="1.5" stroke-linecap="round"/>
<path d="M20.3482 26.598C20.6387 26.2265 20.4079 25.7266 20.0197 25.4589L18.146 24.167" stroke="#979797" stroke-width="1.5" stroke-linecap="round"/>
<path d="M32.1513 16.7523C32.2239 16.9915 32.0855 17.2436 31.8447 17.3107L29.3408 18.1357C29.2878 18.1532 29.2405 18.1848 29.2021 18.2252C28.7 18.7694 28.0954 19.2085 27.6626 19.4878C27.5441 19.5645 27.4387 19.6293 27.3518 19.6809C27.2078 19.7666 27.0252 19.7212 26.9315 19.5822C26.7653 19.3357 26.5563 19.1232 26.3169 18.9563L25.2888 18.2412L23.3416 16.8867L22.979 16.6342L22.7461 16.4726L18.6178 13.6012C18.4653 13.4957 18.2814 13.4552 18.1031 13.4847C18.0735 13.4894 18.0438 13.4972 18.015 13.5061L16.7695 13.8901L16.6981 13.9124C16.6743 13.9194 16.6494 13.9285 16.6264 13.9386C16.5466 13.9727 16.4739 14.0215 16.4113 14.083C16.3734 14.1191 16.3391 14.1604 16.3097 14.2041C15.2996 15.7089 14.2999 16.1476 13.5638 16.2038C13.4705 16.2116 13.3824 16.2126 13.2986 16.2086C13.1063 16.2005 12.9387 16.168 12.8017 16.1277C12.5046 16.0409 12.3539 15.6939 12.4833 15.3992L13.9587 12.416C14.0892 12.1172 14.3158 11.8751 14.5993 11.732L18.3054 9.85969C18.5479 9.73712 18.8198 9.69372 19.0849 9.73394L24.9803 10.6397C25.1853 10.6712 25.3948 10.6534 25.5916 10.5878L27.2645 10.0299L28.5676 9.59578C29.264 9.36377 30.0146 9.75116 30.229 10.4531L31.8963 15.9131L32.1513 16.7523Z" fill="white" stroke="#979797" stroke-width="1.5"/>
<path d="M10.9993 23.2311C10.8294 23.2466 10.6364 23.2118 10.4362 23.102C9.82841 22.7708 9.29422 21.6124 9.65483 21.1849C9.7032 21.1275 9.7664 21.081 9.83762 21.0574C9.97079 21.0132 10.2438 20.9995 10.6895 21.3095C11.0833 21.5841 11.3361 21.8417 11.4796 22.0932C11.5807 22.27 11.6293 22.4422 11.6358 22.6154C11.6465 22.9046 11.3794 23.1959 10.9993 23.2311Z" fill="white" stroke="#979797" stroke-width="1.5"/>
<path d="M12.0371 24.951C11.4483 24.7901 11.1103 24.1425 11.2803 23.5293C11.3888 23.1362 11.5803 22.6049 11.9019 22.133C12.5105 21.2387 14.101 21.65 14.0135 23.0967C14.0057 23.2252 13.9641 23.3494 13.9082 23.4654L13.6299 24.0431C13.4025 24.515 12.9396 25.0038 12.4157 25.0007C12.2928 24.9999 12.1646 24.9858 12.0371 24.951Z" fill="white" stroke="#979797" stroke-width="1.5"/>
<path d="M16.105 24.4362L15.4405 25.7204C15.3001 25.9918 15.0632 26.207 14.7578 26.214C14.4645 26.2208 14.0786 26.1595 13.7375 25.8796C13.6951 25.8449 13.6576 25.8103 13.6221 25.7759C13.2751 25.4373 13.2336 25.1056 13.2401 24.9362C13.2432 24.858 13.2719 24.7844 13.3059 24.7139L13.9751 23.3248C13.9867 23.3008 13.9986 23.2777 14.0127 23.2552C14.116 23.0905 14.6075 22.3866 15.3297 22.6174C15.3461 22.6223 15.3635 22.6282 15.3807 22.6352C16.2244 22.9505 16.3499 23.7876 16.105 24.4362Z" fill="white" stroke="#979797" stroke-width="1.5"/>
<path d="M17.5412 25.4545C17.4683 25.7582 17.2542 26.3768 17.1219 26.7491C17.0509 26.9491 16.9392 27.1578 16.7324 27.2058C16.5599 27.2458 16.3106 27.2252 15.925 27.0574C15.7928 27 15.6847 26.9294 15.5974 26.8525C15.4607 26.733 15.3736 26.5998 15.3182 26.4813C15.22 26.2709 15.2787 26.0331 15.3854 25.827L15.8218 24.9847C15.9035 24.8267 16.0118 24.678 16.1692 24.5951C16.3885 24.4794 16.5915 24.4652 16.7714 24.5121C17.2737 24.6435 17.589 25.2531 17.5412 25.4545Z" fill="white" stroke="#979797" stroke-width="1.5"/>
<path d="M24.3048 16.4143C24.3267 16.3979 24.3481 16.3813 24.3692 16.3645C24.8003 16.0204 24.347 15.8214 23.8709 16.1M13.563 16.2025C14.3001 16.1453 15.2987 15.7075 16.3089 14.2028C16.3384 14.1581 16.3726 14.1178 16.4105 14.0817C16.4248 14.0681 16.4391 14.0555 16.4544 14.0429C16.4575 14.0399 16.4605 14.038 16.4645 14.0352C16.479 14.0241 16.4936 14.0122 16.5089 14.002C16.5104 14.001 16.5119 13.9999 16.5134 13.9989C16.5147 13.9981 16.5158 13.9972 16.5171 13.9963C16.5317 13.9863 16.5471 13.9772 16.5625 13.9692C16.5656 13.9673 16.5685 13.9663 16.5715 13.9645C16.5896 13.9551 16.6076 13.9457 16.6266 13.9374C16.6376 13.9328 16.6486 13.9282 16.6605 13.9237C16.6724 13.9191 16.6854 13.9146 16.6983 13.9111L16.7697 13.8889L18.0152 13.5048C18.0291 13.5004 18.0429 13.4969 18.0568 13.4935C18.0608 13.4927 18.0647 13.4918 18.0687 13.491C18.0786 13.4884 18.0884 13.4868 18.0983 13.4852C18.2787 13.4528 18.4646 13.4934 18.6179 13.5999L22.7463 16.4714L23.3417 16.8855L25.289 18.2399L26.317 18.955C26.5575 19.122 26.7654 19.3345 26.9317 19.5809C27.0254 19.7199 27.2081 19.7656 27.3521 19.6799C27.439 19.6282 27.5444 19.5635 27.6628 19.4866C28.1117 19.1957 28.7468 18.7335 29.26 18.1602" stroke="#979797" stroke-width="1.5"/>
<g filter="url(#filter0_d_182_11502)">
<path d="M29.8854 8.05064C30.5596 7.85778 31.2658 8.23198 31.4848 8.89817L33.9343 16.3495C34.1647 17.0504 33.769 17.8028 33.061 18.0102L29.5578 19.0362L28.6577 16.3397L27.92 14.1635L27.733 13.6111L26.4325 9.77665L26.3373 9.4968L26.2043 9.1036L29.8854 8.05064Z" fill="#098DE6"/>
</g>
<g filter="url(#filter1_d_182_11502)">
<path d="M7.5762 8.59889C6.94546 8.29247 6.18527 8.53907 5.85449 9.15741L2.1547 16.0736C1.80665 16.7242 2.06644 17.5337 2.72799 17.8603L6.0013 19.4759L7.3536 16.9754L8.45619 14.9593L8.73572 14.4476L10.6791 10.8954L10.8212 10.6362L11.0201 10.2719L7.5762 8.59889Z" fill="#098DE6"/>
</g>
</g>
<defs>
<filter id="filter0_d_182_11502" x="16.2043" y="2" width="27.7957" height="31.0363" filterUnits="userSpaceOnUse" color-interpolation-filters="sRGB">
<feFlood flood-opacity="0" result="BackgroundImageFix"/>
<feColorMatrix in="SourceAlpha" type="matrix" values="0 0 0 0 0 0 0 0 0 0 0 0 0 0 0 0 0 0 127 0" result="hardAlpha"/>
<feOffset dy="4"/>
<feGaussianBlur stdDeviation="5"/>
<feComposite in2="hardAlpha" operator="out"/>
<feColorMatrix type="matrix" values="0 0 0 0 0.0352941 0 0 0 0 0.552941 0 0 0 0 0.901961 0 0 0 0.2 0"/>
<feBlend mode="normal" in2="BackgroundImageFix" result="effect1_dropShadow_182_11502"/>
<feBlend mode="normal" in="SourceGraphic" in2="effect1_dropShadow_182_11502" result="shape"/>
</filter>
<filter id="filter1_d_182_11502" x="-8" y="2.46741" width="29.0201" height="31.0085" filterUnits="userSpaceOnUse" color-interpolation-filters="sRGB">
<feFlood flood-opacity="0" result="BackgroundImageFix"/>
<feColorMatrix in="SourceAlpha" type="matrix" values="0 0 0 0 0 0 0 0 0 0 0 0 0 0 0 0 0 0 127 0" result="hardAlpha"/>
<feOffset dy="4"/>
<feGaussianBlur stdDeviation="5"/>
<feComposite in2="hardAlpha" operator="out"/>
<feColorMatrix type="matrix" values="0 0 0 0 0.0352941 0 0 0 0 0.552941 0 0 0 0 0.901961 0 0 0 0.2 0"/>
<feBlend mode="normal" in2="BackgroundImageFix" result="effect1_dropShadow_182_11502"/>
<feBlend mode="normal" in="SourceGraphic" in2="effect1_dropShadow_182_11502" result="shape"/>
</filter>
<clipPath id="clip0_182_11502">
<rect width="36" height="36" fill="white"/>
</clipPath>
</defs>
</svg>
