<svg width="68" height="81" viewBox="0 0 68 81" fill="none" xmlns="http://www.w3.org/2000/svg">
<path fill-rule="evenodd" clip-rule="evenodd" d="M17.1235 55.7838C19.0663 55.7838 20.6404 57.3501 20.6404 59.2799C20.6404 61.2127 19.0632 62.7759 17.1235 62.7759C15.1792 62.7759 13.6051 61.2096 13.6051 59.2799C13.6051 57.3501 15.1823 55.7838 17.1235 55.7838ZM53.4204 52.7774C60.919 52.7774 67 58.8224 67 66.2766C67 73.7293 60.919 79.7743 53.4204 79.7743C45.9234 79.7743 39.8424 73.7293 39.8424 66.2766C39.8424 58.8224 45.9234 52.7774 53.4204 52.7774ZM60.5704 64.9075V67.6427C60.5704 68.2018 60.1134 68.6577 59.5494 68.6577H55.8172V72.3694C55.8162 72.6382 55.7083 72.8958 55.517 73.0859C55.3258 73.276 55.0667 73.3833 54.7962 73.3843H52.0446C51.7743 73.3832 51.5155 73.2759 51.3245 73.0857C51.1335 72.8956 51.0259 72.6381 51.0252 72.3694V68.6577H47.2899C47.0196 68.6568 46.7608 68.5495 46.57 68.3592C46.3792 68.169 46.2721 67.9114 46.272 67.6427V64.9075C46.2735 64.3499 46.729 63.8956 47.2899 63.8941H51.0252V60.1824C51.0268 59.6233 51.4838 59.172 52.0446 59.169H54.7962C55.3586 59.169 55.8156 59.6218 55.8172 60.1824V63.8941H59.5494C60.1134 63.8956 60.5673 64.3484 60.5704 64.9075ZM5.33028 75.1508C2.95831 75.1508 1 73.2026 1 70.8462V15.7975C1 13.4273 2.95366 11.4867 5.33803 11.4867H12.3176V10.1299C12.3176 8.54353 13.6361 7.24212 15.2303 7.24212H19.9665V4.20192C19.9665 2.45542 21.412 1 23.172 1H39.7944C41.5652 1 43.0138 2.44464 43.0138 4.20192V7.24983H47.0962C48.692 7.24983 50.0073 8.56817 50.0073 10.153V11.5083H56.9885C59.3651 11.5083 61.3249 13.4473 61.3249 15.8114V49.8173C60.1862 49.2737 58.9839 48.8455 57.7306 48.5421V15.4941C57.7306 15.2446 57.5431 15.0598 57.2937 15.0598L50.0073 15.0583V17.4177C50.0073 19.001 48.6796 20.3055 47.0885 20.3055H15.2225C13.6268 20.3055 12.3176 18.9948 12.3176 17.4116V15.0506H5.02507C4.78493 15.0506 4.58662 15.2492 4.58662 15.4864V71.1342C4.58662 71.3745 4.78958 71.5778 5.03282 71.5778L35.8638 71.5854C36.248 72.8329 36.7608 74.0235 37.3899 75.1431C22.4965 75.1416 5.33028 75.1416 5.33028 75.1508ZM41.9386 10.789C40.7115 10.789 39.3621 10.1453 39.3621 8.75607V4.57771H23.6073V8.75607C23.6073 10.0421 22.3787 10.789 21.1951 10.789H16.0297V17.0389H46.2952V10.789H41.9386ZM29.3335 49.3984H18.693V53.5398H15.5525V47.8414C15.5525 46.9789 16.2559 46.2797 17.1235 46.2797H29.2468L29.1956 41.4483C28.5713 41.265 27.9376 41.0217 27.3768 40.6921L26.4007 41.7609C26.0428 42.1275 25.4417 42.1491 25.0575 41.8102L23.6244 40.4765C23.2479 40.1068 23.1875 39.5447 23.5701 39.1566L24.6423 38.0061C24.303 37.4178 24.0597 36.8402 23.8707 36.1872L22.4392 36.2458C21.917 36.2642 21.4739 35.8607 21.4538 35.3432L21.3779 33.3904C21.3577 32.859 21.7482 32.4309 22.2858 32.4108L23.849 32.3508C24.0287 31.727 24.2766 31.0925 24.6097 30.5319L23.5515 29.5632C23.158 29.1981 23.1317 28.6191 23.4973 28.2248L24.8142 26.8017C25.1876 26.4244 25.7485 26.3689 26.142 26.7463L27.3194 27.8089C27.9035 27.4624 28.4675 27.2299 29.1228 27.042L29.0639 25.6189C29.0454 25.0999 29.4528 24.6594 29.9718 24.6394L31.9363 24.5654C32.4708 24.547 32.9015 24.9351 32.9217 25.4695L32.9821 27.0235C33.6173 27.2098 34.2293 27.4439 34.801 27.7797L35.7755 26.7309C36.1427 26.3397 36.7268 26.3135 37.1234 26.677L37.142 26.6924L38.5751 28.0015C38.9531 28.3726 39.0104 28.9302 38.6293 29.3214L37.5603 30.4918C37.9011 31.0802 38.1382 31.6392 38.3318 32.2907L39.7649 32.2337C40.2855 32.2137 40.7286 32.6188 40.7487 33.1362L40.8262 35.0876C40.8448 35.6189 40.4559 36.0486 39.9183 36.0671L38.3535 36.1272C38.1692 36.7478 37.9244 37.3777 37.5928 37.9368L38.6665 38.9055C39.0461 39.2675 39.0523 39.8466 38.7176 40.2408L37.3744 41.6685C37.0289 42.0582 36.4246 42.0844 36.0482 41.7224L34.8908 40.6567C34.299 40.9939 33.7165 41.2357 33.0611 41.4221L33.1092 46.2735H45.203C46.0706 46.2735 46.7739 46.9727 46.7739 47.8352V49.2737C45.6708 49.7018 44.6204 50.2332 43.6335 50.8554V49.3984H33.0999V53.5398H29.3335V49.3984ZM32.4538 30.6382C33.9225 31.2065 34.8815 32.5079 34.9482 34.0773C35.0132 35.6343 34.1472 37.0328 32.7389 37.7043C31.3228 38.3788 29.6263 38.0954 28.469 37.0559C27.3225 35.9963 26.929 34.3345 27.479 32.879C27.7548 32.1737 28.2041 31.5853 28.7711 31.1603C29.8169 30.3779 31.2314 30.1823 32.4538 30.6382ZM31.0982 55.7838C33.0425 55.7838 34.6151 57.3501 34.6151 59.2799C34.6151 61.2127 33.0394 62.7759 31.0982 62.7759C29.1538 62.7759 27.5797 61.2096 27.5797 59.2799C27.5797 57.3501 29.1538 55.7838 31.0982 55.7838Z" fill="#098DE6" stroke="#098DE6"/>
</svg>
