<svg width="40" height="50" viewBox="0 0 40 50" fill="none" xmlns="http://www.w3.org/2000/svg">
<path d="M4.21051 12.871C4.21051 10.1543 6.43599 7.95203 9.18127 7.95203H31.0526C33.7979 7.95203 36.0234 10.1543 36.0234 12.871V40.5579C36.0234 43.2746 33.7979 45.4769 31.0526 45.4769H9.18127C6.43599 45.4769 4.21051 43.2746 4.21051 40.5579V12.871Z" stroke="#979797" stroke-width="1.5"/>
<path d="M11.171 7.95139C11.171 6.32137 12.5063 5 14.1535 5H26.0833C27.7304 5 29.0657 6.32137 29.0657 7.95139C29.0657 9.5814 27.7304 10.9028 26.0833 10.9028H14.1535C12.5063 10.9028 11.171 9.5814 11.171 7.95139Z" fill="white" stroke="#979797" stroke-width="1.5"/>
<path d="M17.8188 38.9611C17.2509 39.572 16.2461 39.0483 16.4098 38.227L17.5965 32.271C17.6765 31.8699 17.4559 31.4695 17.0763 31.3266L11.3133 29.1574C10.7613 28.9496 10.5969 28.2409 11.0002 27.8072L21.4437 16.5758C22.0116 15.9651 23.0164 16.4886 22.8527 17.3101L21.666 23.2659C21.5861 23.6671 21.8066 24.0675 22.1862 24.2104L27.9493 26.3797C28.5013 26.5874 28.6656 27.296 28.2623 27.7298L17.8188 38.9611Z" fill="#098DE6"/>
</svg>
