<svg width="72" height="60" viewBox="0 0 72 60" fill="none" xmlns="http://www.w3.org/2000/svg">
<path d="M1.85802 0.670387C1.06143 1.06175 0.502133 1.69042 0.208614 2.50163C-0.0425566 3.22813 -0.0849051 43.649 0.180869 44.4873C0.390421 45.1999 1.14539 46.0805 1.88576 46.4718L2.45893 46.7792L16.3376 46.8208L30.2023 46.8486V50.6922V54.5357H25.1008H19.9993V56.7722V59.0087H35.7924H51.5854V56.7722V54.5357H46.4839H41.3824V50.6922V46.8486L55.261 46.8208L69.1258 46.7792L69.6989 46.4718C70.4678 46.0666 71.2228 45.1721 71.4184 44.431C71.544 43.9973 71.5718 38.4766 71.544 23.2141L71.5024 2.58413L71.0833 1.89925C70.7898 1.43778 70.4123 1.06029 69.8953 0.752895L69.1404 0.305309H35.8624H2.58451L1.85802 0.670387ZM67.0996 23.5777V42.3764H35.7924H4.48509V23.5777V4.77899H35.7924H67.0996V23.5777Z" fill="#098DE6"/>
<path d="M34.2132 23.1167C32.704 29.4479 31.4182 34.8292 31.3766 35.0665L31.2926 35.528H32.8997H34.5067L34.6462 34.927C35.0514 33.32 40.2647 11.7678 40.2647 11.6977C40.2647 11.6561 39.5243 11.6276 38.6153 11.6276H36.9658L34.2132 23.1167Z" fill="#098DE6"/>
<path d="M21.7742 18.378L13.9755 21.7463L14.0171 23.6892L14.0587 25.6322L20.9768 28.6375C24.7787 30.2869 28.3148 31.8101 28.8456 32.0335L29.7824 32.4387V30.2168V27.9942L24.4436 25.8841C21.4945 24.71 19.0485 23.7177 18.9792 23.6615C18.9229 23.6053 19.9013 23.1723 21.1455 22.6969C22.4036 22.2355 24.8496 21.2994 26.6099 20.6284L29.7824 19.4127V17.2039C29.7824 15.9744 29.7408 14.9813 29.6846 14.9959C29.6152 14.9959 26.0652 16.5198 21.7742 18.378Z" fill="#098DE6"/>
<path d="M41.8025 17.1901V19.3843L47.1975 21.4806C50.1605 22.6269 52.6065 23.6053 52.6342 23.6469C52.662 23.6886 50.2999 24.667 47.3794 25.8133C44.4719 26.9458 42.0266 27.9235 41.9427 27.9797C41.8448 28.0359 41.8032 28.8325 41.831 30.2439L41.8726 32.4242L49.699 29.0282L57.5262 25.6323V23.7032V21.7602L49.699 18.3781C45.3941 16.5053 41.858 14.9821 41.8441 14.9821C41.8171 14.9821 41.8025 15.9744 41.8025 17.1901Z" fill="#098DE6"/>
</svg>
