<svg width="50" height="50" viewBox="0 0 50 50" fill="none" xmlns="http://www.w3.org/2000/svg">
<path d="M31.8751 5V10.4687C31.8751 11.7671 32.9204 12.8124 34.2188 12.8124H39.6876L31.8751 5Z" fill="#A6C5FA"/>
<path fill-rule="evenodd" clip-rule="evenodd" d="M39.6875 41.7187V12.8124L31.875 5H12.3438C11.0453 5 10 6.04522 10 7.34365V41.7187C10 43.0171 11.0453 44.0624 12.3438 44.0624H37.3437C38.6422 44.0624 39.6875 43.0171 39.6875 41.7187ZM27 20C27 18.8954 26.1046 18 25 18C23.8954 18 23 18.8954 23 20V23H20C18.8954 23 18 23.8954 18 25C18 26.1046 18.8954 27 20 27H23V30C23 31.1046 23.8954 32 25 32C26.1046 32 27 31.1046 27 30V27H30C31.1046 27 32 26.1046 32 25C32 23.8954 31.1046 23 30 23H27V20Z" fill="#098DE6" fill-opacity="0.68"/>
</svg>
