<svg xmlns="http://www.w3.org/2000/svg" width="75.646" height="79" viewBox="0 0 75.646 79">
  <g id="doc-file" transform="translate(-8 -6.5)">
    <path id="Path_285" data-name="Path 285" d="M65.114,7H26.9A1.9,1.9,0,0,0,25,8.9V83.1A1.9,1.9,0,0,0,26.9,85H82.073a1.9,1.9,0,0,0,1.9-1.9V25.861a1.9,1.9,0,0,0-.557-1.345L66.46,7.557A1.9,1.9,0,0,0,65.114,7Z" transform="translate(-0.829)" fill="#fff" stroke="#979593" stroke-miterlimit="10" stroke-width="1"/>
    <path id="Path_286" data-name="Path 286" d="M67,7V24.122a1.9,1.9,0,0,0,1.9,1.9H86.024" transform="translate(-2.878)" fill="none" stroke="#979593" stroke-miterlimit="10" stroke-width="1"/>
    <path id="Path_287" data-name="Path 287" d="M77.488,60.024H48v-1.9H77.488a.951.951,0,0,1,0,1.9Zm0-5.707H48v-1.9H77.488a.951.951,0,0,1,0,1.9Zm0-5.707H48v-1.9H77.488a.951.951,0,0,1,0,1.9Zm0-5.707H48V41H77.488a.951.951,0,0,1,0,1.9Zm0,22.829H48v-1.9H77.488a.951.951,0,0,1,0,1.9Z" transform="translate(-1.951 -1.659)" fill="#098de6"/>
    <path id="Path_288" data-name="Path 288" d="M11.8,72.049H42.244a3.8,3.8,0,0,0,3.8-3.8V37.8a3.8,3.8,0,0,0-3.8-3.8H11.8A3.8,3.8,0,0,0,8,37.8V68.244A3.8,3.8,0,0,0,11.8,72.049Z" transform="translate(0 -1.317)" fill="#115abe"/>
    <path id="Path_289" data-name="Path 289" d="M21.253,59.834q.094.745.123,1.3h.072q.044-.526.167-1.27t.239-1.255L25.216,44h4.347l3.478,14.389a20.944,20.944,0,0,1,.435,2.714h.058a20.9,20.9,0,0,1,.362-2.627L36.678,44h3.956L35.766,64.927H31.143L27.824,51.063q-.145-.6-.326-1.562t-.224-1.4h-.058q-.058.511-.225,1.517t-.268,1.489l-3.116,13.82H18.912L14,44h4.028l3.029,14.638Q21.158,59.089,21.253,59.834Z" transform="translate(-0.293 -1.805)" fill="#fff"/>
  </g>
</svg>
