<svg width="50" height="50" viewBox="0 0 50 50" fill="none" xmlns="http://www.w3.org/2000/svg">
<path d="M40.625 12.4999V41.4062C40.625 42.7046 39.5797 43.7499 38.2812 43.7499H13.2813C11.9828 43.7499 10.9375 42.7046 10.9375 41.4062V7.03115C10.9375 5.73272 11.9828 4.6875 13.2813 4.6875H32.8125" fill="#098DE6" fill-opacity="0.68"/>
<path d="M32.8126 4.6875V10.1562C32.8126 11.4546 33.8579 12.4999 35.1563 12.4999H40.6251L32.8126 4.6875Z" fill="#A6C5FA"/>
<path fill-rule="evenodd" clip-rule="evenodd" d="M17.1997 21.0924C17.0962 21.0909 16.9934 21.11 16.8973 21.1486C16.8013 21.1872 16.7138 21.2445 16.6401 21.3172C16.5664 21.3899 16.5078 21.4765 16.4679 21.5721C16.4279 21.6676 16.4073 21.7701 16.4073 21.8736C16.4073 21.9771 16.4279 22.0797 16.4679 22.1752C16.5078 22.2707 16.5664 22.3573 16.6401 22.43C16.7138 22.5027 16.8013 22.56 16.8973 22.5986C16.9934 22.6372 17.0962 22.6563 17.1997 22.6549H27.5513H34.375C34.4785 22.6563 34.5813 22.6372 34.6774 22.5986C34.7735 22.56 34.8609 22.5027 34.9346 22.43C35.0084 22.3573 35.0669 22.2707 35.1069 22.1752C35.1468 22.0797 35.1674 21.9771 35.1674 21.8736C35.1674 21.7701 35.1468 21.6676 35.1069 21.5721C35.0669 21.4765 35.0084 21.3899 34.9346 21.3172C34.8609 21.2445 34.7735 21.1872 34.6774 21.1486C34.5813 21.11 34.4785 21.0909 34.375 21.0924H27.5513H17.1997Z" fill="#F9F9F9"/>
<path fill-rule="evenodd" clip-rule="evenodd" d="M17.1997 24.2174C17.0962 24.2159 16.9934 24.235 16.8973 24.2736C16.8013 24.3122 16.7138 24.3695 16.6401 24.4422C16.5664 24.5149 16.5078 24.6015 16.4679 24.6971C16.4279 24.7926 16.4073 24.8951 16.4073 24.9986C16.4073 25.1021 16.4279 25.2047 16.4679 25.3002C16.5078 25.3957 16.5664 25.4823 16.6401 25.555C16.7138 25.6277 16.8013 25.685 16.8973 25.7236C16.9934 25.7622 17.0962 25.7813 17.1997 25.7799H27.5513H34.375C34.4785 25.7813 34.5813 25.7622 34.6774 25.7236C34.7735 25.685 34.8609 25.6277 34.9346 25.555C35.0084 25.4823 35.0669 25.3957 35.1069 25.3002C35.1468 25.2047 35.1674 25.1021 35.1674 24.9986C35.1674 24.8951 35.1468 24.7926 35.1069 24.6971C35.0669 24.6015 35.0084 24.5149 34.9346 24.4422C34.8609 24.3695 34.7735 24.3122 34.6774 24.2736C34.5813 24.235 34.4785 24.2159 34.375 24.2174H27.5513H17.1997Z" fill="#F9F9F9"/>
<path fill-rule="evenodd" clip-rule="evenodd" d="M17.1997 30.4674C17.0962 30.4659 16.9934 30.485 16.8973 30.5236C16.8013 30.5622 16.7138 30.6195 16.6401 30.6922C16.5664 30.7649 16.5078 30.8515 16.4679 30.9471C16.4279 31.0426 16.4073 31.1451 16.4073 31.2486C16.4073 31.3521 16.4279 31.4547 16.4679 31.5502C16.5078 31.6457 16.5664 31.7323 16.6401 31.805C16.7138 31.8777 16.8013 31.935 16.8973 31.9736C16.9934 32.0122 17.0962 32.0313 17.1997 32.0299H24.0235H28.125C28.2285 32.0313 28.3313 32.0122 28.4274 31.9736C28.5235 31.935 28.6109 31.8777 28.6846 31.805C28.7584 31.7323 28.8169 31.6457 28.8569 31.5502C28.8968 31.4547 28.9174 31.3521 28.9174 31.2486C28.9174 31.1451 28.8968 31.0426 28.8569 30.9471C28.8169 30.8515 28.7584 30.7649 28.6846 30.6922C28.6109 30.6195 28.5235 30.5622 28.4274 30.5236C28.3313 30.485 28.2285 30.4659 28.125 30.4674H24.0235H17.1997ZM31.25 30.4674C31.1465 30.4659 31.0437 30.485 30.9476 30.5236C30.8516 30.5622 30.7641 30.6195 30.6904 30.6922C30.6167 30.7649 30.5581 30.8515 30.5182 30.9471C30.4782 31.0426 30.4576 31.1451 30.4576 31.2486C30.4576 31.3521 30.4782 31.4547 30.5182 31.5502C30.5581 31.6457 30.6167 31.7323 30.6904 31.805C30.7641 31.8777 30.8516 31.935 30.9476 31.9736C31.0437 32.0122 31.1465 32.0313 31.25 32.0299C31.3535 32.0313 31.4563 32.0122 31.5524 31.9736C31.6485 31.935 31.7359 31.8777 31.8096 31.805C31.8834 31.7323 31.9419 31.6457 31.9819 31.5502C32.0218 31.4547 32.0424 31.3521 32.0424 31.2486C32.0424 31.1451 32.0218 31.0426 31.9819 30.9471C31.9419 30.8515 31.8834 30.7649 31.8096 30.6922C31.7359 30.6195 31.6485 30.5622 31.5524 30.5236C31.4563 30.485 31.3535 30.4659 31.25 30.4674Z" fill="#F9F9F9"/>
<path fill-rule="evenodd" clip-rule="evenodd" d="M17.1997 27.3424C17.0962 27.3409 16.9934 27.36 16.8973 27.3986C16.8013 27.4372 16.7138 27.4945 16.6401 27.5672C16.5664 27.6399 16.5078 27.7265 16.4679 27.8221C16.4279 27.9176 16.4073 28.0201 16.4073 28.1236C16.4073 28.2271 16.4279 28.3297 16.4679 28.4252C16.5078 28.5207 16.5664 28.6073 16.6401 28.68C16.7138 28.7527 16.8013 28.81 16.8973 28.8486C16.9934 28.8872 17.0962 28.9063 17.1997 28.9049H27.5513H34.375C34.4785 28.9063 34.5813 28.8872 34.6774 28.8486C34.7735 28.81 34.8609 28.7527 34.9346 28.68C35.0084 28.6073 35.0669 28.5207 35.1069 28.4252C35.1468 28.3297 35.1674 28.2271 35.1674 28.1236C35.1674 28.0201 35.1468 27.9176 35.1069 27.8221C35.0669 27.7265 35.0084 27.6399 34.9346 27.5672C34.8609 27.4945 34.7735 27.4372 34.6774 27.3986C34.5813 27.36 34.4785 27.3409 34.375 27.3424H27.5513H17.1997Z" fill="#F9F9F9"/>
</svg>
