<svg width="36" height="36" viewBox="0 0 36 36" fill="none" xmlns="http://www.w3.org/2000/svg">
<path d="M29.6757 30.5796C29.6757 31.2933 29.3842 31.9777 28.8651 32.4823C28.3461 32.9869 27.6422 33.2703 26.9082 33.2703H4.76757C4.03357 33.2703 3.32962 32.9869 2.8106 32.4823C2.29158 31.9777 2 31.2933 2 30.5796V11.7448C2 11.0312 2.29158 10.3468 2.8106 9.84216C3.32962 9.33756 4.03357 9.05408 4.76757 9.05408H11.6865L14.4541 13.0901H26.9082C27.6422 13.0901 28.3461 13.3736 28.8651 13.8782C29.3842 14.3828 29.6757 15.0672 29.6757 15.7808V30.5796Z" stroke="#979797" stroke-width="1.5" stroke-linecap="round" stroke-linejoin="round"/>
<path d="M29.6756 27.2163H31.2324C31.9664 27.2163 32.6703 26.9328 33.1894 26.4282C33.7084 25.9236 34 25.2392 34 24.5256V9.72674C34 9.01312 33.7084 8.32874 33.1894 7.82413C32.6703 7.31953 31.9664 7.03604 31.2324 7.03604H18.7783L16.0107 3H9.09179C8.35779 3 7.65384 3.28348 7.13482 3.78809C6.6158 4.29269 6.32422 4.97708 6.32422 5.6907V9.05407" stroke="#979797" stroke-width="1.5" stroke-linecap="round" stroke-linejoin="round"/>
<rect x="6.32422" y="19.4325" width="15.5676" height="1.72973" rx="0.864867" fill="#098DE6"/>
<rect x="6.32422" y="24.6216" width="8.64867" height="1.72973" rx="0.864867" fill="#098DE6"/>
</svg>
