<svg width="50" height="50" viewBox="0 0 50 50" fill="none" xmlns="http://www.w3.org/2000/svg">
<g clip-path="url(#clip0_287_11150)">
<path d="M40.625 14.6877H26.0417L20.5625 8.06273C20.3687 7.82374 20.1243 7.63067 19.8469 7.49739C19.5695 7.36411 19.2661 7.29393 18.9584 7.29189H9.37502C8.01379 7.27518 6.7014 7.79855 5.72522 8.74739C4.74905 9.69624 4.18863 10.9932 4.16669 12.3544V37.6461C4.18863 39.0072 4.74905 40.3042 5.72522 41.2531C6.7014 42.2019 8.01379 42.7253 9.37502 42.7086H40.625C41.9862 42.7253 43.2986 42.2019 44.2748 41.2531C45.251 40.3042 45.8114 39.0072 45.8334 37.6461V19.7502C45.8114 18.3891 45.251 17.0921 44.2748 16.1432C43.2986 15.1944 41.9862 14.671 40.625 14.6877ZM29.1667 31.2502H27.0834V33.3336C27.0834 33.8861 26.8639 34.416 26.4732 34.8067C26.0825 35.1974 25.5526 35.4169 25 35.4169C24.4475 35.4169 23.9176 35.1974 23.5269 34.8067C23.1362 34.416 22.9167 33.8861 22.9167 33.3336V31.2502H20.8334C20.2808 31.2502 19.7509 31.0307 19.3602 30.64C18.9695 30.2493 18.75 29.7194 18.75 29.1669C18.75 28.6144 18.9695 28.0845 19.3602 27.6938C19.7509 27.3031 20.2808 27.0836 20.8334 27.0836H22.9167V25.0002C22.9167 24.4477 23.1362 23.9178 23.5269 23.5271C23.9176 23.1364 24.4475 22.9169 25 22.9169C25.5526 22.9169 26.0825 23.1364 26.4732 23.5271C26.8639 23.9178 27.0834 24.4477 27.0834 25.0002V27.0836H29.1667C29.7192 27.0836 30.2491 27.3031 30.6398 27.6938C31.0305 28.0845 31.25 28.6144 31.25 29.1669C31.25 29.7194 31.0305 30.2493 30.6398 30.64C30.2491 31.0307 29.7192 31.2502 29.1667 31.2502Z" fill="#098DE6" fill-opacity="0.68"/>
</g>
<defs>
<clipPath id="clip0_287_11150">
<rect width="50" height="50" fill="white"/>
</clipPath>
</defs>
</svg>
