<svg id="folder" xmlns="http://www.w3.org/2000/svg" xmlns:xlink="http://www.w3.org/1999/xlink" width="112" height="80" viewBox="0 0 112 80">
  <defs>
    <clipPath id="clip-path">
      <rect id="Rectangle_88" data-name="Rectangle 88" width="112" height="80" fill="none"/>
    </clipPath>
    <clipPath id="clip-path-2">
      <path id="Path_364" data-name="Path 364" d="M4.453,65.672A4.453,4.453,0,0,0,0,70.125V130a1.336,1.336,0,0,0,1.336,1.336H110.664A1.336,1.336,0,0,0,112,130V70.125a4.453,4.453,0,0,0-4.453-4.453Z" transform="translate(0 -65.672)" fill="none"/>
    </clipPath>
    <linearGradient id="linear-gradient" y1="1" x2="0.002" y2="1" gradientUnits="objectBoundingBox">
      <stop offset="0" stop-color="#6ec4f8"/>
      <stop offset="0.989" stop-color="#6ec4f8"/>
      <stop offset="1" stop-color="#6ec4f8"/>
    </linearGradient>
  </defs>
  <g id="Group_76" data-name="Group 76">
    <g id="Group_75" data-name="Group 75" clip-path="url(#clip-path)">
      <path id="Path_363" data-name="Path 363" d="M42.582,8a3.635,3.635,0,0,1-2.571-1.065L35.419,2.343A8,8,0,0,0,29.762,0H4A4,4,0,0,0,0,4V78.667A1.333,1.333,0,0,0,1.333,80H110.667A1.333,1.333,0,0,0,112,78.667V12a4,4,0,0,0-4-4Z" fill="#99d7fe"/>
    </g>
  </g>
  <g id="Group_78" data-name="Group 78" transform="translate(0 14.338)">
    <g id="Group_77" data-name="Group 77" clip-path="url(#clip-path-2)">
      <rect id="Rectangle_89" data-name="Rectangle 89" width="112" height="65.662" fill="url(#linear-gradient)"/>
    </g>
  </g>
  <g id="Group_80" data-name="Group 80">
    <g id="Group_82" data-name="Group 82" transform="translate(0 -2)">
      <rect id="Rectangle_90" data-name="Rectangle 90" width="100" height="0.437" transform="translate(6 76.944)" fill="#ccecff"/>
      <rect id="Rectangle_91" data-name="Rectangle 91" width="100" height="0.437" transform="translate(6 72.324)" fill="#ccecff"/>
    </g>
  </g>
</svg>
