<svg width="50" height="50" viewBox="0 0 50 50" fill="none" xmlns="http://www.w3.org/2000/svg">
<g clip-path="url(#clip0_289_11208)">
<path d="M40.625 14.6877H26.0416L20.5625 8.06273C20.3686 7.82374 20.1242 7.63067 19.8468 7.49739C19.5695 7.36411 19.266 7.29393 18.9583 7.29189H9.37496C8.01373 7.27518 6.70134 7.79855 5.72516 8.74739C4.74899 9.69624 4.18857 10.9932 4.16663 12.3544V37.6461C4.18857 39.0072 4.74899 40.3042 5.72516 41.2531C6.70134 42.2019 8.01373 42.7253 9.37496 42.7086H40.625C41.9862 42.7253 43.2986 42.2019 44.2748 41.2531C45.2509 40.3042 45.8113 39.0072 45.8333 37.6461V19.7502C45.8113 18.3891 45.2509 17.0921 44.2748 16.1432C43.2986 15.1944 41.9862 14.671 40.625 14.6877Z" fill="#098DE6"/>
</g>
<defs>
<clipPath id="clip0_289_11208">
<rect width="50" height="50" fill="white"/>
</clipPath>
</defs>
</svg>
