<svg width="45" height="27" viewBox="0 0 45 27" fill="none" xmlns="http://www.w3.org/2000/svg">
<g clip-path="url(#clip0_10_1249)">
<rect width="45" height="27" fill="white"/>
<path d="M20.0331 24.0539C19.5528 24.618 19.6997 25.5313 20.4403 25.5125C20.6562 25.5071 20.8797 25.459 21.0945 25.342C21.1923 25.2888 21.287 25.2369 21.3781 25.1867C21.9658 24.8626 21.9948 24.0413 21.4402 23.6634V23.6634C21.0533 23.3999 20.53 23.4703 20.2265 23.8267L20.0331 24.0539Z" fill="#FAB29A"/>
<path d="M20.0331 24.0539C19.5528 24.618 19.6997 25.5313 20.4403 25.5125C20.6562 25.5071 20.8797 25.459 21.0945 25.342C21.1923 25.2888 21.287 25.2369 21.3781 25.1867C21.9658 24.8626 21.9948 24.0413 21.4402 23.6634V23.6634C21.0533 23.3999 20.53 23.4703 20.2265 23.8267L20.0331 24.0539Z" fill="white" stroke="#535353"/>
<path d="M34.1476 18.5353C33.7142 19.1376 32.846 19.7529 31.194 18.679C31.1934 18.6786 31.192 18.6798 31.1923 18.6805V18.6805C31.2277 18.7468 31.7053 19.6339 31.4158 20.6395C31.3848 20.7497 31.3435 20.8609 31.2919 20.9729C31.2877 20.9808 31.2847 20.9887 31.2805 20.9966C30.7179 22.1794 29.1587 22.1978 28.7356 22.0301C28.735 22.0299 28.7345 22.0303 28.7345 22.0309V22.0309C28.7345 22.031 28.7345 22.031 28.7345 22.0311C28.7443 22.056 28.9923 22.6852 28.5118 23.4154C28.455 23.5016 28.3891 23.5887 28.3103 23.6778C27.5547 24.528 26.5763 24.2728 26.2819 24.1592V24.1592C25.9818 24.0452 25.5636 24.1696 25.4053 24.4489C25.3626 24.5241 25.3134 24.5996 25.2568 24.672C25.0308 24.9616 24.6862 25.2011 24.1701 25.1806C23.3419 25.1481 22.7027 24.8727 21.9733 24.4126C21.8084 24.3092 21.6401 24.1961 21.4632 24.0746C21.2353 23.9171 20.9938 23.7454 20.7337 23.5607C19.5324 22.7082 15.2387 20.2071 14.2518 19.6343C14.1152 19.555 13.9909 19.4616 13.8763 19.3529C13.5503 19.0436 12.8013 18.3349 11.9747 17.5653C11.0919 16.7418 10.121 15.8471 9.48622 15.2979C9.38945 15.2142 9.28433 15.1413 9.1728 15.0786L8.27922 14.5759L6.92037 13.812C5.95941 13.2718 5.61677 12.0559 6.15427 11.0934L9.44965 5.19267C9.9695 4.26183 11.1281 3.90242 12.0835 4.37564L12.2418 4.45404L13.7392 5.22731C14.1382 5.4333 14.5948 5.49909 15.0356 5.41408L19.3366 4.58468L19.6687 4.5195C20.2176 4.41177 20.7865 4.53882 21.2374 4.86983L24.3537 7.1575L33.1844 13.642C33.5928 13.9419 33.8721 14.3857 33.966 14.8836L34.1267 15.7364C34.1305 15.7563 34.1359 15.7758 34.1429 15.7947L34.474 16.6857C34.4742 16.6862 34.4752 16.688 34.4756 16.6885V16.6885C34.4756 16.6885 34.4758 16.6887 34.4758 16.6888C34.5135 16.7902 34.5327 16.9001 34.5326 17.0092V17.0092C34.532 17.0235 34.5328 17.0377 34.5324 17.0521C34.5234 17.399 34.4633 18.0966 34.1476 18.5353Z" stroke="#979797" stroke-width="1.5"/>
<path d="M31.4161 20.6409C31.7056 19.6354 31.228 18.7483 31.1925 18.682V18.682C31.1913 18.679 31.1889 18.6769 31.1863 18.675L26.7571 15.4541" stroke="#979797" stroke-width="1.5" stroke-linecap="round"/>
<path d="M28.5122 23.4173C28.7117 23.114 28.7856 22.8282 28.8031 22.5957C28.8312 22.2226 28.5781 21.9101 28.2823 21.681L24.9058 19.0654" stroke="#979797" stroke-width="1.5" stroke-linecap="round"/>
<path d="M25.2569 24.675V24.675C25.6391 24.1863 25.3355 23.5287 24.8248 23.1765L22.3599 21.4771" stroke="#979797" stroke-width="1.5" stroke-linecap="round"/>
<path d="M40.7837 11.723C40.8792 12.0376 40.6971 12.3693 40.3804 12.4575V12.4575L37.0865 13.5429C37.0168 13.5658 36.9546 13.6073 36.904 13.6606V13.6606C36.2436 14.3765 35.4482 14.9541 34.8789 15.3216C34.7229 15.4225 34.5842 15.5076 34.47 15.5756C34.2806 15.6883 34.0403 15.6285 33.9172 15.4456V15.4456C33.6984 15.1215 33.4235 14.8419 33.1085 14.6223L31.7561 13.6815L29.1945 11.8998L28.7175 11.5675L28.4112 11.355L22.9804 7.57768C22.7798 7.43891 22.5379 7.38569 22.3033 7.42437C22.2644 7.43061 22.2253 7.44087 22.1874 7.45254L20.549 7.95782L20.455 7.98702C20.4237 7.9963 20.391 8.00821 20.3607 8.02159C20.2557 8.06643 20.16 8.13056 20.0777 8.21148C20.0279 8.25893 19.9828 8.31335 19.9441 8.37075C18.6152 10.3503 17.3001 10.9275 16.3318 11.0013C16.2091 11.0117 16.0933 11.0129 15.9829 11.0077C15.73 10.997 15.5095 10.9542 15.3293 10.9013C14.9385 10.7871 14.7402 10.3307 14.9104 9.9429L16.8513 6.01849C17.023 5.6254 17.3211 5.30697 17.6941 5.11866L22.5694 2.65571C22.8884 2.49446 23.2461 2.43738 23.5948 2.49028L31.2828 3.67145C31.5968 3.7197 31.9178 3.69244 32.2192 3.59194L34.3552 2.87967L35.7945 2.40009C36.8612 2.04469 38.0112 2.63812 38.3396 3.71343L40.4483 10.619L40.7837 11.723Z" fill="white" stroke="#979797" stroke-width="1.5"/>
<path d="M12.9582 20.2461C12.7347 20.2664 12.4808 20.2207 12.2175 20.0763C11.4267 19.6454 10.7307 18.1502 11.1743 17.5733C11.2443 17.4821 11.3427 17.4107 11.4533 17.3794C11.6361 17.3277 11.9892 17.3278 12.5507 17.7183C13.0687 18.0795 13.4012 18.4184 13.5901 18.7492C13.7231 18.9817 13.787 19.2082 13.7955 19.4362C13.8096 19.8166 13.4582 20.1998 12.9582 20.2461Z" fill="white" stroke="#979797" stroke-width="1.5"/>
<path d="M14.3236 22.5084C13.5489 22.2966 13.1044 21.4448 13.3279 20.6381C13.4708 20.1211 13.7226 19.4221 14.1457 18.8013C14.9404 17.6336 17.0076 18.1581 16.9257 20.0269C16.9171 20.224 16.8524 20.4143 16.7668 20.592L16.5 21.1456C16.1517 21.8686 15.4339 22.6402 14.635 22.5645C14.5321 22.5547 14.4277 22.5368 14.3236 22.5084Z" fill="white" stroke="#979797" stroke-width="1.5"/>
<path d="M19.6747 21.8312L18.8476 23.4299C18.6325 23.8456 18.2683 24.1794 17.8004 24.1702C17.4298 24.1629 16.9704 24.0666 16.5602 23.7301C16.5045 23.6844 16.4552 23.6389 16.4085 23.5936C15.9688 23.1645 15.9019 22.744 15.9053 22.5144C15.9071 22.3946 15.9515 22.2817 16.0035 22.1736L16.8691 20.3769C16.8868 20.3403 16.9055 20.3041 16.9273 20.2698C17.0734 20.0395 17.7159 19.1385 18.6549 19.4387C18.6765 19.4451 18.6992 19.4529 18.722 19.462C19.8317 19.8769 19.9969 20.9781 19.6747 21.8312Z" fill="white" stroke="#979797" stroke-width="1.5"/>
<path d="M21.5642 23.1712C21.4724 23.5532 21.2108 24.3141 21.036 24.8082C20.9275 25.1147 20.7532 25.4409 20.4314 25.4879C20.2082 25.5205 19.8962 25.4792 19.4381 25.2798C19.2641 25.2043 19.1219 25.1113 19.007 25.0103C18.8532 24.8757 18.7471 24.728 18.6741 24.5905C18.5072 24.2764 18.5999 23.9088 18.7635 23.593L19.2753 22.605C19.4007 22.363 19.5655 22.1315 19.8115 22.0144C20.08 21.8865 20.3292 21.8735 20.5514 21.9315C21.2122 22.1042 21.6269 22.9062 21.5642 23.1712Z" fill="white" stroke="#979797" stroke-width="1.5"/>
<path d="M30.4615 11.2784C30.4903 11.2569 30.5185 11.235 30.5462 11.2129C31.1134 10.7602 30.517 10.4984 29.8907 10.8649V10.8649M16.3306 10.9997C17.3003 10.9246 18.614 10.3487 19.9429 8.36915C19.9817 8.3104 20.0267 8.25733 20.0765 8.20987C20.0954 8.19192 20.1142 8.17531 20.1343 8.15875C20.1383 8.15491 20.1423 8.1524 20.1476 8.14862C20.1667 8.13412 20.1858 8.11841 20.206 8.10502C20.208 8.1037 20.2099 8.10226 20.2119 8.10099V8.10099C20.2136 8.09993 20.2151 8.0987 20.2167 8.09758C20.236 8.08439 20.2563 8.07249 20.2765 8.06183C20.2805 8.05932 20.2844 8.05816 20.2884 8.05566C20.3121 8.04332 20.3359 8.03098 20.3608 8.02005C20.3753 8.014 20.3897 8.00795 20.4054 8.00197C20.4212 7.99598 20.4382 7.99006 20.4551 7.98547L20.5491 7.95627L22.1875 7.451C22.2058 7.44513 22.224 7.44061 22.2423 7.43609C22.2475 7.43499 22.2527 7.43389 22.2579 7.43279C22.2709 7.42937 22.2838 7.42729 22.2968 7.42521C22.5342 7.38262 22.7787 7.43596 22.9805 7.57614L28.4113 11.3535L29.1946 11.8983L31.7562 13.68L33.1086 14.6207C33.4249 14.8404 33.6985 15.12 33.9173 15.4441V15.4441C34.0404 15.627 34.2807 15.687 34.4703 15.5743C34.5846 15.5063 34.7233 15.4211 34.8789 15.32C35.4696 14.9374 36.305 14.3294 36.9801 13.5751" stroke="#979797" stroke-width="1.5"/>
<g filter="url(#filter0_d_10_1249)">
<path d="M37.5418 0.350782C38.5746 0.0553507 39.6563 0.628565 39.9918 1.64907L43.0382 10.916C43.3912 11.9897 42.785 13.1423 41.7004 13.46L37.3721 14.7276L36.188 11.1804L35.2175 8.31753L34.9716 7.59089L33.2607 2.54665L33.1354 2.17851L32.9605 1.66125L37.5418 0.350782Z" fill="#098DE6"/>
</g>
<g filter="url(#filter1_d_10_1249)">
<path d="M8.69954 1.11628C7.73329 0.646888 6.56881 1.02464 6.0621 1.97185L1.46079 10.5733C0.927676 11.5698 1.32562 12.8098 2.33908 13.3101L6.38337 15.3063L8.16237 12.0169L9.61276 9.36476L9.98054 8.69152L12.537 4.01862L12.724 3.67766L12.9856 3.19838L8.69954 1.11628Z" fill="#098DE6"/>
</g>
</g>
<defs>
<filter id="filter0_d_10_1249" x="22.9606" y="-5.72656" width="30.1783" height="34.4541" filterUnits="userSpaceOnUse" color-interpolation-filters="sRGB">
<feFlood flood-opacity="0" result="BackgroundImageFix"/>
<feColorMatrix in="SourceAlpha" type="matrix" values="0 0 0 0 0 0 0 0 0 0 0 0 0 0 0 0 0 0 127 0" result="hardAlpha"/>
<feOffset dy="4"/>
<feGaussianBlur stdDeviation="5"/>
<feComposite in2="hardAlpha" operator="out"/>
<feColorMatrix type="matrix" values="0 0 0 0 0.0352941 0 0 0 0 0.552941 0 0 0 0 0.901961 0 0 0 0.2 0"/>
<feBlend mode="normal" in2="BackgroundImageFix" result="effect1_dropShadow_10_1249"/>
<feBlend mode="normal" in="SourceGraphic" in2="effect1_dropShadow_10_1249" result="shape"/>
</filter>
<filter id="filter1_d_10_1249" x="-8.77618" y="-5.08496" width="31.7618" height="34.3911" filterUnits="userSpaceOnUse" color-interpolation-filters="sRGB">
<feFlood flood-opacity="0" result="BackgroundImageFix"/>
<feColorMatrix in="SourceAlpha" type="matrix" values="0 0 0 0 0 0 0 0 0 0 0 0 0 0 0 0 0 0 127 0" result="hardAlpha"/>
<feOffset dy="4"/>
<feGaussianBlur stdDeviation="5"/>
<feComposite in2="hardAlpha" operator="out"/>
<feColorMatrix type="matrix" values="0 0 0 0 0.0352941 0 0 0 0 0.552941 0 0 0 0 0.901961 0 0 0 0.2 0"/>
<feBlend mode="normal" in2="BackgroundImageFix" result="effect1_dropShadow_10_1249"/>
<feBlend mode="normal" in="SourceGraphic" in2="effect1_dropShadow_10_1249" result="shape"/>
</filter>
<clipPath id="clip0_10_1249">
<rect width="45" height="27" fill="white"/>
</clipPath>
</defs>
</svg>
