<svg width="26" height="22" viewBox="0 0 26 22" fill="none" xmlns="http://www.w3.org/2000/svg">
<path d="M13.9341 16.5376L15.2275 16.5376C15.7993 16.5376 16.3476 16.3025 16.7518 15.8841C17.1561 15.4657 17.3832 14.8981 17.3832 14.3064C17.3832 13.7146 17.1561 13.1471 16.7518 12.7287C16.3476 12.3103 15.7993 12.0752 15.2275 12.0752L22.8443 12.0752C23.416 12.0752 23.9643 11.8401 24.3686 11.4217C24.7729 11.0033 25 10.4357 25 9.84399C25 9.25224 24.7729 8.68473 24.3686 8.26629C23.9643 7.84786 23.416 7.61279 22.8443 7.61279L9.0515 7.61279L13.1473 5.16962C13.6433 4.87375 14.0054 4.38607 14.1539 3.81386C14.3025 3.24166 14.2254 2.6318 13.9395 2.11846C13.6537 1.60511 13.1825 1.23033 12.6296 1.07655C12.0768 0.922781 11.4876 1.00261 10.9916 1.29849C3.58682 4.93535 0.999999 7.14424 0.999999 12.0752C0.999999 13.2472 1.22303 14.4078 1.65637 15.4906C2.0897 16.5734 2.72485 17.5572 3.52554 18.386C4.32624 19.2147 5.27681 19.8721 6.32297 20.3206C7.36913 20.7692 8.4904 21 9.62275 21L13.9341 21C14.5059 21 15.0542 20.7649 15.4584 20.3465C15.8627 19.9281 16.0898 19.3606 16.0898 18.7688C16.0898 18.177 15.8627 17.6095 15.4584 17.1911C15.0542 16.7727 14.5059 16.5376 13.9341 16.5376Z" stroke="#2B2B2B" stroke-linecap="round" stroke-linejoin="round"/>
</svg>
