<svg xmlns="http://www.w3.org/2000/svg" width="60.667" height="78" viewBox="0 0 60.667 78">
  <g id="html-file" transform="translate(-3 -1)">
    <path id="Path_337" data-name="Path 337" d="M56,23.667H45.167a6.508,6.508,0,0,1-6.5-6.5V2H4V71.333H56Z" transform="translate(3.333 3.333)" fill="#fff"/>
    <path id="Path_338" data-name="Path 338" d="M26,16.977v-1.27l-13-13v12.1a2.173,2.173,0,0,0,2.167,2.167Z" transform="translate(33.333 5.69)" fill="#fff"/>
    <path id="Path_339" data-name="Path 339" d="M62.4,18.333,46.333,2.27A4.333,4.333,0,0,0,43.27,1H7.333A4.333,4.333,0,0,0,3,5.333V74.667A4.333,4.333,0,0,0,7.333,79h52a4.333,4.333,0,0,0,4.333-4.333V21.4A4.333,4.333,0,0,0,62.4,18.334ZM59.333,21.4v1.27H48.5A2.171,2.171,0,0,1,46.333,20.5V8.4Zm-52-15.2V73.8a.869.869,0,0,0,.867.867H58.467a.867.867,0,0,0,.867-.867V27H48.5A6.5,6.5,0,0,1,42,20.5V5.333H8.2a.867.867,0,0,0-.867.867Z" transform="translate(0 0)" fill="#605e5c" fill-rule="evenodd" opacity="0.64"/>
    <path id="Path_340" data-name="Path 340" d="M21.667,38.833A15.167,15.167,0,1,0,6.5,23.667,15.167,15.167,0,0,0,21.667,38.833Z" transform="translate(11.667 25)" fill="none" stroke="#098de6" stroke-width="3"/>
    <path id="Path_341" data-name="Path 341" d="M15,38.833c3.588,0,6.5-6.79,6.5-15.167S18.588,8.5,15,8.5,8.5,15.29,8.5,23.667,11.412,38.833,15,38.833Z" transform="translate(18.333 25)" fill="none" stroke="#098de6" stroke-width="3"/>
    <path id="Path_342" data-name="Path 342" d="M7,14.333H33V10H7Zm0,13H33V23H7Z" transform="translate(13.333 30)" fill="#098de6"/>
  </g>
</svg>
