<svg xmlns="http://www.w3.org/2000/svg" width="78" height="78" viewBox="0 0 78 78">
  <g id="Image-file" transform="translate(-2 -2)">
    <path id="Path_304" data-name="Path 304" d="M5.436,71.2H68.763A2.443,2.443,0,0,0,71.2,68.763V5.436A2.443,2.443,0,0,0,68.763,3H5.436A2.443,2.443,0,0,0,3,5.436V68.763A2.443,2.443,0,0,0,5.436,71.2Z" transform="translate(3.901 3.901)" fill="#fff"/>
    <path id="Path_305" data-name="Path 305" d="M37.8,16.324l-4.267,6.3-8.2-11.4a4.837,4.837,0,0,0-7.869,0L5.852,27.38a4.935,4.935,0,0,0-.394,5.1,4.856,4.856,0,0,0,4.331,2.673H49.381a4.856,4.856,0,0,0,4.3-2.613,4.935,4.935,0,0,0-.285-5.052L45.833,16.319a4.838,4.838,0,0,0-8.029,0v0Z" transform="translate(11.415 27.825)" fill="none" stroke="#a6ccc3" stroke-width="1"/>
    <path id="Path_306" data-name="Path 306" d="M17.4,15.3a4.9,4.9,0,1,0-4.9-4.9A4.9,4.9,0,0,0,17.4,15.3Z" transform="translate(40.649 13.55)" fill="none" stroke="#ff9810" stroke-width="1"/>
    <path id="Path_307" data-name="Path 307" d="M9.313,80H72.688A7.321,7.321,0,0,0,80,72.688V9.313A7.321,7.321,0,0,0,72.688,2H9.313A7.321,7.321,0,0,0,2,9.313V72.688A7.321,7.321,0,0,0,9.313,80ZM6.875,9.313A2.438,2.438,0,0,1,9.313,6.875H72.688a2.438,2.438,0,0,1,2.438,2.438V72.688a2.438,2.438,0,0,1-2.437,2.438H9.313a2.438,2.438,0,0,1-2.438-2.437Z" fill="#605e5c" fill-rule="evenodd" opacity="0.64"/>
  </g>
</svg>
