<svg width="50" height="50" viewBox="0 0 50 50" fill="none" xmlns="http://www.w3.org/2000/svg">
<path d="M35.6562 21.5983C38.074 21.5983 40.0357 19.6366 40.0357 17.2188C40.0357 14.801 38.074 12.8394 35.6562 12.8394C33.2384 12.8394 31.2767 14.801 31.2767 17.2188C31.2767 19.6366 33.2384 21.5983 35.6562 21.5983Z" fill="#098DE6" fill-opacity="0.68"/>
<path d="M43.3203 7H7.55469C6.13136 7 5 8.15873 5 9.58206V39.4537C5 40.877 6.13136 42.0357 7.55469 42.0357H43.3203C44.7436 42.0357 45.875 40.877 45.875 39.4537V9.58206C45.875 8.15873 44.7436 7 43.3203 7ZM33.9136 25.0379C33.6399 24.7186 33.2202 24.4722 32.7457 24.4722C32.2804 24.4722 31.952 24.6912 31.5779 24.9923L29.8717 26.4339C29.5159 26.6893 29.233 26.8627 28.8225 26.8627C28.4301 26.8627 28.0743 26.7167 27.8188 26.4886C27.7276 26.4065 27.5634 26.2514 27.4265 26.1145L22.5179 20.8044C22.1529 20.3847 21.6055 20.1201 20.9942 20.1201C20.3829 20.1201 19.8172 20.4212 19.4614 20.8318L7.91964 34.7549V10.9871C8.01088 10.3667 8.49445 9.91964 9.11487 9.91964H41.751C42.3806 9.91964 42.8915 10.385 42.928 11.0145L42.9554 34.7731L33.9136 25.0379Z" fill="#098DE6" fill-opacity="0.68"/>
</svg>
