<svg width="50" height="50" viewBox="0 0 50 50" fill="none" xmlns="http://www.w3.org/2000/svg">
<g clip-path="url(#clip0_289_11200)">
<path d="M40.625 42.1875H9.375C8.1318 42.1875 6.93951 41.6936 6.06044 40.8146C5.18136 39.9355 4.6875 38.7432 4.6875 37.5V12.5C4.6875 11.2568 5.18136 10.0645 6.06044 9.18544C6.93951 8.30636 8.1318 7.8125 9.375 7.8125H40.625C41.8682 7.8125 43.0605 8.30636 43.9396 9.18544C44.8186 10.0645 45.3125 11.2568 45.3125 12.5V37.5C45.3125 38.7432 44.8186 39.9355 43.9396 40.8146C43.0605 41.6936 41.8682 42.1875 40.625 42.1875ZM9.375 10.9375C8.9606 10.9375 8.56317 11.1021 8.27015 11.3951C7.97712 11.6882 7.8125 12.0856 7.8125 12.5V37.5C7.8125 37.9144 7.97712 38.3118 8.27015 38.6049C8.56317 38.8979 8.9606 39.0625 9.375 39.0625H40.625C41.0394 39.0625 41.4368 38.8979 41.7299 38.6049C42.0229 38.3118 42.1875 37.9144 42.1875 37.5V12.5C42.1875 12.0856 42.0229 11.6882 41.7299 11.3951C41.4368 11.1021 41.0394 10.9375 40.625 10.9375H9.375Z" fill="#098DE6" fill-opacity="0.68"/>
<path d="M34 22C33.2089 22 32.4355 21.7654 31.7777 21.3259C31.1199 20.8864 30.6072 20.2616 30.3045 19.5307C30.0017 18.7998 29.9225 17.9956 30.0769 17.2196C30.2312 16.4437 30.6122 15.731 31.1716 15.1716C31.731 14.6122 32.4437 14.2312 33.2196 14.0769C33.9956 13.9225 34.7998 14.0017 35.5307 14.3045C36.2616 14.6072 36.8864 15.1199 37.3259 15.7777C37.7654 16.4355 38 17.2089 38 18C38 19.0609 37.5786 20.0783 36.8284 20.8284C36.0783 21.5786 35.0609 22 34 22ZM34 16.6667C33.7363 16.6667 33.4785 16.7449 33.2592 16.8914C33.04 17.0379 32.8691 17.2461 32.7682 17.4898C32.6672 17.7334 32.6408 18.0015 32.6923 18.2601C32.7437 18.5188 32.8707 18.7563 33.0572 18.9428C33.2437 19.1293 33.4812 19.2563 33.7399 19.3077C33.9985 19.3592 34.2666 19.3328 34.5102 19.2318C34.7539 19.1309 34.9621 18.96 35.1086 18.7408C35.2551 18.5215 35.3333 18.2637 35.3333 18C35.3333 17.6464 35.1929 17.3072 34.9428 17.0572C34.6928 16.8071 34.3536 16.6667 34 16.6667Z" fill="#098DE6" fill-opacity="0.68"/>
<path d="M40.7003 38.9999C40.485 38.9987 40.2732 38.9413 40.0839 38.8328C39.8946 38.7242 39.7335 38.5679 39.6151 38.3777L33.9407 29.39C33.8211 29.2018 33.6595 29.0476 33.4703 28.9409C33.281 28.8343 33.0699 28.7785 32.8555 28.7785C32.641 28.7785 32.4299 28.8343 32.2406 28.9409C32.0514 29.0476 31.8899 29.2018 31.7702 29.39L31.3257 30.0814C31.1213 30.3497 30.8296 30.5276 30.5077 30.5804C30.1858 30.6331 29.8568 30.5569 29.5853 30.3666C29.3137 30.1763 29.1191 29.8856 29.0396 29.5515C28.96 29.2174 29.0013 28.864 29.1553 28.5604L29.5868 27.8552C29.9446 27.2847 30.4303 26.8168 31.0006 26.4931C31.571 26.1694 32.2082 26 32.8555 26C33.5027 26 34.14 26.1694 34.7103 26.4931C35.2806 26.8168 35.7663 27.2847 36.1241 27.8552L41.7855 36.8567C41.9747 37.1615 42.0425 37.5331 41.9739 37.8905C41.9053 38.2478 41.706 38.5621 41.4194 38.7649C41.2089 38.9208 40.9574 39.003 40.7003 38.9999Z" fill="#098DE6" fill-opacity="0.68"/>
<path d="M9.44754 39C9.16964 38.9993 8.89779 38.9195 8.66436 38.7702C8.34168 38.5641 8.11467 38.2396 8.03311 37.868C7.95155 37.4964 8.02208 37.1079 8.22925 36.7877L17.2649 22.9681C17.657 22.3679 18.1937 21.8738 18.8267 21.5302C19.4597 21.1866 20.169 21.0044 20.8907 21C21.6085 20.9997 22.3152 21.1754 22.9478 21.5112C23.5805 21.8471 24.1194 22.3328 24.5166 22.925L33.8277 36.7733C33.9986 37.0888 34.0443 37.456 33.9561 37.8031C33.8679 38.1502 33.652 38.4522 33.3508 38.6499C33.0496 38.8476 32.6847 38.9268 32.3276 38.872C31.9704 38.8172 31.6469 38.6323 31.4202 38.3536L22.0945 24.5196C21.9631 24.3219 21.7845 24.1595 21.5745 24.0468C21.3645 23.934 21.1296 23.8743 20.8907 23.8731C20.6505 23.8759 20.4148 23.9377 20.2046 24.0531C19.9945 24.1684 19.8166 24.3336 19.6869 24.5339L10.6658 38.3392C10.5348 38.5415 10.3546 38.708 10.1417 38.8234C9.9289 38.9389 9.69021 38.9996 9.44754 39Z" fill="#098DE6" fill-opacity="0.68"/>
</g>
<defs>
<clipPath id="clip0_289_11200">
<rect width="50" height="50" fill="white"/>
</clipPath>
</defs>
</svg>
