<svg width="36" height="36" viewBox="0 0 36 36" fill="none" xmlns="http://www.w3.org/2000/svg">
<path d="M27.8297 31.8664H26.7764V25.5731C26.7764 23.9731 25.7233 22.0532 24.3192 21.0933L20.2233 18.1065L24.3192 15.1198C25.7233 14.1599 26.7764 12.2398 26.7764 10.6398V4.13329H27.8297C28.5318 4.13329 29 3.70667 29 3.06661C29 2.42662 28.5318 2 27.8297 2H8.17025C7.46814 2 7 2.42662 7 3.06669C7 3.70667 7.46804 4.13338 8.17025 4.13338H9.22341V10.64C9.22341 12.24 10.2766 14.1599 11.6808 15.12L15.7765 18.1066L11.6808 21.0934C10.2766 22.0532 9.22341 23.9733 9.22341 25.5733V31.8667H8.17025C7.46814 31.8667 7 32.2933 7 32.9333C7 33.5734 7.46804 34 8.17025 34H27.8297C28.5318 34 29 33.5734 29 32.9333C29 32.2931 28.5318 31.8664 27.8297 31.8664Z" stroke="#979797" stroke-width="1.5" stroke-linecap="round" stroke-linejoin="round"/>
<path d="M11.7 32.7068V26.2887C11.7 25.3097 12.4363 24.0045 13.2954 23.4605L18.0819 20.0885C18.2976 19.961 18.4285 19.7961 18.5004 19.6158C18.5899 19.7535 18.7039 19.8784 18.818 19.9797L23.6046 23.4605C24.4638 24.0045 25.2 25.3098 25.2 26.2887V32.7068H11.7Z" fill="#098DE6"/>
</svg>
