<svg width="32" height="43" viewBox="0 0 32 43" fill="none" xmlns="http://www.w3.org/2000/svg">
<path d="M24.9361 28.9998H23.9786V23.0998C23.9786 21.5998 23.0212 19.7999 21.7447 18.8999L18.0212 16.0998L21.7447 13.2998C23.0212 12.3999 23.9786 10.5998 23.9786 9.09982V2.99996H24.9361C25.5744 2.99996 26 2.6 26 1.99994C26 1.39996 25.5744 1 24.9361 1H7.06386C6.42558 1 6 1.39996 6 2.00002C6 2.6 6.42549 3.00004 7.06386 3.00004H8.02128V9.09998C8.02128 10.6 8.9787 12.3999 10.2553 13.2999L13.9787 16.1L10.2553 18.9C8.9787 19.7999 8.02128 21.6 8.02128 23.1V29H7.06386C6.42558 29 6 29.3999 6 30C6 30.6 6.42549 31 7.06386 31H24.9361C25.5744 31 26 30.6 26 30C26 29.3998 25.5744 28.9998 24.9361 28.9998Z" stroke="#979797" stroke-width="1.5" stroke-linecap="round" stroke-linejoin="round"/>
<g filter="url(#filter0_d_210_5256)">
<path d="M10 29V23.1168C10 22.2193 10.6545 21.0229 11.4181 20.5243L15.6728 17.4332C15.8645 17.3163 15.9809 17.1652 16.0448 17C16.1244 17.1261 16.2257 17.2407 16.3272 17.3335L20.5819 20.5243C21.3456 21.0229 22 22.2194 22 23.1168V29H10Z" fill="#098DE6"/>
</g>
<defs>
<filter id="filter0_d_210_5256" x="0" y="11" width="32" height="32" filterUnits="userSpaceOnUse" color-interpolation-filters="sRGB">
<feFlood flood-opacity="0" result="BackgroundImageFix"/>
<feColorMatrix in="SourceAlpha" type="matrix" values="0 0 0 0 0 0 0 0 0 0 0 0 0 0 0 0 0 0 127 0" result="hardAlpha"/>
<feOffset dy="4"/>
<feGaussianBlur stdDeviation="5"/>
<feComposite in2="hardAlpha" operator="out"/>
<feColorMatrix type="matrix" values="0 0 0 0 0.0352941 0 0 0 0 0.552941 0 0 0 0 0.901961 0 0 0 0.2 0"/>
<feBlend mode="normal" in2="BackgroundImageFix" result="effect1_dropShadow_210_5256"/>
<feBlend mode="normal" in="SourceGraphic" in2="effect1_dropShadow_210_5256" result="shape"/>
</filter>
</defs>
</svg>
