<svg width="36" height="36" viewBox="0 0 36 36" fill="none" xmlns="http://www.w3.org/2000/svg">
<path d="M8.44617 4.15148C8.44617 2.96325 9.39933 2 10.5752 2H28.4371C29.613 2 30.5662 2.96325 30.5662 4.15148V25.5545C30.5662 26.7427 29.613 27.7059 28.4371 27.7059H10.5752C9.39933 27.7059 8.44617 26.7427 8.44617 25.5545V4.15148Z" stroke="#979797" stroke-width="1.5" stroke-linecap="round" stroke-linejoin="round"/>
<path d="M13.9753 7.02972H20.6114" stroke="#979797" stroke-width="1.5" stroke-linecap="round" stroke-linejoin="round"/>
<path d="M13.9753 12.0584H23.9294" stroke="#979797" stroke-width="1.5" stroke-linecap="round" stroke-linejoin="round"/>
<path fill-rule="evenodd" clip-rule="evenodd" d="M21.5709 27.2598C22.7048 25.7763 23.3794 23.9161 23.3794 21.8967C23.3794 17.0471 19.4888 13.1156 14.6897 13.1156C9.89046 13.1156 6 17.0471 6 21.8967C6 26.7464 9.89046 30.6779 14.6897 30.6779C16.6876 30.6779 18.5282 29.9965 19.9961 28.8511C20.0094 28.8661 20.0231 28.8808 20.0374 28.8952L24.7624 33.67C25.198 34.11 25.904 34.11 26.3395 33.67C26.775 33.2299 26.775 32.5164 26.3395 32.0762L21.6146 27.3016C21.6003 27.2871 21.5858 27.2733 21.5709 27.2598Z" fill="#098DE6"/>
<path d="M20.5177 21.8979C20.5177 18.6453 17.9084 16.0086 14.6898 16.0086" stroke="white" stroke-width="1.5" stroke-linecap="round"/>
</svg>
