<svg width="18" height="16" viewBox="0 0 18 16" fill="none" xmlns="http://www.w3.org/2000/svg">
<path opacity="0.2" fill-rule="evenodd" clip-rule="evenodd" d="M8.72147 1.08506C6.44218 0.585189 11.5001 2.08506 11.5008 11.0851C11.5012 17.5851 3.0887 15.085 7.50008 15.085C11.9115 15.085 15 16.085 17.0008 14.0849C16 12.585 11.0008 1.58493 8.72147 1.08506Z" fill="#4FA908"/>
<path d="M9.08458 5.66992C8.68816 5.66992 8.54982 5.88264 8.54982 6.25974C8.54982 7.4103 8.68516 9.06364 8.68516 10.2142C8.68519 10.514 8.77523 10.6396 9.08461 10.6396C9.31665 10.6396 9.49237 10.514 9.49237 10.2142C9.49237 9.06367 9.62771 7.41033 9.62771 6.25974C9.62771 5.88267 9.46168 5.66992 9.08458 5.66992Z" fill="#4FA908"/>
<path d="M9.07098 11.4902C8.65695 11.4902 8.4375 11.8438 8.4375 12.161C8.4375 12.4783 8.74123 12.7899 9.07098 12.7837C9.40074 12.7776 9.73099 12.5364 9.73099 12.137C9.73099 11.7376 9.48502 11.4902 9.07098 11.4902Z" fill="#4FA908"/>
<path d="M8.06367 1.58594C8.44857 0.919271 9.41082 0.919271 9.79572 1.58594L16.7239 13.5859C17.1088 14.2526 16.6277 15.0859 15.8579 15.0859H2.00149C1.23169 15.0859 0.750566 14.2526 1.13547 13.5859L8.06367 1.58594Z" stroke="#535353" stroke-linecap="round" stroke-linejoin="round"/>
</svg>
