<svg width="36" height="36" viewBox="0 0 36 36" fill="none" xmlns="http://www.w3.org/2000/svg">
<path fill-rule="evenodd" clip-rule="evenodd" d="M27.0759 15.8737C27.0135 15.6724 26.8476 15.5258 26.6479 15.4954L21.6152 14.7288C21.2534 14.6736 20.9427 14.4418 20.7868 14.1106L18.5265 9.30988C18.4372 9.12012 18.2529 9 18.0511 9C17.8491 9 17.6648 9.12012 17.5755 9.30988L15.3151 14.1107C15.1592 14.4418 14.8485 14.6736 14.4867 14.7288L9.4541 15.4954C9.25437 15.5258 9.08837 15.6724 9.02597 15.8737C8.96357 16.075 9.01565 16.2959 9.16022 16.4437L12.832 20.1957C13.0764 20.4455 13.1873 20.7966 13.131 21.1415L12.2623 26.452C12.2282 26.6606 12.3099 26.8713 12.4733 26.9957C12.5657 27.0661 12.6751 27.1019 12.785 27.1019C12.8694 27.1019 12.9541 27.0808 13.0317 27.038L17.5207 24.5639C17.8508 24.382 18.2511 24.382 18.5812 24.5639L23.07 27.038C23.2487 27.1364 23.4653 27.12 23.6285 26.9957C23.7918 26.8713 23.8736 26.6605 23.8396 26.4519L22.9706 21.1415C22.9141 20.7966 23.0252 20.4455 23.2696 20.1957L26.9418 16.4435C27.0862 16.2959 27.1383 16.075 27.0759 15.8737Z" fill="#098DE6"/>
<path fill-rule="evenodd" clip-rule="evenodd" d="M33.9541 14.1512C33.8437 13.7954 33.5504 13.5361 33.1973 13.4824L23.8526 12.0588C23.4925 12.004 23.1815 11.7679 23.0214 11.428L18.8407 2.5478C18.6828 2.21235 18.3568 2 18 2C17.6431 2 17.3173 2.21235 17.1594 2.5478L12.9783 11.428C12.8183 11.768 12.5073 12.004 12.1473 12.0588L2.80267 13.4824C2.44961 13.5361 2.15617 13.7954 2.04593 14.1512C1.93562 14.507 2.02761 14.8976 2.28318 15.1587L9.05003 22.0736C9.30757 22.3368 9.42509 22.7144 9.36451 23.0846L7.76689 32.8511C7.70653 33.2199 7.85114 33.5924 8.13984 33.8124C8.3031 33.9368 8.49654 34 8.69097 34C8.84015 34 8.99 33.9627 9.12705 33.8871L17.4832 29.2817C17.8064 29.1036 18.1935 29.1036 18.5166 29.2817L26.8725 33.8871C27.1884 34.0612 27.5711 34.0322 27.8598 33.8123C28.1485 33.5924 28.2932 33.2198 28.2329 32.851L26.6348 23.0847C26.5742 22.7145 26.6916 22.3368 26.9493 22.0736L33.7168 15.1586C33.9724 14.8976 34.0644 14.507 33.9541 14.1512Z" stroke="#979797" stroke-width="1.5"/>
</svg>
