<svg width="51" height="54" viewBox="0 0 51 54" fill="none" xmlns="http://www.w3.org/2000/svg">
<g filter="url(#filter0_d_168_3638)">
<path fill-rule="evenodd" clip-rule="evenodd" d="M39.4152 21.9336C39.3195 21.6248 39.065 21.3997 38.7585 21.3531L30.6759 20.1218C30.3464 20.0716 30.0637 19.8607 29.9217 19.5592L26.2983 11.863C26.1613 11.5719 25.8785 11.3876 25.5688 11.3876C25.259 11.3876 24.9762 11.5719 24.8391 11.863L21.2156 19.5592C21.0737 19.8607 20.7909 20.0716 20.4615 20.1218L12.379 21.3531C12.0726 21.3997 11.8179 21.6248 11.7222 21.9335C11.6265 22.2424 11.7063 22.5813 11.9281 22.8079L17.8041 28.8125C18.0265 29.0398 18.1276 29.3594 18.0762 29.6733L16.6875 38.1632C16.6351 38.4832 16.7606 38.8065 17.0111 38.9974C17.1529 39.1054 17.3207 39.1603 17.4894 39.1603C17.619 39.1603 17.7489 39.1279 17.868 39.0623L25.086 35.0842C25.3865 34.9186 25.7509 34.9186 26.0514 35.0842L33.2692 39.0623C33.5434 39.2133 33.8755 39.1882 34.126 38.9974C34.3766 38.8065 34.5022 38.4831 34.4498 38.1631L33.0606 29.6734C33.0092 29.3594 33.1103 29.0398 33.3328 28.8124L39.2094 22.8079C39.4311 22.5813 39.511 22.2424 39.4152 21.9336Z" fill="#098DE6"/>
</g>
<path fill-rule="evenodd" clip-rule="evenodd" d="M49.8098 18.8471C49.6414 18.3245 49.1933 17.9436 48.654 17.8647L34.0224 15.7215C33.696 15.6737 33.4142 15.4681 33.2692 15.1718L26.7241 1.80458C26.483 1.31188 25.9851 1 25.4401 1C24.8949 1 24.3972 1.31188 24.1559 1.80458L17.6106 15.1718C17.4655 15.4681 17.1837 15.6737 16.8574 15.7215L2.22609 17.8647C1.68679 17.9436 1.23856 18.3245 1.07016 18.847C0.901655 19.3697 1.04218 19.9433 1.43255 20.3268L12.0243 30.7341C12.2577 30.9634 12.3642 31.2925 12.3093 31.6151L9.80894 46.3126C9.71672 46.8542 9.93763 47.4013 10.3786 47.7244C10.6281 47.907 10.9235 48 11.2204 48C11.4484 48 11.6772 47.9452 11.8866 47.8342L24.9717 40.8999C25.2646 40.7447 25.6153 40.7447 25.9082 40.8999L38.9927 47.8341C39.4753 48.0898 40.0599 48.0472 40.5009 47.7243C40.9418 47.4013 41.1628 46.854 41.0707 46.3124L38.5695 31.6152C38.5146 31.2925 38.6211 30.9634 38.8545 30.7341L49.4475 20.3267C49.8378 19.9433 49.9784 19.3697 49.8098 18.8471Z" stroke="#979797" stroke-width="1.5"/>
<defs>
<filter id="filter0_d_168_3638" x="1.68237" y="5.38757" width="47.7727" height="47.7727" filterUnits="userSpaceOnUse" color-interpolation-filters="sRGB">
<feFlood flood-opacity="0" result="BackgroundImageFix"/>
<feColorMatrix in="SourceAlpha" type="matrix" values="0 0 0 0 0 0 0 0 0 0 0 0 0 0 0 0 0 0 127 0" result="hardAlpha"/>
<feOffset dy="4"/>
<feGaussianBlur stdDeviation="5"/>
<feComposite in2="hardAlpha" operator="out"/>
<feColorMatrix type="matrix" values="0 0 0 0 0.0352941 0 0 0 0 0.552941 0 0 0 0 0.901961 0 0 0 0.2 0"/>
<feBlend mode="normal" in2="BackgroundImageFix" result="effect1_dropShadow_168_3638"/>
<feBlend mode="normal" in="SourceGraphic" in2="effect1_dropShadow_168_3638" result="shape"/>
</filter>
</defs>
</svg>
