<svg width="38" height="38" viewBox="0 0 38 38" fill="none" xmlns="http://www.w3.org/2000/svg">
<g filter="url(#filter0_d_440_1514)">
<path fill-rule="evenodd" clip-rule="evenodd" d="M27.1621 13.4199C27.1053 13.2367 26.9543 13.1032 26.7725 13.0755L22.1915 12.3777C21.8621 12.3275 21.5793 12.1165 21.4374 11.815L19.38 7.44516C19.2987 7.27243 19.1309 7.16309 18.9472 7.16309C18.7634 7.16309 18.5956 7.27243 18.5143 7.44516L16.4568 11.8151C16.3149 12.1165 16.0321 12.3275 15.7027 12.3777L11.1218 13.0755C10.94 13.1032 10.7889 13.2367 10.7321 13.4199C10.6753 13.6031 10.7227 13.8042 10.8543 13.9387L14.1965 17.354C14.419 17.5814 14.52 17.901 14.4687 18.2149L13.678 23.0488C13.6469 23.2387 13.7213 23.4305 13.87 23.5437C13.9541 23.6078 14.0537 23.6404 14.1538 23.6404C14.2306 23.6404 14.3077 23.6212 14.3783 23.5822L18.4644 21.3302C18.7649 21.1646 19.1293 21.1646 19.4298 21.3302L23.5157 23.5822C23.6784 23.6718 23.8755 23.6569 24.0241 23.5437C24.1727 23.4305 24.2472 23.2386 24.2162 23.0487L23.4252 18.2149C23.3738 17.901 23.4749 17.5814 23.6974 17.354L27.04 13.9386C27.1715 13.8042 27.2189 13.6031 27.1621 13.4199Z" fill="#098DE6"/>
</g>
<path fill-rule="evenodd" clip-rule="evenodd" d="M33.329 11.5885C33.229 11.2784 32.9632 11.0525 32.6432 11.0057L24.1745 9.76519C23.8482 9.71739 23.5664 9.51173 23.4213 9.2155L19.6325 1.47735C19.4894 1.18504 19.194 1 18.8706 1C18.5472 1 18.2519 1.18504 18.1088 1.47735L14.3197 9.21552C14.1747 9.51174 13.8929 9.71739 13.5666 9.76519L5.09803 11.0057C4.77807 11.0525 4.51214 11.2784 4.41223 11.5885C4.31226 11.8985 4.39563 12.2389 4.62724 12.4664L10.7597 18.492C10.9931 18.7214 11.0996 19.0504 11.0447 19.373L9.59686 27.8835C9.54215 28.2048 9.67321 28.5294 9.93484 28.7211C10.0828 28.8295 10.2581 28.8846 10.4343 28.8846C10.5695 28.8846 10.7053 28.8521 10.8295 28.7862L18.4023 24.7731C18.6952 24.6179 19.046 24.6179 19.3388 24.7731L26.9113 28.7862C27.1976 28.9379 27.5444 28.9127 27.8061 28.721C28.0677 28.5294 28.1988 28.2047 28.1442 27.8834L26.6959 19.3731C26.641 19.0505 26.7474 18.7214 26.9809 18.492L33.114 12.4663C33.3456 12.2389 33.429 11.8985 33.329 11.5885Z" stroke="#979797" stroke-width="1.5"/>
<defs>
<filter id="filter0_d_440_1514" x="0.708496" y="1.16309" width="36.4771" height="36.4775" filterUnits="userSpaceOnUse" color-interpolation-filters="sRGB">
<feFlood flood-opacity="0" result="BackgroundImageFix"/>
<feColorMatrix in="SourceAlpha" type="matrix" values="0 0 0 0 0 0 0 0 0 0 0 0 0 0 0 0 0 0 127 0" result="hardAlpha"/>
<feOffset dy="4"/>
<feGaussianBlur stdDeviation="5"/>
<feComposite in2="hardAlpha" operator="out"/>
<feColorMatrix type="matrix" values="0 0 0 0 0.0352941 0 0 0 0 0.552941 0 0 0 0 0.901961 0 0 0 0.2 0"/>
<feBlend mode="normal" in2="BackgroundImageFix" result="effect1_dropShadow_440_1514"/>
<feBlend mode="normal" in="SourceGraphic" in2="effect1_dropShadow_440_1514" result="shape"/>
</filter>
</defs>
</svg>
