<svg width="36" height="36" viewBox="0 0 36 36" fill="none" xmlns="http://www.w3.org/2000/svg">
<path fill-rule="evenodd" clip-rule="evenodd" d="M18 2C9.17724 2 2 9.17725 2 18C2 26.8227 9.17724 34 18 34C26.8227 34 34 26.8227 34 18C34 9.17725 26.8227 2 18 2Z" stroke="#979797" stroke-width="1.5" stroke-linecap="round" stroke-linejoin="round"/>
<path d="M15.7143 11H12.2857C11.5756 11 11 11.4948 11 12.1053V23.8947C11 24.5052 11.5756 25 12.2857 25H15.7143C16.4244 25 17 24.5052 17 23.8947V12.1053C17 11.4948 16.4244 11 15.7143 11Z" fill="#098DE6"/>
<path d="M23.7144 11H20.2858C19.5758 11 19.0001 11.4948 19.0001 12.1053V23.8947C19.0001 24.5052 19.5758 25 20.2858 25H23.7144C24.4245 25 25.0001 24.5052 25.0001 23.8947V12.1053C25.0001 11.4948 24.4245 11 23.7144 11Z" fill="#098DE6"/>
</svg>
