<svg width="54" height="56" viewBox="0 0 54 56" fill="none" xmlns="http://www.w3.org/2000/svg">
<circle cx="20.5" cy="20.5" r="19.5" stroke="#979797" stroke-width="1.5" stroke-linejoin="round"/>
<path d="M20.5001 4.72794V1" stroke="#979797" stroke-width="1.5" stroke-linecap="round" stroke-linejoin="round"/>
<circle cx="20.5" cy="21.5" r="1.5" transform="rotate(180 20.5 21.5)" stroke="#979797" stroke-width="1.5" stroke-linejoin="round"/>
<path d="M20.4998 19.3114V11.8555" stroke="#979797" stroke-width="1.5" stroke-linecap="round" stroke-linejoin="round"/>
<path d="M13 32.5L20 23" stroke="#979797" stroke-width="1.5" stroke-linecap="round" stroke-linejoin="round"/>
<g filter="url(#filter0_d_210_3098)">
<path d="M32.6067 19.9928L43.5236 38.8492C43.6975 39.1504 43.7892 39.4921 43.7896 39.8399C43.7899 40.1877 43.6988 40.5295 43.5254 40.831C43.352 41.1326 43.1024 41.3833 42.8016 41.558C42.5009 41.7327 42.1595 41.8253 41.8117 41.8265H19.9779C19.6301 41.8253 19.2887 41.7327 18.9879 41.558C18.6871 41.3833 18.4376 41.1326 18.2642 40.831C18.0908 40.5295 17.9997 40.1877 18 39.8399C18.0003 39.4921 18.092 39.1504 18.2659 38.8492L29.1828 19.9928C29.3554 19.6911 29.6047 19.4405 29.9053 19.2661C30.2059 19.0918 30.5473 19 30.8948 19C31.2423 19 31.5836 19.0918 31.8843 19.2661C32.1849 19.4405 32.4341 19.6911 32.6067 19.9928Z" fill="#098DE6"/>
</g>
<path fill-rule="evenodd" clip-rule="evenodd" d="M30.8951 25.4102C30.3253 25.4102 29.8635 25.872 29.8635 26.4418V32.8926C29.8635 33.4624 30.3253 33.9242 30.8951 33.9242C31.4648 33.9242 31.9267 33.4624 31.9267 32.8926V26.4418C31.9267 25.872 31.4648 25.4102 30.8951 25.4102Z" fill="white"/>
<path d="M30.9 38.8504C30.0779 38.8504 29.4114 38.1839 29.4114 37.3617C29.4114 36.5395 30.0779 35.873 30.9 35.873C31.7222 35.873 32.3887 36.5395 32.3887 37.3617C32.3887 38.1839 31.7222 38.8504 30.9 38.8504Z" fill="white"/>
<defs>
<filter id="filter0_d_210_3098" x="8" y="13" width="45.7896" height="42.8267" filterUnits="userSpaceOnUse" color-interpolation-filters="sRGB">
<feFlood flood-opacity="0" result="BackgroundImageFix"/>
<feColorMatrix in="SourceAlpha" type="matrix" values="0 0 0 0 0 0 0 0 0 0 0 0 0 0 0 0 0 0 127 0" result="hardAlpha"/>
<feOffset dy="4"/>
<feGaussianBlur stdDeviation="5"/>
<feComposite in2="hardAlpha" operator="out"/>
<feColorMatrix type="matrix" values="0 0 0 0 0.0352941 0 0 0 0 0.552941 0 0 0 0 0.901961 0 0 0 0.2 0"/>
<feBlend mode="normal" in2="BackgroundImageFix" result="effect1_dropShadow_210_3098"/>
<feBlend mode="normal" in="SourceGraphic" in2="effect1_dropShadow_210_3098" result="shape"/>
</filter>
</defs>
</svg>
