<svg width="36" height="36" viewBox="0 0 36 36" fill="none" xmlns="http://www.w3.org/2000/svg">
<g clip-path="url(#clip0_182_11473)">
<circle cx="16.583" cy="17.583" r="14.583" stroke="#979797" stroke-width="1.5" stroke-linejoin="round"/>
<path d="M16.583 5.78793V3" stroke="#979797" stroke-width="1.5" stroke-linecap="round" stroke-linejoin="round"/>
<circle cx="16.5831" cy="18.3309" r="1.12177" transform="rotate(180 16.5831 18.3309)" stroke="#979797" stroke-width="1.5" stroke-linejoin="round"/>
<path d="M16.5829 16.6941V11.1183" stroke="#979797" stroke-width="1.5" stroke-linecap="round" stroke-linejoin="round"/>
<path d="M10.9742 26.5572L16.2092 19.4526" stroke="#979797" stroke-width="1.5" stroke-linecap="round" stroke-linejoin="round"/>
<g filter="url(#filter0_d_182_11473)">
<path d="M25.637 17.2037L33.8011 31.3054C33.9312 31.5306 33.9998 31.7861 34 32.0463C34.0002 32.3064 33.9321 32.562 33.8024 32.7875C33.6728 33.013 33.4861 33.2005 33.2612 33.3311C33.0363 33.4618 32.781 33.531 32.5208 33.532H16.1926C15.9324 33.531 15.6771 33.4618 15.4522 33.3311C15.2273 33.2005 15.0406 33.013 14.911 32.7875C14.7813 32.562 14.7132 32.3064 14.7134 32.0463C14.7136 31.7861 14.7822 31.5306 14.9123 31.3054L23.0764 17.2037C23.2055 16.9781 23.3919 16.7907 23.6167 16.6603C23.8415 16.5299 24.0968 16.4612 24.3567 16.4612C24.6166 16.4612 24.8719 16.5299 25.0967 16.6603C25.3215 16.7907 25.5079 16.9781 25.637 17.2037V17.2037Z" fill="#098DE6"/>
</g>
<path fill-rule="evenodd" clip-rule="evenodd" d="M24.3569 21.2551C23.9309 21.2551 23.5855 21.6005 23.5855 22.0266V26.8509C23.5855 27.2769 23.9309 27.6223 24.3569 27.6223C24.783 27.6223 25.1284 27.2769 25.1284 26.8509V22.0266C25.1284 21.6005 24.783 21.2551 24.3569 21.2551Z" fill="white"/>
<path d="M24.3606 31.3061C23.7457 31.3061 23.2473 30.8077 23.2473 30.1928C23.2473 29.578 23.7457 29.0795 24.3606 29.0795C24.9754 29.0795 25.4739 29.578 25.4739 30.1928C25.4739 30.8077 24.9754 31.3061 24.3606 31.3061Z" fill="white"/>
</g>
<defs>
<filter id="filter0_d_182_11473" x="4.71338" y="10.4612" width="39.2866" height="37.0707" filterUnits="userSpaceOnUse" color-interpolation-filters="sRGB">
<feFlood flood-opacity="0" result="BackgroundImageFix"/>
<feColorMatrix in="SourceAlpha" type="matrix" values="0 0 0 0 0 0 0 0 0 0 0 0 0 0 0 0 0 0 127 0" result="hardAlpha"/>
<feOffset dy="4"/>
<feGaussianBlur stdDeviation="5"/>
<feComposite in2="hardAlpha" operator="out"/>
<feColorMatrix type="matrix" values="0 0 0 0 0.0352941 0 0 0 0 0.552941 0 0 0 0 0.901961 0 0 0 0.2 0"/>
<feBlend mode="normal" in2="BackgroundImageFix" result="effect1_dropShadow_182_11473"/>
<feBlend mode="normal" in="SourceGraphic" in2="effect1_dropShadow_182_11473" result="shape"/>
</filter>
<clipPath id="clip0_182_11473">
<rect width="36" height="36" fill="white"/>
</clipPath>
</defs>
</svg>
