<svg xmlns="http://www.w3.org/2000/svg" width="66.857" height="78" viewBox="0 0 66.857 78">
  <path id="pdf-file" d="M66.468,18.744a10.128,10.128,0,0,1,2.089,3.308,10.045,10.045,0,0,1,.87,3.83V76.025A4.161,4.161,0,0,1,65.249,80.2H6.749a4.03,4.03,0,0,1-2.96-1.219,4.03,4.03,0,0,1-1.219-2.96V6.382a4.03,4.03,0,0,1,1.219-2.96A4.03,4.03,0,0,1,6.749,2.2h39a10.048,10.048,0,0,1,3.83.871,10.128,10.128,0,0,1,3.308,2.089ZM47.142,8.123V24.489H63.508a4.756,4.756,0,0,0-.957-1.785L48.927,9.081a4.754,4.754,0,0,0-1.785-.958ZM63.856,74.632V30.061H45.749a4.161,4.161,0,0,1-4.179-4.179V7.775H8.142V74.632H63.856ZM41.484,48.821a33.118,33.118,0,0,0,3.656,2.438,43.192,43.192,0,0,1,5.093-.3q6.4,0,7.7,2.133a2.1,2.1,0,0,1,.087,2.263.126.126,0,0,1-.043.087l-.087.087v.043q-.261,1.654-3.09,1.654a17.955,17.955,0,0,1-5.006-.871,31.739,31.739,0,0,1-5.658-2.307,78.377,78.377,0,0,0-17.062,3.613q-6.66,11.4-10.534,11.4a2.532,2.532,0,0,1-1.219-.3l-1.045-.522q-.043-.044-.261-.218a1.8,1.8,0,0,1-.261-1.567,9.453,9.453,0,0,1,2.438-3.983,21.036,21.036,0,0,1,5.746-4.2.635.635,0,0,1,1,.261.251.251,0,0,1,.087.174q2.263-3.7,4.657-8.575a66.433,66.433,0,0,0,4.527-11.4,35.186,35.186,0,0,1-1.328-6.943,16.924,16.924,0,0,1,.283-5.55q.479-1.741,1.828-1.741h.958a1.835,1.835,0,0,1,1.523.653,3.476,3.476,0,0,1,.392,2.96.944.944,0,0,1-.174.348,1.133,1.133,0,0,1,.043.348V30.1a57,57,0,0,1-.609,8.357q2.394,7.138,6.355,10.359ZM16.412,66.71q2.263-1.045,5.963-6.877a24.813,24.813,0,0,0-3.809,3.656A14.468,14.468,0,0,0,16.412,66.71ZM33.736,26.665a12.942,12.942,0,0,0-.087,5.746q.043-.3.3-1.915,0-.131.3-1.872a.979.979,0,0,1,.174-.348.125.125,0,0,1-.043-.087.088.088,0,0,0-.022-.065.088.088,0,0,1-.022-.065,2.505,2.505,0,0,0-.566-1.567.126.126,0,0,1-.043.087v.087Zm-5.4,28.771A63.844,63.844,0,0,1,40.7,51.911a6.569,6.569,0,0,1-.566-.414,7.794,7.794,0,0,1-.7-.588,23.056,23.056,0,0,1-5.528-7.661A58.165,58.165,0,0,1,30.3,51.824q-1.306,2.438-1.959,3.613Zm28.118-.7Q55.412,53.7,50.363,53.7a16.464,16.464,0,0,0,5.4,1.219,4.222,4.222,0,0,0,.784-.043q0-.043-.087-.131Z" transform="translate(-2.571 -2.203)" fill="#ff3030"/>
</svg>
