<svg width="47" height="48" viewBox="0 0 47 48" fill="none" xmlns="http://www.w3.org/2000/svg">
<path d="M28.8491 1.24084C27.2969 2.82717 26.4384 4.94202 26.4309 7.19544C26.437 8.48662 26.743 9.74804 27.2904 10.8988L19.785 18.571C15.5896 16.4859 10.4765 17.3337 7.15302 20.731C6.99626 20.8912 6.91769 21.1017 6.91769 21.3118C6.91769 21.5219 6.99625 21.7321 7.15302 21.8927L14.4744 29.3768L3.86558 40.2214C3.80424 40.2841 3.75365 40.3557 3.71492 40.4349L1.08502 45.8115C1.02798 45.9277 1 46.0535 1 46.1782C1 46.3916 1.08107 46.6017 1.23533 46.7594C1.47963 47.0091 1.85343 47.0715 2.16305 46.9134L7.42275 44.2251C7.49988 44.1855 7.57019 44.1338 7.63153 44.071L18.2404 33.2264L25.5618 40.7105C25.8757 41.0314 26.384 41.0314 26.6982 40.7105C30.0222 37.3141 30.8517 32.0867 28.8112 27.7978L36.3037 20.1388C39.4494 21.717 43.2559 21.097 45.7646 18.5323C46.0785 18.2114 46.0785 17.6918 45.7646 17.3705L29.9854 1.24065C29.6715 0.919782 29.1628 0.919782 28.8489 1.24065L28.8491 1.24084ZM15.6101 30.5379L17.1039 32.0649L6.58691 42.8147L3.60014 44.3413L5.09357 41.2882L15.6101 30.5379ZM28.1503 12.3427C28.1531 12.3464 28.1564 12.3493 28.1592 12.3533C28.3748 12.6375 28.6048 12.906 28.8491 13.1553L34.1088 18.5319C34.3534 18.7824 34.6164 19.0174 34.894 19.2375C34.8976 19.24 34.9001 19.2433 34.9037 19.2463L27.258 27.0619C27.0051 27.3215 26.9499 27.7216 27.1242 28.0424C29.0349 31.5474 28.5957 35.9148 26.1058 38.9424L8.88203 21.3359C11.8445 18.7902 16.1169 18.3414 19.545 20.2948C19.8589 20.4737 20.2503 20.4176 20.5043 20.158L28.1503 12.3427ZM29.4514 3.01811L44.0257 17.9163C41.8995 19.62 38.941 19.8496 36.5691 18.4224C36.0801 18.1221 35.6346 17.7678 35.2454 17.3703L29.9857 11.9937C29.5965 11.5955 29.2496 11.1397 28.9557 10.6391C28.3628 9.60202 28.0438 8.40735 28.0385 7.1939C28.0438 5.66108 28.5403 4.20449 29.4519 3.01826L29.4514 3.01811Z" fill="#232832" stroke="#232832" stroke-width="1.5"/>
</svg>
