<svg id="ppt-file" xmlns="http://www.w3.org/2000/svg" xmlns:xlink="http://www.w3.org/1999/xlink" width="83.85" height="78" viewBox="0 0 83.85 78">
  <defs>
    <linearGradient id="linear-gradient" x1="0.174" y1="1.067" x2="0.826" y2="-0.063" gradientUnits="objectBoundingBox">
      <stop offset="0" stop-color="#ca4c28"/>
      <stop offset="0.5" stop-color="#c5401e"/>
      <stop offset="1" stop-color="#b62f14"/>
    </linearGradient>
  </defs>
  <path id="Path_317" data-name="Path 317" d="M178.8,42.9,172.95,0h-.437A38.676,38.676,0,0,0,133.95,38.563V39Z" transform="translate(-128.1)" fill="#ed6c47"/>
  <path id="Path_318" data-name="Path 318" d="M1027.385,0h-.437V39l19.5,7.8,19.5-7.8v-.437A38.676,38.676,0,0,0,1027.385,0Z" transform="translate(-982.098)" fill="#ff8f6b"/>
  <path id="Path_319" data-name="Path 319" d="M211.95,893v.429A38.682,38.682,0,0,1,173.379,932h-.858a38.682,38.682,0,0,1-38.571-38.571V893Z" transform="translate(-128.1 -854)" fill="#d35230"/>
  <path id="Path_320" data-name="Path 320" d="M174.9,360.768v41.613a3.59,3.59,0,0,1-2.223,3.3,3.457,3.457,0,0,1-1.346.273H143.153c-.546-.624-1.072-1.287-1.56-1.95a38.247,38.247,0,0,1-7.644-22.971v-.858a38.132,38.132,0,0,1,6.279-21.021c.429-.663.877-1.326,1.365-1.95H171.33A3.6,3.6,0,0,1,174.9,360.768Z" transform="translate(-128.099 -341.599)" opacity="0.1"/>
  <path id="Path_321" data-name="Path 321" d="M172.948,405.418v41.613a3.455,3.455,0,0,1-.273,1.345,3.59,3.59,0,0,1-3.3,2.223H144.927q-.925-.94-1.775-1.95c-.546-.624-1.072-1.287-1.56-1.95a38.248,38.248,0,0,1-7.644-22.971v-.858a38.132,38.132,0,0,1,6.279-21.021H169.38A3.6,3.6,0,0,1,172.948,405.418Z" transform="translate(-128.098 -384.3)" opacity="0.2"/>
  <path id="Path_322" data-name="Path 322" d="M172.949,405.42v37.713a3.6,3.6,0,0,1-3.568,3.569H141.593a38.248,38.248,0,0,1-7.644-22.971v-.858a38.132,38.132,0,0,1,6.279-21.021h29.152A3.6,3.6,0,0,1,172.949,405.42Z" transform="translate(-128.099 -384.301)" opacity="0.2"/>
  <path id="Path_323" data-name="Path 323" d="M171,405.42v37.713a3.6,3.6,0,0,1-3.568,3.569H141.593a38.248,38.248,0,0,1-7.644-22.971v-.858a38.132,38.132,0,0,1,6.279-21.021h27.2A3.6,3.6,0,0,1,171,405.42Z" transform="translate(-128.099 -384.301)" opacity="0.2"/>
  <path id="Path_324" data-name="Path 324" d="M3.574,401.85H39.326a3.574,3.574,0,0,1,3.574,3.574v35.751a3.574,3.574,0,0,1-3.574,3.574H3.574A3.574,3.574,0,0,1,0,441.176V405.424A3.574,3.574,0,0,1,3.574,401.85Z" transform="translate(0 -384.3)" fill="url(#linear-gradient)"/>
  <path id="Path_325" data-name="Path 325" d="M293.369,619.656a9.826,9.826,0,0,1,6.509,1.907,6.825,6.825,0,0,1,2.266,5.524,7.687,7.687,0,0,1-1.117,4.128,7.466,7.466,0,0,1-3.173,2.8,10.772,10.772,0,0,1-4.772,1H288.56v8.4h-4.631V619.656Zm-4.813,11.735h3.986a5.176,5.176,0,0,0,3.524-1.051,3.9,3.9,0,0,0,1.191-3.075q0-3.929-4.567-3.929h-4.134Z" transform="translate(-271.529 -592.572)" fill="#fff"/>
</svg>
