<svg width="50" height="50" viewBox="0 0 50 50" fill="none" xmlns="http://www.w3.org/2000/svg">
<path fill-rule="evenodd" clip-rule="evenodd" d="M14.1779 7.44415H29.7723C30.1917 7.44415 30.5941 7.60896 30.8907 7.90231L36.7624 13.7091C37.059 14.0024 37.2256 14.4003 37.2256 14.8152V40.0699C37.2256 41.9211 35.7081 43.4218 33.8362 43.4218H14.1779C12.3059 43.4218 10.7885 41.9211 10.7885 40.0699V10.7961C10.7885 8.94487 12.3059 7.44415 14.1779 7.44415ZM29.7715 7.89115H14.177C12.5547 7.89115 11.2396 9.19177 11.2396 10.7962V40.0699C11.2396 41.6743 12.5547 42.975 14.177 42.975H33.8354C35.4577 42.975 36.7729 41.6743 36.7729 40.0699V14.8152C36.7729 14.5189 36.6538 14.2347 36.442 14.0252L30.5703 8.21839C30.3584 8.00886 30.0711 7.89115 29.7715 7.89115Z" fill="#979797"/>
<path d="M29.7724 6.94446H14.1779V7.94384H29.7724V6.94446ZM31.2421 7.54701C30.8514 7.16058 30.3226 6.94446 29.7724 6.94446V7.94384C30.0611 7.94384 30.3369 8.05733 30.5394 8.25759L31.2421 7.54701ZM37.1137 13.3538L31.2421 7.54701L30.5394 8.25759L36.411 14.0644L37.1137 13.3538ZM37.7253 14.8152C37.7253 14.266 37.5047 13.7404 37.1137 13.3538L36.411 14.0644C36.6133 14.2644 36.7259 14.5346 36.7259 14.8152H37.7253ZM37.7253 40.0699V14.8152H36.7259V40.0699H37.7253ZM33.8362 43.9215C35.9789 43.9215 37.7253 42.2023 37.7253 40.0699H36.7259C36.7259 41.6399 35.4374 42.9221 33.8362 42.9221V43.9215ZM14.1779 43.9215H33.8362V42.9221H14.1779V43.9215ZM10.2888 40.0699C10.2888 42.2023 12.0353 43.9215 14.1779 43.9215V42.9221C12.5767 42.9221 11.2882 41.6399 11.2882 40.0699H10.2888ZM10.2888 10.7961V40.0699H11.2882V10.7961H10.2888ZM14.1779 6.94446C12.0353 6.94446 10.2888 8.66368 10.2888 10.7961H11.2882C11.2882 9.22605 12.5767 7.94384 14.1779 7.94384V6.94446ZM14.177 8.39083H29.7716V7.39145H14.177V8.39083ZM11.7392 10.7962C11.7392 9.47295 12.8255 8.39083 14.177 8.39083V7.39145C12.284 7.39145 10.7399 8.91058 10.7399 10.7962H11.7392ZM11.7392 40.0699V10.7962H10.7399V40.0699H11.7392ZM14.177 42.4753C12.8255 42.4753 11.7392 41.3932 11.7392 40.0699H10.7399C10.7399 41.9555 12.284 43.4747 14.177 43.4747V42.4753ZM33.8354 42.4753H14.177V43.4747H33.8354V42.4753ZM36.2732 40.0699C36.2732 41.3932 35.187 42.4753 33.8354 42.4753V43.4747C35.7285 43.4747 37.2726 41.9555 37.2726 40.0699H36.2732ZM36.2732 14.8152V40.0699H37.2726V14.8152H36.2732ZM36.0906 14.3805C36.2082 14.4967 36.2732 14.6532 36.2732 14.8152H37.2726C37.2726 14.3846 37.0995 13.9727 36.7934 13.6699L36.0906 14.3805ZM30.2191 8.57368L36.0906 14.3805L36.7934 13.6699L30.9217 7.8631L30.2191 8.57368ZM29.7716 8.39083C29.9404 8.39083 30.1012 8.45723 30.2191 8.57368L30.9217 7.8631C30.6157 7.56048 30.2019 7.39145 29.7716 7.39145V8.39083Z" fill="#979797"/>
<path d="M30.1386 8.06293C30.3021 8.06293 30.4369 8.18469 30.4554 8.34156L30.4575 8.37835V10.744C30.4575 12.6298 31.9787 14.1642 33.8739 14.2125L33.9659 14.2136H36.3579C36.5341 14.2136 36.6769 14.3549 36.6769 14.5291C36.6769 14.6908 36.5538 14.8242 36.3951 14.8424L36.3579 14.8445H33.9659C31.7087 14.8445 29.8727 13.0607 29.8208 10.8408L29.8196 10.744V8.37835C29.8196 8.20415 29.9624 8.06293 30.1386 8.06293Z" fill="#979797" stroke="#979797" stroke-width="1.5"/>
<path d="M44.5946 13.7341C46.3955 14.1453 47.5269 15.9051 47.1499 17.6857L47.1348 17.7542L43.0938 35.0643C42.678 36.8452 40.8986 37.9641 39.0981 37.5913L39.0289 37.5762L37.8179 37.2998C37.6963 37.272 37.6205 37.152 37.6485 37.0318C37.6746 36.9202 37.7812 36.8475 37.8936 36.8599L37.9196 36.8643L39.1305 37.1408C40.6887 37.4966 42.2435 36.5546 42.637 35.0303L42.6534 34.9638L46.6944 17.6537C47.0541 16.1127 46.1016 14.5751 44.5604 14.1858L44.493 14.1696L37.9981 12.6867C37.8765 12.6589 37.8007 12.5389 37.8287 12.4187C37.8548 12.307 37.9612 12.2344 38.0737 12.2468L38.0998 12.2512L44.5946 13.7341Z" stroke="#979797"/>
<path d="M8.89433 15.193C9.0182 15.178 9.13094 15.2651 9.14614 15.3876C9.16026 15.5013 9.08532 15.6056 8.97537 15.632L8.9494 15.6366L5.80957 16.0179C4.22235 16.2106 3.08709 17.6217 3.24434 19.1872L3.25199 19.2553L5.26222 35.4466C5.45711 37.0163 6.88393 38.139 8.46685 37.9835L8.53577 37.9759L8.98432 37.9214C9.10818 37.9064 9.22092 37.9935 9.23613 38.116C9.25025 38.2297 9.17531 38.334 9.06536 38.3604L9.03939 38.3651L8.59084 38.4195C6.75641 38.6423 5.08464 37.3713 4.82303 35.5706L4.81368 35.501L2.80344 19.3098C2.5782 17.4956 3.86335 15.8423 5.6842 15.5836L5.75449 15.5743L8.89433 15.193Z" fill="#979797" stroke="#979797"/>
<g filter="url(#filter0_d_268_5458)">
<path d="M23.3072 35.551C28.4558 35.551 32.6296 31.4233 32.6296 26.3315C32.6296 21.2397 28.4558 17.112 23.3072 17.112C18.1585 17.112 13.9847 21.2397 13.9847 26.3315C13.9847 31.4233 18.1585 35.551 23.3072 35.551Z" fill="#098DE6"/>
</g>
<path d="M23.5472 21.3662V31.7677" stroke="white" stroke-width="1.5" stroke-linecap="round"/>
<path d="M28.8061 26.5671H18.2885" stroke="white" stroke-width="1.5" stroke-linecap="round"/>
<defs>
<filter id="filter0_d_268_5458" x="3.98474" y="11.112" width="38.6448" height="38.439" filterUnits="userSpaceOnUse" color-interpolation-filters="sRGB">
<feFlood flood-opacity="0" result="BackgroundImageFix"/>
<feColorMatrix in="SourceAlpha" type="matrix" values="0 0 0 0 0 0 0 0 0 0 0 0 0 0 0 0 0 0 127 0" result="hardAlpha"/>
<feOffset dy="4"/>
<feGaussianBlur stdDeviation="5"/>
<feComposite in2="hardAlpha" operator="out"/>
<feColorMatrix type="matrix" values="0 0 0 0 0.0352941 0 0 0 0 0.552941 0 0 0 0 0.901961 0 0 0 0.2 0"/>
<feBlend mode="normal" in2="BackgroundImageFix" result="effect1_dropShadow_268_5458"/>
<feBlend mode="normal" in="SourceGraphic" in2="effect1_dropShadow_268_5458" result="shape"/>
</filter>
</defs>
</svg>
