<svg width="50" height="50" viewBox="0 0 50 50" fill="none" xmlns="http://www.w3.org/2000/svg">
<path fill-rule="evenodd" clip-rule="evenodd" d="M14.1779 7.44415H29.7723C30.1917 7.44415 30.5941 7.60896 30.8907 7.90231L36.7624 13.7091C37.059 14.0024 37.2256 14.4003 37.2256 14.8152V40.0699C37.2256 41.9211 35.7081 43.4218 33.8362 43.4218H14.1779C12.3059 43.4218 10.7885 41.9211 10.7885 40.0699V10.7961C10.7885 8.94487 12.3059 7.44415 14.1779 7.44415ZM29.7715 7.89115H14.177C12.5547 7.89115 11.2396 9.19177 11.2396 10.7962V40.0699C11.2396 41.6743 12.5547 42.975 14.177 42.975H33.8354C35.4577 42.975 36.7729 41.6743 36.7729 40.0699V14.8152C36.7729 14.5189 36.6538 14.2347 36.442 14.0252L30.5703 8.21839C30.3584 8.00886 30.0711 7.89115 29.7715 7.89115Z" fill="#979797"/>
<path d="M29.7723 6.94446H14.1779V7.94384H29.7723V6.94446ZM31.2421 7.54701C30.8513 7.16058 30.3225 6.94446 29.7723 6.94446V7.94384C30.061 7.94384 30.3368 8.05733 30.5393 8.25759L31.2421 7.54701ZM37.1136 13.3538L31.2421 7.54701L30.5393 8.25759L36.411 14.0644L37.1136 13.3538ZM37.7253 14.8152C37.7253 14.266 37.5046 13.7404 37.1136 13.3538L36.411 14.0644C36.6132 14.2644 36.7259 14.5346 36.7259 14.8152H37.7253ZM37.7253 40.0699V14.8152H36.7259V40.0699H37.7253ZM33.8362 43.9215C35.9788 43.9215 37.7253 42.2023 37.7253 40.0699H36.7259C36.7259 41.6399 35.4374 42.9221 33.8362 42.9221V43.9215ZM14.1779 43.9215H33.8362V42.9221H14.1779V43.9215ZM10.2888 40.0699C10.2888 42.2023 12.0352 43.9215 14.1779 43.9215V42.9221C12.5767 42.9221 11.2881 41.6399 11.2881 40.0699H10.2888ZM10.2888 10.7961V40.0699H11.2881V10.7961H10.2888ZM14.1779 6.94446C12.0352 6.94446 10.2888 8.66368 10.2888 10.7961H11.2881C11.2881 9.22605 12.5767 7.94384 14.1779 7.94384V6.94446ZM14.177 8.39083H29.7715V7.39145H14.177V8.39083ZM11.7392 10.7962C11.7392 9.47295 12.8254 8.39083 14.177 8.39083V7.39145C12.2839 7.39145 10.7399 8.91058 10.7399 10.7962H11.7392ZM11.7392 40.0699V10.7962H10.7399V40.0699H11.7392ZM14.177 42.4753C12.8254 42.4753 11.7392 41.3932 11.7392 40.0699H10.7399C10.7399 41.9555 12.2839 43.4747 14.177 43.4747V42.4753ZM33.8354 42.4753H14.177V43.4747H33.8354V42.4753ZM36.2732 40.0699C36.2732 41.3932 35.1869 42.4753 33.8354 42.4753V43.4747C35.7284 43.4747 37.2725 41.9555 37.2725 40.0699H36.2732ZM36.2732 14.8152V40.0699H37.2725V14.8152H36.2732ZM36.0906 14.3805C36.2081 14.4967 36.2732 14.6532 36.2732 14.8152H37.2725C37.2725 14.3846 37.0994 13.9727 36.7933 13.6699L36.0906 14.3805ZM30.219 8.57368L36.0906 14.3805L36.7933 13.6699L30.9217 7.8631L30.219 8.57368ZM29.7715 8.39083C29.9404 8.39083 30.1012 8.45723 30.219 8.57368L30.9217 7.8631C30.6157 7.56048 30.2018 7.39145 29.7715 7.39145V8.39083Z" fill="#979797"/>
<path d="M30.1385 8.06293C30.302 8.06293 30.4368 8.18469 30.4553 8.34156L30.4574 8.37835V10.744C30.4574 12.6298 31.9787 14.1642 33.8738 14.2125L33.9658 14.2136H36.3579C36.5341 14.2136 36.6769 14.3549 36.6769 14.5291C36.6769 14.6908 36.5537 14.8242 36.395 14.8424L36.3579 14.8445H33.9658C31.7086 14.8445 29.8727 13.0607 29.8207 10.8408L29.8195 10.744V8.37835C29.8195 8.20415 29.9623 8.06293 30.1385 8.06293Z" fill="#979797" stroke="#979797" stroke-width="1.5"/>
<path d="M44.5945 13.7342C46.3954 14.1453 47.5268 15.9051 47.1498 17.6857L47.1346 17.7543L43.0936 35.0643C42.6779 36.8452 40.8985 37.9641 39.098 37.5914L39.0288 37.5763L37.8178 37.2998C37.6962 37.2721 37.6203 37.152 37.6484 37.0318C37.6745 36.9202 37.781 36.8475 37.8935 36.8599L37.9195 36.8643L39.1304 37.1408C40.6885 37.4966 42.2434 36.5546 42.6369 35.0304L42.6533 34.9638L46.6943 17.6537C47.054 16.1128 46.1015 14.5751 44.5602 14.1859L44.4929 14.1697L37.998 12.6867C37.8764 12.659 37.8005 12.539 37.8286 12.4187C37.8547 12.3071 37.9611 12.2344 38.0736 12.2469L38.0996 12.2513L44.5945 13.7342Z" stroke="#979797"/>
<path d="M8.89427 15.193C9.01814 15.178 9.13088 15.2651 9.14608 15.3876C9.1602 15.5013 9.08526 15.6056 8.97531 15.632L8.94934 15.6366L5.80951 16.0179C4.22229 16.2106 3.08703 17.6217 3.24428 19.1872L3.25192 19.2553L5.26216 35.4466C5.45705 37.0163 6.88387 38.139 8.46679 37.9835L8.5357 37.9759L8.98426 37.9214C9.10812 37.9064 9.22086 37.9935 9.23607 38.116C9.25019 38.2297 9.17525 38.334 9.0653 38.3604L9.03933 38.3651L8.59078 38.4195C6.75635 38.6423 5.08458 37.3713 4.82297 35.5706L4.81362 35.501L2.80338 19.3098C2.57814 17.4956 3.86328 15.8423 5.68413 15.5836L5.75443 15.5743L8.89427 15.193Z" fill="#979797" stroke="#979797"/>
<path d="M23.3071 35.5511C28.4557 35.5511 32.6295 31.4233 32.6295 26.3316C32.6295 21.2398 28.4557 17.1121 23.3071 17.1121C18.1585 17.1121 13.9847 21.2398 13.9847 26.3316C13.9847 31.4233 18.1585 35.5511 23.3071 35.5511Z" fill="#098DE6"/>
<path d="M23.5471 21.3662V31.7677" stroke="white" stroke-width="1.5" stroke-linecap="round"/>
<path d="M28.8061 26.5671H18.2884" stroke="white" stroke-width="1.5" stroke-linecap="round"/>
</svg>
