<svg width="47" height="44" viewBox="0 0 47 44" fill="none" xmlns="http://www.w3.org/2000/svg">
<path fill-rule="evenodd" clip-rule="evenodd" d="M12.5136 1H28.1177C28.5374 1 28.94 1.16491 29.2368 1.45844L35.1121 7.26882C35.4089 7.56235 35.5756 7.96047 35.5756 8.37559V33.646C35.5756 35.4983 34.0572 37 32.1841 37H12.5136C10.6405 37 9.12207 35.4983 9.12207 33.646V4.35404C9.12207 2.50165 10.6405 1 12.5136 1ZM28.1169 1.44727H12.5127C10.8894 1.44727 9.57345 2.7487 9.57345 4.3541V33.646C9.57345 35.2514 10.8894 36.5529 12.5127 36.5529H32.1833C33.8066 36.5529 35.1226 35.2514 35.1226 33.646V8.37565C35.1226 8.07914 35.0035 7.79476 34.7915 7.5851L28.9162 1.77472C28.7042 1.56506 28.4167 1.44727 28.1169 1.44727Z" fill="#979797"/>
<path d="M29.2368 1.45844L28.8852 1.81395V1.81395L29.2368 1.45844ZM35.1121 7.26882L35.4636 6.91331L35.1121 7.26882ZM34.7915 7.5851L35.1431 7.22959L35.1431 7.22959L34.7915 7.5851ZM28.9162 1.77472L29.2678 1.41921V1.41921L28.9162 1.77472ZM28.1177 0.5H12.5136V1.5H28.1177V0.5ZM29.5884 1.10293C29.1974 0.716252 28.6683 0.5 28.1177 0.5V1.5C28.4066 1.5 28.6826 1.61356 28.8852 1.81395L29.5884 1.10293ZM35.4636 6.91331L29.5884 1.10293L28.8852 1.81395L34.7605 7.62433L35.4636 6.91331ZM36.0756 8.37559C36.0756 7.82606 35.8548 7.30017 35.4636 6.91331L34.7605 7.62433C34.9629 7.82453 35.0756 8.09488 35.0756 8.37559H36.0756ZM36.0756 33.646V8.37559H35.0756V33.646H36.0756ZM32.1841 37.5C34.3281 37.5 36.0756 35.7797 36.0756 33.646H35.0756C35.0756 35.217 33.7863 36.5 32.1841 36.5V37.5ZM12.5136 37.5H32.1841V36.5H12.5136V37.5ZM8.62207 33.646C8.62207 35.7797 10.3696 37.5 12.5136 37.5V36.5C10.9114 36.5 9.62207 35.217 9.62207 33.646H8.62207ZM8.62207 4.35404V33.646H9.62207V4.35404H8.62207ZM12.5136 0.5C10.3696 0.5 8.62207 2.22029 8.62207 4.35404H9.62207C9.62207 2.78301 10.9114 1.5 12.5136 1.5V0.5ZM12.5127 1.94727H28.1169V0.947266H12.5127V1.94727ZM10.0734 4.3541C10.0734 3.03006 11.1603 1.94727 12.5127 1.94727V0.947266C10.6185 0.947266 9.07345 2.46734 9.07345 4.3541H10.0734ZM10.0734 33.646V4.3541H9.07345V33.646H10.0734ZM12.5127 36.0529C11.1603 36.0529 10.0734 34.9701 10.0734 33.646H9.07345C9.07345 35.5328 10.6185 37.0529 12.5127 37.0529V36.0529ZM32.1833 36.0529H12.5127V37.0529H32.1833V36.0529ZM34.6226 33.646C34.6226 34.9701 33.5357 36.0529 32.1833 36.0529V37.0529C34.0775 37.0529 35.6226 35.5328 35.6226 33.646H34.6226ZM34.6226 8.37565V33.646H35.6226V8.37565H34.6226ZM34.4399 7.94061C34.5575 8.05695 34.6226 8.21355 34.6226 8.37565H35.6226C35.6226 7.94472 35.4494 7.53258 35.1431 7.22959L34.4399 7.94061ZM28.5647 2.13023L34.4399 7.94061L35.1431 7.22959L29.2678 1.41921L28.5647 2.13023ZM28.1169 1.94727C28.2859 1.94727 28.4468 2.01371 28.5647 2.13023L29.2678 1.41921C28.9616 1.1164 28.5475 0.947266 28.1169 0.947266V1.94727Z" fill="#979797"/>
<path d="M28.4842 1.61914C28.6478 1.61914 28.7827 1.74098 28.8012 1.89795L28.8033 1.93476V4.30189C28.8033 6.18887 30.3255 7.72424 32.2218 7.77251L32.3139 7.77368H34.7074C34.8837 7.77368 35.0266 7.91498 35.0266 8.08929C35.0266 8.25115 34.9034 8.38456 34.7446 8.40279L34.7074 8.40491H32.3139C30.0553 8.40491 28.2182 6.62004 28.1662 4.39874L28.165 4.30189V1.93476C28.165 1.76045 28.3079 1.61914 28.4842 1.61914Z" fill="#979797" stroke="#979797"/>
<path d="M42.9492 7.2939C44.7512 7.70532 45.8833 9.46619 45.5061 11.2479L45.4909 11.3165L41.4474 28.6373C41.0314 30.4193 39.2509 31.5389 37.4493 31.1659L37.38 31.1508L36.1683 30.8742C36.0466 30.8464 35.9707 30.7263 35.9988 30.606C36.0249 30.4943 36.1315 30.4216 36.244 30.434L36.27 30.4384L37.4817 30.7151C39.0408 31.0711 40.5966 30.1285 40.9904 28.6033L41.0068 28.5367L45.0503 11.2159C45.4102 9.67397 44.4571 8.13538 42.9149 7.74586L42.8475 7.72965L36.3486 6.24581C36.2269 6.21803 36.151 6.09796 36.1791 5.97764C36.2052 5.8659 36.3117 5.79323 36.4242 5.80567L36.4503 5.81007L42.9492 7.2939Z" fill="#979797" stroke="#979797"/>
<path d="M7.22674 8.75369C7.35068 8.73864 7.46349 8.8258 7.4787 8.94837C7.49283 9.06219 7.41785 9.16651 7.30783 9.19289L7.28184 9.19756L4.14006 9.57906C2.55186 9.77192 1.41589 11.1839 1.57324 12.7503L1.58089 12.8185L3.59237 29.0198C3.78738 30.5905 5.21509 31.7139 6.79899 31.5583L6.86795 31.5507L7.31678 31.4962C7.44072 31.4812 7.55353 31.5683 7.56875 31.6909C7.58288 31.8047 7.50789 31.909 7.39787 31.9354L7.37189 31.9401L6.92306 31.9946C5.08749 32.2175 3.41468 30.9457 3.15291 29.1439L3.14355 29.0743L1.13207 12.873C0.906688 11.0577 2.19263 9.40333 4.01461 9.14446L4.08495 9.13519L7.22674 8.75369Z" fill="#979797" stroke="#979797"/>
<g filter="url(#filter0_d_8_2345)">
<ellipse cx="21.6485" cy="19.8991" rx="9.32821" ry="9.22522" fill="#098DE6"/>
</g>
<path d="M21.8887 14.9307V25.3386" stroke="white" stroke-width="1.5" stroke-linecap="round"/>
<path d="M27.1509 20.1348L16.6267 20.1348" stroke="white" stroke-width="1.5" stroke-linecap="round"/>
<defs>
<filter id="filter0_d_8_2345" x="2.32031" y="4.67383" width="38.6562" height="38.4504" filterUnits="userSpaceOnUse" color-interpolation-filters="sRGB">
<feFlood flood-opacity="0" result="BackgroundImageFix"/>
<feColorMatrix in="SourceAlpha" type="matrix" values="0 0 0 0 0 0 0 0 0 0 0 0 0 0 0 0 0 0 127 0" result="hardAlpha"/>
<feOffset dy="4"/>
<feGaussianBlur stdDeviation="5"/>
<feComposite in2="hardAlpha" operator="out"/>
<feColorMatrix type="matrix" values="0 0 0 0 0.0352941 0 0 0 0 0.552941 0 0 0 0 0.901961 0 0 0 0.2 0"/>
<feBlend mode="normal" in2="BackgroundImageFix" result="effect1_dropShadow_8_2345"/>
<feBlend mode="normal" in="SourceGraphic" in2="effect1_dropShadow_8_2345" result="shape"/>
</filter>
</defs>
</svg>
