<svg width="164" height="169" viewBox="0 0 164 169" fill="none" xmlns="http://www.w3.org/2000/svg">
<path d="M71.389 0.33586C71.0195 0.369447 70.6165 0.47021 70.3813 0.0335693C70.7172 0.0335693 71.0531 0.0335693 71.389 0.0335693C71.4897 0.100745 71.5233 0.16792 71.4897 0.235095C71.4562 0.302271 71.4226 0.33586 71.389 0.33586Z" fill="#646464"/>
<path d="M123.685 31.5053C113.004 14.8122 97.7887 4.60153 78.2406 0.97405C76.8299 0.705348 75.3185 0.806112 74.0085 0.100769C73.7734 0.100769 73.5719 0.100769 73.3368 0.100769C73.0345 0.403059 72.665 0.23512 72.3291 0.268708C72.1276 0.268708 71.8925 0.268708 71.691 0.268708C71.3551 0.23512 70.9856 0.403059 70.6833 0.100769C69.3734 0.100769 68.0299 0.100769 66.72 0.100769C66.5185 0.335883 66.2498 0.268708 65.9811 0.268708C65.7795 0.268708 65.578 0.268708 65.3765 0.268708C65.1749 0.268708 64.9734 0.268708 64.7719 0.268708C64.5704 0.268708 64.3689 0.268708 64.1673 0.268708C63.9322 0.268708 63.6299 0.335883 63.4284 0.100769C62.891 0.100769 62.32 0.100769 61.7826 0.100769C59.7673 1.04123 57.5505 0.839698 55.4345 1.24275C43.007 3.56031 31.6208 8.22901 21.8467 16.3908C4.85134 30.5985 -2.50439 48.6687 0.753624 70.7358C2.86965 85.0106 9.28492 97.0686 20.1338 106.675C20.9063 107.38 21.1414 108.085 21.1414 109.093C21.1078 118.061 21.1414 127.063 21.1414 136.03C21.1414 136.501 21.007 136.971 21.3429 137.475C21.9811 137.105 22.5521 136.803 23.1231 136.467C32.0238 131.328 40.891 126.189 49.7918 121.017C50.4635 120.614 51.1017 120.311 51.9414 120.412C54.3597 120.714 56.7444 121.017 59.1627 121.218C67.4589 121.957 75.7551 121.924 83.9505 120.076C93.8589 117.826 102.894 113.695 110.653 107.078C122.14 97.3373 128.958 84.9435 131.376 70.0641C133.627 56.2259 131.209 43.261 123.685 31.5053ZM121.233 67.9481C119.218 80.4427 113.474 90.8549 103.834 99.0167C97.3184 104.559 89.7276 108.052 81.4314 109.933C74.5459 111.478 67.5933 111.511 60.607 110.907C58.5917 110.739 56.5765 110.47 54.5276 110.235C53.8223 110.134 53.2849 110.403 52.7139 110.739C45.2574 115.072 37.8009 119.405 30.3109 123.704C29.8406 123.972 29.3368 124.241 28.833 124.543C28.5643 124.107 28.6651 123.737 28.6651 123.334C28.6651 115.811 28.6315 108.253 28.6651 100.73C28.6651 99.89 28.4635 99.2854 27.8254 98.7144C18.7231 90.6534 13.3155 80.5099 11.5689 68.5526C8.84828 50.0122 14.9948 34.8641 29.2696 22.9404C37.465 16.0885 47.0376 12.1588 57.4834 10.2107C59.2635 9.87481 61.1108 10.0427 62.8238 9.23664C63.2605 9.23664 63.7643 9.23664 64.2009 9.23664C64.3688 9.43817 64.6375 9.37099 64.8055 9.37099C64.9734 9.37099 65.1414 9.37099 65.3093 9.37099C65.4772 9.37099 65.6452 9.37099 65.8131 9.37099C65.9811 9.37099 66.149 9.37099 66.3169 9.37099C66.552 9.37099 66.7536 9.43817 66.9215 9.23664C68.0299 9.23664 69.1383 9.23664 70.2467 9.23664C70.5154 9.50534 70.8177 9.3374 71.0864 9.37099C71.2543 9.37099 71.4559 9.37099 71.6238 9.37099C71.8925 9.3374 72.2284 9.47176 72.4635 9.23664C72.665 9.23664 72.833 9.23664 73.0345 9.23664C74.1429 9.84122 75.4192 9.74046 76.5948 9.97557C93.0192 13.0321 105.783 21.5969 114.75 35.603C121.099 45.4443 123.147 56.3267 121.233 67.9481Z" fill="#098DE6"/>
<path d="M73.0346 0.0335693C72.8331 0.604561 72.3965 0.302272 72.0606 0.302272C71.9598 0.235097 71.8926 0.201509 71.9262 0.134334C71.9598 0.0671581 71.9934 0.0335693 72.027 0.0335693C72.3629 0.0335693 72.6987 0.0335693 73.0346 0.0335693Z" fill="#A6A6A6"/>
<path d="M63.7642 0.302272C63.4955 0.33586 63.1932 0.436623 63.126 0.0335693C63.3611 0.0335693 63.5626 0.0335693 63.7977 0.0335693C63.8985 0.100745 63.9321 0.16792 63.8985 0.235095C63.8649 0.268683 63.7977 0.302272 63.7642 0.302272Z" fill="#A8A8A8"/>
<path d="M63.7642 0.302272C63.7642 0.201509 63.7642 0.134333 63.7642 0.0335693C63.9993 0.0335693 64.2008 0.0335693 64.4359 0.0335693C64.5367 0.100745 64.5703 0.16792 64.5367 0.235095C64.5031 0.302271 64.4695 0.33586 64.4359 0.33586C64.2008 0.302272 63.9993 0.302272 63.7642 0.302272Z" fill="#919191"/>
<path d="M64.436 0.302272C64.436 0.201509 64.436 0.134333 64.436 0.0335693C64.6711 0.0335693 64.8727 0.0335693 65.1078 0.0335693C65.2086 0.100745 65.2421 0.16792 65.2085 0.235095C65.175 0.302271 65.1414 0.33586 65.1078 0.33586C64.8727 0.302272 64.6376 0.302272 64.436 0.302272Z" fill="#7B7B7B"/>
<path d="M65.1079 0.302272C65.1079 0.201509 65.1079 0.134333 65.1079 0.0335693C65.343 0.0335693 65.5446 0.0335693 65.7797 0.0335693C65.8804 0.100745 65.914 0.16792 65.8804 0.235095C65.8468 0.302271 65.8133 0.33586 65.7461 0.33586C65.5446 0.302272 65.3094 0.302272 65.1079 0.302272Z" fill="#656565"/>
<path d="M65.7461 0.302272C65.7461 0.201509 65.7461 0.100745 65.7461 0.0335693C65.9812 0.0335693 66.1827 0.0335693 66.4178 0.0335693C66.2835 0.335859 66.0484 0.369448 65.7461 0.302272Z" fill="#4E4E4E"/>
<path d="M72.0607 0.0335873C72.0607 0.134351 72.0607 0.201527 72.0607 0.30229C71.8256 0.30229 71.6241 0.30229 71.389 0.30229C71.389 0.201527 71.3554 0.100763 71.389 0C71.5905 0.0335878 71.8256 0.0335873 72.0607 0.0335873Z" fill="#858585"/>
<path d="M142.091 48.2992C143.837 49.8778 145.315 51.087 146.625 52.4305C154.72 60.7267 160.463 70.3328 162.613 81.8198C165.569 97.7068 161.807 112.015 152.234 124.913C148.338 130.186 143.636 134.653 138.262 138.382C137.389 138.986 137.12 139.658 137.12 140.666C137.153 150.07 137.153 159.508 137.153 168.913C136.482 168.98 136.112 168.51 135.642 168.241C126.708 162.733 117.74 157.258 108.839 151.716C107.764 151.044 106.756 151.011 105.581 151.179C95.303 152.623 85.1595 152.321 75.2176 149.062C66.7198 146.275 59.4649 141.404 52.8145 135.493C51.6725 134.485 50.5641 133.377 49.4557 132.336C49.3886 132.269 49.4222 132.134 49.355 131.866C54.0237 132.336 58.6924 132.201 63.3275 131.832C64.1 131.765 64.5702 132.235 65.1076 132.571C69.8099 135.728 74.5794 138.717 80.0206 140.531C86.2008 142.58 92.5153 143.017 98.9305 142.614C101.785 142.446 104.64 142.143 107.428 141.472C108.234 141.27 108.873 141.505 109.578 141.975C115.12 145.704 120.729 149.398 126.338 153.127C126.808 152.656 126.573 152.153 126.573 151.716C126.607 146.711 126.674 141.673 126.54 136.669C126.506 135.09 126.976 134.284 128.32 133.444C137.792 127.701 145.181 120.009 149.413 109.664C155.929 93.7434 153.544 78.8641 143.468 65.1603C142.158 63.3801 141.621 61.8351 141.956 59.6183C142.561 56.1251 142.662 52.4305 142.091 48.2992Z" fill="#098DE6"/>
<path d="M41.9661 61.8351C41.9997 66.2015 38.3386 69.8289 34.0058 69.7954C29.7065 69.7618 26.1462 66.2015 26.1462 61.9022C26.1126 57.5358 29.7737 53.9084 34.1065 53.9419C38.3722 53.9419 41.9325 57.5358 41.9661 61.8351Z" fill="#098DE6"/>
<path d="M73.6725 61.9023C73.6389 66.2687 69.9779 69.8626 65.6115 69.7954C61.3122 69.7282 57.7855 66.1343 57.8191 61.8351C57.8527 57.4687 61.5137 53.8748 65.8801 53.942C70.1794 54.0091 73.7061 57.603 73.6725 61.9023Z" fill="#098DE6"/>
<path d="M97.5873 53.9419C101.954 53.9755 105.514 57.6702 105.413 62.0366C105.312 66.3358 101.719 69.8289 97.4193 69.7953C93.0529 69.7618 89.4926 66.0671 89.5934 61.7007C89.6606 57.4015 93.288 53.8747 97.5873 53.9419Z" fill="#098DE6"/>
</svg>
