<svg width="160" height="160" viewBox="0 0 160 160" fill="none" xmlns="http://www.w3.org/2000/svg">
<path d="M119.867 71.9333V98.6C119.867 100.333 119.8 102 119.6 103.6C118.067 121.6 107.467 130.533 87.9334 130.533H85.2667C83.6 130.533 82 131.333 81 132.667L73 143.333C69.4667 148.067 63.7334 148.067 60.2 143.333L52.2 132.667C51.6664 132.045 51.0142 131.537 50.2816 131.17C49.549 130.804 48.7507 130.587 47.9334 130.533H45.2667C24 130.533 13.3334 125.267 13.3334 98.6V71.9333C13.3334 52.4 22.3334 41.8 40.2667 40.2667C41.8667 40.0667 43.5334 40 45.2667 40H87.9334C109.2 40 119.867 50.6667 119.867 71.9333Z" stroke="#098DE6" stroke-width="8" stroke-miterlimit="10" stroke-linecap="round" stroke-linejoin="round"/>
<path opacity="0.4" d="M146.533 45.2667V71.9334C146.533 91.5334 137.533 102.067 119.6 103.6C119.8 102 119.867 100.333 119.867 98.6V71.9334C119.867 50.6667 109.2 40 87.9333 40H45.2666C43.5333 40 41.8666 40.0667 40.2666 40.2667C41.7999 22.3334 52.3999 13.3334 71.9333 13.3334H114.6C135.867 13.3334 146.533 24 146.533 45.2667Z" stroke="#979797" stroke-width="8" stroke-miterlimit="10" stroke-linecap="round" stroke-linejoin="round"/>
<path d="M89.9667 88.3334H90.0334M66.6334 88.3334H66.7001M43.3 88.3334H43.3667" stroke="#098DE6" stroke-width="12" stroke-linecap="round" stroke-linejoin="round"/>
</svg>
