<svg width="45" height="46" viewBox="0 0 45 46" fill="none" xmlns="http://www.w3.org/2000/svg">
<path d="M27.8491 0.24084C26.2969 1.82717 25.4384 3.94202 25.4309 6.19544C25.437 7.48662 25.743 8.74804 26.2904 9.89878L18.785 17.571C14.5896 15.4859 9.47655 16.3337 6.15302 19.731C5.99626 19.8912 5.91769 20.1017 5.91769 20.3118C5.91769 20.5219 5.99625 20.7321 6.15302 20.8927L13.4744 28.3768L2.86558 39.2214C2.80424 39.2842 2.75365 39.3557 2.71492 39.4349L0.0850211 44.8115C0.0279829 44.9277 1.44981e-06 45.0535 1.44709e-06 45.1782C1.44243e-06 45.3916 0.0810748 45.6017 0.23533 45.7594C0.479631 46.0091 0.853428 46.0715 1.16305 45.9134L6.42275 43.2251C6.49988 43.1855 6.57019 43.1338 6.63153 43.071L17.2404 32.2264L24.5618 39.7105C24.8757 40.0314 25.384 40.0314 25.6982 39.7105C29.0222 36.3141 29.8517 31.0867 27.8112 26.7978L35.3037 19.1388C38.4494 20.717 42.2559 20.097 44.7646 17.5323C45.0785 17.2114 45.0785 16.6918 44.7646 16.3705L28.9854 0.240653C28.6715 -0.080218 28.1628 -0.080218 27.8489 0.240653L27.8491 0.24084ZM14.6101 29.5379L16.1039 31.0649L5.58691 41.8147L2.60014 43.3413L4.09357 40.2882L14.6101 29.5379ZM27.1503 11.3427C27.1531 11.3464 27.1564 11.3493 27.1592 11.3533C27.3748 11.6375 27.6048 11.906 27.8491 12.1553L33.1088 17.5319C33.3534 17.7824 33.6164 18.0174 33.894 18.2375C33.8976 18.24 33.9001 18.2433 33.9037 18.2463L26.258 26.0619C26.0051 26.3215 25.9499 26.7216 26.1242 27.0424C28.0349 30.5474 27.5957 34.9148 25.1058 37.9424L7.88203 20.3359C10.8445 17.7902 15.1169 17.3414 18.5451 19.2948C18.8589 19.4737 19.2503 19.4176 19.5043 19.158L27.1503 11.3427ZM28.4514 2.01811L43.0257 16.9163C40.8995 18.62 37.941 18.8496 35.5691 17.4224C35.0801 17.1221 34.6346 16.7678 34.2454 16.3703L28.9857 10.9937C28.5965 10.5955 28.2496 10.1397 27.9557 9.63908C27.3628 8.60202 27.0438 7.40735 27.0385 6.1939C27.0438 4.66108 27.5403 3.20449 28.4519 2.01826L28.4514 2.01811Z" fill="#232832"/>
<line x1="6.5169" y1="5.95624" x2="39.0438" y2="38.4832" stroke="#232832" stroke-width="1.5"/>
</svg>
