<svg width="50" height="50" viewBox="0 0 50 50" fill="none" xmlns="http://www.w3.org/2000/svg">
<path d="M31.8751 5V10.4687C31.8751 11.7671 32.9204 12.8124 34.2188 12.8124H39.6876L31.8751 5Z" fill="#A6C5FA"/>
<path fill-rule="evenodd" clip-rule="evenodd" d="M39.6875 41.7187V12.8124L31.875 5H12.3438C11.0453 5 10 6.04522 10 7.34365V41.7187C10 43.0171 11.0453 44.0624 12.3438 44.0624H37.3437C38.6422 44.0624 39.6875 43.0171 39.6875 41.7187ZM26.4139 18.8382C25.6493 18.1373 24.4757 18.1373 23.7111 18.8382L19.7111 22.5049C18.8968 23.2512 18.8418 24.5164 19.5882 25.3306C20.3346 26.1449 21.5997 26.1999 22.4139 25.4535L23.0625 24.859V31.3125C23.0625 32.4171 23.9579 33.3125 25.0625 33.3125C26.1671 33.3125 27.0625 32.4171 27.0625 31.3125V24.859L27.7111 25.4535C28.5253 26.1999 29.7904 26.1449 30.5368 25.3306C31.2832 24.5164 31.2282 23.2512 30.4139 22.5049L26.4139 18.8382Z" fill="#098DE6" fill-opacity="0.68"/>
</svg>
