<svg width="50" height="50" viewBox="0 0 50 50" fill="none" xmlns="http://www.w3.org/2000/svg">
<g clip-path="url(#clip0_299_5608)">
<path fill-rule="evenodd" clip-rule="evenodd" d="M26.0417 14.6877H40.625C41.9863 14.671 43.2986 15.1944 44.2748 16.1432C45.251 17.0921 45.8114 18.3891 45.8334 19.7502V37.6461C45.8114 39.0072 45.251 40.3042 44.2748 41.2531C43.2986 42.2019 41.9863 42.7253 40.625 42.7086H9.37502C8.01379 42.7253 6.7014 42.2019 5.72522 41.2531C4.74905 40.3042 4.18863 39.0072 4.16669 37.6461V12.3544C4.18863 10.9932 4.74905 9.69624 5.72522 8.74739C6.7014 7.79855 8.01379 7.27518 9.37502 7.29189H18.9584C19.2661 7.29393 19.5695 7.36411 19.8469 7.49739C20.1243 7.63067 20.3687 7.82374 20.5625 8.06273L26.0417 14.6877ZM26.3514 21.5257C25.5868 20.8248 24.4132 20.8248 23.6486 21.5257L19.6486 25.1924C18.8343 25.9387 18.7793 27.2039 19.5257 28.0181C20.2721 28.8324 21.5372 28.8874 22.3514 28.141L23 27.5465V34C23 35.1046 23.8954 36 25 36C26.1046 36 27 35.1046 27 34V27.5465L27.6486 28.141C28.4628 28.8874 29.7279 28.8324 30.4743 28.0181C31.2207 27.2039 31.1657 25.9387 30.3514 25.1924L26.3514 21.5257Z" fill="#098DE6" fill-opacity="0.68"/>
</g>
<defs>
<clipPath id="clip0_299_5608">
<rect width="50" height="50" fill="white"/>
</clipPath>
</defs>
</svg>
