<svg width="50" height="31" viewBox="0 0 50 31" fill="none" xmlns="http://www.w3.org/2000/svg">
<g clip-path="url(#clip0_9_1248)">
<rect width="50" height="31" fill="white"/>
<path d="M22.1632 28.3386C21.6039 28.9954 21.775 30.0589 22.6374 30.0371C22.8888 30.0308 23.149 29.9747 23.3991 29.8386C23.513 29.7765 23.6233 29.7161 23.7294 29.6576C24.4138 29.2803 24.4475 28.3239 23.8016 27.8839V27.8839C23.3511 27.577 22.7417 27.659 22.3884 28.0741L22.1632 28.3386Z" fill="#FAB29A"/>
<path d="M22.1632 28.3386C21.6039 28.9954 21.775 30.0589 22.6374 30.0371C22.8888 30.0308 23.149 29.9747 23.3991 29.8386C23.513 29.7765 23.6233 29.7161 23.7294 29.6576C24.4138 29.2803 24.4475 28.3239 23.8016 27.8839V27.8839C23.3511 27.577 22.7417 27.659 22.3884 28.0741L22.1632 28.3386Z" fill="white" stroke="#535353"/>
<path d="M38.5989 21.9119C38.0941 22.6133 37.0832 23.3298 35.1595 22.0793C35.1588 22.0788 35.1571 22.0802 35.1575 22.081V22.081C35.1988 22.1583 35.7549 23.1912 35.4178 24.3621C35.3817 24.4906 35.3336 24.62 35.2735 24.7504C35.2686 24.7596 35.2651 24.7688 35.2602 24.778C34.6051 26.1553 32.7895 26.1767 32.2967 25.9815C32.2961 25.9812 32.2955 25.9817 32.2955 25.9824V25.9824C32.2955 25.9825 32.2955 25.9826 32.2955 25.9827C32.3069 26.0117 32.5957 26.7443 32.0362 27.5946C31.9701 27.695 31.8934 27.7964 31.8015 27.9002C30.9217 28.8901 29.7824 28.593 29.4396 28.4608V28.4608C29.0901 28.328 28.6032 28.4728 28.4188 28.7981C28.3691 28.8857 28.3118 28.9736 28.2459 29.0579C27.9827 29.3951 27.5815 29.6739 26.9804 29.6501C26.016 29.6122 25.2718 29.2915 24.4224 28.7558C24.2304 28.6353 24.0344 28.5037 23.8284 28.3623C23.563 28.1788 23.2819 27.9789 22.979 27.7638C21.5656 26.7607 16.4758 23.7979 15.3964 23.1716C15.2598 23.0923 15.1372 23.0001 15.0226 22.8913C14.6598 22.5471 13.7672 21.7021 12.7795 20.7825C11.7405 19.8132 10.5966 18.7593 9.85809 18.1217C9.76123 18.0381 9.65591 17.965 9.54438 17.9023L8.47627 17.3014L6.60804 16.2512C5.64708 15.711 5.30443 14.4951 5.84194 13.5326L9.99182 6.10176C10.5117 5.17092 11.6703 4.8115 12.6257 5.28472L13.0905 5.51497L14.9355 6.4677C15.3344 6.67369 15.791 6.73948 16.2319 6.65447L21.3521 5.66709L21.8804 5.56339C22.4293 5.45566 22.9982 5.58271 23.4492 5.91372L27.1943 8.66302L37.5817 16.2907C37.9901 16.5906 38.2695 17.0344 38.3633 17.5323L38.5745 18.6528C38.5789 18.6759 38.5852 18.6986 38.5934 18.7207L38.9789 19.7581C38.9791 19.7588 38.9803 19.7609 38.9807 19.7614V19.7614C38.9808 19.7615 38.981 19.7617 38.981 19.7618C39.0248 19.8799 39.0472 20.0079 39.0472 20.1348V20.1348C39.0464 20.1516 39.0473 20.1681 39.0469 20.1848C39.0364 20.5888 38.9664 21.4011 38.5989 21.9119Z" stroke="#979797" stroke-width="1.5"/>
<path d="M35.4181 24.364C35.7553 23.1931 35.1991 22.1602 35.1578 22.0829V22.0829C35.1564 22.0795 35.1535 22.077 35.1505 22.0748L29.9929 18.3242" stroke="#979797" stroke-width="1.5" stroke-linecap="round"/>
<path d="M32.0367 27.5969C32.2967 27.2017 32.3735 26.8319 32.3801 26.5462C32.3887 26.1722 32.1392 25.8618 31.8434 25.6327L27.8372 22.5293" stroke="#979797" stroke-width="1.5" stroke-linecap="round"/>
<path d="M28.246 29.0618V29.0618C28.691 28.4927 28.3375 27.7269 27.7428 27.3169L24.8726 25.3379" stroke="#979797" stroke-width="1.5" stroke-linecap="round"/>
<path d="M46.3262 13.9798C46.4375 14.3462 46.2255 14.7324 45.8566 14.8351V14.8351L42.0211 16.099C41.9399 16.1257 41.8675 16.1741 41.8086 16.236V16.236C41.0395 17.0697 40.1133 17.7423 39.4503 18.1702C39.2688 18.2877 39.1073 18.3869 38.9743 18.466C38.7537 18.5972 38.4738 18.5275 38.3305 18.3146V18.3146C38.0758 17.9372 37.7557 17.6116 37.3888 17.3559L35.814 16.2604L32.8311 14.1857L32.2758 13.7987L31.919 13.5513L25.5951 9.15278C25.3616 8.99118 25.0799 8.92921 24.8066 8.97426C24.7614 8.98152 24.7158 8.99347 24.6718 9.00706L22.7639 9.59543L22.6544 9.62943C22.618 9.64024 22.5799 9.65411 22.5447 9.66969C22.4223 9.7219 22.311 9.79658 22.2151 9.89081C22.1571 9.94606 22.1046 10.0094 22.0595 10.0763C20.5121 12.3813 18.9807 13.0534 17.8532 13.1395C17.7103 13.1515 17.5754 13.1529 17.4469 13.1469C17.1524 13.1344 16.8956 13.0846 16.6858 13.0229C16.2307 12.89 15.9998 12.3585 16.198 11.907L18.458 7.33718C18.658 6.87943 19.0052 6.50863 19.4395 6.28936L25.1166 3.42137C25.488 3.2336 25.9046 3.16713 26.3106 3.22873L35.3415 4.61622C35.6555 4.66447 35.9765 4.63721 36.2779 4.53671L38.8406 3.68216L40.8367 3.01709C41.9033 2.66169 43.0533 3.25511 43.3817 4.33042L45.9357 12.6942L46.3262 13.9798Z" fill="white" stroke="#979797" stroke-width="1.5"/>
<path d="M13.9248 23.9043C13.6645 23.928 13.3689 23.8747 13.0623 23.7065C12.1312 23.1992 11.3129 21.4247 11.8653 20.7698C11.9394 20.6819 12.0361 20.6107 12.1453 20.5745C12.3492 20.5068 12.7675 20.4859 13.4503 20.9608C14.0535 21.3813 14.4407 21.776 14.6606 22.1612C14.8155 22.4319 14.8899 22.6957 14.8997 22.9612C14.9162 23.4041 14.507 23.8503 13.9248 23.9043Z" fill="white" stroke="#979797" stroke-width="1.5"/>
<path d="M15.5147 26.539C14.6127 26.2923 14.095 25.3004 14.3553 24.361C14.5216 23.759 14.8149 22.9451 15.3076 22.2221C16.2398 20.8522 18.6762 21.4824 18.5422 23.6984C18.5303 23.8953 18.4665 24.0856 18.3809 24.2633L17.9546 25.1481C17.6063 25.8711 16.8972 26.6197 16.0947 26.615C15.9064 26.6139 15.71 26.5922 15.5147 26.539Z" fill="white" stroke="#979797" stroke-width="1.5"/>
<path d="M21.7458 25.7503L20.728 27.7176C20.5129 28.1333 20.15 28.4628 19.6821 28.4736C19.2328 28.484 18.6418 28.3901 18.1192 27.9614C18.0543 27.9081 17.9969 27.8552 17.9425 27.8025C17.4109 27.2838 17.3473 26.7758 17.3573 26.5162C17.3619 26.3964 17.406 26.2837 17.458 26.1757L18.4832 24.0477C18.5009 24.0111 18.5192 23.9757 18.5408 23.9412C18.6991 23.6889 19.452 22.6105 20.5583 22.9642C20.5834 22.9717 20.6099 22.9808 20.6364 22.9914C21.9287 23.4745 22.121 24.7568 21.7458 25.7503Z" fill="white" stroke="#979797" stroke-width="1.5"/>
<path d="M23.946 27.3102C23.8343 27.7755 23.5063 28.723 23.3037 29.2932C23.1948 29.5996 23.0237 29.9195 22.7069 29.9929C22.4428 30.0542 22.0608 30.0226 21.4702 29.7657C21.2677 29.6777 21.102 29.5695 20.9683 29.4518C20.7589 29.2687 20.6255 29.0646 20.5407 28.8831C20.3902 28.5608 20.4801 28.1966 20.6436 27.8808L21.312 26.5906C21.4373 26.3486 21.6032 26.1208 21.8443 25.9937C22.1801 25.8166 22.4912 25.7948 22.7667 25.8667C23.5361 26.0678 24.0191 27.0017 23.946 27.3102Z" fill="white" stroke="#979797" stroke-width="1.5"/>
<path d="M34.3066 13.462C34.3401 13.4369 34.3729 13.4114 34.4052 13.3857C35.0656 12.8586 34.3712 12.5537 33.6419 12.9804V12.9804M17.8518 13.1375C18.9809 13.0499 20.5107 12.3793 22.0581 10.0742C22.1033 10.0058 22.1557 9.94404 22.2137 9.88878C22.2357 9.86787 22.2576 9.84853 22.281 9.82926C22.2857 9.82477 22.2903 9.82186 22.2965 9.81745C22.3187 9.80057 22.341 9.78227 22.3645 9.76668C22.3668 9.76515 22.369 9.76347 22.3714 9.76199V9.76199C22.3733 9.76076 22.3751 9.75932 22.377 9.75802C22.3994 9.74266 22.423 9.7288 22.4466 9.71639C22.4513 9.71347 22.4558 9.71212 22.4604 9.7092C22.4881 9.69484 22.5157 9.68047 22.5448 9.66774C22.5616 9.66069 22.5784 9.65365 22.5967 9.64668C22.615 9.63971 22.6348 9.63281 22.6546 9.62748L22.764 9.59347L24.6719 9.0051C24.6932 8.99827 24.7144 8.99301 24.7356 8.98774C24.7417 8.98646 24.7477 8.98518 24.7538 8.9839C24.769 8.97992 24.7841 8.9775 24.7992 8.97508C25.0756 8.92548 25.3603 8.98759 25.5952 9.15082L31.9192 13.5494L32.8313 14.1837L35.8142 16.2585L37.389 17.3539C37.7573 17.6097 38.0759 17.9353 38.3306 18.3127V18.3127C38.4741 18.5257 38.7539 18.5956 38.9746 18.4643C39.1077 18.3852 39.2692 18.2859 39.4505 18.1683C40.1382 17.7227 41.111 17.0147 41.8972 16.1363" stroke="#979797" stroke-width="1.5"/>
<g filter="url(#filter0_d_9_1248)">
<path d="M42.8554 0.65017C43.8882 0.354738 44.9699 0.927952 45.3054 1.94845L49.0577 13.3627C49.4106 14.4364 48.8045 15.589 47.7199 15.9067L42.3536 17.4783L40.9748 13.3477L39.8447 10.0141L39.5583 9.16794L37.5661 3.29415L37.4202 2.86546L37.2166 2.26314L42.8554 0.65017Z" fill="#098DE6"/>
</g>
<g filter="url(#filter1_d_9_1248)">
<path d="M8.68119 1.49002C7.71494 1.02063 6.55047 1.39838 6.04376 2.34559L0.37622 12.9401C-0.156892 13.9367 0.241051 15.1767 1.25451 15.677L6.26864 18.1519L8.34021 14.3216L10.0291 11.2332L10.4574 10.4493L13.4343 5.00789L13.652 4.61085L13.9566 4.05275L8.68119 1.49002Z" fill="#098DE6"/>
</g>
</g>
<defs>
<filter id="filter0_d_9_1248" x="27.2166" y="-5.42725" width="31.9418" height="36.9058" filterUnits="userSpaceOnUse" color-interpolation-filters="sRGB">
<feFlood flood-opacity="0" result="BackgroundImageFix"/>
<feColorMatrix in="SourceAlpha" type="matrix" values="0 0 0 0 0 0 0 0 0 0 0 0 0 0 0 0 0 0 127 0" result="hardAlpha"/>
<feOffset dy="4"/>
<feGaussianBlur stdDeviation="5"/>
<feComposite in2="hardAlpha" operator="out"/>
<feColorMatrix type="matrix" values="0 0 0 0 0.0352941 0 0 0 0 0.552941 0 0 0 0 0.901961 0 0 0 0.2 0"/>
<feBlend mode="normal" in2="BackgroundImageFix" result="effect1_dropShadow_9_1248"/>
<feBlend mode="normal" in="SourceGraphic" in2="effect1_dropShadow_9_1248" result="shape"/>
</filter>
<filter id="filter1_d_9_1248" x="-9.86072" y="-4.71143" width="33.8173" height="36.8633" filterUnits="userSpaceOnUse" color-interpolation-filters="sRGB">
<feFlood flood-opacity="0" result="BackgroundImageFix"/>
<feColorMatrix in="SourceAlpha" type="matrix" values="0 0 0 0 0 0 0 0 0 0 0 0 0 0 0 0 0 0 127 0" result="hardAlpha"/>
<feOffset dy="4"/>
<feGaussianBlur stdDeviation="5"/>
<feComposite in2="hardAlpha" operator="out"/>
<feColorMatrix type="matrix" values="0 0 0 0 0.0352941 0 0 0 0 0.552941 0 0 0 0 0.901961 0 0 0 0.2 0"/>
<feBlend mode="normal" in2="BackgroundImageFix" result="effect1_dropShadow_9_1248"/>
<feBlend mode="normal" in="SourceGraphic" in2="effect1_dropShadow_9_1248" result="shape"/>
</filter>
<clipPath id="clip0_9_1248">
<rect width="50" height="31" fill="white"/>
</clipPath>
</defs>
</svg>
