<svg width="36" height="36" viewBox="0 0 36 36" fill="none" xmlns="http://www.w3.org/2000/svg">
<path d="M34 25.0073C33.8442 25.316 33.5867 25.3975 33.2533 25.3952C31.6706 25.3834 30.0872 25.3897 28.5045 25.3897H28.1304C28.1304 25.5307 28.1304 25.642 28.1304 25.7532C28.1304 26.9936 28.1312 28.2348 28.1304 29.4752C28.1304 30.0277 27.9566 30.1993 27.3985 30.2C21.1391 30.2 14.8797 30.2 8.62033 30.2C8.04112 30.2 7.87362 30.0339 7.87362 29.4596C7.87284 28.2293 7.87362 26.9991 7.87362 25.7689V25.3904C7.73586 25.3904 7.6255 25.3904 7.51435 25.3904C5.92073 25.3904 4.32712 25.3904 2.73428 25.3904C2.17542 25.3904 2.00479 25.2204 2.00401 24.6656C2.00244 23.7379 1.9954 22.8093 2.00479 21.8816C2.04001 18.5537 3.50291 16.0823 6.43889 14.4995C6.49368 14.4697 6.54769 14.4392 6.56961 14.4274C6.2667 13.9542 5.91525 13.5083 5.67183 13.0099C4.27076 10.1327 6.16025 6.65592 9.33182 6.22966C10.4018 6.08626 11.4005 6.28451 12.3437 6.79697C12.703 6.99208 12.8274 7.26163 12.6881 7.55234C12.5441 7.85245 12.2294 7.93786 11.8631 7.74274C10.7556 7.15271 9.623 7.06103 8.47162 7.57976C6.80677 8.33043 5.94891 10.1287 6.38567 11.9067C6.80521 13.6164 8.42935 14.7996 10.2296 14.6978C10.4871 14.6829 10.7431 14.6233 10.9982 14.5779C11.3403 14.5168 11.6189 14.6656 11.687 14.954C11.7622 15.2682 11.5829 15.5323 11.2323 15.6185C10.0785 15.9013 8.96081 15.8151 7.8971 15.2666C7.71081 15.171 7.55662 15.1703 7.36955 15.2541C4.69734 16.4545 3.25792 18.5193 3.08338 21.4404C3.02702 22.3839 3.07477 23.3336 3.07477 24.3021H7.91667C8.44344 20.555 10.4057 17.854 13.7996 16.156C12.4259 14.6406 11.8639 12.876 12.2631 10.8598C12.5378 9.4721 13.2478 8.31711 14.3694 7.45125C16.7763 5.5934 20.0245 5.79164 22.1418 7.89554C24.2262 9.96653 24.6089 13.5804 22.2099 16.1521C25.585 17.8407 27.5418 20.555 28.0858 24.3068H32.8893C32.8995 24.2958 32.9253 24.2801 32.9253 24.2652C32.8964 22.7286 33.1077 21.1748 32.6373 19.6688C31.979 17.5625 30.6273 16.0816 28.5867 15.2424C28.4638 15.1914 28.2744 15.1993 28.1547 15.2588C27.0839 15.7885 25.9748 15.9092 24.8171 15.6279C24.4344 15.5346 24.2465 15.2956 24.3131 14.9705C24.3773 14.6586 24.6629 14.5121 25.0496 14.5928C27.1481 15.0331 28.9883 13.9847 29.5839 12.0101C30.0027 10.6208 29.5401 9.04505 28.3871 8.11808C27.1637 7.13391 25.8128 6.98346 24.3773 7.62442C24.2442 7.68398 24.1182 7.7592 23.9828 7.81013C23.7104 7.912 23.4443 7.81013 23.3198 7.56722C23.1946 7.32353 23.2509 7.02264 23.5139 6.88865C23.9288 6.67786 24.3546 6.46238 24.8007 6.34641C26.9164 5.79634 29.0023 6.67473 30.1388 8.56001C31.2096 10.3372 30.9646 12.6166 29.5315 14.212C29.4837 14.2652 29.4399 14.3224 29.4133 14.3546C29.9698 14.7299 30.549 15.059 31.0585 15.4751C32.7328 16.8408 33.6861 18.6156 33.9436 20.7642C33.953 20.8449 33.9812 20.9233 34 21.0032V25.0073ZM27.0056 29.1195C27.0056 27.5421 27.1402 25.9679 26.9782 24.4259C26.6229 21.0573 24.8054 18.654 21.7802 17.148C21.4029 16.96 21.1243 16.9983 20.758 17.1989C19.0219 18.1479 17.2146 18.2058 15.4691 17.3016C14.8398 16.9756 14.3945 17.036 13.8559 17.3353C10.7149 19.0764 9.06257 21.7382 8.94516 25.3317C8.90681 26.5188 8.93812 27.7075 8.93812 28.8954C8.93812 28.9651 8.94516 29.0356 8.94907 29.1195H27.0056ZM17.9621 16.8542C20.5545 16.9098 22.7492 14.7565 22.804 12.1033C22.858 9.49639 20.7149 7.29454 18.0724 7.24361C15.4417 7.19267 13.2579 9.32087 13.1992 11.9929C13.1421 14.6092 15.2844 16.797 17.9613 16.8542H17.9621Z" fill="#979797" stroke="#979797" stroke-width="0.2"/>
<ellipse cx="17.9559" cy="12.0055" rx="6.00013" ry="6.00552" fill="#098DE6"/>
</svg>
