<svg width="34" height="26" viewBox="0 0 34 26" fill="none" xmlns="http://www.w3.org/2000/svg">
<path d="M5.12181 18.1149C6.87559 16.9502 8.82288 16.3117 10.7061 15.6903C10.9767 15.6013 11.247 15.5139 11.5159 15.423L11.5711 15.4047C11.969 15.2653 12.3462 15.1337 12.6549 14.9636C12.6689 14.9311 12.6888 14.8771 12.7127 14.7875C11.1622 12.524 10.1088 9.0257 10.1088 6.0288C10.1088 3.48651 10.9077 1.60317 12.4145 0.456349C11.7631 0.126999 10.9773 0.000244141 10.1317 0.000244141C7.87824 0.000244141 6.05159 0.90057 6.05159 4.13316C6.05159 6.27934 6.85661 8.91174 8.05657 10.4404C8.04543 10.5612 8.03115 10.6823 8.00945 10.8025C7.9379 11.1309 7.82287 11.4987 7.51588 11.681C7.17143 11.8855 6.78885 12.0153 6.41238 12.1472C4.85171 12.6725 3.23756 13.1354 1.85233 14.0552C1.13215 14.5293 0.644275 15.3519 0.375167 16.1601C0.0979726 16.9987 -0.0154141 18.1712 0.00166819 18.8314H4.25779C4.52781 18.5012 4.81548 18.3162 5.12181 18.1149Z" fill="#098DE6"/>
<path d="M33.6244 16.1598C33.3551 15.3517 32.867 14.5606 32.1472 14.0864C30.7617 13.1667 29.1473 12.688 27.5868 12.1631C27.2103 12.0312 26.8279 11.8935 26.4838 11.6889C26.1763 11.5063 26.0612 11.1347 25.9902 10.8061C25.9587 10.6321 25.9391 10.4553 25.9294 10.2797C27.061 8.73151 27.8117 6.20565 27.8117 4.13415C27.8117 0.900904 25.9849 0 23.7315 0C22.8745 0 22.0803 0.131542 21.4236 0.470876C22.9177 1.61902 23.7092 3.49815 23.7092 6.03012C23.7092 8.94797 22.7304 12.3078 21.2422 14.5855C21.2463 14.6114 21.2502 14.6366 21.2548 14.6619C21.294 14.8385 21.3261 14.9308 21.3461 14.9766C21.6725 15.1586 22.063 15.3013 22.4992 15.4547L23.1527 15.6725C25.0847 16.314 27.0825 16.9699 28.8821 18.1639C29.1729 18.3558 29.4476 18.501 29.705 18.8311H33.9977C34.0149 18.171 33.9013 16.9985 33.6244 16.1598Z" fill="#098DE6"/>
<path d="M30.1642 22.0753C29.8031 21.0046 29.1492 19.9436 28.185 19.3149C26.3285 18.097 24.1654 17.4558 22.0744 16.7605C21.5699 16.5856 21.0574 16.4001 20.5966 16.1291C20.1846 15.887 20.0305 15.3936 19.9349 14.9583C19.8929 14.7274 19.8666 14.4927 19.8536 14.2598C21.3697 12.209 22.3757 8.86247 22.3757 6.11819C22.3757 1.83504 19.928 0.641602 16.9086 0.641602C13.8893 0.641602 11.4418 1.83382 11.4418 6.11655C11.4418 8.95914 12.5203 12.4465 14.1282 14.4723C14.1132 14.6319 14.0942 14.7922 14.0652 14.9513C13.9691 15.3861 13.8149 15.8736 13.4039 16.115C12.9421 16.3863 12.4295 16.5577 11.9251 16.7326C9.83406 17.4286 7.67113 18.0416 5.8152 19.2601C4.85025 19.8882 4.19645 21.0046 3.83596 22.0753C3.46444 23.1863 3.3126 24.5755 3.33549 25.6414H16.9997H30.664C30.6874 24.5755 30.5353 23.1863 30.1642 22.0753Z" fill="#098DE6"/>
</svg>
