<svg xmlns="http://www.w3.org/2000/svg" width="78" height="78" viewBox="0 0 78 78">
  <g id="video-file" transform="translate(-2 -2)">
    <path id="Path_331" data-name="Path 331" d="M4.95,73.2h66.3a1.956,1.956,0,0,0,1.95-1.95V4.95A1.956,1.956,0,0,0,71.25,3H4.95A1.956,1.956,0,0,0,3,4.95v66.3A1.956,1.956,0,0,0,4.95,73.2Z" transform="translate(2.9 2.9)" fill="#fff"/>
    <path id="Path_332" data-name="Path 332" d="M7.85,80h66.3A5.857,5.857,0,0,0,80,74.15V7.85A5.857,5.857,0,0,0,74.15,2H7.85A5.857,5.857,0,0,0,2,7.85v66.3A5.857,5.857,0,0,0,7.85,80ZM5.9,7.85A1.95,1.95,0,0,1,7.85,5.9h66.3A1.95,1.95,0,0,1,76.1,7.85v66.3a1.95,1.95,0,0,1-1.95,1.95H7.85A1.95,1.95,0,0,1,5.9,74.15Z" fill="#605e5c" fill-rule="evenodd" opacity="0.64"/>
    <path id="Path_333" data-name="Path 333" d="M36.3,12a1.833,1.833,0,0,1-.936,1.56l-23.4,13.767a1.872,1.872,0,0,1-1.014.273,1.95,1.95,0,0,1-.936-.234A1.794,1.794,0,0,1,9,25.767V12Z" transform="translate(20.3 29)" fill="#098de6"/>
    <path id="Path_334" data-name="Path 334" d="M36.3,23.6a1.833,1.833,0,0,0-.936-1.56L11.964,8.25a2.028,2.028,0,0,0-1.95,0A1.794,1.794,0,0,0,9,9.81V23.6Z" transform="translate(20.3 17.4)" fill="#4ca8e6"/>
  </g>
</svg>
