<svg width="18" height="16" viewBox="0 0 18 16" fill="none" xmlns="http://www.w3.org/2000/svg">
<path opacity="0.2" fill-rule="evenodd" clip-rule="evenodd" d="M8.72147 0.99912C6.44218 0.499251 11.5001 1.99912 11.5008 10.9991C11.5012 17.4991 3.0887 14.999 7.50008 14.999C11.9115 14.999 15 15.999 17.0008 13.999C16 12.499 11.0008 1.49899 8.72147 0.99912Z" fill="#EA3D3D"/>
<path d="M9.08449 5.58398C8.68807 5.58398 8.54973 5.7967 8.54973 6.1738C8.54973 7.32436 8.68507 8.97771 8.68507 10.1283C8.6851 10.428 8.77514 10.5537 9.08452 10.5537C9.31656 10.5537 9.49229 10.428 9.49229 10.1283C9.49229 8.97774 9.62763 7.3244 9.62763 6.1738C9.62763 5.79673 9.46159 5.58398 9.08449 5.58398Z" fill="#EA3D3D"/>
<path d="M9.07098 11.4043C8.65695 11.4043 8.4375 11.7578 8.4375 12.0751C8.4375 12.3923 8.74123 12.7039 9.07098 12.6978C9.40074 12.6917 9.73099 12.4505 9.73099 12.051C9.73099 11.6516 9.48502 11.4043 9.07098 11.4043Z" fill="#EA3D3D"/>
<path d="M8.06367 1.5C8.44857 0.833334 9.41082 0.833333 9.79572 1.5L16.7239 13.5C17.1088 14.1667 16.6277 15 15.8579 15H2.00149C1.23169 15 0.750566 14.1667 1.13547 13.5L8.06367 1.5Z" stroke="#535353" stroke-linecap="round" stroke-linejoin="round"/>
</svg>
