<svg xmlns="http://www.w3.org/2000/svg" width="76.146" height="80" viewBox="0 0 76.146 80">
  <g id="xlsx-file" transform="translate(-8 -6)">
    <path id="Path_326" data-name="Path 326" d="M65.114,7H26.9A1.9,1.9,0,0,0,25,8.9V83.1A1.9,1.9,0,0,0,26.9,85H82.073a1.9,1.9,0,0,0,1.9-1.9V25.861a1.9,1.9,0,0,0-.557-1.345L66.46,7.557A1.9,1.9,0,0,0,65.114,7Z" transform="translate(-0.829)" fill="#fff" stroke="#979593" stroke-miterlimit="10" stroke-width="2"/>
    <path id="Path_327" data-name="Path 327" d="M67,7V24.122a1.9,1.9,0,0,0,1.9,1.9H86.024" transform="translate(-2.878)" fill="none" stroke="#979593" stroke-miterlimit="10" stroke-width="2"/>
    <path id="Path_328" data-name="Path 328" d="M50.512,60.024H41v-1.9h9.512a.951.951,0,0,1,.951.951h0A.951.951,0,0,1,50.512,60.024Zm0-5.707H41v-1.9h9.512a.951.951,0,0,1,.951.951h0A.951.951,0,0,1,50.512,54.317Zm0-5.707H41v-1.9h9.512a.951.951,0,0,1,.951.951h0A.951.951,0,0,1,50.512,48.61Zm0-5.707H41V41h9.512a.951.951,0,0,1,.951.951h0A.951.951,0,0,1,50.512,42.9Zm0,22.829H41v-1.9h9.512a.951.951,0,0,1,.951.951h0A.951.951,0,0,1,50.512,65.732Zm26.634-5.707H67.634a.951.951,0,0,1-.951-.951h0a.951.951,0,0,1,.951-.951h9.512a.951.951,0,0,1,.951.951h0A.951.951,0,0,1,77.146,60.024Zm0,5.707H67.634a.951.951,0,0,1-.951-.951h0a.951.951,0,0,1,.951-.951h9.512a.951.951,0,0,1,.951.951h0A.951.951,0,0,1,77.146,65.732Zm0-11.415H67.634a.951.951,0,0,1-.951-.951h0a.951.951,0,0,1,.951-.951h9.512a.951.951,0,0,1,.951.951h0A.951.951,0,0,1,77.146,54.317Zm0-5.707H67.634a.951.951,0,0,1-.951-.951h0a.951.951,0,0,1,.951-.951h9.512a.951.951,0,0,1,.951.951h0A.951.951,0,0,1,77.146,48.61Zm0-5.707H67.634a.951.951,0,0,1-.951-.951h0A.951.951,0,0,1,67.634,41h9.512a.951.951,0,0,1,.951.951h0A.951.951,0,0,1,77.146,42.9ZM63.829,60.024H54.317a.951.951,0,0,1-.951-.951h0a.951.951,0,0,1,.951-.951h9.512a.951.951,0,0,1,.951.951h0A.951.951,0,0,1,63.829,60.024Zm0,5.707H54.317a.951.951,0,0,1-.951-.951h0a.951.951,0,0,1,.951-.951h9.512a.951.951,0,0,1,.951.951h0A.951.951,0,0,1,63.829,65.732Zm0-11.415H54.317a.951.951,0,0,1-.951-.951h0a.951.951,0,0,1,.951-.951h9.512a.951.951,0,0,1,.951.951h0A.951.951,0,0,1,63.829,54.317Zm0-5.707H54.317a.951.951,0,0,1-.951-.951h0a.951.951,0,0,1,.951-.951h9.512a.951.951,0,0,1,.951.951h0A.951.951,0,0,1,63.829,48.61Zm0-5.707H54.317a.951.951,0,0,1-.951-.951h0A.951.951,0,0,1,54.317,41h9.512a.951.951,0,0,1,.951.951h0A.951.951,0,0,1,63.829,42.9Z" transform="translate(-1.61 -1.659)" fill="#c8c6c4"/>
    <path id="Path_329" data-name="Path 329" d="M11.8,72.049H42.244a3.8,3.8,0,0,0,3.8-3.8V37.8a3.8,3.8,0,0,0-3.8-3.8H11.8A3.8,3.8,0,0,0,8,37.8V68.244A3.8,3.8,0,0,0,11.8,72.049Z" transform="translate(0 -1.317)" fill="#107c41"/>
    <path id="Path_330" data-name="Path 330" d="M16.949,64.829l7.5-11.447L17.58,42h5.528l3.75,7.275q.517,1.035.711,1.544h.048q.373-.828.777-1.608L32.4,42h5.075L30.43,53.32l7.225,11.51h-5.4l-4.332-7.992a6.61,6.61,0,0,1-.517-1.067h-.064a4.973,4.973,0,0,1-.5,1.035l-4.462,8.024Z" transform="translate(-0.437 -1.707)" fill="#fff"/>
  </g>
</svg>
