<svg width="9" height="13" viewBox="0 0 9 13" fill="none" xmlns="http://www.w3.org/2000/svg">
<path d="M1.5 6.9C1.77614 6.9 2 6.67614 2 6.4C2 6.12386 1.77614 5.9 1.5 5.9C1.22386 5.9 1 6.12386 1 6.4C1 6.67614 1.22386 6.9 1.5 6.9Z" stroke="#979797" stroke-width="1.5" stroke-linecap="round" stroke-linejoin="round"/>
<path d="M1.5 2C1.77614 2 2 1.77614 2 1.5C2 1.22386 1.77614 1 1.5 1C1.22386 1 1 1.22386 1 1.5C1 1.77614 1.22386 2 1.5 2Z" stroke="#979797" stroke-width="1.5" stroke-linecap="round" stroke-linejoin="round"/>
<path d="M1.5 11.8C1.77614 11.8 2 11.5761 2 11.3C2 11.0239 1.77614 10.8 1.5 10.8C1.22386 10.8 1 11.0239 1 11.3C1 11.5761 1.22386 11.8 1.5 11.8Z" stroke="#979797" stroke-width="1.5" stroke-linecap="round" stroke-linejoin="round"/>
<path d="M7.1001 6.9C7.37624 6.9 7.6001 6.67614 7.6001 6.4C7.6001 6.12386 7.37624 5.9 7.1001 5.9C6.82396 5.9 6.6001 6.12386 6.6001 6.4C6.6001 6.67614 6.82396 6.9 7.1001 6.9Z" stroke="#979797" stroke-width="1.5" stroke-linecap="round" stroke-linejoin="round"/>
<path d="M7.1001 2C7.37624 2 7.6001 1.77614 7.6001 1.5C7.6001 1.22386 7.37624 1 7.1001 1C6.82396 1 6.6001 1.22386 6.6001 1.5C6.6001 1.77614 6.82396 2 7.1001 2Z" stroke="#979797" stroke-width="1.5" stroke-linecap="round" stroke-linejoin="round"/>
<path d="M7.1001 11.8C7.37624 11.8 7.6001 11.5761 7.6001 11.3C7.6001 11.0239 7.37624 10.8 7.1001 10.8C6.82396 10.8 6.6001 11.0239 6.6001 11.3C6.6001 11.5761 6.82396 11.8 7.1001 11.8Z" stroke="#979797" stroke-width="1.5" stroke-linecap="round" stroke-linejoin="round"/>
</svg>
