<?xml version="1.0" encoding="utf-8"?>
<!-- Generator: Adobe Illustrator 26.5.0, SVG Export Plug-In . SVG Version: 6.00 Build 0)  -->
<svg version="1.1" id="Layer_1" xmlns="http://www.w3.org/2000/svg" xmlns:xlink="http://www.w3.org/1999/xlink" x="0px" y="0px"
	 viewBox="0 0 18 21" style="enable-background:new 0 0 18 21;" xml:space="preserve">
<style type="text/css">
	.st0{fill:none;stroke:#222222;stroke-width:1.3;stroke-linecap:round;stroke-linejoin:round;}
	.st1{fill:#F9F9F9;}
</style>
<path class="st0" d="M8.9,1H2.8C2.3,1,1.8,1.2,1.5,1.5S1,2.3,1,2.8v14c0,0.5,0.2,0.9,0.5,1.2s0.8,0.5,1.2,0.5h10.5
	c0.5,0,0.9-0.2,1.2-0.5s0.5-0.8,0.5-1.2V7.1L8.9,1z"/>
<path class="st0" d="M8.9,1v6.1H15"/>
<rect x="8" y="11" class="st1" width="9" height="9"/>
<path class="st0" d="M16.6,15.3l-4,4c-1,1-2.7,1-3.7,0c-1-1-1-2.7,0-3.7l4-4c0.7-0.7,1.8-0.7,2.5,0s0.7,1.8,0,2.5l-4.1,4
	c-0.3,0.3-0.9,0.3-1.2,0c-0.3-0.3-0.3-0.9,0-1.2l3.7-3.7"/>
</svg>
