<svg width="42" height="39" viewBox="0 0 42 39" fill="none" xmlns="http://www.w3.org/2000/svg">
<path d="M41.9993 36.4247C41.9982 37.1075 41.7247 37.7619 41.2385 38.2446C40.7523 38.7273 40.0931 38.9989 39.4058 39H2.59352C1.90616 38.9989 1.24701 38.7273 0.760836 38.2446C0.274642 37.7619 0.00111164 37.1075 0 36.4247V2.58344C0 1.66039 0.495848 0.807752 1.30081 0.346001C2.10581 -0.115334 3.09786 -0.115334 3.90289 0.346001C4.70827 0.807705 5.20408 1.66041 5.20408 2.58344V33.8532H39.4188C40.1035 33.8576 40.7589 34.1303 41.2421 34.6116C41.7257 35.0932 41.9981 35.7447 42 36.4245L41.9993 36.4247ZM8.37088 31.7612H12.7065C13.051 31.7612 13.3301 31.4841 13.3301 31.1421V23.9239C13.3301 23.5819 13.051 23.3048 12.7065 23.3048H8.37088C8.02683 23.3048 7.74736 23.5819 7.74736 23.9239V31.1421C7.74736 31.4841 8.02683 31.7612 8.37088 31.7612ZM16.2687 18.0718C15.9247 18.0718 15.6452 18.3489 15.6452 18.6909V31.1416C15.6452 31.4836 15.9247 31.7607 16.2687 31.7607H20.5836C20.928 31.7607 21.2071 31.4836 21.2071 31.1416V18.6786C21.2071 18.3367 20.928 18.0596 20.5836 18.0596L16.2687 18.0718ZM23.5141 11.6625V31.1419C23.5141 31.4838 23.7932 31.7609 24.1376 31.7609H28.4815C28.8259 31.7609 29.105 31.4838 29.105 31.1419V11.6625C29.105 11.3206 28.8259 11.0435 28.4815 11.0435H24.1376C23.7932 11.0435 23.5141 11.3206 23.5141 11.6625ZM32.0229 31.7607H36.3794C36.7238 31.7607 37.0029 31.4836 37.0029 31.1416V4.16391C37.0029 3.82196 36.7238 3.54486 36.3794 3.54486H32.0229C31.6789 3.54486 31.3994 3.82196 31.3994 4.16391V31.1416C31.3994 31.4836 31.6789 31.7607 32.0229 31.7607ZM10.6529 16.7385L22.9569 4.52637V8.24066H24.2039V3.03255C24.2039 2.6906 23.9248 2.4135 23.5804 2.4135H18.3139V3.6516H22.055L9.77567 15.8637L10.6529 16.7385Z" fill="#3FAFED"/>
</svg>
