<?xml version="1.0" encoding="UTF-8"?>
<svg id="Layer_1" data-name="Layer 1" xmlns="http://www.w3.org/2000/svg" viewBox="0 0 16 16">
  <defs>
    <style>
      .cls-1 {
        fill: #2c4469;
      }
    </style>
  </defs>
  <path class="cls-1" d="M.81,12c-.36-.6-.63-1.22-.81-1.86,.81-.4,1.36-1.21,1.36-2.14S.81,6.26,0,5.86c.37-1.29,1.07-2.49,2.08-3.47,.76,.48,1.76,.53,2.6,.07,.84-.47,1.29-1.33,1.24-2.2,1.38-.35,2.81-.33,4.16,0-.05,.87,.4,1.74,1.24,2.2,.84,.47,1.84,.41,2.6-.07,.48,.47,.91,1.01,1.27,1.61,.36,.6,.63,1.22,.81,1.86-.81,.4-1.36,1.21-1.36,2.14s.55,1.74,1.36,2.14c-.37,1.29-1.07,2.49-2.08,3.47-.76-.48-1.76-.53-2.6-.07-.84,.47-1.29,1.33-1.24,2.2-1.38,.35-2.81,.33-4.16,0,.05-.87-.4-1.74-1.24-2.2-.84-.47-1.84-.41-2.6,.07-.48-.47-.91-1.01-1.27-1.61Zm4.7,.16c.91,.5,1.56,1.3,1.87,2.22,.41,.04,.83,.04,1.24,0,.31-.91,.96-1.71,1.87-2.22,.91-.5,1.95-.65,2.93-.45,.24-.33,.45-.67,.62-1.04-.67-.72-1.06-1.66-1.06-2.67s.39-1.95,1.06-2.67c-.09-.18-.18-.36-.29-.53s-.22-.34-.34-.51c-.98,.2-2.02,.05-2.92-.45-.91-.5-1.56-1.3-1.87-2.22-.41-.04-.83-.04-1.24,0-.31,.91-.96,1.71-1.87,2.22-.91,.5-1.95,.65-2.93,.45-.24,.33-.45,.67-.62,1.04,.67,.72,1.06,1.66,1.06,2.67s-.39,1.95-1.06,2.67c.09,.18,.18,.36,.29,.53,.1,.17,.22,.34,.34,.51,.98-.2,2.02-.05,2.92,.45Zm2.49-1.76c-1.38,0-2.49-1.07-2.49-2.4s1.11-2.4,2.49-2.4,2.49,1.07,2.49,2.4-1.11,2.4-2.49,2.4Zm0-1.6c.46,0,.83-.36,.83-.8s-.37-.8-.83-.8-.83,.36-.83,.8,.37,.8,.83,.8Z"/>
</svg>