<svg xmlns="http://www.w3.org/2000/svg" width="19.5" height="19.5" viewBox="0 0 19.5 19.5">
  <g id="dashb-config" transform="translate(-3532.25 -270.25)">
    <path id="Path_257" data-name="Path 257" d="M10,12.455A2.455,2.455,0,1,0,7.546,10,2.455,2.455,0,0,0,10,12.455Z" transform="translate(3532 270)" fill="none" stroke="#2c4469" stroke-linecap="round" stroke-linejoin="round" stroke-width="1.5"/>
    <path id="Path_258" data-name="Path 258" d="M16.055,12.455a1.35,1.35,0,0,0,.27,1.489l.049.049a1.637,1.637,0,1,1-2.315,2.316l-.049-.049a1.359,1.359,0,0,0-2.307.965v.139a1.636,1.636,0,1,1-3.273,0V17.29a1.35,1.35,0,0,0-.884-1.236,1.35,1.35,0,0,0-1.489.27l-.049.049a1.637,1.637,0,1,1-2.315-2.315l.049-.049A1.359,1.359,0,0,0,2.775,11.7H2.636a1.636,1.636,0,0,1,0-3.273H2.71a1.35,1.35,0,0,0,1.235-.884,1.35,1.35,0,0,0-.27-1.489l-.049-.049A1.637,1.637,0,1,1,5.942,3.692l.049.049a1.35,1.35,0,0,0,1.489.27h.065a1.35,1.35,0,0,0,.818-1.235V2.636a1.636,1.636,0,0,1,3.273,0V2.71a1.359,1.359,0,0,0,2.307.965l.049-.049a1.637,1.637,0,1,1,2.316,2.315l-.049.049a1.35,1.35,0,0,0-.27,1.489v.065a1.35,1.35,0,0,0,1.235.818h.139a1.636,1.636,0,0,1,0,3.273H17.29a1.35,1.35,0,0,0-1.236.818Z" transform="translate(3532 270)" fill="none" stroke="#2c4469" stroke-linecap="round" stroke-linejoin="round" stroke-width="1.5"/>
  </g>
</svg>
