<svg width="41" height="40" viewBox="0 0 41 40" fill="none" xmlns="http://www.w3.org/2000/svg">
<path d="M20.0589 40C9.01315 40 0.0588379 31.0458 0.0588379 20C0.0588379 8.95432 9.01315 0 20.0589 0C31.1044 0 40.0588 8.95432 40.0588 20C40.0588 31.0458 31.1044 40 20.0589 40ZM20.0589 36C28.8955 36 36.0588 28.8366 36.0588 20C36.0588 11.1635 28.8955 4.00001 20.0589 4.00001C11.2223 4.00001 4.05883 11.1635 4.05883 20C4.05883 28.8366 11.2223 36 20.0589 36ZM13.0588 24H24.0589C24.6111 24 25.0589 23.5524 25.0589 23C25.0589 22.4478 24.6111 22 24.0589 22H16.0589C13.2974 22 11.0588 19.7614 11.0588 17C11.0588 14.2386 13.2974 12 16.0589 12H18.0589V8.00001H22.0589V12H27.0589V16H16.0589C15.5065 16 15.0588 16.4478 15.0588 17C15.0588 17.5524 15.5065 18 16.0589 18H24.0589C26.8203 18 29.0588 20.2386 29.0588 23C29.0588 25.7614 26.8203 28 24.0589 28H22.0589V32H18.0589V28H13.0588V24Z" fill="#098DE6" fill-opacity="0.75"/>
</svg>
