<?xml version="1.0" encoding="UTF-8"?>
<svg id="Layer_1" data-name="Layer 1" xmlns="http://www.w3.org/2000/svg" viewBox="0 0 17.4 19.17">
  <defs>
    <style>
      .cls-1 {
        fill: none;
        stroke: #2c4469;
        stroke-linecap: round;
        stroke-linejoin: round;
        stroke-width: 1.5px;
      }
    </style>
  </defs>
  <path class="cls-1" d="M.75,4.28h15.9"/>
  <path class="cls-1" d="M14.88,4.28v12.37c0,.47-.19,.92-.52,1.25-.33,.33-.78,.52-1.25,.52H4.28c-.47,0-.92-.19-1.25-.52-.33-.33-.52-.78-.52-1.25V4.28m2.65,0v-1.77c0-.47,.19-.92,.52-1.25,.33-.33,.78-.52,1.25-.52h3.53c.47,0,.92,.19,1.25,.52,.33,.33,.52,.78,.52,1.25v1.77"/>
  <path class="cls-1" d="M6.93,8.7v5.3"/>
  <path class="cls-1" d="M10.47,8.7v5.3"/>
</svg>