<svg width="20" height="20" viewBox="0 0 20 20" fill="none" xmlns="http://www.w3.org/2000/svg">
<path d="M2 4.59961H3.8H18.2" stroke="#098DE6" stroke-width="1.5" stroke-linecap="round" stroke-linejoin="round"/>
<path d="M16.3998 4.6V17.2C16.3998 17.6774 16.2102 18.1352 15.8726 18.4728C15.535 18.8104 15.0772 19 14.5998 19H5.5998C5.12242 19 4.66458 18.8104 4.32701 18.4728C3.98945 18.1352 3.7998 17.6774 3.7998 17.2V4.6M6.4998 4.6V2.8C6.4998 2.32261 6.68945 1.86477 7.02701 1.52721C7.36458 1.18964 7.82242 1 8.2998 1H11.8998C12.3772 1 12.835 1.18964 13.1726 1.52721C13.5102 1.86477 13.6998 2.32261 13.6998 2.8V4.6" stroke="#098DE6" stroke-width="1.5" stroke-linecap="round" stroke-linejoin="round"/>
<path d="M8.2998 9.1001V14.5001" stroke="#098DE6" stroke-width="1.5" stroke-linecap="round" stroke-linejoin="round"/>
<path d="M11.8994 9.1001V14.5001" stroke="#098DE6" stroke-width="1.5" stroke-linecap="round" stroke-linejoin="round"/>
</svg>
