<svg width="50" height="40" viewBox="0 0 50 40" fill="none" xmlns="http://www.w3.org/2000/svg">
<path d="M24.7291 5C22.7948 5 20.8795 5.38098 19.0925 6.12119C17.3055 6.86139 15.6818 7.94633 14.3141 9.31405C12.9463 10.6818 11.8614 12.3055 11.1212 14.0925C10.381 15.8795 10 17.7948 10 19.7291C10 21.6633 10.381 23.5787 11.1212 25.3657C11.8614 27.1527 12.9463 28.7764 14.3141 30.1441C15.6818 31.5119 17.3055 32.5968 19.0925 33.337C20.8795 34.0772 22.7948 34.4582 24.7291 34.4582" stroke="#78C5A4" stroke-width="8"/>
<path d="M37.1193 27.6934C38.5215 25.512 39.3229 22.999 39.4426 20.4086C39.5622 17.8181 38.9958 15.242 37.8006 12.9407C36.6055 10.6393 34.8239 8.69428 32.636 7.3022C30.4482 5.91012 27.9315 5.12034 25.3406 5.0127" stroke="#C3E7FF" stroke-width="8"/>
<path d="M25.2561 34.4485C27.5727 34.3656 29.8371 33.737 31.865 32.6139C33.8929 31.4909 35.6271 29.905 36.9265 27.9854" stroke="#F4E17E" stroke-width="8"/>
</svg>
