<svg width="324" height="242" viewBox="0 0 324 242" fill="none" xmlns="http://www.w3.org/2000/svg">
<g opacity="0.6">
<path d="M324 212.67H0V212.832H324V212.67Z" fill="#EBEBEB"/>
<path d="M55.4558 218.853H33.9941V219.015H55.4558V218.853Z" fill="#EBEBEB"/>
<path d="M146.811 217.093H110.899V217.255H146.811V217.093Z" fill="#EBEBEB"/>
<path d="M71.4031 222.711H58.968V222.873H71.4031V222.711Z" fill="#EBEBEB"/>
<path d="M277.765 218.768H249.778V218.931H277.765V218.768Z" fill="#EBEBEB"/>
<path d="M287.641 218.768H283.539V218.931H287.641V218.768Z" fill="#EBEBEB"/>
<path d="M209.984 221.048H179.632V221.21H209.984V221.048Z" fill="#EBEBEB"/>
<path d="M153.582 183.703H28.4537C26.4125 183.703 24.7536 182.041 24.7536 179.995V3.70849C24.7536 1.66265 26.4125 0 28.4537 0H153.582C155.624 0 157.283 1.66265 157.283 3.70849V179.995C157.283 182.041 155.624 183.703 153.582 183.703ZM28.4537 0.162368C26.5032 0.162368 24.9156 1.75358 24.9156 3.70849V179.995C24.9156 181.95 26.5032 183.541 28.4537 183.541H153.582C155.533 183.541 157.121 181.95 157.121 179.995V3.70849C157.121 1.75358 155.533 0.162368 153.582 0.162368H28.4537Z" fill="#EBEBEB"/>
<path d="M293.745 183.703H168.616C166.575 183.703 164.916 182.041 164.916 179.995V3.70849C164.916 1.66265 166.575 0 168.616 0H293.745C295.786 0 297.445 1.66265 297.445 3.70849V179.995C297.445 182.041 295.786 183.703 293.745 183.703ZM168.616 0.162368C166.666 0.162368 165.078 1.75358 165.078 3.70849V179.995C165.078 181.95 166.666 183.541 168.616 183.541H293.745C295.695 183.541 297.283 181.95 297.283 179.995V3.70849C297.283 1.75358 295.695 0.162368 293.745 0.162368H168.616Z" fill="#EBEBEB"/>
<path d="M193 12.6257H67.8974V102.636H193V12.6257Z" fill="#FAFAFA"/>
<path d="M185.879 102.636L154.062 12.6257H130.183L162 102.636H185.879Z" fill="white"/>
<path d="M121.668 102.636L89.8517 12.6257H81.1426L112.959 102.636H121.668Z" fill="white"/>
<path d="M61.9358 9.53426H198.968C199.273 9.53426 199.526 9.78755 199.526 10.0928C199.526 10.3981 199.273 10.6513 198.968 10.6513H61.9358C61.6313 10.6513 61.3786 10.3981 61.3786 10.0928C61.3786 9.78755 61.6313 9.53426 61.9358 9.53426Z" fill="#E0E0E0"/>
<path d="M131.194 12.4309H129.71V102.831H131.194V12.4309Z" fill="#F0F0F0"/>
<path d="M129.704 12.4309H128.965V102.831H129.704V12.4309Z" fill="#E0E0E0"/>
<path d="M67.0291 56.8873V58.3746L193.862 58.3746V56.8873L67.0291 56.8873Z" fill="#F0F0F0"/>
<path d="M67.0356 102.019V11.7619H193.869V102.019V103.506H67.0356V102.019ZM192.385 102.019V13.2427H68.5195V102.019H192.385Z" fill="#F0F0F0"/>
<path d="M67.0291 11.7619H66.2904V103.506H67.0291V11.7619Z" fill="#E0E0E0"/>
<path opacity="0.5" d="M85.4258 8.17036V113.879H58.6505L63.5623 8.17036H85.4258Z" fill="#EBEBEB"/>
<path opacity="0.5" d="M174.733 8.17036V113.879H201.509L196.597 8.17036H174.733Z" fill="#EBEBEB"/>
<path d="M50.3366 126.543H40.1242V209.565H50.3366V126.543Z" fill="#F0F0F0"/>
<path d="M154.6 209.565H42.0876V212.67H154.6V209.565Z" fill="#F0F0F0"/>
<path d="M50.3431 209.559H156.563V126.537L50.3431 126.537L50.3431 209.559Z" fill="#F5F5F5"/>
<path d="M49.2804 123.835H38.8411V126.544H49.2804V123.835Z" fill="#F0F0F0"/>
<path d="M49.2739 126.537L157.84 126.537V123.828L49.2739 123.828V126.537Z" fill="#FAFAFA"/>
<path d="M152.889 173.26H54.0108V132.226H152.889V173.26ZM54.6977 172.571H152.202V132.915H54.6977V172.571Z" fill="#E0E0E0"/>
<path d="M152.889 203.876H54.0108V177.371H152.889V203.876ZM54.6977 203.188H152.202V178.059H54.6977V203.188Z" fill="#E0E0E0"/>
<path d="M138.659 132.57H68.2409C67.7399 132.57 67.3337 132.977 67.3337 133.48V133.863C67.3337 134.365 67.7399 134.772 68.2409 134.772H138.659C139.16 134.772 139.566 134.365 139.566 133.863V133.48C139.566 132.977 139.16 132.57 138.659 132.57Z" fill="#E0E0E0"/>
<path d="M138.659 177.715H68.2409C67.7399 177.715 67.3337 178.122 67.3337 178.624V179.008C67.3337 179.51 67.7399 179.917 68.2409 179.917H138.659C139.16 179.917 139.566 179.51 139.566 179.008V178.624C139.566 178.122 139.16 177.715 138.659 177.715Z" fill="#E0E0E0"/>
<path d="M225.413 208.682H284.822V27.0116H225.413L225.413 208.682Z" fill="#F0F0F0"/>
<path d="M225.413 27.0182H223.528V208.689H225.413V27.0182Z" fill="#E0E0E0"/>
<path d="M235.056 201.752H275.186V33.9415H235.056L235.056 201.752Z" fill="#FAFAFA"/>
<path d="M290.543 103.327L290.317 106.455L290.963 106.502L291.189 103.374L290.543 103.327Z" fill="#407BFF"/>
<path d="M291.39 91.4793L290.735 100.555L291.381 100.602L292.037 91.5262L291.39 91.4793Z" fill="#407BFF"/>
<path d="M273.663 193.549H114.942C110.095 193.549 106.408 189.575 106.758 184.71L115.156 67.2854C115.506 62.4273 119.757 58.446 124.604 58.446H283.325C288.172 58.446 291.859 62.4208 291.509 67.2854L283.111 184.71C282.761 189.568 278.51 193.549 273.663 193.549Z" fill="#407BFF"/>
<path d="M236.747 234.648H185.224L176.042 170.837H227.565L236.747 234.648Z" fill="#407BFF"/>
<path d="M228.563 230.842H172.835L171.726 234.648H227.461L228.563 230.842Z" fill="#407BFF"/>
<path d="M230.28 201.557L180.066 198.804L176.042 170.837H225.86L230.28 201.557Z" fill="#263238"/>
<path d="M271.875 193.549H113.154C108.307 193.549 104.62 189.575 104.97 184.71L113.368 67.2854C113.718 62.4273 117.968 58.446 122.815 58.446H281.537C286.384 58.446 290.071 62.4208 289.721 67.2854L281.323 184.71C280.973 189.568 276.722 193.549 271.875 193.549Z" fill="#263238"/>
<path d="M289.304 68.4194L284.487 135.779L285.107 135.823L289.925 68.464L289.304 68.4194Z" fill="white"/>
<path d="M284.097 141.644L282.429 164.972L283.05 165.016L284.718 141.689L284.097 141.644Z" fill="white"/>
<path d="M271.538 191.348H113.802C110.024 191.348 107.16 188.25 107.432 184.47L115.798 67.5257C116.07 63.7393 119.381 60.6478 123.152 60.6478H280.889C284.666 60.6478 287.531 63.7458 287.258 67.5257L278.893 184.47C278.621 188.256 275.309 191.348 271.538 191.348Z" fill="white"/>
<path opacity="0.2" d="M271.538 191.348H113.802C110.024 191.348 107.16 188.25 107.432 184.47L115.798 67.5257C116.07 63.7393 119.381 60.6478 123.152 60.6478H280.889C284.666 60.6478 287.531 63.7458 287.258 67.5257L278.893 184.47C278.621 188.256 275.309 191.348 271.538 191.348Z" fill="#407BFF"/>
<path opacity="0.5" d="M154.263 186.165H117.424C115.603 186.165 114.216 184.671 114.346 182.84L122.478 69.1494C122.608 67.3243 124.209 65.8241 126.03 65.8241H162.868C164.689 65.8241 166.076 67.3179 165.946 69.1494L157.814 182.84C157.684 184.665 156.084 186.165 154.263 186.165Z" fill="white"/>
<path opacity="0.4" d="M152.837 81.8595H133.773C132.127 81.8595 130.883 80.5151 131 78.8655L131.207 75.9364C131.324 74.2867 132.762 72.9423 134.408 72.9423H153.472C155.118 72.9423 156.362 74.2867 156.246 75.9364L156.038 78.8655C155.922 80.5151 154.483 81.8595 152.837 81.8595Z" fill="#407BFF"/>
<path d="M140.713 127.849H111.605C108.741 127.849 106.564 125.498 106.764 122.627L108.851 93.4526C109.058 90.582 111.573 88.2309 114.437 88.2309H143.545C146.409 88.2309 148.586 90.582 148.386 93.4526L146.299 122.627C146.092 125.498 143.577 127.849 140.713 127.849Z" fill="#407BFF"/>
<path d="M144.886 103.929C143.791 103.929 142.839 104.825 142.761 105.916L142.456 110.151C142.379 111.248 143.208 112.138 144.303 112.138H147.258C147.53 112.138 147.763 111.917 147.783 111.644L148.301 104.416C148.321 104.143 148.113 103.922 147.841 103.922H144.886V103.929Z" fill="white"/>
<path d="M133.656 95.6478H115.312C114.871 95.6478 114.54 95.2906 114.573 94.849C114.605 94.4073 114.988 94.0501 115.428 94.0501H133.773C134.214 94.0501 134.544 94.4073 134.512 94.849C134.479 95.2906 134.097 95.6478 133.656 95.6478Z" fill="white"/>
<path d="M133.371 99.7135H115.026C114.586 99.7135 114.255 99.3563 114.288 98.9147C114.32 98.4731 114.702 98.1158 115.143 98.1158H133.488C133.929 98.1158 134.259 98.4731 134.227 98.9147C134.194 99.3563 133.812 99.7135 133.371 99.7135Z" fill="white"/>
<path d="M126.736 103.773H114.728C114.288 103.773 113.957 103.416 113.99 102.974C114.022 102.532 114.404 102.175 114.845 102.175H126.852C127.293 102.175 127.624 102.532 127.591 102.974C127.559 103.416 127.176 103.773 126.736 103.773Z" fill="white"/>
<path opacity="0.5" d="M133.708 123.134H115.96C114.087 123.134 112.661 121.594 112.797 119.717L113.465 110.371C113.601 108.494 115.24 106.955 117.113 106.955H134.862C136.734 106.955 138.16 108.494 138.024 110.371L137.357 119.717C137.22 121.594 135.581 123.134 133.708 123.134Z" fill="white"/>
<path opacity="0.4" d="M150.278 138.773H128.194C127.384 138.773 126.762 138.104 126.82 137.292C126.878 136.48 127.591 135.811 128.401 135.811H150.485C151.295 135.811 151.917 136.48 151.859 137.292C151.8 138.104 151.088 138.773 150.278 138.773Z" fill="#407BFF"/>
<path opacity="0.8" d="M145.826 144.579H131.81C131 144.579 130.378 143.91 130.436 143.098C130.494 142.286 131.207 141.618 132.017 141.618H146.033C146.843 141.618 147.465 142.286 147.407 143.098C147.349 143.91 146.636 144.579 145.826 144.579Z" fill="white"/>
<path opacity="0.4" d="M149.131 154.808H127.047C126.237 154.808 125.615 154.139 125.673 153.328C125.731 152.516 126.444 151.847 127.254 151.847H149.338C150.148 151.847 150.77 152.516 150.712 153.328C150.654 154.139 149.941 154.808 149.131 154.808Z" fill="#407BFF"/>
<path opacity="0.8" d="M144.679 160.615H130.663C129.853 160.615 129.231 159.946 129.289 159.134C129.347 158.322 130.06 157.653 130.87 157.653H144.886C145.696 157.653 146.318 158.322 146.26 159.134C146.202 159.946 145.489 160.615 144.679 160.615Z" fill="white"/>
<path opacity="0.4" d="M147.984 170.837H125.9C125.09 170.837 124.468 170.168 124.526 169.357C124.584 168.545 125.297 167.876 126.107 167.876H148.191C149.001 167.876 149.623 168.545 149.565 169.357C149.507 170.168 148.794 170.837 147.984 170.837Z" fill="#407BFF"/>
<path opacity="0.8" d="M143.532 176.65H129.516C128.706 176.65 128.084 175.981 128.142 175.169C128.2 174.357 128.913 173.688 129.723 173.688H143.739C144.549 173.688 145.171 174.357 145.113 175.169C145.055 175.981 144.342 176.65 143.532 176.65Z" fill="white"/>
<path opacity="0.5" d="M273.249 152.827C274.208 151.366 276.398 151.983 276.281 153.678L274.156 183.392C274.046 184.924 272.892 186.165 271.583 186.165H164.767C163.458 186.165 162.48 184.918 162.59 183.392L163.853 165.739C164.022 163.355 166.439 161.641 168.661 162.336C174.681 164.219 179.839 163.115 184.635 160.732C194.886 155.627 203.466 144.683 215.253 144.683C215.706 144.683 216.147 144.696 216.581 144.722C234.116 145.781 239.455 167.609 253.044 167.609C257.062 167.609 260.723 165.875 263.917 163.394C267.825 160.361 271.02 156.231 273.242 152.827H273.249Z" fill="#407BFF"/>
<path opacity="0.5" d="M275.465 165.07L274.156 183.392C274.046 184.924 272.892 186.165 271.583 186.165H164.767C163.458 186.165 162.48 184.918 162.59 183.392L165.195 146.982C165.376 144.488 168.636 143.443 169.951 145.456C173.359 150.665 178.602 157.4 184.635 160.725C186.948 161.998 189.365 162.771 191.847 162.771C200.478 162.771 207.82 152.509 216.581 144.716C221.959 139.935 227.863 136.078 234.932 136.078C249.687 136.078 251.865 160.108 263.911 163.394C266.231 164.031 268.92 163.894 272.134 162.66C273.858 162.004 275.581 163.264 275.452 165.07H275.465Z" fill="#407BFF"/>
<g opacity="0.8">
<path d="M275.99 157.971C275.931 157.971 275.88 157.945 275.834 157.906C275.815 157.887 275.795 157.861 275.789 157.835C275.776 157.809 275.769 157.776 275.769 157.75C275.769 157.685 275.795 157.634 275.834 157.595C275.912 157.51 276.061 157.504 276.145 157.595C276.191 157.634 276.21 157.692 276.21 157.75C276.21 157.776 276.21 157.809 276.197 157.835C276.184 157.861 276.165 157.887 276.145 157.906C276.106 157.945 276.048 157.971 275.99 157.971Z" fill="white"/>
<path d="M172.135 173.188C172.012 173.188 171.914 173.091 171.914 172.968C171.914 172.851 172.012 172.753 172.135 172.753C172.258 172.753 172.355 172.851 172.355 172.968C172.355 173.091 172.258 173.195 172.135 173.195V173.188ZM169.912 173.058C169.789 173.058 169.698 172.942 169.711 172.818C169.724 172.695 169.834 172.61 169.957 172.623C170.081 172.636 170.165 172.747 170.152 172.864C170.139 172.981 170.042 173.065 169.932 173.065C169.932 173.065 169.919 173.065 169.906 173.065L169.912 173.058ZM174.105 172.864C174.092 172.74 174.176 172.63 174.299 172.617C174.422 172.604 174.532 172.688 174.545 172.812C174.558 172.935 174.474 173.046 174.351 173.058H174.325C174.215 173.058 174.118 172.974 174.105 172.864ZM167.722 172.721C167.605 172.695 167.527 172.578 167.547 172.454C167.573 172.338 167.689 172.26 167.813 172.279C167.929 172.305 168.007 172.422 167.988 172.545C167.962 172.649 167.871 172.721 167.767 172.721H167.722ZM176.269 172.5C176.237 172.377 176.308 172.26 176.431 172.227C176.548 172.201 176.664 172.273 176.697 172.39C176.729 172.506 176.651 172.63 176.535 172.662H176.483C176.379 172.662 176.288 172.597 176.269 172.5ZM247.141 172.591C247.018 172.591 246.92 172.493 246.92 172.37C246.92 172.247 247.024 172.149 247.141 172.149C247.264 172.149 247.361 172.247 247.361 172.37C247.361 172.493 247.264 172.591 247.141 172.591ZM249.117 172.279C249.104 172.156 249.195 172.045 249.312 172.039C249.435 172.019 249.545 172.11 249.558 172.234C249.571 172.357 249.48 172.467 249.357 172.48H249.337C249.227 172.48 249.13 172.396 249.117 172.279ZM244.925 172.454C244.808 172.441 244.717 172.331 244.737 172.208C244.75 172.084 244.86 172 244.983 172.013C245.106 172.032 245.19 172.143 245.177 172.26C245.158 172.377 245.067 172.461 244.957 172.461C244.957 172.461 244.938 172.461 244.925 172.461V172.454ZM165.57 172.188C165.454 172.156 165.383 172.032 165.415 171.915C165.454 171.799 165.57 171.727 165.694 171.76C165.81 171.799 165.875 171.915 165.843 172.039C165.817 172.136 165.726 172.195 165.629 172.195C165.629 172.195 165.59 172.195 165.57 172.195V172.188ZM251.294 171.974C251.268 171.85 251.346 171.734 251.469 171.714C251.586 171.688 251.703 171.766 251.729 171.889C251.754 172.006 251.677 172.123 251.554 172.149C251.554 172.149 251.528 172.149 251.515 172.149C251.411 172.149 251.314 172.071 251.294 171.967V171.974ZM242.747 172.052C242.624 172.026 242.553 171.909 242.585 171.786C242.611 171.669 242.728 171.597 242.851 171.623C242.968 171.649 243.039 171.773 243.013 171.889C242.987 171.993 242.896 172.058 242.799 172.058C242.799 172.058 242.76 172.058 242.747 172.058V172.052ZM178.368 171.87C178.323 171.753 178.381 171.623 178.498 171.584C178.608 171.539 178.738 171.597 178.783 171.708C178.822 171.825 178.77 171.954 178.654 171.993C178.654 171.993 178.602 172.013 178.576 172.013C178.485 172.013 178.401 171.954 178.368 171.87ZM253.439 171.487C253.407 171.363 253.472 171.24 253.595 171.207C253.711 171.175 253.835 171.246 253.867 171.363C253.899 171.48 253.828 171.604 253.711 171.636C253.711 171.636 253.673 171.649 253.653 171.649C253.556 171.649 253.465 171.584 253.439 171.487ZM240.622 171.409C240.505 171.37 240.447 171.24 240.486 171.13C240.531 171.013 240.654 170.954 240.771 170.993C240.888 171.039 240.946 171.162 240.907 171.279C240.875 171.37 240.784 171.422 240.693 171.422C240.693 171.422 240.641 171.422 240.622 171.409ZM180.384 170.993C180.325 170.889 180.371 170.753 180.481 170.694C180.591 170.642 180.721 170.694 180.779 170.798C180.831 170.902 180.792 171.039 180.682 171.091C180.682 171.091 180.617 171.117 180.578 171.117C180.5 171.117 180.423 171.071 180.384 170.993ZM255.545 170.837C255.5 170.72 255.565 170.597 255.675 170.558C255.785 170.513 255.915 170.578 255.954 170.688C255.992 170.805 255.934 170.935 255.817 170.974C255.817 170.974 255.772 170.987 255.746 170.987C255.655 170.987 255.571 170.928 255.539 170.837H255.545ZM238.574 170.565C238.464 170.519 238.412 170.383 238.464 170.272C238.516 170.162 238.645 170.116 238.756 170.162C238.872 170.214 238.918 170.344 238.866 170.461C238.827 170.539 238.749 170.591 238.665 170.591C238.665 170.591 238.6 170.584 238.574 170.565ZM257.599 170.058C257.554 169.948 257.599 169.818 257.723 169.772C257.833 169.72 257.962 169.772 258.008 169.889C258.06 169.999 258.008 170.129 257.891 170.181C257.891 170.181 257.833 170.194 257.807 170.194C257.716 170.194 257.638 170.142 257.599 170.058ZM182.302 169.928C182.237 169.824 182.269 169.681 182.373 169.616C182.477 169.551 182.613 169.584 182.678 169.688C182.742 169.792 182.71 169.928 182.606 169.993C182.606 169.993 182.529 170.032 182.49 170.032C182.418 170.032 182.347 169.993 182.302 169.928ZM236.598 169.571C236.488 169.512 236.449 169.376 236.507 169.266C236.565 169.162 236.701 169.123 236.812 169.181C236.915 169.24 236.954 169.37 236.896 169.48C236.857 169.551 236.779 169.597 236.701 169.597C236.669 169.597 236.63 169.584 236.598 169.571ZM259.615 169.168C259.563 169.058 259.615 168.928 259.718 168.876C259.829 168.824 259.965 168.876 260.016 168.98C260.068 169.09 260.016 169.22 259.906 169.272C259.906 169.272 259.842 169.298 259.809 169.298C259.725 169.298 259.647 169.253 259.608 169.168H259.615ZM184.129 168.707C184.058 168.603 184.084 168.467 184.181 168.395C184.278 168.324 184.421 168.343 184.492 168.441C184.563 168.538 184.537 168.681 184.44 168.752C184.401 168.778 184.356 168.798 184.311 168.798C184.239 168.798 184.175 168.765 184.129 168.707ZM234.686 168.46C234.582 168.395 234.55 168.259 234.615 168.155C234.673 168.045 234.809 168.012 234.913 168.077C235.023 168.142 235.056 168.278 234.991 168.382C234.945 168.454 234.874 168.493 234.803 168.493C234.764 168.493 234.719 168.48 234.686 168.46ZM261.585 168.181C261.526 168.077 261.565 167.941 261.675 167.882C261.779 167.824 261.915 167.869 261.973 167.973C262.032 168.084 261.993 168.213 261.883 168.278C261.883 168.278 261.811 168.304 261.779 168.304C261.701 168.304 261.624 168.259 261.585 168.181ZM185.892 167.376C185.814 167.278 185.827 167.142 185.924 167.064C186.021 166.986 186.157 167.005 186.235 167.096C186.313 167.194 186.294 167.337 186.203 167.415C186.157 167.447 186.112 167.46 186.06 167.46C185.995 167.46 185.931 167.434 185.892 167.376ZM232.82 167.278C232.716 167.207 232.69 167.07 232.755 166.966C232.826 166.863 232.962 166.837 233.066 166.902C233.163 166.966 233.196 167.109 233.131 167.207C233.086 167.278 233.014 167.311 232.943 167.311C232.898 167.311 232.859 167.298 232.82 167.278ZM263.509 167.116C263.444 167.005 263.483 166.876 263.587 166.811C263.691 166.752 263.827 166.785 263.892 166.889C263.95 166.992 263.917 167.129 263.814 167.194C263.775 167.213 263.736 167.226 263.697 167.226C263.626 167.226 263.548 167.187 263.509 167.116ZM230.986 166.051C230.889 165.979 230.856 165.843 230.928 165.739C230.999 165.642 231.135 165.616 231.239 165.68C231.336 165.752 231.362 165.888 231.297 165.992C231.252 166.057 231.18 166.09 231.109 166.09C231.07 166.09 231.025 166.077 230.986 166.051ZM265.388 165.973C265.324 165.869 265.356 165.732 265.46 165.661C265.563 165.596 265.699 165.629 265.764 165.732C265.829 165.836 265.797 165.973 265.693 166.038C265.693 166.038 265.622 166.077 265.576 166.077C265.505 166.077 265.434 166.038 265.388 165.973ZM187.596 165.986C187.518 165.895 187.531 165.752 187.622 165.674C187.719 165.596 187.862 165.609 187.939 165.7C188.017 165.797 188.004 165.934 187.907 166.012C187.868 166.051 187.816 166.064 187.764 166.064C187.706 166.064 187.641 166.038 187.596 165.986ZM267.235 164.765C267.164 164.661 267.19 164.524 267.287 164.453C267.391 164.382 267.527 164.408 267.598 164.511C267.663 164.609 267.643 164.752 267.54 164.817C267.501 164.843 267.456 164.856 267.417 164.856C267.345 164.856 267.274 164.823 267.235 164.765ZM229.165 164.817C229.062 164.745 229.036 164.609 229.107 164.511C229.172 164.408 229.308 164.382 229.411 164.446C229.515 164.518 229.541 164.654 229.47 164.758C229.431 164.823 229.36 164.856 229.288 164.856C229.249 164.856 229.204 164.843 229.165 164.817ZM189.287 164.57C189.203 164.479 189.216 164.336 189.313 164.258C189.404 164.18 189.546 164.193 189.624 164.284C189.702 164.382 189.689 164.518 189.598 164.596C189.553 164.635 189.508 164.648 189.456 164.648C189.391 164.648 189.326 164.622 189.287 164.57ZM227.338 163.596C227.234 163.524 227.202 163.388 227.273 163.29C227.338 163.187 227.48 163.154 227.578 163.225C227.681 163.29 227.707 163.427 227.642 163.531C227.604 163.596 227.532 163.628 227.461 163.628C227.416 163.628 227.377 163.628 227.338 163.596ZM269.037 163.492C268.959 163.394 268.985 163.258 269.082 163.187C269.179 163.115 269.322 163.135 269.393 163.232C269.464 163.329 269.438 163.472 269.341 163.544C269.302 163.57 269.257 163.583 269.212 163.583C269.147 163.583 269.076 163.557 269.037 163.492ZM190.979 163.161C190.901 163.07 190.914 162.927 191.011 162.849C191.108 162.771 191.244 162.79 191.322 162.881C191.4 162.979 191.387 163.122 191.29 163.193C191.251 163.232 191.199 163.245 191.147 163.245C191.089 163.245 191.024 163.219 190.979 163.161ZM225.491 162.407C225.387 162.342 225.355 162.206 225.42 162.102C225.485 161.998 225.621 161.966 225.724 162.03C225.828 162.095 225.86 162.232 225.796 162.336C225.75 162.407 225.679 162.446 225.608 162.446C225.569 162.446 225.523 162.433 225.491 162.407ZM270.799 162.173C270.721 162.076 270.741 161.933 270.838 161.862C270.935 161.784 271.071 161.803 271.149 161.901C271.22 161.998 271.201 162.134 271.11 162.212C271.071 162.245 271.026 162.258 270.981 162.258C270.909 162.258 270.845 162.225 270.806 162.173H270.799ZM192.702 161.797C192.631 161.699 192.65 161.556 192.748 161.485C192.845 161.413 192.981 161.433 193.059 161.53C193.13 161.628 193.11 161.764 193.013 161.842C192.974 161.868 192.929 161.888 192.884 161.888C192.812 161.888 192.748 161.855 192.702 161.797ZM223.605 161.284C223.502 161.225 223.463 161.089 223.528 160.978C223.586 160.874 223.722 160.835 223.826 160.9C223.936 160.959 223.975 161.095 223.91 161.199C223.871 161.271 223.793 161.316 223.716 161.316C223.683 161.316 223.644 161.303 223.605 161.284ZM272.516 160.796C272.439 160.706 272.452 160.563 272.549 160.485C272.646 160.407 272.782 160.42 272.86 160.517C272.938 160.608 272.925 160.751 272.834 160.829C272.789 160.861 272.737 160.881 272.691 160.881C272.627 160.881 272.562 160.855 272.516 160.796ZM194.491 160.511C194.419 160.407 194.445 160.27 194.549 160.199C194.653 160.134 194.789 160.16 194.86 160.264C194.925 160.361 194.899 160.504 194.795 160.569C194.756 160.595 194.718 160.608 194.672 160.608C194.601 160.608 194.53 160.569 194.491 160.511ZM221.681 160.238C221.577 160.186 221.532 160.05 221.59 159.939C221.642 159.829 221.778 159.79 221.888 159.842C221.992 159.9 222.037 160.037 221.985 160.147C221.946 160.218 221.862 160.264 221.784 160.264C221.784 160.264 221.713 160.264 221.681 160.238ZM274.201 159.374C274.123 159.283 274.13 159.14 274.221 159.062C274.311 158.984 274.447 158.991 274.532 159.082C274.609 159.173 274.596 159.316 274.506 159.394C274.467 159.433 274.415 159.452 274.363 159.452C274.298 159.452 274.24 159.426 274.195 159.374H274.201ZM196.35 159.335C196.286 159.231 196.325 159.095 196.435 159.03C196.538 158.971 196.674 159.01 196.733 159.114C196.791 159.225 196.759 159.355 196.649 159.42C196.61 159.439 196.571 159.446 196.538 159.446C196.461 159.446 196.383 159.407 196.344 159.335H196.35ZM219.711 159.296C219.601 159.244 219.549 159.114 219.601 159.004C219.646 158.894 219.782 158.842 219.892 158.893C220.002 158.939 220.054 159.069 220.002 159.186C219.97 159.264 219.886 159.316 219.802 159.316C219.769 159.316 219.743 159.316 219.711 159.296ZM217.689 158.471C217.572 158.432 217.514 158.302 217.56 158.186C217.598 158.075 217.728 158.017 217.845 158.056C217.955 158.101 218.013 158.225 217.974 158.341C217.942 158.432 217.858 158.484 217.767 158.484C217.767 158.484 217.715 158.484 217.689 158.471ZM198.294 158.315C198.249 158.205 198.294 158.069 198.405 158.023C198.515 157.971 198.651 158.023 198.703 158.134C198.748 158.244 198.703 158.374 198.586 158.426C198.586 158.426 198.528 158.445 198.495 158.445C198.411 158.445 198.333 158.4 198.294 158.315ZM215.616 157.789C215.499 157.75 215.434 157.634 215.466 157.51C215.499 157.393 215.628 157.328 215.745 157.361C215.862 157.393 215.927 157.517 215.894 157.64C215.862 157.731 215.778 157.796 215.68 157.796C215.68 157.796 215.641 157.796 215.616 157.796V157.789ZM200.329 157.484C200.29 157.367 200.355 157.244 200.472 157.205C200.588 157.166 200.712 157.231 200.75 157.348C200.789 157.465 200.724 157.588 200.608 157.627C200.608 157.627 200.562 157.64 200.537 157.64C200.446 157.64 200.362 157.582 200.329 157.484ZM213.503 157.25C213.386 157.224 213.309 157.107 213.335 156.991C213.36 156.867 213.477 156.789 213.6 156.822C213.717 156.841 213.795 156.958 213.769 157.081C213.749 157.185 213.652 157.257 213.548 157.257C213.548 157.257 213.522 157.257 213.503 157.257V157.25ZM202.435 156.88C202.409 156.757 202.487 156.64 202.61 156.614C202.727 156.588 202.843 156.666 202.869 156.783C202.895 156.906 202.824 157.023 202.701 157.049C202.701 157.049 202.668 157.049 202.656 157.049C202.552 157.049 202.461 156.978 202.435 156.874V156.88ZM211.358 156.88C211.242 156.861 211.151 156.75 211.17 156.627C211.183 156.503 211.3 156.419 211.416 156.438C211.533 156.451 211.617 156.568 211.604 156.692C211.585 156.796 211.494 156.88 211.384 156.88H211.352H211.358ZM204.6 156.51C204.587 156.387 204.677 156.283 204.794 156.27C204.917 156.25 205.027 156.341 205.04 156.464C205.053 156.588 204.962 156.692 204.839 156.711H204.82C204.71 156.711 204.612 156.627 204.6 156.51ZM209.187 156.653H209.194C209.071 156.653 208.974 156.542 208.986 156.419C208.986 156.296 209.097 156.205 209.22 156.211C209.343 156.211 209.434 156.328 209.427 156.451C209.427 156.568 209.323 156.659 209.207 156.659C209.207 156.659 209.194 156.653 209.187 156.653ZM206.79 156.367C206.783 156.244 206.887 156.146 207.01 156.146C207.127 156.14 207.23 156.244 207.23 156.367C207.23 156.49 207.133 156.588 207.01 156.588C206.887 156.588 206.79 156.49 206.79 156.367Z" fill="white"/>
<path d="M163.458 171.5C163.458 171.5 163.4 171.5 163.374 171.48C163.348 171.467 163.322 171.454 163.302 171.428C163.283 171.409 163.264 171.389 163.257 171.357C163.244 171.331 163.238 171.305 163.238 171.272C163.238 171.214 163.264 171.162 163.302 171.117C163.322 171.097 163.348 171.078 163.374 171.071C163.426 171.045 163.49 171.045 163.542 171.071C163.575 171.071 163.594 171.097 163.614 171.117C163.659 171.162 163.678 171.214 163.678 171.272C163.678 171.305 163.678 171.331 163.665 171.357C163.652 171.389 163.639 171.409 163.614 171.428C163.594 171.454 163.568 171.467 163.542 171.48C163.516 171.493 163.49 171.5 163.458 171.5Z" fill="white"/>
</g>
<path d="M198.988 104.987L197.472 103.351C194.789 105.864 191.212 107.416 187.389 107.416C180.98 107.416 175.9 103.052 174.746 97.1286L172.478 97.7262L170.405 98.2717C171.014 101.376 172.439 104.208 174.545 106.481C181.122 113.58 192.78 113.58 200.375 106.481L198.994 104.987H198.988Z" fill="white"/>
<path d="M202.221 80.5931L200.238 82.4441L198.871 83.7235C201.198 86.2305 202.506 89.7052 202.228 93.5371C201.956 97.369 200.154 100.844 197.472 103.357L198.657 104.637L200.368 106.481C204.036 103.045 206.297 98.3951 206.641 93.5371C206.991 88.6855 205.397 84.0288 202.215 80.5931H202.221Z" fill="#263238"/>
<path d="M202.221 80.5931C195.644 73.4943 183.987 73.4943 176.392 80.5931C171.461 85.2108 169.167 91.9653 170.398 98.2717L172.964 97.5963L174.74 97.1287C174.519 95.9856 174.442 94.7776 174.532 93.5371C175.083 85.8733 181.725 79.6578 189.372 79.6578C193.195 79.6578 196.545 81.2101 198.871 83.7235L200.621 82.0869L202.215 80.5931H202.221Z" fill="#407BFF"/>
<path d="M220.838 104.987L222.588 103.351C220.262 100.837 218.959 97.3689 219.238 93.5306C219.698 87.1073 224.435 81.7037 230.461 80.119L230.027 77.8848L229.625 75.8454C226.47 76.6768 223.528 78.3134 221.098 80.5801C213.503 87.6788 212.667 99.3628 219.244 106.468L220.838 104.974V104.987Z" fill="white"/>
<path d="M245.067 106.481L243.35 104.63L242.164 103.351C239.481 105.864 235.911 107.423 232.081 107.423C228.252 107.423 224.901 105.871 222.575 103.357L221.208 104.637L219.231 106.481C222.413 109.917 226.917 111.846 231.764 111.846C236.611 111.846 241.393 109.917 245.061 106.481H245.067Z" fill="#263238"/>
<path d="M245.067 106.481C252.655 99.3823 253.491 87.6983 246.92 80.5931C242.644 75.9753 236.034 74.1698 229.619 75.8584L230.111 78.3784L230.455 80.1255C231.621 79.8202 232.839 79.6578 234.071 79.6578C241.717 79.6578 247.471 85.8733 246.927 93.5371C246.655 97.369 244.853 100.837 242.171 103.351L243.687 104.987L245.067 106.481Z" fill="#407BFF"/>
<path opacity="0.3" d="M275.672 76.8651C276.042 76.8651 276.378 77.008 276.625 77.2678C276.871 77.5276 276.988 77.8783 276.962 78.255L276.158 89.4584C276.1 90.2572 275.381 90.9327 274.583 90.9327H263.405C263.036 90.9327 262.699 90.7898 262.453 90.53C262.207 90.2702 262.09 89.9195 262.116 89.5428L262.919 78.3394C262.978 77.5406 263.697 76.8651 264.494 76.8651H275.672ZM275.672 76.2936H264.494C263.393 76.2936 262.427 77.1963 262.349 78.3004L261.546 89.5038C261.468 90.6079 262.304 91.5107 263.405 91.5107H274.583C275.685 91.5107 276.651 90.6079 276.728 89.5038L277.532 78.3004C277.61 77.1963 276.774 76.2936 275.672 76.2936Z" fill="#407BFF"/>
<path opacity="0.3" d="M274.292 96.1414C274.661 96.1414 274.998 96.2843 275.244 96.5441C275.491 96.8039 275.607 97.1546 275.581 97.5313L274.778 108.735C274.72 109.534 274 110.209 273.203 110.209H262.025C261.656 110.209 261.319 110.066 261.073 109.806C260.826 109.547 260.71 109.196 260.736 108.819L261.539 97.6158C261.598 96.8169 262.317 96.1414 263.114 96.1414H274.292ZM274.292 95.5699H263.114C262.012 95.5699 261.047 96.4727 260.969 97.5768L260.166 108.78C260.088 109.884 260.924 110.787 262.025 110.787H273.203C274.305 110.787 275.27 109.884 275.348 108.78L276.152 97.5768C276.229 96.4727 275.394 95.5699 274.292 95.5699Z" fill="#407BFF"/>
<path d="M257.93 158.134C258.241 158.134 258.526 158.257 258.733 158.471C258.934 158.692 259.038 158.984 259.012 159.303C258.96 159.991 258.364 160.556 257.677 160.556C257.366 160.556 257.081 160.433 256.874 160.218C256.673 159.998 256.569 159.705 256.595 159.387C256.647 158.699 257.243 158.134 257.93 158.134ZM257.93 157.562C256.945 157.562 256.096 158.361 256.025 159.348C255.954 160.335 256.692 161.134 257.677 161.134C258.662 161.134 259.511 160.335 259.582 159.348C259.654 158.361 258.915 157.562 257.93 157.562Z" fill="#407BFF"/>
<path d="M258.072 157.569L257.787 157.549L257.833 156.978L258.118 156.997L258.072 157.569Z" fill="#407BFF"/>
<path d="M258.196 155.821L257.91 155.802L257.995 154.626L258.28 154.646L258.196 155.821ZM258.364 153.477L258.079 153.457L258.163 152.282L258.448 152.301L258.364 153.477ZM258.533 151.132L258.247 151.113L258.332 149.937L258.617 149.957L258.533 151.132ZM258.701 148.788L258.416 148.768L258.5 147.593L258.785 147.612L258.701 148.788ZM258.87 146.443L258.584 146.424L258.669 145.248L258.954 145.268L258.87 146.443ZM259.038 144.099L258.753 144.079L258.837 142.903L259.122 142.923L259.038 144.099ZM259.206 141.754L258.921 141.734L259.006 140.559L259.291 140.578L259.206 141.754ZM259.375 139.409L259.09 139.39L259.174 138.214L259.459 138.234L259.375 139.409ZM259.543 137.065L259.258 137.045L259.343 135.87L259.628 135.889L259.543 137.065ZM259.712 134.72L259.427 134.701L259.511 133.525L259.796 133.545L259.712 134.72ZM259.88 132.376L259.595 132.356L259.68 131.18L259.965 131.2L259.88 132.376Z" fill="#407BFF"/>
<path d="M259.796 129.429L259.755 130L260.04 130.02L260.08 129.45L259.796 129.429Z" fill="#407BFF"/>
<path d="M272.017 129.752H169.407C168.83 129.752 168.299 129.524 167.91 129.109C167.521 128.693 167.333 128.141 167.378 127.563L167.884 120.484C167.968 119.302 168.998 118.334 170.178 118.334H272.789C273.365 118.334 273.897 118.561 274.285 118.977C274.674 119.393 274.862 119.945 274.823 120.523L274.318 127.602C274.234 128.784 273.203 129.752 272.024 129.752H272.017ZM170.178 118.957C169.316 118.957 168.564 119.659 168.499 120.529L167.994 127.608C167.968 128.018 168.098 128.401 168.363 128.687C168.629 128.972 168.998 129.135 169.407 129.135H272.017C272.879 129.135 273.631 128.433 273.696 127.563L274.201 120.484C274.227 120.075 274.098 119.691 273.832 119.406C273.566 119.12 273.197 118.964 272.789 118.964H170.178V118.957Z" fill="#407BFF"/>
<path opacity="0.8" fill-rule="evenodd" clip-rule="evenodd" d="M269.814 122.893H172.549C172.018 122.893 171.616 122.458 171.655 121.932C171.694 121.399 172.154 120.971 172.686 120.971H269.95C270.482 120.971 270.883 121.406 270.845 121.932C270.806 122.465 270.346 122.893 269.814 122.893Z" fill="white"/>
<path opacity="0.8" fill-rule="evenodd" clip-rule="evenodd" d="M253.608 126.959H172.258C171.726 126.959 171.325 126.524 171.364 125.998C171.402 125.465 171.863 125.036 172.394 125.036H253.744C254.275 125.036 254.677 125.472 254.638 125.998C254.599 126.53 254.139 126.959 253.608 126.959Z" fill="white"/>
</g>
</svg>
