<svg width="15" height="22" viewBox="0 0 15 22" fill="none" xmlns="http://www.w3.org/2000/svg">
<path d="M2.25 12.25C2.94036 12.25 3.5 11.6904 3.5 11C3.5 10.3096 2.94036 9.75 2.25 9.75C1.55964 9.75 1 10.3096 1 11C1 11.6904 1.55964 12.25 2.25 12.25Z" stroke="#979797" stroke-width="1.5" stroke-linecap="round" stroke-linejoin="round"/>
<path d="M2.25 3.5C2.94036 3.5 3.5 2.94036 3.5 2.25C3.5 1.55964 2.94036 1 2.25 1C1.55964 1 1 1.55964 1 2.25C1 2.94036 1.55964 3.5 2.25 3.5Z" stroke="#979797" stroke-width="1.5" stroke-linecap="round" stroke-linejoin="round"/>
<path d="M2.25 21C2.94036 21 3.5 20.4404 3.5 19.75C3.5 19.0596 2.94036 18.5 2.25 18.5C1.55964 18.5 1 19.0596 1 19.75C1 20.4404 1.55964 21 2.25 21Z" stroke="#979797" stroke-width="1.5" stroke-linecap="round" stroke-linejoin="round"/>
<path d="M12.25 12.25C12.9404 12.25 13.5 11.6904 13.5 11C13.5 10.3096 12.9404 9.75 12.25 9.75C11.5596 9.75 11 10.3096 11 11C11 11.6904 11.5596 12.25 12.25 12.25Z" stroke="#979797" stroke-width="1.5" stroke-linecap="round" stroke-linejoin="round"/>
<path d="M12.25 3.5C12.9404 3.5 13.5 2.94036 13.5 2.25C13.5 1.55964 12.9404 1 12.25 1C11.5596 1 11 1.55964 11 2.25C11 2.94036 11.5596 3.5 12.25 3.5Z" stroke="#979797" stroke-width="1.5" stroke-linecap="round" stroke-linejoin="round"/>
<path d="M12.25 21C12.9404 21 13.5 20.4404 13.5 19.75C13.5 19.0596 12.9404 18.5 12.25 18.5C11.5596 18.5 11 19.0596 11 19.75C11 20.4404 11.5596 21 12.25 21Z" stroke="#979797" stroke-width="1.5" stroke-linecap="round" stroke-linejoin="round"/>
</svg>
