<svg width="79" height="79" viewBox="0 0 79 79" fill="none" xmlns="http://www.w3.org/2000/svg">
<circle cx="39.5" cy="39.5" r="38.5" stroke="#098DE6" stroke-width="2"/>
<path d="M30.7753 32.7329C30.7753 30.4956 31.521 28.6312 33.0126 27.1396C34.5434 25.6481 36.8003 24.9023 39.7833 24.9023C42.8056 24.9023 45.1214 25.6481 46.7307 27.1396C48.34 28.5919 49.1446 30.7507 49.1446 33.616C49.1446 33.93 49.0269 34.2048 48.7914 34.4403C48.5951 34.6365 48.34 34.7347 48.026 34.7347H47.4961C47.1821 34.7347 46.9073 34.6365 46.6718 34.4403C46.4756 34.2048 46.3775 33.9496 46.3775 33.6749C46.3775 29.7106 44.1598 27.7284 39.7245 27.7284C37.6834 27.7284 36.133 28.219 35.0732 29.2003C34.0527 30.1816 33.5425 31.418 33.5425 32.9095C33.5425 34.401 34.0331 35.5982 35.0144 36.5009C36.0349 37.3645 37.9385 38.071 40.7254 38.6205C43.5122 39.17 45.6906 40.0335 47.2606 41.211C48.8306 42.3886 49.6156 44.1548 49.6156 46.5099C49.6156 48.8257 48.7521 50.7686 47.0251 52.3386C45.3373 53.8694 42.9626 54.6348 39.9011 54.6348C36.8788 54.6348 34.4256 53.8694 32.5416 52.3386C30.6575 50.7686 29.7155 48.4724 29.7155 45.4501C29.7155 44.6258 30.108 44.2137 30.893 44.2137H31.364C32.1098 44.2137 32.4827 44.6062 32.4827 45.3912C32.4827 49.6696 35.0144 51.8087 40.0777 51.8087C42.3543 51.8087 44.042 51.2985 45.1411 50.278C46.2793 49.2182 46.8485 47.9229 46.8485 46.3921C46.8485 44.8614 46.2597 43.7623 45.0822 43.0951C43.9047 42.3886 41.844 41.7213 38.9002 41.0933C35.9956 40.4653 33.9153 39.4644 32.6593 38.0906C31.4033 36.7168 30.7753 34.9309 30.7753 32.7329Z" fill="#098DE6" stroke="#F7F7F7"/>
<path fill-rule="evenodd" clip-rule="evenodd" d="M39.8529 21.3408C40.5304 21.3408 41.0795 21.89 41.0795 22.5674V58.1384C41.0795 58.8158 40.5304 59.365 39.8529 59.365C39.1755 59.365 38.6263 58.8158 38.6263 58.1384V22.5674C38.6263 21.89 39.1755 21.3408 39.8529 21.3408Z" fill="#098DE6" stroke="#F7F7F7" stroke-linecap="round"/>
</svg>
