<svg width="40" height="40" viewBox="0 0 40 40" fill="none" xmlns="http://www.w3.org/2000/svg">
<path d="M33.5484 0H6.45161C4.74055 0 3.09977 0.679989 1.88963 1.88963C0.679955 3.09977 0 4.74055 0 6.45161V33.5484C0 35.2594 0.67999 36.9002 1.88963 38.1104C3.09977 39.32 4.74055 40 6.45161 40H33.5484C35.2595 40 36.9002 39.32 38.1104 38.1104C39.32 36.9002 40 35.2594 40 33.5484V6.45161C40 4.74055 39.32 3.09977 38.1104 1.88963C36.9002 0.679954 35.2595 0 33.5484 0ZM5.16129 6.45161C5.16129 5.73922 5.73913 5.16141 6.4515 5.16141H17.4196V11.613H5.16152L5.16129 6.45161ZM5.16129 16.7744H17.4194V23.226H5.16129V16.7744ZM5.16129 33.5486V28.3872H17.4194V34.8388H6.45127C5.73887 34.8388 5.16106 34.261 5.16106 33.5486H5.16129ZM34.8387 33.5486C34.8387 33.8906 34.7028 34.2187 34.4607 34.4608C34.2186 34.7029 33.8905 34.8388 33.5485 34.8388H22.5804V28.3872H34.8385L34.8387 33.5486ZM34.8387 23.2258H22.5806V16.7742H34.8387V23.2258ZM34.8387 11.6129H22.5806V5.16129H33.5487C33.8908 5.16129 34.2188 5.2972 34.4609 5.53931C34.7031 5.78143 34.839 6.10949 34.839 6.45152L34.8387 11.6129Z" fill="#FF51CE"/>
</svg>
