<svg width="81" height="70" viewBox="0 0 81 70" fill="none" xmlns="http://www.w3.org/2000/svg">
<path d="M41.2684 23.2715C39.343 23.2715 38.671 24.3047 38.671 26.1363C38.671 31.7248 39.3284 39.7553 39.3284 45.3439C39.3285 46.7997 39.7659 47.4101 41.2686 47.4101C42.3956 47.4101 43.2491 46.7997 43.2491 45.3439C43.2491 39.7554 43.9065 31.7249 43.9065 26.1363C43.9065 24.3048 43.1001 23.2715 41.2684 23.2715Z" fill="#098DE6" stroke="#F4F4F4" stroke-width="2"/>
<path d="M41.2027 51.543C39.1916 51.543 38.1257 53.2602 38.1257 54.8011C38.1257 56.3419 39.601 57.8554 41.2027 57.8256C42.8043 57.7959 44.4084 56.6243 44.4084 54.6843C44.4084 52.7443 43.2137 51.543 41.2027 51.543Z" fill="#098DE6" stroke="#F4F4F4" stroke-width="2"/>
<path d="M36.3092 3.42857C38.1788 0.190478 42.8526 0.190475 44.7221 3.42857L78.3733 61.7143C80.2429 64.9524 77.906 69 74.1669 69H6.8644C3.12537 69 0.788464 64.9524 2.65798 61.7143L36.3092 3.42857Z" stroke="#098DE6" stroke-width="2" stroke-linecap="round" stroke-linejoin="round"/>
</svg>
