<svg width="48" height="60" viewBox="0 0 48 60" fill="none" xmlns="http://www.w3.org/2000/svg">
<g clip-path="url(#clip0_21_1240)">
<g filter="url(#filter0_d_21_1240)">
<path d="M12.0746 34.7968H10.0831V56.0391C10.0831 56.0391 13.6617 57.7308 16.5072 58.8146C18.1911 59.456 19.9917 59.6395 21.7936 59.6395H34.6561C36.7493 59.6395 38.8975 59.5341 40.8095 58.6824C45.4281 56.625 42.4332 53.7748 39.9664 52.4387C49.4715 50.7105 45.487 46.4469 42.1267 44.5266C50.7676 42.7984 46.9482 38.9714 44.5479 37.0512C49.5219 33.5694 47.4413 30.2776 44.5479 28.8722C43.6825 28.4519 42.7156 28.316 41.7535 28.316H29.1652C32.4056 25.4357 31.6855 15.7147 30.9654 12.4743C30.6071 10.8617 29.0226 10.8374 27.4427 11.3095C25.7463 11.8164 24.8697 13.5633 24.6318 15.3178C24.3294 17.548 23.6573 20.2913 22.3245 22.1954C20.7779 24.4047 18.5676 28.8737 16.701 32.19C15.7654 33.8521 13.982 34.7968 12.0746 34.7968Z" fill="#098DE6"/>
<path d="M0 34.0772C0 32.8842 0.967171 31.917 2.16024 31.917H7.92087C9.11393 31.917 10.0811 32.8842 10.0811 34.0772V57.8398C10.0811 59.0329 9.11393 60.0001 7.92087 60.0001H2.16024C0.967171 60.0001 0 59.0329 0 57.8398V34.0772Z" fill="white" stroke="#979797" stroke-width="2" stroke-linecap="round" stroke-linejoin="round"/>
</g>
<path fill-rule="evenodd" clip-rule="evenodd" d="M37.8339 1.67364C37.8339 0.603596 38.7118 0 39.8366 0C40.9067 0 41.812 0.603685 41.812 1.67364C41.812 3.30608 41.716 5.29518 41.62 7.28426C41.524 9.27331 41.4279 11.2623 41.4279 12.8947C41.4279 13.7452 40.4951 14.1018 39.8367 14.1018C38.9588 14.1018 38.218 13.7452 38.2179 12.8947C38.2179 11.2623 38.1219 9.27319 38.0259 7.28411C37.9299 5.29506 37.8339 3.30602 37.8339 1.67364ZM37.754 18.1073C37.754 16.9549 38.6594 15.9947 39.8665 15.9947C40.9913 15.9947 41.9517 16.9549 41.9517 18.1073C41.9517 19.2322 40.9914 20.2199 39.8665 20.2199C38.6593 20.2199 37.754 19.2322 37.754 18.1073Z" fill="#979797"/>
</g>
<defs>
<filter id="filter0_d_21_1240" x="-11" y="5.04297" width="68.5481" height="69.957" filterUnits="userSpaceOnUse" color-interpolation-filters="sRGB">
<feFlood flood-opacity="0" result="BackgroundImageFix"/>
<feColorMatrix in="SourceAlpha" type="matrix" values="0 0 0 0 0 0 0 0 0 0 0 0 0 0 0 0 0 0 127 0" result="hardAlpha"/>
<feOffset dy="4"/>
<feGaussianBlur stdDeviation="5"/>
<feComposite in2="hardAlpha" operator="out"/>
<feColorMatrix type="matrix" values="0 0 0 0 0.0352941 0 0 0 0 0.552941 0 0 0 0 0.901961 0 0 0 0.2 0"/>
<feBlend mode="normal" in2="BackgroundImageFix" result="effect1_dropShadow_21_1240"/>
<feBlend mode="normal" in="SourceGraphic" in2="effect1_dropShadow_21_1240" result="shape"/>
</filter>
<clipPath id="clip0_21_1240">
<rect width="48" height="60" fill="white"/>
</clipPath>
</defs>
</svg>
