<svg width="18" height="17" viewBox="0 0 18 17" fill="none" xmlns="http://www.w3.org/2000/svg">
<path d="M10.2967 2.07438L11.6167 4.71438C11.7967 5.08188 12.2767 5.43438 12.6817 5.50188L15.0742 5.89937C16.6042 6.15437 16.9642 7.26437 15.8617 8.35938L14.0017 10.2194C13.6867 10.5344 13.5142 11.1419 13.6117 11.5769L14.1442 13.8794C14.5642 15.7019 13.5967 16.4069 11.9842 15.4544L9.7417 14.1269C9.3367 13.8869 8.6692 13.8869 8.2567 14.1269L6.0142 15.4544C4.4092 16.4069 3.4342 15.6944 3.8542 13.8794L4.3867 11.5769C4.4842 11.1419 4.3117 10.5344 3.9967 10.2194L2.1367 8.35938C1.0417 7.26437 1.3942 6.15437 2.9242 5.89937L5.3167 5.50188C5.7142 5.43438 6.1942 5.08188 6.3742 4.71438L7.6942 2.07438C8.4142 0.641875 9.5842 0.641875 10.2967 2.07438Z" stroke="#B3BAC5" stroke-width="1.5" stroke-linecap="round" stroke-linejoin="round"/>
</svg>
