<?xml version="1.0" encoding="UTF-8"?>
<svg id="Layer_1" data-name="Layer 1" xmlns="http://www.w3.org/2000/svg" viewBox="0 0 24 24">
  <defs>
    <style>
      .cls-1 {
        fill: #2c4469;
      }
    </style>
  </defs>
  <g id="Workflow">
    <g id="Layer_2" data-name="Layer 2">
      <path id="Path_893" data-name="Path 893" class="cls-1" d="M24,20.57c0,1.89-1.53,3.42-3.42,3.43-1.56,0-2.93-1.06-3.32-2.57H6.87c-2.84-.04-5.11-2.37-5.07-5.21,.04-2.78,2.29-5.03,5.07-5.07h1.83c.46-1.83,2.32-2.93,4.15-2.47,1.21,.31,2.16,1.25,2.47,2.47h1.83c1.89,0,3.43-1.53,3.43-3.43s-1.53-3.43-3.43-3.43H6.75c-.47,1.83-2.34,2.94-4.18,2.46C.74,6.27-.36,4.4,.11,2.57S2.45-.36,4.29,.11c1.21,.31,2.15,1.25,2.46,2.46h10.4c2.84,.04,5.11,2.37,5.07,5.21-.04,2.78-2.29,5.03-5.07,5.07h-1.83c-.46,1.83-2.32,2.93-4.15,2.47-1.21-.31-2.16-1.25-2.47-2.47h-1.83c-1.89,0-3.43,1.53-3.43,3.43s1.53,3.43,3.43,3.43h10.4c.47-1.83,2.34-2.93,4.17-2.46,1.51,.39,2.57,1.75,2.57,3.32h0Z"/>
    </g>
  </g>
</svg>