<svg xmlns="http://www.w3.org/2000/svg" width="20" height="19.944" viewBox="0 0 20 19.944">
  <g id="Dashboard" transform="translate(-93.97 -1473.474)">
    <g id="Group_2390" data-name="Group 2390">
      <path id="Path_767" data-name="Path 767" d="M113.961,1486.941c0,1.768-.018,3.537.009,5.3a1.081,1.081,0,0,1-1.164,1.172c-2.233-.023-4.468-.008-6.7-.009a1.015,1.015,0,0,1-1.142-1.135v-10.68a1.021,1.021,0,0,1,1.138-1.143q3.375,0,6.749,0a1,1,0,0,1,1.112,1.115Q113.962,1484.254,113.961,1486.941Z" fill="#00a0e3"/>
      <path id="Path_768" data-name="Path 768" d="M102.97,1478.449q0,1.917,0,3.833a1.028,1.028,0,0,1-1.168,1.16H95.1a1.007,1.007,0,0,1-1.129-1.122q0-3.868,0-7.736a1,1,0,0,1,1.114-1.109h6.773a1.008,1.008,0,0,1,1.112,1.118Q102.972,1476.522,102.97,1478.449Z" fill="#00a0e3"/>
      <path id="Path_769" data-name="Path 769" d="M98.483,1493.41q-1.7,0-3.4,0a1,1,0,0,1-1.115-1.107q0-2.884,0-5.769a.988.988,0,0,1,1.083-1.092q3.408,0,6.816,0a1,1,0,0,1,1.1,1.083q0,2.9,0,5.793a1,1,0,0,1-1.09,1.092C100.747,1493.412,99.615,1493.41,98.483,1493.41Z" fill="#00a0e3"/>
      <path id="Path_770" data-name="Path 770" d="M109.464,1478.452h-3.373a1.011,1.011,0,0,1-1.128-1.124q0-1.367,0-2.732a1.01,1.01,0,0,1,1.131-1.121h6.745a1,1,0,0,1,1.122,1.124q0,1.377,0,2.755a1,1,0,0,1-1.1,1.1C111.727,1478.454,110.6,1478.452,109.464,1478.452Z" fill="#00a0e3"/>
    </g>
  </g>
</svg>
