<svg xmlns="http://www.w3.org/2000/svg" width="62.834" height="50" viewBox="0 0 62.834 50">
  <g id="active_projects" data-name="active projects" transform="translate(0.139)">
    <g id="Projects">
      <path id="Rectangle" d="M0,0H26.553l9.161,9.161V49.379H0Z" transform="translate(11.852 0.311)" fill="#fff"/>
      <path id="Rectangle-2" data-name="Rectangle" d="M0,0H35.714a0,0,0,0,1,0,0V0a5.9,5.9,0,0,1-5.9,5.9H5.9A5.9,5.9,0,0,1,0,0V0A0,0,0,0,1,0,0Z" transform="translate(11.852 43.789)" fill="#eeeff2"/>
      <path id="Rectangle-3" data-name="Rectangle" d="M4.658,50A4.659,4.659,0,0,1,0,45.342V4.658A4.658,4.658,0,0,1,4.658,0H26.092a2.174,2.174,0,0,1,1.537.636L35.7,8.707a2.174,2.174,0,0,1,.637,1.537v35.1A4.659,4.659,0,0,1,31.677,50Z" transform="translate(11.542)" fill="#001c47"/>
      <path id="Path_15" data-name="Path 15" d="M.311,0A.311.311,0,0,1,.619.274l0,.036V2.64A3.416,3.416,0,0,0,3.948,6.055H6.366a.311.311,0,0,1,.036.619l-.036,0H4.037A4.037,4.037,0,0,1,0,2.735V.311A.311.311,0,0,1,.311,0Z" transform="translate(36.852 4.348)" fill="#19274a" stroke="#19274a" stroke-miterlimit="10" stroke-width="0.25"/>
      <path id="Path_14" data-name="Path 14" d="M20.031,0c.172,0,.311.224.311.5,0,.256-.12.468-.274.5l-.036,0H.311C.139,1,0,.776,0,.5,0,.244.12.032.274,0L.311,0Z" transform="translate(16.2 31.211)" fill="#19274a"/>
      <path id="Oval" d="M11.723,0A11.723,11.723,0,1,1,0,11.723,11.723,11.723,0,0,1,11.723,0Z" transform="translate(16.184 7.61)" fill="#00a0e3"/>
      <path id="Path" d="M8.675.238A.811.811,0,0,1,9.882,1.319l-.059.066L3.332,7.876a.811.811,0,0,1-1.081.059l-.066-.059L.238,5.928A.811.811,0,0,1,1.319,4.722l.066.059L2.758,6.155Z" transform="translate(23.033 15.678)" fill="#fff"/>
      <path id="Path_14-2" data-name="Path 14" d="M15.373,0c.172,0,.311.224.311.5,0,.256-.12.468-.274.5l-.036,0H.311C.139,1,0,.776,0,.5,0,.244.12.032.274,0L.311,0Z" transform="translate(15.89 34.472)" fill="#19274a"/>
      <path id="Path_16" data-name="Path 16" d="M22.741,0c.381,0,.689.224.689.5,0,.256-.266.468-.609.5l-.08,0H.689C.309,1,0,.776,0,.5,0,.244.266.032.609,0l.08,0Z" transform="translate(16.2 39.286)" fill="#00a0e3"/>
      <path id="Path_18" data-name="Path 18" d="M1.866,24.689,5.748,7.764a12.945,12.945,0,0,0,.311-4.193A4.895,4.895,0,0,0,3.885.932L.779,0V.311A41.813,41.813,0,0,1,1.4,6.832C1.139,11.244-.064,15.149,0,17.7.15,23.357,1.866,24.689,1.866,24.689Z" transform="translate(55.017 8.54)" fill="#eeeff2"/>
      <path id="Path_17" data-name="Path 17" d="M9.472,0a4.658,4.658,0,0,1,4.657,4.561V29.348A4.658,4.658,0,0,1,9.57,34.005H7.764a.311.311,0,0,1-.036-.619l.036,0H9.472a4.037,4.037,0,0,0,4.036-3.942V4.658A4.037,4.037,0,0,0,9.567.622H.311A.311.311,0,0,1,.274,0L.311,0Z" transform="translate(48.778 6.61) rotate(13)" fill="#19274a" stroke="#19274a" stroke-miterlimit="10" stroke-width="0.25"/>
      <path id="Path_19" data-name="Path 19" d="M4.969,31.366h0A4.969,4.969,0,0,1,0,26.4V4.391A4.391,4.391,0,0,1,4.391,0h0S3.857,4.179,3.085,10.678,4.969,31.366,4.969,31.366Z" transform="translate(0.346 12.137) rotate(-7)" fill="#eeeff2"/>
      <path id="Path_19-2" data-name="Path 19" d="M9.006,0a.311.311,0,0,1,.036.619l-.036,0H4.658A4.037,4.037,0,0,0,.622,4.563V27.329a4.037,4.037,0,0,0,3.942,4.036H5.28a.311.311,0,0,1,.036.619l-.036,0H4.658A4.658,4.658,0,0,1,0,27.427V4.658A4.658,4.658,0,0,1,4.561,0H9.006Z" transform="translate(0 11.867) rotate(-7)" fill="#19274a" stroke="#19274a" stroke-miterlimit="10" stroke-width="0.25"/>
    </g>
  </g>
</svg>
