<svg id="bot" xmlns="http://www.w3.org/2000/svg" width="27.846" height="29.365" viewBox="0 0 27.846 29.365">
  <g id="bot-2" data-name="bot">
    <g id="Group_19" data-name="Group 19">
      <path id="Rectangle" d="M0,0H1.231a2,2,0,0,1,2,2V5.538a2,2,0,0,1-2,2H0a0,0,0,0,1,0,0V0A0,0,0,0,1,0,0Z" transform="translate(24.615 11.769)" fill="#63b8f2"/>
      <path id="Path" d="M3.231,7.538H2.154A2.154,2.154,0,0,1,0,5.385V2.154A2.154,2.154,0,0,1,2.154,0H3.231Z" transform="translate(0 11.769)" fill="#63b8f2"/>
      <path id="Rectangle-2" data-name="Rectangle" d="M0,3A3,3,0,0,1,3,0H18.538a3,3,0,0,1,3,3V16.385a3,3,0,0,1-3,3H12.923L6.462,22.615V19.385H3a3,3,0,0,1-3-3Z" transform="translate(3 6)" fill="none" stroke="#474747" stroke-linejoin="round" stroke-miterlimit="10" stroke-width="1.5"/>
      <g id="Group_22" data-name="Group 22" transform="translate(8)">
        <g id="Group_21" data-name="Group 21">
          <path id="Path_11" data-name="Path 11" d="M.538,3.769V.538" transform="translate(1.077 2.154)" fill="none" stroke="#474747" stroke-miterlimit="10" stroke-width="1.5"/>
          <circle id="Oval" cx="1.615" cy="1.615" r="1.615" transform="translate(0 0)" fill="#63b8f2"/>
        </g>
        <path id="Path_11-2" data-name="Path 11" d="M.538,3.769V.538" transform="translate(9.692 2.154)" fill="none" stroke="#474747" stroke-miterlimit="10" stroke-width="1.5"/>
        <circle id="Oval-2" data-name="Oval" cx="1.615" cy="1.615" r="1.615" transform="translate(8.615 0)" fill="#63b8f2"/>
        <circle id="Oval-3" data-name="Oval" cx="1.615" cy="1.615" r="1.615" transform="translate(0 12)" fill="#63b8f2"/>
        <circle id="Oval-4" data-name="Oval" cx="1.615" cy="1.615" r="1.615" transform="translate(8.615 12)" fill="#63b8f2"/>
      </g>
      <path id="Path_12" data-name="Path 12" d="M0,.5H10" transform="translate(9 19.5)" fill="none" stroke="#474747" stroke-linecap="round" stroke-miterlimit="10" stroke-width="1.5"/>
    </g>
  </g>
</svg>
