<svg xmlns="http://www.w3.org/2000/svg" width="40.67" height="49.738" viewBox="0 0 40.67 49.738">
  <g id="Group_2312" data-name="Group 2312" transform="translate(-3127.219 174.904)">
    <g id="Checkout_items" data-name="Checkout items" transform="translate(3127.344 -174.779)">
      <g id="Checkout_items-2" data-name="Checkout items" transform="translate(0)">
        <path id="Path_22" data-name="Path 22" d="M21.209,0V23.586a5,5,0,0,1-5,5H0V26.742H14.211a5,5,0,0,0,5-5V0Z" transform="translate(18.904 20.594)" fill="#eeeff2"/>
        <path id="Path_22-2" data-name="Path 22" d="M33.2,0a3.227,3.227,0,0,1,3.226,3.14V37.807a4.611,4.611,0,0,1-4.514,4.61H2.152A2.152,2.152,0,0,1,0,40.266a.307.307,0,0,1,.615,0A1.537,1.537,0,0,0,2.085,41.8H31.814a4,4,0,0,0,3.995-3.9V3.227A2.613,2.613,0,0,0,33.2.615.307.307,0,0,1,33.2,0Z" transform="translate(3.996 7.07)" fill="#19274a" stroke="#19274a" stroke-miterlimit="10" stroke-width="0.25"/>
        <rect id="Rectangle" width="13.217" height="0.615" rx="0.307" transform="translate(7.992 17.828)" fill="#d8d8d8"/>
        <g id="Group_4" data-name="Group 4">
          <rect id="Rectangle-2" data-name="Rectangle" width="35.656" height="42.418" rx="5" transform="translate(0.307 3.074)" fill="#eeeff2"/>
          <path id="Rectangle-3" data-name="Rectangle" d="M5,0H32.889a0,0,0,0,1,0,0V34.652a5,5,0,0,1-5,5H5a5,5,0,0,1-5-5V5A5,5,0,0,1,5,0Z" transform="translate(0.307 3.074)" fill="#fff"/>
          <path id="Rectangle-4" data-name="Rectangle" d="M4.611,43.033A4.611,4.611,0,0,1,0,38.422V4.611A4.611,4.611,0,0,1,4.611,0H31.66a4.611,4.611,0,0,1,4.611,4.611V38.422a4.611,4.611,0,0,1-4.611,4.611Z" transform="translate(0 2.766)" fill="#001c47" stroke="#19274a" stroke-miterlimit="10" stroke-width="0.25"/>
          <rect id="Rectangle-5" data-name="Rectangle" width="18.75" height="7.07" rx="3.535" transform="translate(8.914 0.307)" fill="#fff"/>
          <path id="Rectangle-6" data-name="Rectangle" d="M3.842,7.684A3.842,3.842,0,0,1,3.842,0h11.68a3.842,3.842,0,1,1,0,7.684Z" transform="translate(8.607)" fill="#19274a" stroke="#19274a" stroke-miterlimit="10" stroke-width="0.25"/>
        </g>
        <path id="Path_14" data-name="Path 14" d="M19.826,0c.17,0,.307.224.307.5,0,.256-.119.468-.272.5l-.036,0H.307C.138,1,0,.776,0,.5,0,.244.119.032.272,0L.307,0Z" transform="translate(4.611 29.662)" fill="#19274a"/>
        <path id="Path" d="M4.108.113A.384.384,0,0,1,4.68.625L4.652.656,1.578,3.73a.384.384,0,0,1-.512.028L1.035,3.73.113,2.808a.384.384,0,0,1,.512-.571l.031.028.65.651Z" transform="translate(8.53 17.136)" fill="#fff"/>
        <path id="Path_14-2" data-name="Path 14" d="M15.215,0c.17,0,.307.224.307.5,0,.256-.119.468-.272.5l-.036,0H.307C.138,1,0,.776,0,.5,0,.244.119.032.272,0L.307,0Z" transform="translate(4.303 32.889)" fill="#19274a"/>
      </g>
    </g>
    <circle id="Oval" cx="11.723" cy="11.723" r="11.723" transform="translate(3133.753 -164.999)" fill="#00a0e3"/>
    <path id="Path-2" data-name="Path" d="M8.675.238A.811.811,0,0,1,9.882,1.319l-.059.066L3.332,7.876a.811.811,0,0,1-1.081.059l-.066-.059L.238,5.928A.811.811,0,0,1,1.319,4.722l.066.059L2.758,6.155Z" transform="translate(3140.603 -156.932)" fill="#fff"/>
  </g>
</svg>
