<svg id="Layer_1" data-name="Layer 1" xmlns="http://www.w3.org/2000/svg" viewBox="0 0 32 32"><defs><style>.cls-1{fill:#e00000;}</style></defs><path class="cls-1" d="M6.15,7.45H3.21A.72.72,0,1,1,3.21,6H9.57a1.28,1.28,0,0,0,0-.19V3.91A2.84,2.84,0,0,1,12.46,1Q16,1,19.55,1a2.83,2.83,0,0,1,2.87,2.88V6h6.37a.72.72,0,1,1,0,1.43h-3c0,.33-.07.65-.1,1L25,16.21l-.63,6.49L23.86,28a4,4,0,0,1-.23,1.19A2.83,2.83,0,0,1,21,31H11a2.84,2.84,0,0,1-2.8-2.58c-.12-1.32-.25-2.63-.37-3.95l-.66-6.87c-.21-2.16-.43-4.32-.64-6.48-.11-1.17-.22-2.34-.34-3.51C6.16,7.53,6.15,7.5,6.15,7.45Zm1.44,0v.17c.06.58.12,1.16.17,1.74l.63,6.46L9,22c.19,2,.37,3.92.57,5.89a3,3,0,0,0,.16.84,1.39,1.39,0,0,0,1.38.83h10a1.44,1.44,0,0,0,1.34-1.3l.15-1.54q.26-2.73.53-5.47l.42-4.38c.17-1.7.33-3.39.49-5.09.12-1.14.23-2.28.34-3.42,0-.29.05-.58.08-.88ZM21,6V5.84c0-.63,0-1.26,0-1.9a1.41,1.41,0,0,0-1.48-1.48h-7A1.42,1.42,0,0,0,11,4V5.81C11,6,11,6,11.23,6H21Z"/><path class="cls-1" d="M12.79,18.51c.12,2.45.23,4.9.35,7.35a.71.71,0,1,1-1.42.15l-.24-5.14q-.17-3.35-.32-6.69c-.05-1-.11-2.08-.15-3.12A.71.71,0,1,1,12.43,11c0,.69.07,1.38.1,2.07.09,1.81.17,3.62.26,5.44Z"/><path class="cls-1" d="M20.64,18.48l-.27,5.59L20.28,26a.71.71,0,1,1-1.42-.06c0-.57.05-1.14.08-1.71l.39-8.34L19.57,11a.71.71,0,0,1,.74-.72.71.71,0,0,1,.68.78c-.07,1.58-.15,3.16-.23,4.74l-.12,2.66Z"/><path class="cls-1" d="M15.29,18.5V11.08A.71.71,0,1,1,16.71,11V26a.71.71,0,0,1-1.42,0V18.5Z"/></svg>