<svg xmlns="http://www.w3.org/2000/svg" width="56.46" height="55.014" viewBox="0 0 56.46 55.014">
  <g id="Group_119" data-name="Group 119" transform="translate(0.25 0.25)">
    <path id="Path_23" data-name="Path 23" d="M6.518,0H15.9L17.01.477,18.282,1.59l.636,2.226v28.3l-.636,1.749L17.01,35.77H0s15.262-4.133,15.9-12.718S6.518,0,6.518,0Z" transform="translate(36.565 7.949)" fill="#eeeff2"/>
    <path id="Combined_Shape" data-name="Combined Shape" d="M1.594,9.8l0-8.495L.577,2.729a.317.317,0,0,1-.41.095L.133,2.8a.317.317,0,0,1-.095-.41l.021-.034L1.649.133A.318.318,0,0,1,2.141.1l.026.031,1.59,2.226a.318.318,0,0,1-.492.4l-.026-.031L2.37,1.512V9.8a.388.388,0,1,1-.776,0Z" transform="translate(20.052 4.557)" fill="#19274a" stroke="#19274a" stroke-miterlimit="10" stroke-width="0.5"/>
    <path id="Combined_Shape-2" data-name="Combined Shape" d="M1.594,9.8l0-8.495L.577,2.729a.317.317,0,0,1-.41.095L.133,2.8a.317.317,0,0,1-.095-.41l.021-.034L1.649.133A.318.318,0,0,1,2.141.1l.026.031,1.59,2.226a.318.318,0,0,1-.492.4l-.026-.031L2.37,1.512V9.8a.388.388,0,1,1-.776,0Z" transform="translate(26.25)" fill="#27ad74" stroke="#27ad74" stroke-miterlimit="10" stroke-width="0.5"/>
    <path id="Combined_Shape-3" data-name="Combined Shape" d="M1.594,9.8l0-8.495L.577,2.729a.317.317,0,0,1-.41.095L.133,2.8a.317.317,0,0,1-.095-.41l.021-.034L1.649.133A.318.318,0,0,1,2.141.1l.026.031,1.59,2.226a.318.318,0,0,1-.492.4l-.026-.031L2.37,1.512V9.8a.388.388,0,1,1-.776,0Z" transform="translate(31.719 4.375)" fill="#001c47" stroke="#19274a" stroke-miterlimit="10" stroke-width="0.5"/>
    <path id="Path" d="M16.851,0a.318.318,0,0,1,.037.634l-.037,0H4.769A4.133,4.133,0,0,0,.637,4.672V31.8a4.133,4.133,0,0,0,4.036,4.132H51.19a4.133,4.133,0,0,0,4.132-4.036V4.769A4.133,4.133,0,0,0,51.288.637H39.108A.318.318,0,0,1,39.071,0l.037,0H51.19a4.769,4.769,0,0,1,4.768,4.67V31.8a4.769,4.769,0,0,1-4.67,4.768H4.769A4.769,4.769,0,0,1,0,31.9V4.769A4.769,4.769,0,0,1,4.67,0H16.851Z" transform="translate(0 7.656)" fill="#19274a" stroke="#19274a" stroke-miterlimit="10" stroke-width="0.5"/>
    <g id="Group_118" data-name="Group 118" transform="translate(22.969 45.938)">
      <path id="Line_6" data-name="Line 6" d="M.547,0c.28,0,.512.123.543.281l0,.037V4.451c0,.176-.245.318-.547.318-.28,0-.512-.123-.543-.281l0-.037V.318C0,.142.245,0,.547,0Z" transform="translate(0 0)" fill="#19274a" stroke="#19274a" stroke-miterlimit="10" stroke-width="0.5"/>
      <path id="Line_6-2" data-name="Line 6" d="M.547,0c.28,0,.512.123.543.281l0,.037V4.292c0,.176-.245.318-.547.318-.28,0-.512-.123-.543-.281l0-.037V.318C0,.142.245,0,.547,0Z" transform="translate(7.313 0.159)" fill="#19274a" stroke="#19274a" stroke-miterlimit="10" stroke-width="0.5"/>
    </g>
    <g id="cloud-computing" transform="translate(18.594 19.688)">
      <path id="Path-2" data-name="Path" d="M16.3,5.817a4.973,4.973,0,0,0,.081-.9A4.9,4.9,0,0,0,7.272,2.389,3.826,3.826,0,0,0,2.216,5.853,3.86,3.86,0,0,0,0,9.3a3.917,3.917,0,0,0,.109.749h0a3.823,3.823,0,0,0,3.74,3.079H14.744A3.811,3.811,0,0,0,16.3,5.817Z" fill="#27ad74"/>
    </g>
    <g id="Path-3" data-name="Path" transform="translate(14.219 50.313)" fill="none" stroke-miterlimit="10">
      <path d="M24.482,0H2.226a2.226,2.226,0,0,0,0,4.451H24.482a2.226,2.226,0,0,0,0-4.451Z" stroke="none"/>
      <path d="M 2.225671768188477 1.499998569488525 C 1.825531005859375 1.499998569488525 1.500001907348633 1.825528621673584 1.500001907348633 2.225668668746948 C 1.500001907348633 2.625808715820312 1.825531005859375 2.951338768005371 2.225671768188477 2.951338768005371 L 24.48235130310059 2.951338768005371 C 24.88249206542969 2.951338768005371 25.20802116394043 2.625808715820312 25.20802116394043 2.225668668746948 C 25.20802116394043 1.825528621673584 24.88249206542969 1.499998569488525 24.48235130310059 1.499998569488525 L 2.225671768188477 1.499998569488525 M 2.225671768188477 -1.430511474609375e-06 L 24.48235130310059 -1.430511474609375e-06 C 25.71156120300293 -1.430511474609375e-06 26.70802116394043 0.9964687824249268 26.70802116394043 2.225668668746948 C 26.70802116394043 3.454868793487549 25.71156120300293 4.451338768005371 24.48235130310059 4.451338768005371 L 2.225671768188477 4.451338768005371 C 0.9964618682861328 4.451338768005371 1.9073486328125e-06 3.454868793487549 1.9073486328125e-06 2.225668668746948 C 1.9073486328125e-06 0.9964687824249268 0.9964618682861328 -1.430511474609375e-06 2.225671768188477 -1.430511474609375e-06 Z" stroke="none" fill="#19274a"/>
    </g>
  </g>
</svg>
