<svg id="Layer_1" data-name="Layer 1" xmlns="http://www.w3.org/2000/svg" viewBox="0 0 32 32"><path d="M16.93,2.77V4.33H5.8A2.47,2.47,0,0,0,3.08,7.07v19a2.49,2.49,0,0,0,2.74,2.73h19a2.51,2.51,0,0,0,2.72-2.76V15h1.61v.78c0,3.43,0,6.86,0,10.29a4.12,4.12,0,0,1-4.41,4.38q-9.44,0-18.88,0A4.12,4.12,0,0,1,1.46,26q0-9.48,0-18.95A4.07,4.07,0,0,1,5.8,2.72c3.46,0,6.92,0,10.38,0C16.41,2.72,16.65,2.75,16.93,2.77Z"/><path d="M30.55,5A9,9,0,0,1,29.4,7c-3.56,3.65-7.18,7.23-10.79,10.82a2.24,2.24,0,0,1-.91.49c-1.29.34-2.58.65-3.88,1-1.08.26-1.51-.15-1.25-1.25.31-1.32.63-2.65,1-4a2.12,2.12,0,0,1,.52-.89Q19.4,7.83,24.77,2.51a3.26,3.26,0,0,1,3.7-.66A3.78,3.78,0,0,1,30.55,5Zm-4,2.75L24.19,5.4l-.63.6c-2.54,2.53-5,5.12-7.63,7.59-1.16,1.09-1.06,2.49-1.54,3.84,1.79-.3,3.4-.6,4.49-2.09a14,14,0,0,1,1.48-1.51C22.4,11.8,24.45,9.77,26.52,7.7ZM25.47,4.16l2.25,2.27c.66-.5,1.27-1.14.94-2a2.25,2.25,0,0,0-1.2-1.17C26.58,2.92,25.93,3.49,25.47,4.16Z"/></svg>