<svg id="Layer_1" data-name="Layer 1" xmlns="http://www.w3.org/2000/svg" viewBox="0 0 32 32"><path d="M16,25A17.28,17.28,0,0,1,1.06,16.19a.48.48,0,0,1,0-.42,17.18,17.18,0,0,1,29.71-.45,1.07,1.07,0,0,1,0,1.32,17.23,17.23,0,0,1-12.46,8.18C17.56,24.94,16.78,25,16,25ZM9.29,16A6.74,6.74,0,1,0,16,9.24,6.76,6.76,0,0,0,9.29,16ZM11,22.72l.06-.13A8.07,8.07,0,0,1,7.79,16,8.16,8.16,0,0,1,11.1,9.34a.54.54,0,0,0-.22,0,15.51,15.51,0,0,0-8.09,6.37.37.37,0,0,0,0,.49A15.43,15.43,0,0,0,8.2,21.35C9.11,21.86,10.09,22.27,11,22.72Zm9.88-.08.17,0a15.8,15.8,0,0,0,8.19-6.42.38.38,0,0,0,0-.49,15.58,15.58,0,0,0-5.93-5.41c-.75-.39-1.54-.69-2.31-1l0,.09A8.3,8.3,0,0,1,20.92,22.64Z"/><path d="M16,11.49A4.49,4.49,0,1,1,11.54,16,4.48,4.48,0,0,1,16,11.49ZM13.42,16h.72A1.93,1.93,0,0,1,16,14.08v-.71A2.58,2.58,0,0,0,13.42,16Z"/></svg>