<svg width="378" height="282" viewBox="0 0 378 282" fill="none" xmlns="http://www.w3.org/2000/svg">
<g opacity="0.6">
<path d="M378 247.822H0V248.011H378V247.822Z" fill="#EBEBEB"/>
<path d="M64.6985 255.027H39.6598V255.216H64.6985V255.027Z" fill="#EBEBEB"/>
<path d="M171.279 252.976H129.382V253.165H171.279V252.976Z" fill="#EBEBEB"/>
<path d="M83.3036 259.522H68.796V259.712H83.3036V259.522Z" fill="#EBEBEB"/>
<path d="M324.059 254.928H291.408V255.118H324.059V254.928Z" fill="#EBEBEB"/>
<path d="M335.581 254.928H330.795V255.118H335.581V254.928Z" fill="#EBEBEB"/>
<path d="M244.982 257.585H209.571V257.774H244.982V257.585Z" fill="#EBEBEB"/>
<path d="M179.18 214.068H33.196C30.8146 214.068 28.8792 212.13 28.8792 209.746V4.32146C28.8792 1.93747 30.8146 0 33.196 0H179.18C181.561 0 183.496 1.93747 183.496 4.32146V209.746C183.496 212.13 181.561 214.068 179.18 214.068ZM33.196 0.189206C30.9204 0.189206 29.0682 2.04342 29.0682 4.32146V209.746C29.0682 212.024 30.9204 213.878 33.196 213.878H179.18C181.455 213.878 183.307 212.024 183.307 209.746V4.32146C183.307 2.04342 181.455 0.189206 179.18 0.189206H33.196Z" fill="#EBEBEB"/>
<path d="M342.702 214.068H196.719C194.337 214.068 192.402 212.13 192.402 209.746V4.32146C192.402 1.93747 194.337 0 196.719 0H342.702C345.084 0 347.019 1.93747 347.019 4.32146V209.746C347.019 212.13 345.084 214.068 342.702 214.068ZM196.719 0.189206C194.443 0.189206 192.591 2.04342 192.591 4.32146V209.746C192.591 212.024 194.443 213.878 196.719 213.878H342.702C344.978 213.878 346.83 212.024 346.83 209.746V4.32146C346.83 2.04342 344.978 0.189206 342.702 0.189206H196.719Z" fill="#EBEBEB"/>
<path d="M225.167 14.7126H79.2137V119.601H225.167V14.7126Z" fill="#FAFAFA"/>
<path d="M216.859 119.601L179.739 14.7126H151.88L189 119.601H216.859Z" fill="white"/>
<path d="M141.947 119.601L104.827 14.7126H94.6663L131.786 119.601H141.947Z" fill="white"/>
<path d="M72.2585 11.1102H232.13C232.485 11.1102 232.78 11.4053 232.78 11.761C232.78 12.1167 232.485 12.4119 232.13 12.4119H72.2585C71.9032 12.4119 71.6083 12.1167 71.6083 11.761C71.6083 11.4053 71.9032 11.1102 72.2585 11.1102Z" fill="#E0E0E0"/>
<path d="M153.06 14.4856H151.329V119.828H153.06V14.4856Z" fill="#F0F0F0"/>
<path d="M151.321 14.4856H150.459V119.828H151.321V14.4856Z" fill="#E0E0E0"/>
<path d="M78.2006 66.2902V68.0233L226.173 68.0233V66.2902L78.2006 66.2902Z" fill="#F0F0F0"/>
<path d="M78.2082 118.882V13.7061H226.18V118.882V120.615H78.2082V118.882ZM224.449 118.882V15.4316H79.9394V118.882H224.449Z" fill="#F0F0F0"/>
<path d="M78.2006 13.7061H77.3388V120.615H78.2006V13.7061Z" fill="#E0E0E0"/>
<path opacity="0.5" d="M99.6635 9.52084V132.701H68.4256L74.156 9.52084H99.6635Z" fill="#EBEBEB"/>
<path opacity="0.5" d="M203.855 9.52084V132.701H235.093L229.363 9.52084H203.855Z" fill="#EBEBEB"/>
<path d="M58.7261 147.459H46.8115V244.204H58.7261V147.459Z" fill="#F0F0F0"/>
<path d="M180.366 244.204H49.1022V247.822H180.366V244.204Z" fill="#F0F0F0"/>
<path d="M58.7336 244.197L182.657 244.197V147.452H58.7336L58.7336 244.197Z" fill="#F5F5F5"/>
<path d="M57.4938 144.304H45.3146V147.46H57.4938V144.304Z" fill="#F0F0F0"/>
<path d="M57.4862 147.452L184.146 147.452V144.296L57.4862 144.296V147.452Z" fill="#FAFAFA"/>
<path d="M178.371 201.898H63.0126V154.082H178.371V201.898ZM63.814 201.096H177.569V154.884H63.814V201.096Z" fill="#E0E0E0"/>
<path d="M178.371 237.574H63.0126V206.689H178.371V237.574ZM63.814 236.772H177.569V207.491H63.814V236.772Z" fill="#E0E0E0"/>
<path d="M161.769 154.483H79.6144C79.0298 154.483 78.556 154.957 78.556 155.542V155.989C78.556 156.574 79.0298 157.048 79.6144 157.048H161.769C162.353 157.048 162.827 156.574 162.827 155.989V155.542C162.827 154.957 162.353 154.483 161.769 154.483Z" fill="#E0E0E0"/>
<path d="M161.769 207.09H79.6144C79.0298 207.09 78.556 207.564 78.556 208.149V208.596C78.556 209.181 79.0298 209.655 79.6144 209.655H161.769C162.353 209.655 162.827 209.181 162.827 208.596V208.149C162.827 207.564 162.353 207.09 161.769 207.09Z" fill="#E0E0E0"/>
<path d="M262.982 243.175H332.292V31.4763H262.982V243.175Z" fill="#F0F0F0"/>
<path d="M262.982 31.4839H260.782V243.183H262.982V31.4839Z" fill="#E0E0E0"/>
<path d="M274.231 235.1H321.051V39.5516H274.231V235.1Z" fill="#FAFAFA"/>
<path d="M338.967 120.406L338.703 124.051L339.457 124.106L339.721 120.46L338.967 120.406Z" fill="#407BFF"/>
<path d="M339.955 106.6L339.191 117.175L339.945 117.23L340.709 106.654L339.955 106.6Z" fill="#407BFF"/>
<path d="M319.274 225.541H134.099C128.444 225.541 124.143 220.909 124.551 215.241L134.349 78.4069C134.757 72.7459 139.716 68.1065 145.371 68.1065H330.546C336.201 68.1065 340.502 72.7383 340.094 78.4069L330.296 215.241C329.888 220.902 324.929 225.541 319.274 225.541Z" fill="#407BFF"/>
<path d="M276.205 273.433H216.095L205.383 199.075H265.492L276.205 273.433Z" fill="#407BFF"/>
<path d="M266.656 268.998H201.64L200.348 273.433H265.371L266.656 268.998Z" fill="#407BFF"/>
<path d="M268.66 234.873L210.077 231.664L205.383 199.075H263.504L268.66 234.873Z" fill="#263238"/>
<path d="M317.187 225.541H132.013C126.358 225.541 122.056 220.909 122.464 215.241L132.262 78.4069C132.67 72.7459 137.63 68.1065 143.285 68.1065H328.459C334.114 68.1065 338.416 72.7383 338.008 78.4069L328.21 215.241C327.802 220.902 322.842 225.541 317.187 225.541Z" fill="#263238"/>
<path d="M337.522 79.7284L331.901 158.221L332.625 158.273L338.246 79.7803L337.522 79.7284Z" fill="white"/>
<path d="M331.447 165.056L329.501 192.24L330.225 192.292L332.171 165.108L331.447 165.056Z" fill="white"/>
<path d="M316.794 222.975H132.769C128.361 222.975 125.02 219.365 125.337 214.961L135.097 78.6869C135.415 74.2746 139.278 70.6722 143.678 70.6722H327.703C332.111 70.6722 335.452 74.2822 335.135 78.6869L325.375 214.961C325.057 219.373 321.194 222.975 316.794 222.975Z" fill="white"/>
<path opacity="0.2" d="M316.794 222.975H132.769C128.361 222.975 125.02 219.365 125.337 214.961L135.097 78.6869C135.415 74.2746 139.278 70.6722 143.678 70.6722H327.703C332.111 70.6722 335.452 74.2822 335.135 78.6869L325.375 214.961C325.057 219.373 321.194 222.975 316.794 222.975Z" fill="#407BFF"/>
<path opacity="0.5" d="M179.973 216.936H136.995C134.87 216.936 133.253 215.195 133.404 213.061L142.892 80.579C143.043 78.4523 144.91 76.7041 147.034 76.7041H190.013C192.137 76.7041 193.755 78.4448 193.604 80.579L184.116 213.061C183.965 215.188 182.098 216.936 179.973 216.936Z" fill="white"/>
<path opacity="0.4" d="M178.31 95.39H156.069C154.148 95.39 152.697 93.8234 152.833 91.9011L153.075 88.4878C153.211 86.5655 154.889 84.9988 156.81 84.9988H179.051C180.971 84.9988 182.423 86.5655 182.287 88.4878L182.045 91.9011C181.909 93.8234 180.23 95.39 178.31 95.39Z" fill="#407BFF"/>
<path d="M164.165 148.981H130.206C126.864 148.981 124.324 146.241 124.559 142.896L126.993 108.899C127.235 105.554 130.168 102.814 133.51 102.814H167.469C170.811 102.814 173.351 105.554 173.116 108.899L170.682 142.896C170.44 146.241 167.507 148.981 164.165 148.981Z" fill="#407BFF"/>
<path d="M169.034 121.107C167.756 121.107 166.645 122.151 166.554 123.423L166.199 128.357C166.108 129.636 167.076 130.673 168.354 130.673H171.801C172.119 130.673 172.391 130.416 172.413 130.098L173.018 121.675C173.041 121.357 172.799 121.099 172.481 121.099H169.034V121.107Z" fill="white"/>
<path d="M155.933 111.457H134.53C134.016 111.457 133.631 111.041 133.668 110.526C133.706 110.012 134.152 109.596 134.666 109.596H156.069C156.583 109.596 156.968 110.012 156.93 110.526C156.893 111.041 156.447 111.457 155.933 111.457Z" fill="white"/>
<path d="M155.6 116.195H134.198C133.683 116.195 133.298 115.779 133.336 115.264C133.374 114.75 133.82 114.333 134.334 114.333H155.736C156.25 114.333 156.636 114.75 156.598 115.264C156.56 115.779 156.114 116.195 155.6 116.195Z" fill="white"/>
<path d="M147.858 120.925H133.85C133.336 120.925 132.95 120.509 132.988 119.994C133.026 119.48 133.472 119.063 133.986 119.063H147.995C148.509 119.063 148.894 119.48 148.856 119.994C148.819 120.509 148.373 120.925 147.858 120.925Z" fill="white"/>
<path opacity="0.5" d="M155.993 143.486H135.286C133.101 143.486 131.438 141.692 131.597 139.505L132.376 128.615C132.534 126.427 134.447 124.634 136.632 124.634H157.339C159.524 124.634 161.187 126.427 161.028 128.615L160.249 139.505C160.091 141.692 158.178 143.486 155.993 143.486Z" fill="white"/>
<path opacity="0.4" d="M175.324 161.71H149.559C148.614 161.71 147.889 160.931 147.957 159.985C148.025 159.039 148.856 158.259 149.801 158.259H175.566C176.511 158.259 177.237 159.039 177.169 159.985C177.101 160.931 176.269 161.71 175.324 161.71Z" fill="#407BFF"/>
<path opacity="0.8" d="M170.13 168.476H153.778C152.833 168.476 152.107 167.697 152.175 166.751C152.243 165.805 153.075 165.025 154.02 165.025H170.372C171.317 165.025 172.043 165.805 171.975 166.751C171.907 167.697 171.075 168.476 170.13 168.476Z" fill="white"/>
<path opacity="0.4" d="M173.986 180.396H148.221C147.276 180.396 146.551 179.617 146.619 178.671C146.687 177.725 147.518 176.945 148.463 176.945H174.228C175.173 176.945 175.899 177.725 175.83 178.671C175.762 179.617 174.931 180.396 173.986 180.396Z" fill="#407BFF"/>
<path opacity="0.8" d="M168.792 187.162H152.44C151.495 187.162 150.769 186.383 150.837 185.437C150.905 184.491 151.737 183.711 152.682 183.711H169.034C169.979 183.711 170.705 184.491 170.637 185.437C170.569 186.383 169.737 187.162 168.792 187.162Z" fill="white"/>
<path opacity="0.4" d="M172.648 199.075H146.883C145.938 199.075 145.212 198.295 145.281 197.349C145.349 196.403 146.18 195.624 147.125 195.624H172.89C173.835 195.624 174.56 196.403 174.492 197.349C174.424 198.295 173.593 199.075 172.648 199.075Z" fill="#407BFF"/>
<path opacity="0.8" d="M167.454 205.848H151.102C150.157 205.848 149.431 205.069 149.499 204.123C149.567 203.177 150.399 202.397 151.344 202.397H167.696C168.641 202.397 169.367 203.177 169.299 204.123C169.231 205.069 168.399 205.848 167.454 205.848Z" fill="white"/>
<path opacity="0.5" d="M318.79 178.088C319.909 176.385 322.464 177.104 322.328 179.08L319.848 213.704C319.72 215.49 318.374 216.936 316.847 216.936H192.228C190.701 216.936 189.559 215.483 189.688 213.704L191.162 193.134C191.359 190.356 194.179 188.358 196.772 189.168C203.795 191.363 209.813 190.076 215.407 187.299C227.367 181.35 237.376 168.598 251.128 168.598C251.657 168.598 252.171 168.613 252.678 168.643C273.135 169.877 279.365 195.313 295.218 195.313C299.905 195.313 304.177 193.293 307.904 190.402C312.462 186.867 316.189 182.054 318.783 178.088H318.79Z" fill="#407BFF"/>
<path opacity="0.5" d="M321.376 192.354L319.848 213.704C319.72 215.49 318.374 216.936 316.847 216.936H192.228C190.701 216.936 189.559 215.483 189.688 213.704L192.727 171.277C192.939 168.371 196.741 167.152 198.276 169.498C202.253 175.568 208.369 183.416 215.407 187.291C218.106 188.774 220.926 189.675 223.821 189.675C233.891 189.675 242.457 177.717 252.678 168.635C258.953 163.065 265.84 158.57 274.088 158.57C291.302 158.57 293.842 186.572 307.896 190.402C310.603 191.143 313.74 190.984 317.49 189.546C319.501 188.782 321.512 190.25 321.36 192.354H321.376Z" fill="#407BFF"/>
<g opacity="0.8">
<path d="M321.988 184.082C321.92 184.082 321.859 184.052 321.807 184.006C321.784 183.984 321.761 183.954 321.754 183.923C321.738 183.893 321.731 183.855 321.731 183.825C321.731 183.749 321.761 183.689 321.807 183.643C321.897 183.545 322.071 183.537 322.169 183.643C322.222 183.689 322.245 183.757 322.245 183.825C322.245 183.855 322.245 183.893 322.23 183.923C322.215 183.954 322.192 183.984 322.169 184.006C322.124 184.052 322.056 184.082 321.988 184.082Z" fill="white"/>
<path d="M200.824 201.815C200.68 201.815 200.567 201.701 200.567 201.557C200.567 201.421 200.68 201.307 200.824 201.307C200.967 201.307 201.081 201.421 201.081 201.557C201.081 201.701 200.967 201.822 200.824 201.822V201.815ZM198.231 201.663C198.087 201.663 197.981 201.527 197.996 201.383C198.012 201.239 198.14 201.141 198.284 201.156C198.427 201.171 198.526 201.3 198.51 201.436C198.495 201.572 198.382 201.671 198.253 201.671C198.253 201.671 198.238 201.671 198.223 201.671L198.231 201.663ZM203.122 201.436C203.107 201.292 203.205 201.164 203.349 201.149C203.493 201.133 203.621 201.232 203.636 201.376C203.651 201.519 203.553 201.648 203.409 201.663H203.379C203.251 201.663 203.137 201.565 203.122 201.436ZM195.675 201.27C195.539 201.239 195.449 201.103 195.471 200.959C195.502 200.823 195.638 200.732 195.781 200.755C195.917 200.785 196.008 200.922 195.985 201.065C195.955 201.186 195.849 201.27 195.728 201.27H195.675ZM205.647 201.012C205.609 200.869 205.692 200.732 205.836 200.694C205.972 200.664 206.108 200.747 206.146 200.884C206.184 201.02 206.093 201.164 205.957 201.202H205.897C205.776 201.202 205.67 201.126 205.647 201.012ZM288.331 201.118C288.187 201.118 288.074 201.005 288.074 200.861C288.074 200.717 288.195 200.604 288.331 200.604C288.474 200.604 288.588 200.717 288.588 200.861C288.588 201.005 288.474 201.118 288.331 201.118ZM290.637 200.755C290.622 200.611 290.727 200.483 290.863 200.475C291.007 200.452 291.136 200.558 291.151 200.702C291.166 200.846 291.06 200.974 290.916 200.99H290.894C290.765 200.99 290.652 200.891 290.637 200.755ZM285.745 200.959C285.609 200.944 285.503 200.816 285.526 200.672C285.541 200.528 285.67 200.43 285.813 200.445C285.957 200.467 286.055 200.596 286.04 200.732C286.017 200.869 285.912 200.967 285.783 200.967C285.783 200.967 285.76 200.967 285.745 200.967V200.959ZM193.166 200.649C193.029 200.611 192.946 200.467 192.984 200.331C193.029 200.195 193.166 200.112 193.309 200.15C193.445 200.195 193.521 200.331 193.483 200.475C193.453 200.589 193.347 200.657 193.234 200.657C193.234 200.657 193.188 200.657 193.166 200.657V200.649ZM293.177 200.399C293.147 200.255 293.237 200.119 293.381 200.097C293.517 200.066 293.653 200.157 293.683 200.301C293.714 200.437 293.623 200.573 293.479 200.604C293.479 200.604 293.449 200.604 293.434 200.604C293.313 200.604 293.199 200.513 293.177 200.392V200.399ZM283.205 200.49C283.062 200.46 282.978 200.324 283.016 200.18C283.046 200.044 283.182 199.96 283.326 199.991C283.462 200.021 283.545 200.165 283.515 200.301C283.485 200.422 283.379 200.498 283.266 200.498C283.266 200.498 283.22 200.498 283.205 200.498V200.49ZM208.097 200.278C208.044 200.142 208.112 199.991 208.248 199.945C208.376 199.892 208.527 199.96 208.58 200.089C208.626 200.225 208.565 200.377 208.429 200.422C208.429 200.422 208.369 200.445 208.338 200.445C208.233 200.445 208.134 200.377 208.097 200.278ZM295.679 199.832C295.641 199.688 295.717 199.544 295.861 199.506C295.997 199.468 296.14 199.552 296.178 199.688C296.216 199.824 296.133 199.968 295.997 200.006C295.997 200.006 295.951 200.021 295.929 200.021C295.815 200.021 295.709 199.945 295.679 199.832ZM280.725 199.741C280.589 199.695 280.521 199.544 280.567 199.415C280.62 199.279 280.763 199.211 280.899 199.256C281.035 199.309 281.103 199.453 281.058 199.589C281.02 199.695 280.914 199.756 280.809 199.756C280.809 199.756 280.748 199.756 280.725 199.741ZM210.448 199.256C210.38 199.135 210.433 198.976 210.561 198.908C210.69 198.848 210.841 198.908 210.909 199.029C210.969 199.151 210.924 199.309 210.795 199.37C210.795 199.37 210.72 199.4 210.675 199.4C210.584 199.4 210.493 199.347 210.448 199.256ZM298.136 199.075C298.083 198.939 298.159 198.795 298.287 198.749C298.416 198.696 298.567 198.772 298.612 198.901C298.658 199.037 298.59 199.188 298.454 199.234C298.454 199.234 298.401 199.249 298.371 199.249C298.265 199.249 298.166 199.181 298.129 199.075H298.136ZM278.337 198.757C278.208 198.704 278.148 198.545 278.208 198.416C278.268 198.288 278.42 198.235 278.548 198.288C278.684 198.348 278.737 198.5 278.677 198.636C278.631 198.727 278.541 198.787 278.442 198.787C278.442 198.787 278.367 198.78 278.337 198.757ZM300.533 198.167C300.48 198.038 300.533 197.887 300.676 197.834C300.805 197.773 300.956 197.834 301.009 197.97C301.069 198.099 301.009 198.25 300.873 198.31C300.873 198.31 300.805 198.326 300.775 198.326C300.669 198.326 300.578 198.265 300.533 198.167ZM212.685 198.015C212.61 197.894 212.648 197.728 212.769 197.652C212.89 197.576 213.048 197.614 213.124 197.735C213.2 197.856 213.162 198.015 213.041 198.091C213.041 198.091 212.95 198.136 212.905 198.136C212.822 198.136 212.738 198.091 212.685 198.015ZM276.031 197.599C275.902 197.531 275.857 197.372 275.925 197.243C275.993 197.122 276.152 197.077 276.28 197.145C276.401 197.213 276.447 197.364 276.378 197.493C276.333 197.576 276.242 197.629 276.152 197.629C276.114 197.629 276.069 197.614 276.031 197.599ZM302.884 197.13C302.823 197.001 302.884 196.85 303.005 196.789C303.133 196.729 303.292 196.789 303.353 196.91C303.413 197.039 303.353 197.19 303.224 197.251C303.224 197.251 303.148 197.281 303.111 197.281C303.012 197.281 302.922 197.228 302.876 197.13H302.884ZM214.817 196.592C214.734 196.471 214.764 196.312 214.878 196.229C214.991 196.146 215.158 196.169 215.241 196.282C215.324 196.396 215.294 196.562 215.18 196.645C215.135 196.676 215.082 196.698 215.029 196.698C214.946 196.698 214.87 196.661 214.817 196.592ZM273.801 196.305C273.68 196.229 273.642 196.07 273.717 195.949C273.785 195.821 273.944 195.783 274.065 195.858C274.194 195.934 274.231 196.093 274.156 196.214C274.103 196.297 274.02 196.343 273.937 196.343C273.891 196.343 273.838 196.328 273.801 196.305ZM305.182 195.979C305.114 195.858 305.159 195.699 305.288 195.631C305.409 195.563 305.568 195.616 305.636 195.737C305.704 195.866 305.658 196.017 305.53 196.093C305.53 196.093 305.447 196.123 305.409 196.123C305.318 196.123 305.227 196.07 305.182 195.979ZM216.874 195.041C216.783 194.927 216.798 194.769 216.912 194.678C217.025 194.587 217.184 194.61 217.274 194.716C217.365 194.829 217.342 194.996 217.237 195.086C217.184 195.124 217.131 195.139 217.07 195.139C216.995 195.139 216.919 195.109 216.874 195.041ZM271.623 194.927C271.502 194.844 271.472 194.685 271.548 194.564C271.631 194.443 271.79 194.413 271.911 194.489C272.024 194.564 272.062 194.731 271.986 194.844C271.933 194.927 271.85 194.965 271.767 194.965C271.714 194.965 271.669 194.95 271.623 194.927ZM307.427 194.738C307.352 194.61 307.397 194.458 307.518 194.383C307.639 194.314 307.798 194.352 307.873 194.473C307.941 194.594 307.904 194.753 307.783 194.829C307.737 194.852 307.692 194.867 307.647 194.867C307.563 194.867 307.473 194.821 307.427 194.738ZM269.484 193.497C269.37 193.414 269.333 193.255 269.416 193.134C269.499 193.02 269.658 192.99 269.779 193.066C269.892 193.149 269.922 193.308 269.847 193.429C269.794 193.505 269.711 193.542 269.627 193.542C269.582 193.542 269.529 193.527 269.484 193.497ZM309.62 193.406C309.544 193.285 309.582 193.126 309.703 193.043C309.824 192.967 309.983 193.005 310.058 193.126C310.134 193.247 310.096 193.406 309.975 193.482C309.975 193.482 309.892 193.527 309.839 193.527C309.756 193.527 309.673 193.482 309.62 193.406ZM218.862 193.421C218.771 193.315 218.786 193.149 218.892 193.058C219.006 192.967 219.172 192.982 219.263 193.088C219.353 193.202 219.338 193.361 219.225 193.452C219.18 193.497 219.119 193.512 219.059 193.512C218.991 193.512 218.915 193.482 218.862 193.421ZM311.774 191.999C311.691 191.877 311.721 191.719 311.835 191.635C311.956 191.552 312.115 191.582 312.198 191.703C312.273 191.817 312.251 191.983 312.13 192.059C312.084 192.089 312.031 192.105 311.986 192.105C311.903 192.105 311.82 192.067 311.774 191.999ZM267.359 192.059C267.238 191.976 267.208 191.817 267.291 191.703C267.367 191.582 267.526 191.552 267.647 191.628C267.768 191.711 267.798 191.87 267.715 191.991C267.669 192.067 267.586 192.105 267.503 192.105C267.458 192.105 267.405 192.089 267.359 192.059ZM220.835 191.771C220.737 191.666 220.752 191.499 220.865 191.408C220.971 191.317 221.138 191.333 221.228 191.438C221.319 191.552 221.304 191.711 221.198 191.802C221.145 191.847 221.092 191.862 221.032 191.862C220.956 191.862 220.881 191.832 220.835 191.771ZM265.227 190.636C265.107 190.553 265.069 190.394 265.152 190.281C265.227 190.159 265.394 190.122 265.507 190.205C265.628 190.281 265.658 190.439 265.583 190.561C265.537 190.636 265.454 190.674 265.371 190.674C265.318 190.674 265.273 190.674 265.227 190.636ZM313.876 190.515C313.785 190.402 313.816 190.243 313.929 190.159C314.042 190.076 314.209 190.099 314.292 190.212C314.375 190.326 314.345 190.492 314.231 190.576C314.186 190.606 314.133 190.621 314.08 190.621C314.005 190.621 313.921 190.591 313.876 190.515ZM222.808 190.129C222.718 190.023 222.733 189.857 222.846 189.766C222.96 189.675 223.118 189.698 223.209 189.804C223.3 189.917 223.285 190.084 223.171 190.167C223.126 190.212 223.065 190.228 223.005 190.228C222.937 190.228 222.861 190.197 222.808 190.129ZM263.073 189.251C262.952 189.176 262.914 189.017 262.99 188.896C263.065 188.774 263.224 188.737 263.345 188.812C263.466 188.888 263.504 189.047 263.428 189.168C263.375 189.251 263.292 189.297 263.209 189.297C263.164 189.297 263.111 189.282 263.073 189.251ZM315.932 188.979C315.842 188.865 315.864 188.699 315.978 188.616C316.091 188.525 316.25 188.547 316.341 188.661C316.424 188.774 316.401 188.933 316.295 189.024C316.25 189.062 316.197 189.077 316.144 189.077C316.061 189.077 315.985 189.039 315.94 188.979H315.932ZM224.819 188.54C224.736 188.426 224.759 188.26 224.872 188.177C224.986 188.093 225.144 188.116 225.235 188.23C225.318 188.343 225.296 188.502 225.182 188.593C225.137 188.623 225.084 188.646 225.031 188.646C224.948 188.646 224.872 188.608 224.819 188.54ZM260.873 187.942C260.752 187.874 260.707 187.715 260.782 187.586C260.85 187.465 261.009 187.42 261.13 187.495C261.258 187.564 261.304 187.722 261.228 187.844C261.183 187.927 261.092 187.98 261.001 187.98C260.964 187.98 260.918 187.965 260.873 187.942ZM317.936 187.374C317.845 187.268 317.86 187.102 317.974 187.011C318.087 186.92 318.246 186.935 318.336 187.049C318.427 187.155 318.412 187.321 318.306 187.412C318.253 187.45 318.193 187.473 318.14 187.473C318.064 187.473 317.989 187.442 317.936 187.374ZM226.906 187.041C226.823 186.92 226.853 186.761 226.974 186.678C227.095 186.602 227.254 186.633 227.337 186.754C227.412 186.867 227.382 187.034 227.261 187.109C227.216 187.14 227.17 187.155 227.118 187.155C227.034 187.155 226.951 187.109 226.906 187.041ZM258.628 186.723C258.507 186.663 258.454 186.504 258.522 186.375C258.582 186.247 258.741 186.201 258.87 186.262C258.99 186.33 259.043 186.489 258.983 186.618C258.938 186.701 258.839 186.754 258.749 186.754C258.749 186.754 258.665 186.754 258.628 186.723ZM319.901 185.717C319.811 185.611 319.818 185.444 319.924 185.354C320.03 185.263 320.189 185.27 320.287 185.376C320.378 185.482 320.363 185.649 320.257 185.74C320.211 185.785 320.151 185.808 320.09 185.808C320.015 185.808 319.947 185.777 319.894 185.717H319.901ZM229.076 185.672C229 185.55 229.045 185.391 229.174 185.316C229.295 185.248 229.454 185.293 229.522 185.414C229.59 185.543 229.552 185.694 229.423 185.77C229.378 185.793 229.333 185.8 229.295 185.8C229.204 185.8 229.113 185.755 229.068 185.672H229.076ZM256.329 185.626C256.201 185.566 256.14 185.414 256.201 185.286C256.254 185.157 256.413 185.096 256.541 185.157C256.67 185.21 256.73 185.361 256.67 185.497C256.632 185.588 256.533 185.649 256.435 185.649C256.397 185.649 256.367 185.649 256.329 185.626ZM253.971 184.665C253.835 184.62 253.767 184.468 253.819 184.332C253.865 184.203 254.016 184.135 254.152 184.181C254.281 184.234 254.349 184.377 254.303 184.514C254.265 184.62 254.167 184.68 254.061 184.68C254.061 184.68 254.001 184.68 253.971 184.665ZM231.344 184.483C231.291 184.355 231.344 184.196 231.472 184.143C231.601 184.082 231.759 184.143 231.82 184.271C231.873 184.4 231.82 184.551 231.684 184.612C231.684 184.612 231.616 184.635 231.578 184.635C231.48 184.635 231.389 184.582 231.344 184.483ZM251.551 183.87C251.415 183.825 251.34 183.689 251.378 183.545C251.415 183.409 251.567 183.333 251.703 183.371C251.839 183.409 251.914 183.552 251.877 183.696C251.839 183.802 251.74 183.878 251.627 183.878C251.627 183.878 251.582 183.878 251.551 183.878V183.87ZM233.717 183.515C233.672 183.378 233.748 183.235 233.884 183.189C234.02 183.144 234.163 183.219 234.209 183.356C234.254 183.492 234.179 183.636 234.042 183.681C234.042 183.681 233.99 183.696 233.959 183.696C233.853 183.696 233.755 183.628 233.717 183.515ZM249.087 183.242C248.951 183.212 248.86 183.076 248.89 182.939C248.921 182.796 249.057 182.705 249.2 182.743C249.336 182.765 249.427 182.902 249.397 183.045C249.374 183.166 249.261 183.25 249.14 183.25C249.14 183.25 249.11 183.25 249.087 183.25V183.242ZM236.174 182.811C236.144 182.667 236.235 182.531 236.379 182.5C236.515 182.47 236.651 182.561 236.681 182.697C236.711 182.841 236.628 182.977 236.484 183.007C236.484 183.007 236.447 183.007 236.431 183.007C236.31 183.007 236.205 182.924 236.174 182.803V182.811ZM246.585 182.811C246.448 182.788 246.343 182.659 246.365 182.516C246.38 182.372 246.516 182.273 246.653 182.296C246.789 182.311 246.887 182.447 246.872 182.591C246.849 182.712 246.743 182.811 246.615 182.811H246.577H246.585ZM238.699 182.379C238.684 182.236 238.79 182.114 238.926 182.099C239.07 182.077 239.198 182.183 239.214 182.326C239.229 182.47 239.123 182.591 238.979 182.614H238.956C238.828 182.614 238.715 182.516 238.699 182.379ZM244.052 182.546H244.059C243.916 182.546 243.802 182.417 243.818 182.273C243.818 182.13 243.946 182.024 244.09 182.031C244.233 182.031 244.339 182.167 244.332 182.311C244.332 182.447 244.211 182.553 244.075 182.553C244.075 182.553 244.059 182.546 244.052 182.546ZM241.255 182.213C241.247 182.069 241.368 181.955 241.512 181.955C241.648 181.948 241.769 182.069 241.769 182.213C241.769 182.357 241.655 182.47 241.512 182.47C241.368 182.47 241.255 182.357 241.255 182.213Z" fill="white"/>
<path d="M190.701 199.847C190.701 199.847 190.633 199.847 190.603 199.824C190.572 199.809 190.542 199.794 190.52 199.764C190.497 199.741 190.474 199.718 190.467 199.68C190.452 199.65 190.444 199.62 190.444 199.582C190.444 199.514 190.474 199.453 190.52 199.4C190.542 199.378 190.572 199.355 190.603 199.347C190.663 199.317 190.739 199.317 190.799 199.347C190.837 199.347 190.86 199.378 190.882 199.4C190.935 199.453 190.958 199.514 190.958 199.582C190.958 199.62 190.958 199.65 190.943 199.68C190.928 199.718 190.913 199.741 190.882 199.764C190.86 199.794 190.83 199.809 190.799 199.824C190.769 199.839 190.739 199.847 190.701 199.847Z" fill="white"/>
</g>
<path d="M232.152 122.34L230.383 120.433C227.254 123.362 223.08 125.171 218.62 125.171C211.143 125.171 205.216 120.085 203.871 113.183L201.225 113.879L198.805 114.515C199.516 118.133 201.179 121.432 203.636 124.081C211.31 132.353 224.91 132.353 233.77 124.081L232.16 122.34H232.152Z" fill="white"/>
<path d="M235.925 93.9142L233.612 96.0712L232.016 97.5621C234.73 100.483 236.258 104.532 235.932 108.998C235.615 113.463 233.513 117.512 230.383 120.441L231.767 121.932L233.763 124.081C238.042 120.078 240.68 114.659 241.081 108.998C241.489 103.344 239.629 97.9178 235.917 93.9142H235.925Z" fill="#263238"/>
<path d="M235.925 93.9142C228.252 85.6421 214.651 85.6421 205.791 93.9142C200.038 99.2952 197.361 107.166 198.798 114.515L201.792 113.728L203.863 113.183C203.606 111.851 203.515 110.443 203.621 108.998C204.264 100.067 212.013 92.8244 220.933 92.8244C225.394 92.8244 229.302 94.6332 232.016 97.5621L234.058 95.6549L235.917 93.9142H235.925Z" fill="#407BFF"/>
<path d="M257.645 122.341L259.686 120.433C256.972 117.504 255.452 113.463 255.777 108.99C256.314 101.505 261.841 95.2084 268.871 93.3617L268.365 90.7583L267.896 88.3818C264.214 89.3506 260.782 91.2578 257.947 93.8991C249.087 102.171 248.112 115.786 255.785 124.066L257.645 122.325V122.341Z" fill="white"/>
<path d="M285.912 124.081L283.908 121.924L282.525 120.433C279.395 123.362 275.229 125.179 270.761 125.179C266.293 125.179 262.385 123.37 259.671 120.441L258.076 121.932L255.77 124.081C259.482 128.085 264.736 130.333 270.391 130.333C276.046 130.333 281.625 128.085 285.904 124.081H285.912Z" fill="#263238"/>
<path d="M285.912 124.081C294.764 115.809 295.74 102.194 288.074 93.9142C283.084 88.5332 275.373 86.4292 267.889 88.397L268.463 91.3335L268.864 93.3693C270.225 93.0136 271.646 92.8244 273.082 92.8244C282.003 92.8244 288.716 100.067 288.081 108.998C287.764 113.463 285.662 117.504 282.532 120.433L284.301 122.341L285.912 124.081Z" fill="#407BFF"/>
<path opacity="0.3" d="M321.618 89.57C322.048 89.57 322.442 89.7366 322.729 90.0393C323.016 90.342 323.152 90.7507 323.122 91.1896L322.185 104.245C322.116 105.176 321.277 105.963 320.347 105.963H307.306C306.876 105.963 306.482 105.796 306.195 105.494C305.908 105.191 305.772 104.782 305.802 104.343L306.739 91.288C306.807 90.3571 307.647 89.57 308.577 89.57H321.618ZM321.618 88.904H308.577C307.291 88.904 306.165 89.956 306.074 91.2426L305.137 104.298C305.046 105.584 306.021 106.636 307.306 106.636H320.347C321.633 106.636 322.759 105.584 322.85 104.298L323.787 91.2426C323.878 89.956 322.903 88.904 321.618 88.904Z" fill="#407BFF"/>
<path opacity="0.3" d="M320.007 112.033C320.438 112.033 320.831 112.199 321.119 112.502C321.406 112.805 321.542 113.213 321.512 113.652L320.574 126.707C320.506 127.638 319.667 128.425 318.737 128.425H305.696C305.265 128.425 304.872 128.259 304.585 127.956C304.298 127.653 304.161 127.245 304.192 126.806L305.129 113.751C305.197 112.82 306.036 112.033 306.966 112.033H320.007ZM320.007 111.367H306.966C305.681 111.367 304.555 112.419 304.464 113.705L303.526 126.76C303.436 128.047 304.411 129.099 305.696 129.099H318.737C320.022 129.099 321.149 128.047 321.24 126.76L322.177 113.705C322.268 112.419 321.292 111.367 320.007 111.367Z" fill="#407BFF"/>
<path d="M300.918 184.271C301.281 184.271 301.614 184.415 301.856 184.665C302.09 184.922 302.211 185.263 302.181 185.634C302.12 186.436 301.425 187.094 300.623 187.094C300.261 187.094 299.928 186.951 299.686 186.701C299.452 186.443 299.331 186.103 299.361 185.732C299.421 184.93 300.117 184.271 300.918 184.271ZM300.918 183.605C299.769 183.605 298.779 184.536 298.696 185.687C298.612 186.837 299.474 187.768 300.623 187.768C301.773 187.768 302.763 186.837 302.846 185.687C302.929 184.536 302.067 183.605 300.918 183.605Z" fill="#407BFF"/>
<path d="M301.085 183.613L300.752 183.59L300.805 182.924L301.137 182.947L301.085 183.613Z" fill="#407BFF"/>
<path d="M301.228 181.577L300.896 181.554L300.994 180.185L301.326 180.207L301.228 181.577ZM301.425 178.845L301.092 178.822L301.19 177.452L301.523 177.475L301.425 178.845ZM301.621 176.113L301.289 176.09L301.387 174.72L301.72 174.743L301.621 176.113ZM301.818 173.381L301.485 173.358L301.584 171.988L301.916 172.011L301.818 173.381ZM302.014 170.649L301.682 170.626L301.78 169.256L302.113 169.279L302.014 170.649ZM302.211 167.916L301.878 167.894L301.977 166.524L302.309 166.547L302.211 167.916ZM302.408 165.184L302.075 165.162L302.173 163.792L302.506 163.814L302.408 165.184ZM302.604 162.452L302.271 162.429L302.37 161.06L302.702 161.082L302.604 162.452ZM302.801 159.72L302.468 159.697L302.566 158.327L302.899 158.35L302.801 159.72ZM302.997 156.988L302.665 156.965L302.763 155.595L303.096 155.618L302.997 156.988ZM303.194 154.256L302.861 154.233L302.959 152.863L303.292 152.886L303.194 154.256Z" fill="#407BFF"/>
<path d="M303.095 150.823L303.048 151.487L303.38 151.511L303.427 150.846L303.095 150.823Z" fill="#407BFF"/>
<path d="M317.354 151.198H197.641C196.968 151.198 196.348 150.933 195.895 150.449C195.441 149.965 195.222 149.321 195.275 148.648L195.864 140.398C195.963 139.021 197.165 137.893 198.541 137.893H318.253C318.926 137.893 319.546 138.158 320 138.642C320.453 139.127 320.673 139.77 320.627 140.444L320.037 148.693C319.939 150.071 318.737 151.198 317.361 151.198H317.354ZM198.541 138.62C197.535 138.62 196.658 139.437 196.583 140.451L195.993 148.701C195.963 149.177 196.114 149.624 196.424 149.957C196.734 150.29 197.165 150.479 197.641 150.479H317.354C318.359 150.479 319.236 149.662 319.312 148.648L319.901 140.398C319.932 139.922 319.78 139.475 319.47 139.142C319.161 138.809 318.73 138.627 318.253 138.627H198.541V138.62Z" fill="#407BFF"/>
<path opacity="0.8" fill-rule="evenodd" clip-rule="evenodd" d="M314.783 143.206H201.308C200.688 143.206 200.219 142.699 200.264 142.086C200.31 141.465 200.847 140.966 201.466 140.966H314.942C315.562 140.966 316.031 141.473 315.985 142.086C315.94 142.707 315.403 143.206 314.783 143.206Z" fill="white"/>
<path opacity="0.8" fill-rule="evenodd" clip-rule="evenodd" d="M295.876 147.944H200.967C200.348 147.944 199.879 147.437 199.924 146.824C199.97 146.203 200.506 145.704 201.126 145.704H296.034C296.654 145.704 297.123 146.211 297.078 146.824C297.032 147.444 296.496 147.944 295.876 147.944Z" fill="white"/>
</g>
</svg>
