<svg xmlns="http://www.w3.org/2000/svg" width="40.995" height="30" viewBox="0 0 40.995 45.65">
  <g id="inprogress" transform="translate(0.325 0.325)">
    <g id="inprogress-2" data-name="inprogress">
      <rect id="Rectangle" width="40.345" height="38.793" rx="6" transform="translate(0 6.207)" fill="#fff"/>
      <path id="Rectangle-2" data-name="Rectangle" d="M0,0H40.345a0,0,0,0,1,0,0V1.759a6,6,0,0,1-6,6H6a6,6,0,0,1-6-6V0A0,0,0,0,1,0,0Z" transform="translate(0 37.241)" fill="#f1f2f6"/>
      <rect id="Rectangle-3" data-name="Rectangle" width="40.345" height="38.793" rx="6" transform="translate(0 6.207)" fill="none" stroke="#19274a" stroke-linecap="round" stroke-linejoin="round" stroke-miterlimit="10" stroke-width="0.65"/>
      <g id="Group_45" data-name="Group 45" transform="translate(6.983)">
        <rect id="Rectangle-4" data-name="Rectangle" width="5.431" height="10.086" rx="2" fill="#fff"/>
        <rect id="Rectangle-5" data-name="Rectangle" width="5.431" height="10.086" rx="2" transform="translate(20.948)" fill="#fff"/>
        <path id="Rectangle-6" data-name="Rectangle" d="M0,0H5.431a0,0,0,0,1,0,0V2.655a2,2,0,0,1-2,2H2a2,2,0,0,1-2-2V0A0,0,0,0,1,0,0Z" transform="translate(0 5.431)" fill="#f1f2f6"/>
        <path id="Rectangle-7" data-name="Rectangle" d="M0,0H5.431a0,0,0,0,1,0,0V2.655a2,2,0,0,1-2,2H2a2,2,0,0,1-2-2V0A0,0,0,0,1,0,0Z" transform="translate(20.948 5.431)" fill="#f1f2f6"/>
        <rect id="Rectangle-8" data-name="Rectangle" width="5.431" height="10.086" rx="2" fill="none" stroke="#19274a" stroke-linecap="round" stroke-linejoin="round" stroke-miterlimit="10" stroke-width="0.65"/>
        <rect id="Rectangle-9" data-name="Rectangle" width="5.431" height="10.086" rx="2" transform="translate(20.948)" fill="none" stroke="#19274a" stroke-linecap="round" stroke-linejoin="round" stroke-miterlimit="10" stroke-width="0.65"/>
      </g>
      <path id="Shape" d="M10.39,17.069H.584a.569.569,0,1,1,0-1.139h.525V12.574a3.24,3.24,0,0,1,1.226-2.389L4.378,8.591,2.335,7A3.24,3.24,0,0,1,1.109,4.609V1.138H.584A.546.546,0,0,1,0,.569.546.546,0,0,1,.584,0H10.39a.545.545,0,0,1,.583.569.545.545,0,0,1-.583.569H9.864V4.609A3.24,3.24,0,0,1,8.638,7L6.6,8.591l2.043,1.593a3.24,3.24,0,0,1,1.226,2.389v3.357h.526a.569.569,0,1,1,0,1.139ZM5.511,9.084a.489.489,0,0,1-.2.248L3.035,11.094a2.049,2.049,0,0,0-.759,1.48v3.357H8.7V12.574a2.05,2.05,0,0,0-.759-1.48L5.662,9.275A.915.915,0,0,1,5.511,9.084ZM2.276,1.138V4.609a2.045,2.045,0,0,0,.759,1.479L5.312,7.908a.942.942,0,0,1,.15.191.49.49,0,0,1,.2-.248L7.938,6.088A2.187,2.187,0,0,0,8.7,4.609V1.138Z" transform="translate(14.741 17.069)" fill="#00a0e3"/>
      <path id="Path" d="M0,4V2.039a1.18,1.18,0,0,1,.473-.864S1.994.055,2.015,0c.027.042,1.512,1.175,1.512,1.175A1.18,1.18,0,0,1,4,2.039V4Z" transform="translate(18.228 27.576)" fill="#00a0e3"/>
    </g>
  </g>
</svg>
