<svg xmlns="http://www.w3.org/2000/svg" width="38.377" height="30" viewBox="0 0 38.377 44.329">
  <g id="inreview" transform="translate(0.075 0.075)">
    <g id="inreview-2" data-name="inreview">
      <path id="Path_22" data-name="Path 22" d="M20.032,0V22a5,5,0,0,1-5,5H0V25.258H13.145a5,5,0,0,0,5-5V0Z" transform="translate(17.855 16.839)" fill="#f1f2f6"/>
      <path id="Path_22-2" data-name="Path 22" d="M31.355,0A3.048,3.048,0,0,1,34.4,2.966V35.71a4.355,4.355,0,0,1-4.264,4.354H2.032A2.032,2.032,0,0,1,0,38.032a.29.29,0,0,1,.581,0,1.452,1.452,0,0,0,1.389,1.45H30.048A3.774,3.774,0,0,0,33.822,35.8V3.048A2.468,2.468,0,0,0,31.355.581a.29.29,0,1,1,0-.581Z" transform="translate(3.774 4.065)" fill="#19274a" stroke="#18264b" stroke-miterlimit="10" stroke-width="0.25"/>
      <rect id="Rectangle" width="12.484" height="0.581" rx="0.29" transform="translate(7.548 14.226)" fill="#d8d8d8"/>
      <g id="Group_4" data-name="Group 4">
        <path id="Rectangle-2" data-name="Rectangle" d="M6,0H28.677a5,5,0,0,1,5,5V35.065a5,5,0,0,1-5,5H5a5,5,0,0,1-5-5V6A6,6,0,0,1,6,0Z" transform="translate(0.29 0.29)" fill="#f1f2f6"/>
        <path id="Rectangle-3" data-name="Rectangle" d="M5,0H31.065a0,0,0,0,1,0,0V31.452a6,6,0,0,1-6,6H6a6,6,0,0,1-6-6V5A5,5,0,0,1,5,0Z" transform="translate(0.29 0.29)" fill="#fff"/>
        <path id="Rectangle-4" data-name="Rectangle" d="M4.355,40.645A4.354,4.354,0,0,1,0,36.291V4.355A4.355,4.355,0,0,1,4.355,0H29.9a4.355,4.355,0,0,1,4.355,4.355V36.291A4.355,4.355,0,0,1,29.9,40.645Z" fill="#19274a" stroke="#18264b" stroke-miterlimit="10" stroke-width="0.15"/>
      </g>
      <g id="Group_59" data-name="Group 59" transform="translate(3.919 6.097)">
        <path id="Path" d="M2.432,2.432,0,0" transform="translate(7.632 7.632)" fill="none" stroke="#00a0e3" stroke-linecap="round" stroke-miterlimit="10" stroke-width="1"/>
        <circle id="Oval" cx="4.473" cy="4.473" r="4.473" fill="none" stroke="#00a0e3" stroke-linecap="round" stroke-miterlimit="10" stroke-width="1"/>
        <path id="Path-2" data-name="Path" d="M3,3A3,3,0,0,0,0,0" transform="translate(4.473 1.473)" fill="none" stroke="#00a0e3" stroke-linecap="round" stroke-miterlimit="10" stroke-width="1"/>
      </g>
      <g id="Group_64" data-name="Group 64" transform="translate(3.919 20.613)">
        <g id="Group_63" data-name="Group 63">
          <path id="Path_14" data-name="Path 14" d="M15.823,0c.16,0,.29.224.29.5,0,.256-.112.468-.256.5l-.034,0H.29C.13,1,0,.776,0,.5,0,.244.112.032.256,0L.29,0Z" transform="translate(6.968 2.468)" fill="#00a0e3"/>
          <rect id="Rectangle-5" data-name="Rectangle" width="4.645" height="5.516" rx="2" fill="#f1f2f6"/>
          <path id="Path-3" data-name="Path" d="M4.461.106A.363.363,0,0,1,5,.59L4.974.62l-2.9,2.9a.363.363,0,0,1-.484.026l-.029-.026L.106,2.071a.363.363,0,0,1,.484-.54l.029.026,1.2,1.2Z" transform="translate(1.379 0.798)" fill="#00a0e3"/>
        </g>
        <g id="Group_62" data-name="Group 62" transform="translate(0 8.419)">
          <path id="Path_14-2" data-name="Path 14" d="M15.823,0c.16,0,.29.224.29.5,0,.256-.112.468-.256.5l-.034,0H.29C.13,1,0,.776,0,.5,0,.244.112.032.256,0L.29,0Z" transform="translate(6.968 2.468)" fill="#19274a"/>
          <rect id="Rectangle-6" data-name="Rectangle" width="4.645" height="5.516" rx="2" fill="#f1f2f6"/>
        </g>
      </g>
    </g>
  </g>
</svg>
