<svg id="new" xmlns="http://www.w3.org/2000/svg" width="32.643" height="44.908" viewBox="0 0 32.643 44.908">
  <path id="Rectangle" d="M4.15,42.418A4.149,4.149,0,0,1,0,38.267V4.15A4.149,4.149,0,0,1,4.151,0H28.494a4.149,4.149,0,0,1,4.149,4.15V38.268a4.149,4.149,0,0,1-4.15,4.15Z" transform="translate(0 2.49)" fill="#19274a"/>
  <path id="Rectangle-2" data-name="Rectangle" d="M3.458,6.916A3.458,3.458,0,1,1,3.458,0H13.971a3.458,3.458,0,1,1,0,6.916Z" transform="translate(7.746)" fill="#19274a"/>
  <g id="White-plus" transform="translate(0.5 8.5)">
    <path id="Path_808" data-name="Path 808" d="M18,7.5v16" transform="translate(-2.5)" fill="none" stroke="#00a0e3" stroke-linecap="round" stroke-linejoin="round" stroke-width="2"/>
    <path id="Path_809" data-name="Path 809" d="M7.5,18h16" transform="translate(0 -2.5)" fill="none" stroke="#00a0e3" stroke-linecap="round" stroke-linejoin="round" stroke-width="2"/>
  </g>
</svg>
