<svg xmlns:xlink="http://www.w3.org/1999/xlink" xmlns="http://www.w3.org/2000/svg" id="Layer_1" data-name="Layer 1" viewBox="0 0 720 586.29" width="720"  height="586.29" ><defs><style>.cls-1,.cls-10,.cls-9{fill:none;}.cls-1{stroke:#3d3d3d;}.cls-1,.cls-10,.cls-12,.cls-8,.cls-9{stroke-miterlimit:10;}.cls-2{fill:#feb834;}.cls-3{fill:#989898;}.cls-4{fill:#3f3f3f;}.cls-5{fill:#787878;}.cls-6{fill:#b9b9b9;}.cls-7{fill:#f1f1f1;}.cls-12,.cls-8{fill:#ebebeb;}.cls-8,.cls-9{stroke:#000;}.cls-10{stroke:#2d80ea;stroke-width:4px;}.cls-11{fill:#2c7eea;}.cls-12{stroke:#fff;stroke-width:3px;}.cls-13{font-size:93.86px;fill:#898989;font-family:MyriadPro-Regular, Myriad Pro;}</style></defs><polyline class="cls-1" points="497.27 459.21 497.27 421.29 538.71 421.29 538.71 438.69"/><rect class="cls-2" x="498.83" y="422.71" width="38.26" height="16.23"/><rect class="cls-3" x="534.25" y="422.71" width="2.84" height="44.11"/><rect class="cls-4" x="461.85" y="449.61" width="3.01" height="39.43"/><rect class="cls-4" x="221.59" y="432.79" width="3.01" height="56.17"/><rect class="cls-4" x="499.28" y="460.3" width="3.01" height="28.74"/><rect class="cls-4" x="530.36" y="467.15" width="3.01" height="21.89"/><rect class="cls-5" x="186.94" y="488.96" width="399.11" height="3.23"/><rect class="cls-6" x="186.94" y="485.73" width="399.11" height="3.23"/><rect class="cls-5" x="186.9" y="488.96" width="399.11" height="3.23"/><rect class="cls-6" x="186.9" y="485.73" width="399.11" height="3.23"/><rect class="cls-5" x="75.05" y="488.96" width="24.48" height="3.23"/><rect class="cls-6" x="75.05" y="485.73" width="24.48" height="3.23"/><circle class="cls-7" cx="112.63" cy="147.91" r="57.62"/><circle class="cls-7" cx="161.52" cy="428.67" r="130.35"/><path class="cls-7" d="M475.36,43a200.88,200.88,0,0,0-177,105.73,217.55,217.55,0,0,1,38.11-3.41c116.22,0,196.87,85.92,224.14,201.28,5.9,23.48,14.48,48.78,12.39,72.87A200.77,200.77,0,0,0,676.29,244C676.29,133,586.33,43,475.36,43Z"/><polyline class="cls-8" points="492.21 396.23 525.25 290.96 400.94 256.66 345.24 439.78 467.77 474.09 492.21 396.23"/><path class="cls-9" d="M238.45,345.71c14.44,14.22,25.57,34.68,10.67,51.44a653.47,653.47,0,0,1-63.41,78.54c-34.19,35.66-67,49.57-75.55-12.48-5.38-39.15-6-72.62-1.94-96.38,1.58-9.21,7.48-40.86,25.37-79.71,8.72-18.95,33.18-70.84,75.27-101.55a155.71,155.71,0,0,1,43.06-22.9c9-3,16.09-4.48,27.41-6.73a437.47,437.47,0,0,1,50.3-6.94c23.56-2.31,63.87-2.67,105.42,17.32,69,33.21,95.83,100.59,113.8,145.75,23.4,58.83,27.78,114.23,26,156.85-46.9,2.86-93.38-13-143.36-31.31-3-1.09-6.17-2.35-7.9-5-3.58-7.51,1.21-18.88,5.17-25.65,7.52-10.24,22.4-10.66,35.09-10.09,23.43,1,42.59-.53,54.9,2.43"/><circle class="cls-10" cx="352.67" cy="252.53" r="35.26"/><rect class="cls-11" x="297.11" y="290.63" width="37.93" height="10.47" rx="1.68" transform="translate(-114.18 344.06) rotate(-49.5)"/><circle class="cls-12" cx="352.67" cy="252.53" r="23.71"/><path class="cls-9" d="M188,374.09c32.59-15.56,60.48-38.36,91.21-56.3C336.66,282.14,329.85,371,258,356.28"/><rect x="221.59" y="283.11" width="2.63" height="70.32"/><path d="M285.52,175.8c-39.83-69.44,37.16-113.48,79.71-51.91,11,23.71-15.24,47.35-38,43.9-7.57-1.89-14.46-8.27-22.06-6.52a73,73,0,0,0-.41,9.58c-6.81-2.25-8-15.64-16.59-14q1.55,11.46,3.55,22.85C288.39,180.6,286.09,179.18,285.52,175.8Z"/><path class="cls-9" d="M287.85,175c35.91,61.33,81,24.1,78.71-35.08"/><path class="cls-9" d="M313.13,185c7.29-3.71,18,.86,23.36,6.19"/><rect x="461.85" y="380.02" width="3.01" height="15.37"/><path class="cls-8" d="M309.16,218.35c-12.36,13.5-18.38,34.94-8.29,51.25"/><path class="cls-9" d="M431.82,145.36c57.83,23,86.07,58.18,114.65,111.3"/><text class="cls-13" transform="translate(211.23 139.2)">?</text></svg>