<svg xmlns="http://www.w3.org/2000/svg" width="58.539" height="50.515" viewBox="0 0 58.539 50.515">
  <g id="Group_2311" data-name="Group 2311" transform="translate(-761.413 -202.605)">
    <circle id="Oval" cx="24.615" cy="24.615" r="24.615" transform="translate(770.721 202.605)" fill="#eeeff2"/>
    <g id="Group_2310" data-name="Group 2310" transform="translate(8391 -12086.39)">
      <circle id="Oval-2" data-name="Oval" cx="18.846" cy="18.846" r="18.846" transform="translate(-7614.584 12294.764)" fill="#fff"/>
      <path id="Path" d="M24.231,0A24.231,24.231,0,1,1,0,24.231,24.231,24.231,0,0,1,24.231,0Z" transform="translate(-7619.899 12289.379)" fill="none" stroke="#19274a" stroke-miterlimit="10" stroke-width="0.3"/>
      <g id="Oval-3" data-name="Oval" transform="translate(-7599.395 12310.148)" fill="#001c47" stroke="#19274a" stroke-miterlimit="10" stroke-width="2">
        <circle cx="3.462" cy="3.462" r="3.462" stroke="none"/>
        <circle cx="3.462" cy="3.462" r="2.462" fill="none"/>
      </g>
      <path id="Path_20" data-name="Path 20" d="M.673,0,0,11.154H1.346Z" transform="translate(-7596.734 12299.379)" fill="#001c47"/>
      <path id="Path_20-2" data-name="Path 20" d="M.673,0,0,7.788H1.346Z" transform="translate(-7588.909 12321.594) rotate(140)" fill="#001c47"/>
      <path id="Path-2" data-name="Path" d="M4.038,0a.454.454,0,0,1,.385.5.472.472,0,0,1-.34.5L4.038,1H.385A.454.454,0,0,1,0,.5.472.472,0,0,1,.34,0L.385,0Z" transform="translate(-7578.852 12313.226)" fill="#19274a" stroke="#19274a" stroke-miterlimit="10" stroke-width="0.3"/>
      <path id="Path-3" data-name="Path" d="M4.231,0a.454.454,0,0,1,.385.5.472.472,0,0,1-.34.5L4.231,1H.385A.454.454,0,0,1,0,.5.472.472,0,0,1,.34,0L.385,0Z" transform="translate(-7595.47 12291.418) rotate(90)" fill="#19274a" stroke="#19274a" stroke-miterlimit="10" stroke-width="0.3"/>
      <path id="Path-4" data-name="Path" d="M4.231,0a.454.454,0,0,1,.385.5.472.472,0,0,1-.34.5L4.231,1H.385A.454.454,0,0,1,0,.5.472.472,0,0,1,.34,0L.385,0Z" transform="translate(-7595.47 12331.418) rotate(90)" fill="#19274a" stroke="#19274a" stroke-miterlimit="10" stroke-width="0.3"/>
      <path id="Oval-4" data-name="Oval" d="M13.642,0A13.642,13.642,0,1,1,0,13.642,13.642,13.642,0,0,1,13.642,0Z" transform="translate(-7629.587 12312.226)" fill="#ffce28"/>
      <path id="Path-5" data-name="Path" d="M1.249,0C.548,0,0,.377,0,1.044c0,2.037.24,4.963.24,7,0,.531.462.753,1.01.753.411,0,.993-.222.993-.753,0-2.037.24-4.963.24-7A1.1,1.1,0,0,0,1.249,0Z" transform="translate(-7617.42 12320.047)" fill="#fff"/>
    </g>
    <path id="Path-6" data-name="Path" d="M1.318,0a1.318,1.318,0,1,0,0,2.636,1.338,1.338,0,0,0,1.3-1.318A1.326,1.326,0,0,0,1.318,0Z" transform="translate(773.528 243.635)" fill="#fff"/>
  </g>
</svg>
