<svg xmlns="http://www.w3.org/2000/svg" width="24" height="24" viewBox="0 0 24 24">
  <g id="projectlist-white" transform="translate(0 17)">
    <path id="Path_823" data-name="Path 823" d="M0,0H24V24H0Z" transform="translate(0 -17)" fill="none"/>
    <g id="Projects_1_" data-name="Projects (1)" transform="translate(-3.533 -17.154)">
      <path id="Path_866" data-name="Path 866" d="M15.708,21.91H7.977a1.642,1.642,0,0,1-.678-.142,1.234,1.234,0,0,1-.764-1.081V6.482a2.27,2.27,0,0,1,.033-.472A1.3,1.3,0,0,1,7.789,4.992a2.205,2.205,0,0,1,.235,0h2.505c.163,0,.161,0,.19-.163a3,3,0,0,1,1.508-2.165,3.965,3.965,0,0,1,4.2.2,2.968,2.968,0,0,1,1.213,2.025.22.22,0,0,0,.016.094h2.69a1.966,1.966,0,0,1,.573.092,1.252,1.252,0,0,1,.9,1.269V12.7a.305.305,0,0,1-.089.232q-1.982,2.174-3.968,4.347c-.025.027-.047.056-.078.094l-.556-.621c-.334-.37-.661-.744-1-1.108a2.305,2.305,0,0,0-1.17-.709,1.338,1.338,0,0,0-1.374.372c-.369.4-.746.757-1.106,1.141a1.889,1.889,0,0,0-.5.907,1.114,1.114,0,0,0,.313,1.068q1.638,1.672,3.282,3.317c.045.048.1.088.148.132ZM7.936,7.794h12.5c0-.019.01-.029,0-.04a.512.512,0,0,0-.014-.148,1.289,1.289,0,0,0-.865-1.131,1.967,1.967,0,0,0-.585-.079h-2.7V6.264a3.512,3.512,0,0,0-.542-1.8A1.878,1.878,0,0,0,12.688,4.4a3.055,3.055,0,0,0-.5,1.162c-.056.27-.084.545-.13.836H9.38a2.3,2.3,0,0,0-.521.059,1.322,1.322,0,0,0-.923,1.342Zm7.975,2.83h3.135a.668.668,0,0,0,.665-.477.7.7,0,0,0-.092-.648.682.682,0,0,0-.582-.284H12.76a.723.723,0,0,0-.533,1.149.649.649,0,0,0,.438.245,1.058,1.058,0,0,0,.206.013Zm0,2.822h3.111a.7.7,0,0,0,.1-1.4,1.03,1.03,0,0,0-.179,0H12.779a.7.7,0,0,0-.078,1.4,1.115,1.115,0,0,0,.167,0Zm-6.257,0h.361a.659.659,0,0,0,.678-.627.639.639,0,0,0-.587-.757,4.09,4.09,0,0,0-.9,0,.615.615,0,0,0-.462.236.634.634,0,0,0-.123.51.657.657,0,0,0,.67.642c.126,0,.249,0,.371,0Zm0-2.826h.381a.656.656,0,0,0,.651-.556.7.7,0,0,0-.134-.609.673.673,0,0,0-.564-.248H9.316a.7.7,0,0,0-.653.991.629.629,0,0,0,.6.418,3.493,3.493,0,0,0,.391,0Z" transform="translate(0)" fill="#fff"/>
      <path id="Path_867" data-name="Path 867" d="M39.55,60.316a.678.678,0,0,1,.164-.359c.232-.234.459-.47.7-.7a.464.464,0,0,1,.674.026q1.2,1.236,2.391,2.476l.179.183a.445.445,0,0,0,.672-.023l1.11-1.217,3.758-4.111a.489.489,0,0,1,.738-.053,5.551,5.551,0,0,1,.91.8,1.348,1.348,0,0,1,.121.168.332.332,0,0,1,0,.383,3.4,3.4,0,0,1-.311.389q-1.727,1.857-3.458,3.7l-2.85,3.048a.425.425,0,0,1-.689,0l-3.7-4.122a3.323,3.323,0,0,1-.245-.279A2.552,2.552,0,0,1,39.55,60.316Z" transform="translate(-26.49 -43.053)" fill="#fff"/>
      <path id="Path_868" data-name="Path 868" d="M40.24,17.072a2.265,2.265,0,0,1,.3-1.189.489.489,0,0,1,.851,0,1.41,1.41,0,0,1,.164.342,2.684,2.684,0,0,1,.123.846Z" transform="translate(-26.746 -10.614)" fill="#fff"/>
    </g>
  </g>
</svg>
