<svg id="total_projects" data-name="total projects" xmlns="http://www.w3.org/2000/svg" width="56.291" height="30" viewBox="0 0 56.291 45">
  <g id="total_projects-2" data-name="total projects" transform="translate(0)">
    <g id="Group_55" data-name="Group 55">
      <path id="Rectangle" d="M0,3A3,3,0,0,1,3,0H23.9l8.245,8.245v33.2a3,3,0,0,1-3,3H3a3,3,0,0,1-3-3Z" transform="translate(10.667 0.28)" fill="#fff"/>
      <path id="Rectangle-2" data-name="Rectangle" d="M0,0H32.143a0,0,0,0,1,0,0V2.311a3,3,0,0,1-3,3H3a3,3,0,0,1-3-3V0A0,0,0,0,1,0,0Z" transform="translate(10.667 39.41)" fill="#f1f2f6"/>
      <path id="Rectangle-3" data-name="Rectangle" d="M4.192,45A4.193,4.193,0,0,1,0,40.808V4.192A4.193,4.193,0,0,1,4.192,0H23.483a1.957,1.957,0,0,1,1.383.573l7.263,7.263A1.956,1.956,0,0,1,32.7,9.22V40.808A4.192,4.192,0,0,1,28.509,45Z" transform="translate(10.388)" fill="#19274a"/>
      <path id="Path_15" data-name="Path 15" d="M.28,0A.28.28,0,0,1,.557.247l0,.033v2.1A3.075,3.075,0,0,0,3.553,5.449H5.73a.28.28,0,0,1,.033.557l-.033,0h-2.1A3.634,3.634,0,0,1,0,2.462V.28A.28.28,0,0,1,.28,0Z" transform="translate(33.167 3.913)" fill="#19274a"/>
      <path id="Path_14" data-name="Path 14" d="M18.028,0c.154,0,.28.234.28.523,0,.268-.108.49-.247.52l-.033,0H.28C.125,1.047,0,.812,0,.523,0,.255.108.034.247,0L.28,0Z" transform="translate(14.166 27.9)" fill="#19274a"/>
      <path id="Path_14-2" data-name="Path 14" d="M13.835,0c.154,0,.28.234.28.523,0,.268-.108.49-.247.52l-.033,0H.28C.125,1.047,0,.812,0,.523,0,.255.108.034.247,0L.28,0Z" transform="translate(14.166 30.7)" fill="#19274a"/>
      <path id="Path_16" data-name="Path 16" d="M9.224,0c.154,0,.28.234.28.523,0,.268-.108.49-.247.52l-.033,0H.28C.125,1.047,0,.812,0,.523,0,.255.108.034.247,0L.28,0Z" transform="translate(14.166 33.5)" fill="#00a0e3"/>
      <path id="Path_3" data-name="Path 3" d="M0,30.75l2.25.375a8.018,8.018,0,0,0,2.25-.75A8.329,8.329,0,0,0,6,28.5L10.875,6.375A9.9,9.9,0,0,0,10.5,3.75,4.14,4.14,0,0,0,8.625,1.875L0,0" transform="translate(44.016 6.375)" fill="#fff"/>
      <path id="Path_18" data-name="Path 18" d="M1.679,22.22,5.173,6.988a11.65,11.65,0,0,0,.28-3.773A4.405,4.405,0,0,0,3.5.839L.7,0V.28a37.631,37.631,0,0,1,.559,5.87C1.025,10.12-.057,13.634,0,15.932.135,21.021,1.679,22.22,1.679,22.22Z" transform="translate(49.516 7.686)" fill="#f1f2f6"/>
      <path id="Path_17" data-name="Path 17" d="M8.525,0a4.193,4.193,0,0,1,4.192,4.1V26.413a4.193,4.193,0,0,1-4.1,4.192H6.988a.28.28,0,0,1-.033-.557l.033,0H8.525A3.634,3.634,0,0,0,12.157,26.5V4.193A3.634,3.634,0,0,0,8.611.56H.28A.28.28,0,0,1,.247,0L.28,0Z" transform="translate(43.9 5.949) rotate(13)" fill="#19274a"/>
      <path id="Path_2" data-name="Path 2" d="M7.125,0,3,.375a8.58,8.58,0,0,0-2.25,1.5A8.833,8.833,0,0,0,0,4.5l2.625,21A7.716,7.716,0,0,0,4.5,27.75a8.5,8.5,0,0,0,3,.375" transform="translate(0.891 10.125)" fill="#fff"/>
      <path id="Path_19" data-name="Path 19" d="M4.472,28.23h0A4.472,4.472,0,0,1,0,23.758V3.952A3.952,3.952,0,0,1,3.952,0h0s-.48,3.761-1.175,9.611S4.472,28.23,4.472,28.23Z" transform="translate(0.311 10.924) rotate(-7)" fill="#f1f2f6"/>
      <path id="Path_19-2" data-name="Path 19" d="M8.106,0a.28.28,0,0,1,.033.557l-.033,0H4.193A3.634,3.634,0,0,0,.56,4.107V24.6a3.634,3.634,0,0,0,3.548,3.633h.645a.28.28,0,0,1,.033.557l-.033,0H4.193A4.193,4.193,0,0,1,0,24.684V4.193A4.193,4.193,0,0,1,4.1,0h4Z" transform="translate(0 10.68) rotate(-7)" fill="#19274a"/>
    </g>
    <g id="Group_14" data-name="Group 14" transform="translate(14.766 8.25)">
      <path id="Path" d="M6,14.25s6-2.85,6-7.125V2.138L6,0,0,2.138V7.125C0,11.4,6,14.25,6,14.25Z" fill="#00a0e3"/>
      <path id="Path-2" data-name="Path" d="M5.845.791,2.4,4.364a.585.585,0,0,1-.749,0L.155,2.624a.423.423,0,0,1,0-.655.585.585,0,0,1,.749,0l1.12,1.413L5.1.136a.585.585,0,0,1,.749,0A.423.423,0,0,1,5.845.791Z" transform="translate(3 4.5)" fill="#fff"/>
    </g>
  </g>
</svg>
