<svg xmlns="http://www.w3.org/2000/svg" viewBox="0 0 24 24"><defs><style>.cls-1{fill:#1d9dda;}</style></defs><g id="Layer_4" data-name="Layer 4"><path class="cls-1" d="M19,9.28a4.57,4.57,0,0,1,1.91.65,4.46,4.46,0,0,1,2.24,4.17,4.49,4.49,0,0,1-2.65,4,4.42,4.42,0,0,1-1.85.45c-.55,0-1.09,0-1.65,0V16.83h.27a17.43,17.43,0,0,0,1.78-.07,2.9,2.9,0,0,0,1.24-5.16A2.83,2.83,0,0,0,18.41,11H17.25c0-.15,0-.26,0-.38a15.62,15.62,0,0,0-.11-2.17,5.29,5.29,0,0,0-10.44.31c0,.29-.07.58-.11.88-.38,0-.76.07-1.13.14a3.56,3.56,0,0,0,.47,7c.37,0,.74,0,1.13,0v1.73A5.37,5.37,0,0,1,.89,13.93,5.29,5.29,0,0,1,4.77,8.14a.39.39,0,0,0,.33-.33A6.77,6.77,0,0,1,10,2.72a6.74,6.74,0,0,1,7.2,2A6.72,6.72,0,0,1,19,8.9C19,9,19,9.14,19,9.28Z"/><path class="cls-1" d="M12.91,21.6H11.17V13L8.61,15.58,7.38,14.36,12,9.7l4.64,4.63-1.23,1.23L12.91,13Z"/></g></svg>