<svg xmlns="http://www.w3.org/2000/svg" width="40" height="40" viewBox="0 0 40 40"><g stroke="#0062cf" stroke-linejoin="round" stroke-width="2" data-name="17-Report" transform="translate(-0.215 -0.215)"><path fill="rgba(0,0,0,0)" d="M0 0H11V3H0z" data-name="Rectangle 4" transform="translate(26.215 9.215)"/><path fill="none" d="M0 0L7 0" data-name="Line 3" transform="translate(25.215 15.215)"/><path fill="none" d="M2 0L0 0" data-name="Line 4" transform="translate(35.215 15.215)"/><path fill="none" d="M1 0L0 0" data-name="Line 5" transform="translate(33.215 15.215)"/><path fill="rgba(0,0,0,0)" d="M35.368,15H31.624a.611.611,0,0,0-.624.624v1.248" data-name="Path 163" transform="translate(-11.281 -5.264)"/><rect width="38" height="38" fill="rgba(0,0,0,0)" data-name="Rectangle 5" rx="2" transform="translate(1.215 1.215)"/><path fill="none" d="M0 0L38 0" data-name="Line 6" transform="translate(1.215 6.215)"/><path fill="none" d="M0 0L1 0" data-name="Line 7" transform="translate(3.215 3.215)"/><path fill="none" d="M0 0L2 0" data-name="Line 8" transform="translate(5.215 3.215)"/><path fill="none" d="M0 0L1 0" data-name="Line 9" transform="translate(37.215 3.215)"/><path fill="rgba(0,0,0,0)" d="M5,17H7.5a1.222,1.222,0,0,1,1.248,1.248V38.214a1.222,1.222,0,0,0,1.248,1.248H32.454A1.222,1.222,0,0,1,33.7,40.71v1.872" data-name="Path 164" transform="translate(-1.504 -6.016)"/><path fill="rgba(0,0,0,0)" d="M0 0H4V10H0z" data-name="Rectangle 6" transform="translate(10.215 23.215)"/><path fill="rgba(0,0,0,0)" d="M0 0H4V14H0z" data-name="Rectangle 7" transform="translate(14.215 19.215)"/><path fill="rgba(0,0,0,0)" d="M0 0H4V20H0z" data-name="Rectangle 8" transform="translate(18.215 13.215)"/><path fill="rgba(0,0,0,0)" d="M0 0H3V7H0z" data-name="Rectangle 9" transform="translate(22.215 26.215)"/><path fill="rgba(0,0,0,0)" d="M0 0H4V14H0z" data-name="Rectangle 10" transform="translate(25.215 19.215)"/></g></svg>