<svg xmlns="http://www.w3.org/2000/svg" width="46" height="46" viewBox="0 0 46 46"><g data-name="Group 191" transform="translate(-139 -156)"><circle cx="23" cy="23" r="23" fill="#0062cf" data-name="Ellipse 22" transform="translate(139 156)"/><g transform="translate(146.4 165.4)"><g><path fill="#fff" fill-rule="evenodd" d="M9.733,10.707a.973.973,0,1,0-.973.973.974.974,0,0,0,.973-.973Zm3.407-2.92H6.327a.487.487,0,0,0-.487.487v5.84a.487.487,0,0,0,.487.487H7.3a.487.487,0,1,0,0-.973H6.813V8.76h5.84v4.179l-1.116-1.116a.486.486,0,0,0-.688,0L8.9,13.769a.487.487,0,1,0,.688.688l1.6-1.6,1.6,1.6a.487.487,0,0,0,.344.143.481.481,0,0,0,.186-.037.487.487,0,0,0,.3-.45V8.273a.487.487,0,0,0-.487-.487Zm9.733,8.76H18.98a.487.487,0,1,0,0,.973h3.893a.487.487,0,0,0,0-.973ZM16.06,14.6H21.9a.487.487,0,0,0,0-.973H16.06a.487.487,0,1,0,0,.973Zm4.867-6.813H16.06a.487.487,0,1,0,0,.973h4.867a.487.487,0,0,0,0-.973Zm1.947,2.92h-2.92a.487.487,0,0,0,0,.973h2.92a.487.487,0,0,0,0-.973Zm-6.813.973h1.947a.487.487,0,0,0,0-.973H16.06a.487.487,0,1,0,0,.973Zm-2.433,5.353a.487.487,0,0,0,.487.487h2.92a.487.487,0,0,0,0-.973h-2.92a.487.487,0,0,0-.487.487Zm-7.3.487h5.84a.487.487,0,1,0,0-.973H6.327a.487.487,0,1,0,0,.973Zm10.077,8.9a.487.487,0,1,0-.688.688l1.947,1.947a.487.487,0,0,0,.688-.688ZM14.6,23.36a.487.487,0,0,0-.487.487v1.259l-3.264,3.264a.487.487,0,1,0,.688.688l3.407-3.407a.485.485,0,0,0,.143-.344v-1.46a.487.487,0,0,0-.487-.487ZM29.2,1.46V3.407a.487.487,0,0,1-.487.487h-.487v16.06a2.436,2.436,0,0,1-2.433,2.433H3.407A2.436,2.436,0,0,1,.973,19.953V5.353a.487.487,0,1,1,.973,0v14.6a1.462,1.462,0,0,0,1.46,1.46H25.794a1.462,1.462,0,0,0,1.46-1.46V3.407a.487.487,0,0,1,.487-.487h.487V1.947H.973V2.92h24.82a.487.487,0,0,1,0,.973H.487A.487.487,0,0,1,0,3.407V1.46A.487.487,0,0,1,.487.973H14.113V.487a.487.487,0,0,1,.973,0V.973H28.714a.487.487,0,0,1,.487.487Z"/></g></g></g></svg>