<svg width="182" height="99" viewBox="0 0 182 99" fill="none" xmlns="http://www.w3.org/2000/svg">
<rect width="21.7609" height="19.7826" rx="2" fill="#A8F0AB"/>
<rect x="53.4131" width="21.7609" height="19.7826" rx="2" fill="#A8F0AB"/>
<rect x="106.826" width="21.7609" height="19.7826" rx="2" fill="#A8F0AB"/>
<rect x="160.239" width="21.7609" height="19.7826" rx="2" fill="#A8F0AB"/>
<rect x="133.533" y="34.6195" width="21.7609" height="19.7826" rx="2" fill="#A8F0AB"/>
<rect x="133.533" y="79.1305" width="21.7609" height="19.7826" rx="2" fill="#A8F0AB"/>
<path d="M19.0943 9.89128C19.0943 11.364 20.2882 12.5579 21.761 12.5579C23.2337 12.5579 24.4277 11.364 24.4277 9.89128C24.4277 8.41852 23.2337 7.22461 21.761 7.22461C20.2882 7.22461 19.0943 8.41852 19.0943 9.89128ZM50.7465 9.89128C50.7465 11.364 51.9404 12.5579 53.4132 12.5579C54.8859 12.5579 56.0798 11.364 56.0798 9.89128C56.0798 8.41852 54.8859 7.22461 53.4132 7.22461C51.9404 7.22461 50.7465 8.41852 50.7465 9.89128ZM21.761 10.3913H53.4132V9.39128H21.761V10.3913Z" fill="#1673DB"/>
<path d="M72.5073 9.89128C72.5073 11.364 73.7012 12.5579 75.174 12.5579C76.6467 12.5579 77.8406 11.364 77.8406 9.89128C77.8406 8.41852 76.6467 7.22461 75.174 7.22461C73.7012 7.22461 72.5073 8.41852 72.5073 9.89128ZM104.159 9.89128C104.159 11.364 105.353 12.5579 106.826 12.5579C108.299 12.5579 109.493 11.364 109.493 9.89128C109.493 8.41852 108.299 7.22461 106.826 7.22461C105.353 7.22461 104.159 8.41852 104.159 9.89128ZM75.174 10.3913H106.826V9.39128H75.174V10.3913Z" fill="#1673DB"/>
<path d="M125.92 9.89128C125.92 11.364 127.114 12.5579 128.587 12.5579C130.06 12.5579 131.254 11.364 131.254 9.89128C131.254 8.41852 130.06 7.22461 128.587 7.22461C127.114 7.22461 125.92 8.41852 125.92 9.89128ZM157.572 9.89128C157.572 11.364 158.766 12.5579 160.239 12.5579C161.712 12.5579 162.906 11.364 162.906 9.89128C162.906 8.41852 161.712 7.22461 160.239 7.22461C158.766 7.22461 157.572 8.41852 157.572 9.89128ZM128.587 10.3913H160.239V9.39128H128.587V10.3913Z" fill="#1673DB"/>
<path d="M144.413 7.22461C142.94 7.22461 141.746 8.41852 141.746 9.89128C141.746 11.364 142.94 12.5579 144.413 12.5579C145.886 12.5579 147.08 11.364 147.08 9.89128C147.08 8.41852 145.886 7.22461 144.413 7.22461ZM144.413 31.9529C142.94 31.9529 141.746 33.1468 141.746 34.6195C141.746 36.0923 142.94 37.2862 144.413 37.2862C145.886 37.2862 147.08 36.0923 147.08 34.6195C147.08 33.1468 145.886 31.9529 144.413 31.9529ZM143.913 9.89128V34.6195H144.913V9.89128H143.913Z" fill="#1673DB"/>
<path d="M144.413 51.7355C142.94 51.7355 141.746 52.9294 141.746 54.4022C141.746 55.875 142.94 57.0689 144.413 57.0689C145.886 57.0689 147.08 55.875 147.08 54.4022C147.08 52.9294 145.886 51.7355 144.413 51.7355ZM144.413 76.4638C142.94 76.4638 141.746 77.6577 141.746 79.1305C141.746 80.6032 142.94 81.7971 144.413 81.7971C145.886 81.7971 147.08 80.6032 147.08 79.1305C147.08 77.6577 145.886 76.4638 144.413 76.4638ZM143.913 54.4022V79.1305H144.913V54.4022H143.913Z" fill="#1673DB"/>
</svg>
