<svg xmlns="http://www.w3.org/2000/svg" width="28.785" height="28.786" viewBox="0 0 28.785 28.786"><g fill="none" transform="translate(0.496 0.497)"><path d="M0 0H28V28H0z" data-name="Rectangle 82" transform="translate(-0.104 -0.104)"/><path stroke="#0062cf" stroke-linecap="round" stroke-miterlimit="10" stroke-width="2" d="M27.785,16.04V12.692L23.8,12.041A9.687,9.687,0,0,0,22.705,9.4l2.322-3.31L22.66,3.721,19.392,6.07a9.61,9.61,0,0,0-2.658-1.106L16.04,1H12.692l-.645,3.952a9.622,9.622,0,0,0-2.666,1.1L6.123,3.719,3.755,6.085,6.047,9.363a9.726,9.726,0,0,0-1.112,2.674L1,12.692V16.04l3.931.7A9.643,9.643,0,0,0,6.042,19.41L3.719,22.66l2.367,2.369,3.282-2.3a9.68,9.68,0,0,0,2.666,1.1l.658,3.955H16.04l.7-3.965a9.677,9.677,0,0,0,2.651-1.11l3.3,2.319,2.367-2.369-2.359-3.276A9.62,9.62,0,0,0,23.8,16.74ZM14.392,18.856a4.464,4.464,0,1,1,4.464-4.464A4.464,4.464,0,0,1,14.392,18.856Z" data-name="Path 192" transform="translate(-0.496 -0.496)"/></g></svg>