<svg id="Layer_1" data-name="Layer 1" xmlns="http://www.w3.org/2000/svg" viewBox="0 0 150 150"><defs><style>.cls-1{fill:#a7abae;}</style></defs><path class="cls-1" d="M23.64,74.88q0-27.42,0-54.85c0-8.86,4.73-13.59,13.57-13.59,18.29,0,36.57,0,54.86-.06A6.64,6.64,0,0,1,98,9.23C106.57,20.21,115.43,31,124,42a11,11,0,0,1,2.23,6.22c.15,27.26.11,54.51.1,81.76,0,8.69-4.61,13.53-13.28,13.55q-38.25.12-76.52,0c-8.23,0-12.89-4.86-12.9-13.13Q23.62,102.66,23.64,74.88ZM92.23,11.15H37.28c-6.4,0-9.12,2.64-9.12,9.13q-.06,54.84,0,109.69c0,6.35,2.88,9.08,9.28,9.08q37.55,0,75.1,0c6.38,0,9.1-2.75,9.1-9.15q0-39.14,0-78.25c0-1.12-.11-2.25-.18-3.68-6.91,0-13.53,0-20.14,0s-9.08-2.63-9.08-9.12C92.23,29.79,92.23,20.72,92.23,11.15Z"/><path class="cls-1" d="M65.39,56.67l-13.31,1a5.47,5.47,0,0,1-1.07,0c-3.22-.31-4.38-2.32-3.09-5.29A2.19,2.19,0,0,0,48,51.06c-1.76-6-3.57-12-5.34-18-.15-.51-.36-.65-.85-.64-.91,0-1.81,0-2.72,0a1.55,1.55,0,1,1,.06-3.07h4.29a1.55,1.55,0,0,1,1.68,1.27c.33,1.08.7,2.14,1,3.24.15.66.45.84,1.12.84q12.24,0,24.48,0h.74a1.49,1.49,0,0,1,1.59,2c-.57,3.12-1.18,6.25-1.78,9.37-.22,1.16-.44,2.32-.67,3.48s-.59,1.56-1.84,1.72L58.22,52.64c-2.56.31-5.11.65-7.68.93-.57.06-.74.39-.69.8a1,1,0,0,0,.55.72,11.62,11.62,0,0,0,2.28.11c5.54-.29,11.08-.61,16.61-.91a2.79,2.79,0,0,1,.5,0A1.24,1.24,0,0,1,71,55.62a1.2,1.2,0,0,1-1.3,1.1c-1.43,0-2.86,0-4.29,0ZM47.3,37.8c.32,1.11.63,2.13.93,3.15.52,1.78.51,1.78,2.35,1.78H54.8V37.8ZM62.57,49V44.26H56.39v5.52Zm-6.18-6.36h6.17V37.82H56.39Zm13.4,0,.94-4.87H64.16V42.7Zm-15,1.56H49.21l1.84,6.17L54.84,50Zm9.3,4.58c1.43-.17,2.81-.33,4.19-.52a.61.61,0,0,0,.43-.38c.26-1.21.49-2.44.73-3.7H64.14Z"/><path class="cls-1" d="M49.8,58.91a3.06,3.06,0,1,1,0,6.11,3.06,3.06,0,0,1,0-6.11Z"/><path class="cls-1" d="M67.23,65a3.06,3.06,0,0,1,0-6.11,3.06,3.06,0,1,1,0,6.11Z"/><rect class="cls-1" x="65.18" y="88.39" width="47.14" height="6.3" rx="2.64"/><rect class="cls-1" x="64.74" y="112.19" width="49.1" height="6.57" rx="2.75"/><path class="cls-1" d="M44.05,97.12a1.43,1.43,0,0,1-1-.4l-4.27-4.14a1.35,1.35,0,0,1,0-1.94,1.45,1.45,0,0,1,2,0l3.26,3.16,8.24-8a1.45,1.45,0,0,1,2,0,1.34,1.34,0,0,1,0,2l-9.24,9A1.44,1.44,0,0,1,44.05,97.12Z"/><path class="cls-1" d="M44.05,97.81a2.13,2.13,0,0,1-1.5-.6l-4.27-4.14a2,2,0,0,1,0-2.92,2.24,2.24,0,0,1,3,0l2.75,2.67,7.74-7.5a2.24,2.24,0,0,1,3,0,2,2,0,0,1,0,2.93l-9.25,9A2.15,2.15,0,0,1,44.05,97.81Zm-4.26-6.89a.7.7,0,0,0-.5.2.67.67,0,0,0-.21.49.7.7,0,0,0,.2.49l4.27,4.13a.75.75,0,0,0,1,0l9.24-9a.67.67,0,0,0,0-1,.75.75,0,0,0-1,0l-8.74,8.47-3.76-3.65A.7.7,0,0,0,39.79,90.92Z"/><path class="cls-1" d="M45.32,119.25a1.39,1.39,0,0,1-1-.39l-4.1-4a1.3,1.3,0,0,1,0-1.87,1.39,1.39,0,0,1,1.93,0l3.14,3,7.91-7.67a1.39,1.39,0,0,1,1.93,0,1.3,1.3,0,0,1,0,1.87l-8.88,8.6A1.37,1.37,0,0,1,45.32,119.25Z"/><path class="cls-1" d="M45.32,119.91a2,2,0,0,1-1.45-.58l-4.1-4a1.93,1.93,0,0,1-.6-1.4,2,2,0,0,1,.6-1.41,2.15,2.15,0,0,1,2.9,0l2.65,2.57,7.42-7.2a2.15,2.15,0,0,1,2.9,0,1.91,1.91,0,0,1,.6,1.4,2,2,0,0,1-.6,1.41l-8.88,8.6A2,2,0,0,1,45.32,119.91Zm-4.1-6.62a.67.67,0,0,0-.48.2.64.64,0,0,0,0,.93l4.09,4a.72.72,0,0,0,1,0l8.87-8.61a.63.63,0,0,0,.2-.47.67.67,0,0,0-.2-.47.71.71,0,0,0-1,0L45.32,117l-3.62-3.5A.67.67,0,0,0,41.22,113.29Z"/></svg>