<svg id="Layer_1" data-name="Layer 1" xmlns="http://www.w3.org/2000/svg" viewBox="0 0 150 150"><defs><style>.cls-1{fill:#a7abae;}</style></defs><path class="cls-1" d="M47.76,125.32v-5.78a19.93,19.93,0,0,1-9.66-2.63l1.61-5.6a18.79,18.79,0,0,0,9.3,2.62c3.76,0,6.32-1.85,6.32-4.71,0-2.69-2.09-4.41-6.5-6-6.26-2.26-10.32-5.12-10.32-10.67,0-5.13,3.58-9.07,9.6-10.14V76.53H53v5.55a19,19,0,0,1,8.23,2l-1.61,5.49a17.68,17.68,0,0,0-8.11-2c-4.18,0-5.67,2.15-5.67,4.17,0,2.45,2.15,3.82,7.22,5.85,6.68,2.5,9.66,5.72,9.66,11,0,5.07-3.52,9.55-10.08,10.62v6.14Z"/><path class="cls-1" d="M20.25,116.17a2.48,2.48,0,0,0,2.48-2.48V88.27q0-32.18,0-64.35c0-9.05,4.71-13.82,13.64-13.83q41.78,0,83.55,0c8,0,12.92,4.42,13.06,11.52s-5,12-13.06,12.22c-1.19,0-2.38,0-3.74,0a2.49,2.49,0,0,0-2.5,2.49c0,6.27.15,12.18-.13,18.08a4.62,4.62,0,0,1-.44,1.61,2.49,2.49,0,0,1-4.51,0,3.89,3.89,0,0,1-.43-1.56c-.29-5.91-.17-11.84-.14-18.15a2.47,2.47,0,0,0-2.48-2.48h-3.63c-18.16,0-36.33-.08-54.49.06-3.78,0-5.44-1.14-5.11-5a26.09,26.09,0,0,0-.21-7.23c-.76-3.76-3.2-6.36-7.19-6.21S28.68,18.1,28,22a27.83,27.83,0,0,0-.12,4.66q0,49.05,0,98.08c0,2.31-.28,4.62-.55,7.3a2.48,2.48,0,0,0,2.46,2.74h2.29c14.87,0,29.75-.09,44.62.12a3.16,3.16,0,0,1,.9.16,2.48,2.48,0,0,1-.38,4.76l-.44,0q-30.36.23-60.72.07c-8,0-12.95-4.9-13-12.92,0-11.65-1.47-10.8,10.3-10.79Z"/><path class="cls-1" d="M75.07,103.17c-1-21.09,17.72-34.47,34.46-35.6C130.27,66.18,147.22,83.93,147,104c-.25,19.68-16.32,35.38-36.26,35.6C89.46,139.78,73.39,120.44,75.07,103.17Zm36.14-30.28a30.76,30.76,0,0,0-31.46,30.33C79.34,119,93.33,133.88,108.62,134c18.82.17,32.22-12.12,33-29C142.52,86.75,126.62,71.93,111.21,72.89Z"/><path class="cls-1" d="M67.82,49.11c-8.29,0-16.57.14-24.85-.13a2.51,2.51,0,0,1-.8-.15,2.6,2.6,0,0,1,.07-4.89,3.35,3.35,0,0,1,.83-.14q25.09-.28,50.2,0l.4,0c2.68.48,2.65,4.54,0,5.08a2.59,2.59,0,0,1-.47,0c-8.45.26-16.91.12-25.36.12Z"/><path class="cls-1" d="M55.05,60.31c4.15,0,8.31-.16,12.44.1a2.66,2.66,0,0,1,1.13.4,2.11,2.11,0,0,1-.08,3.68,1.56,1.56,0,0,1-.61.15q-13.47.26-27,0a1.46,1.46,0,0,1-.85-.35,2.12,2.12,0,0,1-.24-3.19,2,2,0,0,1,1.17-.69C45.72,60.18,50.39,60.31,55.05,60.31Z"/><path class="cls-1" d="M116.34,108.33a33.75,33.75,0,0,1-4.66.94c-5,.32-8.73-3.81-6.15-7.79,3.71-5.69,2.23-11.55,2.74-17.38a10.37,10.37,0,0,1,.78-3.94,2.78,2.78,0,0,1,2.66-.75,4.08,4.08,0,0,1,1.8,2.78,107.63,107.63,0,0,1,.1,11.36c-.24,5.25,2.57,7.89,7.21,9.15,2,.54,4.24.56,5.92,1.56a3.84,3.84,0,0,1,.61.45,3.22,3.22,0,0,1-1.77,5.64,2.81,2.81,0,0,1-.41,0C122.14,110.1,119.18,109,116.34,108.33Z"/><circle class="cls-1" cx="111" cy="103.5" r="7"/></svg>