<svg xmlns="http://www.w3.org/2000/svg" xmlns:xlink="http://www.w3.org/1999/xlink" width="525" height="231" viewBox="0 0 525 231" version="1.1">
    <!-- Generator: Sketch 57.1 (83088) - https://sketch.com -->
    <title>Resting Image Asset</title>
    <desc>Created with Sketch.</desc>
    <defs>
        <polygon id="path-1" points="0.256634375 0.24182243 122.413828 0.24182243 122.413828 137.673808 0.256634375 137.673808"/>
        <polygon id="path-3" points="0 0 61 0 61 61 0 61"/>
        <polygon id="path-5" points="0.357371795 0 49.6707273 0 49.6707273 39.8262857 0.357371795 39.8262857"/>
    </defs>
    <g id="Resting-Image-Asset" stroke="none" stroke-width="1" fill="none" fill-rule="evenodd">
        <g id="Group-48">
            <g id="Group-3" transform="translate(366.000000, 93.000000)">
                <mask id="mask-2" fill="white">
                    <use xlink:href="#path-1"/>
                </mask>
                <g id="Clip-2"/>
                <path d="M22.7656344,0.24182243 C25.8470406,11.1231869 27.5004937,22.5855701 27.5004937,34.4284206 C27.5004937,46.0455701 25.9059781,57.297729 22.9373219,67.992729 L22.96615,67.9688692 C22.9379625,68.0539907 22.8937594,68.1848972 22.8361031,68.3570748 C21.81815,71.9798972 20.6432437,75.5401682 19.3152281,79.0269252 C14.6303375,93.2609159 6.4200875,118.547804 0.256634375,137.571168 L122.387947,137.571168 C122.39115,137.216495 122.414212,137.926486 122.414212,137.571168 C122.414212,73.475972 80.504525,18.6138785 22.7656344,0.24182243" id="Fill-1" fill="#82B5A1" mask="url(#mask-2)"/>
            </g>
            <path d="M107.87223,155 C77.4476372,160.323642 53.1522581,183.675729 46.2015237,213.461967 L17.7341588,213.461967 C7.94029336,213.461967 0,221.190642 0,230.944775 L197.98648,230.944775 C197.987767,230.754348 198,231.135844 198,230.944775 C198,230.924899 198,230.905023 198,230.884505 L87.7250152,230.884505 L107.87223,155 Z" id="Fill-4" fill="#69A1AE"/>
            <path d="M386,127.092753 C386,115.295509 384.345932,103.876003 381.263379,93.0359527 C366.006988,39.3843185 315.599245,0 255.757994,0 C189.89455,0 143.172412,47.3951892 126.744522,109.647428 L115.053894,153.969321 L95,230 L204.765783,230 L358.695379,230 C358.712041,229.948607 358.729344,229.895287 358.746648,229.843894 C364.912393,210.892756 373.125056,185.701876 377.812331,171.521929 C379.14084,168.04841 380.316183,164.501656 381.334515,160.892589 C381.392193,160.721707 381.435772,160.591298 381.46461,160.5065 L381.435131,160.530269 C384.405532,149.875233 386,138.666438 386,127.092753" id="Fill-6" fill="#FFFFFF"/>
            <g id="Group-3" transform="translate(188.500000, 96.500000) rotate(-19.000000) translate(-188.500000, -96.500000) translate(158.000000, 66.000000)">
                <mask id="mask-4" fill="white">
                    <use xlink:href="#path-3"/>
                </mask>
                <g id="Clip-2"/>
                <path d="M2.05741204,11.9911461 C4.8006281,14.7343563 9.24795539,14.7343563 11.9911715,11.9911461 C12.8447772,11.1370254 13.432277,10.1180745 13.7547044,9.03660166 L41.552696,14.4920196 C41.3573794,16.5092531 42.0316866,18.5946923 43.576651,20.1396534 C45.0234404,21.5864398 46.9445701,22.2622957 48.8398642,22.1832391 L52.3359275,47.1532213 C51.1170074,47.4451621 49.9600926,48.0579795 49.0093453,49.0092415 C46.2661292,51.7524517 46.2661292,56.1997696 49.0093453,58.9429798 C51.7520446,61.6856734 56.1998886,61.6856734 58.942588,58.9429798 C61.685804,56.1997696 61.685804,51.7524517 58.942588,49.0092415 C57.4957986,47.5619384 55.5746689,46.8865992 53.6798915,46.9661725 L50.1838282,21.9956736 C51.4027483,21.7037328 52.5596631,21.0903987 53.5104104,20.1396534 C56.2531098,17.3964432 56.2531098,12.9491253 53.5104104,10.2059151 C50.7671944,7.46322151 46.3198671,7.46322151 43.576651,10.2059151 C42.7230453,11.0600357 42.1350287,12.0789867 41.8131181,13.1604594 L14.0151265,7.70452481 C14.2104431,5.68780799 13.5356191,3.60236882 11.9911715,2.05740769 C9.24795539,-0.685802562 4.8006281,-0.685802562 2.05741204,2.05740769 C-0.685804014,4.80061793 -0.685804014,9.24793581 2.05741204,11.9911461" id="Fill-1" fill="#69A1AE" mask="url(#mask-4)"/>
            </g>
            <g id="Group-12" transform="translate(153.000000, 0.000000)">
                <mask id="mask-6" fill="white">
                    <use xlink:href="#path-5"/>
                </mask>
                <g id="Clip-11"/>
            </g>
            <g id="Group" transform="translate(79.000000, 104.000000)">
                <path d="M59.9244047,95.2177508 C59.9244047,95.2177508 47.563733,95.0904546 46.961449,95.1058844 C45.1068115,95.1058844 45.0012029,95.4393094 44.2745972,95.571106 L61.7325451,119.938921 L75.0968087,127 L97.8006616,127 L104,102.35405 L74.4417041,106.83256 C73.6925529,96.9960394 64.1255773,95.9712411 64.1255773,95.9712411 C64.1255773,95.9712411 63.6617864,94.4822619 63.4943063,94.2810311 C63.0839802,93.7866334 62.5190571,94.0431544 61.94576,94.3022471 L59.9244047,95.2177508 Z" id="Fill-20" fill="#DA8F8F"/>
                <polygon id="Fill-22" fill="#DA8F8F" points="252 32 270.669067 31.3591309 271.422359 47.5436507 252 49.7344971"/>
                <polygon id="Fill-24" fill="#DA8F8F" points="245 107.501748 253.862187 119 271 115.339521 262.118871 101"/>
                <path d="M250.575764,115.299 L266.133074,109.252836 C265.902021,107.099611 267.575711,105.063475 269.941277,105 L273.852525,112.713157 L293.645581,120.037452 C296.479012,120.889745 297.16687,126.673808 297.16687,126.673808 L250.31665,126 L250.575764,115.299 Z" id="Fill-26" fill="#293D40"/>
                <path d="M271.422359,47.5436507 L270.040277,32.1136893 C267.831403,31.5386597 266.428635,29.1761499 267.225692,26.874745 L276.25706,25.9607438 L291.750858,6.39815899 C293.620353,3.9854788 299,5.42755531 299,5.42755531 L285.908362,53 L271.422359,47.5436507 Z" id="Fill-28" fill="#293D40"/>
                <path d="M201.188059,49.1259766 C203.891292,45.9740472 207.707874,43.9131383 211.85585,44 L220.408165,44.1796175 C225.807854,44.2926692 229.855847,47.1215081 232.952637,53 L239.406813,63.4662821 L246.699418,63.4662821 C249.615695,63.2369929 251.98214,60.8099753 252,57.8809484 L252,32 L194.88703,33.9192599 C187.453459,33.8477268 182.465426,38.362618 178.587263,45.7247841 C178.587263,45.7247841 157.249015,84.0493087 150.376119,97.2931601 L162.03027,95.371819 L201.188059,49.1259766 Z" id="Fill-30" fill="#69A1AE"/>
                <path d="M239.829815,63.823322 L233.350553,53.3981024 C230.217092,47.5308087 226.242018,44.2994623 220.408165,44.1796175 L211.85585,44.0030377 C207.658755,43.9163415 203.643019,45.6891516 200.90713,48.8344392 L162.03027,95.371819 L150.376119,97.2931601 L142,98.6745622 L142,127 L142.030334,126.95219 L175.028809,126.95219 C184.779003,126.95219 193.857327,121.868987 198.700477,113.509814 C199.766047,111.671345 200.872278,109.581711 202.015943,107.207127 C202.555505,106.086451 218.305423,80.0654751 218.305423,80.0654751 L235.604967,107.562199 C236.323953,109.618684 238.660333,110.636727 240.6824,109.774865 L263,101.102694 L239.829815,63.823322 Z" id="Fill-32" fill="#82B5A1"/>
                <path d="M88.598591,37.7244381 L87.063336,7.51109395 C86.7473327,3.98100097 87.5412746,0.768520694 91.0979507,-7.10542736e-15 L99,35.3015676 L88.598591,37.7244381 Z" id="Fill-34" fill="#DA8F8F"/>
                <path d="M115.627372,102.87662 C113.762551,100.160551 110.776166,98.2987656 107.344717,97.9800991 L109.842166,86.0864332 C110.257348,84.1100568 110.250354,82.0667282 109.821185,80.0929269 L98.8655984,35 L88.598591,37.7244381 L90.7361733,79.1633219 L77.9043215,113.209785 C76.0820993,118.044504 77.1898626,123.337588 80.1005859,127 L142,127 L142,98.6745622 L115.627372,102.87662 Z" id="Fill-36" fill="#293D40"/>
                <path d="M61.2599974,118.102905 L52.3501989,103.828258 C44.9429024,89.7349257 29.4585347,92.1495175 22.5362474,102.558417 L18.2564903,102.558417 C8.17394466,102.558417 -7.81597009e-14,110.606425 -7.81597009e-14,120.535186 C-7.81597009e-14,122.783625 0.42277918,124.932877 1.18750267,126.916608 L1.30811343,126.916608 L1.18750267,127 L67.6100252,127 L75.0968087,127 C72.3054396,122.403936 67.490056,119.265346 62.1177452,118.433316 L61.2599974,118.102905 Z" id="Fill-38" fill="#293D40"/>
            </g>
            <path d="M502.591741,176 L485.754693,225.814455 L451.365421,225.814455 C447.868293,225.814455 446,226.53656 446,230 L484.678407,230 L503.182705,230 C505.926241,230 508.356687,228.247675 509.198635,225.662299 L524.906896,178.382502 C525.296817,177.208369 524.413252,176 523.165375,176 L502.591741,176 Z" id="Fill-40" fill="#F7F7F7"/>
        </g>
    </g>
</svg>