<svg xmlns="http://www.w3.org/2000/svg" width="23.96" height="23.959" viewBox="0 0 23.96 23.959">
  <g id="Orchestration" transform="translate(0 0)">
    <g id="layers_1_" data-name="layers (1)" transform="translate(0 0)">
      <path id="Combined_Shape" data-name="Combined Shape" d="M11.574,23.857.45,17.867a.855.855,0,0,1,0-1.506l1.7-.916,9.428,4.992a.855.855,0,0,0,.8,0l9.428-4.992,1.7.916a.856.856,0,0,1,0,1.506l-11.125,5.99a.855.855,0,0,1-.811,0ZM.144,12.446A.781.781,0,0,1,.1,12.372.847.847,0,0,1,.45,11.226l1.7-.916L11.58,15.3a.86.86,0,0,0,.8,0l9.428-4.993,1.7.916c.025.013.05.029.075.045a.847.847,0,0,1,.232,1.175L11.98,18.713Zm0-5.134C.128,7.288.112,7.263.1,7.238A.847.847,0,0,1,.45,6.092L11.574.1a.855.855,0,0,1,.811,0L23.51,6.092c.025.013.05.029.075.045a.847.847,0,0,1,.232,1.175L11.98,13.578Z" transform="translate(0 0)" fill="#a0a0a0"/>
    </g>
  </g>
</svg>
