<svg id="inactive_SO" data-name="inactive/SO" xmlns="http://www.w3.org/2000/svg" width="25.958" height="21.301" viewBox="0 0 25.958 21.301">
  <path id="Combined_Shape" data-name="Combined Shape" d="M8.156,21.3,10.3,18.5h5.631l2.147,2.8ZM1.867,17.246A1.868,1.868,0,0,1,0,15.379V1.867A1.868,1.868,0,0,1,1.867,0H24.09a1.869,1.869,0,0,1,1.867,1.867V15.379a1.869,1.869,0,0,1-1.867,1.867ZM11.5,6.613l2.281,7.6.042.113a.751.751,0,0,0,1.394-.113l1.34-4.466H18l.1-.006A.75.75,0,0,0,18,8.25H16l-.109.007a.752.752,0,0,0-.609.527l-.783,2.6-2.281-7.6-.043-.112a.75.75,0,0,0-1.393.112L9.441,8.25H8l-.1.006A.75.75,0,0,0,8,9.75h2l.109-.007a.752.752,0,0,0,.609-.527l.781-2.6v0Z" transform="translate(0 0)" fill="#a0a0a0"/>
</svg>
