<svg id="inactive_admin" data-name="inactive/admin" xmlns="http://www.w3.org/2000/svg" width="26" height="26" viewBox="0 0 26 26">
  <g id="Group_6" data-name="Group 6">
    <g id="Admin">
      <path id="Combined_Shape" data-name="Combined Shape" d="M13.094,26a2.366,2.366,0,0,1-2.363-2.363V23.53a1.939,1.939,0,0,0-1.276-1.784,1.95,1.95,0,0,0-2.151.39l-.071.071A2.378,2.378,0,0,1,5.56,22.9,2.366,2.366,0,0,1,3.2,20.534a2.378,2.378,0,0,1,.693-1.672l.071-.071a1.966,1.966,0,0,0-1.395-3.333h-.2a2.364,2.364,0,0,1,0-4.728H2.47A1.94,1.94,0,0,0,4.254,9.455,1.94,1.94,0,0,0,3.865,7.3l-.071-.071A2.378,2.378,0,0,1,3.1,5.56,2.366,2.366,0,0,1,5.466,3.2a2.378,2.378,0,0,1,1.672.693l.071.071a1.95,1.95,0,0,0,2.151.39h.094a1.948,1.948,0,0,0,1.182-1.785v-.2a2.364,2.364,0,0,1,4.728,0V2.47a1.964,1.964,0,0,0,3.333,1.4l.071-.071A2.378,2.378,0,0,1,20.44,3.1a2.366,2.366,0,0,1,2.365,2.365,2.378,2.378,0,0,1-.693,1.672l-.071.071a1.94,1.94,0,0,0-.39,2.151v.094a1.947,1.947,0,0,0,1.784,1.182h.2a2.364,2.364,0,0,1,0,4.728H23.53A1.966,1.966,0,0,0,22.135,18.7l.071.071A2.378,2.378,0,0,1,22.9,20.44a2.366,2.366,0,0,1-2.365,2.365,2.378,2.378,0,0,1-1.672-.693l-.071-.071a1.966,1.966,0,0,0-3.333,1.394v.2A2.367,2.367,0,0,1,13.094,26ZM13,9.75A3.25,3.25,0,1,0,16.25,13,3.254,3.254,0,0,0,13,9.75Z" fill="#a0a0a0"/>
    </g>
  </g>
</svg>
